<svg width="430" height="121" viewBox="0 0 430 121" fill="none" xmlns="http://www.w3.org/2000/svg">
<path d="M424.221 3.65204L387.166 46.7398C385.554 48.6143 385.554 51.3857 387.166 53.2602L424.221 96.348C424.779 96.9963 424.318 98 423.463 98H2.99999C2.44771 98 2 97.5523 2 97V3C2 2.44772 2.44771 2 3 2H215H423.463C424.318 2 424.779 3.00369 424.221 3.65204Z" fill="white" stroke="#FFB800" stroke-width="4"/>
<path d="M424.221 23.652L387.166 66.7398C385.554 68.6143 385.554 71.3857 387.166 73.2602L424.221 116.348C424.779 116.996 424.318 118 423.463 118H2.99999C2.44771 118 2 117.552 2 117V23C2 22.4477 2.44771 22 3 22H215H423.463C424.318 22 424.779 23.0037 424.221 23.652Z" fill="black" stroke="white" stroke-width="4"/>
<path d="M424.221 13.652L387.166 56.7398C385.554 58.6143 385.554 61.3857 387.166 63.2602L424.221 106.348C424.779 106.996 424.318 108 423.463 108H2.99999C2.44771 108 2 107.552 2 107V13C2 12.4477 2.44771 12 3 12H215H423.463C424.318 12 424.779 13.0037 424.221 13.652Z" fill="#E7E7E7" stroke="#76FF03" stroke-width="4"/>
<line x1="10" y1="23" x2="30" y2="23" stroke="#FFB800" stroke-width="4"/>
<line x1="12" y1="22" x2="12" y2="97" stroke="#FFB800" stroke-width="4"/>
<line x1="10" y1="98" x2="30" y2="98" stroke="#FFB800" stroke-width="4"/>
<line y1="-2" x2="46.6315" y2="-2" transform="matrix(0.652039 -0.758185 0.652039 0.758185 380.98 55.3555)" stroke="#FFB800" stroke-width="4"/>
<line x1="372.38" y1="53" x2="380.98" y2="53" stroke="#FFB800" stroke-width="4"/>
<line x1="372.38" y1="66" x2="380.98" y2="66" stroke="#FFB800" stroke-width="4"/>
<line y1="-2" x2="46.6315" y2="-2" transform="matrix(0.652039 0.758185 -0.652039 0.758185 378.4 67)" stroke="#FFB800" stroke-width="4"/>
<path d="M69.1211 71L70.8789 63.9688H82.3047V46.3906H89.3359V71H69.1211ZM112.188 46.3906L110.43 53.4219H98.125V55.1797H110.43V71H89.3359L91.0938 63.9688H103.398V62.2109H91.0938V46.3906H112.188ZM126.25 53.4219H119.219V63.9688H126.25V53.4219ZM133.281 46.3906V71H112.188V46.3906H133.281ZM156.133 71H149.102V53.4219H142.07V71H135.039V46.3906H156.133V71ZM164.922 46.3906H171.953V62.6855L178.984 63.8457V46.3906H186.016V72.7578L164.922 69.2422V46.3906ZM201.836 53.4219H194.805V63.9688H201.836V53.4219ZM208.867 46.3906V71H187.773V46.3906H208.867ZM224.688 53.4219H217.656V55.1797H224.688V53.4219ZM231.719 46.3906V62.2109H227.834L232.879 71H224.969L217.656 58.2383V71H210.625V46.3906H231.719ZM233.477 46.3906H240.508V55.1797H247.539V46.3906H254.57V71H247.539V62.2109H240.508V71H233.477V46.3906ZM277.422 46.3906L275.664 53.4219H263.359V55.1797H275.664L273.906 62.2109H263.359V63.9688H277.422L275.664 71H256.328V46.3906H277.422ZM298.516 46.3906L296.758 53.4219H284.453V55.1797H296.758L295 62.2109H284.453V63.9688H298.516L296.758 71H277.422V46.3906H298.516ZM319.609 46.3906L317.852 53.4219H305.547V55.1797H317.852V71H296.758L298.516 63.9688H310.82V62.2109H298.516V46.3906H319.609Z" fill="black"/>
</svg>
