<svg width="478" height="121" viewBox="0 0 478 121" fill="none" xmlns="http://www.w3.org/2000/svg">
<path d="M471.704 3.69103L430.736 46.5449C428.888 48.4777 428.888 51.5223 430.736 53.4551L471.704 96.309C472.313 96.9451 471.862 98 470.982 98H2.99999C2.44771 98 2 97.5523 2 97V3C2 2.44771 2.44771 2 3 2H239H470.982C471.862 2 472.313 3.05486 471.704 3.69103Z" fill="white" stroke="#FFB800" stroke-width="4"/>
<path d="M471.704 23.691L430.736 66.5449C428.888 68.4777 428.888 71.5223 430.736 73.4551L471.704 116.309C472.313 116.945 471.862 118 470.982 118H2.99999C2.44771 118 2 117.552 2 117V23C2 22.4477 2.44771 22 3 22H239H470.982C471.862 22 472.313 23.0549 471.704 23.691Z" fill="black" stroke="white" stroke-width="4"/>
<path d="M471.704 13.691L430.736 56.5449C428.888 58.4777 428.888 61.5223 430.736 63.4551L471.704 106.309C472.313 106.945 471.862 108 470.982 108H2.99999C2.44771 108 2 107.552 2 107V13C2 12.4477 2.44771 12 3 12H239H470.982C471.862 12 472.313 13.0549 471.704 13.691Z" fill="#E7E7E7" stroke="#76FF03" stroke-width="4"/>
<line x1="10" y1="23" x2="30" y2="23" stroke="#FFB800" stroke-width="4"/>
<line x1="12" y1="22" x2="12" y2="97" stroke="#FFB800" stroke-width="4"/>
<line x1="10" y1="98" x2="30" y2="98" stroke="#FFB800" stroke-width="4"/>
<line y1="-2" x2="48.9124" y2="-2" transform="matrix(0.691026 -0.72283 0.691026 0.72283 423.508 55.3553)" stroke="#FFB800" stroke-width="4"/>
<line x1="413.948" y1="53" x2="423.508" y2="53" stroke="#FFB800" stroke-width="4"/>
<line x1="413.948" y1="66" x2="423.508" y2="66" stroke="#FFB800" stroke-width="4"/>
<line y1="-2" x2="48.9124" y2="-2" transform="matrix(0.691026 0.72283 -0.691026 0.72283 420.64 67)" stroke="#FFB800" stroke-width="4"/>
<path d="M69.1211 71L70.8789 63.9688H82.3047V46.3906H89.3359V71H69.1211ZM112.188 46.3906L110.43 53.4219H98.125V55.1797H110.43V71H89.3359L91.0938 63.9688H103.398V62.2109H91.0938V46.3906H112.188ZM126.25 53.4219H119.219V63.9688H126.25V53.4219ZM133.281 46.3906V71H112.188V46.3906H133.281ZM156.133 71H149.102V53.4219H142.07V71H135.039V46.3906H156.133V71ZM178.984 62.2109H171.953V71H164.922V46.3906H186.016V71H178.984V62.2109ZM171.953 55.1797H178.984V53.4219H171.953V55.1797ZM194.805 63.9688H208.867L207.109 71H187.773V46.3906H194.805V63.9688ZM229.961 46.3906L228.203 53.4219H215.898V55.1797H228.203L226.445 62.2109H215.898V63.9688H229.961L228.203 71H208.867V46.3906H229.961ZM242.371 71L239.629 65.9902L236.887 71H228.889L235.621 58.6953L228.889 46.3906H236.887L239.629 51.4004L242.371 46.3906H250.369L243.637 58.6953L250.369 71H242.371ZM265.117 62.2109H258.086V71H251.055V46.3906H272.148V71H265.117V62.2109ZM258.086 55.1797H265.117V53.4219H258.086V55.1797ZM295 71H287.969V53.4219H280.938V71H273.906V46.3906H295V71ZM310.82 53.4219H295.879L297.637 46.3906H317.852V71H296.758V55.1797H303.789V63.9688H310.82V53.4219ZM340.703 46.3906L338.945 53.4219H326.641V55.1797H338.945L337.188 62.2109H326.641V63.9688H340.703L338.945 71H319.609V46.3906H340.703ZM354.766 53.4219H347.734V55.1797H354.766V53.4219ZM361.797 46.3906V62.2109H357.912L362.957 71H355.047L347.734 58.2383V71H340.703V46.3906H361.797Z" fill="black"/>
</svg>
