<svg width="450" height="121" viewBox="0 0 450 121" fill="none" xmlns="http://www.w3.org/2000/svg">
<path d="M444.379 4.00345L405.691 46.9897C404.151 48.701 404.151 51.299 405.691 53.0103L444.379 95.9966C445.248 96.9618 444.563 98.5 443.264 98.5H3C2.17157 98.5 1.5 97.8284 1.5 97V3C1.5 2.17157 2.17157 1.5 3 1.5H225H443.264C444.563 1.5 445.248 3.03816 444.379 4.00345Z" fill="white" fill-opacity="0.8" stroke="#FFB800" stroke-width="3"/>
<path d="M444.379 24.0034L405.691 66.9897C404.151 68.701 404.151 71.299 405.691 73.0103L444.379 115.997C445.248 116.962 444.563 118.5 443.264 118.5H3C2.17157 118.5 1.5 117.828 1.5 117V23C1.5 22.1716 2.17157 21.5 3 21.5H225H443.264C444.563 21.5 445.248 23.0382 444.379 24.0034Z" fill="black" fill-opacity="0.6" stroke="white" stroke-width="3"/>
<path d="M444.379 14.0034L405.691 56.9897C404.151 58.701 404.151 61.299 405.691 63.0103L444.379 105.997C445.248 106.962 444.563 108.5 443.264 108.5H3C2.17157 108.5 1.5 107.828 1.5 107V13C1.5 12.1716 2.17157 11.5 3 11.5H225H443.264C444.563 11.5 445.248 13.0382 444.379 14.0034Z" fill="#E7E7E7" fill-opacity="0.7" stroke="#76FF03" stroke-width="3"/>
<line x1="10" y1="23.5" x2="30" y2="23.5" stroke="#FFB800" stroke-width="3"/>
<line x1="11.5" y1="22" x2="11.5" y2="97" stroke="#FFB800" stroke-width="3"/>
<line x1="10" y1="98.5" x2="30" y2="98.5" stroke="#FFB800" stroke-width="3"/>
<line y1="-1.5" x2="47.5657" y2="-1.5" transform="matrix(0.668965 -0.743294 0.668965 0.743294 398.7 55.3555)" stroke="#FFB800" stroke-width="3"/>
<line x1="389.7" y1="53.5" x2="398.7" y2="53.5" stroke="#FFB800" stroke-width="3"/>
<line x1="389.7" y1="66.5" x2="398.7" y2="66.5" stroke="#FFB800" stroke-width="3"/>
<line y1="-1.5" x2="47.5658" y2="-1.5" transform="matrix(0.668965 0.743294 -0.668965 0.743294 396 67)" stroke="#FFB800" stroke-width="3"/>
<mask id="path-11-inside-1_63_621" fill="white">
<path d="M69.1211 71L70.8789 63.9688H82.3047V46.3906H89.3359V71H69.1211ZM114.347 46.3906L112.59 53.4219H100.285V55.1797H112.59V71H91.4959L93.2537 63.9688H105.558V62.2109H93.2537V46.3906H114.347ZM130.57 53.4219H123.539V63.9688H130.57V53.4219ZM137.601 46.3906V71H116.507V46.3906H137.601ZM162.613 71H155.582V53.4219H148.55V71H141.519V46.3906H162.613V71ZM196.816 46.3906L195.058 53.4219H182.753V55.1797H195.058V71H173.964L175.722 63.9688H188.027V62.2109H175.722V46.3906H196.816ZM198.976 46.3906H206.007V63.9688H213.038V46.3906H220.069V71H198.976V46.3906ZM238.05 53.4219H223.108L224.866 46.3906H245.081V71H223.987V55.1797H231.018V63.9688H238.05V53.4219ZM270.092 46.3906L268.335 53.4219H256.03V55.1797H268.335L266.577 62.2109H256.03V63.9688H270.092L268.335 71H248.999V46.3906H270.092ZM272.253 46.3906H279.284V71H272.253V46.3906ZM290.233 61.1914V71H283.202V46.3906H290.233V56.1992L295.612 46.3906H303.61L296.877 58.6953L303.61 71H295.612L290.233 61.1914ZM306.455 46.3906H313.487V71H306.455V46.3906ZM338.498 46.3906L336.74 53.4219H324.436V55.1797H336.74V71H315.647L317.404 63.9688H329.709V62.2109H317.404V46.3906H338.498Z"/>
</mask>
<path d="M69.1211 71L70.8789 63.9688H82.3047V46.3906H89.3359V71H69.1211ZM114.347 46.3906L112.59 53.4219H100.285V55.1797H112.59V71H91.4959L93.2537 63.9688H105.558V62.2109H93.2537V46.3906H114.347ZM130.57 53.4219H123.539V63.9688H130.57V53.4219ZM137.601 46.3906V71H116.507V46.3906H137.601ZM162.613 71H155.582V53.4219H148.55V71H141.519V46.3906H162.613V71ZM196.816 46.3906L195.058 53.4219H182.753V55.1797H195.058V71H173.964L175.722 63.9688H188.027V62.2109H175.722V46.3906H196.816ZM198.976 46.3906H206.007V63.9688H213.038V46.3906H220.069V71H198.976V46.3906ZM238.05 53.4219H223.108L224.866 46.3906H245.081V71H223.987V55.1797H231.018V63.9688H238.05V53.4219ZM270.092 46.3906L268.335 53.4219H256.03V55.1797H268.335L266.577 62.2109H256.03V63.9688H270.092L268.335 71H248.999V46.3906H270.092ZM272.253 46.3906H279.284V71H272.253V46.3906ZM290.233 61.1914V71H283.202V46.3906H290.233V56.1992L295.612 46.3906H303.61L296.877 58.6953L303.61 71H295.612L290.233 61.1914ZM306.455 46.3906H313.487V71H306.455V46.3906ZM338.498 46.3906L336.74 53.4219H324.436V55.1797H336.74V71H315.647L317.404 63.9688H329.709V62.2109H317.404V46.3906H338.498Z" fill="white" fill-opacity="0.85"/>
<path d="M69.1211 71L68.151 70.7575L67.8403 72H69.1211V71ZM70.8789 63.9688V62.9688H70.0981L69.9088 63.7262L70.8789 63.9688ZM82.3047 63.9688V64.9688H83.3047V63.9688H82.3047ZM82.3047 46.3906V45.3906H81.3047V46.3906H82.3047ZM89.3359 46.3906H90.3359V45.3906H89.3359V46.3906ZM89.3359 71V72H90.3359V71H89.3359ZM70.0912 71.2425L71.849 64.2113L69.9088 63.7262L68.151 70.7575L70.0912 71.2425ZM70.8789 64.9688H82.3047V62.9688H70.8789V64.9688ZM83.3047 63.9688V46.3906H81.3047V63.9688H83.3047ZM82.3047 47.3906H89.3359V45.3906H82.3047V47.3906ZM88.3359 46.3906V71H90.3359V46.3906H88.3359ZM89.3359 70H69.1211V72H89.3359V70ZM114.347 46.3906L115.318 46.6332L115.628 45.3906H114.347V46.3906ZM112.59 53.4219V54.4219H113.37L113.56 53.6644L112.59 53.4219ZM100.285 53.4219V52.4219H99.285V53.4219H100.285ZM100.285 55.1797H99.285V56.1797H100.285V55.1797ZM112.59 55.1797H113.59V54.1797H112.59V55.1797ZM112.59 71V72H113.59V71H112.59ZM91.4959 71L90.5258 70.7575L90.2152 72H91.4959V71ZM93.2537 63.9688V62.9688H92.473L92.2836 63.7262L93.2537 63.9688ZM105.558 63.9688V64.9688H106.558V63.9688H105.558ZM105.558 62.2109H106.558V61.2109H105.558V62.2109ZM93.2537 62.2109H92.2537V63.2109H93.2537V62.2109ZM93.2537 46.3906V45.3906H92.2537V46.3906H93.2537ZM113.377 46.1481L111.62 53.1793L113.56 53.6644L115.318 46.6332L113.377 46.1481ZM112.59 52.4219H100.285V54.4219H112.59V52.4219ZM99.285 53.4219V55.1797H101.285V53.4219H99.285ZM100.285 56.1797H112.59V54.1797H100.285V56.1797ZM111.59 55.1797V71H113.59V55.1797H111.59ZM112.59 70H91.4959V72H112.59V70ZM92.4661 71.2425L94.2239 64.2113L92.2836 63.7262L90.5258 70.7575L92.4661 71.2425ZM93.2537 64.9688H105.558V62.9688H93.2537V64.9688ZM106.558 63.9688V62.2109H104.558V63.9688H106.558ZM105.558 61.2109H93.2537V63.2109H105.558V61.2109ZM94.2537 62.2109V46.3906H92.2537V62.2109H94.2537ZM93.2537 47.3906H114.347V45.3906H93.2537V47.3906ZM130.57 53.4219H131.57V52.4219H130.57V53.4219ZM123.539 53.4219V52.4219H122.539V53.4219H123.539ZM123.539 63.9688H122.539V64.9688H123.539V63.9688ZM130.57 63.9688V64.9688H131.57V63.9688H130.57ZM137.601 46.3906H138.601V45.3906H137.601V46.3906ZM137.601 71V72H138.601V71H137.601ZM116.507 71H115.507V72H116.507V71ZM116.507 46.3906V45.3906H115.507V46.3906H116.507ZM130.57 52.4219H123.539V54.4219H130.57V52.4219ZM122.539 53.4219V63.9688H124.539V53.4219H122.539ZM123.539 64.9688H130.57V62.9688H123.539V64.9688ZM131.57 63.9688V53.4219H129.57V63.9688H131.57ZM136.601 46.3906V71H138.601V46.3906H136.601ZM137.601 70H116.507V72H137.601V70ZM117.507 71V46.3906H115.507V71H117.507ZM116.507 47.3906H137.601V45.3906H116.507V47.3906ZM162.613 71V72H163.613V71H162.613ZM155.582 71H154.582V72H155.582V71ZM155.582 53.4219H156.582V52.4219H155.582V53.4219ZM148.55 53.4219V52.4219H147.55V53.4219H148.55ZM148.55 71V72H149.55V71H148.55ZM141.519 71H140.519V72H141.519V71ZM141.519 46.3906V45.3906H140.519V46.3906H141.519ZM162.613 46.3906H163.613V45.3906H162.613V46.3906ZM162.613 70H155.582V72H162.613V70ZM156.582 71V53.4219H154.582V71H156.582ZM155.582 52.4219H148.55V54.4219H155.582V52.4219ZM147.55 53.4219V71H149.55V53.4219H147.55ZM148.55 70H141.519V72H148.55V70ZM142.519 71V46.3906H140.519V71H142.519ZM141.519 47.3906H162.613V45.3906H141.519V47.3906ZM161.613 46.3906V71H163.613V46.3906H161.613ZM196.816 46.3906L197.786 46.6332L198.096 45.3906H196.816V46.3906ZM195.058 53.4219V54.4219H195.839L196.028 53.6644L195.058 53.4219ZM182.753 53.4219V52.4219H181.753V53.4219H182.753ZM182.753 55.1797H181.753V56.1797H182.753V55.1797ZM195.058 55.1797H196.058V54.1797H195.058V55.1797ZM195.058 71V72H196.058V71H195.058ZM173.964 71L172.994 70.7575L172.683 72H173.964V71ZM175.722 63.9688V62.9688H174.941L174.752 63.7262L175.722 63.9688ZM188.027 63.9688V64.9688H189.027V63.9688H188.027ZM188.027 62.2109H189.027V61.2109H188.027V62.2109ZM175.722 62.2109H174.722V63.2109H175.722V62.2109ZM175.722 46.3906V45.3906H174.722V46.3906H175.722ZM195.845 46.1481L194.088 53.1793L196.028 53.6644L197.786 46.6332L195.845 46.1481ZM195.058 52.4219H182.753V54.4219H195.058V52.4219ZM181.753 53.4219V55.1797H183.753V53.4219H181.753ZM182.753 56.1797H195.058V54.1797H182.753V56.1797ZM194.058 55.1797V71H196.058V55.1797H194.058ZM195.058 70H173.964V72H195.058V70ZM174.934 71.2425L176.692 64.2113L174.752 63.7262L172.994 70.7575L174.934 71.2425ZM175.722 64.9688H188.027V62.9688H175.722V64.9688ZM189.027 63.9688V62.2109H187.027V63.9688H189.027ZM188.027 61.2109H175.722V63.2109H188.027V61.2109ZM176.722 62.2109V46.3906H174.722V62.2109H176.722ZM175.722 47.3906H196.816V45.3906H175.722V47.3906ZM198.976 46.3906V45.3906H197.976V46.3906H198.976ZM206.007 46.3906H207.007V45.3906H206.007V46.3906ZM206.007 63.9688H205.007V64.9688H206.007V63.9688ZM213.038 63.9688V64.9688H214.038V63.9688H213.038ZM213.038 46.3906V45.3906H212.038V46.3906H213.038ZM220.069 46.3906H221.069V45.3906H220.069V46.3906ZM220.069 71V72H221.069V71H220.069ZM198.976 71H197.976V72H198.976V71ZM198.976 47.3906H206.007V45.3906H198.976V47.3906ZM205.007 46.3906V63.9688H207.007V46.3906H205.007ZM206.007 64.9688H213.038V62.9688H206.007V64.9688ZM214.038 63.9688V46.3906H212.038V63.9688H214.038ZM213.038 47.3906H220.069V45.3906H213.038V47.3906ZM219.069 46.3906V71H221.069V46.3906H219.069ZM220.069 70H198.976V72H220.069V70ZM199.976 71V46.3906H197.976V71H199.976ZM238.05 53.4219H239.05V52.4219H238.05V53.4219ZM223.108 53.4219L222.138 53.1793L221.827 54.4219H223.108V53.4219ZM224.866 46.3906V45.3906H224.085L223.896 46.1481L224.866 46.3906ZM245.081 46.3906H246.081V45.3906H245.081V46.3906ZM245.081 71V72H246.081V71H245.081ZM223.987 71H222.987V72H223.987V71ZM223.987 55.1797V54.1797H222.987V55.1797H223.987ZM231.018 55.1797H232.018V54.1797H231.018V55.1797ZM231.018 63.9688H230.018V64.9688H231.018V63.9688ZM238.05 63.9688V64.9688H239.05V63.9688H238.05ZM238.05 52.4219H223.108V54.4219H238.05V52.4219ZM224.078 53.6644L225.836 46.6332L223.896 46.1481L222.138 53.1793L224.078 53.6644ZM224.866 47.3906H245.081V45.3906H224.866V47.3906ZM244.081 46.3906V71H246.081V46.3906H244.081ZM245.081 70H223.987V72H245.081V70ZM224.987 71V55.1797H222.987V71H224.987ZM223.987 56.1797H231.018V54.1797H223.987V56.1797ZM230.018 55.1797V63.9688H232.018V55.1797H230.018ZM231.018 64.9688H238.05V62.9688H231.018V64.9688ZM239.05 63.9688V53.4219H237.05V63.9688H239.05ZM270.092 46.3906L271.063 46.6332L271.373 45.3906H270.092V46.3906ZM268.335 53.4219V54.4219H269.115L269.305 53.6644L268.335 53.4219ZM256.03 53.4219V52.4219H255.03V53.4219H256.03ZM256.03 55.1797H255.03V56.1797H256.03V55.1797ZM268.335 55.1797L269.305 55.4222L269.615 54.1797H268.335V55.1797ZM266.577 62.2109V63.2109H267.358L267.547 62.4535L266.577 62.2109ZM256.03 62.2109V61.2109H255.03V62.2109H256.03ZM256.03 63.9688H255.03V64.9688H256.03V63.9688ZM270.092 63.9688L271.063 64.2113L271.373 62.9688H270.092V63.9688ZM268.335 71V72H269.115L269.305 71.2425L268.335 71ZM248.999 71H247.999V72H248.999V71ZM248.999 46.3906V45.3906H247.999V46.3906H248.999ZM269.122 46.1481L267.365 53.1793L269.305 53.6644L271.063 46.6332L269.122 46.1481ZM268.335 52.4219H256.03V54.4219H268.335V52.4219ZM255.03 53.4219V55.1797H257.03V53.4219H255.03ZM256.03 56.1797H268.335V54.1797H256.03V56.1797ZM267.365 54.9372L265.607 61.9684L267.547 62.4535L269.305 55.4222L267.365 54.9372ZM266.577 61.2109H256.03V63.2109H266.577V61.2109ZM255.03 62.2109V63.9688H257.03V62.2109H255.03ZM256.03 64.9688H270.092V62.9688H256.03V64.9688ZM269.122 63.7262L267.365 70.7575L269.305 71.2425L271.063 64.2113L269.122 63.7262ZM268.335 70H248.999V72H268.335V70ZM249.999 71V46.3906H247.999V71H249.999ZM248.999 47.3906H270.092V45.3906H248.999V47.3906ZM272.253 46.3906V45.3906H271.253V46.3906H272.253ZM279.284 46.3906H280.284V45.3906H279.284V46.3906ZM279.284 71V72H280.284V71H279.284ZM272.253 71H271.253V72H272.253V71ZM272.253 47.3906H279.284V45.3906H272.253V47.3906ZM278.284 46.3906V71H280.284V46.3906H278.284ZM279.284 70H272.253V72H279.284V70ZM273.253 71V46.3906H271.253V71H273.253ZM290.233 61.1914L291.11 60.7106L289.233 61.1914H290.233ZM290.233 71V72H291.233V71H290.233ZM283.202 71H282.202V72H283.202V71ZM283.202 46.3906V45.3906H282.202V46.3906H283.202ZM290.233 46.3906H291.233V45.3906H290.233V46.3906ZM290.233 56.1992H289.233L291.11 56.6801L290.233 56.1992ZM295.612 46.3906V45.3906H295.02L294.735 45.9098L295.612 46.3906ZM303.61 46.3906L304.487 46.8706L305.297 45.3906H303.61V46.3906ZM296.877 58.6953L296 58.2153L295.737 58.6953L296 59.1753L296.877 58.6953ZM303.61 71V72H305.297L304.487 70.52L303.61 71ZM295.612 71L294.735 71.4808L295.02 72H295.612V71ZM289.233 61.1914V71H291.233V61.1914H289.233ZM290.233 70H283.202V72H290.233V70ZM284.202 71V46.3906H282.202V71H284.202ZM283.202 47.3906H290.233V45.3906H283.202V47.3906ZM289.233 46.3906V56.1992H291.233V46.3906H289.233ZM291.11 56.6801L296.489 46.8715L294.735 45.9098L289.356 55.7184L291.11 56.6801ZM295.612 47.3906H303.61V45.3906H295.612V47.3906ZM302.732 45.9106L296 58.2153L297.755 59.1753L304.487 46.8706L302.732 45.9106ZM296 59.1753L302.732 71.48L304.487 70.52L297.755 58.2153L296 59.1753ZM303.61 70H295.612V72H303.61V70ZM296.489 70.5192L291.11 60.7106L289.356 61.6722L294.735 71.4808L296.489 70.5192ZM306.455 46.3906V45.3906H305.455V46.3906H306.455ZM313.487 46.3906H314.487V45.3906H313.487V46.3906ZM313.487 71V72H314.487V71H313.487ZM306.455 71H305.455V72H306.455V71ZM306.455 47.3906H313.487V45.3906H306.455V47.3906ZM312.487 46.3906V71H314.487V46.3906H312.487ZM313.487 70H306.455V72H313.487V70ZM307.455 71V46.3906H305.455V71H307.455ZM338.498 46.3906L339.468 46.6332L339.779 45.3906H338.498V46.3906ZM336.74 53.4219V54.4219H337.521L337.71 53.6644L336.74 53.4219ZM324.436 53.4219V52.4219H323.436V53.4219H324.436ZM324.436 55.1797H323.436V56.1797H324.436V55.1797ZM336.74 55.1797H337.74V54.1797H336.74V55.1797ZM336.74 71V72H337.74V71H336.74ZM315.647 71L314.676 70.7575L314.366 72H315.647V71ZM317.404 63.9688V62.9688H316.624L316.434 63.7262L317.404 63.9688ZM329.709 63.9688V64.9688H330.709V63.9688H329.709ZM329.709 62.2109H330.709V61.2109H329.709V62.2109ZM317.404 62.2109H316.404V63.2109H317.404V62.2109ZM317.404 46.3906V45.3906H316.404V46.3906H317.404ZM337.528 46.1481L335.77 53.1793L337.71 53.6644L339.468 46.6332L337.528 46.1481ZM336.74 52.4219H324.436V54.4219H336.74V52.4219ZM323.436 53.4219V55.1797H325.436V53.4219H323.436ZM324.436 56.1797H336.74V54.1797H324.436V56.1797ZM335.74 55.1797V71H337.74V55.1797H335.74ZM336.74 70H315.647V72H336.74V70ZM316.617 71.2425L318.375 64.2113L316.434 63.7262L314.676 70.7575L316.617 71.2425ZM317.404 64.9688H329.709V62.9688H317.404V64.9688ZM330.709 63.9688V62.2109H328.709V63.9688H330.709ZM329.709 61.2109H317.404V63.2109H329.709V61.2109ZM318.404 62.2109V46.3906H316.404V62.2109H318.404ZM317.404 47.3906H338.498V45.3906H317.404V47.3906Z" fill="#34FF00" mask="url(#path-11-inside-1_63_621)"/>
</svg>
