<svg width="572" height="121" viewBox="0 0 572 121" fill="none" xmlns="http://www.w3.org/2000/svg">
<path d="M564.997 4.12935L516.397 46.6119C514.346 48.405 514.346 51.595 516.397 53.3881L564.997 95.8707C566.04 96.7824 565.395 98.5 564.01 98.5H2.99999C2.17157 98.5 1.5 97.8284 1.5 97V3C1.5 2.17157 2.17157 1.5 3 1.5H286H564.01C565.395 1.5 566.04 3.21757 564.997 4.12935Z" fill="white" fill-opacity="0.8" stroke="#FFB800" stroke-width="3"/>
<path d="M564.997 24.1294L516.397 66.6119C514.346 68.405 514.346 71.595 516.397 73.3881L564.997 115.871C566.04 116.782 565.395 118.5 564.01 118.5H2.99999C2.17157 118.5 1.5 117.828 1.5 117V23C1.5 22.1716 2.17157 21.5 3 21.5H286H564.01C565.395 21.5 566.04 23.2176 564.997 24.1294Z" fill="black" fill-opacity="0.6" stroke="white" stroke-width="3"/>
<path d="M564.997 14.1294L516.397 56.6119C514.346 58.405 514.346 61.595 516.397 63.3881L564.997 105.871C566.04 106.782 565.395 108.5 564.01 108.5H2.99999C2.17157 108.5 1.5 107.828 1.5 107V13C1.5 12.1716 2.17157 11.5 3 11.5H286H564.01C565.395 11.5 566.04 13.2176 564.997 14.1294Z" fill="#E7E7E7" fill-opacity="0.7" stroke="#76FF03" stroke-width="3"/>
<line x1="10" y1="23.5" x2="30" y2="23.5" stroke="#FFB800" stroke-width="3"/>
<line x1="11.5" y1="22" x2="11.5" y2="97" stroke="#FFB800" stroke-width="3"/>
<line x1="10" y1="98.5" x2="30" y2="98.5" stroke="#FFB800" stroke-width="3"/>
<line y1="-1.5" x2="53.7208" y2="-1.5" transform="matrix(0.752903 -0.658132 0.752903 0.658132 506.792 55.3553)" stroke="#FFB800" stroke-width="3"/>
<line x1="495.352" y1="53.5" x2="506.792" y2="53.5" stroke="#FFB800" stroke-width="3"/>
<line x1="495.352" y1="66.5" x2="506.792" y2="66.5" stroke="#FFB800" stroke-width="3"/>
<line y1="-1.5" x2="53.7207" y2="-1.5" transform="matrix(0.752902 0.658132 -0.752902 0.658132 503.36 67)" stroke="#FFB800" stroke-width="3"/>
<mask id="path-11-inside-1_63_645" fill="white">
<path d="M69.1211 71L70.8789 63.9688H82.3047V46.3906H89.3359V71H69.1211ZM114.347 46.3906L112.59 53.4219H100.285V55.1797H112.59V71H91.4959L93.2537 63.9688H105.558V62.2109H93.2537V46.3906H114.347ZM130.57 53.4219H123.539V63.9688H130.57V53.4219ZM137.601 46.3906V71H116.507V46.3906H137.601ZM162.613 71H155.582V53.4219H148.55V71H141.519V46.3906H162.613V71ZM196.816 46.3906L195.058 53.4219H182.753V55.1797H195.058V71H173.964L175.722 63.9688H188.027V62.2109H175.722V46.3906H196.816ZM213.038 53.4219H206.007V63.9688H213.038V53.4219ZM220.069 46.3906V71H198.976V46.3906H220.069ZM245.081 71H238.05V53.4219H231.018V71H223.987V46.3906H245.081V71ZM272.253 53.4219H265.221V63.9688H272.253V53.4219ZM279.284 46.3906V71H258.19V46.3906H279.284ZM304.295 46.3906L302.538 53.4219H290.233V55.1797H302.538L300.78 62.2109H290.233V71H283.202V46.3906H304.295ZM329.709 62.2109H322.678V71H315.647V46.3906H336.74V71H329.709V62.2109ZM322.678 55.1797H329.709V53.4219H322.678V55.1797ZM361.752 46.3906L359.994 53.4219H347.689V55.1797H359.994L358.236 62.2109H347.689V63.9688H361.752L359.994 71H340.658V46.3906H361.752ZM385.006 46.3906L383.248 53.4219H370.943V55.1797H383.248V71H362.154L363.912 63.9688H376.217V62.2109H363.912V46.3906H385.006ZM401.228 53.4219H394.197V63.9688H401.228V53.4219ZM408.259 46.3906V71H387.166V46.3906H408.259ZM433.271 71H426.24V53.4219H419.208V71H412.177V46.3906H433.271V71Z"/>
</mask>
<path d="M69.1211 71L70.8789 63.9688H82.3047V46.3906H89.3359V71H69.1211ZM114.347 46.3906L112.59 53.4219H100.285V55.1797H112.59V71H91.4959L93.2537 63.9688H105.558V62.2109H93.2537V46.3906H114.347ZM130.57 53.4219H123.539V63.9688H130.57V53.4219ZM137.601 46.3906V71H116.507V46.3906H137.601ZM162.613 71H155.582V53.4219H148.55V71H141.519V46.3906H162.613V71ZM196.816 46.3906L195.058 53.4219H182.753V55.1797H195.058V71H173.964L175.722 63.9688H188.027V62.2109H175.722V46.3906H196.816ZM213.038 53.4219H206.007V63.9688H213.038V53.4219ZM220.069 46.3906V71H198.976V46.3906H220.069ZM245.081 71H238.05V53.4219H231.018V71H223.987V46.3906H245.081V71ZM272.253 53.4219H265.221V63.9688H272.253V53.4219ZM279.284 46.3906V71H258.19V46.3906H279.284ZM304.295 46.3906L302.538 53.4219H290.233V55.1797H302.538L300.78 62.2109H290.233V71H283.202V46.3906H304.295ZM329.709 62.2109H322.678V71H315.647V46.3906H336.74V71H329.709V62.2109ZM322.678 55.1797H329.709V53.4219H322.678V55.1797ZM361.752 46.3906L359.994 53.4219H347.689V55.1797H359.994L358.236 62.2109H347.689V63.9688H361.752L359.994 71H340.658V46.3906H361.752ZM385.006 46.3906L383.248 53.4219H370.943V55.1797H383.248V71H362.154L363.912 63.9688H376.217V62.2109H363.912V46.3906H385.006ZM401.228 53.4219H394.197V63.9688H401.228V53.4219ZM408.259 46.3906V71H387.166V46.3906H408.259ZM433.271 71H426.24V53.4219H419.208V71H412.177V46.3906H433.271V71Z" fill="white" fill-opacity="0.85"/>
<path d="M69.1211 71L68.151 70.7575L67.8403 72H69.1211V71ZM70.8789 63.9688V62.9688H70.0981L69.9088 63.7262L70.8789 63.9688ZM82.3047 63.9688V64.9688H83.3047V63.9688H82.3047ZM82.3047 46.3906V45.3906H81.3047V46.3906H82.3047ZM89.3359 46.3906H90.3359V45.3906H89.3359V46.3906ZM89.3359 71V72H90.3359V71H89.3359ZM70.0912 71.2425L71.849 64.2113L69.9088 63.7262L68.151 70.7575L70.0912 71.2425ZM70.8789 64.9688H82.3047V62.9688H70.8789V64.9688ZM83.3047 63.9688V46.3906H81.3047V63.9688H83.3047ZM82.3047 47.3906H89.3359V45.3906H82.3047V47.3906ZM88.3359 46.3906V71H90.3359V46.3906H88.3359ZM89.3359 70H69.1211V72H89.3359V70ZM114.347 46.3906L115.318 46.6332L115.628 45.3906H114.347V46.3906ZM112.59 53.4219V54.4219H113.37L113.56 53.6644L112.59 53.4219ZM100.285 53.4219V52.4219H99.285V53.4219H100.285ZM100.285 55.1797H99.285V56.1797H100.285V55.1797ZM112.59 55.1797H113.59V54.1797H112.59V55.1797ZM112.59 71V72H113.59V71H112.59ZM91.4959 71L90.5258 70.7575L90.2152 72H91.4959V71ZM93.2537 63.9688V62.9688H92.473L92.2836 63.7262L93.2537 63.9688ZM105.558 63.9688V64.9688H106.558V63.9688H105.558ZM105.558 62.2109H106.558V61.2109H105.558V62.2109ZM93.2537 62.2109H92.2537V63.2109H93.2537V62.2109ZM93.2537 46.3906V45.3906H92.2537V46.3906H93.2537ZM113.377 46.1481L111.62 53.1793L113.56 53.6644L115.318 46.6332L113.377 46.1481ZM112.59 52.4219H100.285V54.4219H112.59V52.4219ZM99.285 53.4219V55.1797H101.285V53.4219H99.285ZM100.285 56.1797H112.59V54.1797H100.285V56.1797ZM111.59 55.1797V71H113.59V55.1797H111.59ZM112.59 70H91.4959V72H112.59V70ZM92.4661 71.2425L94.2239 64.2113L92.2836 63.7262L90.5258 70.7575L92.4661 71.2425ZM93.2537 64.9688H105.558V62.9688H93.2537V64.9688ZM106.558 63.9688V62.2109H104.558V63.9688H106.558ZM105.558 61.2109H93.2537V63.2109H105.558V61.2109ZM94.2537 62.2109V46.3906H92.2537V62.2109H94.2537ZM93.2537 47.3906H114.347V45.3906H93.2537V47.3906ZM130.57 53.4219H131.57V52.4219H130.57V53.4219ZM123.539 53.4219V52.4219H122.539V53.4219H123.539ZM123.539 63.9688H122.539V64.9688H123.539V63.9688ZM130.57 63.9688V64.9688H131.57V63.9688H130.57ZM137.601 46.3906H138.601V45.3906H137.601V46.3906ZM137.601 71V72H138.601V71H137.601ZM116.507 71H115.507V72H116.507V71ZM116.507 46.3906V45.3906H115.507V46.3906H116.507ZM130.57 52.4219H123.539V54.4219H130.57V52.4219ZM122.539 53.4219V63.9688H124.539V53.4219H122.539ZM123.539 64.9688H130.57V62.9688H123.539V64.9688ZM131.57 63.9688V53.4219H129.57V63.9688H131.57ZM136.601 46.3906V71H138.601V46.3906H136.601ZM137.601 70H116.507V72H137.601V70ZM117.507 71V46.3906H115.507V71H117.507ZM116.507 47.3906H137.601V45.3906H116.507V47.3906ZM162.613 71V72H163.613V71H162.613ZM155.582 71H154.582V72H155.582V71ZM155.582 53.4219H156.582V52.4219H155.582V53.4219ZM148.55 53.4219V52.4219H147.55V53.4219H148.55ZM148.55 71V72H149.55V71H148.55ZM141.519 71H140.519V72H141.519V71ZM141.519 46.3906V45.3906H140.519V46.3906H141.519ZM162.613 46.3906H163.613V45.3906H162.613V46.3906ZM162.613 70H155.582V72H162.613V70ZM156.582 71V53.4219H154.582V71H156.582ZM155.582 52.4219H148.55V54.4219H155.582V52.4219ZM147.55 53.4219V71H149.55V53.4219H147.55ZM148.55 70H141.519V72H148.55V70ZM142.519 71V46.3906H140.519V71H142.519ZM141.519 47.3906H162.613V45.3906H141.519V47.3906ZM161.613 46.3906V71H163.613V46.3906H161.613ZM196.816 46.3906L197.786 46.6332L198.096 45.3906H196.816V46.3906ZM195.058 53.4219V54.4219H195.839L196.028 53.6644L195.058 53.4219ZM182.753 53.4219V52.4219H181.753V53.4219H182.753ZM182.753 55.1797H181.753V56.1797H182.753V55.1797ZM195.058 55.1797H196.058V54.1797H195.058V55.1797ZM195.058 71V72H196.058V71H195.058ZM173.964 71L172.994 70.7575L172.683 72H173.964V71ZM175.722 63.9688V62.9688H174.941L174.752 63.7262L175.722 63.9688ZM188.027 63.9688V64.9688H189.027V63.9688H188.027ZM188.027 62.2109H189.027V61.2109H188.027V62.2109ZM175.722 62.2109H174.722V63.2109H175.722V62.2109ZM175.722 46.3906V45.3906H174.722V46.3906H175.722ZM195.845 46.1481L194.088 53.1793L196.028 53.6644L197.786 46.6332L195.845 46.1481ZM195.058 52.4219H182.753V54.4219H195.058V52.4219ZM181.753 53.4219V55.1797H183.753V53.4219H181.753ZM182.753 56.1797H195.058V54.1797H182.753V56.1797ZM194.058 55.1797V71H196.058V55.1797H194.058ZM195.058 70H173.964V72H195.058V70ZM174.934 71.2425L176.692 64.2113L174.752 63.7262L172.994 70.7575L174.934 71.2425ZM175.722 64.9688H188.027V62.9688H175.722V64.9688ZM189.027 63.9688V62.2109H187.027V63.9688H189.027ZM188.027 61.2109H175.722V63.2109H188.027V61.2109ZM176.722 62.2109V46.3906H174.722V62.2109H176.722ZM175.722 47.3906H196.816V45.3906H175.722V47.3906ZM213.038 53.4219H214.038V52.4219H213.038V53.4219ZM206.007 53.4219V52.4219H205.007V53.4219H206.007ZM206.007 63.9688H205.007V64.9688H206.007V63.9688ZM213.038 63.9688V64.9688H214.038V63.9688H213.038ZM220.069 46.3906H221.069V45.3906H220.069V46.3906ZM220.069 71V72H221.069V71H220.069ZM198.976 71H197.976V72H198.976V71ZM198.976 46.3906V45.3906H197.976V46.3906H198.976ZM213.038 52.4219H206.007V54.4219H213.038V52.4219ZM205.007 53.4219V63.9688H207.007V53.4219H205.007ZM206.007 64.9688H213.038V62.9688H206.007V64.9688ZM214.038 63.9688V53.4219H212.038V63.9688H214.038ZM219.069 46.3906V71H221.069V46.3906H219.069ZM220.069 70H198.976V72H220.069V70ZM199.976 71V46.3906H197.976V71H199.976ZM198.976 47.3906H220.069V45.3906H198.976V47.3906ZM245.081 71V72H246.081V71H245.081ZM238.05 71H237.05V72H238.05V71ZM238.05 53.4219H239.05V52.4219H238.05V53.4219ZM231.018 53.4219V52.4219H230.018V53.4219H231.018ZM231.018 71V72H232.018V71H231.018ZM223.987 71H222.987V72H223.987V71ZM223.987 46.3906V45.3906H222.987V46.3906H223.987ZM245.081 46.3906H246.081V45.3906H245.081V46.3906ZM245.081 70H238.05V72H245.081V70ZM239.05 71V53.4219H237.05V71H239.05ZM238.05 52.4219H231.018V54.4219H238.05V52.4219ZM230.018 53.4219V71H232.018V53.4219H230.018ZM231.018 70H223.987V72H231.018V70ZM224.987 71V46.3906H222.987V71H224.987ZM223.987 47.3906H245.081V45.3906H223.987V47.3906ZM244.081 46.3906V71H246.081V46.3906H244.081ZM272.253 53.4219H273.253V52.4219H272.253V53.4219ZM265.221 53.4219V52.4219H264.221V53.4219H265.221ZM265.221 63.9688H264.221V64.9688H265.221V63.9688ZM272.253 63.9688V64.9688H273.253V63.9688H272.253ZM279.284 46.3906H280.284V45.3906H279.284V46.3906ZM279.284 71V72H280.284V71H279.284ZM258.19 71H257.19V72H258.19V71ZM258.19 46.3906V45.3906H257.19V46.3906H258.19ZM272.253 52.4219H265.221V54.4219H272.253V52.4219ZM264.221 53.4219V63.9688H266.221V53.4219H264.221ZM265.221 64.9688H272.253V62.9688H265.221V64.9688ZM273.253 63.9688V53.4219H271.253V63.9688H273.253ZM278.284 46.3906V71H280.284V46.3906H278.284ZM279.284 70H258.19V72H279.284V70ZM259.19 71V46.3906H257.19V71H259.19ZM258.19 47.3906H279.284V45.3906H258.19V47.3906ZM304.295 46.3906L305.265 46.6332L305.576 45.3906H304.295V46.3906ZM302.538 53.4219V54.4219H303.318L303.508 53.6644L302.538 53.4219ZM290.233 53.4219V52.4219H289.233V53.4219H290.233ZM290.233 55.1797H289.233V56.1797H290.233V55.1797ZM302.538 55.1797L303.508 55.4222L303.818 54.1797H302.538V55.1797ZM300.78 62.2109V63.2109H301.56L301.75 62.4535L300.78 62.2109ZM290.233 62.2109V61.2109H289.233V62.2109H290.233ZM290.233 71V72H291.233V71H290.233ZM283.202 71H282.202V72H283.202V71ZM283.202 46.3906V45.3906H282.202V46.3906H283.202ZM303.325 46.1481L301.567 53.1793L303.508 53.6644L305.265 46.6332L303.325 46.1481ZM302.538 52.4219H290.233V54.4219H302.538V52.4219ZM289.233 53.4219V55.1797H291.233V53.4219H289.233ZM290.233 56.1797H302.538V54.1797H290.233V56.1797ZM301.567 54.9372L299.81 61.9684L301.75 62.4535L303.508 55.4222L301.567 54.9372ZM300.78 61.2109H290.233V63.2109H300.78V61.2109ZM289.233 62.2109V71H291.233V62.2109H289.233ZM290.233 70H283.202V72H290.233V70ZM284.202 71V46.3906H282.202V71H284.202ZM283.202 47.3906H304.295V45.3906H283.202V47.3906ZM329.709 62.2109H330.709V61.2109H329.709V62.2109ZM322.678 62.2109V61.2109H321.678V62.2109H322.678ZM322.678 71V72H323.678V71H322.678ZM315.647 71H314.647V72H315.647V71ZM315.647 46.3906V45.3906H314.647V46.3906H315.647ZM336.74 46.3906H337.74V45.3906H336.74V46.3906ZM336.74 71V72H337.74V71H336.74ZM329.709 71H328.709V72H329.709V71ZM322.678 55.1797H321.678V56.1797H322.678V55.1797ZM329.709 55.1797V56.1797H330.709V55.1797H329.709ZM329.709 53.4219H330.709V52.4219H329.709V53.4219ZM322.678 53.4219V52.4219H321.678V53.4219H322.678ZM329.709 61.2109H322.678V63.2109H329.709V61.2109ZM321.678 62.2109V71H323.678V62.2109H321.678ZM322.678 70H315.647V72H322.678V70ZM316.647 71V46.3906H314.647V71H316.647ZM315.647 47.3906H336.74V45.3906H315.647V47.3906ZM335.74 46.3906V71H337.74V46.3906H335.74ZM336.74 70H329.709V72H336.74V70ZM330.709 71V62.2109H328.709V71H330.709ZM322.678 56.1797H329.709V54.1797H322.678V56.1797ZM330.709 55.1797V53.4219H328.709V55.1797H330.709ZM329.709 52.4219H322.678V54.4219H329.709V52.4219ZM321.678 53.4219V55.1797H323.678V53.4219H321.678ZM361.752 46.3906L362.722 46.6332L363.033 45.3906H361.752V46.3906ZM359.994 53.4219V54.4219H360.775L360.964 53.6644L359.994 53.4219ZM347.689 53.4219V52.4219H346.689V53.4219H347.689ZM347.689 55.1797H346.689V56.1797H347.689V55.1797ZM359.994 55.1797L360.964 55.4222L361.275 54.1797H359.994V55.1797ZM358.236 62.2109V63.2109H359.017L359.206 62.4535L358.236 62.2109ZM347.689 62.2109V61.2109H346.689V62.2109H347.689ZM347.689 63.9688H346.689V64.9688H347.689V63.9688ZM361.752 63.9688L362.722 64.2113L363.033 62.9688H361.752V63.9688ZM359.994 71V72H360.775L360.964 71.2425L359.994 71ZM340.658 71H339.658V72H340.658V71ZM340.658 46.3906V45.3906H339.658V46.3906H340.658ZM360.782 46.1481L359.024 53.1793L360.964 53.6644L362.722 46.6332L360.782 46.1481ZM359.994 52.4219H347.689V54.4219H359.994V52.4219ZM346.689 53.4219V55.1797H348.689V53.4219H346.689ZM347.689 56.1797H359.994V54.1797H347.689V56.1797ZM359.024 54.9372L357.266 61.9684L359.206 62.4535L360.964 55.4222L359.024 54.9372ZM358.236 61.2109H347.689V63.2109H358.236V61.2109ZM346.689 62.2109V63.9688H348.689V62.2109H346.689ZM347.689 64.9688H361.752V62.9688H347.689V64.9688ZM360.782 63.7262L359.024 70.7575L360.964 71.2425L362.722 64.2113L360.782 63.7262ZM359.994 70H340.658V72H359.994V70ZM341.658 71V46.3906H339.658V71H341.658ZM340.658 47.3906H361.752V45.3906H340.658V47.3906ZM385.006 46.3906L385.976 46.6332L386.286 45.3906H385.006V46.3906ZM383.248 53.4219V54.4219H384.029L384.218 53.6644L383.248 53.4219ZM370.943 53.4219V52.4219H369.943V53.4219H370.943ZM370.943 55.1797H369.943V56.1797H370.943V55.1797ZM383.248 55.1797H384.248V54.1797H383.248V55.1797ZM383.248 71V72H384.248V71H383.248ZM362.154 71L361.184 70.7575L360.873 72H362.154V71ZM363.912 63.9688V62.9688H363.131L362.942 63.7262L363.912 63.9688ZM376.217 63.9688V64.9688H377.217V63.9688H376.217ZM376.217 62.2109H377.217V61.2109H376.217V62.2109ZM363.912 62.2109H362.912V63.2109H363.912V62.2109ZM363.912 46.3906V45.3906H362.912V46.3906H363.912ZM384.035 46.1481L382.278 53.1793L384.218 53.6644L385.976 46.6332L384.035 46.1481ZM383.248 52.4219H370.943V54.4219H383.248V52.4219ZM369.943 53.4219V55.1797H371.943V53.4219H369.943ZM370.943 56.1797H383.248V54.1797H370.943V56.1797ZM382.248 55.1797V71H384.248V55.1797H382.248ZM383.248 70H362.154V72H383.248V70ZM363.124 71.2425L364.882 64.2113L362.942 63.7262L361.184 70.7575L363.124 71.2425ZM363.912 64.9688H376.217V62.9688H363.912V64.9688ZM377.217 63.9688V62.2109H375.217V63.9688H377.217ZM376.217 61.2109H363.912V63.2109H376.217V61.2109ZM364.912 62.2109V46.3906H362.912V62.2109H364.912ZM363.912 47.3906H385.006V45.3906H363.912V47.3906ZM401.228 53.4219H402.228V52.4219H401.228V53.4219ZM394.197 53.4219V52.4219H393.197V53.4219H394.197ZM394.197 63.9688H393.197V64.9688H394.197V63.9688ZM401.228 63.9688V64.9688H402.228V63.9688H401.228ZM408.259 46.3906H409.259V45.3906H408.259V46.3906ZM408.259 71V72H409.259V71H408.259ZM387.166 71H386.166V72H387.166V71ZM387.166 46.3906V45.3906H386.166V46.3906H387.166ZM401.228 52.4219H394.197V54.4219H401.228V52.4219ZM393.197 53.4219V63.9688H395.197V53.4219H393.197ZM394.197 64.9688H401.228V62.9688H394.197V64.9688ZM402.228 63.9688V53.4219H400.228V63.9688H402.228ZM407.259 46.3906V71H409.259V46.3906H407.259ZM408.259 70H387.166V72H408.259V70ZM388.166 71V46.3906H386.166V71H388.166ZM387.166 47.3906H408.259V45.3906H387.166V47.3906ZM433.271 71V72H434.271V71H433.271ZM426.24 71H425.24V72H426.24V71ZM426.24 53.4219H427.24V52.4219H426.24V53.4219ZM419.208 53.4219V52.4219H418.208V53.4219H419.208ZM419.208 71V72H420.208V71H419.208ZM412.177 71H411.177V72H412.177V71ZM412.177 46.3906V45.3906H411.177V46.3906H412.177ZM433.271 46.3906H434.271V45.3906H433.271V46.3906ZM433.271 70H426.24V72H433.271V70ZM427.24 71V53.4219H425.24V71H427.24ZM426.24 52.4219H419.208V54.4219H426.24V52.4219ZM418.208 53.4219V71H420.208V53.4219H418.208ZM419.208 70H412.177V72H419.208V70ZM413.177 71V46.3906H411.177V71H413.177ZM412.177 47.3906H433.271V45.3906H412.177V47.3906ZM432.271 46.3906V71H434.271V46.3906H432.271Z" fill="#34FF00" mask="url(#path-11-inside-1_63_645)"/>
</svg>
