<svg width="463" height="121" viewBox="0 0 463 121" fill="none" xmlns="http://www.w3.org/2000/svg">
<path d="M456.867 3.67944L417.12 46.6028C415.345 48.5198 415.345 51.4802 417.12 53.3972L456.867 96.3206C457.46 96.9608 457.006 98 456.133 98H3.00001C2.44772 98 2 97.5523 2 97V3C2 2.44772 2.44771 2 3 2H231.5H456.133C457.006 2 457.46 3.03926 456.867 3.67944Z" fill="white" stroke="#FFB800" stroke-width="4"/>
<path d="M456.867 23.6794L417.12 66.6028C415.345 68.5198 415.345 71.4802 417.12 73.3972L456.867 116.321C457.46 116.961 457.006 118 456.133 118H3.00001C2.44772 118 2 117.552 2 117V23C2 22.4477 2.44771 22 3 22H231.5H456.133C457.006 22 457.46 23.0393 456.867 23.6794Z" fill="black" stroke="white" stroke-width="4"/>
<path d="M456.867 13.6794L417.12 56.6028C415.345 58.5198 415.345 61.4802 417.12 63.3972L456.867 106.321C457.46 106.961 457.006 108 456.133 108H3.00001C2.44772 108 2 107.552 2 107V13C2 12.4477 2.44771 12 3 12H231.5H456.133C457.006 12 457.46 13.0393 456.867 13.6794Z" fill="#E7E7E7" stroke="#76FF03" stroke-width="4"/>
<line x1="10" y1="23" x2="30" y2="23" stroke="#FFB800" stroke-width="4"/>
<line x1="12" y1="22" x2="12" y2="97" stroke="#FFB800" stroke-width="4"/>
<line x1="10" y1="98" x2="30" y2="98" stroke="#FFB800" stroke-width="4"/>
<line y1="-2" x2="48.1855" y2="-2" transform="matrix(0.679437 -0.733734 0.679437 0.733734 410.218 55.3553)" stroke="#FFB800" stroke-width="4"/>
<line x1="400.958" y1="53" x2="410.218" y2="53" stroke="#FFB800" stroke-width="4"/>
<line x1="400.958" y1="66" x2="410.218" y2="66" stroke="#FFB800" stroke-width="4"/>
<line y1="-2" x2="48.1855" y2="-2" transform="matrix(0.679437 0.733734 -0.679437 0.733734 407.44 67)" stroke="#FFB800" stroke-width="4"/>
<path d="M69.1211 71L70.8789 63.9688H82.3047V46.3906H89.3359V71H69.1211ZM112.188 46.3906L110.43 53.4219H98.125V55.1797H110.43V71H89.3359L91.0938 63.9688H103.398V62.2109H91.0938V46.3906H112.188ZM126.25 53.4219H119.219V63.9688H126.25V53.4219ZM133.281 46.3906V71H112.188V46.3906H133.281ZM156.133 71H149.102V53.4219H142.07V71H135.039V46.3906H156.133V71ZM186.016 46.3906L184.258 53.4219H171.953V63.9688H186.016L184.258 71H164.922V46.3906H186.016ZM200.078 62.2109H193.047V71H186.016V46.3906H207.109V71H200.078V62.2109ZM193.047 55.1797H200.078V53.4219H193.047V55.1797ZM215.898 63.9688H229.961L228.203 71H208.867V46.3906H215.898V63.9688ZM244.023 62.2109H236.992V71H229.961V46.3906H251.055V71H244.023V62.2109ZM236.992 55.1797H244.023V53.4219H236.992V55.1797ZM273.906 46.3906L272.148 53.4219H259.844V63.9688H273.906L272.148 71H252.812V46.3906H273.906ZM287.969 62.2109H280.938V71H273.906V46.3906H295V71H287.969V62.2109ZM280.938 55.1797H287.969V53.4219H280.938V55.1797ZM317.852 71H310.82V53.4219H303.789V71H296.758V46.3906H317.852V71ZM319.609 46.3906H326.641V71H319.609V46.3906ZM349.492 46.3906L347.734 53.4219H335.43V55.1797H347.734V71H326.641L328.398 63.9688H340.703V62.2109H328.398V46.3906H349.492Z" fill="black"/>
</svg>
