<svg width="551" height="121" viewBox="0 0 551 121" fill="none" xmlns="http://www.w3.org/2000/svg">
<path d="M544.238 4.11082L497.34 46.6675C495.372 48.4534 495.372 51.5466 497.34 53.3325L544.238 95.8892C545.254 96.811 544.601 98.5 543.23 98.5H3C2.17157 98.5 1.5 97.8284 1.5 97V3C1.5 2.17157 2.17157 1.5 3 1.5H275.5H543.23C544.601 1.5 545.254 3.18902 544.238 4.11082Z" fill="white" fill-opacity="0.8" stroke="#FFB800" stroke-width="3"/>
<path d="M544.238 24.1108L497.34 66.6675C495.372 68.4534 495.372 71.5466 497.34 73.3325L544.238 115.889C545.254 116.811 544.601 118.5 543.23 118.5H3C2.17157 118.5 1.5 117.828 1.5 117V23C1.5 22.1716 2.17157 21.5 3 21.5H275.5H543.23C544.601 21.5 545.254 23.189 544.238 24.1108Z" fill="black" fill-opacity="0.6" stroke="white" stroke-width="3"/>
<path d="M544.238 14.1108L497.34 56.6675C495.372 58.4534 495.372 61.5466 497.34 63.3325L544.238 105.889C545.254 106.811 544.601 108.5 543.23 108.5H3C2.17157 108.5 1.5 107.828 1.5 107V13C1.5 12.1716 2.17157 11.5 3 11.5H275.5H543.23C544.601 11.5 545.254 13.189 544.238 14.1108Z" fill="#E7E7E7" fill-opacity="0.7" stroke="#76FF03" stroke-width="3"/>
<line x1="10" y1="23.5" x2="30" y2="23.5" stroke="#FFB800" stroke-width="3"/>
<line x1="11.5" y1="22" x2="11.5" y2="97" stroke="#FFB800" stroke-width="3"/>
<line x1="10" y1="98.5" x2="30" y2="98.5" stroke="#FFB800" stroke-width="3"/>
<line y1="-1.5" x2="52.6118" y2="-1.5" transform="matrix(0.740548 -0.672004 0.740548 0.672004 488.186 55.3553)" stroke="#FFB800" stroke-width="3"/>
<line x1="477.166" y1="53.5" x2="488.186" y2="53.5" stroke="#FFB800" stroke-width="3"/>
<line x1="477.166" y1="66.5" x2="488.186" y2="66.5" stroke="#FFB800" stroke-width="3"/>
<line y1="-1.5" x2="52.6118" y2="-1.5" transform="matrix(0.740548 0.672004 -0.740548 0.672004 484.88 67)" stroke="#FFB800" stroke-width="3"/>
<mask id="path-11-inside-1_63_549" fill="white">
<path d="M69.1211 71L70.8789 63.9688H82.3047V46.3906H89.3359V71H69.1211ZM114.347 46.3906L112.59 53.4219H100.285V55.1797H112.59V71H91.4959L93.2537 63.9688H105.558V62.2109H93.2537V46.3906H114.347ZM130.57 53.4219H123.539V63.9688H130.57V53.4219ZM137.601 46.3906V71H116.507V46.3906H137.601ZM162.613 71H155.582V53.4219H148.55V71H141.519V46.3906H162.613V71ZM200.331 71H193.3V53.4219H191.542V71H184.511V53.4219H182.753V71H175.722V46.3906H200.331V71ZM218.312 62.2109H211.28V71H204.249V46.3906H225.343V71H218.312V62.2109ZM211.28 55.1797H218.312V53.4219H211.28V55.1797ZM250.354 71H243.323V53.4219H236.292V71H229.261V46.3906H250.354V71ZM275.366 46.3906L273.608 53.4219H267.456V71H260.425V53.4219H254.272V46.3906H275.366ZM289.831 53.4219H277.526V46.3906H296.862V62.2109H284.557V63.9688H296.862V71H277.526V55.1797H289.831V53.4219ZM314.842 53.4219H307.811V63.9688H314.842V53.4219ZM321.873 46.3906V71H300.78V46.3906H321.873ZM325.791 46.3906H332.822V63.9688H339.854V46.3906H346.885V71H325.791V46.3906ZM357.834 61.1914V71H350.803V46.3906H357.834V56.1992L363.213 46.3906H371.211L364.479 58.6953L371.211 71H363.213L357.834 61.1914ZM388.119 62.2109H381.088V71H374.057V46.3906H395.15V71H388.119V62.2109ZM381.088 55.1797H388.119V53.4219H381.088V55.1797ZM420.162 46.3906L418.404 53.4219H406.099V55.1797H418.404V71H397.31L399.068 63.9688H411.373V62.2109H399.068V46.3906H420.162Z"/>
</mask>
<path d="M69.1211 71L70.8789 63.9688H82.3047V46.3906H89.3359V71H69.1211ZM114.347 46.3906L112.59 53.4219H100.285V55.1797H112.59V71H91.4959L93.2537 63.9688H105.558V62.2109H93.2537V46.3906H114.347ZM130.57 53.4219H123.539V63.9688H130.57V53.4219ZM137.601 46.3906V71H116.507V46.3906H137.601ZM162.613 71H155.582V53.4219H148.55V71H141.519V46.3906H162.613V71ZM200.331 71H193.3V53.4219H191.542V71H184.511V53.4219H182.753V71H175.722V46.3906H200.331V71ZM218.312 62.2109H211.28V71H204.249V46.3906H225.343V71H218.312V62.2109ZM211.28 55.1797H218.312V53.4219H211.28V55.1797ZM250.354 71H243.323V53.4219H236.292V71H229.261V46.3906H250.354V71ZM275.366 46.3906L273.608 53.4219H267.456V71H260.425V53.4219H254.272V46.3906H275.366ZM289.831 53.4219H277.526V46.3906H296.862V62.2109H284.557V63.9688H296.862V71H277.526V55.1797H289.831V53.4219ZM314.842 53.4219H307.811V63.9688H314.842V53.4219ZM321.873 46.3906V71H300.78V46.3906H321.873ZM325.791 46.3906H332.822V63.9688H339.854V46.3906H346.885V71H325.791V46.3906ZM357.834 61.1914V71H350.803V46.3906H357.834V56.1992L363.213 46.3906H371.211L364.479 58.6953L371.211 71H363.213L357.834 61.1914ZM388.119 62.2109H381.088V71H374.057V46.3906H395.15V71H388.119V62.2109ZM381.088 55.1797H388.119V53.4219H381.088V55.1797ZM420.162 46.3906L418.404 53.4219H406.099V55.1797H418.404V71H397.31L399.068 63.9688H411.373V62.2109H399.068V46.3906H420.162Z" fill="white" fill-opacity="0.85"/>
<path d="M69.1211 71L68.151 70.7575L67.8403 72H69.1211V71ZM70.8789 63.9688V62.9688H70.0981L69.9088 63.7262L70.8789 63.9688ZM82.3047 63.9688V64.9688H83.3047V63.9688H82.3047ZM82.3047 46.3906V45.3906H81.3047V46.3906H82.3047ZM89.3359 46.3906H90.3359V45.3906H89.3359V46.3906ZM89.3359 71V72H90.3359V71H89.3359ZM70.0912 71.2425L71.849 64.2113L69.9088 63.7262L68.151 70.7575L70.0912 71.2425ZM70.8789 64.9688H82.3047V62.9688H70.8789V64.9688ZM83.3047 63.9688V46.3906H81.3047V63.9688H83.3047ZM82.3047 47.3906H89.3359V45.3906H82.3047V47.3906ZM88.3359 46.3906V71H90.3359V46.3906H88.3359ZM89.3359 70H69.1211V72H89.3359V70ZM114.347 46.3906L115.318 46.6332L115.628 45.3906H114.347V46.3906ZM112.59 53.4219V54.4219H113.37L113.56 53.6644L112.59 53.4219ZM100.285 53.4219V52.4219H99.285V53.4219H100.285ZM100.285 55.1797H99.285V56.1797H100.285V55.1797ZM112.59 55.1797H113.59V54.1797H112.59V55.1797ZM112.59 71V72H113.59V71H112.59ZM91.4959 71L90.5258 70.7575L90.2152 72H91.4959V71ZM93.2537 63.9688V62.9688H92.473L92.2836 63.7262L93.2537 63.9688ZM105.558 63.9688V64.9688H106.558V63.9688H105.558ZM105.558 62.2109H106.558V61.2109H105.558V62.2109ZM93.2537 62.2109H92.2537V63.2109H93.2537V62.2109ZM93.2537 46.3906V45.3906H92.2537V46.3906H93.2537ZM113.377 46.1481L111.62 53.1793L113.56 53.6644L115.318 46.6332L113.377 46.1481ZM112.59 52.4219H100.285V54.4219H112.59V52.4219ZM99.285 53.4219V55.1797H101.285V53.4219H99.285ZM100.285 56.1797H112.59V54.1797H100.285V56.1797ZM111.59 55.1797V71H113.59V55.1797H111.59ZM112.59 70H91.4959V72H112.59V70ZM92.4661 71.2425L94.2239 64.2113L92.2836 63.7262L90.5258 70.7575L92.4661 71.2425ZM93.2537 64.9688H105.558V62.9688H93.2537V64.9688ZM106.558 63.9688V62.2109H104.558V63.9688H106.558ZM105.558 61.2109H93.2537V63.2109H105.558V61.2109ZM94.2537 62.2109V46.3906H92.2537V62.2109H94.2537ZM93.2537 47.3906H114.347V45.3906H93.2537V47.3906ZM130.57 53.4219H131.57V52.4219H130.57V53.4219ZM123.539 53.4219V52.4219H122.539V53.4219H123.539ZM123.539 63.9688H122.539V64.9688H123.539V63.9688ZM130.57 63.9688V64.9688H131.57V63.9688H130.57ZM137.601 46.3906H138.601V45.3906H137.601V46.3906ZM137.601 71V72H138.601V71H137.601ZM116.507 71H115.507V72H116.507V71ZM116.507 46.3906V45.3906H115.507V46.3906H116.507ZM130.57 52.4219H123.539V54.4219H130.57V52.4219ZM122.539 53.4219V63.9688H124.539V53.4219H122.539ZM123.539 64.9688H130.57V62.9688H123.539V64.9688ZM131.57 63.9688V53.4219H129.57V63.9688H131.57ZM136.601 46.3906V71H138.601V46.3906H136.601ZM137.601 70H116.507V72H137.601V70ZM117.507 71V46.3906H115.507V71H117.507ZM116.507 47.3906H137.601V45.3906H116.507V47.3906ZM162.613 71V72H163.613V71H162.613ZM155.582 71H154.582V72H155.582V71ZM155.582 53.4219H156.582V52.4219H155.582V53.4219ZM148.55 53.4219V52.4219H147.55V53.4219H148.55ZM148.55 71V72H149.55V71H148.55ZM141.519 71H140.519V72H141.519V71ZM141.519 46.3906V45.3906H140.519V46.3906H141.519ZM162.613 46.3906H163.613V45.3906H162.613V46.3906ZM162.613 70H155.582V72H162.613V70ZM156.582 71V53.4219H154.582V71H156.582ZM155.582 52.4219H148.55V54.4219H155.582V52.4219ZM147.55 53.4219V71H149.55V53.4219H147.55ZM148.55 70H141.519V72H148.55V70ZM142.519 71V46.3906H140.519V71H142.519ZM141.519 47.3906H162.613V45.3906H141.519V47.3906ZM161.613 46.3906V71H163.613V46.3906H161.613ZM200.331 71V72H201.331V71H200.331ZM193.3 71H192.3V72H193.3V71ZM193.3 53.4219H194.3V52.4219H193.3V53.4219ZM191.542 53.4219V52.4219H190.542V53.4219H191.542ZM191.542 71V72H192.542V71H191.542ZM184.511 71H183.511V72H184.511V71ZM184.511 53.4219H185.511V52.4219H184.511V53.4219ZM182.753 53.4219V52.4219H181.753V53.4219H182.753ZM182.753 71V72H183.753V71H182.753ZM175.722 71H174.722V72H175.722V71ZM175.722 46.3906V45.3906H174.722V46.3906H175.722ZM200.331 46.3906H201.331V45.3906H200.331V46.3906ZM200.331 70H193.3V72H200.331V70ZM194.3 71V53.4219H192.3V71H194.3ZM193.3 52.4219H191.542V54.4219H193.3V52.4219ZM190.542 53.4219V71H192.542V53.4219H190.542ZM191.542 70H184.511V72H191.542V70ZM185.511 71V53.4219H183.511V71H185.511ZM184.511 52.4219H182.753V54.4219H184.511V52.4219ZM181.753 53.4219V71H183.753V53.4219H181.753ZM182.753 70H175.722V72H182.753V70ZM176.722 71V46.3906H174.722V71H176.722ZM175.722 47.3906H200.331V45.3906H175.722V47.3906ZM199.331 46.3906V71H201.331V46.3906H199.331ZM218.312 62.2109H219.312V61.2109H218.312V62.2109ZM211.28 62.2109V61.2109H210.28V62.2109H211.28ZM211.28 71V72H212.28V71H211.28ZM204.249 71H203.249V72H204.249V71ZM204.249 46.3906V45.3906H203.249V46.3906H204.249ZM225.343 46.3906H226.343V45.3906H225.343V46.3906ZM225.343 71V72H226.343V71H225.343ZM218.312 71H217.312V72H218.312V71ZM211.28 55.1797H210.28V56.1797H211.28V55.1797ZM218.312 55.1797V56.1797H219.312V55.1797H218.312ZM218.312 53.4219H219.312V52.4219H218.312V53.4219ZM211.28 53.4219V52.4219H210.28V53.4219H211.28ZM218.312 61.2109H211.28V63.2109H218.312V61.2109ZM210.28 62.2109V71H212.28V62.2109H210.28ZM211.28 70H204.249V72H211.28V70ZM205.249 71V46.3906H203.249V71H205.249ZM204.249 47.3906H225.343V45.3906H204.249V47.3906ZM224.343 46.3906V71H226.343V46.3906H224.343ZM225.343 70H218.312V72H225.343V70ZM219.312 71V62.2109H217.312V71H219.312ZM211.28 56.1797H218.312V54.1797H211.28V56.1797ZM219.312 55.1797V53.4219H217.312V55.1797H219.312ZM218.312 52.4219H211.28V54.4219H218.312V52.4219ZM210.28 53.4219V55.1797H212.28V53.4219H210.28ZM250.354 71V72H251.354V71H250.354ZM243.323 71H242.323V72H243.323V71ZM243.323 53.4219H244.323V52.4219H243.323V53.4219ZM236.292 53.4219V52.4219H235.292V53.4219H236.292ZM236.292 71V72H237.292V71H236.292ZM229.261 71H228.261V72H229.261V71ZM229.261 46.3906V45.3906H228.261V46.3906H229.261ZM250.354 46.3906H251.354V45.3906H250.354V46.3906ZM250.354 70H243.323V72H250.354V70ZM244.323 71V53.4219H242.323V71H244.323ZM243.323 52.4219H236.292V54.4219H243.323V52.4219ZM235.292 53.4219V71H237.292V53.4219H235.292ZM236.292 70H229.261V72H236.292V70ZM230.261 71V46.3906H228.261V71H230.261ZM229.261 47.3906H250.354V45.3906H229.261V47.3906ZM249.354 46.3906V71H251.354V46.3906H249.354ZM275.366 46.3906L276.336 46.6332L276.647 45.3906H275.366V46.3906ZM273.608 53.4219V54.4219H274.389L274.578 53.6644L273.608 53.4219ZM267.456 53.4219V52.4219H266.456V53.4219H267.456ZM267.456 71V72H268.456V71H267.456ZM260.425 71H259.425V72H260.425V71ZM260.425 53.4219H261.425V52.4219H260.425V53.4219ZM254.272 53.4219H253.272V54.4219H254.272V53.4219ZM254.272 46.3906V45.3906H253.272V46.3906H254.272ZM274.396 46.1481L272.638 53.1793L274.578 53.6644L276.336 46.6332L274.396 46.1481ZM273.608 52.4219H267.456V54.4219H273.608V52.4219ZM266.456 53.4219V71H268.456V53.4219H266.456ZM267.456 70H260.425V72H267.456V70ZM261.425 71V53.4219H259.425V71H261.425ZM260.425 52.4219H254.272V54.4219H260.425V52.4219ZM255.272 53.4219V46.3906H253.272V53.4219H255.272ZM254.272 47.3906H275.366V45.3906H254.272V47.3906ZM289.831 53.4219H290.831V52.4219H289.831V53.4219ZM277.526 53.4219H276.526V54.4219H277.526V53.4219ZM277.526 46.3906V45.3906H276.526V46.3906H277.526ZM296.862 46.3906H297.862V45.3906H296.862V46.3906ZM296.862 62.2109V63.2109H297.862V62.2109H296.862ZM284.557 62.2109V61.2109H283.557V62.2109H284.557ZM284.557 63.9688H283.557V64.9688H284.557V63.9688ZM296.862 63.9688H297.862V62.9688H296.862V63.9688ZM296.862 71V72H297.862V71H296.862ZM277.526 71H276.526V72H277.526V71ZM277.526 55.1797V54.1797H276.526V55.1797H277.526ZM289.831 55.1797V56.1797H290.831V55.1797H289.831ZM289.831 52.4219H277.526V54.4219H289.831V52.4219ZM278.526 53.4219V46.3906H276.526V53.4219H278.526ZM277.526 47.3906H296.862V45.3906H277.526V47.3906ZM295.862 46.3906V62.2109H297.862V46.3906H295.862ZM296.862 61.2109H284.557V63.2109H296.862V61.2109ZM283.557 62.2109V63.9688H285.557V62.2109H283.557ZM284.557 64.9688H296.862V62.9688H284.557V64.9688ZM295.862 63.9688V71H297.862V63.9688H295.862ZM296.862 70H277.526V72H296.862V70ZM278.526 71V55.1797H276.526V71H278.526ZM277.526 56.1797H289.831V54.1797H277.526V56.1797ZM290.831 55.1797V53.4219H288.831V55.1797H290.831ZM314.842 53.4219H315.842V52.4219H314.842V53.4219ZM307.811 53.4219V52.4219H306.811V53.4219H307.811ZM307.811 63.9688H306.811V64.9688H307.811V63.9688ZM314.842 63.9688V64.9688H315.842V63.9688H314.842ZM321.873 46.3906H322.873V45.3906H321.873V46.3906ZM321.873 71V72H322.873V71H321.873ZM300.78 71H299.78V72H300.78V71ZM300.78 46.3906V45.3906H299.78V46.3906H300.78ZM314.842 52.4219H307.811V54.4219H314.842V52.4219ZM306.811 53.4219V63.9688H308.811V53.4219H306.811ZM307.811 64.9688H314.842V62.9688H307.811V64.9688ZM315.842 63.9688V53.4219H313.842V63.9688H315.842ZM320.873 46.3906V71H322.873V46.3906H320.873ZM321.873 70H300.78V72H321.873V70ZM301.78 71V46.3906H299.78V71H301.78ZM300.78 47.3906H321.873V45.3906H300.78V47.3906ZM325.791 46.3906V45.3906H324.791V46.3906H325.791ZM332.822 46.3906H333.822V45.3906H332.822V46.3906ZM332.822 63.9688H331.822V64.9688H332.822V63.9688ZM339.854 63.9688V64.9688H340.854V63.9688H339.854ZM339.854 46.3906V45.3906H338.854V46.3906H339.854ZM346.885 46.3906H347.885V45.3906H346.885V46.3906ZM346.885 71V72H347.885V71H346.885ZM325.791 71H324.791V72H325.791V71ZM325.791 47.3906H332.822V45.3906H325.791V47.3906ZM331.822 46.3906V63.9688H333.822V46.3906H331.822ZM332.822 64.9688H339.854V62.9688H332.822V64.9688ZM340.854 63.9688V46.3906H338.854V63.9688H340.854ZM339.854 47.3906H346.885V45.3906H339.854V47.3906ZM345.885 46.3906V71H347.885V46.3906H345.885ZM346.885 70H325.791V72H346.885V70ZM326.791 71V46.3906H324.791V71H326.791ZM357.834 61.1914L358.711 60.7106L356.834 61.1914H357.834ZM357.834 71V72H358.834V71H357.834ZM350.803 71H349.803V72H350.803V71ZM350.803 46.3906V45.3906H349.803V46.3906H350.803ZM357.834 46.3906H358.834V45.3906H357.834V46.3906ZM357.834 56.1992H356.834L358.711 56.6801L357.834 56.1992ZM363.213 46.3906V45.3906H362.621L362.336 45.9098L363.213 46.3906ZM371.211 46.3906L372.088 46.8706L372.898 45.3906H371.211V46.3906ZM364.479 58.6953L363.601 58.2153L363.339 58.6953L363.601 59.1753L364.479 58.6953ZM371.211 71V72H372.898L372.088 70.52L371.211 71ZM363.213 71L362.336 71.4808L362.621 72H363.213V71ZM356.834 61.1914V71H358.834V61.1914H356.834ZM357.834 70H350.803V72H357.834V70ZM351.803 71V46.3906H349.803V71H351.803ZM350.803 47.3906H357.834V45.3906H350.803V47.3906ZM356.834 46.3906V56.1992H358.834V46.3906H356.834ZM358.711 56.6801L364.09 46.8715L362.336 45.9098L356.957 55.7184L358.711 56.6801ZM363.213 47.3906H371.211V45.3906H363.213V47.3906ZM370.334 45.9106L363.601 58.2153L365.356 59.1753L372.088 46.8706L370.334 45.9106ZM363.601 59.1753L370.334 71.48L372.088 70.52L365.356 58.2153L363.601 59.1753ZM371.211 70H363.213V72H371.211V70ZM364.09 70.5192L358.711 60.7106L356.957 61.6722L362.336 71.4808L364.09 70.5192ZM388.119 62.2109H389.119V61.2109H388.119V62.2109ZM381.088 62.2109V61.2109H380.088V62.2109H381.088ZM381.088 71V72H382.088V71H381.088ZM374.057 71H373.057V72H374.057V71ZM374.057 46.3906V45.3906H373.057V46.3906H374.057ZM395.15 46.3906H396.15V45.3906H395.15V46.3906ZM395.15 71V72H396.15V71H395.15ZM388.119 71H387.119V72H388.119V71ZM381.088 55.1797H380.088V56.1797H381.088V55.1797ZM388.119 55.1797V56.1797H389.119V55.1797H388.119ZM388.119 53.4219H389.119V52.4219H388.119V53.4219ZM381.088 53.4219V52.4219H380.088V53.4219H381.088ZM388.119 61.2109H381.088V63.2109H388.119V61.2109ZM380.088 62.2109V71H382.088V62.2109H380.088ZM381.088 70H374.057V72H381.088V70ZM375.057 71V46.3906H373.057V71H375.057ZM374.057 47.3906H395.15V45.3906H374.057V47.3906ZM394.15 46.3906V71H396.15V46.3906H394.15ZM395.15 70H388.119V72H395.15V70ZM389.119 71V62.2109H387.119V71H389.119ZM381.088 56.1797H388.119V54.1797H381.088V56.1797ZM389.119 55.1797V53.4219H387.119V55.1797H389.119ZM388.119 52.4219H381.088V54.4219H388.119V52.4219ZM380.088 53.4219V55.1797H382.088V53.4219H380.088ZM420.162 46.3906L421.132 46.6332L421.443 45.3906H420.162V46.3906ZM418.404 53.4219V54.4219H419.185L419.374 53.6644L418.404 53.4219ZM406.099 53.4219V52.4219H405.099V53.4219H406.099ZM406.099 55.1797H405.099V56.1797H406.099V55.1797ZM418.404 55.1797H419.404V54.1797H418.404V55.1797ZM418.404 71V72H419.404V71H418.404ZM397.31 71L396.34 70.7575L396.03 72H397.31V71ZM399.068 63.9688V62.9688H398.287L398.098 63.7262L399.068 63.9688ZM411.373 63.9688V64.9688H412.373V63.9688H411.373ZM411.373 62.2109H412.373V61.2109H411.373V62.2109ZM399.068 62.2109H398.068V63.2109H399.068V62.2109ZM399.068 46.3906V45.3906H398.068V46.3906H399.068ZM419.192 46.1481L417.434 53.1793L419.374 53.6644L421.132 46.6332L419.192 46.1481ZM418.404 52.4219H406.099V54.4219H418.404V52.4219ZM405.099 53.4219V55.1797H407.099V53.4219H405.099ZM406.099 56.1797H418.404V54.1797H406.099V56.1797ZM417.404 55.1797V71H419.404V55.1797H417.404ZM418.404 70H397.31V72H418.404V70ZM398.28 71.2425L400.038 64.2113L398.098 63.7262L396.34 70.7575L398.28 71.2425ZM399.068 64.9688H411.373V62.9688H399.068V64.9688ZM412.373 63.9688V62.2109H410.373V63.9688H412.373ZM411.373 61.2109H399.068V63.2109H411.373V61.2109ZM400.068 62.2109V46.3906H398.068V62.2109H400.068ZM399.068 47.3906H420.162V45.3906H399.068V47.3906Z" fill="#34FF00" mask="url(#path-11-inside-1_63_549)"/>
</svg>
