<svg width="418" height="121" viewBox="0 0 418 121" fill="none" xmlns="http://www.w3.org/2000/svg">
<path d="M412.733 3.96209L376.658 47.1137C375.261 48.7845 375.261 51.2155 376.658 52.8863L412.733 96.0379C413.549 97.0145 412.855 98.5 411.582 98.5H3.00001C2.17158 98.5 1.5 97.8284 1.5 97V3C1.5 2.17157 2.17157 1.5 3 1.5H209H411.582C412.855 1.5 413.549 2.98554 412.733 3.96209Z" fill="white" fill-opacity="0.8" stroke="#FFB800" stroke-width="3"/>
<path d="M412.733 23.9621L376.658 67.1137C375.261 68.7845 375.261 71.2155 376.658 72.8863L412.733 116.038C413.549 117.014 412.855 118.5 411.582 118.5H3.00001C2.17158 118.5 1.5 117.828 1.5 117V23C1.5 22.1716 2.17157 21.5 3 21.5H209H411.582C412.855 21.5 413.549 22.9855 412.733 23.9621Z" fill="black" fill-opacity="0.6" stroke="white" stroke-width="3"/>
<path d="M412.733 13.9621L376.658 57.1137C375.261 58.7845 375.261 61.2155 376.658 62.8863L412.733 106.038C413.549 107.014 412.855 108.5 411.582 108.5H3.00001C2.17158 108.5 1.5 107.828 1.5 107V13C1.5 12.1716 2.17157 11.5 3 11.5H209H411.582C412.855 11.5 413.549 12.9855 412.733 13.9621Z" fill="#E7E7E7" fill-opacity="0.7" stroke="#76FF03" stroke-width="3"/>
<line x1="10" y1="23.5" x2="30" y2="23.5" stroke="#FFB800" stroke-width="3"/>
<line x1="11.5" y1="22" x2="11.5" y2="97" stroke="#FFB800" stroke-width="3"/>
<line x1="10" y1="98.5" x2="30" y2="98.5" stroke="#FFB800" stroke-width="3"/>
<line y1="-1.5" x2="46.0827" y2="-1.5" transform="matrix(0.641391 -0.767214 0.641391 0.767214 370.348 55.3555)" stroke="#FFB800" stroke-width="3"/>
<line x1="361.988" y1="53.5" x2="370.348" y2="53.5" stroke="#FFB800" stroke-width="3"/>
<line x1="361.988" y1="66.5" x2="370.348" y2="66.5" stroke="#FFB800" stroke-width="3"/>
<line y1="-1.5" x2="46.0828" y2="-1.5" transform="matrix(0.641391 0.767214 -0.641391 0.767214 367.84 67)" stroke="#FFB800" stroke-width="3"/>
<mask id="path-11-inside-1_63_657" fill="white">
<path d="M69.1211 71L70.8789 63.9688H82.3047V46.3906H89.3359V71H69.1211ZM114.347 46.3906L112.59 53.4219H100.285V55.1797H112.59V71H91.4959L93.2537 63.9688H105.558V62.2109H93.2537V46.3906H114.347ZM130.57 53.4219H123.539V63.9688H130.57V53.4219ZM137.601 46.3906V71H116.507V46.3906H137.601ZM162.613 71H155.582V53.4219H148.55V71H141.519V46.3906H162.613V71ZM175.722 46.3906H182.753V63.9688H184.511V46.3906H191.542V63.9688H193.3V46.3906H200.331V71H175.722V46.3906ZM204.249 46.3906H211.28V71H204.249V46.3906ZM236.292 46.3906L234.534 53.4219H228.382V71H221.35V53.4219H215.198V46.3906H236.292ZM259.546 46.3906L257.788 53.4219H251.635V71H244.604V53.4219H238.452V46.3906H259.546ZM282.799 46.3906L281.042 53.4219H268.737V55.1797H281.042L279.284 62.2109H268.737V63.9688H282.799L281.042 71H261.706V46.3906H282.799ZM306.053 71H299.022V53.4219H291.991V71H284.959V46.3906H306.053V71Z"/>
</mask>
<path d="M69.1211 71L70.8789 63.9688H82.3047V46.3906H89.3359V71H69.1211ZM114.347 46.3906L112.59 53.4219H100.285V55.1797H112.59V71H91.4959L93.2537 63.9688H105.558V62.2109H93.2537V46.3906H114.347ZM130.57 53.4219H123.539V63.9688H130.57V53.4219ZM137.601 46.3906V71H116.507V46.3906H137.601ZM162.613 71H155.582V53.4219H148.55V71H141.519V46.3906H162.613V71ZM175.722 46.3906H182.753V63.9688H184.511V46.3906H191.542V63.9688H193.3V46.3906H200.331V71H175.722V46.3906ZM204.249 46.3906H211.28V71H204.249V46.3906ZM236.292 46.3906L234.534 53.4219H228.382V71H221.35V53.4219H215.198V46.3906H236.292ZM259.546 46.3906L257.788 53.4219H251.635V71H244.604V53.4219H238.452V46.3906H259.546ZM282.799 46.3906L281.042 53.4219H268.737V55.1797H281.042L279.284 62.2109H268.737V63.9688H282.799L281.042 71H261.706V46.3906H282.799ZM306.053 71H299.022V53.4219H291.991V71H284.959V46.3906H306.053V71Z" fill="white" fill-opacity="0.85"/>
<path d="M69.1211 71L68.151 70.7575L67.8403 72H69.1211V71ZM70.8789 63.9688V62.9688H70.0981L69.9088 63.7262L70.8789 63.9688ZM82.3047 63.9688V64.9688H83.3047V63.9688H82.3047ZM82.3047 46.3906V45.3906H81.3047V46.3906H82.3047ZM89.3359 46.3906H90.3359V45.3906H89.3359V46.3906ZM89.3359 71V72H90.3359V71H89.3359ZM70.0912 71.2425L71.849 64.2113L69.9088 63.7262L68.151 70.7575L70.0912 71.2425ZM70.8789 64.9688H82.3047V62.9688H70.8789V64.9688ZM83.3047 63.9688V46.3906H81.3047V63.9688H83.3047ZM82.3047 47.3906H89.3359V45.3906H82.3047V47.3906ZM88.3359 46.3906V71H90.3359V46.3906H88.3359ZM89.3359 70H69.1211V72H89.3359V70ZM114.347 46.3906L115.318 46.6332L115.628 45.3906H114.347V46.3906ZM112.59 53.4219V54.4219H113.37L113.56 53.6644L112.59 53.4219ZM100.285 53.4219V52.4219H99.285V53.4219H100.285ZM100.285 55.1797H99.285V56.1797H100.285V55.1797ZM112.59 55.1797H113.59V54.1797H112.59V55.1797ZM112.59 71V72H113.59V71H112.59ZM91.4959 71L90.5258 70.7575L90.2152 72H91.4959V71ZM93.2537 63.9688V62.9688H92.473L92.2836 63.7262L93.2537 63.9688ZM105.558 63.9688V64.9688H106.558V63.9688H105.558ZM105.558 62.2109H106.558V61.2109H105.558V62.2109ZM93.2537 62.2109H92.2537V63.2109H93.2537V62.2109ZM93.2537 46.3906V45.3906H92.2537V46.3906H93.2537ZM113.377 46.1481L111.62 53.1793L113.56 53.6644L115.318 46.6332L113.377 46.1481ZM112.59 52.4219H100.285V54.4219H112.59V52.4219ZM99.285 53.4219V55.1797H101.285V53.4219H99.285ZM100.285 56.1797H112.59V54.1797H100.285V56.1797ZM111.59 55.1797V71H113.59V55.1797H111.59ZM112.59 70H91.4959V72H112.59V70ZM92.4661 71.2425L94.2239 64.2113L92.2836 63.7262L90.5258 70.7575L92.4661 71.2425ZM93.2537 64.9688H105.558V62.9688H93.2537V64.9688ZM106.558 63.9688V62.2109H104.558V63.9688H106.558ZM105.558 61.2109H93.2537V63.2109H105.558V61.2109ZM94.2537 62.2109V46.3906H92.2537V62.2109H94.2537ZM93.2537 47.3906H114.347V45.3906H93.2537V47.3906ZM130.57 53.4219H131.57V52.4219H130.57V53.4219ZM123.539 53.4219V52.4219H122.539V53.4219H123.539ZM123.539 63.9688H122.539V64.9688H123.539V63.9688ZM130.57 63.9688V64.9688H131.57V63.9688H130.57ZM137.601 46.3906H138.601V45.3906H137.601V46.3906ZM137.601 71V72H138.601V71H137.601ZM116.507 71H115.507V72H116.507V71ZM116.507 46.3906V45.3906H115.507V46.3906H116.507ZM130.57 52.4219H123.539V54.4219H130.57V52.4219ZM122.539 53.4219V63.9688H124.539V53.4219H122.539ZM123.539 64.9688H130.57V62.9688H123.539V64.9688ZM131.57 63.9688V53.4219H129.57V63.9688H131.57ZM136.601 46.3906V71H138.601V46.3906H136.601ZM137.601 70H116.507V72H137.601V70ZM117.507 71V46.3906H115.507V71H117.507ZM116.507 47.3906H137.601V45.3906H116.507V47.3906ZM162.613 71V72H163.613V71H162.613ZM155.582 71H154.582V72H155.582V71ZM155.582 53.4219H156.582V52.4219H155.582V53.4219ZM148.55 53.4219V52.4219H147.55V53.4219H148.55ZM148.55 71V72H149.55V71H148.55ZM141.519 71H140.519V72H141.519V71ZM141.519 46.3906V45.3906H140.519V46.3906H141.519ZM162.613 46.3906H163.613V45.3906H162.613V46.3906ZM162.613 70H155.582V72H162.613V70ZM156.582 71V53.4219H154.582V71H156.582ZM155.582 52.4219H148.55V54.4219H155.582V52.4219ZM147.55 53.4219V71H149.55V53.4219H147.55ZM148.55 70H141.519V72H148.55V70ZM142.519 71V46.3906H140.519V71H142.519ZM141.519 47.3906H162.613V45.3906H141.519V47.3906ZM161.613 46.3906V71H163.613V46.3906H161.613ZM175.722 46.3906V45.3906H174.722V46.3906H175.722ZM182.753 46.3906H183.753V45.3906H182.753V46.3906ZM182.753 63.9688H181.753V64.9688H182.753V63.9688ZM184.511 63.9688V64.9688H185.511V63.9688H184.511ZM184.511 46.3906V45.3906H183.511V46.3906H184.511ZM191.542 46.3906H192.542V45.3906H191.542V46.3906ZM191.542 63.9688H190.542V64.9688H191.542V63.9688ZM193.3 63.9688V64.9688H194.3V63.9688H193.3ZM193.3 46.3906V45.3906H192.3V46.3906H193.3ZM200.331 46.3906H201.331V45.3906H200.331V46.3906ZM200.331 71V72H201.331V71H200.331ZM175.722 71H174.722V72H175.722V71ZM175.722 47.3906H182.753V45.3906H175.722V47.3906ZM181.753 46.3906V63.9688H183.753V46.3906H181.753ZM182.753 64.9688H184.511V62.9688H182.753V64.9688ZM185.511 63.9688V46.3906H183.511V63.9688H185.511ZM184.511 47.3906H191.542V45.3906H184.511V47.3906ZM190.542 46.3906V63.9688H192.542V46.3906H190.542ZM191.542 64.9688H193.3V62.9688H191.542V64.9688ZM194.3 63.9688V46.3906H192.3V63.9688H194.3ZM193.3 47.3906H200.331V45.3906H193.3V47.3906ZM199.331 46.3906V71H201.331V46.3906H199.331ZM200.331 70H175.722V72H200.331V70ZM176.722 71V46.3906H174.722V71H176.722ZM204.249 46.3906V45.3906H203.249V46.3906H204.249ZM211.28 46.3906H212.28V45.3906H211.28V46.3906ZM211.28 71V72H212.28V71H211.28ZM204.249 71H203.249V72H204.249V71ZM204.249 47.3906H211.28V45.3906H204.249V47.3906ZM210.28 46.3906V71H212.28V46.3906H210.28ZM211.28 70H204.249V72H211.28V70ZM205.249 71V46.3906H203.249V71H205.249ZM236.292 46.3906L237.262 46.6332L237.573 45.3906H236.292V46.3906ZM234.534 53.4219V54.4219H235.315L235.504 53.6644L234.534 53.4219ZM228.382 53.4219V52.4219H227.382V53.4219H228.382ZM228.382 71V72H229.382V71H228.382ZM221.35 71H220.35V72H221.35V71ZM221.35 53.4219H222.35V52.4219H221.35V53.4219ZM215.198 53.4219H214.198V54.4219H215.198V53.4219ZM215.198 46.3906V45.3906H214.198V46.3906H215.198ZM235.322 46.1481L233.564 53.1793L235.504 53.6644L237.262 46.6332L235.322 46.1481ZM234.534 52.4219H228.382V54.4219H234.534V52.4219ZM227.382 53.4219V71H229.382V53.4219H227.382ZM228.382 70H221.35V72H228.382V70ZM222.35 71V53.4219H220.35V71H222.35ZM221.35 52.4219H215.198V54.4219H221.35V52.4219ZM216.198 53.4219V46.3906H214.198V53.4219H216.198ZM215.198 47.3906H236.292V45.3906H215.198V47.3906ZM259.546 46.3906L260.516 46.6332L260.826 45.3906H259.546V46.3906ZM257.788 53.4219V54.4219H258.569L258.758 53.6644L257.788 53.4219ZM251.635 53.4219V52.4219H250.635V53.4219H251.635ZM251.635 71V72H252.635V71H251.635ZM244.604 71H243.604V72H244.604V71ZM244.604 53.4219H245.604V52.4219H244.604V53.4219ZM238.452 53.4219H237.452V54.4219H238.452V53.4219ZM238.452 46.3906V45.3906H237.452V46.3906H238.452ZM258.575 46.1481L256.818 53.1793L258.758 53.6644L260.516 46.6332L258.575 46.1481ZM257.788 52.4219H251.635V54.4219H257.788V52.4219ZM250.635 53.4219V71H252.635V53.4219H250.635ZM251.635 70H244.604V72H251.635V70ZM245.604 71V53.4219H243.604V71H245.604ZM244.604 52.4219H238.452V54.4219H244.604V52.4219ZM239.452 53.4219V46.3906H237.452V53.4219H239.452ZM238.452 47.3906H259.546V45.3906H238.452V47.3906ZM282.799 46.3906L283.77 46.6332L284.08 45.3906H282.799V46.3906ZM281.042 53.4219V54.4219H281.822L282.012 53.6644L281.042 53.4219ZM268.737 53.4219V52.4219H267.737V53.4219H268.737ZM268.737 55.1797H267.737V56.1797H268.737V55.1797ZM281.042 55.1797L282.012 55.4222L282.322 54.1797H281.042V55.1797ZM279.284 62.2109V63.2109H280.065L280.254 62.4535L279.284 62.2109ZM268.737 62.2109V61.2109H267.737V62.2109H268.737ZM268.737 63.9688H267.737V64.9688H268.737V63.9688ZM282.799 63.9688L283.77 64.2113L284.08 62.9688H282.799V63.9688ZM281.042 71V72H281.822L282.012 71.2425L281.042 71ZM261.706 71H260.706V72H261.706V71ZM261.706 46.3906V45.3906H260.706V46.3906H261.706ZM281.829 46.1481L280.071 53.1793L282.012 53.6644L283.77 46.6332L281.829 46.1481ZM281.042 52.4219H268.737V54.4219H281.042V52.4219ZM267.737 53.4219V55.1797H269.737V53.4219H267.737ZM268.737 56.1797H281.042V54.1797H268.737V56.1797ZM280.071 54.9372L278.314 61.9684L280.254 62.4535L282.012 55.4222L280.071 54.9372ZM279.284 61.2109H268.737V63.2109H279.284V61.2109ZM267.737 62.2109V63.9688H269.737V62.2109H267.737ZM268.737 64.9688H282.799V62.9688H268.737V64.9688ZM281.829 63.7262L280.071 70.7575L282.012 71.2425L283.77 64.2113L281.829 63.7262ZM281.042 70H261.706V72H281.042V70ZM262.706 71V46.3906H260.706V71H262.706ZM261.706 47.3906H282.799V45.3906H261.706V47.3906ZM306.053 71V72H307.053V71H306.053ZM299.022 71H298.022V72H299.022V71ZM299.022 53.4219H300.022V52.4219H299.022V53.4219ZM291.991 53.4219V52.4219H290.991V53.4219H291.991ZM291.991 71V72H292.991V71H291.991ZM284.959 71H283.959V72H284.959V71ZM284.959 46.3906V45.3906H283.959V46.3906H284.959ZM306.053 46.3906H307.053V45.3906H306.053V46.3906ZM306.053 70H299.022V72H306.053V70ZM300.022 71V53.4219H298.022V71H300.022ZM299.022 52.4219H291.991V54.4219H299.022V52.4219ZM290.991 53.4219V71H292.991V53.4219H290.991ZM291.991 70H284.959V72H291.991V70ZM285.959 71V46.3906H283.959V71H285.959ZM284.959 47.3906H306.053V45.3906H284.959V47.3906ZM305.053 46.3906V71H307.053V46.3906H305.053Z" fill="#34FF00" mask="url(#path-11-inside-1_63_657)"/>
</svg>
