<svg width="384" height="121" viewBox="0 0 384 121" fill="none" xmlns="http://www.w3.org/2000/svg">
<path d="M379.103 3.91365L345.814 47.2591C344.572 48.8755 344.572 51.1245 345.814 52.7409L379.103 96.0863C379.861 97.0729 379.157 98.5 377.913 98.5H3C2.17157 98.5 1.5 97.8284 1.5 97V3C1.5 2.17157 2.17157 1.5 3 1.5H192H377.913C379.157 1.5 379.861 2.92705 379.103 3.91365Z" fill="white" fill-opacity="0.8" stroke="#FFB800" stroke-width="3"/>
<path d="M379.103 23.9136L345.814 67.2591C344.572 68.8755 344.572 71.1245 345.814 72.7409L379.103 116.086C379.861 117.073 379.157 118.5 377.913 118.5H3C2.17157 118.5 1.5 117.828 1.5 117V23C1.5 22.1716 2.17157 21.5 3 21.5H192H377.913C379.157 21.5 379.861 22.9271 379.103 23.9136Z" fill="black" fill-opacity="0.6" stroke="white" stroke-width="3"/>
<path d="M379.103 13.9136L345.814 57.2591C344.572 58.8755 344.572 61.1245 345.814 62.7409L379.103 106.086C379.861 107.073 379.157 108.5 377.913 108.5H3C2.17157 108.5 1.5 107.828 1.5 107V13C1.5 12.1716 2.17157 11.5 3 11.5H192H377.913C379.157 11.5 379.861 12.9271 379.103 13.9136Z" fill="#E7E7E7" fill-opacity="0.7" stroke="#76FF03" stroke-width="3"/>
<line x1="10" y1="23.5" x2="30" y2="23.5" stroke="#FFB800" stroke-width="3"/>
<line x1="11.5" y1="22" x2="11.5" y2="97" stroke="#FFB800" stroke-width="3"/>
<line x1="10" y1="98.5" x2="30" y2="98.5" stroke="#FFB800" stroke-width="3"/>
<line y1="-1.5" x2="44.5789" y2="-1.5" transform="matrix(0.609097 -0.793096 0.609097 0.793096 340.224 55.3553)" stroke="#FFB800" stroke-width="3"/>
<line x1="332.544" y1="53.5" x2="340.224" y2="53.5" stroke="#FFB800" stroke-width="3"/>
<line x1="332.544" y1="66.5" x2="340.224" y2="66.5" stroke="#FFB800" stroke-width="3"/>
<line y1="-1.5" x2="44.5789" y2="-1.5" transform="matrix(0.609097 0.793096 -0.609097 0.793096 337.92 67)" stroke="#FFB800" stroke-width="3"/>
<mask id="path-11-inside-1_63_453" fill="white">
<path d="M69.1211 71L70.8789 63.9688H82.3047V46.3906H89.3359V71H69.1211ZM114.347 46.3906L112.59 53.4219H100.285V55.1797H112.59V71H91.4959L93.2537 63.9688H105.558V62.2109H93.2537V46.3906H114.347ZM130.57 53.4219H123.539V63.9688H130.57V53.4219ZM137.601 46.3906V71H116.507V46.3906H137.601ZM162.613 71H155.582V53.4219H148.55V71H141.519V46.3906H162.613V71ZM182.753 53.4219V58.8184L185.548 53.4219H182.753ZM182.753 63.9688H189.784V62.2109H182.753V63.9688ZM175.722 71V46.3906H197.097L192.544 55.1797H196.816V71H175.722ZM200.733 46.3906H207.765V71H200.733V46.3906ZM234.534 46.3906L232.776 53.4219H218.714V63.9688H225.745V62.2109H219.593L221.35 55.1797H232.776V71H211.682V46.3906H234.534ZM259.546 46.3906L257.788 53.4219H243.725V63.9688H250.757V62.2109H244.604L246.362 55.1797H257.788V71H236.694V46.3906H259.546ZM282.799 46.3906L281.042 53.4219H268.737V55.1797H281.042V71H259.948L261.706 63.9688H274.01V62.2109H261.706V46.3906H282.799Z"/>
</mask>
<path d="M69.1211 71L70.8789 63.9688H82.3047V46.3906H89.3359V71H69.1211ZM114.347 46.3906L112.59 53.4219H100.285V55.1797H112.59V71H91.4959L93.2537 63.9688H105.558V62.2109H93.2537V46.3906H114.347ZM130.57 53.4219H123.539V63.9688H130.57V53.4219ZM137.601 46.3906V71H116.507V46.3906H137.601ZM162.613 71H155.582V53.4219H148.55V71H141.519V46.3906H162.613V71ZM182.753 53.4219V58.8184L185.548 53.4219H182.753ZM182.753 63.9688H189.784V62.2109H182.753V63.9688ZM175.722 71V46.3906H197.097L192.544 55.1797H196.816V71H175.722ZM200.733 46.3906H207.765V71H200.733V46.3906ZM234.534 46.3906L232.776 53.4219H218.714V63.9688H225.745V62.2109H219.593L221.35 55.1797H232.776V71H211.682V46.3906H234.534ZM259.546 46.3906L257.788 53.4219H243.725V63.9688H250.757V62.2109H244.604L246.362 55.1797H257.788V71H236.694V46.3906H259.546ZM282.799 46.3906L281.042 53.4219H268.737V55.1797H281.042V71H259.948L261.706 63.9688H274.01V62.2109H261.706V46.3906H282.799Z" fill="white" fill-opacity="0.85"/>
<path d="M69.1211 71L68.151 70.7575L67.8403 72H69.1211V71ZM70.8789 63.9688V62.9688H70.0981L69.9088 63.7262L70.8789 63.9688ZM82.3047 63.9688V64.9688H83.3047V63.9688H82.3047ZM82.3047 46.3906V45.3906H81.3047V46.3906H82.3047ZM89.3359 46.3906H90.3359V45.3906H89.3359V46.3906ZM89.3359 71V72H90.3359V71H89.3359ZM70.0912 71.2425L71.849 64.2113L69.9088 63.7262L68.151 70.7575L70.0912 71.2425ZM70.8789 64.9688H82.3047V62.9688H70.8789V64.9688ZM83.3047 63.9688V46.3906H81.3047V63.9688H83.3047ZM82.3047 47.3906H89.3359V45.3906H82.3047V47.3906ZM88.3359 46.3906V71H90.3359V46.3906H88.3359ZM89.3359 70H69.1211V72H89.3359V70ZM114.347 46.3906L115.318 46.6332L115.628 45.3906H114.347V46.3906ZM112.59 53.4219V54.4219H113.37L113.56 53.6644L112.59 53.4219ZM100.285 53.4219V52.4219H99.285V53.4219H100.285ZM100.285 55.1797H99.285V56.1797H100.285V55.1797ZM112.59 55.1797H113.59V54.1797H112.59V55.1797ZM112.59 71V72H113.59V71H112.59ZM91.4959 71L90.5258 70.7575L90.2152 72H91.4959V71ZM93.2537 63.9688V62.9688H92.473L92.2836 63.7262L93.2537 63.9688ZM105.558 63.9688V64.9688H106.558V63.9688H105.558ZM105.558 62.2109H106.558V61.2109H105.558V62.2109ZM93.2537 62.2109H92.2537V63.2109H93.2537V62.2109ZM93.2537 46.3906V45.3906H92.2537V46.3906H93.2537ZM113.377 46.1481L111.62 53.1793L113.56 53.6644L115.318 46.6332L113.377 46.1481ZM112.59 52.4219H100.285V54.4219H112.59V52.4219ZM99.285 53.4219V55.1797H101.285V53.4219H99.285ZM100.285 56.1797H112.59V54.1797H100.285V56.1797ZM111.59 55.1797V71H113.59V55.1797H111.59ZM112.59 70H91.4959V72H112.59V70ZM92.4661 71.2425L94.2239 64.2113L92.2836 63.7262L90.5258 70.7575L92.4661 71.2425ZM93.2537 64.9688H105.558V62.9688H93.2537V64.9688ZM106.558 63.9688V62.2109H104.558V63.9688H106.558ZM105.558 61.2109H93.2537V63.2109H105.558V61.2109ZM94.2537 62.2109V46.3906H92.2537V62.2109H94.2537ZM93.2537 47.3906H114.347V45.3906H93.2537V47.3906ZM130.57 53.4219H131.57V52.4219H130.57V53.4219ZM123.539 53.4219V52.4219H122.539V53.4219H123.539ZM123.539 63.9688H122.539V64.9688H123.539V63.9688ZM130.57 63.9688V64.9688H131.57V63.9688H130.57ZM137.601 46.3906H138.601V45.3906H137.601V46.3906ZM137.601 71V72H138.601V71H137.601ZM116.507 71H115.507V72H116.507V71ZM116.507 46.3906V45.3906H115.507V46.3906H116.507ZM130.57 52.4219H123.539V54.4219H130.57V52.4219ZM122.539 53.4219V63.9688H124.539V53.4219H122.539ZM123.539 64.9688H130.57V62.9688H123.539V64.9688ZM131.57 63.9688V53.4219H129.57V63.9688H131.57ZM136.601 46.3906V71H138.601V46.3906H136.601ZM137.601 70H116.507V72H137.601V70ZM117.507 71V46.3906H115.507V71H117.507ZM116.507 47.3906H137.601V45.3906H116.507V47.3906ZM162.613 71V72H163.613V71H162.613ZM155.582 71H154.582V72H155.582V71ZM155.582 53.4219H156.582V52.4219H155.582V53.4219ZM148.55 53.4219V52.4219H147.55V53.4219H148.55ZM148.55 71V72H149.55V71H148.55ZM141.519 71H140.519V72H141.519V71ZM141.519 46.3906V45.3906H140.519V46.3906H141.519ZM162.613 46.3906H163.613V45.3906H162.613V46.3906ZM162.613 70H155.582V72H162.613V70ZM156.582 71V53.4219H154.582V71H156.582ZM155.582 52.4219H148.55V54.4219H155.582V52.4219ZM147.55 53.4219V71H149.55V53.4219H147.55ZM148.55 70H141.519V72H148.55V70ZM142.519 71V46.3906H140.519V71H142.519ZM141.519 47.3906H162.613V45.3906H141.519V47.3906ZM161.613 46.3906V71H163.613V46.3906H161.613ZM182.753 53.4219V52.4219H181.753V53.4219H182.753ZM182.753 58.8184H181.753L183.641 59.2783L182.753 58.8184ZM185.548 53.4219L186.436 53.8818L187.192 52.4219H185.548V53.4219ZM182.753 63.9688H181.753V64.9688H182.753V63.9688ZM189.784 63.9688V64.9688H190.784V63.9688H189.784ZM189.784 62.2109H190.784V61.2109H189.784V62.2109ZM182.753 62.2109V61.2109H181.753V62.2109H182.753ZM175.722 71H174.722V72H175.722V71ZM175.722 46.3906V45.3906H174.722V46.3906H175.722ZM197.097 46.3906L197.985 46.8506L198.741 45.3906H197.097V46.3906ZM192.544 55.1797L191.656 54.7197L190.9 56.1797H192.544V55.1797ZM196.816 55.1797H197.816V54.1797H196.816V55.1797ZM196.816 71V72H197.816V71H196.816ZM181.753 53.4219V58.8184H183.753V53.4219H181.753ZM183.641 59.2783L186.436 53.8818L184.66 52.962L181.865 58.3585L183.641 59.2783ZM185.548 52.4219H182.753V54.4219H185.548V52.4219ZM182.753 64.9688H189.784V62.9688H182.753V64.9688ZM190.784 63.9688V62.2109H188.784V63.9688H190.784ZM189.784 61.2109H182.753V63.2109H189.784V61.2109ZM181.753 62.2109V63.9688H183.753V62.2109H181.753ZM176.722 71V46.3906H174.722V71H176.722ZM175.722 47.3906H197.097V45.3906H175.722V47.3906ZM196.209 45.9307L191.656 54.7197L193.432 55.6396L197.985 46.8506L196.209 45.9307ZM192.544 56.1797H196.816V54.1797H192.544V56.1797ZM195.816 55.1797V71H197.816V55.1797H195.816ZM196.816 70H175.722V72H196.816V70ZM200.733 46.3906V45.3906H199.733V46.3906H200.733ZM207.765 46.3906H208.765V45.3906H207.765V46.3906ZM207.765 71V72H208.765V71H207.765ZM200.733 71H199.733V72H200.733V71ZM200.733 47.3906H207.765V45.3906H200.733V47.3906ZM206.765 46.3906V71H208.765V46.3906H206.765ZM207.765 70H200.733V72H207.765V70ZM201.733 71V46.3906H199.733V71H201.733ZM234.534 46.3906L235.504 46.6332L235.815 45.3906H234.534V46.3906ZM232.776 53.4219V54.4219H233.557L233.746 53.6644L232.776 53.4219ZM218.714 53.4219V52.4219H217.714V53.4219H218.714ZM218.714 63.9688H217.714V64.9688H218.714V63.9688ZM225.745 63.9688V64.9688H226.745V63.9688H225.745ZM225.745 62.2109H226.745V61.2109H225.745V62.2109ZM219.593 62.2109L218.623 61.9684L218.312 63.2109H219.593V62.2109ZM221.35 55.1797V54.1797H220.57L220.38 54.9372L221.35 55.1797ZM232.776 55.1797H233.776V54.1797H232.776V55.1797ZM232.776 71V72H233.776V71H232.776ZM211.682 71H210.682V72H211.682V71ZM211.682 46.3906V45.3906H210.682V46.3906H211.682ZM233.564 46.1481L231.806 53.1793L233.746 53.6644L235.504 46.6332L233.564 46.1481ZM232.776 52.4219H218.714V54.4219H232.776V52.4219ZM217.714 53.4219V63.9688H219.714V53.4219H217.714ZM218.714 64.9688H225.745V62.9688H218.714V64.9688ZM226.745 63.9688V62.2109H224.745V63.9688H226.745ZM225.745 61.2109H219.593V63.2109H225.745V61.2109ZM220.563 62.4535L222.321 55.4222L220.38 54.9372L218.623 61.9684L220.563 62.4535ZM221.35 56.1797H232.776V54.1797H221.35V56.1797ZM231.776 55.1797V71H233.776V55.1797H231.776ZM232.776 70H211.682V72H232.776V70ZM212.682 71V46.3906H210.682V71H212.682ZM211.682 47.3906H234.534V45.3906H211.682V47.3906ZM259.546 46.3906L260.516 46.6332L260.826 45.3906H259.546V46.3906ZM257.788 53.4219V54.4219H258.569L258.758 53.6644L257.788 53.4219ZM243.725 53.4219V52.4219H242.725V53.4219H243.725ZM243.725 63.9688H242.725V64.9688H243.725V63.9688ZM250.757 63.9688V64.9688H251.757V63.9688H250.757ZM250.757 62.2109H251.757V61.2109H250.757V62.2109ZM244.604 62.2109L243.634 61.9684L243.323 63.2109H244.604V62.2109ZM246.362 55.1797V54.1797H245.581L245.392 54.9372L246.362 55.1797ZM257.788 55.1797H258.788V54.1797H257.788V55.1797ZM257.788 71V72H258.788V71H257.788ZM236.694 71H235.694V72H236.694V71ZM236.694 46.3906V45.3906H235.694V46.3906H236.694ZM258.575 46.1481L256.818 53.1793L258.758 53.6644L260.516 46.6332L258.575 46.1481ZM257.788 52.4219H243.725V54.4219H257.788V52.4219ZM242.725 53.4219V63.9688H244.725V53.4219H242.725ZM243.725 64.9688H250.757V62.9688H243.725V64.9688ZM251.757 63.9688V62.2109H249.757V63.9688H251.757ZM250.757 61.2109H244.604V63.2109H250.757V61.2109ZM245.574 62.4535L247.332 55.4222L245.392 54.9372L243.634 61.9684L245.574 62.4535ZM246.362 56.1797H257.788V54.1797H246.362V56.1797ZM256.788 55.1797V71H258.788V55.1797H256.788ZM257.788 70H236.694V72H257.788V70ZM237.694 71V46.3906H235.694V71H237.694ZM236.694 47.3906H259.546V45.3906H236.694V47.3906ZM282.799 46.3906L283.77 46.6332L284.08 45.3906H282.799V46.3906ZM281.042 53.4219V54.4219H281.822L282.012 53.6644L281.042 53.4219ZM268.737 53.4219V52.4219H267.737V53.4219H268.737ZM268.737 55.1797H267.737V56.1797H268.737V55.1797ZM281.042 55.1797H282.042V54.1797H281.042V55.1797ZM281.042 71V72H282.042V71H281.042ZM259.948 71L258.978 70.7575L258.667 72H259.948V71ZM261.706 63.9688V62.9688H260.925L260.735 63.7262L261.706 63.9688ZM274.01 63.9688V64.9688H275.01V63.9688H274.01ZM274.01 62.2109H275.01V61.2109H274.01V62.2109ZM261.706 62.2109H260.706V63.2109H261.706V62.2109ZM261.706 46.3906V45.3906H260.706V46.3906H261.706ZM281.829 46.1481L280.071 53.1793L282.012 53.6644L283.77 46.6332L281.829 46.1481ZM281.042 52.4219H268.737V54.4219H281.042V52.4219ZM267.737 53.4219V55.1797H269.737V53.4219H267.737ZM268.737 56.1797H281.042V54.1797H268.737V56.1797ZM280.042 55.1797V71H282.042V55.1797H280.042ZM281.042 70H259.948V72H281.042V70ZM260.918 71.2425L262.676 64.2113L260.735 63.7262L258.978 70.7575L260.918 71.2425ZM261.706 64.9688H274.01V62.9688H261.706V64.9688ZM275.01 63.9688V62.2109H273.01V63.9688H275.01ZM274.01 61.2109H261.706V63.2109H274.01V61.2109ZM262.706 62.2109V46.3906H260.706V62.2109H262.706ZM261.706 47.3906H282.799V45.3906H261.706V47.3906Z" fill="#34FF00" mask="url(#path-11-inside-1_63_453)"/>
</svg>
