<svg width="509" height="121" viewBox="0 0 509 121" fill="none" xmlns="http://www.w3.org/2000/svg">
<path d="M502.366 3.71339L458.877 46.4331C456.882 48.3927 456.882 51.6073 458.877 53.5669L502.366 96.2866C503.004 96.914 502.56 98 501.665 98H2.99999C2.44771 98 2 97.5523 2 97V3C2 2.44772 2.44771 2 3 2H254.5H501.665C502.56 2 503.004 3.08604 502.366 3.71339Z" fill="white" stroke="#FFB800" stroke-width="4"/>
<path d="M502.366 23.7134L458.877 66.4331C456.882 68.3927 456.882 71.6073 458.877 73.5669L502.366 116.287C503.004 116.914 502.56 118 501.665 118H2.99999C2.44771 118 2 117.552 2 117V23C2 22.4477 2.44771 22 3 22H254.5H501.665C502.56 22 503.004 23.086 502.366 23.7134Z" fill="black" stroke="white" stroke-width="4"/>
<path d="M502.366 13.7134L458.877 56.4331C456.882 58.3927 456.882 61.6073 458.877 63.5669L502.366 106.287C503.004 106.914 502.56 108 501.665 108H2.99999C2.44771 108 2 107.552 2 107V13C2 12.4477 2.44771 12 3 12H254.5H501.665C502.56 12 503.004 13.086 502.366 13.7134Z" fill="#E7E7E7" stroke="#76FF03" stroke-width="4"/>
<line x1="10" y1="23" x2="30" y2="23" stroke="#FFB800" stroke-width="4"/>
<line x1="12" y1="22" x2="12" y2="97" stroke="#FFB800" stroke-width="4"/>
<line x1="10" y1="98" x2="30" y2="98" stroke="#FFB800" stroke-width="4"/>
<line y1="-2" x2="50.452" y2="-2" transform="matrix(0.713386 -0.700771 0.713386 0.700771 450.974 55.3553)" stroke="#FFB800" stroke-width="4"/>
<line x1="440.794" y1="53" x2="450.974" y2="53" stroke="#FFB800" stroke-width="4"/>
<line x1="440.794" y1="66" x2="450.974" y2="66" stroke="#FFB800" stroke-width="4"/>
<line y1="-2" x2="50.452" y2="-2" transform="matrix(0.713386 0.700772 -0.713386 0.700772 447.92 67)" stroke="#FFB800" stroke-width="4"/>
<path d="M69.1211 71L70.8789 63.9688H82.3047V46.3906H89.3359V71H69.1211ZM112.188 46.3906L110.43 53.4219H98.125V55.1797H110.43V71H89.3359L91.0938 63.9688H103.398V62.2109H91.0938V46.3906H112.188ZM126.25 53.4219H119.219V63.9688H126.25V53.4219ZM133.281 46.3906V71H112.188V46.3906H133.281ZM156.133 71H149.102V53.4219H142.07V71H135.039V46.3906H156.133V71ZM189.531 71H182.5V53.4219H180.742V71H173.711V53.4219H171.953V71H164.922V46.3906H189.531V71ZM205.352 62.2109H198.32V71H191.289V46.3906H212.383V71H205.352V62.2109ZM198.32 55.1797H205.352V53.4219H198.32V55.1797ZM235.234 71H228.203V53.4219H221.172V71H214.141V46.3906H235.234V71ZM258.086 46.3906L256.328 53.4219H250.176V71H243.145V53.4219H236.992V46.3906H258.086ZM270.391 53.4219H258.086V46.3906H277.422V62.2109H265.117V63.9688H277.422V71H258.086V55.1797H270.391V53.4219ZM293.242 53.4219H286.211V63.9688H293.242V53.4219ZM300.273 46.3906V71H279.18V46.3906H300.273ZM302.031 46.3906H309.062V63.9688H316.094V46.3906H323.125V71H302.031V46.3906ZM331.914 61.1914V71H324.883V46.3906H331.914V56.1992L337.293 46.3906H345.291L338.559 58.6953L345.291 71H337.293L331.914 61.1914ZM360.039 62.2109H353.008V71H345.977V46.3906H367.07V71H360.039V62.2109ZM353.008 55.1797H360.039V53.4219H353.008V55.1797ZM389.922 46.3906L388.164 53.4219H375.859V55.1797H388.164V71H367.07L368.828 63.9688H381.133V62.2109H368.828V46.3906H389.922Z" fill="black"/>
</svg>
