<svg width="406" height="121" viewBox="0 0 406 121" fill="none" xmlns="http://www.w3.org/2000/svg">
<path d="M400.476 3.63036L365.383 46.8482C363.892 48.6848 363.892 51.3152 365.383 53.1518L400.476 96.3696C401.007 97.0232 400.541 98 399.7 98H3.00001C2.44772 98 2 97.5523 2 97V3C2 2.44771 2.44771 2 3 2H203H399.7C400.541 2 401.007 2.97678 400.476 3.63036Z" fill="white" stroke="#FFB800" stroke-width="4"/>
<path d="M400.476 23.6304L365.383 66.8482C363.892 68.6848 363.892 71.3152 365.383 73.1518L400.476 116.37C401.007 117.023 400.541 118 399.7 118H3.00001C2.44772 118 2 117.552 2 117V23C2 22.4477 2.44771 22 3 22H203H399.7C400.541 22 401.007 22.9768 400.476 23.6304Z" fill="black" stroke="white" stroke-width="4"/>
<path d="M400.476 13.6304L365.383 56.8482C363.892 58.6848 363.892 61.3152 365.383 63.1518L400.476 106.37C401.007 107.023 400.541 108 399.7 108H3.00001C2.44772 108 2 107.552 2 107V13C2 12.4477 2.44771 12 3 12H203H399.7C400.541 12 401.007 12.9768 400.476 13.6304Z" fill="#E7E7E7" stroke="#76FF03" stroke-width="4"/>
<line x1="10" y1="23" x2="30" y2="23" stroke="#FFB800" stroke-width="4"/>
<line x1="12" y1="22" x2="12" y2="97" stroke="#FFB800" stroke-width="4"/>
<line x1="10" y1="98" x2="30" y2="98" stroke="#FFB800" stroke-width="4"/>
<line y1="-2" x2="45.5432" y2="-2" transform="matrix(0.630359 -0.776304 0.630359 0.776304 359.716 55.3553)" stroke="#FFB800" stroke-width="4"/>
<line x1="351.596" y1="53" x2="359.716" y2="53" stroke="#FFB800" stroke-width="4"/>
<line x1="351.596" y1="66" x2="359.716" y2="66" stroke="#FFB800" stroke-width="4"/>
<line y1="-2" x2="45.5432" y2="-2" transform="matrix(0.630359 0.776304 -0.630359 0.776304 357.28 67)" stroke="#FFB800" stroke-width="4"/>
<path d="M69.1211 71L70.8789 63.9688H82.3047V46.3906H89.3359V71H69.1211ZM112.188 46.3906L110.43 53.4219H98.125V55.1797H110.43V71H89.3359L91.0938 63.9688H103.398V62.2109H91.0938V46.3906H112.188ZM126.25 53.4219H119.219V63.9688H126.25V53.4219ZM133.281 46.3906V71H112.188V46.3906H133.281ZM156.133 71H149.102V53.4219H142.07V71H135.039V46.3906H156.133V71ZM178.984 53.4219H164.043L165.801 46.3906H186.016V71H164.922V55.1797H171.953V63.9688H178.984V53.4219ZM208.867 46.3906L207.109 53.4219H194.805V55.1797H207.109L205.352 62.2109H194.805V63.9688H208.867L207.109 71H187.773V46.3906H208.867ZM222.93 53.4219H215.898V55.1797H222.93V53.4219ZM229.961 46.3906V62.2109H226.076L231.121 71H223.211L215.898 58.2383V71H208.867V46.3906H229.961ZM231.719 46.3906H238.75V63.9688H245.781V46.3906H252.812V71H231.719V46.3906ZM261.602 63.9688H275.664L273.906 71H254.57V46.3906H261.602V63.9688ZM289.727 53.4219H282.695V63.9688H289.727V53.4219ZM296.758 46.3906V71H275.664V46.3906H296.758Z" fill="black"/>
</svg>
