<svg width="644" height="121" viewBox="0 0 644 121" fill="none" xmlns="http://www.w3.org/2000/svg">
<path d="M636.164 4.18482L581.732 46.4455C579.412 48.2471 579.412 51.7529 581.732 53.5545L636.164 95.8152C637.293 96.6915 636.673 98.5 635.244 98.5H3.00001C2.17158 98.5 1.5 97.8284 1.5 97V3C1.5 2.17157 2.17157 1.5 3 1.5H322H635.244C636.673 1.5 637.293 3.30854 636.164 4.18482Z" fill="white" fill-opacity="0.8" stroke="#FFB800" stroke-width="3"/>
<path d="M636.164 24.1848L581.732 66.4455C579.412 68.2471 579.412 71.7529 581.732 73.5545L636.164 115.815C637.293 116.691 636.673 118.5 635.244 118.5H3.00001C2.17158 118.5 1.5 117.828 1.5 117V23C1.5 22.1716 2.17157 21.5 3 21.5H322H635.244C636.673 21.5 637.293 23.3085 636.164 24.1848Z" fill="black" fill-opacity="0.6" stroke="white" stroke-width="3"/>
<path d="M636.164 14.1848L581.732 56.4455C579.412 58.2471 579.412 61.7529 581.732 63.5545L636.164 105.815C637.293 106.691 636.673 108.5 635.244 108.5H3.00001C2.17158 108.5 1.5 107.828 1.5 107V13C1.5 12.1716 2.17157 11.5 3 11.5H322H635.244C636.673 11.5 637.293 13.3085 636.164 14.1848Z" fill="#E7E7E7" fill-opacity="0.7" stroke="#76FF03" stroke-width="3"/>
<line x1="10" y1="23.5" x2="30" y2="23.5" stroke="#FFB800" stroke-width="3"/>
<line x1="11.5" y1="22" x2="11.5" y2="97" stroke="#FFB800" stroke-width="3"/>
<line x1="10" y1="98.5" x2="30" y2="98.5" stroke="#FFB800" stroke-width="3"/>
<line y1="-1.5" x2="57.6514" y2="-1.5" transform="matrix(0.789881 -0.613261 0.789881 0.613261 570.584 55.3555)" stroke="#FFB800" stroke-width="3"/>
<line x1="557.704" y1="53.5" x2="570.584" y2="53.5" stroke="#FFB800" stroke-width="3"/>
<line x1="557.704" y1="66.5" x2="570.584" y2="66.5" stroke="#FFB800" stroke-width="3"/>
<line y1="-1.5" x2="57.6514" y2="-1.5" transform="matrix(0.789881 0.613261 -0.789881 0.613261 566.72 67)" stroke="#FFB800" stroke-width="3"/>
<mask id="path-11-inside-1_63_681" fill="white">
<path d="M69.1211 71L70.8789 63.9688H82.3047V46.3906H89.3359V71H69.1211ZM114.347 46.3906L112.59 53.4219H100.285V55.1797H112.59V71H91.4959L93.2537 63.9688H105.558V62.2109H93.2537V46.3906H114.347ZM130.57 53.4219H123.539V63.9688H130.57V53.4219ZM137.601 46.3906V71H116.507V46.3906H137.601ZM162.613 71H155.582V53.4219H148.55V71H141.519V46.3906H162.613V71ZM189.784 53.4219H182.753V63.9688H189.784V53.4219ZM196.816 46.3906V71H175.722V46.3906H196.816ZM221.827 46.3906L220.069 53.4219H207.765V55.1797H220.069L218.312 62.2109H207.765V71H200.733V46.3906H221.827ZM254.272 46.3906L252.514 53.4219H246.362V71H239.331V53.4219H233.178V46.3906H254.272ZM256.432 46.3906H263.463V55.1797H270.495V46.3906H277.526V71H270.495V62.2109H263.463V71H256.432V46.3906ZM302.538 46.3906L300.78 53.4219H288.475V55.1797H300.78L299.022 62.2109H288.475V63.9688H302.538L300.78 71H281.444V46.3906H302.538ZM325.791 46.3906L324.033 53.4219H311.729V55.1797H324.033V71H302.94L304.697 63.9688H317.002V62.2109H304.697V46.3906H325.791ZM349.045 46.3906L347.287 53.4219H334.983V55.1797H347.287V71H326.193L327.951 63.9688H340.256V62.2109H327.951V46.3906H349.045ZM365.267 62.2109H358.236V71H351.205V46.3906H372.299V71H365.267V62.2109ZM358.236 55.1797H365.267V53.4219H358.236V55.1797ZM383.248 63.9688H397.31L395.552 71H376.217V46.3906H383.248V63.9688ZM413.533 53.4219H406.502V63.9688H413.533V53.4219ZM420.564 46.3906V71H399.47V46.3906H420.564ZM445.576 71H438.544V53.4219H431.513V71H424.482V46.3906H445.576V71ZM449.493 46.3906H456.525V71H449.493V46.3906ZM481.536 46.3906L479.778 53.4219H467.474V63.9688H481.536L479.778 71H460.443V46.3906H481.536ZM497.759 62.2109H490.728V71H483.696V46.3906H504.79V71H497.759V62.2109ZM490.728 55.1797H497.759V53.4219H490.728V55.1797Z"/>
</mask>
<path d="M69.1211 71L70.8789 63.9688H82.3047V46.3906H89.3359V71H69.1211ZM114.347 46.3906L112.59 53.4219H100.285V55.1797H112.59V71H91.4959L93.2537 63.9688H105.558V62.2109H93.2537V46.3906H114.347ZM130.57 53.4219H123.539V63.9688H130.57V53.4219ZM137.601 46.3906V71H116.507V46.3906H137.601ZM162.613 71H155.582V53.4219H148.55V71H141.519V46.3906H162.613V71ZM189.784 53.4219H182.753V63.9688H189.784V53.4219ZM196.816 46.3906V71H175.722V46.3906H196.816ZM221.827 46.3906L220.069 53.4219H207.765V55.1797H220.069L218.312 62.2109H207.765V71H200.733V46.3906H221.827ZM254.272 46.3906L252.514 53.4219H246.362V71H239.331V53.4219H233.178V46.3906H254.272ZM256.432 46.3906H263.463V55.1797H270.495V46.3906H277.526V71H270.495V62.2109H263.463V71H256.432V46.3906ZM302.538 46.3906L300.78 53.4219H288.475V55.1797H300.78L299.022 62.2109H288.475V63.9688H302.538L300.78 71H281.444V46.3906H302.538ZM325.791 46.3906L324.033 53.4219H311.729V55.1797H324.033V71H302.94L304.697 63.9688H317.002V62.2109H304.697V46.3906H325.791ZM349.045 46.3906L347.287 53.4219H334.983V55.1797H347.287V71H326.193L327.951 63.9688H340.256V62.2109H327.951V46.3906H349.045ZM365.267 62.2109H358.236V71H351.205V46.3906H372.299V71H365.267V62.2109ZM358.236 55.1797H365.267V53.4219H358.236V55.1797ZM383.248 63.9688H397.31L395.552 71H376.217V46.3906H383.248V63.9688ZM413.533 53.4219H406.502V63.9688H413.533V53.4219ZM420.564 46.3906V71H399.47V46.3906H420.564ZM445.576 71H438.544V53.4219H431.513V71H424.482V46.3906H445.576V71ZM449.493 46.3906H456.525V71H449.493V46.3906ZM481.536 46.3906L479.778 53.4219H467.474V63.9688H481.536L479.778 71H460.443V46.3906H481.536ZM497.759 62.2109H490.728V71H483.696V46.3906H504.79V71H497.759V62.2109ZM490.728 55.1797H497.759V53.4219H490.728V55.1797Z" fill="white" fill-opacity="0.85"/>
<path d="M69.1211 71L68.151 70.7575L67.8403 72H69.1211V71ZM70.8789 63.9688V62.9688H70.0981L69.9088 63.7262L70.8789 63.9688ZM82.3047 63.9688V64.9688H83.3047V63.9688H82.3047ZM82.3047 46.3906V45.3906H81.3047V46.3906H82.3047ZM89.3359 46.3906H90.3359V45.3906H89.3359V46.3906ZM89.3359 71V72H90.3359V71H89.3359ZM70.0912 71.2425L71.849 64.2113L69.9088 63.7262L68.151 70.7575L70.0912 71.2425ZM70.8789 64.9688H82.3047V62.9688H70.8789V64.9688ZM83.3047 63.9688V46.3906H81.3047V63.9688H83.3047ZM82.3047 47.3906H89.3359V45.3906H82.3047V47.3906ZM88.3359 46.3906V71H90.3359V46.3906H88.3359ZM89.3359 70H69.1211V72H89.3359V70ZM114.347 46.3906L115.318 46.6332L115.628 45.3906H114.347V46.3906ZM112.59 53.4219V54.4219H113.37L113.56 53.6644L112.59 53.4219ZM100.285 53.4219V52.4219H99.285V53.4219H100.285ZM100.285 55.1797H99.285V56.1797H100.285V55.1797ZM112.59 55.1797H113.59V54.1797H112.59V55.1797ZM112.59 71V72H113.59V71H112.59ZM91.4959 71L90.5258 70.7575L90.2152 72H91.4959V71ZM93.2537 63.9688V62.9688H92.473L92.2836 63.7262L93.2537 63.9688ZM105.558 63.9688V64.9688H106.558V63.9688H105.558ZM105.558 62.2109H106.558V61.2109H105.558V62.2109ZM93.2537 62.2109H92.2537V63.2109H93.2537V62.2109ZM93.2537 46.3906V45.3906H92.2537V46.3906H93.2537ZM113.377 46.1481L111.62 53.1793L113.56 53.6644L115.318 46.6332L113.377 46.1481ZM112.59 52.4219H100.285V54.4219H112.59V52.4219ZM99.285 53.4219V55.1797H101.285V53.4219H99.285ZM100.285 56.1797H112.59V54.1797H100.285V56.1797ZM111.59 55.1797V71H113.59V55.1797H111.59ZM112.59 70H91.4959V72H112.59V70ZM92.4661 71.2425L94.2239 64.2113L92.2836 63.7262L90.5258 70.7575L92.4661 71.2425ZM93.2537 64.9688H105.558V62.9688H93.2537V64.9688ZM106.558 63.9688V62.2109H104.558V63.9688H106.558ZM105.558 61.2109H93.2537V63.2109H105.558V61.2109ZM94.2537 62.2109V46.3906H92.2537V62.2109H94.2537ZM93.2537 47.3906H114.347V45.3906H93.2537V47.3906ZM130.57 53.4219H131.57V52.4219H130.57V53.4219ZM123.539 53.4219V52.4219H122.539V53.4219H123.539ZM123.539 63.9688H122.539V64.9688H123.539V63.9688ZM130.57 63.9688V64.9688H131.57V63.9688H130.57ZM137.601 46.3906H138.601V45.3906H137.601V46.3906ZM137.601 71V72H138.601V71H137.601ZM116.507 71H115.507V72H116.507V71ZM116.507 46.3906V45.3906H115.507V46.3906H116.507ZM130.57 52.4219H123.539V54.4219H130.57V52.4219ZM122.539 53.4219V63.9688H124.539V53.4219H122.539ZM123.539 64.9688H130.57V62.9688H123.539V64.9688ZM131.57 63.9688V53.4219H129.57V63.9688H131.57ZM136.601 46.3906V71H138.601V46.3906H136.601ZM137.601 70H116.507V72H137.601V70ZM117.507 71V46.3906H115.507V71H117.507ZM116.507 47.3906H137.601V45.3906H116.507V47.3906ZM162.613 71V72H163.613V71H162.613ZM155.582 71H154.582V72H155.582V71ZM155.582 53.4219H156.582V52.4219H155.582V53.4219ZM148.55 53.4219V52.4219H147.55V53.4219H148.55ZM148.55 71V72H149.55V71H148.55ZM141.519 71H140.519V72H141.519V71ZM141.519 46.3906V45.3906H140.519V46.3906H141.519ZM162.613 46.3906H163.613V45.3906H162.613V46.3906ZM162.613 70H155.582V72H162.613V70ZM156.582 71V53.4219H154.582V71H156.582ZM155.582 52.4219H148.55V54.4219H155.582V52.4219ZM147.55 53.4219V71H149.55V53.4219H147.55ZM148.55 70H141.519V72H148.55V70ZM142.519 71V46.3906H140.519V71H142.519ZM141.519 47.3906H162.613V45.3906H141.519V47.3906ZM161.613 46.3906V71H163.613V46.3906H161.613ZM189.784 53.4219H190.784V52.4219H189.784V53.4219ZM182.753 53.4219V52.4219H181.753V53.4219H182.753ZM182.753 63.9688H181.753V64.9688H182.753V63.9688ZM189.784 63.9688V64.9688H190.784V63.9688H189.784ZM196.816 46.3906H197.816V45.3906H196.816V46.3906ZM196.816 71V72H197.816V71H196.816ZM175.722 71H174.722V72H175.722V71ZM175.722 46.3906V45.3906H174.722V46.3906H175.722ZM189.784 52.4219H182.753V54.4219H189.784V52.4219ZM181.753 53.4219V63.9688H183.753V53.4219H181.753ZM182.753 64.9688H189.784V62.9688H182.753V64.9688ZM190.784 63.9688V53.4219H188.784V63.9688H190.784ZM195.816 46.3906V71H197.816V46.3906H195.816ZM196.816 70H175.722V72H196.816V70ZM176.722 71V46.3906H174.722V71H176.722ZM175.722 47.3906H196.816V45.3906H175.722V47.3906ZM221.827 46.3906L222.797 46.6332L223.108 45.3906H221.827V46.3906ZM220.069 53.4219V54.4219H220.85L221.04 53.6644L220.069 53.4219ZM207.765 53.4219V52.4219H206.765V53.4219H207.765ZM207.765 55.1797H206.765V56.1797H207.765V55.1797ZM220.069 55.1797L221.04 55.4222L221.35 54.1797H220.069V55.1797ZM218.312 62.2109V63.2109H219.092L219.282 62.4535L218.312 62.2109ZM207.765 62.2109V61.2109H206.765V62.2109H207.765ZM207.765 71V72H208.765V71H207.765ZM200.733 71H199.733V72H200.733V71ZM200.733 46.3906V45.3906H199.733V46.3906H200.733ZM220.857 46.1481L219.099 53.1793L221.04 53.6644L222.797 46.6332L220.857 46.1481ZM220.069 52.4219H207.765V54.4219H220.069V52.4219ZM206.765 53.4219V55.1797H208.765V53.4219H206.765ZM207.765 56.1797H220.069V54.1797H207.765V56.1797ZM219.099 54.9372L217.341 61.9684L219.282 62.4535L221.04 55.4222L219.099 54.9372ZM218.312 61.2109H207.765V63.2109H218.312V61.2109ZM206.765 62.2109V71H208.765V62.2109H206.765ZM207.765 70H200.733V72H207.765V70ZM201.733 71V46.3906H199.733V71H201.733ZM200.733 47.3906H221.827V45.3906H200.733V47.3906ZM254.272 46.3906L255.242 46.6332L255.553 45.3906H254.272V46.3906ZM252.514 53.4219V54.4219H253.295L253.485 53.6644L252.514 53.4219ZM246.362 53.4219V52.4219H245.362V53.4219H246.362ZM246.362 71V72H247.362V71H246.362ZM239.331 71H238.331V72H239.331V71ZM239.331 53.4219H240.331V52.4219H239.331V53.4219ZM233.178 53.4219H232.178V54.4219H233.178V53.4219ZM233.178 46.3906V45.3906H232.178V46.3906H233.178ZM253.302 46.1481L251.544 53.1793L253.485 53.6644L255.242 46.6332L253.302 46.1481ZM252.514 52.4219H246.362V54.4219H252.514V52.4219ZM245.362 53.4219V71H247.362V53.4219H245.362ZM246.362 70H239.331V72H246.362V70ZM240.331 71V53.4219H238.331V71H240.331ZM239.331 52.4219H233.178V54.4219H239.331V52.4219ZM234.178 53.4219V46.3906H232.178V53.4219H234.178ZM233.178 47.3906H254.272V45.3906H233.178V47.3906ZM256.432 46.3906V45.3906H255.432V46.3906H256.432ZM263.463 46.3906H264.463V45.3906H263.463V46.3906ZM263.463 55.1797H262.463V56.1797H263.463V55.1797ZM270.495 55.1797V56.1797H271.495V55.1797H270.495ZM270.495 46.3906V45.3906H269.495V46.3906H270.495ZM277.526 46.3906H278.526V45.3906H277.526V46.3906ZM277.526 71V72H278.526V71H277.526ZM270.495 71H269.495V72H270.495V71ZM270.495 62.2109H271.495V61.2109H270.495V62.2109ZM263.463 62.2109V61.2109H262.463V62.2109H263.463ZM263.463 71V72H264.463V71H263.463ZM256.432 71H255.432V72H256.432V71ZM256.432 47.3906H263.463V45.3906H256.432V47.3906ZM262.463 46.3906V55.1797H264.463V46.3906H262.463ZM263.463 56.1797H270.495V54.1797H263.463V56.1797ZM271.495 55.1797V46.3906H269.495V55.1797H271.495ZM270.495 47.3906H277.526V45.3906H270.495V47.3906ZM276.526 46.3906V71H278.526V46.3906H276.526ZM277.526 70H270.495V72H277.526V70ZM271.495 71V62.2109H269.495V71H271.495ZM270.495 61.2109H263.463V63.2109H270.495V61.2109ZM262.463 62.2109V71H264.463V62.2109H262.463ZM263.463 70H256.432V72H263.463V70ZM257.432 71V46.3906H255.432V71H257.432ZM302.538 46.3906L303.508 46.6332L303.818 45.3906H302.538V46.3906ZM300.78 53.4219V54.4219H301.56L301.75 53.6644L300.78 53.4219ZM288.475 53.4219V52.4219H287.475V53.4219H288.475ZM288.475 55.1797H287.475V56.1797H288.475V55.1797ZM300.78 55.1797L301.75 55.4222L302.06 54.1797H300.78V55.1797ZM299.022 62.2109V63.2109H299.803L299.992 62.4535L299.022 62.2109ZM288.475 62.2109V61.2109H287.475V62.2109H288.475ZM288.475 63.9688H287.475V64.9688H288.475V63.9688ZM302.538 63.9688L303.508 64.2113L303.818 62.9688H302.538V63.9688ZM300.78 71V72H301.56L301.75 71.2425L300.78 71ZM281.444 71H280.444V72H281.444V71ZM281.444 46.3906V45.3906H280.444V46.3906H281.444ZM301.567 46.1481L299.81 53.1793L301.75 53.6644L303.508 46.6332L301.567 46.1481ZM300.78 52.4219H288.475V54.4219H300.78V52.4219ZM287.475 53.4219V55.1797H289.475V53.4219H287.475ZM288.475 56.1797H300.78V54.1797H288.475V56.1797ZM299.81 54.9372L298.052 61.9684L299.992 62.4535L301.75 55.4222L299.81 54.9372ZM299.022 61.2109H288.475V63.2109H299.022V61.2109ZM287.475 62.2109V63.9688H289.475V62.2109H287.475ZM288.475 64.9688H302.538V62.9688H288.475V64.9688ZM301.567 63.7262L299.81 70.7575L301.75 71.2425L303.508 64.2113L301.567 63.7262ZM300.78 70H281.444V72H300.78V70ZM282.444 71V46.3906H280.444V71H282.444ZM281.444 47.3906H302.538V45.3906H281.444V47.3906ZM325.791 46.3906L326.761 46.6332L327.072 45.3906H325.791V46.3906ZM324.033 53.4219V54.4219H324.814L325.004 53.6644L324.033 53.4219ZM311.729 53.4219V52.4219H310.729V53.4219H311.729ZM311.729 55.1797H310.729V56.1797H311.729V55.1797ZM324.033 55.1797H325.033V54.1797H324.033V55.1797ZM324.033 71V72H325.033V71H324.033ZM302.94 71L301.97 70.7575L301.659 72H302.94V71ZM304.697 63.9688V62.9688H303.917L303.727 63.7262L304.697 63.9688ZM317.002 63.9688V64.9688H318.002V63.9688H317.002ZM317.002 62.2109H318.002V61.2109H317.002V62.2109ZM304.697 62.2109H303.697V63.2109H304.697V62.2109ZM304.697 46.3906V45.3906H303.697V46.3906H304.697ZM324.821 46.1481L323.063 53.1793L325.004 53.6644L326.761 46.6332L324.821 46.1481ZM324.033 52.4219H311.729V54.4219H324.033V52.4219ZM310.729 53.4219V55.1797H312.729V53.4219H310.729ZM311.729 56.1797H324.033V54.1797H311.729V56.1797ZM323.033 55.1797V71H325.033V55.1797H323.033ZM324.033 70H302.94V72H324.033V70ZM303.91 71.2425L305.668 64.2113L303.727 63.7262L301.97 70.7575L303.91 71.2425ZM304.697 64.9688H317.002V62.9688H304.697V64.9688ZM318.002 63.9688V62.2109H316.002V63.9688H318.002ZM317.002 61.2109H304.697V63.2109H317.002V61.2109ZM305.697 62.2109V46.3906H303.697V62.2109H305.697ZM304.697 47.3906H325.791V45.3906H304.697V47.3906ZM349.045 46.3906L350.015 46.6332L350.326 45.3906H349.045V46.3906ZM347.287 53.4219V54.4219H348.068L348.257 53.6644L347.287 53.4219ZM334.983 53.4219V52.4219H333.983V53.4219H334.983ZM334.983 55.1797H333.983V56.1797H334.983V55.1797ZM347.287 55.1797H348.287V54.1797H347.287V55.1797ZM347.287 71V72H348.287V71H347.287ZM326.193 71L325.223 70.7575L324.913 72H326.193V71ZM327.951 63.9688V62.9688H327.17L326.981 63.7262L327.951 63.9688ZM340.256 63.9688V64.9688H341.256V63.9688H340.256ZM340.256 62.2109H341.256V61.2109H340.256V62.2109ZM327.951 62.2109H326.951V63.2109H327.951V62.2109ZM327.951 46.3906V45.3906H326.951V46.3906H327.951ZM348.075 46.1481L346.317 53.1793L348.257 53.6644L350.015 46.6332L348.075 46.1481ZM347.287 52.4219H334.983V54.4219H347.287V52.4219ZM333.983 53.4219V55.1797H335.983V53.4219H333.983ZM334.983 56.1797H347.287V54.1797H334.983V56.1797ZM346.287 55.1797V71H348.287V55.1797H346.287ZM347.287 70H326.193V72H347.287V70ZM327.164 71.2425L328.921 64.2113L326.981 63.7262L325.223 70.7575L327.164 71.2425ZM327.951 64.9688H340.256V62.9688H327.951V64.9688ZM341.256 63.9688V62.2109H339.256V63.9688H341.256ZM340.256 61.2109H327.951V63.2109H340.256V61.2109ZM328.951 62.2109V46.3906H326.951V62.2109H328.951ZM327.951 47.3906H349.045V45.3906H327.951V47.3906ZM365.267 62.2109H366.267V61.2109H365.267V62.2109ZM358.236 62.2109V61.2109H357.236V62.2109H358.236ZM358.236 71V72H359.236V71H358.236ZM351.205 71H350.205V72H351.205V71ZM351.205 46.3906V45.3906H350.205V46.3906H351.205ZM372.299 46.3906H373.299V45.3906H372.299V46.3906ZM372.299 71V72H373.299V71H372.299ZM365.267 71H364.267V72H365.267V71ZM358.236 55.1797H357.236V56.1797H358.236V55.1797ZM365.267 55.1797V56.1797H366.267V55.1797H365.267ZM365.267 53.4219H366.267V52.4219H365.267V53.4219ZM358.236 53.4219V52.4219H357.236V53.4219H358.236ZM365.267 61.2109H358.236V63.2109H365.267V61.2109ZM357.236 62.2109V71H359.236V62.2109H357.236ZM358.236 70H351.205V72H358.236V70ZM352.205 71V46.3906H350.205V71H352.205ZM351.205 47.3906H372.299V45.3906H351.205V47.3906ZM371.299 46.3906V71H373.299V46.3906H371.299ZM372.299 70H365.267V72H372.299V70ZM366.267 71V62.2109H364.267V71H366.267ZM358.236 56.1797H365.267V54.1797H358.236V56.1797ZM366.267 55.1797V53.4219H364.267V55.1797H366.267ZM365.267 52.4219H358.236V54.4219H365.267V52.4219ZM357.236 53.4219V55.1797H359.236V53.4219H357.236ZM383.248 63.9688H382.248V64.9688H383.248V63.9688ZM397.31 63.9688L398.28 64.2113L398.591 62.9688H397.31V63.9688ZM395.552 71V72H396.333L396.523 71.2425L395.552 71ZM376.217 71H375.217V72H376.217V71ZM376.217 46.3906V45.3906H375.217V46.3906H376.217ZM383.248 46.3906H384.248V45.3906H383.248V46.3906ZM383.248 64.9688H397.31V62.9688H383.248V64.9688ZM396.34 63.7262L394.582 70.7575L396.523 71.2425L398.28 64.2113L396.34 63.7262ZM395.552 70H376.217V72H395.552V70ZM377.217 71V46.3906H375.217V71H377.217ZM376.217 47.3906H383.248V45.3906H376.217V47.3906ZM382.248 46.3906V63.9688H384.248V46.3906H382.248ZM413.533 53.4219H414.533V52.4219H413.533V53.4219ZM406.502 53.4219V52.4219H405.502V53.4219H406.502ZM406.502 63.9688H405.502V64.9688H406.502V63.9688ZM413.533 63.9688V64.9688H414.533V63.9688H413.533ZM420.564 46.3906H421.564V45.3906H420.564V46.3906ZM420.564 71V72H421.564V71H420.564ZM399.47 71H398.47V72H399.47V71ZM399.47 46.3906V45.3906H398.47V46.3906H399.47ZM413.533 52.4219H406.502V54.4219H413.533V52.4219ZM405.502 53.4219V63.9688H407.502V53.4219H405.502ZM406.502 64.9688H413.533V62.9688H406.502V64.9688ZM414.533 63.9688V53.4219H412.533V63.9688H414.533ZM419.564 46.3906V71H421.564V46.3906H419.564ZM420.564 70H399.47V72H420.564V70ZM400.47 71V46.3906H398.47V71H400.47ZM399.47 47.3906H420.564V45.3906H399.47V47.3906ZM445.576 71V72H446.576V71H445.576ZM438.544 71H437.544V72H438.544V71ZM438.544 53.4219H439.544V52.4219H438.544V53.4219ZM431.513 53.4219V52.4219H430.513V53.4219H431.513ZM431.513 71V72H432.513V71H431.513ZM424.482 71H423.482V72H424.482V71ZM424.482 46.3906V45.3906H423.482V46.3906H424.482ZM445.576 46.3906H446.576V45.3906H445.576V46.3906ZM445.576 70H438.544V72H445.576V70ZM439.544 71V53.4219H437.544V71H439.544ZM438.544 52.4219H431.513V54.4219H438.544V52.4219ZM430.513 53.4219V71H432.513V53.4219H430.513ZM431.513 70H424.482V72H431.513V70ZM425.482 71V46.3906H423.482V71H425.482ZM424.482 47.3906H445.576V45.3906H424.482V47.3906ZM444.576 46.3906V71H446.576V46.3906H444.576ZM449.493 46.3906V45.3906H448.493V46.3906H449.493ZM456.525 46.3906H457.525V45.3906H456.525V46.3906ZM456.525 71V72H457.525V71H456.525ZM449.493 71H448.493V72H449.493V71ZM449.493 47.3906H456.525V45.3906H449.493V47.3906ZM455.525 46.3906V71H457.525V46.3906H455.525ZM456.525 70H449.493V72H456.525V70ZM450.493 71V46.3906H448.493V71H450.493ZM481.536 46.3906L482.506 46.6332L482.817 45.3906H481.536V46.3906ZM479.778 53.4219V54.4219H480.559L480.749 53.6644L479.778 53.4219ZM467.474 53.4219V52.4219H466.474V53.4219H467.474ZM467.474 63.9688H466.474V64.9688H467.474V63.9688ZM481.536 63.9688L482.506 64.2113L482.817 62.9688H481.536V63.9688ZM479.778 71V72H480.559L480.749 71.2425L479.778 71ZM460.443 71H459.443V72H460.443V71ZM460.443 46.3906V45.3906H459.443V46.3906H460.443ZM480.566 46.1481L478.808 53.1793L480.749 53.6644L482.506 46.6332L480.566 46.1481ZM479.778 52.4219H467.474V54.4219H479.778V52.4219ZM466.474 53.4219V63.9688H468.474V53.4219H466.474ZM467.474 64.9688H481.536V62.9688H467.474V64.9688ZM480.566 63.7262L478.808 70.7575L480.749 71.2425L482.506 64.2113L480.566 63.7262ZM479.778 70H460.443V72H479.778V70ZM461.443 71V46.3906H459.443V71H461.443ZM460.443 47.3906H481.536V45.3906H460.443V47.3906ZM497.759 62.2109H498.759V61.2109H497.759V62.2109ZM490.728 62.2109V61.2109H489.728V62.2109H490.728ZM490.728 71V72H491.728V71H490.728ZM483.696 71H482.696V72H483.696V71ZM483.696 46.3906V45.3906H482.696V46.3906H483.696ZM504.79 46.3906H505.79V45.3906H504.79V46.3906ZM504.79 71V72H505.79V71H504.79ZM497.759 71H496.759V72H497.759V71ZM490.728 55.1797H489.728V56.1797H490.728V55.1797ZM497.759 55.1797V56.1797H498.759V55.1797H497.759ZM497.759 53.4219H498.759V52.4219H497.759V53.4219ZM490.728 53.4219V52.4219H489.728V53.4219H490.728ZM497.759 61.2109H490.728V63.2109H497.759V61.2109ZM489.728 62.2109V71H491.728V62.2109H489.728ZM490.728 70H483.696V72H490.728V70ZM484.696 71V46.3906H482.696V71H484.696ZM483.696 47.3906H504.79V45.3906H483.696V47.3906ZM503.79 46.3906V71H505.79V46.3906H503.79ZM504.79 70H497.759V72H504.79V70ZM498.759 71V62.2109H496.759V71H498.759ZM490.728 56.1797H497.759V54.1797H490.728V56.1797ZM498.759 55.1797V53.4219H496.759V55.1797H498.759ZM497.759 52.4219H490.728V54.4219H497.759V52.4219ZM489.728 53.4219V55.1797H491.728V53.4219H489.728Z" fill="#34FF00" mask="url(#path-11-inside-1_63_681)"/>
</svg>
