<svg width="430" height="121" viewBox="0 0 430 121" fill="none" xmlns="http://www.w3.org/2000/svg">
<path d="M424.221 3.65204L387.166 46.7398C385.554 48.6143 385.554 51.3857 387.166 53.2602L424.221 96.348C424.779 96.9963 424.318 98 423.463 98H2.99999C2.44771 98 2 97.5523 2 97V3C2 2.44772 2.44771 2 3 2H215H423.463C424.318 2 424.779 3.00369 424.221 3.65204Z" fill="white" stroke="#FFB800" stroke-width="4"/>
<path d="M424.221 23.652L387.166 66.7398C385.554 68.6143 385.554 71.3857 387.166 73.2602L424.221 116.348C424.779 116.996 424.318 118 423.463 118H2.99999C2.44771 118 2 117.552 2 117V23C2 22.4477 2.44771 22 3 22H215H423.463C424.318 22 424.779 23.0037 424.221 23.652Z" fill="black" stroke="white" stroke-width="4"/>
<path d="M424.221 13.652L387.166 56.7398C385.554 58.6143 385.554 61.3857 387.166 63.2602L424.221 106.348C424.779 106.996 424.318 108 423.463 108H2.99999C2.44771 108 2 107.552 2 107V13C2 12.4477 2.44771 12 3 12H215H423.463C424.318 12 424.779 13.0037 424.221 13.652Z" fill="#E7E7E7" stroke="#76FF03" stroke-width="4"/>
<line x1="10" y1="23" x2="30" y2="23" stroke="#FFB800" stroke-width="4"/>
<line x1="12" y1="22" x2="12" y2="97" stroke="#FFB800" stroke-width="4"/>
<line x1="10" y1="98" x2="30" y2="98" stroke="#FFB800" stroke-width="4"/>
<line y1="-2" x2="46.6315" y2="-2" transform="matrix(0.652039 -0.758185 0.652039 0.758185 380.98 55.3555)" stroke="#FFB800" stroke-width="4"/>
<line x1="372.38" y1="53" x2="380.98" y2="53" stroke="#FFB800" stroke-width="4"/>
<line x1="372.38" y1="66" x2="380.98" y2="66" stroke="#FFB800" stroke-width="4"/>
<line y1="-2" x2="46.6315" y2="-2" transform="matrix(0.652039 0.758185 -0.652039 0.758185 378.4 67)" stroke="#FFB800" stroke-width="4"/>
<path d="M69.1211 71L70.8789 63.9688H82.3047V46.3906H89.3359V71H69.1211ZM112.188 46.3906L110.43 53.4219H98.125V55.1797H110.43V71H89.3359L91.0938 63.9688H103.398V62.2109H91.0938V46.3906H112.188ZM126.25 53.4219H119.219V63.9688H126.25V53.4219ZM133.281 46.3906V71H112.188V46.3906H133.281ZM156.133 71H149.102V53.4219H142.07V71H135.039V46.3906H156.133V71ZM186.016 46.3906L184.258 53.4219H171.953V55.1797H184.258V71H163.164L164.922 63.9688H177.227V62.2109H164.922V46.3906H186.016ZM207.109 46.3906L205.352 53.4219H199.199V71H192.168V53.4219H186.016V46.3906H207.109ZM221.172 62.2109H214.141V71H207.109V46.3906H228.203V71H221.172V62.2109ZM214.141 55.1797H221.172V53.4219H214.141V55.1797ZM251.055 46.3906L249.297 53.4219H243.145V71H236.113V53.4219H229.961V46.3906H251.055ZM251.055 46.3906H258.086V55.1797H265.117V46.3906H272.148V71H265.117V62.2109H258.086V71H251.055V46.3906ZM287.969 62.2109H280.938V71H273.906V46.3906H295V71H287.969V62.2109ZM280.938 55.1797H287.969V53.4219H280.938V55.1797ZM321.367 71H314.336V53.4219H312.578V71H305.547V53.4219H303.789V71H296.758V46.3906H321.367V71Z" fill="black"/>
</svg>
