<svg width="417" height="121" viewBox="0 0 417 121" fill="none" xmlns="http://www.w3.org/2000/svg">
<path d="M411.744 3.96073L375.751 47.1178C374.358 48.7871 374.358 51.2129 375.751 52.8822L411.744 96.0393C412.558 97.0162 411.864 98.5 410.592 98.5H2.99999C2.17157 98.5 1.5 97.8284 1.5 97V3C1.5 2.17157 2.17157 1.5 3 1.5H208.5H410.592C411.864 1.5 412.558 2.98384 411.744 3.96073Z" fill="white" fill-opacity="0.8" stroke="#FFB800" stroke-width="3"/>
<path d="M411.744 23.9607L375.751 67.1178C374.358 68.7871 374.358 71.2129 375.751 72.8822L411.744 116.039C412.558 117.016 411.864 118.5 410.592 118.5H2.99999C2.17157 118.5 1.5 117.828 1.5 117V23C1.5 22.1716 2.17157 21.5 3 21.5H208.5H410.592C411.864 21.5 412.558 22.9838 411.744 23.9607Z" fill="black" fill-opacity="0.6" stroke="white" stroke-width="3"/>
<path d="M411.744 13.9607L375.751 57.1178C374.358 58.7871 374.358 61.2129 375.751 62.8822L411.744 106.039C412.558 107.016 411.864 108.5 410.592 108.5H2.99999C2.17157 108.5 1.5 107.828 1.5 107V13C1.5 12.1716 2.17157 11.5 3 11.5H208.5H410.592C411.864 11.5 412.558 12.9838 411.744 13.9607Z" fill="#E7E7E7" fill-opacity="0.7" stroke="#76FF03" stroke-width="3"/>
<line x1="10" y1="23.5" x2="30" y2="23.5" stroke="#FFB800" stroke-width="3"/>
<line x1="11.5" y1="22" x2="11.5" y2="97" stroke="#FFB800" stroke-width="3"/>
<line x1="10" y1="98.5" x2="30" y2="98.5" stroke="#FFB800" stroke-width="3"/>
<line y1="-1.5" x2="46.0374" y2="-1.5" transform="matrix(0.640487 -0.767969 0.640487 0.767969 369.462 55.3553)" stroke="#FFB800" stroke-width="3"/>
<line x1="361.122" y1="53.5" x2="369.462" y2="53.5" stroke="#FFB800" stroke-width="3"/>
<line x1="361.122" y1="66.5" x2="369.462" y2="66.5" stroke="#FFB800" stroke-width="3"/>
<line y1="-1.5" x2="46.0374" y2="-1.5" transform="matrix(0.640486 0.76797 -0.640486 0.76797 366.96 67)" stroke="#FFB800" stroke-width="3"/>
<mask id="path-11-inside-1_63_465" fill="white">
<path d="M69.1211 71L70.8789 63.9688H82.3047V46.3906H89.3359V71H69.1211ZM114.347 46.3906L112.59 53.4219H100.285V55.1797H112.59V71H91.4959L93.2537 63.9688H105.558V62.2109H93.2537V46.3906H114.347ZM130.57 53.4219H123.539V63.9688H130.57V53.4219ZM137.601 46.3906V71H116.507V46.3906H137.601ZM162.613 71H155.582V53.4219H148.55V71H141.519V46.3906H162.613V71ZM182.753 53.4219V58.8184L185.548 53.4219H182.753ZM182.753 63.9688H189.784V62.2109H182.753V63.9688ZM175.722 71V46.3906H197.097L192.544 55.1797H196.816V71H175.722ZM214.796 53.4219H207.765V63.9688H214.796V53.4219ZM221.827 46.3906V71H200.733V46.3906H221.827ZM225.745 46.3906H232.776V63.9688H239.807V46.3906H246.839V71H225.745V46.3906ZM264.819 53.4219H257.788V55.1797H264.819V53.4219ZM271.85 46.3906V62.2109H267.966L273.01 71H265.1L257.788 58.2383V71H250.757V46.3906H271.85ZM296.862 71H289.831V53.4219H282.799V71H275.768V46.3906H296.862V71ZM321.873 46.3906L320.116 53.4219H307.811V55.1797H320.116L318.358 62.2109H307.811V63.9688H321.873L320.116 71H300.78V46.3906H321.873Z"/>
</mask>
<path d="M69.1211 71L70.8789 63.9688H82.3047V46.3906H89.3359V71H69.1211ZM114.347 46.3906L112.59 53.4219H100.285V55.1797H112.59V71H91.4959L93.2537 63.9688H105.558V62.2109H93.2537V46.3906H114.347ZM130.57 53.4219H123.539V63.9688H130.57V53.4219ZM137.601 46.3906V71H116.507V46.3906H137.601ZM162.613 71H155.582V53.4219H148.55V71H141.519V46.3906H162.613V71ZM182.753 53.4219V58.8184L185.548 53.4219H182.753ZM182.753 63.9688H189.784V62.2109H182.753V63.9688ZM175.722 71V46.3906H197.097L192.544 55.1797H196.816V71H175.722ZM214.796 53.4219H207.765V63.9688H214.796V53.4219ZM221.827 46.3906V71H200.733V46.3906H221.827ZM225.745 46.3906H232.776V63.9688H239.807V46.3906H246.839V71H225.745V46.3906ZM264.819 53.4219H257.788V55.1797H264.819V53.4219ZM271.85 46.3906V62.2109H267.966L273.01 71H265.1L257.788 58.2383V71H250.757V46.3906H271.85ZM296.862 71H289.831V53.4219H282.799V71H275.768V46.3906H296.862V71ZM321.873 46.3906L320.116 53.4219H307.811V55.1797H320.116L318.358 62.2109H307.811V63.9688H321.873L320.116 71H300.78V46.3906H321.873Z" fill="white" fill-opacity="0.85"/>
<path d="M69.1211 71L68.151 70.7575L67.8403 72H69.1211V71ZM70.8789 63.9688V62.9688H70.0981L69.9088 63.7262L70.8789 63.9688ZM82.3047 63.9688V64.9688H83.3047V63.9688H82.3047ZM82.3047 46.3906V45.3906H81.3047V46.3906H82.3047ZM89.3359 46.3906H90.3359V45.3906H89.3359V46.3906ZM89.3359 71V72H90.3359V71H89.3359ZM70.0912 71.2425L71.849 64.2113L69.9088 63.7262L68.151 70.7575L70.0912 71.2425ZM70.8789 64.9688H82.3047V62.9688H70.8789V64.9688ZM83.3047 63.9688V46.3906H81.3047V63.9688H83.3047ZM82.3047 47.3906H89.3359V45.3906H82.3047V47.3906ZM88.3359 46.3906V71H90.3359V46.3906H88.3359ZM89.3359 70H69.1211V72H89.3359V70ZM114.347 46.3906L115.318 46.6332L115.628 45.3906H114.347V46.3906ZM112.59 53.4219V54.4219H113.37L113.56 53.6644L112.59 53.4219ZM100.285 53.4219V52.4219H99.285V53.4219H100.285ZM100.285 55.1797H99.285V56.1797H100.285V55.1797ZM112.59 55.1797H113.59V54.1797H112.59V55.1797ZM112.59 71V72H113.59V71H112.59ZM91.4959 71L90.5258 70.7575L90.2152 72H91.4959V71ZM93.2537 63.9688V62.9688H92.473L92.2836 63.7262L93.2537 63.9688ZM105.558 63.9688V64.9688H106.558V63.9688H105.558ZM105.558 62.2109H106.558V61.2109H105.558V62.2109ZM93.2537 62.2109H92.2537V63.2109H93.2537V62.2109ZM93.2537 46.3906V45.3906H92.2537V46.3906H93.2537ZM113.377 46.1481L111.62 53.1793L113.56 53.6644L115.318 46.6332L113.377 46.1481ZM112.59 52.4219H100.285V54.4219H112.59V52.4219ZM99.285 53.4219V55.1797H101.285V53.4219H99.285ZM100.285 56.1797H112.59V54.1797H100.285V56.1797ZM111.59 55.1797V71H113.59V55.1797H111.59ZM112.59 70H91.4959V72H112.59V70ZM92.4661 71.2425L94.2239 64.2113L92.2836 63.7262L90.5258 70.7575L92.4661 71.2425ZM93.2537 64.9688H105.558V62.9688H93.2537V64.9688ZM106.558 63.9688V62.2109H104.558V63.9688H106.558ZM105.558 61.2109H93.2537V63.2109H105.558V61.2109ZM94.2537 62.2109V46.3906H92.2537V62.2109H94.2537ZM93.2537 47.3906H114.347V45.3906H93.2537V47.3906ZM130.57 53.4219H131.57V52.4219H130.57V53.4219ZM123.539 53.4219V52.4219H122.539V53.4219H123.539ZM123.539 63.9688H122.539V64.9688H123.539V63.9688ZM130.57 63.9688V64.9688H131.57V63.9688H130.57ZM137.601 46.3906H138.601V45.3906H137.601V46.3906ZM137.601 71V72H138.601V71H137.601ZM116.507 71H115.507V72H116.507V71ZM116.507 46.3906V45.3906H115.507V46.3906H116.507ZM130.57 52.4219H123.539V54.4219H130.57V52.4219ZM122.539 53.4219V63.9688H124.539V53.4219H122.539ZM123.539 64.9688H130.57V62.9688H123.539V64.9688ZM131.57 63.9688V53.4219H129.57V63.9688H131.57ZM136.601 46.3906V71H138.601V46.3906H136.601ZM137.601 70H116.507V72H137.601V70ZM117.507 71V46.3906H115.507V71H117.507ZM116.507 47.3906H137.601V45.3906H116.507V47.3906ZM162.613 71V72H163.613V71H162.613ZM155.582 71H154.582V72H155.582V71ZM155.582 53.4219H156.582V52.4219H155.582V53.4219ZM148.55 53.4219V52.4219H147.55V53.4219H148.55ZM148.55 71V72H149.55V71H148.55ZM141.519 71H140.519V72H141.519V71ZM141.519 46.3906V45.3906H140.519V46.3906H141.519ZM162.613 46.3906H163.613V45.3906H162.613V46.3906ZM162.613 70H155.582V72H162.613V70ZM156.582 71V53.4219H154.582V71H156.582ZM155.582 52.4219H148.55V54.4219H155.582V52.4219ZM147.55 53.4219V71H149.55V53.4219H147.55ZM148.55 70H141.519V72H148.55V70ZM142.519 71V46.3906H140.519V71H142.519ZM141.519 47.3906H162.613V45.3906H141.519V47.3906ZM161.613 46.3906V71H163.613V46.3906H161.613ZM182.753 53.4219V52.4219H181.753V53.4219H182.753ZM182.753 58.8184H181.753L183.641 59.2783L182.753 58.8184ZM185.548 53.4219L186.436 53.8818L187.192 52.4219H185.548V53.4219ZM182.753 63.9688H181.753V64.9688H182.753V63.9688ZM189.784 63.9688V64.9688H190.784V63.9688H189.784ZM189.784 62.2109H190.784V61.2109H189.784V62.2109ZM182.753 62.2109V61.2109H181.753V62.2109H182.753ZM175.722 71H174.722V72H175.722V71ZM175.722 46.3906V45.3906H174.722V46.3906H175.722ZM197.097 46.3906L197.985 46.8506L198.741 45.3906H197.097V46.3906ZM192.544 55.1797L191.656 54.7197L190.9 56.1797H192.544V55.1797ZM196.816 55.1797H197.816V54.1797H196.816V55.1797ZM196.816 71V72H197.816V71H196.816ZM181.753 53.4219V58.8184H183.753V53.4219H181.753ZM183.641 59.2783L186.436 53.8818L184.66 52.962L181.865 58.3585L183.641 59.2783ZM185.548 52.4219H182.753V54.4219H185.548V52.4219ZM182.753 64.9688H189.784V62.9688H182.753V64.9688ZM190.784 63.9688V62.2109H188.784V63.9688H190.784ZM189.784 61.2109H182.753V63.2109H189.784V61.2109ZM181.753 62.2109V63.9688H183.753V62.2109H181.753ZM176.722 71V46.3906H174.722V71H176.722ZM175.722 47.3906H197.097V45.3906H175.722V47.3906ZM196.209 45.9307L191.656 54.7197L193.432 55.6396L197.985 46.8506L196.209 45.9307ZM192.544 56.1797H196.816V54.1797H192.544V56.1797ZM195.816 55.1797V71H197.816V55.1797H195.816ZM196.816 70H175.722V72H196.816V70ZM214.796 53.4219H215.796V52.4219H214.796V53.4219ZM207.765 53.4219V52.4219H206.765V53.4219H207.765ZM207.765 63.9688H206.765V64.9688H207.765V63.9688ZM214.796 63.9688V64.9688H215.796V63.9688H214.796ZM221.827 46.3906H222.827V45.3906H221.827V46.3906ZM221.827 71V72H222.827V71H221.827ZM200.733 71H199.733V72H200.733V71ZM200.733 46.3906V45.3906H199.733V46.3906H200.733ZM214.796 52.4219H207.765V54.4219H214.796V52.4219ZM206.765 53.4219V63.9688H208.765V53.4219H206.765ZM207.765 64.9688H214.796V62.9688H207.765V64.9688ZM215.796 63.9688V53.4219H213.796V63.9688H215.796ZM220.827 46.3906V71H222.827V46.3906H220.827ZM221.827 70H200.733V72H221.827V70ZM201.733 71V46.3906H199.733V71H201.733ZM200.733 47.3906H221.827V45.3906H200.733V47.3906ZM225.745 46.3906V45.3906H224.745V46.3906H225.745ZM232.776 46.3906H233.776V45.3906H232.776V46.3906ZM232.776 63.9688H231.776V64.9688H232.776V63.9688ZM239.807 63.9688V64.9688H240.807V63.9688H239.807ZM239.807 46.3906V45.3906H238.807V46.3906H239.807ZM246.839 46.3906H247.839V45.3906H246.839V46.3906ZM246.839 71V72H247.839V71H246.839ZM225.745 71H224.745V72H225.745V71ZM225.745 47.3906H232.776V45.3906H225.745V47.3906ZM231.776 46.3906V63.9688H233.776V46.3906H231.776ZM232.776 64.9688H239.807V62.9688H232.776V64.9688ZM240.807 63.9688V46.3906H238.807V63.9688H240.807ZM239.807 47.3906H246.839V45.3906H239.807V47.3906ZM245.839 46.3906V71H247.839V46.3906H245.839ZM246.839 70H225.745V72H246.839V70ZM226.745 71V46.3906H224.745V71H226.745ZM264.819 53.4219H265.819V52.4219H264.819V53.4219ZM257.788 53.4219V52.4219H256.788V53.4219H257.788ZM257.788 55.1797H256.788V56.1797H257.788V55.1797ZM264.819 55.1797V56.1797H265.819V55.1797H264.819ZM271.85 46.3906H272.85V45.3906H271.85V46.3906ZM271.85 62.2109V63.2109H272.85V62.2109H271.85ZM267.966 62.2109V61.2109H266.239L267.098 62.7088L267.966 62.2109ZM273.01 71V72H274.737L273.878 70.5022L273.01 71ZM265.1 71L264.233 71.4972L264.521 72H265.1V71ZM257.788 58.2383L258.655 57.7411L256.788 54.4817V58.2383H257.788ZM257.788 71V72H258.788V71H257.788ZM250.757 71H249.757V72H250.757V71ZM250.757 46.3906V45.3906H249.757V46.3906H250.757ZM264.819 52.4219H257.788V54.4219H264.819V52.4219ZM256.788 53.4219V55.1797H258.788V53.4219H256.788ZM257.788 56.1797H264.819V54.1797H257.788V56.1797ZM265.819 55.1797V53.4219H263.819V55.1797H265.819ZM270.85 46.3906V62.2109H272.85V46.3906H270.85ZM271.85 61.2109H267.966V63.2109H271.85V61.2109ZM267.098 62.7088L272.143 71.4978L273.878 70.5022L268.833 61.7131L267.098 62.7088ZM273.01 70H265.1V72H273.01V70ZM265.968 70.5028L258.655 57.7411L256.92 58.7354L264.233 71.4972L265.968 70.5028ZM256.788 58.2383V71H258.788V58.2383H256.788ZM257.788 70H250.757V72H257.788V70ZM251.757 71V46.3906H249.757V71H251.757ZM250.757 47.3906H271.85V45.3906H250.757V47.3906ZM296.862 71V72H297.862V71H296.862ZM289.831 71H288.831V72H289.831V71ZM289.831 53.4219H290.831V52.4219H289.831V53.4219ZM282.799 53.4219V52.4219H281.799V53.4219H282.799ZM282.799 71V72H283.799V71H282.799ZM275.768 71H274.768V72H275.768V71ZM275.768 46.3906V45.3906H274.768V46.3906H275.768ZM296.862 46.3906H297.862V45.3906H296.862V46.3906ZM296.862 70H289.831V72H296.862V70ZM290.831 71V53.4219H288.831V71H290.831ZM289.831 52.4219H282.799V54.4219H289.831V52.4219ZM281.799 53.4219V71H283.799V53.4219H281.799ZM282.799 70H275.768V72H282.799V70ZM276.768 71V46.3906H274.768V71H276.768ZM275.768 47.3906H296.862V45.3906H275.768V47.3906ZM295.862 46.3906V71H297.862V46.3906H295.862ZM321.873 46.3906L322.844 46.6332L323.154 45.3906H321.873V46.3906ZM320.116 53.4219V54.4219H320.896L321.086 53.6644L320.116 53.4219ZM307.811 53.4219V52.4219H306.811V53.4219H307.811ZM307.811 55.1797H306.811V56.1797H307.811V55.1797ZM320.116 55.1797L321.086 55.4222L321.396 54.1797H320.116V55.1797ZM318.358 62.2109V63.2109H319.139L319.328 62.4535L318.358 62.2109ZM307.811 62.2109V61.2109H306.811V62.2109H307.811ZM307.811 63.9688H306.811V64.9688H307.811V63.9688ZM321.873 63.9688L322.844 64.2113L323.154 62.9688H321.873V63.9688ZM320.116 71V72H320.896L321.086 71.2425L320.116 71ZM300.78 71H299.78V72H300.78V71ZM300.78 46.3906V45.3906H299.78V46.3906H300.78ZM320.903 46.1481L319.145 53.1793L321.086 53.6644L322.844 46.6332L320.903 46.1481ZM320.116 52.4219H307.811V54.4219H320.116V52.4219ZM306.811 53.4219V55.1797H308.811V53.4219H306.811ZM307.811 56.1797H320.116V54.1797H307.811V56.1797ZM319.145 54.9372L317.388 61.9684L319.328 62.4535L321.086 55.4222L319.145 54.9372ZM318.358 61.2109H307.811V63.2109H318.358V61.2109ZM306.811 62.2109V63.9688H308.811V62.2109H306.811ZM307.811 64.9688H321.873V62.9688H307.811V64.9688ZM320.903 63.7262L319.145 70.7575L321.086 71.2425L322.844 64.2113L320.903 63.7262ZM320.116 70H300.78V72H320.116V70ZM301.78 71V46.3906H299.78V71H301.78ZM300.78 47.3906H321.873V45.3906H300.78V47.3906Z" fill="#34FF00" mask="url(#path-11-inside-1_63_465)"/>
</svg>
