<svg width="364" height="121" viewBox="0 0 364 121" fill="none" xmlns="http://www.w3.org/2000/svg">
<path d="M358.914 3.58856L327.268 47.0572C325.992 48.8113 325.992 51.1887 327.268 52.9428L358.914 96.4114C359.395 97.0724 358.923 98 358.105 98H3.00001C2.44772 98 2 97.5523 2 97V3C2 2.44772 2.44771 2 3 2H182H358.105C358.923 2 359.395 2.92764 358.914 3.58856Z" fill="white" stroke="#FFB800" stroke-width="4"/>
<path d="M358.914 23.5886L327.268 67.0572C325.992 68.8113 325.992 71.1887 327.268 72.9428L358.914 116.411C359.395 117.072 358.923 118 358.105 118H3.00001C2.44772 118 2 117.552 2 117V23C2 22.4477 2.44771 22 3 22H182H358.105C358.923 22 359.395 22.9276 358.914 23.5886Z" fill="black" stroke="white" stroke-width="4"/>
<path d="M358.914 13.5886L327.268 57.0572C325.992 58.8113 325.992 61.1887 327.268 62.9428L358.914 106.411C359.395 107.072 358.923 108 358.105 108H3.00001C2.44772 108 2 107.552 2 107V13C2 12.4477 2.44771 12 3 12H182H358.105C358.923 12 359.395 12.9276 358.914 13.5886Z" fill="#E7E7E7" stroke="#76FF03" stroke-width="4"/>
<line x1="10" y1="23" x2="30" y2="23" stroke="#FFB800" stroke-width="4"/>
<line x1="12" y1="22" x2="12" y2="97" stroke="#FFB800" stroke-width="4"/>
<line x1="10" y1="98" x2="30" y2="98" stroke="#FFB800" stroke-width="4"/>
<line y1="-2" x2="43.7319" y2="-2" transform="matrix(0.588557 -0.808456 0.588557 0.808456 322.504 55.3553)" stroke="#FFB800" stroke-width="4"/>
<line x1="315.224" y1="53" x2="322.504" y2="53" stroke="#FFB800" stroke-width="4"/>
<line x1="315.224" y1="66" x2="322.504" y2="66" stroke="#FFB800" stroke-width="4"/>
<line y1="-2" x2="43.7319" y2="-2" transform="matrix(0.588556 0.808456 -0.588556 0.808456 320.32 67)" stroke="#FFB800" stroke-width="4"/>
<path d="M69.1211 71L70.8789 63.9688H82.3047V46.3906H89.3359V71H69.1211ZM112.188 46.3906L110.43 53.4219H98.125V55.1797H110.43V71H89.3359L91.0938 63.9688H103.398V62.2109H91.0938V46.3906H112.188ZM126.25 53.4219H119.219V63.9688H126.25V53.4219ZM133.281 46.3906V71H112.188V46.3906H133.281ZM156.133 71H149.102V53.4219H142.07V71H135.039V46.3906H156.133V71ZM171.953 53.4219V58.8184L174.748 53.4219H171.953ZM171.953 63.9688H178.984V62.2109H171.953V63.9688ZM164.922 71V46.3906H186.297L181.744 55.1797H186.016V71H164.922ZM187.773 46.3906H194.805V71H187.773V46.3906ZM219.414 46.3906L217.656 53.4219H203.594V63.9688H210.625V62.2109H204.473L206.23 55.1797H217.656V71H196.562V46.3906H219.414ZM242.266 46.3906L240.508 53.4219H226.445V63.9688H233.477V62.2109H227.324L229.082 55.1797H240.508V71H219.414V46.3906H242.266ZM263.359 46.3906L261.602 53.4219H249.297V55.1797H261.602V71H240.508L242.266 63.9688H254.57V62.2109H242.266V46.3906H263.359Z" fill="black"/>
</svg>
