<svg width="354" height="121" viewBox="0 0 354 121" fill="none" xmlns="http://www.w3.org/2000/svg">
<path d="M349.016 3.57784L318.195 47.1108C316.969 48.842 316.969 51.158 318.195 52.8892L349.016 96.4222C349.485 97.0844 349.012 98 348.2 98H3C2.44772 98 2 97.5523 2 97V3C2 2.44772 2.44771 2 3 2H177H348.2C349.012 2 349.485 2.91557 349.016 3.57784Z" fill="white" stroke="#FFB800" stroke-width="4"/>
<path d="M349.016 23.5778L318.195 67.1108C316.969 68.842 316.969 71.158 318.195 72.8892L349.016 116.422C349.485 117.084 349.012 118 348.2 118H3C2.44772 118 2 117.552 2 117V23C2 22.4477 2.44771 22 3 22H177H348.2C349.012 22 349.485 22.9156 349.016 23.5778Z" fill="black" stroke="white" stroke-width="4"/>
<path d="M349.016 13.5778L318.195 57.1108C316.969 58.842 316.969 61.158 318.195 62.8892L349.016 106.422C349.485 107.084 349.012 108 348.2 108H3C2.44772 108 2 107.552 2 107V13C2 12.4477 2.44771 12 3 12H177H348.2C349.012 12 349.485 12.9156 349.016 13.5778Z" fill="#E7E7E7" stroke="#76FF03" stroke-width="4"/>
<line x1="10" y1="23" x2="30" y2="23" stroke="#FFB800" stroke-width="4"/>
<line x1="12" y1="22" x2="12" y2="97" stroke="#FFB800" stroke-width="4"/>
<line x1="10" y1="98" x2="30" y2="98" stroke="#FFB800" stroke-width="4"/>
<line y1="-2" x2="43.3195" y2="-2" transform="matrix(0.577836 -0.816153 0.577836 0.816153 313.644 55.3553)" stroke="#FFB800" stroke-width="4"/>
<line x1="306.564" y1="53" x2="313.644" y2="53" stroke="#FFB800" stroke-width="4"/>
<line x1="306.564" y1="66" x2="313.644" y2="66" stroke="#FFB800" stroke-width="4"/>
<line y1="-2" x2="43.3195" y2="-2" transform="matrix(0.577836 0.816153 -0.577836 0.816153 311.52 67)" stroke="#FFB800" stroke-width="4"/>
<path d="M69.1211 71L70.8789 63.9688H82.3047V46.3906H89.3359V71H69.1211ZM112.188 46.3906L110.43 53.4219H98.125V55.1797H110.43V71H89.3359L91.0938 63.9688H103.398V62.2109H91.0938V46.3906H112.188ZM126.25 53.4219H119.219V63.9688H126.25V53.4219ZM133.281 46.3906V71H112.188V46.3906H133.281ZM156.133 71H149.102V53.4219H142.07V71H135.039V46.3906H156.133V71ZM189.531 71H182.5V53.4219H180.742V71H173.711V53.4219H171.953V71H164.922V46.3906H189.531V71ZM205.352 53.4219H198.32V55.1797H205.352V53.4219ZM212.383 46.3906V62.2109H208.498L213.543 71H205.633L198.32 58.2383V71H191.289V46.3906H212.383ZM228.203 62.2109H221.172V71H214.141V46.3906H235.234V71H228.203V62.2109ZM221.172 55.1797H228.203V53.4219H221.172V55.1797ZM249.297 53.4219H236.992V46.3906H256.328V62.2109H244.023V63.9688H256.328V71H236.992V55.1797H249.297V53.4219Z" fill="black"/>
</svg>
