<svg width="383" height="121" viewBox="0 0 383 121" fill="none" xmlns="http://www.w3.org/2000/svg">
<path d="M377.717 3.6081L344.51 46.9595C343.135 48.7536 343.135 51.2464 344.51 53.0405L377.717 96.3919C378.221 97.0498 377.752 98 376.923 98H2.99999C2.44771 98 2 97.5523 2 97V3C2 2.44771 2.44771 2 3 2H191.5H376.923C377.752 2 378.221 2.95019 377.717 3.6081Z" fill="white" stroke="#FFB800" stroke-width="4"/>
<path d="M377.717 23.6081L344.51 66.9595C343.135 68.7536 343.135 71.2464 344.51 73.0405L377.717 116.392C378.221 117.05 377.752 118 376.923 118H2.99999C2.44771 118 2 117.552 2 117V23C2 22.4477 2.44771 22 3 22H191.5H376.923C377.752 22 378.221 22.9502 377.717 23.6081Z" fill="black" stroke="white" stroke-width="4"/>
<path d="M377.717 13.6081L344.51 56.9595C343.135 58.7536 343.135 61.2464 344.51 63.0405L377.717 106.392C378.221 107.05 377.752 108 376.923 108H2.99999C2.44771 108 2 107.552 2 107V13C2 12.4477 2.44771 12 3 12H191.5H376.923C377.752 12 378.221 12.9502 377.717 13.6081Z" fill="#E7E7E7" stroke="#76FF03" stroke-width="4"/>
<line x1="10" y1="23" x2="30" y2="23" stroke="#FFB800" stroke-width="4"/>
<line x1="12" y1="22" x2="12" y2="97" stroke="#FFB800" stroke-width="4"/>
<line x1="10" y1="98" x2="30" y2="98" stroke="#FFB800" stroke-width="4"/>
<line y1="-2" x2="44.5359" y2="-2" transform="matrix(0.608098 -0.793862 0.608098 0.793862 339.338 55.3553)" stroke="#FFB800" stroke-width="4"/>
<line x1="331.678" y1="53" x2="339.338" y2="53" stroke="#FFB800" stroke-width="4"/>
<line x1="331.678" y1="66" x2="339.338" y2="66" stroke="#FFB800" stroke-width="4"/>
<line y1="-2" x2="44.5359" y2="-2" transform="matrix(0.608098 0.793862 -0.608098 0.793862 337.04 67)" stroke="#FFB800" stroke-width="4"/>
<path d="M69.1211 71L70.8789 63.9688H82.3047V46.3906H89.3359V71H69.1211ZM112.188 46.3906L110.43 53.4219H98.125V55.1797H110.43V71H89.3359L91.0938 63.9688H103.398V62.2109H91.0938V46.3906H112.188ZM126.25 53.4219H119.219V63.9688H126.25V53.4219ZM133.281 46.3906V71H112.188V46.3906H133.281ZM156.133 71H149.102V53.4219H142.07V71H135.039V46.3906H156.133V71ZM187.773 46.3906L186.016 53.4219H171.953V63.9688H178.984V62.2109H172.832L174.59 55.1797H186.016V71H164.922V46.3906H187.773ZM201.836 53.4219H194.805V63.9688H201.836V53.4219ZM208.867 46.3906V71H187.773V46.3906H208.867ZM210.625 46.3906H217.656V63.9688H224.688V46.3906H231.719V71H210.625V46.3906ZM240.508 63.9688H254.57L252.812 71H233.477V46.3906H240.508V63.9688ZM268.633 53.4219H253.691L255.449 46.3906H275.664V71H254.57V55.1797H261.602V63.9688H268.633V53.4219Z" fill="black"/>
</svg>
