<svg width="404" height="121" viewBox="0 0 404 121" fill="none" xmlns="http://www.w3.org/2000/svg">
<path d="M398.886 3.94272L363.957 47.1718C362.624 48.8217 362.624 51.1783 363.957 52.8282L398.886 96.0573C399.678 97.0382 398.98 98.5 397.719 98.5H2.99999C2.17157 98.5 1.5 97.8284 1.5 97V3C1.5 2.17157 2.17157 1.5 3 1.5H202H397.719C398.98 1.5 399.678 2.96177 398.886 3.94272Z" fill="white" fill-opacity="0.8" stroke="#FFB800" stroke-width="3"/>
<path d="M398.886 23.9427L363.957 67.1718C362.624 68.8217 362.624 71.1783 363.957 72.8282L398.886 116.057C399.678 117.038 398.98 118.5 397.719 118.5H2.99999C2.17157 118.5 1.5 117.828 1.5 117V23C1.5 22.1716 2.17157 21.5 3 21.5H202H397.719C398.98 21.5 399.678 22.9618 398.886 23.9427Z" fill="black" fill-opacity="0.6" stroke="white" stroke-width="3"/>
<path d="M398.886 13.9427L363.957 57.1718C362.624 58.8217 362.624 61.1783 363.957 62.8282L398.886 106.057C399.678 107.038 398.98 108.5 397.719 108.5H2.99999C2.17157 108.5 1.5 107.828 1.5 107V13C1.5 12.1716 2.17157 11.5 3 11.5H202H397.719C398.98 11.5 399.678 12.9618 398.886 13.9427Z" fill="#E7E7E7" fill-opacity="0.7" stroke="#76FF03" stroke-width="3"/>
<line x1="10" y1="23.5" x2="30" y2="23.5" stroke="#FFB800" stroke-width="3"/>
<line x1="11.5" y1="22" x2="11.5" y2="97" stroke="#FFB800" stroke-width="3"/>
<line x1="10" y1="98.5" x2="30" y2="98.5" stroke="#FFB800" stroke-width="3"/>
<line y1="-1.5" x2="45.4541" y2="-1.5" transform="matrix(0.628482 -0.777824 0.628482 0.777824 357.944 55.3553)" stroke="#FFB800" stroke-width="3"/>
<line x1="349.864" y1="53.5" x2="357.944" y2="53.5" stroke="#FFB800" stroke-width="3"/>
<line x1="349.864" y1="66.5" x2="357.944" y2="66.5" stroke="#FFB800" stroke-width="3"/>
<line y1="-1.5" x2="45.4541" y2="-1.5" transform="matrix(0.628482 0.777824 -0.628482 0.777824 355.52 67)" stroke="#FFB800" stroke-width="3"/>
<mask id="path-11-inside-1_63_513" fill="white">
<path d="M69.1211 71L70.8789 63.9688H82.3047V46.3906H89.3359V71H69.1211ZM114.347 46.3906L112.59 53.4219H100.285V55.1797H112.59V71H91.4959L93.2537 63.9688H105.558V62.2109H93.2537V46.3906H114.347ZM130.57 53.4219H123.539V63.9688H130.57V53.4219ZM137.601 46.3906V71H116.507V46.3906H137.601ZM162.613 71H155.582V53.4219H148.55V71H141.519V46.3906H162.613V71ZM198.573 46.3906L196.816 53.4219H182.753V63.9688H189.784V62.2109H183.632L185.39 55.1797H196.816V71H175.722V46.3906H198.573ZM214.796 53.4219H207.765V63.9688H214.796V53.4219ZM221.827 46.3906V71H200.733V46.3906H221.827ZM225.745 46.3906H232.776V63.9688H239.807V46.3906H246.839V71H225.745V46.3906ZM257.788 63.9688H271.85L270.092 71H250.757V46.3906H257.788V63.9688ZM288.073 53.4219H273.131L274.889 46.3906H295.104V71H274.01V55.1797H281.042V63.9688H288.073V53.4219Z"/>
</mask>
<path d="M69.1211 71L70.8789 63.9688H82.3047V46.3906H89.3359V71H69.1211ZM114.347 46.3906L112.59 53.4219H100.285V55.1797H112.59V71H91.4959L93.2537 63.9688H105.558V62.2109H93.2537V46.3906H114.347ZM130.57 53.4219H123.539V63.9688H130.57V53.4219ZM137.601 46.3906V71H116.507V46.3906H137.601ZM162.613 71H155.582V53.4219H148.55V71H141.519V46.3906H162.613V71ZM198.573 46.3906L196.816 53.4219H182.753V63.9688H189.784V62.2109H183.632L185.39 55.1797H196.816V71H175.722V46.3906H198.573ZM214.796 53.4219H207.765V63.9688H214.796V53.4219ZM221.827 46.3906V71H200.733V46.3906H221.827ZM225.745 46.3906H232.776V63.9688H239.807V46.3906H246.839V71H225.745V46.3906ZM257.788 63.9688H271.85L270.092 71H250.757V46.3906H257.788V63.9688ZM288.073 53.4219H273.131L274.889 46.3906H295.104V71H274.01V55.1797H281.042V63.9688H288.073V53.4219Z" fill="white" fill-opacity="0.85"/>
<path d="M69.1211 71L68.151 70.7575L67.8403 72H69.1211V71ZM70.8789 63.9688V62.9688H70.0981L69.9088 63.7262L70.8789 63.9688ZM82.3047 63.9688V64.9688H83.3047V63.9688H82.3047ZM82.3047 46.3906V45.3906H81.3047V46.3906H82.3047ZM89.3359 46.3906H90.3359V45.3906H89.3359V46.3906ZM89.3359 71V72H90.3359V71H89.3359ZM70.0912 71.2425L71.849 64.2113L69.9088 63.7262L68.151 70.7575L70.0912 71.2425ZM70.8789 64.9688H82.3047V62.9688H70.8789V64.9688ZM83.3047 63.9688V46.3906H81.3047V63.9688H83.3047ZM82.3047 47.3906H89.3359V45.3906H82.3047V47.3906ZM88.3359 46.3906V71H90.3359V46.3906H88.3359ZM89.3359 70H69.1211V72H89.3359V70ZM114.347 46.3906L115.318 46.6332L115.628 45.3906H114.347V46.3906ZM112.59 53.4219V54.4219H113.37L113.56 53.6644L112.59 53.4219ZM100.285 53.4219V52.4219H99.285V53.4219H100.285ZM100.285 55.1797H99.285V56.1797H100.285V55.1797ZM112.59 55.1797H113.59V54.1797H112.59V55.1797ZM112.59 71V72H113.59V71H112.59ZM91.4959 71L90.5258 70.7575L90.2152 72H91.4959V71ZM93.2537 63.9688V62.9688H92.473L92.2836 63.7262L93.2537 63.9688ZM105.558 63.9688V64.9688H106.558V63.9688H105.558ZM105.558 62.2109H106.558V61.2109H105.558V62.2109ZM93.2537 62.2109H92.2537V63.2109H93.2537V62.2109ZM93.2537 46.3906V45.3906H92.2537V46.3906H93.2537ZM113.377 46.1481L111.62 53.1793L113.56 53.6644L115.318 46.6332L113.377 46.1481ZM112.59 52.4219H100.285V54.4219H112.59V52.4219ZM99.285 53.4219V55.1797H101.285V53.4219H99.285ZM100.285 56.1797H112.59V54.1797H100.285V56.1797ZM111.59 55.1797V71H113.59V55.1797H111.59ZM112.59 70H91.4959V72H112.59V70ZM92.4661 71.2425L94.2239 64.2113L92.2836 63.7262L90.5258 70.7575L92.4661 71.2425ZM93.2537 64.9688H105.558V62.9688H93.2537V64.9688ZM106.558 63.9688V62.2109H104.558V63.9688H106.558ZM105.558 61.2109H93.2537V63.2109H105.558V61.2109ZM94.2537 62.2109V46.3906H92.2537V62.2109H94.2537ZM93.2537 47.3906H114.347V45.3906H93.2537V47.3906ZM130.57 53.4219H131.57V52.4219H130.57V53.4219ZM123.539 53.4219V52.4219H122.539V53.4219H123.539ZM123.539 63.9688H122.539V64.9688H123.539V63.9688ZM130.57 63.9688V64.9688H131.57V63.9688H130.57ZM137.601 46.3906H138.601V45.3906H137.601V46.3906ZM137.601 71V72H138.601V71H137.601ZM116.507 71H115.507V72H116.507V71ZM116.507 46.3906V45.3906H115.507V46.3906H116.507ZM130.57 52.4219H123.539V54.4219H130.57V52.4219ZM122.539 53.4219V63.9688H124.539V53.4219H122.539ZM123.539 64.9688H130.57V62.9688H123.539V64.9688ZM131.57 63.9688V53.4219H129.57V63.9688H131.57ZM136.601 46.3906V71H138.601V46.3906H136.601ZM137.601 70H116.507V72H137.601V70ZM117.507 71V46.3906H115.507V71H117.507ZM116.507 47.3906H137.601V45.3906H116.507V47.3906ZM162.613 71V72H163.613V71H162.613ZM155.582 71H154.582V72H155.582V71ZM155.582 53.4219H156.582V52.4219H155.582V53.4219ZM148.55 53.4219V52.4219H147.55V53.4219H148.55ZM148.55 71V72H149.55V71H148.55ZM141.519 71H140.519V72H141.519V71ZM141.519 46.3906V45.3906H140.519V46.3906H141.519ZM162.613 46.3906H163.613V45.3906H162.613V46.3906ZM162.613 70H155.582V72H162.613V70ZM156.582 71V53.4219H154.582V71H156.582ZM155.582 52.4219H148.55V54.4219H155.582V52.4219ZM147.55 53.4219V71H149.55V53.4219H147.55ZM148.55 70H141.519V72H148.55V70ZM142.519 71V46.3906H140.519V71H142.519ZM141.519 47.3906H162.613V45.3906H141.519V47.3906ZM161.613 46.3906V71H163.613V46.3906H161.613ZM198.573 46.3906L199.544 46.6332L199.854 45.3906H198.573V46.3906ZM196.816 53.4219V54.4219H197.596L197.786 53.6644L196.816 53.4219ZM182.753 53.4219V52.4219H181.753V53.4219H182.753ZM182.753 63.9688H181.753V64.9688H182.753V63.9688ZM189.784 63.9688V64.9688H190.784V63.9688H189.784ZM189.784 62.2109H190.784V61.2109H189.784V62.2109ZM183.632 62.2109L182.662 61.9684L182.351 63.2109H183.632V62.2109ZM185.39 55.1797V54.1797H184.609L184.42 54.9372L185.39 55.1797ZM196.816 55.1797H197.816V54.1797H196.816V55.1797ZM196.816 71V72H197.816V71H196.816ZM175.722 71H174.722V72H175.722V71ZM175.722 46.3906V45.3906H174.722V46.3906H175.722ZM197.603 46.1481L195.845 53.1793L197.786 53.6644L199.544 46.6332L197.603 46.1481ZM196.816 52.4219H182.753V54.4219H196.816V52.4219ZM181.753 53.4219V63.9688H183.753V53.4219H181.753ZM182.753 64.9688H189.784V62.9688H182.753V64.9688ZM190.784 63.9688V62.2109H188.784V63.9688H190.784ZM189.784 61.2109H183.632V63.2109H189.784V61.2109ZM184.602 62.4535L186.36 55.4222L184.42 54.9372L182.662 61.9684L184.602 62.4535ZM185.39 56.1797H196.816V54.1797H185.39V56.1797ZM195.816 55.1797V71H197.816V55.1797H195.816ZM196.816 70H175.722V72H196.816V70ZM176.722 71V46.3906H174.722V71H176.722ZM175.722 47.3906H198.573V45.3906H175.722V47.3906ZM214.796 53.4219H215.796V52.4219H214.796V53.4219ZM207.765 53.4219V52.4219H206.765V53.4219H207.765ZM207.765 63.9688H206.765V64.9688H207.765V63.9688ZM214.796 63.9688V64.9688H215.796V63.9688H214.796ZM221.827 46.3906H222.827V45.3906H221.827V46.3906ZM221.827 71V72H222.827V71H221.827ZM200.733 71H199.733V72H200.733V71ZM200.733 46.3906V45.3906H199.733V46.3906H200.733ZM214.796 52.4219H207.765V54.4219H214.796V52.4219ZM206.765 53.4219V63.9688H208.765V53.4219H206.765ZM207.765 64.9688H214.796V62.9688H207.765V64.9688ZM215.796 63.9688V53.4219H213.796V63.9688H215.796ZM220.827 46.3906V71H222.827V46.3906H220.827ZM221.827 70H200.733V72H221.827V70ZM201.733 71V46.3906H199.733V71H201.733ZM200.733 47.3906H221.827V45.3906H200.733V47.3906ZM225.745 46.3906V45.3906H224.745V46.3906H225.745ZM232.776 46.3906H233.776V45.3906H232.776V46.3906ZM232.776 63.9688H231.776V64.9688H232.776V63.9688ZM239.807 63.9688V64.9688H240.807V63.9688H239.807ZM239.807 46.3906V45.3906H238.807V46.3906H239.807ZM246.839 46.3906H247.839V45.3906H246.839V46.3906ZM246.839 71V72H247.839V71H246.839ZM225.745 71H224.745V72H225.745V71ZM225.745 47.3906H232.776V45.3906H225.745V47.3906ZM231.776 46.3906V63.9688H233.776V46.3906H231.776ZM232.776 64.9688H239.807V62.9688H232.776V64.9688ZM240.807 63.9688V46.3906H238.807V63.9688H240.807ZM239.807 47.3906H246.839V45.3906H239.807V47.3906ZM245.839 46.3906V71H247.839V46.3906H245.839ZM246.839 70H225.745V72H246.839V70ZM226.745 71V46.3906H224.745V71H226.745ZM257.788 63.9688H256.788V64.9688H257.788V63.9688ZM271.85 63.9688L272.82 64.2113L273.131 62.9688H271.85V63.9688ZM270.092 71V72H270.873L271.063 71.2425L270.092 71ZM250.757 71H249.757V72H250.757V71ZM250.757 46.3906V45.3906H249.757V46.3906H250.757ZM257.788 46.3906H258.788V45.3906H257.788V46.3906ZM257.788 64.9688H271.85V62.9688H257.788V64.9688ZM270.88 63.7262L269.122 70.7575L271.063 71.2425L272.82 64.2113L270.88 63.7262ZM270.092 70H250.757V72H270.092V70ZM251.757 71V46.3906H249.757V71H251.757ZM250.757 47.3906H257.788V45.3906H250.757V47.3906ZM256.788 46.3906V63.9688H258.788V46.3906H256.788ZM288.073 53.4219H289.073V52.4219H288.073V53.4219ZM273.131 53.4219L272.161 53.1793L271.851 54.4219H273.131V53.4219ZM274.889 46.3906V45.3906H274.108L273.919 46.1481L274.889 46.3906ZM295.104 46.3906H296.104V45.3906H295.104V46.3906ZM295.104 71V72H296.104V71H295.104ZM274.01 71H273.01V72H274.01V71ZM274.01 55.1797V54.1797H273.01V55.1797H274.01ZM281.042 55.1797H282.042V54.1797H281.042V55.1797ZM281.042 63.9688H280.042V64.9688H281.042V63.9688ZM288.073 63.9688V64.9688H289.073V63.9688H288.073ZM288.073 52.4219H273.131V54.4219H288.073V52.4219ZM274.102 53.6644L275.859 46.6332L273.919 46.1481L272.161 53.1793L274.102 53.6644ZM274.889 47.3906H295.104V45.3906H274.889V47.3906ZM294.104 46.3906V71H296.104V46.3906H294.104ZM295.104 70H274.01V72H295.104V70ZM275.01 71V55.1797H273.01V71H275.01ZM274.01 56.1797H281.042V54.1797H274.01V56.1797ZM280.042 55.1797V63.9688H282.042V55.1797H280.042ZM281.042 64.9688H288.073V62.9688H281.042V64.9688ZM289.073 63.9688V53.4219H287.073V63.9688H289.073Z" fill="#34FF00" mask="url(#path-11-inside-1_63_513)"/>
</svg>
