<svg width="387" height="121" viewBox="0 0 387 121" fill="none" xmlns="http://www.w3.org/2000/svg">
<path d="M381.675 3.61208L348.14 46.9396C346.745 48.7415 346.745 51.2585 348.14 53.0604L381.675 96.3879C382.184 97.0451 381.715 98 380.884 98H3C2.44772 98 2 97.5523 2 97V3C2 2.44771 2.44771 2 3 2H193.5H380.884C381.715 2 382.184 2.95487 381.675 3.61208Z" fill="white" stroke="#FFB800" stroke-width="4"/>
<path d="M381.675 23.6121L348.14 66.9396C346.745 68.7415 346.745 71.2585 348.14 73.0604L381.675 116.388C382.184 117.045 381.715 118 380.884 118H3C2.44772 118 2 117.552 2 117V23C2 22.4477 2.44771 22 3 22H193.5H380.884C381.715 22 382.184 22.9549 381.675 23.6121Z" fill="black" stroke="white" stroke-width="4"/>
<path d="M381.675 13.6121L348.14 56.9396C346.745 58.7415 346.745 61.2585 348.14 63.0604L381.675 106.388C382.184 107.045 381.715 108 380.884 108H3C2.44772 108 2 107.552 2 107V13C2 12.4477 2.44771 12 3 12H193.5H380.884C381.715 12 382.184 12.9549 381.675 13.6121Z" fill="#E7E7E7" stroke="#76FF03" stroke-width="4"/>
<line x1="10" y1="23" x2="30" y2="23" stroke="#FFB800" stroke-width="4"/>
<line x1="12" y1="22" x2="12" y2="97" stroke="#FFB800" stroke-width="4"/>
<line x1="10" y1="98" x2="30" y2="98" stroke="#FFB800" stroke-width="4"/>
<line y1="-2" x2="44.7084" y2="-2" transform="matrix(0.612077 -0.790798 0.612077 0.790798 342.882 55.3555)" stroke="#FFB800" stroke-width="4"/>
<line x1="335.142" y1="53" x2="342.882" y2="53" stroke="#FFB800" stroke-width="4"/>
<line x1="335.142" y1="66" x2="342.882" y2="66" stroke="#FFB800" stroke-width="4"/>
<line y1="-2" x2="44.7084" y2="-2" transform="matrix(0.612077 0.790798 -0.612077 0.790798 340.56 67)" stroke="#FFB800" stroke-width="4"/>
<path d="M69.1211 71L70.8789 63.9688H82.3047V46.3906H89.3359V71H69.1211ZM112.188 46.3906L110.43 53.4219H98.125V55.1797H110.43V71H89.3359L91.0938 63.9688H103.398V62.2109H91.0938V46.3906H112.188ZM126.25 53.4219H119.219V63.9688H126.25V53.4219ZM133.281 46.3906V71H112.188V46.3906H133.281ZM156.133 71H149.102V53.4219H142.07V71H135.039V46.3906H156.133V71ZM164.922 46.3906H171.953V63.9688H173.711V46.3906H180.742V63.9688H182.5V46.3906H189.531V71H164.922V46.3906ZM191.289 46.3906H198.32V71H191.289V46.3906ZM221.172 46.3906L219.414 53.4219H213.262V71H206.23V53.4219H200.078V46.3906H221.172ZM242.266 46.3906L240.508 53.4219H234.355V71H227.324V53.4219H221.172V46.3906H242.266ZM263.359 46.3906L261.602 53.4219H249.297V55.1797H261.602L259.844 62.2109H249.297V63.9688H263.359L261.602 71H242.266V46.3906H263.359ZM284.453 71H277.422V53.4219H270.391V71H263.359V46.3906H284.453V71Z" fill="black"/>
</svg>
