<svg width="423" height="121" viewBox="0 0 423 121" fill="none" xmlns="http://www.w3.org/2000/svg">
<path d="M417.296 3.64587L380.812 46.7706C379.235 48.6347 379.235 51.3653 380.812 53.2294L417.296 96.3541C417.846 97.0041 417.384 98 416.532 98H2.99999C2.44771 98 2 97.5523 2 97V3C2 2.44771 2.44771 2 3 2H211.5H416.532C417.384 2 417.846 2.99594 417.296 3.64587Z" fill="white" stroke="#FFB800" stroke-width="4"/>
<path d="M417.296 23.6459L380.812 66.7706C379.235 68.6347 379.235 71.3653 380.812 73.2294L417.296 116.354C417.846 117.004 417.384 118 416.532 118H2.99999C2.44771 118 2 117.552 2 117V23C2 22.4477 2.44771 22 3 22H211.5H416.532C417.384 22 417.846 22.9959 417.296 23.6459Z" fill="black" stroke="white" stroke-width="4"/>
<path d="M417.296 13.6459L380.812 56.7706C379.235 58.6347 379.235 61.3653 380.812 63.2294L417.296 106.354C417.846 107.004 417.384 108 416.532 108H2.99999C2.44771 108 2 107.552 2 107V13C2 12.4477 2.44771 12 3 12H211.5H416.532C417.384 12 417.846 12.9959 417.296 13.6459Z" fill="#E7E7E7" stroke="#76FF03" stroke-width="4"/>
<line x1="10" y1="23" x2="30" y2="23" stroke="#FFB800" stroke-width="4"/>
<line x1="12" y1="22" x2="12" y2="97" stroke="#FFB800" stroke-width="4"/>
<line x1="10" y1="98" x2="30" y2="98" stroke="#FFB800" stroke-width="4"/>
<line y1="-2" x2="46.3103" y2="-2" transform="matrix(0.645874 -0.763444 0.645874 0.763444 374.778 55.3555)" stroke="#FFB800" stroke-width="4"/>
<line x1="366.318" y1="53" x2="374.778" y2="53" stroke="#FFB800" stroke-width="4"/>
<line x1="366.318" y1="66" x2="374.778" y2="66" stroke="#FFB800" stroke-width="4"/>
<line y1="-2" x2="46.3103" y2="-2" transform="matrix(0.645874 0.763444 -0.645874 0.763444 372.24 67)" stroke="#FFB800" stroke-width="4"/>
<path d="M69.1211 71L70.8789 63.9688H82.3047V46.3906H89.3359V71H69.1211ZM112.188 46.3906L110.43 53.4219H98.125V55.1797H110.43V71H89.3359L91.0938 63.9688H103.398V62.2109H91.0938V46.3906H112.188ZM126.25 53.4219H119.219V63.9688H126.25V53.4219ZM133.281 46.3906V71H112.188V46.3906H133.281ZM156.133 71H149.102V53.4219H142.07V71H135.039V46.3906H156.133V71ZM186.016 46.3906L184.258 53.4219H171.953V55.1797H184.258V71H163.164L164.922 63.9688H177.227V62.2109H164.922V46.3906H186.016ZM186.016 46.3906H193.047V63.9688H200.078V46.3906H207.109V71H186.016V46.3906ZM222.93 53.4219H207.988L209.746 46.3906H229.961V71H208.867V55.1797H215.898V63.9688H222.93V53.4219ZM252.812 46.3906L251.055 53.4219H238.75V55.1797H251.055L249.297 62.2109H238.75V63.9688H252.812L251.055 71H231.719V46.3906H252.812ZM252.812 46.3906H259.844V71H252.812V46.3906ZM268.633 61.1914V71H261.602V46.3906H268.633V56.1992L274.012 46.3906H282.01L275.277 58.6953L282.01 71H274.012L268.633 61.1914ZM282.695 46.3906H289.727V71H282.695V46.3906ZM312.578 46.3906L310.82 53.4219H298.516V55.1797H310.82V71H289.727L291.484 63.9688H303.789V62.2109H291.484V46.3906H312.578Z" fill="black"/>
</svg>
