<svg width="406" height="121" viewBox="0 0 406 121" fill="none" xmlns="http://www.w3.org/2000/svg">
<path d="M400.476 3.63036L365.383 46.8482C363.892 48.6848 363.892 51.3152 365.383 53.1518L400.476 96.3696C401.007 97.0232 400.541 98 399.7 98H3.00001C2.44772 98 2 97.5523 2 97V3C2 2.44771 2.44771 2 3 2H203H399.7C400.541 2 401.007 2.97678 400.476 3.63036Z" fill="white" stroke="#FFB800" stroke-width="4"/>
<path d="M400.476 23.6304L365.383 66.8482C363.892 68.6848 363.892 71.3152 365.383 73.1518L400.476 116.37C401.007 117.023 400.541 118 399.7 118H3.00001C2.44772 118 2 117.552 2 117V23C2 22.4477 2.44771 22 3 22H203H399.7C400.541 22 401.007 22.9768 400.476 23.6304Z" fill="black" stroke="white" stroke-width="4"/>
<path d="M400.476 13.6304L365.383 56.8482C363.892 58.6848 363.892 61.3152 365.383 63.1518L400.476 106.37C401.007 107.023 400.541 108 399.7 108H3.00001C2.44772 108 2 107.552 2 107V13C2 12.4477 2.44771 12 3 12H203H399.7C400.541 12 401.007 12.9768 400.476 13.6304Z" fill="#E7E7E7" stroke="#76FF03" stroke-width="4"/>
<line x1="10" y1="23" x2="30" y2="23" stroke="#FFB800" stroke-width="4"/>
<line x1="12" y1="22" x2="12" y2="97" stroke="#FFB800" stroke-width="4"/>
<line x1="10" y1="98" x2="30" y2="98" stroke="#FFB800" stroke-width="4"/>
<line y1="-2" x2="45.5432" y2="-2" transform="matrix(0.630359 -0.776304 0.630359 0.776304 359.716 55.3553)" stroke="#FFB800" stroke-width="4"/>
<line x1="351.596" y1="53" x2="359.716" y2="53" stroke="#FFB800" stroke-width="4"/>
<line x1="351.596" y1="66" x2="359.716" y2="66" stroke="#FFB800" stroke-width="4"/>
<line y1="-2" x2="45.5432" y2="-2" transform="matrix(0.630359 0.776304 -0.630359 0.776304 357.28 67)" stroke="#FFB800" stroke-width="4"/>
<path d="M69.1211 71L70.8789 63.9688H82.3047V46.3906H89.3359V71H69.1211ZM112.188 46.3906L110.43 53.4219H98.125V55.1797H110.43V71H89.3359L91.0938 63.9688H103.398V62.2109H91.0938V46.3906H112.188ZM126.25 53.4219H119.219V63.9688H126.25V53.4219ZM133.281 46.3906V71H112.188V46.3906H133.281ZM156.133 71H149.102V53.4219H142.07V71H135.039V46.3906H156.133V71ZM171.953 53.4219V58.8184L174.748 53.4219H171.953ZM171.953 63.9688H178.984V62.2109H171.953V63.9688ZM164.922 71V46.3906H186.297L181.744 55.1797H186.016V71H164.922ZM201.836 53.4219H194.805V63.9688H201.836V53.4219ZM208.867 46.3906V71H187.773V46.3906H208.867ZM210.625 46.3906H217.656V63.9688H224.688V46.3906H231.719V71H210.625V46.3906ZM247.539 53.4219H240.508V55.1797H247.539V53.4219ZM254.57 46.3906V62.2109H250.686L255.73 71H247.82L240.508 58.2383V71H233.477V46.3906H254.57ZM277.422 71H270.391V53.4219H263.359V71H256.328V46.3906H277.422V71ZM300.273 46.3906L298.516 53.4219H286.211V55.1797H298.516L296.758 62.2109H286.211V63.9688H300.273L298.516 71H279.18V46.3906H300.273Z" fill="black"/>
</svg>
