<svg width="451" height="121" viewBox="0 0 451 121" fill="none" xmlns="http://www.w3.org/2000/svg">
<path d="M444.996 3.66978L406.227 46.6511C404.511 48.5538 404.511 51.4462 406.227 53.3489L444.996 96.3302C445.577 96.9735 445.12 98 444.254 98H3C2.44771 98 2 97.5523 2 97V3C2 2.44772 2.44771 2 3 2H225.5H444.254C445.12 2 445.577 3.02652 444.996 3.66978Z" fill="white" stroke="#FFB800" stroke-width="4"/>
<path d="M444.996 23.6698L406.227 66.6511C404.511 68.5538 404.511 71.4462 406.227 73.3489L444.996 116.33C445.577 116.973 445.12 118 444.254 118H3C2.44771 118 2 117.552 2 117V23C2 22.4477 2.44771 22 3 22H225.5H444.254C445.12 22 445.577 23.0265 444.996 23.6698Z" fill="black" stroke="white" stroke-width="4"/>
<path d="M444.996 13.6698L406.227 56.6511C404.511 58.5538 404.511 61.4462 406.227 63.3489L444.996 106.33C445.577 106.973 445.12 108 444.254 108H3C2.44771 108 2 107.552 2 107V13C2 12.4477 2.44771 12 3 12H225.5H444.254C445.12 12 445.577 13.0265 444.996 13.6698Z" fill="#E7E7E7" stroke="#76FF03" stroke-width="4"/>
<line x1="10" y1="23" x2="30" y2="23" stroke="#FFB800" stroke-width="4"/>
<line x1="12" y1="22" x2="12" y2="97" stroke="#FFB800" stroke-width="4"/>
<line x1="10" y1="98" x2="30" y2="98" stroke="#FFB800" stroke-width="4"/>
<line y1="-2" x2="47.6131" y2="-2" transform="matrix(0.669785 -0.742555 0.669785 0.742555 399.586 55.3553)" stroke="#FFB800" stroke-width="4"/>
<line x1="390.566" y1="53" x2="399.586" y2="53" stroke="#FFB800" stroke-width="4"/>
<line x1="390.566" y1="66" x2="399.586" y2="66" stroke="#FFB800" stroke-width="4"/>
<line y1="-2" x2="47.6131" y2="-2" transform="matrix(0.669785 0.742555 -0.669785 0.742555 396.88 67)" stroke="#FFB800" stroke-width="4"/>
<path d="M69.1211 71L70.8789 63.9688H82.3047V46.3906H89.3359V71H69.1211ZM112.188 46.3906L110.43 53.4219H98.125V55.1797H110.43V71H89.3359L91.0938 63.9688H103.398V62.2109H91.0938V46.3906H112.188ZM126.25 53.4219H119.219V63.9688H126.25V53.4219ZM133.281 46.3906V71H112.188V46.3906H133.281ZM156.133 71H149.102V53.4219H142.07V71H135.039V46.3906H156.133V71ZM171.953 63.9688H186.016L184.258 71H164.922V46.3906H171.953V63.9688ZM207.109 46.3906L205.352 53.4219H193.047V55.1797H205.352L203.594 62.2109H193.047V63.9688H207.109L205.352 71H186.016V46.3906H207.109ZM228.203 46.3906L226.445 53.4219H214.141V55.1797H226.445L224.688 62.2109H214.141V63.9688H228.203L226.445 71H207.109V46.3906H228.203ZM256.328 46.3906L254.57 53.4219H242.266V55.1797H254.57V71H233.477L235.234 63.9688H247.539V62.2109H235.234V46.3906H256.328ZM277.422 46.3906L275.664 53.4219H263.359V63.9688H277.422L275.664 71H256.328V46.3906H277.422ZM291.484 53.4219H284.453V63.9688H291.484V53.4219ZM298.516 46.3906V71H277.422V46.3906H298.516ZM321.367 46.3906L319.609 53.4219H313.457V71H306.426V53.4219H300.273V46.3906H321.367ZM342.461 46.3906L340.703 53.4219H334.551V71H327.52V53.4219H321.367V46.3906H342.461Z" fill="black"/>
</svg>
