<svg width="438" height="121" viewBox="0 0 438 121" fill="none" xmlns="http://www.w3.org/2000/svg">
<path d="M432.136 3.65893L394.427 46.7054C392.775 48.5912 392.775 51.4088 394.427 53.2947L432.136 96.3411C432.702 96.9875 432.243 98 431.384 98H2.99999C2.44771 98 2 97.5523 2 97V3C2 2.44771 2.44771 2 3 2H219H431.384C432.243 2 432.702 3.01247 432.136 3.65893Z" fill="white" stroke="#FFB800" stroke-width="4"/>
<path d="M432.136 23.6589L394.427 66.7054C392.775 68.5912 392.775 71.4088 394.427 73.2947L432.136 116.341C432.702 116.988 432.243 118 431.384 118H2.99999C2.44771 118 2 117.552 2 117V23C2 22.4477 2.44771 22 3 22H219H431.384C432.243 22 432.702 23.0125 432.136 23.6589Z" fill="black" stroke="white" stroke-width="4"/>
<path d="M432.136 13.6589L394.427 56.7054C392.775 58.5912 392.775 61.4088 394.427 63.2947L432.136 106.341C432.702 106.988 432.243 108 431.384 108H2.99999C2.44771 108 2 107.552 2 107V13C2 12.4477 2.44771 12 3 12H219H431.384C432.243 12 432.702 13.0125 432.136 13.6589Z" fill="#E7E7E7" stroke="#76FF03" stroke-width="4"/>
<line x1="10" y1="23" x2="30" y2="23" stroke="#FFB800" stroke-width="4"/>
<line x1="12" y1="22" x2="12" y2="97" stroke="#FFB800" stroke-width="4"/>
<line x1="10" y1="98" x2="30" y2="98" stroke="#FFB800" stroke-width="4"/>
<line y1="-2" x2="47.0023" y2="-2" transform="matrix(0.658931 -0.752204 0.658931 0.752204 388.068 55.3553)" stroke="#FFB800" stroke-width="4"/>
<line x1="379.308" y1="53" x2="388.068" y2="53" stroke="#FFB800" stroke-width="4"/>
<line x1="379.308" y1="66" x2="388.068" y2="66" stroke="#FFB800" stroke-width="4"/>
<line y1="-2" x2="47.0023" y2="-2" transform="matrix(0.658931 0.752204 -0.658931 0.752204 385.44 67)" stroke="#FFB800" stroke-width="4"/>
<path d="M69.1211 71L70.8789 63.9688H82.3047V46.3906H89.3359V71H69.1211ZM112.188 46.3906L110.43 53.4219H98.125V55.1797H110.43V71H89.3359L91.0938 63.9688H103.398V62.2109H91.0938V46.3906H112.188ZM126.25 53.4219H119.219V63.9688H126.25V53.4219ZM133.281 46.3906V71H112.188V46.3906H133.281ZM156.133 71H149.102V53.4219H142.07V71H135.039V46.3906H156.133V71ZM171.953 53.4219V58.8184L174.748 53.4219H171.953ZM171.953 63.9688H178.984V62.2109H171.953V63.9688ZM164.922 71V46.3906H186.297L181.744 55.1797H186.016V71H164.922ZM201.836 62.2109H194.805V71H187.773V46.3906H208.867V71H201.836V62.2109ZM194.805 55.1797H201.836V53.4219H194.805V55.1797ZM231.719 46.3906L229.961 53.4219H223.809V71H216.777V53.4219H210.625V46.3906H231.719ZM252.812 46.3906L251.055 53.4219H238.75V55.1797H251.055L249.297 62.2109H238.75V63.9688H252.812L251.055 71H231.719V46.3906H252.812ZM277.422 71H270.391V53.4219H268.633V71H261.602V53.4219H259.844V71H252.812V46.3906H277.422V71ZM293.242 62.2109H286.211V71H279.18V46.3906H300.273V71H293.242V62.2109ZM286.211 55.1797H293.242V53.4219H286.211V55.1797ZM323.125 71H316.094V53.4219H309.062V71H302.031V46.3906H323.125V71Z" fill="black"/>
</svg>
