<svg width="371" height="121" viewBox="0 0 371 121" fill="none" xmlns="http://www.w3.org/2000/svg">
<path d="M365.841 3.59588L333.62 47.0206C332.307 48.7899 332.307 51.2101 333.62 52.9794L365.841 96.4041C366.331 97.064 365.86 98 365.038 98H3C2.44772 98 2 97.5523 2 97V3C2 2.44771 2.44771 2 3 2H185.5H365.038C365.86 2 366.331 2.93601 365.841 3.59588Z" fill="white" stroke="#FFB800" stroke-width="4"/>
<path d="M365.841 23.5959L333.62 67.0206C332.307 68.7899 332.307 71.2101 333.62 72.9794L365.841 116.404C366.331 117.064 365.86 118 365.038 118H3C2.44772 118 2 117.552 2 117V23C2 22.4477 2.44771 22 3 22H185.5H365.038C365.86 22 366.331 22.936 365.841 23.5959Z" fill="black" stroke="white" stroke-width="4"/>
<path d="M365.841 13.5959L333.62 57.0206C332.307 58.7899 332.307 61.2101 333.62 62.9794L365.841 106.404C366.331 107.064 365.86 108 365.038 108H3C2.44772 108 2 107.552 2 107V13C2 12.4477 2.44771 12 3 12H185.5H365.038C365.86 12 366.331 12.936 365.841 13.5959Z" fill="#E7E7E7" stroke="#76FF03" stroke-width="4"/>
<line x1="10" y1="23" x2="30" y2="23" stroke="#FFB800" stroke-width="4"/>
<line x1="12" y1="22" x2="12" y2="97" stroke="#FFB800" stroke-width="4"/>
<line x1="10" y1="98" x2="30" y2="98" stroke="#FFB800" stroke-width="4"/>
<line y1="-2" x2="44.0251" y2="-2" transform="matrix(0.595881 -0.803073 0.595881 0.803073 328.706 55.3555)" stroke="#FFB800" stroke-width="4"/>
<line x1="321.286" y1="53" x2="328.706" y2="53" stroke="#FFB800" stroke-width="4"/>
<line x1="321.286" y1="66" x2="328.706" y2="66" stroke="#FFB800" stroke-width="4"/>
<line y1="-2" x2="44.0251" y2="-2" transform="matrix(0.595881 0.803073 -0.595881 0.803073 326.48 67)" stroke="#FFB800" stroke-width="4"/>
<path d="M69.1211 71L70.8789 63.9688H82.3047V46.3906H89.3359V71H69.1211ZM112.188 46.3906L110.43 53.4219H98.125V55.1797H110.43V71H89.3359L91.0938 63.9688H103.398V62.2109H91.0938V46.3906H112.188ZM126.25 53.4219H119.219V63.9688H126.25V53.4219ZM133.281 46.3906V71H112.188V46.3906H133.281ZM156.133 71H149.102V53.4219H142.07V71H135.039V46.3906H156.133V71ZM164.922 46.3906H171.953V63.9688H173.711V46.3906H180.742V63.9688H182.5V46.3906H189.531V71H164.922V46.3906ZM212.383 46.3906L210.625 53.4219H198.32V55.1797H210.625L208.867 62.2109H198.32V63.9688H212.383L210.625 71H191.289V46.3906H212.383ZM226.445 53.4219H219.414V55.1797H226.445V53.4219ZM233.477 46.3906V62.2109H229.592L234.637 71H226.727L219.414 58.2383V71H212.383V46.3906H233.477ZM256.328 46.3906L254.57 53.4219H248.418V71H241.387V53.4219H235.234V46.3906H256.328ZM256.328 46.3906H263.359V55.1797H270.391V46.3906H277.422V71H270.391V62.2109H263.359V71H256.328V46.3906Z" fill="black"/>
</svg>
