<svg width="585" height="121" viewBox="0 0 585 121" fill="none" xmlns="http://www.w3.org/2000/svg">
<path d="M577.847 4.14026L528.194 46.5792C526.092 48.3755 526.092 51.6245 528.194 53.4208L577.847 95.8597C578.907 96.7652 578.266 98.5 576.873 98.5H3C2.17157 98.5 1.5 97.8284 1.5 97V3C1.5 2.17157 2.17157 1.5 3 1.5H292.5H576.873C578.266 1.5 578.907 3.23478 577.847 4.14026Z" fill="white" fill-opacity="0.8" stroke="#FFB800" stroke-width="3"/>
<path d="M577.847 24.1403L528.194 66.5792C526.092 68.3755 526.092 71.6245 528.194 73.4208L577.847 115.86C578.907 116.765 578.266 118.5 576.873 118.5H3C2.17157 118.5 1.5 117.828 1.5 117V23C1.5 22.1716 2.17157 21.5 3 21.5H292.5H576.873C578.266 21.5 578.907 23.2348 577.847 24.1403Z" fill="black" fill-opacity="0.6" stroke="white" stroke-width="3"/>
<path d="M577.847 14.1403L528.194 56.5792C526.092 58.3755 526.092 61.6245 528.194 63.4208L577.847 105.86C578.907 106.765 578.266 108.5 576.873 108.5H3C2.17157 108.5 1.5 107.828 1.5 107V13C1.5 12.1716 2.17157 11.5 3 11.5H292.5H576.873C578.266 11.5 578.907 13.2348 577.847 14.1403Z" fill="#E7E7E7" fill-opacity="0.7" stroke="#76FF03" stroke-width="3"/>
<line x1="10" y1="23.5" x2="30" y2="23.5" stroke="#FFB800" stroke-width="3"/>
<line x1="11.5" y1="22" x2="11.5" y2="97" stroke="#FFB800" stroke-width="3"/>
<line x1="10" y1="98.5" x2="30" y2="98.5" stroke="#FFB800" stroke-width="3"/>
<line y1="-1.5" x2="54.4162" y2="-1.5" transform="matrix(0.760173 -0.649721 0.760173 0.649721 518.31 55.3553)" stroke="#FFB800" stroke-width="3"/>
<line x1="506.61" y1="53.5" x2="518.31" y2="53.5" stroke="#FFB800" stroke-width="3"/>
<line x1="506.61" y1="66.5" x2="518.31" y2="66.5" stroke="#FFB800" stroke-width="3"/>
<line y1="-1.5" x2="54.4162" y2="-1.5" transform="matrix(0.760173 0.649721 -0.760173 0.649721 514.8 67)" stroke="#FFB800" stroke-width="3"/>
<mask id="path-11-inside-1_63_597" fill="white">
<path d="M69.1211 71L70.8789 63.9688H82.3047V46.3906H89.3359V71H69.1211ZM114.347 46.3906L112.59 53.4219H100.285V55.1797H112.59V71H91.4959L93.2537 63.9688H105.558V62.2109H93.2537V46.3906H114.347ZM130.57 53.4219H123.539V63.9688H130.57V53.4219ZM137.601 46.3906V71H116.507V46.3906H137.601ZM162.613 71H155.582V53.4219H148.55V71H141.519V46.3906H162.613V71ZM196.816 46.3906L195.058 53.4219H182.753V55.1797H195.058V71H173.964L175.722 63.9688H188.027V62.2109H175.722V46.3906H196.816ZM220.069 46.3906L218.312 53.4219H206.007V63.9688H220.069L218.312 71H198.976V46.3906H220.069ZM222.229 46.3906H229.261V55.1797H236.292V46.3906H243.323V71H236.292V62.2109H229.261V71H222.229V46.3906ZM247.241 46.3906H254.272V63.9688H256.03V46.3906H263.061V63.9688H264.819V46.3906H271.85V71H247.241V46.3906ZM289.831 62.2109H282.799V71H275.768V46.3906H296.862V71H289.831V62.2109ZM282.799 55.1797H289.831V53.4219H282.799V55.1797ZM314.842 53.4219H307.811V55.1797H314.842V53.4219ZM321.873 46.3906V62.2109H317.989L323.034 71H315.123L307.811 58.2383V71H300.78V46.3906H321.873ZM346.885 46.3906L345.127 53.4219H338.975V71H331.944V53.4219H325.791V46.3906H346.885ZM361.35 53.4219H349.045V46.3906H368.381V62.2109H356.076V63.9688H368.381V71H349.045V55.1797H361.35V53.4219ZM396.908 71H389.877V53.4219H388.119V71H381.088V53.4219H379.33V71H372.299V46.3906H396.908V71ZM414.888 62.2109H407.857V71H400.826V46.3906H421.92V71H414.888V62.2109ZM407.857 55.1797H414.888V53.4219H407.857V55.1797ZM446.931 71H439.9V53.4219H432.869V71H425.837V46.3906H446.931V71Z"/>
</mask>
<path d="M69.1211 71L70.8789 63.9688H82.3047V46.3906H89.3359V71H69.1211ZM114.347 46.3906L112.59 53.4219H100.285V55.1797H112.59V71H91.4959L93.2537 63.9688H105.558V62.2109H93.2537V46.3906H114.347ZM130.57 53.4219H123.539V63.9688H130.57V53.4219ZM137.601 46.3906V71H116.507V46.3906H137.601ZM162.613 71H155.582V53.4219H148.55V71H141.519V46.3906H162.613V71ZM196.816 46.3906L195.058 53.4219H182.753V55.1797H195.058V71H173.964L175.722 63.9688H188.027V62.2109H175.722V46.3906H196.816ZM220.069 46.3906L218.312 53.4219H206.007V63.9688H220.069L218.312 71H198.976V46.3906H220.069ZM222.229 46.3906H229.261V55.1797H236.292V46.3906H243.323V71H236.292V62.2109H229.261V71H222.229V46.3906ZM247.241 46.3906H254.272V63.9688H256.03V46.3906H263.061V63.9688H264.819V46.3906H271.85V71H247.241V46.3906ZM289.831 62.2109H282.799V71H275.768V46.3906H296.862V71H289.831V62.2109ZM282.799 55.1797H289.831V53.4219H282.799V55.1797ZM314.842 53.4219H307.811V55.1797H314.842V53.4219ZM321.873 46.3906V62.2109H317.989L323.034 71H315.123L307.811 58.2383V71H300.78V46.3906H321.873ZM346.885 46.3906L345.127 53.4219H338.975V71H331.944V53.4219H325.791V46.3906H346.885ZM361.35 53.4219H349.045V46.3906H368.381V62.2109H356.076V63.9688H368.381V71H349.045V55.1797H361.35V53.4219ZM396.908 71H389.877V53.4219H388.119V71H381.088V53.4219H379.33V71H372.299V46.3906H396.908V71ZM414.888 62.2109H407.857V71H400.826V46.3906H421.92V71H414.888V62.2109ZM407.857 55.1797H414.888V53.4219H407.857V55.1797ZM446.931 71H439.9V53.4219H432.869V71H425.837V46.3906H446.931V71Z" fill="white" fill-opacity="0.85"/>
<path d="M69.1211 71L68.151 70.7575L67.8403 72H69.1211V71ZM70.8789 63.9688V62.9688H70.0981L69.9088 63.7262L70.8789 63.9688ZM82.3047 63.9688V64.9688H83.3047V63.9688H82.3047ZM82.3047 46.3906V45.3906H81.3047V46.3906H82.3047ZM89.3359 46.3906H90.3359V45.3906H89.3359V46.3906ZM89.3359 71V72H90.3359V71H89.3359ZM70.0912 71.2425L71.849 64.2113L69.9088 63.7262L68.151 70.7575L70.0912 71.2425ZM70.8789 64.9688H82.3047V62.9688H70.8789V64.9688ZM83.3047 63.9688V46.3906H81.3047V63.9688H83.3047ZM82.3047 47.3906H89.3359V45.3906H82.3047V47.3906ZM88.3359 46.3906V71H90.3359V46.3906H88.3359ZM89.3359 70H69.1211V72H89.3359V70ZM114.347 46.3906L115.318 46.6332L115.628 45.3906H114.347V46.3906ZM112.59 53.4219V54.4219H113.37L113.56 53.6644L112.59 53.4219ZM100.285 53.4219V52.4219H99.285V53.4219H100.285ZM100.285 55.1797H99.285V56.1797H100.285V55.1797ZM112.59 55.1797H113.59V54.1797H112.59V55.1797ZM112.59 71V72H113.59V71H112.59ZM91.4959 71L90.5258 70.7575L90.2152 72H91.4959V71ZM93.2537 63.9688V62.9688H92.473L92.2836 63.7262L93.2537 63.9688ZM105.558 63.9688V64.9688H106.558V63.9688H105.558ZM105.558 62.2109H106.558V61.2109H105.558V62.2109ZM93.2537 62.2109H92.2537V63.2109H93.2537V62.2109ZM93.2537 46.3906V45.3906H92.2537V46.3906H93.2537ZM113.377 46.1481L111.62 53.1793L113.56 53.6644L115.318 46.6332L113.377 46.1481ZM112.59 52.4219H100.285V54.4219H112.59V52.4219ZM99.285 53.4219V55.1797H101.285V53.4219H99.285ZM100.285 56.1797H112.59V54.1797H100.285V56.1797ZM111.59 55.1797V71H113.59V55.1797H111.59ZM112.59 70H91.4959V72H112.59V70ZM92.4661 71.2425L94.2239 64.2113L92.2836 63.7262L90.5258 70.7575L92.4661 71.2425ZM93.2537 64.9688H105.558V62.9688H93.2537V64.9688ZM106.558 63.9688V62.2109H104.558V63.9688H106.558ZM105.558 61.2109H93.2537V63.2109H105.558V61.2109ZM94.2537 62.2109V46.3906H92.2537V62.2109H94.2537ZM93.2537 47.3906H114.347V45.3906H93.2537V47.3906ZM130.57 53.4219H131.57V52.4219H130.57V53.4219ZM123.539 53.4219V52.4219H122.539V53.4219H123.539ZM123.539 63.9688H122.539V64.9688H123.539V63.9688ZM130.57 63.9688V64.9688H131.57V63.9688H130.57ZM137.601 46.3906H138.601V45.3906H137.601V46.3906ZM137.601 71V72H138.601V71H137.601ZM116.507 71H115.507V72H116.507V71ZM116.507 46.3906V45.3906H115.507V46.3906H116.507ZM130.57 52.4219H123.539V54.4219H130.57V52.4219ZM122.539 53.4219V63.9688H124.539V53.4219H122.539ZM123.539 64.9688H130.57V62.9688H123.539V64.9688ZM131.57 63.9688V53.4219H129.57V63.9688H131.57ZM136.601 46.3906V71H138.601V46.3906H136.601ZM137.601 70H116.507V72H137.601V70ZM117.507 71V46.3906H115.507V71H117.507ZM116.507 47.3906H137.601V45.3906H116.507V47.3906ZM162.613 71V72H163.613V71H162.613ZM155.582 71H154.582V72H155.582V71ZM155.582 53.4219H156.582V52.4219H155.582V53.4219ZM148.55 53.4219V52.4219H147.55V53.4219H148.55ZM148.55 71V72H149.55V71H148.55ZM141.519 71H140.519V72H141.519V71ZM141.519 46.3906V45.3906H140.519V46.3906H141.519ZM162.613 46.3906H163.613V45.3906H162.613V46.3906ZM162.613 70H155.582V72H162.613V70ZM156.582 71V53.4219H154.582V71H156.582ZM155.582 52.4219H148.55V54.4219H155.582V52.4219ZM147.55 53.4219V71H149.55V53.4219H147.55ZM148.55 70H141.519V72H148.55V70ZM142.519 71V46.3906H140.519V71H142.519ZM141.519 47.3906H162.613V45.3906H141.519V47.3906ZM161.613 46.3906V71H163.613V46.3906H161.613ZM196.816 46.3906L197.786 46.6332L198.096 45.3906H196.816V46.3906ZM195.058 53.4219V54.4219H195.839L196.028 53.6644L195.058 53.4219ZM182.753 53.4219V52.4219H181.753V53.4219H182.753ZM182.753 55.1797H181.753V56.1797H182.753V55.1797ZM195.058 55.1797H196.058V54.1797H195.058V55.1797ZM195.058 71V72H196.058V71H195.058ZM173.964 71L172.994 70.7575L172.683 72H173.964V71ZM175.722 63.9688V62.9688H174.941L174.752 63.7262L175.722 63.9688ZM188.027 63.9688V64.9688H189.027V63.9688H188.027ZM188.027 62.2109H189.027V61.2109H188.027V62.2109ZM175.722 62.2109H174.722V63.2109H175.722V62.2109ZM175.722 46.3906V45.3906H174.722V46.3906H175.722ZM195.845 46.1481L194.088 53.1793L196.028 53.6644L197.786 46.6332L195.845 46.1481ZM195.058 52.4219H182.753V54.4219H195.058V52.4219ZM181.753 53.4219V55.1797H183.753V53.4219H181.753ZM182.753 56.1797H195.058V54.1797H182.753V56.1797ZM194.058 55.1797V71H196.058V55.1797H194.058ZM195.058 70H173.964V72H195.058V70ZM174.934 71.2425L176.692 64.2113L174.752 63.7262L172.994 70.7575L174.934 71.2425ZM175.722 64.9688H188.027V62.9688H175.722V64.9688ZM189.027 63.9688V62.2109H187.027V63.9688H189.027ZM188.027 61.2109H175.722V63.2109H188.027V61.2109ZM176.722 62.2109V46.3906H174.722V62.2109H176.722ZM175.722 47.3906H196.816V45.3906H175.722V47.3906ZM220.069 46.3906L221.04 46.6332L221.35 45.3906H220.069V46.3906ZM218.312 53.4219V54.4219H219.092L219.282 53.6644L218.312 53.4219ZM206.007 53.4219V52.4219H205.007V53.4219H206.007ZM206.007 63.9688H205.007V64.9688H206.007V63.9688ZM220.069 63.9688L221.04 64.2113L221.35 62.9688H220.069V63.9688ZM218.312 71V72H219.092L219.282 71.2425L218.312 71ZM198.976 71H197.976V72H198.976V71ZM198.976 46.3906V45.3906H197.976V46.3906H198.976ZM219.099 46.1481L217.341 53.1793L219.282 53.6644L221.04 46.6332L219.099 46.1481ZM218.312 52.4219H206.007V54.4219H218.312V52.4219ZM205.007 53.4219V63.9688H207.007V53.4219H205.007ZM206.007 64.9688H220.069V62.9688H206.007V64.9688ZM219.099 63.7262L217.341 70.7575L219.282 71.2425L221.04 64.2113L219.099 63.7262ZM218.312 70H198.976V72H218.312V70ZM199.976 71V46.3906H197.976V71H199.976ZM198.976 47.3906H220.069V45.3906H198.976V47.3906ZM222.229 46.3906V45.3906H221.229V46.3906H222.229ZM229.261 46.3906H230.261V45.3906H229.261V46.3906ZM229.261 55.1797H228.261V56.1797H229.261V55.1797ZM236.292 55.1797V56.1797H237.292V55.1797H236.292ZM236.292 46.3906V45.3906H235.292V46.3906H236.292ZM243.323 46.3906H244.323V45.3906H243.323V46.3906ZM243.323 71V72H244.323V71H243.323ZM236.292 71H235.292V72H236.292V71ZM236.292 62.2109H237.292V61.2109H236.292V62.2109ZM229.261 62.2109V61.2109H228.261V62.2109H229.261ZM229.261 71V72H230.261V71H229.261ZM222.229 71H221.229V72H222.229V71ZM222.229 47.3906H229.261V45.3906H222.229V47.3906ZM228.261 46.3906V55.1797H230.261V46.3906H228.261ZM229.261 56.1797H236.292V54.1797H229.261V56.1797ZM237.292 55.1797V46.3906H235.292V55.1797H237.292ZM236.292 47.3906H243.323V45.3906H236.292V47.3906ZM242.323 46.3906V71H244.323V46.3906H242.323ZM243.323 70H236.292V72H243.323V70ZM237.292 71V62.2109H235.292V71H237.292ZM236.292 61.2109H229.261V63.2109H236.292V61.2109ZM228.261 62.2109V71H230.261V62.2109H228.261ZM229.261 70H222.229V72H229.261V70ZM223.229 71V46.3906H221.229V71H223.229ZM247.241 46.3906V45.3906H246.241V46.3906H247.241ZM254.272 46.3906H255.272V45.3906H254.272V46.3906ZM254.272 63.9688H253.272V64.9688H254.272V63.9688ZM256.03 63.9688V64.9688H257.03V63.9688H256.03ZM256.03 46.3906V45.3906H255.03V46.3906H256.03ZM263.061 46.3906H264.061V45.3906H263.061V46.3906ZM263.061 63.9688H262.061V64.9688H263.061V63.9688ZM264.819 63.9688V64.9688H265.819V63.9688H264.819ZM264.819 46.3906V45.3906H263.819V46.3906H264.819ZM271.85 46.3906H272.85V45.3906H271.85V46.3906ZM271.85 71V72H272.85V71H271.85ZM247.241 71H246.241V72H247.241V71ZM247.241 47.3906H254.272V45.3906H247.241V47.3906ZM253.272 46.3906V63.9688H255.272V46.3906H253.272ZM254.272 64.9688H256.03V62.9688H254.272V64.9688ZM257.03 63.9688V46.3906H255.03V63.9688H257.03ZM256.03 47.3906H263.061V45.3906H256.03V47.3906ZM262.061 46.3906V63.9688H264.061V46.3906H262.061ZM263.061 64.9688H264.819V62.9688H263.061V64.9688ZM265.819 63.9688V46.3906H263.819V63.9688H265.819ZM264.819 47.3906H271.85V45.3906H264.819V47.3906ZM270.85 46.3906V71H272.85V46.3906H270.85ZM271.85 70H247.241V72H271.85V70ZM248.241 71V46.3906H246.241V71H248.241ZM289.831 62.2109H290.831V61.2109H289.831V62.2109ZM282.799 62.2109V61.2109H281.799V62.2109H282.799ZM282.799 71V72H283.799V71H282.799ZM275.768 71H274.768V72H275.768V71ZM275.768 46.3906V45.3906H274.768V46.3906H275.768ZM296.862 46.3906H297.862V45.3906H296.862V46.3906ZM296.862 71V72H297.862V71H296.862ZM289.831 71H288.831V72H289.831V71ZM282.799 55.1797H281.799V56.1797H282.799V55.1797ZM289.831 55.1797V56.1797H290.831V55.1797H289.831ZM289.831 53.4219H290.831V52.4219H289.831V53.4219ZM282.799 53.4219V52.4219H281.799V53.4219H282.799ZM289.831 61.2109H282.799V63.2109H289.831V61.2109ZM281.799 62.2109V71H283.799V62.2109H281.799ZM282.799 70H275.768V72H282.799V70ZM276.768 71V46.3906H274.768V71H276.768ZM275.768 47.3906H296.862V45.3906H275.768V47.3906ZM295.862 46.3906V71H297.862V46.3906H295.862ZM296.862 70H289.831V72H296.862V70ZM290.831 71V62.2109H288.831V71H290.831ZM282.799 56.1797H289.831V54.1797H282.799V56.1797ZM290.831 55.1797V53.4219H288.831V55.1797H290.831ZM289.831 52.4219H282.799V54.4219H289.831V52.4219ZM281.799 53.4219V55.1797H283.799V53.4219H281.799ZM314.842 53.4219H315.842V52.4219H314.842V53.4219ZM307.811 53.4219V52.4219H306.811V53.4219H307.811ZM307.811 55.1797H306.811V56.1797H307.811V55.1797ZM314.842 55.1797V56.1797H315.842V55.1797H314.842ZM321.873 46.3906H322.873V45.3906H321.873V46.3906ZM321.873 62.2109V63.2109H322.873V62.2109H321.873ZM317.989 62.2109V61.2109H316.262L317.121 62.7088L317.989 62.2109ZM323.034 71V72H324.761L323.901 70.5022L323.034 71ZM315.123 71L314.256 71.4972L314.544 72H315.123V71ZM307.811 58.2383L308.679 57.7411L306.811 54.4817V58.2383H307.811ZM307.811 71V72H308.811V71H307.811ZM300.78 71H299.78V72H300.78V71ZM300.78 46.3906V45.3906H299.78V46.3906H300.78ZM314.842 52.4219H307.811V54.4219H314.842V52.4219ZM306.811 53.4219V55.1797H308.811V53.4219H306.811ZM307.811 56.1797H314.842V54.1797H307.811V56.1797ZM315.842 55.1797V53.4219H313.842V55.1797H315.842ZM320.873 46.3906V62.2109H322.873V46.3906H320.873ZM321.873 61.2109H317.989V63.2109H321.873V61.2109ZM317.121 62.7088L322.166 71.4978L323.901 70.5022L318.856 61.7131L317.121 62.7088ZM323.034 70H315.123V72H323.034V70ZM315.991 70.5028L308.679 57.7411L306.943 58.7354L314.256 71.4972L315.991 70.5028ZM306.811 58.2383V71H308.811V58.2383H306.811ZM307.811 70H300.78V72H307.811V70ZM301.78 71V46.3906H299.78V71H301.78ZM300.78 47.3906H321.873V45.3906H300.78V47.3906ZM346.885 46.3906L347.855 46.6332L348.166 45.3906H346.885V46.3906ZM345.127 53.4219V54.4219H345.908L346.097 53.6644L345.127 53.4219ZM338.975 53.4219V52.4219H337.975V53.4219H338.975ZM338.975 71V72H339.975V71H338.975ZM331.944 71H330.944V72H331.944V71ZM331.944 53.4219H332.944V52.4219H331.944V53.4219ZM325.791 53.4219H324.791V54.4219H325.791V53.4219ZM325.791 46.3906V45.3906H324.791V46.3906H325.791ZM345.915 46.1481L344.157 53.1793L346.097 53.6644L347.855 46.6332L345.915 46.1481ZM345.127 52.4219H338.975V54.4219H345.127V52.4219ZM337.975 53.4219V71H339.975V53.4219H337.975ZM338.975 70H331.944V72H338.975V70ZM332.944 71V53.4219H330.944V71H332.944ZM331.944 52.4219H325.791V54.4219H331.944V52.4219ZM326.791 53.4219V46.3906H324.791V53.4219H326.791ZM325.791 47.3906H346.885V45.3906H325.791V47.3906ZM361.35 53.4219H362.35V52.4219H361.35V53.4219ZM349.045 53.4219H348.045V54.4219H349.045V53.4219ZM349.045 46.3906V45.3906H348.045V46.3906H349.045ZM368.381 46.3906H369.381V45.3906H368.381V46.3906ZM368.381 62.2109V63.2109H369.381V62.2109H368.381ZM356.076 62.2109V61.2109H355.076V62.2109H356.076ZM356.076 63.9688H355.076V64.9688H356.076V63.9688ZM368.381 63.9688H369.381V62.9688H368.381V63.9688ZM368.381 71V72H369.381V71H368.381ZM349.045 71H348.045V72H349.045V71ZM349.045 55.1797V54.1797H348.045V55.1797H349.045ZM361.35 55.1797V56.1797H362.35V55.1797H361.35ZM361.35 52.4219H349.045V54.4219H361.35V52.4219ZM350.045 53.4219V46.3906H348.045V53.4219H350.045ZM349.045 47.3906H368.381V45.3906H349.045V47.3906ZM367.381 46.3906V62.2109H369.381V46.3906H367.381ZM368.381 61.2109H356.076V63.2109H368.381V61.2109ZM355.076 62.2109V63.9688H357.076V62.2109H355.076ZM356.076 64.9688H368.381V62.9688H356.076V64.9688ZM367.381 63.9688V71H369.381V63.9688H367.381ZM368.381 70H349.045V72H368.381V70ZM350.045 71V55.1797H348.045V71H350.045ZM349.045 56.1797H361.35V54.1797H349.045V56.1797ZM362.35 55.1797V53.4219H360.35V55.1797H362.35ZM396.908 71V72H397.908V71H396.908ZM389.877 71H388.877V72H389.877V71ZM389.877 53.4219H390.877V52.4219H389.877V53.4219ZM388.119 53.4219V52.4219H387.119V53.4219H388.119ZM388.119 71V72H389.119V71H388.119ZM381.088 71H380.088V72H381.088V71ZM381.088 53.4219H382.088V52.4219H381.088V53.4219ZM379.33 53.4219V52.4219H378.33V53.4219H379.33ZM379.33 71V72H380.33V71H379.33ZM372.299 71H371.299V72H372.299V71ZM372.299 46.3906V45.3906H371.299V46.3906H372.299ZM396.908 46.3906H397.908V45.3906H396.908V46.3906ZM396.908 70H389.877V72H396.908V70ZM390.877 71V53.4219H388.877V71H390.877ZM389.877 52.4219H388.119V54.4219H389.877V52.4219ZM387.119 53.4219V71H389.119V53.4219H387.119ZM388.119 70H381.088V72H388.119V70ZM382.088 71V53.4219H380.088V71H382.088ZM381.088 52.4219H379.33V54.4219H381.088V52.4219ZM378.33 53.4219V71H380.33V53.4219H378.33ZM379.33 70H372.299V72H379.33V70ZM373.299 71V46.3906H371.299V71H373.299ZM372.299 47.3906H396.908V45.3906H372.299V47.3906ZM395.908 46.3906V71H397.908V46.3906H395.908ZM414.888 62.2109H415.888V61.2109H414.888V62.2109ZM407.857 62.2109V61.2109H406.857V62.2109H407.857ZM407.857 71V72H408.857V71H407.857ZM400.826 71H399.826V72H400.826V71ZM400.826 46.3906V45.3906H399.826V46.3906H400.826ZM421.92 46.3906H422.92V45.3906H421.92V46.3906ZM421.92 71V72H422.92V71H421.92ZM414.888 71H413.888V72H414.888V71ZM407.857 55.1797H406.857V56.1797H407.857V55.1797ZM414.888 55.1797V56.1797H415.888V55.1797H414.888ZM414.888 53.4219H415.888V52.4219H414.888V53.4219ZM407.857 53.4219V52.4219H406.857V53.4219H407.857ZM414.888 61.2109H407.857V63.2109H414.888V61.2109ZM406.857 62.2109V71H408.857V62.2109H406.857ZM407.857 70H400.826V72H407.857V70ZM401.826 71V46.3906H399.826V71H401.826ZM400.826 47.3906H421.92V45.3906H400.826V47.3906ZM420.92 46.3906V71H422.92V46.3906H420.92ZM421.92 70H414.888V72H421.92V70ZM415.888 71V62.2109H413.888V71H415.888ZM407.857 56.1797H414.888V54.1797H407.857V56.1797ZM415.888 55.1797V53.4219H413.888V55.1797H415.888ZM414.888 52.4219H407.857V54.4219H414.888V52.4219ZM406.857 53.4219V55.1797H408.857V53.4219H406.857ZM446.931 71V72H447.931V71H446.931ZM439.9 71H438.9V72H439.9V71ZM439.9 53.4219H440.9V52.4219H439.9V53.4219ZM432.869 53.4219V52.4219H431.869V53.4219H432.869ZM432.869 71V72H433.869V71H432.869ZM425.837 71H424.837V72H425.837V71ZM425.837 46.3906V45.3906H424.837V46.3906H425.837ZM446.931 46.3906H447.931V45.3906H446.931V46.3906ZM446.931 70H439.9V72H446.931V70ZM440.9 71V53.4219H438.9V71H440.9ZM439.9 52.4219H432.869V54.4219H439.9V52.4219ZM431.869 53.4219V71H433.869V53.4219H431.869ZM432.869 70H425.837V72H432.869V70ZM426.837 71V46.3906H424.837V71H426.837ZM425.837 47.3906H446.931V45.3906H425.837V47.3906ZM445.931 46.3906V71H447.931V46.3906H445.931Z" fill="#34FF00" mask="url(#path-11-inside-1_63_597)"/>
</svg>
