<svg width="507" height="121" viewBox="0 0 507 121" fill="none" xmlns="http://www.w3.org/2000/svg">
<path d="M500.739 4.06801L457.413 46.796C455.626 48.5583 455.626 51.4417 457.413 53.204L500.739 95.932C501.694 96.8739 501.027 98.5 499.686 98.5H2.99999C2.17157 98.5 1.5 97.8284 1.5 97V3C1.5 2.17157 2.17157 1.5 3 1.5H253.5H499.686C501.027 1.5 501.694 3.12611 500.739 4.06801Z" fill="white" fill-opacity="0.8" stroke="#FFB800" stroke-width="3"/>
<path d="M500.739 24.068L457.413 66.796C455.626 68.5583 455.626 71.4417 457.413 73.204L500.739 115.932C501.694 116.874 501.027 118.5 499.686 118.5H2.99999C2.17157 118.5 1.5 117.828 1.5 117V23C1.5 22.1716 2.17157 21.5 3 21.5H253.5H499.686C501.027 21.5 501.694 23.1261 500.739 24.068Z" fill="black" fill-opacity="0.6" stroke="white" stroke-width="3"/>
<path d="M500.739 14.068L457.413 56.796C455.626 58.5583 455.626 61.4417 457.413 63.204L500.739 105.932C501.694 106.874 501.027 108.5 499.686 108.5H2.99999C2.17157 108.5 1.5 107.828 1.5 107V13C1.5 12.1716 2.17157 11.5 3 11.5H253.5H499.686C501.027 11.5 501.694 13.1261 500.739 14.068Z" fill="#E7E7E7" fill-opacity="0.7" stroke="#76FF03" stroke-width="3"/>
<line x1="10" y1="23.5" x2="30" y2="23.5" stroke="#FFB800" stroke-width="3"/>
<line x1="11.5" y1="22" x2="11.5" y2="97" stroke="#FFB800" stroke-width="3"/>
<line x1="10" y1="98.5" x2="30" y2="98.5" stroke="#FFB800" stroke-width="3"/>
<line y1="-1.5" x2="50.3512" y2="-1.5" transform="matrix(0.712005 -0.702174 0.712005 0.702174 449.202 55.3553)" stroke="#FFB800" stroke-width="3"/>
<line x1="439.062" y1="53.5" x2="449.202" y2="53.5" stroke="#FFB800" stroke-width="3"/>
<line x1="439.062" y1="66.5" x2="449.202" y2="66.5" stroke="#FFB800" stroke-width="3"/>
<line y1="-1.5" x2="50.3512" y2="-1.5" transform="matrix(0.712005 0.702174 -0.712005 0.702174 446.16 67)" stroke="#FFB800" stroke-width="3"/>
<mask id="path-11-inside-1_63_108" fill="white">
<path d="M69.1211 71L70.8789 63.9688H82.3047V46.3906H89.3359V71H69.1211ZM114.347 46.3906L112.59 53.4219H100.285V55.1797H112.59V71H91.4959L93.2537 63.9688H105.558V62.2109H93.2537V46.3906H114.347ZM130.57 53.4219H123.539V63.9688H130.57V53.4219ZM137.601 46.3906V71H116.507V46.3906H137.601ZM162.613 71H155.582V53.4219H148.55V71H141.519V46.3906H162.613V71ZM189.784 62.2109H182.753V71H175.722V46.3906H196.816V71H189.784V62.2109ZM182.753 55.1797H189.784V53.4219H182.753V55.1797ZM207.765 63.9688H221.827L220.069 71H200.733V46.3906H207.765V63.9688ZM245.081 46.3906L243.323 53.4219H231.018V55.1797H243.323L241.565 62.2109H231.018V63.9688H245.081L243.323 71H223.987V46.3906H245.081ZM259.651 71L256.909 65.9902L254.167 71H246.169L252.901 58.6953L246.169 46.3906H254.167L256.909 51.4004L259.651 46.3906H267.649L260.917 58.6953L267.649 71H259.651ZM284.557 62.2109H277.526V71H270.495V46.3906H291.588V71H284.557V62.2109ZM277.526 55.1797H284.557V53.4219H277.526V55.1797ZM316.6 71H309.569V53.4219H302.538V71H295.506V46.3906H316.6V71ZM334.58 53.4219H319.639L321.397 46.3906H341.612V71H320.518V55.1797H327.549V63.9688H334.58V53.4219ZM366.623 46.3906L364.865 53.4219H352.561V55.1797H364.865L363.108 62.2109H352.561V63.9688H366.623L364.865 71H345.529V46.3906H366.623ZM382.846 53.4219H375.814V55.1797H382.846V53.4219ZM389.877 46.3906V62.2109H385.992L391.037 71H383.127L375.814 58.2383V71H368.783V46.3906H389.877Z"/>
</mask>
<path d="M69.1211 71L70.8789 63.9688H82.3047V46.3906H89.3359V71H69.1211ZM114.347 46.3906L112.59 53.4219H100.285V55.1797H112.59V71H91.4959L93.2537 63.9688H105.558V62.2109H93.2537V46.3906H114.347ZM130.57 53.4219H123.539V63.9688H130.57V53.4219ZM137.601 46.3906V71H116.507V46.3906H137.601ZM162.613 71H155.582V53.4219H148.55V71H141.519V46.3906H162.613V71ZM189.784 62.2109H182.753V71H175.722V46.3906H196.816V71H189.784V62.2109ZM182.753 55.1797H189.784V53.4219H182.753V55.1797ZM207.765 63.9688H221.827L220.069 71H200.733V46.3906H207.765V63.9688ZM245.081 46.3906L243.323 53.4219H231.018V55.1797H243.323L241.565 62.2109H231.018V63.9688H245.081L243.323 71H223.987V46.3906H245.081ZM259.651 71L256.909 65.9902L254.167 71H246.169L252.901 58.6953L246.169 46.3906H254.167L256.909 51.4004L259.651 46.3906H267.649L260.917 58.6953L267.649 71H259.651ZM284.557 62.2109H277.526V71H270.495V46.3906H291.588V71H284.557V62.2109ZM277.526 55.1797H284.557V53.4219H277.526V55.1797ZM316.6 71H309.569V53.4219H302.538V71H295.506V46.3906H316.6V71ZM334.58 53.4219H319.639L321.397 46.3906H341.612V71H320.518V55.1797H327.549V63.9688H334.58V53.4219ZM366.623 46.3906L364.865 53.4219H352.561V55.1797H364.865L363.108 62.2109H352.561V63.9688H366.623L364.865 71H345.529V46.3906H366.623ZM382.846 53.4219H375.814V55.1797H382.846V53.4219ZM389.877 46.3906V62.2109H385.992L391.037 71H383.127L375.814 58.2383V71H368.783V46.3906H389.877Z" fill="white" fill-opacity="0.85"/>
<path d="M69.1211 71L68.151 70.7575L67.8403 72H69.1211V71ZM70.8789 63.9688V62.9688H70.0981L69.9088 63.7262L70.8789 63.9688ZM82.3047 63.9688V64.9688H83.3047V63.9688H82.3047ZM82.3047 46.3906V45.3906H81.3047V46.3906H82.3047ZM89.3359 46.3906H90.3359V45.3906H89.3359V46.3906ZM89.3359 71V72H90.3359V71H89.3359ZM70.0912 71.2425L71.849 64.2113L69.9088 63.7262L68.151 70.7575L70.0912 71.2425ZM70.8789 64.9688H82.3047V62.9688H70.8789V64.9688ZM83.3047 63.9688V46.3906H81.3047V63.9688H83.3047ZM82.3047 47.3906H89.3359V45.3906H82.3047V47.3906ZM88.3359 46.3906V71H90.3359V46.3906H88.3359ZM89.3359 70H69.1211V72H89.3359V70ZM114.347 46.3906L115.318 46.6332L115.628 45.3906H114.347V46.3906ZM112.59 53.4219V54.4219H113.37L113.56 53.6644L112.59 53.4219ZM100.285 53.4219V52.4219H99.285V53.4219H100.285ZM100.285 55.1797H99.285V56.1797H100.285V55.1797ZM112.59 55.1797H113.59V54.1797H112.59V55.1797ZM112.59 71V72H113.59V71H112.59ZM91.4959 71L90.5258 70.7575L90.2152 72H91.4959V71ZM93.2537 63.9688V62.9688H92.473L92.2836 63.7262L93.2537 63.9688ZM105.558 63.9688V64.9688H106.558V63.9688H105.558ZM105.558 62.2109H106.558V61.2109H105.558V62.2109ZM93.2537 62.2109H92.2537V63.2109H93.2537V62.2109ZM93.2537 46.3906V45.3906H92.2537V46.3906H93.2537ZM113.377 46.1481L111.62 53.1793L113.56 53.6644L115.318 46.6332L113.377 46.1481ZM112.59 52.4219H100.285V54.4219H112.59V52.4219ZM99.285 53.4219V55.1797H101.285V53.4219H99.285ZM100.285 56.1797H112.59V54.1797H100.285V56.1797ZM111.59 55.1797V71H113.59V55.1797H111.59ZM112.59 70H91.4959V72H112.59V70ZM92.4661 71.2425L94.2239 64.2113L92.2836 63.7262L90.5258 70.7575L92.4661 71.2425ZM93.2537 64.9688H105.558V62.9688H93.2537V64.9688ZM106.558 63.9688V62.2109H104.558V63.9688H106.558ZM105.558 61.2109H93.2537V63.2109H105.558V61.2109ZM94.2537 62.2109V46.3906H92.2537V62.2109H94.2537ZM93.2537 47.3906H114.347V45.3906H93.2537V47.3906ZM130.57 53.4219H131.57V52.4219H130.57V53.4219ZM123.539 53.4219V52.4219H122.539V53.4219H123.539ZM123.539 63.9688H122.539V64.9688H123.539V63.9688ZM130.57 63.9688V64.9688H131.57V63.9688H130.57ZM137.601 46.3906H138.601V45.3906H137.601V46.3906ZM137.601 71V72H138.601V71H137.601ZM116.507 71H115.507V72H116.507V71ZM116.507 46.3906V45.3906H115.507V46.3906H116.507ZM130.57 52.4219H123.539V54.4219H130.57V52.4219ZM122.539 53.4219V63.9688H124.539V53.4219H122.539ZM123.539 64.9688H130.57V62.9688H123.539V64.9688ZM131.57 63.9688V53.4219H129.57V63.9688H131.57ZM136.601 46.3906V71H138.601V46.3906H136.601ZM137.601 70H116.507V72H137.601V70ZM117.507 71V46.3906H115.507V71H117.507ZM116.507 47.3906H137.601V45.3906H116.507V47.3906ZM162.613 71V72H163.613V71H162.613ZM155.582 71H154.582V72H155.582V71ZM155.582 53.4219H156.582V52.4219H155.582V53.4219ZM148.55 53.4219V52.4219H147.55V53.4219H148.55ZM148.55 71V72H149.55V71H148.55ZM141.519 71H140.519V72H141.519V71ZM141.519 46.3906V45.3906H140.519V46.3906H141.519ZM162.613 46.3906H163.613V45.3906H162.613V46.3906ZM162.613 70H155.582V72H162.613V70ZM156.582 71V53.4219H154.582V71H156.582ZM155.582 52.4219H148.55V54.4219H155.582V52.4219ZM147.55 53.4219V71H149.55V53.4219H147.55ZM148.55 70H141.519V72H148.55V70ZM142.519 71V46.3906H140.519V71H142.519ZM141.519 47.3906H162.613V45.3906H141.519V47.3906ZM161.613 46.3906V71H163.613V46.3906H161.613ZM189.784 62.2109H190.784V61.2109H189.784V62.2109ZM182.753 62.2109V61.2109H181.753V62.2109H182.753ZM182.753 71V72H183.753V71H182.753ZM175.722 71H174.722V72H175.722V71ZM175.722 46.3906V45.3906H174.722V46.3906H175.722ZM196.816 46.3906H197.816V45.3906H196.816V46.3906ZM196.816 71V72H197.816V71H196.816ZM189.784 71H188.784V72H189.784V71ZM182.753 55.1797H181.753V56.1797H182.753V55.1797ZM189.784 55.1797V56.1797H190.784V55.1797H189.784ZM189.784 53.4219H190.784V52.4219H189.784V53.4219ZM182.753 53.4219V52.4219H181.753V53.4219H182.753ZM189.784 61.2109H182.753V63.2109H189.784V61.2109ZM181.753 62.2109V71H183.753V62.2109H181.753ZM182.753 70H175.722V72H182.753V70ZM176.722 71V46.3906H174.722V71H176.722ZM175.722 47.3906H196.816V45.3906H175.722V47.3906ZM195.816 46.3906V71H197.816V46.3906H195.816ZM196.816 70H189.784V72H196.816V70ZM190.784 71V62.2109H188.784V71H190.784ZM182.753 56.1797H189.784V54.1797H182.753V56.1797ZM190.784 55.1797V53.4219H188.784V55.1797H190.784ZM189.784 52.4219H182.753V54.4219H189.784V52.4219ZM181.753 53.4219V55.1797H183.753V53.4219H181.753ZM207.765 63.9688H206.765V64.9688H207.765V63.9688ZM221.827 63.9688L222.797 64.2113L223.108 62.9688H221.827V63.9688ZM220.069 71V72H220.85L221.04 71.2425L220.069 71ZM200.733 71H199.733V72H200.733V71ZM200.733 46.3906V45.3906H199.733V46.3906H200.733ZM207.765 46.3906H208.765V45.3906H207.765V46.3906ZM207.765 64.9688H221.827V62.9688H207.765V64.9688ZM220.857 63.7262L219.099 70.7575L221.04 71.2425L222.797 64.2113L220.857 63.7262ZM220.069 70H200.733V72H220.069V70ZM201.733 71V46.3906H199.733V71H201.733ZM200.733 47.3906H207.765V45.3906H200.733V47.3906ZM206.765 46.3906V63.9688H208.765V46.3906H206.765ZM245.081 46.3906L246.051 46.6332L246.362 45.3906H245.081V46.3906ZM243.323 53.4219V54.4219H244.104L244.293 53.6644L243.323 53.4219ZM231.018 53.4219V52.4219H230.018V53.4219H231.018ZM231.018 55.1797H230.018V56.1797H231.018V55.1797ZM243.323 55.1797L244.293 55.4222L244.604 54.1797H243.323V55.1797ZM241.565 62.2109V63.2109H242.346L242.535 62.4535L241.565 62.2109ZM231.018 62.2109V61.2109H230.018V62.2109H231.018ZM231.018 63.9688H230.018V64.9688H231.018V63.9688ZM245.081 63.9688L246.051 64.2113L246.362 62.9688H245.081V63.9688ZM243.323 71V72H244.104L244.293 71.2425L243.323 71ZM223.987 71H222.987V72H223.987V71ZM223.987 46.3906V45.3906H222.987V46.3906H223.987ZM244.111 46.1481L242.353 53.1793L244.293 53.6644L246.051 46.6332L244.111 46.1481ZM243.323 52.4219H231.018V54.4219H243.323V52.4219ZM230.018 53.4219V55.1797H232.018V53.4219H230.018ZM231.018 56.1797H243.323V54.1797H231.018V56.1797ZM242.353 54.9372L240.595 61.9684L242.535 62.4535L244.293 55.4222L242.353 54.9372ZM241.565 61.2109H231.018V63.2109H241.565V61.2109ZM230.018 62.2109V63.9688H232.018V62.2109H230.018ZM231.018 64.9688H245.081V62.9688H231.018V64.9688ZM244.111 63.7262L242.353 70.7575L244.293 71.2425L246.051 64.2113L244.111 63.7262ZM243.323 70H223.987V72H243.323V70ZM224.987 71V46.3906H222.987V71H224.987ZM223.987 47.3906H245.081V45.3906H223.987V47.3906ZM259.651 71L258.774 71.4801L259.058 72H259.651V71ZM256.909 65.9902L257.786 65.5101L256.909 63.9075L256.032 65.5101L256.909 65.9902ZM254.167 71V72H254.759L255.044 71.4801L254.167 71ZM246.169 71L245.291 70.52L244.482 72H246.169V71ZM252.901 58.6953L253.778 59.1753L254.041 58.6953L253.778 58.2153L252.901 58.6953ZM246.169 46.3906V45.3906H244.482L245.291 46.8706L246.169 46.3906ZM254.167 46.3906L255.044 45.9105L254.759 45.3906H254.167V46.3906ZM256.909 51.4004L256.032 51.8805L256.909 53.4831L257.786 51.8805L256.909 51.4004ZM259.651 46.3906V45.3906H259.058L258.774 45.9105L259.651 46.3906ZM267.649 46.3906L268.526 46.8706L269.336 45.3906H267.649V46.3906ZM260.917 58.6953L260.039 58.2153L259.777 58.6953L260.039 59.1753L260.917 58.6953ZM267.649 71V72H269.336L268.526 70.52L267.649 71ZM260.528 70.5199L257.786 65.5101L256.032 66.4704L258.774 71.4801L260.528 70.5199ZM256.032 65.5101L253.29 70.5199L255.044 71.4801L257.786 66.4704L256.032 65.5101ZM254.167 70H246.169V72H254.167V70ZM247.046 71.48L253.778 59.1753L252.024 58.2153L245.291 70.52L247.046 71.48ZM253.778 58.2153L247.046 45.9106L245.291 46.8706L252.024 59.1753L253.778 58.2153ZM246.169 47.3906H254.167V45.3906H246.169V47.3906ZM253.29 46.8708L256.032 51.8805L257.786 50.9202L255.044 45.9105L253.29 46.8708ZM257.786 51.8805L260.528 46.8708L258.774 45.9105L256.032 50.9202L257.786 51.8805ZM259.651 47.3906H267.649V45.3906H259.651V47.3906ZM266.772 45.9106L260.039 58.2153L261.794 59.1753L268.526 46.8706L266.772 45.9106ZM260.039 59.1753L266.772 71.48L268.526 70.52L261.794 58.2153L260.039 59.1753ZM267.649 70H259.651V72H267.649V70ZM284.557 62.2109H285.557V61.2109H284.557V62.2109ZM277.526 62.2109V61.2109H276.526V62.2109H277.526ZM277.526 71V72H278.526V71H277.526ZM270.495 71H269.495V72H270.495V71ZM270.495 46.3906V45.3906H269.495V46.3906H270.495ZM291.588 46.3906H292.588V45.3906H291.588V46.3906ZM291.588 71V72H292.588V71H291.588ZM284.557 71H283.557V72H284.557V71ZM277.526 55.1797H276.526V56.1797H277.526V55.1797ZM284.557 55.1797V56.1797H285.557V55.1797H284.557ZM284.557 53.4219H285.557V52.4219H284.557V53.4219ZM277.526 53.4219V52.4219H276.526V53.4219H277.526ZM284.557 61.2109H277.526V63.2109H284.557V61.2109ZM276.526 62.2109V71H278.526V62.2109H276.526ZM277.526 70H270.495V72H277.526V70ZM271.495 71V46.3906H269.495V71H271.495ZM270.495 47.3906H291.588V45.3906H270.495V47.3906ZM290.588 46.3906V71H292.588V46.3906H290.588ZM291.588 70H284.557V72H291.588V70ZM285.557 71V62.2109H283.557V71H285.557ZM277.526 56.1797H284.557V54.1797H277.526V56.1797ZM285.557 55.1797V53.4219H283.557V55.1797H285.557ZM284.557 52.4219H277.526V54.4219H284.557V52.4219ZM276.526 53.4219V55.1797H278.526V53.4219H276.526ZM316.6 71V72H317.6V71H316.6ZM309.569 71H308.569V72H309.569V71ZM309.569 53.4219H310.569V52.4219H309.569V53.4219ZM302.538 53.4219V52.4219H301.538V53.4219H302.538ZM302.538 71V72H303.538V71H302.538ZM295.506 71H294.506V72H295.506V71ZM295.506 46.3906V45.3906H294.506V46.3906H295.506ZM316.6 46.3906H317.6V45.3906H316.6V46.3906ZM316.6 70H309.569V72H316.6V70ZM310.569 71V53.4219H308.569V71H310.569ZM309.569 52.4219H302.538V54.4219H309.569V52.4219ZM301.538 53.4219V71H303.538V53.4219H301.538ZM302.538 70H295.506V72H302.538V70ZM296.506 71V46.3906H294.506V71H296.506ZM295.506 47.3906H316.6V45.3906H295.506V47.3906ZM315.6 46.3906V71H317.6V46.3906H315.6ZM334.58 53.4219H335.58V52.4219H334.58V53.4219ZM319.639 53.4219L318.669 53.1793L318.358 54.4219H319.639V53.4219ZM321.397 46.3906V45.3906H320.616L320.427 46.1481L321.397 46.3906ZM341.612 46.3906H342.612V45.3906H341.612V46.3906ZM341.612 71V72H342.612V71H341.612ZM320.518 71H319.518V72H320.518V71ZM320.518 55.1797V54.1797H319.518V55.1797H320.518ZM327.549 55.1797H328.549V54.1797H327.549V55.1797ZM327.549 63.9688H326.549V64.9688H327.549V63.9688ZM334.58 63.9688V64.9688H335.58V63.9688H334.58ZM334.58 52.4219H319.639V54.4219H334.58V52.4219ZM320.609 53.6644L322.367 46.6332L320.427 46.1481L318.669 53.1793L320.609 53.6644ZM321.397 47.3906H341.612V45.3906H321.397V47.3906ZM340.612 46.3906V71H342.612V46.3906H340.612ZM341.612 70H320.518V72H341.612V70ZM321.518 71V55.1797H319.518V71H321.518ZM320.518 56.1797H327.549V54.1797H320.518V56.1797ZM326.549 55.1797V63.9688H328.549V55.1797H326.549ZM327.549 64.9688H334.58V62.9688H327.549V64.9688ZM335.58 63.9688V53.4219H333.58V63.9688H335.58ZM366.623 46.3906L367.593 46.6332L367.904 45.3906H366.623V46.3906ZM364.865 53.4219V54.4219H365.646L365.835 53.6644L364.865 53.4219ZM352.561 53.4219V52.4219H351.561V53.4219H352.561ZM352.561 55.1797H351.561V56.1797H352.561V55.1797ZM364.865 55.1797L365.835 55.4222L366.146 54.1797H364.865V55.1797ZM363.108 62.2109V63.2109H363.888L364.078 62.4535L363.108 62.2109ZM352.561 62.2109V61.2109H351.561V62.2109H352.561ZM352.561 63.9688H351.561V64.9688H352.561V63.9688ZM366.623 63.9688L367.593 64.2113L367.904 62.9688H366.623V63.9688ZM364.865 71V72H365.646L365.835 71.2425L364.865 71ZM345.529 71H344.529V72H345.529V71ZM345.529 46.3906V45.3906H344.529V46.3906H345.529ZM365.653 46.1481L363.895 53.1793L365.835 53.6644L367.593 46.6332L365.653 46.1481ZM364.865 52.4219H352.561V54.4219H364.865V52.4219ZM351.561 53.4219V55.1797H353.561V53.4219H351.561ZM352.561 56.1797H364.865V54.1797H352.561V56.1797ZM363.895 54.9372L362.137 61.9684L364.078 62.4535L365.835 55.4222L363.895 54.9372ZM363.108 61.2109H352.561V63.2109H363.108V61.2109ZM351.561 62.2109V63.9688H353.561V62.2109H351.561ZM352.561 64.9688H366.623V62.9688H352.561V64.9688ZM365.653 63.7262L363.895 70.7575L365.835 71.2425L367.593 64.2113L365.653 63.7262ZM364.865 70H345.529V72H364.865V70ZM346.529 71V46.3906H344.529V71H346.529ZM345.529 47.3906H366.623V45.3906H345.529V47.3906ZM382.846 53.4219H383.846V52.4219H382.846V53.4219ZM375.814 53.4219V52.4219H374.814V53.4219H375.814ZM375.814 55.1797H374.814V56.1797H375.814V55.1797ZM382.846 55.1797V56.1797H383.846V55.1797H382.846ZM389.877 46.3906H390.877V45.3906H389.877V46.3906ZM389.877 62.2109V63.2109H390.877V62.2109H389.877ZM385.992 62.2109V61.2109H384.265L385.125 62.7088L385.992 62.2109ZM391.037 71V72H392.764L391.904 70.5022L391.037 71ZM383.127 71L382.259 71.4972L382.547 72H383.127V71ZM375.814 58.2383L376.682 57.7411L374.814 54.4817V58.2383H375.814ZM375.814 71V72H376.814V71H375.814ZM368.783 71H367.783V72H368.783V71ZM368.783 46.3906V45.3906H367.783V46.3906H368.783ZM382.846 52.4219H375.814V54.4219H382.846V52.4219ZM374.814 53.4219V55.1797H376.814V53.4219H374.814ZM375.814 56.1797H382.846V54.1797H375.814V56.1797ZM383.846 55.1797V53.4219H381.846V55.1797H383.846ZM388.877 46.3906V62.2109H390.877V46.3906H388.877ZM389.877 61.2109H385.992V63.2109H389.877V61.2109ZM385.125 62.7088L390.17 71.4978L391.904 70.5022L386.859 61.7131L385.125 62.7088ZM391.037 70H383.127V72H391.037V70ZM383.995 70.5028L376.682 57.7411L374.947 58.7354L382.259 71.4972L383.995 70.5028ZM374.814 58.2383V71H376.814V58.2383H374.814ZM375.814 70H368.783V72H375.814V70ZM369.783 71V46.3906H367.783V71H369.783ZM368.783 47.3906H389.877V45.3906H368.783V47.3906Z" fill="#34FF00" mask="url(#path-11-inside-1_63_108)"/>
</svg>
