<svg width="423" height="121" viewBox="0 0 423 121" fill="none" xmlns="http://www.w3.org/2000/svg">
<path d="M417.678 3.96881L381.194 47.0936C379.775 48.7713 379.775 51.2287 381.194 52.9064L417.678 96.0312C418.502 97.0061 417.809 98.5 416.532 98.5H2.99999C2.17157 98.5 1.5 97.8284 1.5 97V3C1.5 2.17157 2.17157 1.5 3 1.5H211.5H416.532C417.809 1.5 418.502 2.99391 417.678 3.96881Z" fill="white" fill-opacity="0.8" stroke="#FFB800" stroke-width="3"/>
<path d="M417.678 23.9688L381.194 67.0936C379.775 68.7713 379.775 71.2287 381.194 72.9064L417.678 116.031C418.502 117.006 417.809 118.5 416.532 118.5H2.99999C2.17157 118.5 1.5 117.828 1.5 117V23C1.5 22.1716 2.17157 21.5 3 21.5H211.5H416.532C417.809 21.5 418.502 22.9939 417.678 23.9688Z" fill="black" fill-opacity="0.6" stroke="white" stroke-width="3"/>
<path d="M417.678 13.9688L381.194 57.0936C379.775 58.7713 379.775 61.2287 381.194 62.9064L417.678 106.031C418.502 107.006 417.809 108.5 416.532 108.5H2.99999C2.17157 108.5 1.5 107.828 1.5 107V13C1.5 12.1716 2.17157 11.5 3 11.5H211.5H416.532C417.809 11.5 418.502 12.9939 417.678 13.9688Z" fill="#E7E7E7" fill-opacity="0.7" stroke="#76FF03" stroke-width="3"/>
<line x1="10" y1="23.5" x2="30" y2="23.5" stroke="#FFB800" stroke-width="3"/>
<line x1="11.5" y1="22" x2="11.5" y2="97" stroke="#FFB800" stroke-width="3"/>
<line x1="10" y1="98.5" x2="30" y2="98.5" stroke="#FFB800" stroke-width="3"/>
<line y1="-1.5" x2="46.3103" y2="-1.5" transform="matrix(0.645874 -0.763444 0.645874 0.763444 374.778 55.3553)" stroke="#FFB800" stroke-width="3"/>
<line x1="366.318" y1="53.5" x2="374.778" y2="53.5" stroke="#FFB800" stroke-width="3"/>
<line x1="366.318" y1="66.5" x2="374.778" y2="66.5" stroke="#FFB800" stroke-width="3"/>
<line y1="-1.5" x2="46.3103" y2="-1.5" transform="matrix(0.645874 0.763444 -0.645874 0.763444 372.24 67)" stroke="#FFB800" stroke-width="3"/>
<mask id="path-11-inside-1_63_489" fill="white">
<path d="M69.1211 71L70.8789 63.9688H82.3047V46.3906H89.3359V71H69.1211ZM114.347 46.3906L112.59 53.4219H100.285V55.1797H112.59V71H91.4959L93.2537 63.9688H105.558V62.2109H93.2537V46.3906H114.347ZM130.57 53.4219H123.539V63.9688H130.57V53.4219ZM137.601 46.3906V71H116.507V46.3906H137.601ZM162.613 71H155.582V53.4219H148.55V71H141.519V46.3906H162.613V71ZM189.784 53.4219H174.843L176.601 46.3906H196.816V71H175.722V55.1797H182.753V63.9688H189.784V53.4219ZM221.827 46.3906L220.069 53.4219H207.765V55.1797H220.069L218.312 62.2109H207.765V63.9688H221.827L220.069 71H200.733V46.3906H221.827ZM238.05 53.4219H231.018V55.1797H238.05V53.4219ZM245.081 46.3906V62.2109H241.196L246.241 71H238.331L231.018 58.2383V71H223.987V46.3906H245.081ZM248.999 46.3906H256.03V63.9688H263.061V46.3906H270.092V71H248.999V46.3906ZM281.042 63.9688H295.104L293.346 71H274.01V46.3906H281.042V63.9688ZM311.327 53.4219H304.295V63.9688H311.327V53.4219ZM318.358 46.3906V71H297.264V46.3906H318.358Z"/>
</mask>
<path d="M69.1211 71L70.8789 63.9688H82.3047V46.3906H89.3359V71H69.1211ZM114.347 46.3906L112.59 53.4219H100.285V55.1797H112.59V71H91.4959L93.2537 63.9688H105.558V62.2109H93.2537V46.3906H114.347ZM130.57 53.4219H123.539V63.9688H130.57V53.4219ZM137.601 46.3906V71H116.507V46.3906H137.601ZM162.613 71H155.582V53.4219H148.55V71H141.519V46.3906H162.613V71ZM189.784 53.4219H174.843L176.601 46.3906H196.816V71H175.722V55.1797H182.753V63.9688H189.784V53.4219ZM221.827 46.3906L220.069 53.4219H207.765V55.1797H220.069L218.312 62.2109H207.765V63.9688H221.827L220.069 71H200.733V46.3906H221.827ZM238.05 53.4219H231.018V55.1797H238.05V53.4219ZM245.081 46.3906V62.2109H241.196L246.241 71H238.331L231.018 58.2383V71H223.987V46.3906H245.081ZM248.999 46.3906H256.03V63.9688H263.061V46.3906H270.092V71H248.999V46.3906ZM281.042 63.9688H295.104L293.346 71H274.01V46.3906H281.042V63.9688ZM311.327 53.4219H304.295V63.9688H311.327V53.4219ZM318.358 46.3906V71H297.264V46.3906H318.358Z" fill="white" fill-opacity="0.85"/>
<path d="M69.1211 71L68.151 70.7575L67.8403 72H69.1211V71ZM70.8789 63.9688V62.9688H70.0981L69.9088 63.7262L70.8789 63.9688ZM82.3047 63.9688V64.9688H83.3047V63.9688H82.3047ZM82.3047 46.3906V45.3906H81.3047V46.3906H82.3047ZM89.3359 46.3906H90.3359V45.3906H89.3359V46.3906ZM89.3359 71V72H90.3359V71H89.3359ZM70.0912 71.2425L71.849 64.2113L69.9088 63.7262L68.151 70.7575L70.0912 71.2425ZM70.8789 64.9688H82.3047V62.9688H70.8789V64.9688ZM83.3047 63.9688V46.3906H81.3047V63.9688H83.3047ZM82.3047 47.3906H89.3359V45.3906H82.3047V47.3906ZM88.3359 46.3906V71H90.3359V46.3906H88.3359ZM89.3359 70H69.1211V72H89.3359V70ZM114.347 46.3906L115.318 46.6332L115.628 45.3906H114.347V46.3906ZM112.59 53.4219V54.4219H113.37L113.56 53.6644L112.59 53.4219ZM100.285 53.4219V52.4219H99.285V53.4219H100.285ZM100.285 55.1797H99.285V56.1797H100.285V55.1797ZM112.59 55.1797H113.59V54.1797H112.59V55.1797ZM112.59 71V72H113.59V71H112.59ZM91.4959 71L90.5258 70.7575L90.2152 72H91.4959V71ZM93.2537 63.9688V62.9688H92.473L92.2836 63.7262L93.2537 63.9688ZM105.558 63.9688V64.9688H106.558V63.9688H105.558ZM105.558 62.2109H106.558V61.2109H105.558V62.2109ZM93.2537 62.2109H92.2537V63.2109H93.2537V62.2109ZM93.2537 46.3906V45.3906H92.2537V46.3906H93.2537ZM113.377 46.1481L111.62 53.1793L113.56 53.6644L115.318 46.6332L113.377 46.1481ZM112.59 52.4219H100.285V54.4219H112.59V52.4219ZM99.285 53.4219V55.1797H101.285V53.4219H99.285ZM100.285 56.1797H112.59V54.1797H100.285V56.1797ZM111.59 55.1797V71H113.59V55.1797H111.59ZM112.59 70H91.4959V72H112.59V70ZM92.4661 71.2425L94.2239 64.2113L92.2836 63.7262L90.5258 70.7575L92.4661 71.2425ZM93.2537 64.9688H105.558V62.9688H93.2537V64.9688ZM106.558 63.9688V62.2109H104.558V63.9688H106.558ZM105.558 61.2109H93.2537V63.2109H105.558V61.2109ZM94.2537 62.2109V46.3906H92.2537V62.2109H94.2537ZM93.2537 47.3906H114.347V45.3906H93.2537V47.3906ZM130.57 53.4219H131.57V52.4219H130.57V53.4219ZM123.539 53.4219V52.4219H122.539V53.4219H123.539ZM123.539 63.9688H122.539V64.9688H123.539V63.9688ZM130.57 63.9688V64.9688H131.57V63.9688H130.57ZM137.601 46.3906H138.601V45.3906H137.601V46.3906ZM137.601 71V72H138.601V71H137.601ZM116.507 71H115.507V72H116.507V71ZM116.507 46.3906V45.3906H115.507V46.3906H116.507ZM130.57 52.4219H123.539V54.4219H130.57V52.4219ZM122.539 53.4219V63.9688H124.539V53.4219H122.539ZM123.539 64.9688H130.57V62.9688H123.539V64.9688ZM131.57 63.9688V53.4219H129.57V63.9688H131.57ZM136.601 46.3906V71H138.601V46.3906H136.601ZM137.601 70H116.507V72H137.601V70ZM117.507 71V46.3906H115.507V71H117.507ZM116.507 47.3906H137.601V45.3906H116.507V47.3906ZM162.613 71V72H163.613V71H162.613ZM155.582 71H154.582V72H155.582V71ZM155.582 53.4219H156.582V52.4219H155.582V53.4219ZM148.55 53.4219V52.4219H147.55V53.4219H148.55ZM148.55 71V72H149.55V71H148.55ZM141.519 71H140.519V72H141.519V71ZM141.519 46.3906V45.3906H140.519V46.3906H141.519ZM162.613 46.3906H163.613V45.3906H162.613V46.3906ZM162.613 70H155.582V72H162.613V70ZM156.582 71V53.4219H154.582V71H156.582ZM155.582 52.4219H148.55V54.4219H155.582V52.4219ZM147.55 53.4219V71H149.55V53.4219H147.55ZM148.55 70H141.519V72H148.55V70ZM142.519 71V46.3906H140.519V71H142.519ZM141.519 47.3906H162.613V45.3906H141.519V47.3906ZM161.613 46.3906V71H163.613V46.3906H161.613ZM189.784 53.4219H190.784V52.4219H189.784V53.4219ZM174.843 53.4219L173.873 53.1793L173.562 54.4219H174.843V53.4219ZM176.601 46.3906V45.3906H175.82L175.631 46.1481L176.601 46.3906ZM196.816 46.3906H197.816V45.3906H196.816V46.3906ZM196.816 71V72H197.816V71H196.816ZM175.722 71H174.722V72H175.722V71ZM175.722 55.1797V54.1797H174.722V55.1797H175.722ZM182.753 55.1797H183.753V54.1797H182.753V55.1797ZM182.753 63.9688H181.753V64.9688H182.753V63.9688ZM189.784 63.9688V64.9688H190.784V63.9688H189.784ZM189.784 52.4219H174.843V54.4219H189.784V52.4219ZM175.813 53.6644L177.571 46.6332L175.631 46.1481L173.873 53.1793L175.813 53.6644ZM176.601 47.3906H196.816V45.3906H176.601V47.3906ZM195.816 46.3906V71H197.816V46.3906H195.816ZM196.816 70H175.722V72H196.816V70ZM176.722 71V55.1797H174.722V71H176.722ZM175.722 56.1797H182.753V54.1797H175.722V56.1797ZM181.753 55.1797V63.9688H183.753V55.1797H181.753ZM182.753 64.9688H189.784V62.9688H182.753V64.9688ZM190.784 63.9688V53.4219H188.784V63.9688H190.784ZM221.827 46.3906L222.797 46.6332L223.108 45.3906H221.827V46.3906ZM220.069 53.4219V54.4219H220.85L221.04 53.6644L220.069 53.4219ZM207.765 53.4219V52.4219H206.765V53.4219H207.765ZM207.765 55.1797H206.765V56.1797H207.765V55.1797ZM220.069 55.1797L221.04 55.4222L221.35 54.1797H220.069V55.1797ZM218.312 62.2109V63.2109H219.092L219.282 62.4535L218.312 62.2109ZM207.765 62.2109V61.2109H206.765V62.2109H207.765ZM207.765 63.9688H206.765V64.9688H207.765V63.9688ZM221.827 63.9688L222.797 64.2113L223.108 62.9688H221.827V63.9688ZM220.069 71V72H220.85L221.04 71.2425L220.069 71ZM200.733 71H199.733V72H200.733V71ZM200.733 46.3906V45.3906H199.733V46.3906H200.733ZM220.857 46.1481L219.099 53.1793L221.04 53.6644L222.797 46.6332L220.857 46.1481ZM220.069 52.4219H207.765V54.4219H220.069V52.4219ZM206.765 53.4219V55.1797H208.765V53.4219H206.765ZM207.765 56.1797H220.069V54.1797H207.765V56.1797ZM219.099 54.9372L217.341 61.9684L219.282 62.4535L221.04 55.4222L219.099 54.9372ZM218.312 61.2109H207.765V63.2109H218.312V61.2109ZM206.765 62.2109V63.9688H208.765V62.2109H206.765ZM207.765 64.9688H221.827V62.9688H207.765V64.9688ZM220.857 63.7262L219.099 70.7575L221.04 71.2425L222.797 64.2113L220.857 63.7262ZM220.069 70H200.733V72H220.069V70ZM201.733 71V46.3906H199.733V71H201.733ZM200.733 47.3906H221.827V45.3906H200.733V47.3906ZM238.05 53.4219H239.05V52.4219H238.05V53.4219ZM231.018 53.4219V52.4219H230.018V53.4219H231.018ZM231.018 55.1797H230.018V56.1797H231.018V55.1797ZM238.05 55.1797V56.1797H239.05V55.1797H238.05ZM245.081 46.3906H246.081V45.3906H245.081V46.3906ZM245.081 62.2109V63.2109H246.081V62.2109H245.081ZM241.196 62.2109V61.2109H239.469L240.329 62.7088L241.196 62.2109ZM246.241 71V72H247.968L247.108 70.5022L246.241 71ZM238.331 71L237.463 71.4972L237.751 72H238.331V71ZM231.018 58.2383L231.886 57.7411L230.018 54.4817V58.2383H231.018ZM231.018 71V72H232.018V71H231.018ZM223.987 71H222.987V72H223.987V71ZM223.987 46.3906V45.3906H222.987V46.3906H223.987ZM238.05 52.4219H231.018V54.4219H238.05V52.4219ZM230.018 53.4219V55.1797H232.018V53.4219H230.018ZM231.018 56.1797H238.05V54.1797H231.018V56.1797ZM239.05 55.1797V53.4219H237.05V55.1797H239.05ZM244.081 46.3906V62.2109H246.081V46.3906H244.081ZM245.081 61.2109H241.196V63.2109H245.081V61.2109ZM240.329 62.7088L245.374 71.4978L247.108 70.5022L242.063 61.7131L240.329 62.7088ZM246.241 70H238.331V72H246.241V70ZM239.199 70.5028L231.886 57.7411L230.151 58.7354L237.463 71.4972L239.199 70.5028ZM230.018 58.2383V71H232.018V58.2383H230.018ZM231.018 70H223.987V72H231.018V70ZM224.987 71V46.3906H222.987V71H224.987ZM223.987 47.3906H245.081V45.3906H223.987V47.3906ZM248.999 46.3906V45.3906H247.999V46.3906H248.999ZM256.03 46.3906H257.03V45.3906H256.03V46.3906ZM256.03 63.9688H255.03V64.9688H256.03V63.9688ZM263.061 63.9688V64.9688H264.061V63.9688H263.061ZM263.061 46.3906V45.3906H262.061V46.3906H263.061ZM270.092 46.3906H271.092V45.3906H270.092V46.3906ZM270.092 71V72H271.092V71H270.092ZM248.999 71H247.999V72H248.999V71ZM248.999 47.3906H256.03V45.3906H248.999V47.3906ZM255.03 46.3906V63.9688H257.03V46.3906H255.03ZM256.03 64.9688H263.061V62.9688H256.03V64.9688ZM264.061 63.9688V46.3906H262.061V63.9688H264.061ZM263.061 47.3906H270.092V45.3906H263.061V47.3906ZM269.092 46.3906V71H271.092V46.3906H269.092ZM270.092 70H248.999V72H270.092V70ZM249.999 71V46.3906H247.999V71H249.999ZM281.042 63.9688H280.042V64.9688H281.042V63.9688ZM295.104 63.9688L296.074 64.2113L296.385 62.9688H295.104V63.9688ZM293.346 71V72H294.127L294.316 71.2425L293.346 71ZM274.01 71H273.01V72H274.01V71ZM274.01 46.3906V45.3906H273.01V46.3906H274.01ZM281.042 46.3906H282.042V45.3906H281.042V46.3906ZM281.042 64.9688H295.104V62.9688H281.042V64.9688ZM294.134 63.7262L292.376 70.7575L294.316 71.2425L296.074 64.2113L294.134 63.7262ZM293.346 70H274.01V72H293.346V70ZM275.01 71V46.3906H273.01V71H275.01ZM274.01 47.3906H281.042V45.3906H274.01V47.3906ZM280.042 46.3906V63.9688H282.042V46.3906H280.042ZM311.327 53.4219H312.327V52.4219H311.327V53.4219ZM304.295 53.4219V52.4219H303.295V53.4219H304.295ZM304.295 63.9688H303.295V64.9688H304.295V63.9688ZM311.327 63.9688V64.9688H312.327V63.9688H311.327ZM318.358 46.3906H319.358V45.3906H318.358V46.3906ZM318.358 71V72H319.358V71H318.358ZM297.264 71H296.264V72H297.264V71ZM297.264 46.3906V45.3906H296.264V46.3906H297.264ZM311.327 52.4219H304.295V54.4219H311.327V52.4219ZM303.295 53.4219V63.9688H305.295V53.4219H303.295ZM304.295 64.9688H311.327V62.9688H304.295V64.9688ZM312.327 63.9688V53.4219H310.327V63.9688H312.327ZM317.358 46.3906V71H319.358V46.3906H317.358ZM318.358 70H297.264V72H318.358V70ZM298.264 71V46.3906H296.264V71H298.264ZM297.264 47.3906H318.358V45.3906H297.264V47.3906Z" fill="#34FF00" mask="url(#path-11-inside-1_63_489)"/>
</svg>
