<svg width="461" height="121" viewBox="0 0 461 121" fill="none" xmlns="http://www.w3.org/2000/svg">
<path d="M455.256 4.01678L415.672 46.9497C414.083 48.6729 414.083 51.3271 415.672 53.0503L455.256 95.9832C456.142 96.9443 455.461 98.5 454.153 98.5H2.99999C2.17157 98.5 1.5 97.8284 1.5 97V3C1.5 2.17157 2.17157 1.5 3 1.5H230.5H454.153C455.461 1.5 456.142 3.05571 455.256 4.01678Z" fill="white" fill-opacity="0.8" stroke="#FFB800" stroke-width="3"/>
<path d="M455.256 24.0168L415.672 66.9497C414.083 68.6729 414.083 71.3271 415.672 73.0503L455.256 115.983C456.142 116.944 455.461 118.5 454.153 118.5H2.99999C2.17157 118.5 1.5 117.828 1.5 117V23C1.5 22.1716 2.17157 21.5 3 21.5H230.5H454.153C455.461 21.5 456.142 23.0557 455.256 24.0168Z" fill="black" fill-opacity="0.6" stroke="white" stroke-width="3"/>
<path d="M455.256 14.0168L415.672 56.9497C414.083 58.6729 414.083 61.3271 415.672 63.0503L455.256 105.983C456.142 106.944 455.461 108.5 454.153 108.5H2.99999C2.17157 108.5 1.5 107.828 1.5 107V13C1.5 12.1716 2.17157 11.5 3 11.5H230.5H454.153C455.461 11.5 456.142 13.0557 455.256 14.0168Z" fill="#E7E7E7" fill-opacity="0.7" stroke="#76FF03" stroke-width="3"/>
<line x1="10" y1="23.5" x2="30" y2="23.5" stroke="#FFB800" stroke-width="3"/>
<line x1="11.5" y1="22" x2="11.5" y2="97" stroke="#FFB800" stroke-width="3"/>
<line x1="10" y1="98.5" x2="30" y2="98.5" stroke="#FFB800" stroke-width="3"/>
<line y1="-1.5" x2="48.0896" y2="-1.5" transform="matrix(0.677853 -0.735198 0.677853 0.735198 408.446 55.3555)" stroke="#FFB800" stroke-width="3"/>
<line x1="399.226" y1="53.5" x2="408.446" y2="53.5" stroke="#FFB800" stroke-width="3"/>
<line x1="399.226" y1="66.5" x2="408.446" y2="66.5" stroke="#FFB800" stroke-width="3"/>
<line y1="-1.5" x2="48.0896" y2="-1.5" transform="matrix(0.677853 0.735198 -0.677853 0.735198 405.68 67)" stroke="#FFB800" stroke-width="3"/>
<mask id="path-11-inside-1_63_669" fill="white">
<path d="M69.1211 71L70.8789 63.9688H82.3047V46.3906H89.3359V71H69.1211ZM114.347 46.3906L112.59 53.4219H100.285V55.1797H112.59V71H91.4959L93.2537 63.9688H105.558V62.2109H93.2537V46.3906H114.347ZM130.57 53.4219H123.539V63.9688H130.57V53.4219ZM137.601 46.3906V71H116.507V46.3906H137.601ZM162.613 71H155.582V53.4219H148.55V71H141.519V46.3906H162.613V71ZM175.722 46.3906H182.753V62.6855L189.784 63.8457V46.3906H196.816V72.7578L175.722 69.2422V46.3906ZM214.796 53.4219H207.765V63.9688H214.796V53.4219ZM221.827 46.3906V71H200.733V46.3906H221.827ZM239.807 53.4219H232.776V55.1797H239.807V53.4219ZM246.839 46.3906V62.2109H242.954L247.999 71H240.089L232.776 58.2383V71H225.745V46.3906H246.839ZM250.757 46.3906H257.788V55.1797H264.819V46.3906H271.85V71H264.819V62.2109H257.788V71H250.757V46.3906ZM296.862 46.3906L295.104 53.4219H282.799V55.1797H295.104L293.346 62.2109H282.799V63.9688H296.862L295.104 71H275.768V46.3906H296.862ZM320.116 46.3906L318.358 53.4219H306.053V55.1797H318.358L316.6 62.2109H306.053V63.9688H320.116L318.358 71H299.022V46.3906H320.116ZM343.369 46.3906L341.612 53.4219H329.307V55.1797H341.612V71H320.518L322.276 63.9688H334.58V62.2109H322.276V46.3906H343.369Z"/>
</mask>
<path d="M69.1211 71L70.8789 63.9688H82.3047V46.3906H89.3359V71H69.1211ZM114.347 46.3906L112.59 53.4219H100.285V55.1797H112.59V71H91.4959L93.2537 63.9688H105.558V62.2109H93.2537V46.3906H114.347ZM130.57 53.4219H123.539V63.9688H130.57V53.4219ZM137.601 46.3906V71H116.507V46.3906H137.601ZM162.613 71H155.582V53.4219H148.55V71H141.519V46.3906H162.613V71ZM175.722 46.3906H182.753V62.6855L189.784 63.8457V46.3906H196.816V72.7578L175.722 69.2422V46.3906ZM214.796 53.4219H207.765V63.9688H214.796V53.4219ZM221.827 46.3906V71H200.733V46.3906H221.827ZM239.807 53.4219H232.776V55.1797H239.807V53.4219ZM246.839 46.3906V62.2109H242.954L247.999 71H240.089L232.776 58.2383V71H225.745V46.3906H246.839ZM250.757 46.3906H257.788V55.1797H264.819V46.3906H271.85V71H264.819V62.2109H257.788V71H250.757V46.3906ZM296.862 46.3906L295.104 53.4219H282.799V55.1797H295.104L293.346 62.2109H282.799V63.9688H296.862L295.104 71H275.768V46.3906H296.862ZM320.116 46.3906L318.358 53.4219H306.053V55.1797H318.358L316.6 62.2109H306.053V63.9688H320.116L318.358 71H299.022V46.3906H320.116ZM343.369 46.3906L341.612 53.4219H329.307V55.1797H341.612V71H320.518L322.276 63.9688H334.58V62.2109H322.276V46.3906H343.369Z" fill="white" fill-opacity="0.85"/>
<path d="M69.1211 71L68.151 70.7575L67.8403 72H69.1211V71ZM70.8789 63.9688V62.9688H70.0981L69.9088 63.7262L70.8789 63.9688ZM82.3047 63.9688V64.9688H83.3047V63.9688H82.3047ZM82.3047 46.3906V45.3906H81.3047V46.3906H82.3047ZM89.3359 46.3906H90.3359V45.3906H89.3359V46.3906ZM89.3359 71V72H90.3359V71H89.3359ZM70.0912 71.2425L71.849 64.2113L69.9088 63.7262L68.151 70.7575L70.0912 71.2425ZM70.8789 64.9688H82.3047V62.9688H70.8789V64.9688ZM83.3047 63.9688V46.3906H81.3047V63.9688H83.3047ZM82.3047 47.3906H89.3359V45.3906H82.3047V47.3906ZM88.3359 46.3906V71H90.3359V46.3906H88.3359ZM89.3359 70H69.1211V72H89.3359V70ZM114.347 46.3906L115.318 46.6332L115.628 45.3906H114.347V46.3906ZM112.59 53.4219V54.4219H113.37L113.56 53.6644L112.59 53.4219ZM100.285 53.4219V52.4219H99.285V53.4219H100.285ZM100.285 55.1797H99.285V56.1797H100.285V55.1797ZM112.59 55.1797H113.59V54.1797H112.59V55.1797ZM112.59 71V72H113.59V71H112.59ZM91.4959 71L90.5258 70.7575L90.2152 72H91.4959V71ZM93.2537 63.9688V62.9688H92.473L92.2836 63.7262L93.2537 63.9688ZM105.558 63.9688V64.9688H106.558V63.9688H105.558ZM105.558 62.2109H106.558V61.2109H105.558V62.2109ZM93.2537 62.2109H92.2537V63.2109H93.2537V62.2109ZM93.2537 46.3906V45.3906H92.2537V46.3906H93.2537ZM113.377 46.1481L111.62 53.1793L113.56 53.6644L115.318 46.6332L113.377 46.1481ZM112.59 52.4219H100.285V54.4219H112.59V52.4219ZM99.285 53.4219V55.1797H101.285V53.4219H99.285ZM100.285 56.1797H112.59V54.1797H100.285V56.1797ZM111.59 55.1797V71H113.59V55.1797H111.59ZM112.59 70H91.4959V72H112.59V70ZM92.4661 71.2425L94.2239 64.2113L92.2836 63.7262L90.5258 70.7575L92.4661 71.2425ZM93.2537 64.9688H105.558V62.9688H93.2537V64.9688ZM106.558 63.9688V62.2109H104.558V63.9688H106.558ZM105.558 61.2109H93.2537V63.2109H105.558V61.2109ZM94.2537 62.2109V46.3906H92.2537V62.2109H94.2537ZM93.2537 47.3906H114.347V45.3906H93.2537V47.3906ZM130.57 53.4219H131.57V52.4219H130.57V53.4219ZM123.539 53.4219V52.4219H122.539V53.4219H123.539ZM123.539 63.9688H122.539V64.9688H123.539V63.9688ZM130.57 63.9688V64.9688H131.57V63.9688H130.57ZM137.601 46.3906H138.601V45.3906H137.601V46.3906ZM137.601 71V72H138.601V71H137.601ZM116.507 71H115.507V72H116.507V71ZM116.507 46.3906V45.3906H115.507V46.3906H116.507ZM130.57 52.4219H123.539V54.4219H130.57V52.4219ZM122.539 53.4219V63.9688H124.539V53.4219H122.539ZM123.539 64.9688H130.57V62.9688H123.539V64.9688ZM131.57 63.9688V53.4219H129.57V63.9688H131.57ZM136.601 46.3906V71H138.601V46.3906H136.601ZM137.601 70H116.507V72H137.601V70ZM117.507 71V46.3906H115.507V71H117.507ZM116.507 47.3906H137.601V45.3906H116.507V47.3906ZM162.613 71V72H163.613V71H162.613ZM155.582 71H154.582V72H155.582V71ZM155.582 53.4219H156.582V52.4219H155.582V53.4219ZM148.55 53.4219V52.4219H147.55V53.4219H148.55ZM148.55 71V72H149.55V71H148.55ZM141.519 71H140.519V72H141.519V71ZM141.519 46.3906V45.3906H140.519V46.3906H141.519ZM162.613 46.3906H163.613V45.3906H162.613V46.3906ZM162.613 70H155.582V72H162.613V70ZM156.582 71V53.4219H154.582V71H156.582ZM155.582 52.4219H148.55V54.4219H155.582V52.4219ZM147.55 53.4219V71H149.55V53.4219H147.55ZM148.55 70H141.519V72H148.55V70ZM142.519 71V46.3906H140.519V71H142.519ZM141.519 47.3906H162.613V45.3906H141.519V47.3906ZM161.613 46.3906V71H163.613V46.3906H161.613ZM175.722 46.3906V45.3906H174.722V46.3906H175.722ZM182.753 46.3906H183.753V45.3906H182.753V46.3906ZM182.753 62.6855H181.753V63.5341L182.59 63.6722L182.753 62.6855ZM189.784 63.8457L189.622 64.8324L190.784 65.0242V63.8457H189.784ZM189.784 46.3906V45.3906H188.784V46.3906H189.784ZM196.816 46.3906H197.816V45.3906H196.816V46.3906ZM196.816 72.7578L196.651 73.7442L197.816 73.9383V72.7578H196.816ZM175.722 69.2422H174.722V70.0893L175.557 70.2286L175.722 69.2422ZM175.722 47.3906H182.753V45.3906H175.722V47.3906ZM181.753 46.3906V62.6855H183.753V46.3906H181.753ZM182.59 63.6722L189.622 64.8324L189.947 62.859L182.916 61.6989L182.59 63.6722ZM190.784 63.8457V46.3906H188.784V63.8457H190.784ZM189.784 47.3906H196.816V45.3906H189.784V47.3906ZM195.816 46.3906V72.7578H197.816V46.3906H195.816ZM196.98 71.7714L175.886 68.2558L175.557 70.2286L196.651 73.7442L196.98 71.7714ZM176.722 69.2422V46.3906H174.722V69.2422H176.722ZM214.796 53.4219H215.796V52.4219H214.796V53.4219ZM207.765 53.4219V52.4219H206.765V53.4219H207.765ZM207.765 63.9688H206.765V64.9688H207.765V63.9688ZM214.796 63.9688V64.9688H215.796V63.9688H214.796ZM221.827 46.3906H222.827V45.3906H221.827V46.3906ZM221.827 71V72H222.827V71H221.827ZM200.733 71H199.733V72H200.733V71ZM200.733 46.3906V45.3906H199.733V46.3906H200.733ZM214.796 52.4219H207.765V54.4219H214.796V52.4219ZM206.765 53.4219V63.9688H208.765V53.4219H206.765ZM207.765 64.9688H214.796V62.9688H207.765V64.9688ZM215.796 63.9688V53.4219H213.796V63.9688H215.796ZM220.827 46.3906V71H222.827V46.3906H220.827ZM221.827 70H200.733V72H221.827V70ZM201.733 71V46.3906H199.733V71H201.733ZM200.733 47.3906H221.827V45.3906H200.733V47.3906ZM239.807 53.4219H240.807V52.4219H239.807V53.4219ZM232.776 53.4219V52.4219H231.776V53.4219H232.776ZM232.776 55.1797H231.776V56.1797H232.776V55.1797ZM239.807 55.1797V56.1797H240.807V55.1797H239.807ZM246.839 46.3906H247.839V45.3906H246.839V46.3906ZM246.839 62.2109V63.2109H247.839V62.2109H246.839ZM242.954 62.2109V61.2109H241.227L242.087 62.7088L242.954 62.2109ZM247.999 71V72H249.726L248.866 70.5022L247.999 71ZM240.089 71L239.221 71.4972L239.509 72H240.089V71ZM232.776 58.2383L233.644 57.7411L231.776 54.4817V58.2383H232.776ZM232.776 71V72H233.776V71H232.776ZM225.745 71H224.745V72H225.745V71ZM225.745 46.3906V45.3906H224.745V46.3906H225.745ZM239.807 52.4219H232.776V54.4219H239.807V52.4219ZM231.776 53.4219V55.1797H233.776V53.4219H231.776ZM232.776 56.1797H239.807V54.1797H232.776V56.1797ZM240.807 55.1797V53.4219H238.807V55.1797H240.807ZM245.839 46.3906V62.2109H247.839V46.3906H245.839ZM246.839 61.2109H242.954V63.2109H246.839V61.2109ZM242.087 62.7088L247.132 71.4978L248.866 70.5022L243.821 61.7131L242.087 62.7088ZM247.999 70H240.089V72H247.999V70ZM240.956 70.5028L233.644 57.7411L231.909 58.7354L239.221 71.4972L240.956 70.5028ZM231.776 58.2383V71H233.776V58.2383H231.776ZM232.776 70H225.745V72H232.776V70ZM226.745 71V46.3906H224.745V71H226.745ZM225.745 47.3906H246.839V45.3906H225.745V47.3906ZM250.757 46.3906V45.3906H249.757V46.3906H250.757ZM257.788 46.3906H258.788V45.3906H257.788V46.3906ZM257.788 55.1797H256.788V56.1797H257.788V55.1797ZM264.819 55.1797V56.1797H265.819V55.1797H264.819ZM264.819 46.3906V45.3906H263.819V46.3906H264.819ZM271.85 46.3906H272.85V45.3906H271.85V46.3906ZM271.85 71V72H272.85V71H271.85ZM264.819 71H263.819V72H264.819V71ZM264.819 62.2109H265.819V61.2109H264.819V62.2109ZM257.788 62.2109V61.2109H256.788V62.2109H257.788ZM257.788 71V72H258.788V71H257.788ZM250.757 71H249.757V72H250.757V71ZM250.757 47.3906H257.788V45.3906H250.757V47.3906ZM256.788 46.3906V55.1797H258.788V46.3906H256.788ZM257.788 56.1797H264.819V54.1797H257.788V56.1797ZM265.819 55.1797V46.3906H263.819V55.1797H265.819ZM264.819 47.3906H271.85V45.3906H264.819V47.3906ZM270.85 46.3906V71H272.85V46.3906H270.85ZM271.85 70H264.819V72H271.85V70ZM265.819 71V62.2109H263.819V71H265.819ZM264.819 61.2109H257.788V63.2109H264.819V61.2109ZM256.788 62.2109V71H258.788V62.2109H256.788ZM257.788 70H250.757V72H257.788V70ZM251.757 71V46.3906H249.757V71H251.757ZM296.862 46.3906L297.832 46.6332L298.143 45.3906H296.862V46.3906ZM295.104 53.4219V54.4219H295.885L296.074 53.6644L295.104 53.4219ZM282.799 53.4219V52.4219H281.799V53.4219H282.799ZM282.799 55.1797H281.799V56.1797H282.799V55.1797ZM295.104 55.1797L296.074 55.4222L296.385 54.1797H295.104V55.1797ZM293.346 62.2109V63.2109H294.127L294.316 62.4535L293.346 62.2109ZM282.799 62.2109V61.2109H281.799V62.2109H282.799ZM282.799 63.9688H281.799V64.9688H282.799V63.9688ZM296.862 63.9688L297.832 64.2113L298.143 62.9688H296.862V63.9688ZM295.104 71V72H295.885L296.074 71.2425L295.104 71ZM275.768 71H274.768V72H275.768V71ZM275.768 46.3906V45.3906H274.768V46.3906H275.768ZM295.892 46.1481L294.134 53.1793L296.074 53.6644L297.832 46.6332L295.892 46.1481ZM295.104 52.4219H282.799V54.4219H295.104V52.4219ZM281.799 53.4219V55.1797H283.799V53.4219H281.799ZM282.799 56.1797H295.104V54.1797H282.799V56.1797ZM294.134 54.9372L292.376 61.9684L294.316 62.4535L296.074 55.4222L294.134 54.9372ZM293.346 61.2109H282.799V63.2109H293.346V61.2109ZM281.799 62.2109V63.9688H283.799V62.2109H281.799ZM282.799 64.9688H296.862V62.9688H282.799V64.9688ZM295.892 63.7262L294.134 70.7575L296.074 71.2425L297.832 64.2113L295.892 63.7262ZM295.104 70H275.768V72H295.104V70ZM276.768 71V46.3906H274.768V71H276.768ZM275.768 47.3906H296.862V45.3906H275.768V47.3906ZM320.116 46.3906L321.086 46.6332L321.396 45.3906H320.116V46.3906ZM318.358 53.4219V54.4219H319.139L319.328 53.6644L318.358 53.4219ZM306.053 53.4219V52.4219H305.053V53.4219H306.053ZM306.053 55.1797H305.053V56.1797H306.053V55.1797ZM318.358 55.1797L319.328 55.4222L319.639 54.1797H318.358V55.1797ZM316.6 62.2109V63.2109H317.381L317.57 62.4535L316.6 62.2109ZM306.053 62.2109V61.2109H305.053V62.2109H306.053ZM306.053 63.9688H305.053V64.9688H306.053V63.9688ZM320.116 63.9688L321.086 64.2113L321.396 62.9688H320.116V63.9688ZM318.358 71V72H319.139L319.328 71.2425L318.358 71ZM299.022 71H298.022V72H299.022V71ZM299.022 46.3906V45.3906H298.022V46.3906H299.022ZM319.145 46.1481L317.388 53.1793L319.328 53.6644L321.086 46.6332L319.145 46.1481ZM318.358 52.4219H306.053V54.4219H318.358V52.4219ZM305.053 53.4219V55.1797H307.053V53.4219H305.053ZM306.053 56.1797H318.358V54.1797H306.053V56.1797ZM317.388 54.9372L315.63 61.9684L317.57 62.4535L319.328 55.4222L317.388 54.9372ZM316.6 61.2109H306.053V63.2109H316.6V61.2109ZM305.053 62.2109V63.9688H307.053V62.2109H305.053ZM306.053 64.9688H320.116V62.9688H306.053V64.9688ZM319.145 63.7262L317.388 70.7575L319.328 71.2425L321.086 64.2113L319.145 63.7262ZM318.358 70H299.022V72H318.358V70ZM300.022 71V46.3906H298.022V71H300.022ZM299.022 47.3906H320.116V45.3906H299.022V47.3906ZM343.369 46.3906L344.34 46.6332L344.65 45.3906H343.369V46.3906ZM341.612 53.4219V54.4219H342.392L342.582 53.6644L341.612 53.4219ZM329.307 53.4219V52.4219H328.307V53.4219H329.307ZM329.307 55.1797H328.307V56.1797H329.307V55.1797ZM341.612 55.1797H342.612V54.1797H341.612V55.1797ZM341.612 71V72H342.612V71H341.612ZM320.518 71L319.548 70.7575L319.237 72H320.518V71ZM322.276 63.9688V62.9688H321.495L321.305 63.7262L322.276 63.9688ZM334.58 63.9688V64.9688H335.58V63.9688H334.58ZM334.58 62.2109H335.58V61.2109H334.58V62.2109ZM322.276 62.2109H321.276V63.2109H322.276V62.2109ZM322.276 46.3906V45.3906H321.276V46.3906H322.276ZM342.399 46.1481L340.641 53.1793L342.582 53.6644L344.34 46.6332L342.399 46.1481ZM341.612 52.4219H329.307V54.4219H341.612V52.4219ZM328.307 53.4219V55.1797H330.307V53.4219H328.307ZM329.307 56.1797H341.612V54.1797H329.307V56.1797ZM340.612 55.1797V71H342.612V55.1797H340.612ZM341.612 70H320.518V72H341.612V70ZM321.488 71.2425L323.246 64.2113L321.305 63.7262L319.548 70.7575L321.488 71.2425ZM322.276 64.9688H334.58V62.9688H322.276V64.9688ZM335.58 63.9688V62.2109H333.58V63.9688H335.58ZM334.58 61.2109H322.276V63.2109H334.58V61.2109ZM323.276 62.2109V46.3906H321.276V62.2109H323.276ZM322.276 47.3906H343.369V45.3906H322.276V47.3906Z" fill="#34FF00" mask="url(#path-11-inside-1_63_669)"/>
</svg>
