<svg width="344" height="121" viewBox="0 0 344 121" fill="none" xmlns="http://www.w3.org/2000/svg">
<path d="M339.118 3.56681L309.122 47.166C307.948 48.8728 307.948 51.1272 309.122 52.834L339.118 96.4332C339.575 97.0967 339.1 98 338.295 98H3C2.44772 98 2 97.5523 2 97V3C2 2.44772 2.44771 2 3 2H172H338.295C339.1 2 339.575 2.90334 339.118 3.56681Z" fill="white" stroke="#FFB800" stroke-width="4"/>
<path d="M339.118 23.5668L309.122 67.166C307.948 68.8728 307.948 71.1272 309.122 72.834L339.118 116.433C339.575 117.097 339.1 118 338.295 118H3C2.44772 118 2 117.552 2 117V23C2 22.4477 2.44771 22 3 22H172H338.295C339.1 22 339.575 22.9033 339.118 23.5668Z" fill="black" stroke="white" stroke-width="4"/>
<path d="M339.118 13.5668L309.122 57.166C307.948 58.8728 307.948 61.1272 309.122 62.834L339.118 106.433C339.575 107.097 339.1 108 338.295 108H3C2.44772 108 2 107.552 2 107V13C2 12.4477 2.44771 12 3 12H172H338.295C339.1 12 339.575 12.9033 339.118 13.5668Z" fill="#E7E7E7" stroke="#76FF03" stroke-width="4"/>
<line x1="10" y1="23" x2="30" y2="23" stroke="#FFB800" stroke-width="4"/>
<line x1="12" y1="22" x2="12" y2="97" stroke="#FFB800" stroke-width="4"/>
<line x1="10" y1="98" x2="30" y2="98" stroke="#FFB800" stroke-width="4"/>
<line y1="-2" x2="42.9148" y2="-2" transform="matrix(0.566809 -0.823849 0.566809 0.823849 304.784 55.3553)" stroke="#FFB800" stroke-width="4"/>
<line x1="297.904" y1="53" x2="304.784" y2="53" stroke="#FFB800" stroke-width="4"/>
<line x1="297.904" y1="66" x2="304.784" y2="66" stroke="#FFB800" stroke-width="4"/>
<line y1="-2" x2="42.9148" y2="-2" transform="matrix(0.566808 0.82385 -0.566808 0.82385 302.72 67)" stroke="#FFB800" stroke-width="4"/>
<path d="M69.1211 71L70.8789 63.9688H82.3047V46.3906H89.3359V71H69.1211ZM112.188 46.3906L110.43 53.4219H98.125V55.1797H110.43V71H89.3359L91.0938 63.9688H103.398V62.2109H91.0938V46.3906H112.188ZM126.25 53.4219H119.219V63.9688H126.25V53.4219ZM133.281 46.3906V71H112.188V46.3906H133.281ZM156.133 71H149.102V53.4219H142.07V71H135.039V46.3906H156.133V71ZM171.953 61.1914V71H164.922V46.3906H171.953V56.1992L177.332 46.3906H185.33L178.598 58.6953L185.33 71H177.332L171.953 61.1914ZM186.016 46.3906H193.047V71H186.016V46.3906ZM208.867 53.4219H193.926L195.684 46.3906H215.898V71H194.805V55.1797H201.836V63.9688H208.867V53.4219ZM231.719 53.4219H216.777L218.535 46.3906H238.75V71H217.656V55.1797H224.688V63.9688H231.719V53.4219Z" fill="black"/>
</svg>
