<svg width="376" height="121" viewBox="0 0 376 121" fill="none" xmlns="http://www.w3.org/2000/svg">
<path d="M370.79 3.60102L338.157 46.9949C336.819 48.7747 336.819 51.2253 338.157 53.0051L370.79 96.399C371.285 97.0581 370.815 98 369.99 98H3.00001C2.44772 98 2 97.5523 2 97V3C2 2.44771 2.44771 2 3 2H188H369.99C370.815 2 371.285 2.94195 370.79 3.60102Z" fill="white" stroke="#FFB800" stroke-width="4"/>
<path d="M370.79 23.601L338.157 66.9949C336.819 68.7747 336.819 71.2253 338.157 73.0051L370.79 116.399C371.285 117.058 370.815 118 369.99 118H3.00001C2.44772 118 2 117.552 2 117V23C2 22.4477 2.44771 22 3 22H188H369.99C370.815 22 371.285 22.9419 370.79 23.601Z" fill="black" stroke="white" stroke-width="4"/>
<path d="M370.79 13.601L338.157 56.9949C336.819 58.7747 336.819 61.2253 338.157 63.0051L370.79 106.399C371.285 107.058 370.815 108 369.99 108H3.00001C2.44772 108 2 107.552 2 107V13C2 12.4477 2.44771 12 3 12H188H369.99C370.815 12 371.285 12.9419 370.79 13.601Z" fill="#E7E7E7" stroke="#76FF03" stroke-width="4"/>
<line x1="10" y1="23" x2="30" y2="23" stroke="#FFB800" stroke-width="4"/>
<line x1="12" y1="22" x2="12" y2="97" stroke="#FFB800" stroke-width="4"/>
<line x1="10" y1="98" x2="30" y2="98" stroke="#FFB800" stroke-width="4"/>
<line y1="-2" x2="44.2366" y2="-2" transform="matrix(0.601023 -0.799232 0.601023 0.799232 333.136 55.3555)" stroke="#FFB800" stroke-width="4"/>
<line x1="325.616" y1="53" x2="333.136" y2="53" stroke="#FFB800" stroke-width="4"/>
<line x1="325.616" y1="66" x2="333.136" y2="66" stroke="#FFB800" stroke-width="4"/>
<line y1="-2" x2="44.2366" y2="-2" transform="matrix(0.601023 0.799232 -0.601023 0.799232 330.88 67)" stroke="#FFB800" stroke-width="4"/>
<path d="M69.1211 71L70.8789 63.9688H82.3047V46.3906H89.3359V71H69.1211ZM112.188 46.3906L110.43 53.4219H98.125V55.1797H110.43V71H89.3359L91.0938 63.9688H103.398V62.2109H91.0938V46.3906H112.188ZM126.25 53.4219H119.219V63.9688H126.25V53.4219ZM133.281 46.3906V71H112.188V46.3906H133.281ZM156.133 71H149.102V53.4219H142.07V71H135.039V46.3906H156.133V71ZM186.016 46.3906L184.258 53.4219H178.105V71H171.074V53.4219H164.922V46.3906H186.016ZM207.109 46.3906L205.352 53.4219H193.047V55.1797H205.352L203.594 62.2109H193.047V63.9688H207.109L205.352 71H186.016V46.3906H207.109ZM221.172 53.4219H214.141V55.1797H221.172V53.4219ZM228.203 46.3906V62.2109H224.318L229.363 71H221.453L214.141 58.2383V71H207.109V46.3906H228.203ZM244.023 53.4219H236.992V55.1797H244.023V53.4219ZM251.055 46.3906V62.2109H247.17L252.215 71H244.305L236.992 58.2383V71H229.961V46.3906H251.055ZM266.875 55.1797V46.3906H273.906V62.2109H266.875V71H259.844V62.2109H252.812V46.3906H259.844V55.1797H266.875Z" fill="black"/>
</svg>
