<svg width="402" height="121" viewBox="0 0 402 121" fill="none" xmlns="http://www.w3.org/2000/svg">
<path d="M396.908 3.93989L362.142 47.1803C360.818 48.827 360.818 51.173 362.142 52.8197L396.908 96.0601C397.697 97.0417 396.998 98.5 395.739 98.5H3C2.17157 98.5 1.5 97.8284 1.5 97V3C1.5 2.17157 2.17157 1.5 3 1.5H201H395.739C396.998 1.5 397.697 2.95834 396.908 3.93989Z" fill="white" fill-opacity="0.8" stroke="#FFB800" stroke-width="3"/>
<path d="M396.908 23.9399L362.142 67.1803C360.818 68.827 360.818 71.173 362.142 72.8197L396.908 116.06C397.697 117.042 396.998 118.5 395.739 118.5H3C2.17157 118.5 1.5 117.828 1.5 117V23C1.5 22.1716 2.17157 21.5 3 21.5H201H395.739C396.998 21.5 397.697 22.9583 396.908 23.9399Z" fill="black" fill-opacity="0.6" stroke="white" stroke-width="3"/>
<path d="M396.908 13.9399L362.142 57.1803C360.818 58.827 360.818 61.173 362.142 62.8197L396.908 106.06C397.697 107.042 396.998 108.5 395.739 108.5H3C2.17157 108.5 1.5 107.828 1.5 107V13C1.5 12.1716 2.17157 11.5 3 11.5H201H395.739C396.998 11.5 397.697 12.9583 396.908 13.9399Z" fill="#E7E7E7" fill-opacity="0.7" stroke="#76FF03" stroke-width="3"/>
<line x1="10" y1="23.5" x2="30" y2="23.5" stroke="#FFB800" stroke-width="3"/>
<line x1="11.5" y1="22" x2="11.5" y2="97" stroke="#FFB800" stroke-width="3"/>
<line x1="10" y1="98.5" x2="30" y2="98.5" stroke="#FFB800" stroke-width="3"/>
<line y1="-1.5" x2="45.3654" y2="-1.5" transform="matrix(0.626594 -0.779346 0.626594 0.779346 356.172 55.3553)" stroke="#FFB800" stroke-width="3"/>
<line x1="348.132" y1="53.5" x2="356.172" y2="53.5" stroke="#FFB800" stroke-width="3"/>
<line x1="348.132" y1="66.5" x2="356.172" y2="66.5" stroke="#FFB800" stroke-width="3"/>
<line y1="-1.5" x2="45.3654" y2="-1.5" transform="matrix(0.626594 0.779346 -0.626594 0.779346 353.76 67)" stroke="#FFB800" stroke-width="3"/>
<mask id="path-11-inside-1_63_585" fill="white">
<path d="M69.1211 71L70.8789 63.9688H82.3047V46.3906H89.3359V71H69.1211ZM114.347 46.3906L112.59 53.4219H100.285V55.1797H112.59V71H91.4959L93.2537 63.9688H105.558V62.2109H93.2537V46.3906H114.347ZM130.57 53.4219H123.539V63.9688H130.57V53.4219ZM137.601 46.3906V71H116.507V46.3906H137.601ZM162.613 71H155.582V53.4219H148.55V71H141.519V46.3906H162.613V71ZM196.816 46.3906L195.058 53.4219H182.753V55.1797H195.058V71H173.964L175.722 63.9688H188.027V62.2109H175.722V46.3906H196.816ZM220.069 46.3906L218.312 53.4219H206.007V55.1797H218.312L216.554 62.2109H206.007V63.9688H220.069L218.312 71H198.976V46.3906H220.069ZM245.081 46.3906L243.323 53.4219H229.261V63.9688H236.292V62.2109H230.14L231.897 55.1797H243.323V71H222.229V46.3906H245.081ZM268.335 46.3906L266.577 53.4219H254.272V55.1797H266.577L264.819 62.2109H254.272V63.9688H268.335L266.577 71H247.241V46.3906H268.335ZM277.526 63.9688H291.588L289.831 71H270.495V46.3906H277.526V63.9688Z"/>
</mask>
<path d="M69.1211 71L70.8789 63.9688H82.3047V46.3906H89.3359V71H69.1211ZM114.347 46.3906L112.59 53.4219H100.285V55.1797H112.59V71H91.4959L93.2537 63.9688H105.558V62.2109H93.2537V46.3906H114.347ZM130.57 53.4219H123.539V63.9688H130.57V53.4219ZM137.601 46.3906V71H116.507V46.3906H137.601ZM162.613 71H155.582V53.4219H148.55V71H141.519V46.3906H162.613V71ZM196.816 46.3906L195.058 53.4219H182.753V55.1797H195.058V71H173.964L175.722 63.9688H188.027V62.2109H175.722V46.3906H196.816ZM220.069 46.3906L218.312 53.4219H206.007V55.1797H218.312L216.554 62.2109H206.007V63.9688H220.069L218.312 71H198.976V46.3906H220.069ZM245.081 46.3906L243.323 53.4219H229.261V63.9688H236.292V62.2109H230.14L231.897 55.1797H243.323V71H222.229V46.3906H245.081ZM268.335 46.3906L266.577 53.4219H254.272V55.1797H266.577L264.819 62.2109H254.272V63.9688H268.335L266.577 71H247.241V46.3906H268.335ZM277.526 63.9688H291.588L289.831 71H270.495V46.3906H277.526V63.9688Z" fill="white" fill-opacity="0.85"/>
<path d="M69.1211 71L68.151 70.7575L67.8403 72H69.1211V71ZM70.8789 63.9688V62.9688H70.0981L69.9088 63.7262L70.8789 63.9688ZM82.3047 63.9688V64.9688H83.3047V63.9688H82.3047ZM82.3047 46.3906V45.3906H81.3047V46.3906H82.3047ZM89.3359 46.3906H90.3359V45.3906H89.3359V46.3906ZM89.3359 71V72H90.3359V71H89.3359ZM70.0912 71.2425L71.849 64.2113L69.9088 63.7262L68.151 70.7575L70.0912 71.2425ZM70.8789 64.9688H82.3047V62.9688H70.8789V64.9688ZM83.3047 63.9688V46.3906H81.3047V63.9688H83.3047ZM82.3047 47.3906H89.3359V45.3906H82.3047V47.3906ZM88.3359 46.3906V71H90.3359V46.3906H88.3359ZM89.3359 70H69.1211V72H89.3359V70ZM114.347 46.3906L115.318 46.6332L115.628 45.3906H114.347V46.3906ZM112.59 53.4219V54.4219H113.37L113.56 53.6644L112.59 53.4219ZM100.285 53.4219V52.4219H99.285V53.4219H100.285ZM100.285 55.1797H99.285V56.1797H100.285V55.1797ZM112.59 55.1797H113.59V54.1797H112.59V55.1797ZM112.59 71V72H113.59V71H112.59ZM91.4959 71L90.5258 70.7575L90.2152 72H91.4959V71ZM93.2537 63.9688V62.9688H92.473L92.2836 63.7262L93.2537 63.9688ZM105.558 63.9688V64.9688H106.558V63.9688H105.558ZM105.558 62.2109H106.558V61.2109H105.558V62.2109ZM93.2537 62.2109H92.2537V63.2109H93.2537V62.2109ZM93.2537 46.3906V45.3906H92.2537V46.3906H93.2537ZM113.377 46.1481L111.62 53.1793L113.56 53.6644L115.318 46.6332L113.377 46.1481ZM112.59 52.4219H100.285V54.4219H112.59V52.4219ZM99.285 53.4219V55.1797H101.285V53.4219H99.285ZM100.285 56.1797H112.59V54.1797H100.285V56.1797ZM111.59 55.1797V71H113.59V55.1797H111.59ZM112.59 70H91.4959V72H112.59V70ZM92.4661 71.2425L94.2239 64.2113L92.2836 63.7262L90.5258 70.7575L92.4661 71.2425ZM93.2537 64.9688H105.558V62.9688H93.2537V64.9688ZM106.558 63.9688V62.2109H104.558V63.9688H106.558ZM105.558 61.2109H93.2537V63.2109H105.558V61.2109ZM94.2537 62.2109V46.3906H92.2537V62.2109H94.2537ZM93.2537 47.3906H114.347V45.3906H93.2537V47.3906ZM130.57 53.4219H131.57V52.4219H130.57V53.4219ZM123.539 53.4219V52.4219H122.539V53.4219H123.539ZM123.539 63.9688H122.539V64.9688H123.539V63.9688ZM130.57 63.9688V64.9688H131.57V63.9688H130.57ZM137.601 46.3906H138.601V45.3906H137.601V46.3906ZM137.601 71V72H138.601V71H137.601ZM116.507 71H115.507V72H116.507V71ZM116.507 46.3906V45.3906H115.507V46.3906H116.507ZM130.57 52.4219H123.539V54.4219H130.57V52.4219ZM122.539 53.4219V63.9688H124.539V53.4219H122.539ZM123.539 64.9688H130.57V62.9688H123.539V64.9688ZM131.57 63.9688V53.4219H129.57V63.9688H131.57ZM136.601 46.3906V71H138.601V46.3906H136.601ZM137.601 70H116.507V72H137.601V70ZM117.507 71V46.3906H115.507V71H117.507ZM116.507 47.3906H137.601V45.3906H116.507V47.3906ZM162.613 71V72H163.613V71H162.613ZM155.582 71H154.582V72H155.582V71ZM155.582 53.4219H156.582V52.4219H155.582V53.4219ZM148.55 53.4219V52.4219H147.55V53.4219H148.55ZM148.55 71V72H149.55V71H148.55ZM141.519 71H140.519V72H141.519V71ZM141.519 46.3906V45.3906H140.519V46.3906H141.519ZM162.613 46.3906H163.613V45.3906H162.613V46.3906ZM162.613 70H155.582V72H162.613V70ZM156.582 71V53.4219H154.582V71H156.582ZM155.582 52.4219H148.55V54.4219H155.582V52.4219ZM147.55 53.4219V71H149.55V53.4219H147.55ZM148.55 70H141.519V72H148.55V70ZM142.519 71V46.3906H140.519V71H142.519ZM141.519 47.3906H162.613V45.3906H141.519V47.3906ZM161.613 46.3906V71H163.613V46.3906H161.613ZM196.816 46.3906L197.786 46.6332L198.096 45.3906H196.816V46.3906ZM195.058 53.4219V54.4219H195.839L196.028 53.6644L195.058 53.4219ZM182.753 53.4219V52.4219H181.753V53.4219H182.753ZM182.753 55.1797H181.753V56.1797H182.753V55.1797ZM195.058 55.1797H196.058V54.1797H195.058V55.1797ZM195.058 71V72H196.058V71H195.058ZM173.964 71L172.994 70.7575L172.683 72H173.964V71ZM175.722 63.9688V62.9688H174.941L174.752 63.7262L175.722 63.9688ZM188.027 63.9688V64.9688H189.027V63.9688H188.027ZM188.027 62.2109H189.027V61.2109H188.027V62.2109ZM175.722 62.2109H174.722V63.2109H175.722V62.2109ZM175.722 46.3906V45.3906H174.722V46.3906H175.722ZM195.845 46.1481L194.088 53.1793L196.028 53.6644L197.786 46.6332L195.845 46.1481ZM195.058 52.4219H182.753V54.4219H195.058V52.4219ZM181.753 53.4219V55.1797H183.753V53.4219H181.753ZM182.753 56.1797H195.058V54.1797H182.753V56.1797ZM194.058 55.1797V71H196.058V55.1797H194.058ZM195.058 70H173.964V72H195.058V70ZM174.934 71.2425L176.692 64.2113L174.752 63.7262L172.994 70.7575L174.934 71.2425ZM175.722 64.9688H188.027V62.9688H175.722V64.9688ZM189.027 63.9688V62.2109H187.027V63.9688H189.027ZM188.027 61.2109H175.722V63.2109H188.027V61.2109ZM176.722 62.2109V46.3906H174.722V62.2109H176.722ZM175.722 47.3906H196.816V45.3906H175.722V47.3906ZM220.069 46.3906L221.04 46.6332L221.35 45.3906H220.069V46.3906ZM218.312 53.4219V54.4219H219.092L219.282 53.6644L218.312 53.4219ZM206.007 53.4219V52.4219H205.007V53.4219H206.007ZM206.007 55.1797H205.007V56.1797H206.007V55.1797ZM218.312 55.1797L219.282 55.4222L219.592 54.1797H218.312V55.1797ZM216.554 62.2109V63.2109H217.335L217.524 62.4535L216.554 62.2109ZM206.007 62.2109V61.2109H205.007V62.2109H206.007ZM206.007 63.9688H205.007V64.9688H206.007V63.9688ZM220.069 63.9688L221.04 64.2113L221.35 62.9688H220.069V63.9688ZM218.312 71V72H219.092L219.282 71.2425L218.312 71ZM198.976 71H197.976V72H198.976V71ZM198.976 46.3906V45.3906H197.976V46.3906H198.976ZM219.099 46.1481L217.341 53.1793L219.282 53.6644L221.04 46.6332L219.099 46.1481ZM218.312 52.4219H206.007V54.4219H218.312V52.4219ZM205.007 53.4219V55.1797H207.007V53.4219H205.007ZM206.007 56.1797H218.312V54.1797H206.007V56.1797ZM217.341 54.9372L215.584 61.9684L217.524 62.4535L219.282 55.4222L217.341 54.9372ZM216.554 61.2109H206.007V63.2109H216.554V61.2109ZM205.007 62.2109V63.9688H207.007V62.2109H205.007ZM206.007 64.9688H220.069V62.9688H206.007V64.9688ZM219.099 63.7262L217.341 70.7575L219.282 71.2425L221.04 64.2113L219.099 63.7262ZM218.312 70H198.976V72H218.312V70ZM199.976 71V46.3906H197.976V71H199.976ZM198.976 47.3906H220.069V45.3906H198.976V47.3906ZM245.081 46.3906L246.051 46.6332L246.362 45.3906H245.081V46.3906ZM243.323 53.4219V54.4219H244.104L244.293 53.6644L243.323 53.4219ZM229.261 53.4219V52.4219H228.261V53.4219H229.261ZM229.261 63.9688H228.261V64.9688H229.261V63.9688ZM236.292 63.9688V64.9688H237.292V63.9688H236.292ZM236.292 62.2109H237.292V61.2109H236.292V62.2109ZM230.14 62.2109L229.169 61.9684L228.859 63.2109H230.14V62.2109ZM231.897 55.1797V54.1797H231.117L230.927 54.9372L231.897 55.1797ZM243.323 55.1797H244.323V54.1797H243.323V55.1797ZM243.323 71V72H244.323V71H243.323ZM222.229 71H221.229V72H222.229V71ZM222.229 46.3906V45.3906H221.229V46.3906H222.229ZM244.111 46.1481L242.353 53.1793L244.293 53.6644L246.051 46.6332L244.111 46.1481ZM243.323 52.4219H229.261V54.4219H243.323V52.4219ZM228.261 53.4219V63.9688H230.261V53.4219H228.261ZM229.261 64.9688H236.292V62.9688H229.261V64.9688ZM237.292 63.9688V62.2109H235.292V63.9688H237.292ZM236.292 61.2109H230.14V63.2109H236.292V61.2109ZM231.11 62.4535L232.867 55.4222L230.927 54.9372L229.169 61.9684L231.11 62.4535ZM231.897 56.1797H243.323V54.1797H231.897V56.1797ZM242.323 55.1797V71H244.323V55.1797H242.323ZM243.323 70H222.229V72H243.323V70ZM223.229 71V46.3906H221.229V71H223.229ZM222.229 47.3906H245.081V45.3906H222.229V47.3906ZM268.335 46.3906L269.305 46.6332L269.615 45.3906H268.335V46.3906ZM266.577 53.4219V54.4219H267.358L267.547 53.6644L266.577 53.4219ZM254.272 53.4219V52.4219H253.272V53.4219H254.272ZM254.272 55.1797H253.272V56.1797H254.272V55.1797ZM266.577 55.1797L267.547 55.4222L267.858 54.1797H266.577V55.1797ZM264.819 62.2109V63.2109H265.6L265.789 62.4535L264.819 62.2109ZM254.272 62.2109V61.2109H253.272V62.2109H254.272ZM254.272 63.9688H253.272V64.9688H254.272V63.9688ZM268.335 63.9688L269.305 64.2113L269.615 62.9688H268.335V63.9688ZM266.577 71V72H267.358L267.547 71.2425L266.577 71ZM247.241 71H246.241V72H247.241V71ZM247.241 46.3906V45.3906H246.241V46.3906H247.241ZM267.365 46.1481L265.607 53.1793L267.547 53.6644L269.305 46.6332L267.365 46.1481ZM266.577 52.4219H254.272V54.4219H266.577V52.4219ZM253.272 53.4219V55.1797H255.272V53.4219H253.272ZM254.272 56.1797H266.577V54.1797H254.272V56.1797ZM265.607 54.9372L263.849 61.9684L265.789 62.4535L267.547 55.4222L265.607 54.9372ZM264.819 61.2109H254.272V63.2109H264.819V61.2109ZM253.272 62.2109V63.9688H255.272V62.2109H253.272ZM254.272 64.9688H268.335V62.9688H254.272V64.9688ZM267.365 63.7262L265.607 70.7575L267.547 71.2425L269.305 64.2113L267.365 63.7262ZM266.577 70H247.241V72H266.577V70ZM248.241 71V46.3906H246.241V71H248.241ZM247.241 47.3906H268.335V45.3906H247.241V47.3906ZM277.526 63.9688H276.526V64.9688H277.526V63.9688ZM291.588 63.9688L292.559 64.2113L292.869 62.9688H291.588V63.9688ZM289.831 71V72H290.611L290.801 71.2425L289.831 71ZM270.495 71H269.495V72H270.495V71ZM270.495 46.3906V45.3906H269.495V46.3906H270.495ZM277.526 46.3906H278.526V45.3906H277.526V46.3906ZM277.526 64.9688H291.588V62.9688H277.526V64.9688ZM290.618 63.7262L288.86 70.7575L290.801 71.2425L292.559 64.2113L290.618 63.7262ZM289.831 70H270.495V72H289.831V70ZM271.495 71V46.3906H269.495V71H271.495ZM270.495 47.3906H277.526V45.3906H270.495V47.3906ZM276.526 46.3906V63.9688H278.526V46.3906H276.526Z" fill="#34FF00" mask="url(#path-11-inside-1_63_585)"/>
</svg>
