<svg width="492" height="121" viewBox="0 0 492 121" fill="none" xmlns="http://www.w3.org/2000/svg">
<path d="M485.908 4.05207L443.801 46.8438C442.078 48.5951 442.078 51.4049 443.801 53.1562L485.908 95.9479C486.842 96.8963 486.17 98.5 484.839 98.5H3C2.17157 98.5 1.5 97.8284 1.5 97V3C1.5 2.17157 2.17157 1.5 3 1.5H246H484.839C486.17 1.5 486.842 3.10369 485.908 4.05207Z" fill="white" fill-opacity="0.8" stroke="#FFB800" stroke-width="3"/>
<path d="M485.908 24.0521L443.801 66.8438C442.078 68.5951 442.078 71.4049 443.801 73.1562L485.908 115.948C486.842 116.896 486.17 118.5 484.839 118.5H3C2.17157 118.5 1.5 117.828 1.5 117V23C1.5 22.1716 2.17157 21.5 3 21.5H246H484.839C486.17 21.5 486.842 23.1037 485.908 24.0521Z" fill="black" fill-opacity="0.6" stroke="white" stroke-width="3"/>
<path d="M485.908 14.0521L443.801 56.8438C442.078 58.5951 442.078 61.4049 443.801 63.1562L485.908 105.948C486.842 106.896 486.17 108.5 484.839 108.5H3C2.17157 108.5 1.5 107.828 1.5 107V13C1.5 12.1716 2.17157 11.5 3 11.5H246H484.839C486.17 11.5 486.842 13.1037 485.908 14.0521Z" fill="#E7E7E7" fill-opacity="0.7" stroke="#76FF03" stroke-width="3"/>
<line x1="10" y1="23.5" x2="30" y2="23.5" stroke="#FFB800" stroke-width="3"/>
<line x1="11.5" y1="22" x2="11.5" y2="97" stroke="#FFB800" stroke-width="3"/>
<line x1="10" y1="98.5" x2="30" y2="98.5" stroke="#FFB800" stroke-width="3"/>
<line y1="-1.5" x2="49.6016" y2="-1.5" transform="matrix(0.701381 -0.712786 0.701381 0.712786 435.912 55.3555)" stroke="#FFB800" stroke-width="3"/>
<line x1="426.072" y1="53.5" x2="435.912" y2="53.5" stroke="#FFB800" stroke-width="3"/>
<line x1="426.072" y1="66.5" x2="435.912" y2="66.5" stroke="#FFB800" stroke-width="3"/>
<line y1="-1.5" x2="49.6016" y2="-1.5" transform="matrix(0.701381 0.712786 -0.701381 0.712786 432.96 67)" stroke="#FFB800" stroke-width="3"/>
<mask id="path-11-inside-1_63_669" fill="white">
<path d="M69.1211 71L70.8789 63.9688H82.3047V46.3906H89.3359V71H69.1211ZM114.347 46.3906L112.59 53.4219H100.285V55.1797H112.59V71H91.4959L93.2537 63.9688H105.558V62.2109H93.2537V46.3906H114.347ZM130.57 53.4219H123.539V63.9688H130.57V53.4219ZM137.601 46.3906V71H116.507V46.3906H137.601ZM162.613 71H155.582V53.4219H148.55V71H141.519V46.3906H162.613V71ZM175.722 46.3906H182.753V62.6855L189.784 63.8457V46.3906H196.816V72.7578L175.722 69.2422V46.3906ZM214.796 53.4219H207.765V63.9688H214.796V53.4219ZM221.827 46.3906V71H200.733V46.3906H221.827ZM239.807 53.4219H232.776V63.9688H239.807V53.4219ZM246.839 46.3906V71H225.745V46.3906H246.839ZM264.819 53.4219H257.788V55.1797H264.819V53.4219ZM271.85 46.3906V62.2109H267.966L273.01 71H265.1L257.788 58.2383V71H250.757V46.3906H271.85ZM275.768 46.3906H282.799V55.1797H289.831V46.3906H296.862V71H289.831V62.2109H282.799V71H275.768V46.3906ZM321.873 46.3906L320.116 53.4219H307.811V55.1797H320.116L318.358 62.2109H307.811V63.9688H321.873L320.116 71H300.78V46.3906H321.873ZM345.127 46.3906L343.369 53.4219H331.065V55.1797H343.369L341.612 62.2109H331.065V63.9688H345.127L343.369 71H324.033V46.3906H345.127ZM368.381 46.3906L366.623 53.4219H354.318V55.1797H366.623V71H345.529L347.287 63.9688H359.592V62.2109H347.287V46.3906H368.381Z"/>
</mask>
<path d="M69.1211 71L70.8789 63.9688H82.3047V46.3906H89.3359V71H69.1211ZM114.347 46.3906L112.59 53.4219H100.285V55.1797H112.59V71H91.4959L93.2537 63.9688H105.558V62.2109H93.2537V46.3906H114.347ZM130.57 53.4219H123.539V63.9688H130.57V53.4219ZM137.601 46.3906V71H116.507V46.3906H137.601ZM162.613 71H155.582V53.4219H148.55V71H141.519V46.3906H162.613V71ZM175.722 46.3906H182.753V62.6855L189.784 63.8457V46.3906H196.816V72.7578L175.722 69.2422V46.3906ZM214.796 53.4219H207.765V63.9688H214.796V53.4219ZM221.827 46.3906V71H200.733V46.3906H221.827ZM239.807 53.4219H232.776V63.9688H239.807V53.4219ZM246.839 46.3906V71H225.745V46.3906H246.839ZM264.819 53.4219H257.788V55.1797H264.819V53.4219ZM271.85 46.3906V62.2109H267.966L273.01 71H265.1L257.788 58.2383V71H250.757V46.3906H271.85ZM275.768 46.3906H282.799V55.1797H289.831V46.3906H296.862V71H289.831V62.2109H282.799V71H275.768V46.3906ZM321.873 46.3906L320.116 53.4219H307.811V55.1797H320.116L318.358 62.2109H307.811V63.9688H321.873L320.116 71H300.78V46.3906H321.873ZM345.127 46.3906L343.369 53.4219H331.065V55.1797H343.369L341.612 62.2109H331.065V63.9688H345.127L343.369 71H324.033V46.3906H345.127ZM368.381 46.3906L366.623 53.4219H354.318V55.1797H366.623V71H345.529L347.287 63.9688H359.592V62.2109H347.287V46.3906H368.381Z" fill="white" fill-opacity="0.85"/>
<path d="M69.1211 71L68.151 70.7575L67.8403 72H69.1211V71ZM70.8789 63.9688V62.9688H70.0981L69.9088 63.7262L70.8789 63.9688ZM82.3047 63.9688V64.9688H83.3047V63.9688H82.3047ZM82.3047 46.3906V45.3906H81.3047V46.3906H82.3047ZM89.3359 46.3906H90.3359V45.3906H89.3359V46.3906ZM89.3359 71V72H90.3359V71H89.3359ZM70.0912 71.2425L71.849 64.2113L69.9088 63.7262L68.151 70.7575L70.0912 71.2425ZM70.8789 64.9688H82.3047V62.9688H70.8789V64.9688ZM83.3047 63.9688V46.3906H81.3047V63.9688H83.3047ZM82.3047 47.3906H89.3359V45.3906H82.3047V47.3906ZM88.3359 46.3906V71H90.3359V46.3906H88.3359ZM89.3359 70H69.1211V72H89.3359V70ZM114.347 46.3906L115.318 46.6332L115.628 45.3906H114.347V46.3906ZM112.59 53.4219V54.4219H113.37L113.56 53.6644L112.59 53.4219ZM100.285 53.4219V52.4219H99.285V53.4219H100.285ZM100.285 55.1797H99.285V56.1797H100.285V55.1797ZM112.59 55.1797H113.59V54.1797H112.59V55.1797ZM112.59 71V72H113.59V71H112.59ZM91.4959 71L90.5258 70.7575L90.2152 72H91.4959V71ZM93.2537 63.9688V62.9688H92.473L92.2836 63.7262L93.2537 63.9688ZM105.558 63.9688V64.9688H106.558V63.9688H105.558ZM105.558 62.2109H106.558V61.2109H105.558V62.2109ZM93.2537 62.2109H92.2537V63.2109H93.2537V62.2109ZM93.2537 46.3906V45.3906H92.2537V46.3906H93.2537ZM113.377 46.1481L111.62 53.1793L113.56 53.6644L115.318 46.6332L113.377 46.1481ZM112.59 52.4219H100.285V54.4219H112.59V52.4219ZM99.285 53.4219V55.1797H101.285V53.4219H99.285ZM100.285 56.1797H112.59V54.1797H100.285V56.1797ZM111.59 55.1797V71H113.59V55.1797H111.59ZM112.59 70H91.4959V72H112.59V70ZM92.4661 71.2425L94.2239 64.2113L92.2836 63.7262L90.5258 70.7575L92.4661 71.2425ZM93.2537 64.9688H105.558V62.9688H93.2537V64.9688ZM106.558 63.9688V62.2109H104.558V63.9688H106.558ZM105.558 61.2109H93.2537V63.2109H105.558V61.2109ZM94.2537 62.2109V46.3906H92.2537V62.2109H94.2537ZM93.2537 47.3906H114.347V45.3906H93.2537V47.3906ZM130.57 53.4219H131.57V52.4219H130.57V53.4219ZM123.539 53.4219V52.4219H122.539V53.4219H123.539ZM123.539 63.9688H122.539V64.9688H123.539V63.9688ZM130.57 63.9688V64.9688H131.57V63.9688H130.57ZM137.601 46.3906H138.601V45.3906H137.601V46.3906ZM137.601 71V72H138.601V71H137.601ZM116.507 71H115.507V72H116.507V71ZM116.507 46.3906V45.3906H115.507V46.3906H116.507ZM130.57 52.4219H123.539V54.4219H130.57V52.4219ZM122.539 53.4219V63.9688H124.539V53.4219H122.539ZM123.539 64.9688H130.57V62.9688H123.539V64.9688ZM131.57 63.9688V53.4219H129.57V63.9688H131.57ZM136.601 46.3906V71H138.601V46.3906H136.601ZM137.601 70H116.507V72H137.601V70ZM117.507 71V46.3906H115.507V71H117.507ZM116.507 47.3906H137.601V45.3906H116.507V47.3906ZM162.613 71V72H163.613V71H162.613ZM155.582 71H154.582V72H155.582V71ZM155.582 53.4219H156.582V52.4219H155.582V53.4219ZM148.55 53.4219V52.4219H147.55V53.4219H148.55ZM148.55 71V72H149.55V71H148.55ZM141.519 71H140.519V72H141.519V71ZM141.519 46.3906V45.3906H140.519V46.3906H141.519ZM162.613 46.3906H163.613V45.3906H162.613V46.3906ZM162.613 70H155.582V72H162.613V70ZM156.582 71V53.4219H154.582V71H156.582ZM155.582 52.4219H148.55V54.4219H155.582V52.4219ZM147.55 53.4219V71H149.55V53.4219H147.55ZM148.55 70H141.519V72H148.55V70ZM142.519 71V46.3906H140.519V71H142.519ZM141.519 47.3906H162.613V45.3906H141.519V47.3906ZM161.613 46.3906V71H163.613V46.3906H161.613ZM175.722 46.3906V45.3906H174.722V46.3906H175.722ZM182.753 46.3906H183.753V45.3906H182.753V46.3906ZM182.753 62.6855H181.753V63.5341L182.59 63.6722L182.753 62.6855ZM189.784 63.8457L189.622 64.8324L190.784 65.0242V63.8457H189.784ZM189.784 46.3906V45.3906H188.784V46.3906H189.784ZM196.816 46.3906H197.816V45.3906H196.816V46.3906ZM196.816 72.7578L196.651 73.7442L197.816 73.9383V72.7578H196.816ZM175.722 69.2422H174.722V70.0893L175.557 70.2286L175.722 69.2422ZM175.722 47.3906H182.753V45.3906H175.722V47.3906ZM181.753 46.3906V62.6855H183.753V46.3906H181.753ZM182.59 63.6722L189.622 64.8324L189.947 62.859L182.916 61.6989L182.59 63.6722ZM190.784 63.8457V46.3906H188.784V63.8457H190.784ZM189.784 47.3906H196.816V45.3906H189.784V47.3906ZM195.816 46.3906V72.7578H197.816V46.3906H195.816ZM196.98 71.7714L175.886 68.2558L175.557 70.2286L196.651 73.7442L196.98 71.7714ZM176.722 69.2422V46.3906H174.722V69.2422H176.722ZM214.796 53.4219H215.796V52.4219H214.796V53.4219ZM207.765 53.4219V52.4219H206.765V53.4219H207.765ZM207.765 63.9688H206.765V64.9688H207.765V63.9688ZM214.796 63.9688V64.9688H215.796V63.9688H214.796ZM221.827 46.3906H222.827V45.3906H221.827V46.3906ZM221.827 71V72H222.827V71H221.827ZM200.733 71H199.733V72H200.733V71ZM200.733 46.3906V45.3906H199.733V46.3906H200.733ZM214.796 52.4219H207.765V54.4219H214.796V52.4219ZM206.765 53.4219V63.9688H208.765V53.4219H206.765ZM207.765 64.9688H214.796V62.9688H207.765V64.9688ZM215.796 63.9688V53.4219H213.796V63.9688H215.796ZM220.827 46.3906V71H222.827V46.3906H220.827ZM221.827 70H200.733V72H221.827V70ZM201.733 71V46.3906H199.733V71H201.733ZM200.733 47.3906H221.827V45.3906H200.733V47.3906ZM239.807 53.4219H240.807V52.4219H239.807V53.4219ZM232.776 53.4219V52.4219H231.776V53.4219H232.776ZM232.776 63.9688H231.776V64.9688H232.776V63.9688ZM239.807 63.9688V64.9688H240.807V63.9688H239.807ZM246.839 46.3906H247.839V45.3906H246.839V46.3906ZM246.839 71V72H247.839V71H246.839ZM225.745 71H224.745V72H225.745V71ZM225.745 46.3906V45.3906H224.745V46.3906H225.745ZM239.807 52.4219H232.776V54.4219H239.807V52.4219ZM231.776 53.4219V63.9688H233.776V53.4219H231.776ZM232.776 64.9688H239.807V62.9688H232.776V64.9688ZM240.807 63.9688V53.4219H238.807V63.9688H240.807ZM245.839 46.3906V71H247.839V46.3906H245.839ZM246.839 70H225.745V72H246.839V70ZM226.745 71V46.3906H224.745V71H226.745ZM225.745 47.3906H246.839V45.3906H225.745V47.3906ZM264.819 53.4219H265.819V52.4219H264.819V53.4219ZM257.788 53.4219V52.4219H256.788V53.4219H257.788ZM257.788 55.1797H256.788V56.1797H257.788V55.1797ZM264.819 55.1797V56.1797H265.819V55.1797H264.819ZM271.85 46.3906H272.85V45.3906H271.85V46.3906ZM271.85 62.2109V63.2109H272.85V62.2109H271.85ZM267.966 62.2109V61.2109H266.239L267.098 62.7088L267.966 62.2109ZM273.01 71V72H274.737L273.878 70.5022L273.01 71ZM265.1 71L264.233 71.4972L264.521 72H265.1V71ZM257.788 58.2383L258.655 57.7411L256.788 54.4817V58.2383H257.788ZM257.788 71V72H258.788V71H257.788ZM250.757 71H249.757V72H250.757V71ZM250.757 46.3906V45.3906H249.757V46.3906H250.757ZM264.819 52.4219H257.788V54.4219H264.819V52.4219ZM256.788 53.4219V55.1797H258.788V53.4219H256.788ZM257.788 56.1797H264.819V54.1797H257.788V56.1797ZM265.819 55.1797V53.4219H263.819V55.1797H265.819ZM270.85 46.3906V62.2109H272.85V46.3906H270.85ZM271.85 61.2109H267.966V63.2109H271.85V61.2109ZM267.098 62.7088L272.143 71.4978L273.878 70.5022L268.833 61.7131L267.098 62.7088ZM273.01 70H265.1V72H273.01V70ZM265.968 70.5028L258.655 57.7411L256.92 58.7354L264.233 71.4972L265.968 70.5028ZM256.788 58.2383V71H258.788V58.2383H256.788ZM257.788 70H250.757V72H257.788V70ZM251.757 71V46.3906H249.757V71H251.757ZM250.757 47.3906H271.85V45.3906H250.757V47.3906ZM275.768 46.3906V45.3906H274.768V46.3906H275.768ZM282.799 46.3906H283.799V45.3906H282.799V46.3906ZM282.799 55.1797H281.799V56.1797H282.799V55.1797ZM289.831 55.1797V56.1797H290.831V55.1797H289.831ZM289.831 46.3906V45.3906H288.831V46.3906H289.831ZM296.862 46.3906H297.862V45.3906H296.862V46.3906ZM296.862 71V72H297.862V71H296.862ZM289.831 71H288.831V72H289.831V71ZM289.831 62.2109H290.831V61.2109H289.831V62.2109ZM282.799 62.2109V61.2109H281.799V62.2109H282.799ZM282.799 71V72H283.799V71H282.799ZM275.768 71H274.768V72H275.768V71ZM275.768 47.3906H282.799V45.3906H275.768V47.3906ZM281.799 46.3906V55.1797H283.799V46.3906H281.799ZM282.799 56.1797H289.831V54.1797H282.799V56.1797ZM290.831 55.1797V46.3906H288.831V55.1797H290.831ZM289.831 47.3906H296.862V45.3906H289.831V47.3906ZM295.862 46.3906V71H297.862V46.3906H295.862ZM296.862 70H289.831V72H296.862V70ZM290.831 71V62.2109H288.831V71H290.831ZM289.831 61.2109H282.799V63.2109H289.831V61.2109ZM281.799 62.2109V71H283.799V62.2109H281.799ZM282.799 70H275.768V72H282.799V70ZM276.768 71V46.3906H274.768V71H276.768ZM321.873 46.3906L322.844 46.6332L323.154 45.3906H321.873V46.3906ZM320.116 53.4219V54.4219H320.896L321.086 53.6644L320.116 53.4219ZM307.811 53.4219V52.4219H306.811V53.4219H307.811ZM307.811 55.1797H306.811V56.1797H307.811V55.1797ZM320.116 55.1797L321.086 55.4222L321.396 54.1797H320.116V55.1797ZM318.358 62.2109V63.2109H319.139L319.328 62.4535L318.358 62.2109ZM307.811 62.2109V61.2109H306.811V62.2109H307.811ZM307.811 63.9688H306.811V64.9688H307.811V63.9688ZM321.873 63.9688L322.844 64.2113L323.154 62.9688H321.873V63.9688ZM320.116 71V72H320.896L321.086 71.2425L320.116 71ZM300.78 71H299.78V72H300.78V71ZM300.78 46.3906V45.3906H299.78V46.3906H300.78ZM320.903 46.1481L319.145 53.1793L321.086 53.6644L322.844 46.6332L320.903 46.1481ZM320.116 52.4219H307.811V54.4219H320.116V52.4219ZM306.811 53.4219V55.1797H308.811V53.4219H306.811ZM307.811 56.1797H320.116V54.1797H307.811V56.1797ZM319.145 54.9372L317.388 61.9684L319.328 62.4535L321.086 55.4222L319.145 54.9372ZM318.358 61.2109H307.811V63.2109H318.358V61.2109ZM306.811 62.2109V63.9688H308.811V62.2109H306.811ZM307.811 64.9688H321.873V62.9688H307.811V64.9688ZM320.903 63.7262L319.145 70.7575L321.086 71.2425L322.844 64.2113L320.903 63.7262ZM320.116 70H300.78V72H320.116V70ZM301.78 71V46.3906H299.78V71H301.78ZM300.78 47.3906H321.873V45.3906H300.78V47.3906ZM345.127 46.3906L346.097 46.6332L346.408 45.3906H345.127V46.3906ZM343.369 53.4219V54.4219H344.15L344.34 53.6644L343.369 53.4219ZM331.065 53.4219V52.4219H330.065V53.4219H331.065ZM331.065 55.1797H330.065V56.1797H331.065V55.1797ZM343.369 55.1797L344.34 55.4222L344.65 54.1797H343.369V55.1797ZM341.612 62.2109V63.2109H342.392L342.582 62.4535L341.612 62.2109ZM331.065 62.2109V61.2109H330.065V62.2109H331.065ZM331.065 63.9688H330.065V64.9688H331.065V63.9688ZM345.127 63.9688L346.097 64.2113L346.408 62.9688H345.127V63.9688ZM343.369 71V72H344.15L344.34 71.2425L343.369 71ZM324.033 71H323.033V72H324.033V71ZM324.033 46.3906V45.3906H323.033V46.3906H324.033ZM344.157 46.1481L342.399 53.1793L344.34 53.6644L346.097 46.6332L344.157 46.1481ZM343.369 52.4219H331.065V54.4219H343.369V52.4219ZM330.065 53.4219V55.1797H332.065V53.4219H330.065ZM331.065 56.1797H343.369V54.1797H331.065V56.1797ZM342.399 54.9372L340.641 61.9684L342.582 62.4535L344.34 55.4222L342.399 54.9372ZM341.612 61.2109H331.065V63.2109H341.612V61.2109ZM330.065 62.2109V63.9688H332.065V62.2109H330.065ZM331.065 64.9688H345.127V62.9688H331.065V64.9688ZM344.157 63.7262L342.399 70.7575L344.34 71.2425L346.097 64.2113L344.157 63.7262ZM343.369 70H324.033V72H343.369V70ZM325.033 71V46.3906H323.033V71H325.033ZM324.033 47.3906H345.127V45.3906H324.033V47.3906ZM368.381 46.3906L369.351 46.6332L369.662 45.3906H368.381V46.3906ZM366.623 53.4219V54.4219H367.404L367.593 53.6644L366.623 53.4219ZM354.318 53.4219V52.4219H353.318V53.4219H354.318ZM354.318 55.1797H353.318V56.1797H354.318V55.1797ZM366.623 55.1797H367.623V54.1797H366.623V55.1797ZM366.623 71V72H367.623V71H366.623ZM345.529 71L344.559 70.7575L344.249 72H345.529V71ZM347.287 63.9688V62.9688H346.506L346.317 63.7262L347.287 63.9688ZM359.592 63.9688V64.9688H360.592V63.9688H359.592ZM359.592 62.2109H360.592V61.2109H359.592V62.2109ZM347.287 62.2109H346.287V63.2109H347.287V62.2109ZM347.287 46.3906V45.3906H346.287V46.3906H347.287ZM367.411 46.1481L365.653 53.1793L367.593 53.6644L369.351 46.6332L367.411 46.1481ZM366.623 52.4219H354.318V54.4219H366.623V52.4219ZM353.318 53.4219V55.1797H355.318V53.4219H353.318ZM354.318 56.1797H366.623V54.1797H354.318V56.1797ZM365.623 55.1797V71H367.623V55.1797H365.623ZM366.623 70H345.529V72H366.623V70ZM346.5 71.2425L348.257 64.2113L346.317 63.7262L344.559 70.7575L346.5 71.2425ZM347.287 64.9688H359.592V62.9688H347.287V64.9688ZM360.592 63.9688V62.2109H358.592V63.9688H360.592ZM359.592 61.2109H347.287V63.2109H359.592V61.2109ZM348.287 62.2109V46.3906H346.287V62.2109H348.287ZM347.287 47.3906H368.381V45.3906H347.287V47.3906Z" fill="#34FF00" mask="url(#path-11-inside-1_63_669)"/>
</svg>
