<svg width="463" height="121" viewBox="0 0 463 121" fill="none" xmlns="http://www.w3.org/2000/svg">
<path d="M457.234 4.01916L417.487 46.9425C415.889 48.6678 415.889 51.3322 417.487 53.0575L457.234 95.9808C458.123 96.9411 457.442 98.5 456.133 98.5H3.00001C2.17158 98.5 1.5 97.8284 1.5 97V3C1.5 2.17157 2.17157 1.5 3 1.5H231.5H456.133C457.442 1.5 458.123 3.05888 457.234 4.01916Z" fill="white" fill-opacity="0.8" stroke="#FFB800" stroke-width="3"/>
<path d="M457.234 24.0192L417.487 66.9425C415.889 68.6678 415.889 71.3322 417.487 73.0575L457.234 115.981C458.123 116.941 457.442 118.5 456.133 118.5H3.00001C2.17158 118.5 1.5 117.828 1.5 117V23C1.5 22.1716 2.17157 21.5 3 21.5H231.5H456.133C457.442 21.5 458.123 23.0589 457.234 24.0192Z" fill="black" fill-opacity="0.6" stroke="white" stroke-width="3"/>
<path d="M457.234 14.0192L417.487 56.9425C415.889 58.6678 415.889 61.3322 417.487 63.0575L457.234 105.981C458.123 106.941 457.442 108.5 456.133 108.5H3.00001C2.17158 108.5 1.5 107.828 1.5 107V13C1.5 12.1716 2.17157 11.5 3 11.5H231.5H456.133C457.442 11.5 458.123 13.0589 457.234 14.0192Z" fill="#E7E7E7" fill-opacity="0.7" stroke="#76FF03" stroke-width="3"/>
<line x1="10" y1="23.5" x2="30" y2="23.5" stroke="#FFB800" stroke-width="3"/>
<line x1="11.5" y1="22" x2="11.5" y2="97" stroke="#FFB800" stroke-width="3"/>
<line x1="10" y1="98.5" x2="30" y2="98.5" stroke="#FFB800" stroke-width="3"/>
<line y1="-1.5" x2="48.1855" y2="-1.5" transform="matrix(0.679437 -0.733734 0.679437 0.733734 410.218 55.3553)" stroke="#FFB800" stroke-width="3"/>
<line x1="400.958" y1="53.5" x2="410.218" y2="53.5" stroke="#FFB800" stroke-width="3"/>
<line x1="400.958" y1="66.5" x2="410.218" y2="66.5" stroke="#FFB800" stroke-width="3"/>
<line y1="-1.5" x2="48.1855" y2="-1.5" transform="matrix(0.679437 0.733734 -0.679437 0.733734 407.44 67)" stroke="#FFB800" stroke-width="3"/>
<mask id="path-11-inside-1_63_441" fill="white">
<path d="M69.1211 71L70.8789 63.9688H82.3047V46.3906H89.3359V71H69.1211ZM114.347 46.3906L112.59 53.4219H100.285V55.1797H112.59V71H91.4959L93.2537 63.9688H105.558V62.2109H93.2537V46.3906H114.347ZM130.57 53.4219H123.539V63.9688H130.57V53.4219ZM137.601 46.3906V71H116.507V46.3906H137.601ZM162.613 71H155.582V53.4219H148.55V71H141.519V46.3906H162.613V71ZM182.753 53.4219V58.8184L185.548 53.4219H182.753ZM182.753 63.9688H189.784V62.2109H182.753V63.9688ZM175.722 71V46.3906H197.097L192.544 55.1797H196.816V71H175.722ZM214.796 62.2109H207.765V71H200.733V46.3906H221.827V71H214.796V62.2109ZM207.765 55.1797H214.796V53.4219H207.765V55.1797ZM246.839 46.3906L245.081 53.4219H238.929V71H231.897V53.4219H225.745V46.3906H246.839ZM270.092 46.3906L268.335 53.4219H256.03V55.1797H268.335L266.577 62.2109H256.03V63.9688H270.092L268.335 71H248.999V46.3906H270.092ZM296.862 71H289.831V53.4219H288.073V71H281.042V53.4219H279.284V71H272.253V46.3906H296.862V71ZM314.842 62.2109H307.811V71H300.78V46.3906H321.873V71H314.842V62.2109ZM307.811 55.1797H314.842V53.4219H307.811V55.1797ZM346.885 71H339.854V53.4219H332.822V71H325.791V46.3906H346.885V71Z"/>
</mask>
<path d="M69.1211 71L70.8789 63.9688H82.3047V46.3906H89.3359V71H69.1211ZM114.347 46.3906L112.59 53.4219H100.285V55.1797H112.59V71H91.4959L93.2537 63.9688H105.558V62.2109H93.2537V46.3906H114.347ZM130.57 53.4219H123.539V63.9688H130.57V53.4219ZM137.601 46.3906V71H116.507V46.3906H137.601ZM162.613 71H155.582V53.4219H148.55V71H141.519V46.3906H162.613V71ZM182.753 53.4219V58.8184L185.548 53.4219H182.753ZM182.753 63.9688H189.784V62.2109H182.753V63.9688ZM175.722 71V46.3906H197.097L192.544 55.1797H196.816V71H175.722ZM214.796 62.2109H207.765V71H200.733V46.3906H221.827V71H214.796V62.2109ZM207.765 55.1797H214.796V53.4219H207.765V55.1797ZM246.839 46.3906L245.081 53.4219H238.929V71H231.897V53.4219H225.745V46.3906H246.839ZM270.092 46.3906L268.335 53.4219H256.03V55.1797H268.335L266.577 62.2109H256.03V63.9688H270.092L268.335 71H248.999V46.3906H270.092ZM296.862 71H289.831V53.4219H288.073V71H281.042V53.4219H279.284V71H272.253V46.3906H296.862V71ZM314.842 62.2109H307.811V71H300.78V46.3906H321.873V71H314.842V62.2109ZM307.811 55.1797H314.842V53.4219H307.811V55.1797ZM346.885 71H339.854V53.4219H332.822V71H325.791V46.3906H346.885V71Z" fill="white" fill-opacity="0.85"/>
<path d="M69.1211 71L68.151 70.7575L67.8403 72H69.1211V71ZM70.8789 63.9688V62.9688H70.0981L69.9088 63.7262L70.8789 63.9688ZM82.3047 63.9688V64.9688H83.3047V63.9688H82.3047ZM82.3047 46.3906V45.3906H81.3047V46.3906H82.3047ZM89.3359 46.3906H90.3359V45.3906H89.3359V46.3906ZM89.3359 71V72H90.3359V71H89.3359ZM70.0912 71.2425L71.849 64.2113L69.9088 63.7262L68.151 70.7575L70.0912 71.2425ZM70.8789 64.9688H82.3047V62.9688H70.8789V64.9688ZM83.3047 63.9688V46.3906H81.3047V63.9688H83.3047ZM82.3047 47.3906H89.3359V45.3906H82.3047V47.3906ZM88.3359 46.3906V71H90.3359V46.3906H88.3359ZM89.3359 70H69.1211V72H89.3359V70ZM114.347 46.3906L115.318 46.6332L115.628 45.3906H114.347V46.3906ZM112.59 53.4219V54.4219H113.37L113.56 53.6644L112.59 53.4219ZM100.285 53.4219V52.4219H99.285V53.4219H100.285ZM100.285 55.1797H99.285V56.1797H100.285V55.1797ZM112.59 55.1797H113.59V54.1797H112.59V55.1797ZM112.59 71V72H113.59V71H112.59ZM91.4959 71L90.5258 70.7575L90.2152 72H91.4959V71ZM93.2537 63.9688V62.9688H92.473L92.2836 63.7262L93.2537 63.9688ZM105.558 63.9688V64.9688H106.558V63.9688H105.558ZM105.558 62.2109H106.558V61.2109H105.558V62.2109ZM93.2537 62.2109H92.2537V63.2109H93.2537V62.2109ZM93.2537 46.3906V45.3906H92.2537V46.3906H93.2537ZM113.377 46.1481L111.62 53.1793L113.56 53.6644L115.318 46.6332L113.377 46.1481ZM112.59 52.4219H100.285V54.4219H112.59V52.4219ZM99.285 53.4219V55.1797H101.285V53.4219H99.285ZM100.285 56.1797H112.59V54.1797H100.285V56.1797ZM111.59 55.1797V71H113.59V55.1797H111.59ZM112.59 70H91.4959V72H112.59V70ZM92.4661 71.2425L94.2239 64.2113L92.2836 63.7262L90.5258 70.7575L92.4661 71.2425ZM93.2537 64.9688H105.558V62.9688H93.2537V64.9688ZM106.558 63.9688V62.2109H104.558V63.9688H106.558ZM105.558 61.2109H93.2537V63.2109H105.558V61.2109ZM94.2537 62.2109V46.3906H92.2537V62.2109H94.2537ZM93.2537 47.3906H114.347V45.3906H93.2537V47.3906ZM130.57 53.4219H131.57V52.4219H130.57V53.4219ZM123.539 53.4219V52.4219H122.539V53.4219H123.539ZM123.539 63.9688H122.539V64.9688H123.539V63.9688ZM130.57 63.9688V64.9688H131.57V63.9688H130.57ZM137.601 46.3906H138.601V45.3906H137.601V46.3906ZM137.601 71V72H138.601V71H137.601ZM116.507 71H115.507V72H116.507V71ZM116.507 46.3906V45.3906H115.507V46.3906H116.507ZM130.57 52.4219H123.539V54.4219H130.57V52.4219ZM122.539 53.4219V63.9688H124.539V53.4219H122.539ZM123.539 64.9688H130.57V62.9688H123.539V64.9688ZM131.57 63.9688V53.4219H129.57V63.9688H131.57ZM136.601 46.3906V71H138.601V46.3906H136.601ZM137.601 70H116.507V72H137.601V70ZM117.507 71V46.3906H115.507V71H117.507ZM116.507 47.3906H137.601V45.3906H116.507V47.3906ZM162.613 71V72H163.613V71H162.613ZM155.582 71H154.582V72H155.582V71ZM155.582 53.4219H156.582V52.4219H155.582V53.4219ZM148.55 53.4219V52.4219H147.55V53.4219H148.55ZM148.55 71V72H149.55V71H148.55ZM141.519 71H140.519V72H141.519V71ZM141.519 46.3906V45.3906H140.519V46.3906H141.519ZM162.613 46.3906H163.613V45.3906H162.613V46.3906ZM162.613 70H155.582V72H162.613V70ZM156.582 71V53.4219H154.582V71H156.582ZM155.582 52.4219H148.55V54.4219H155.582V52.4219ZM147.55 53.4219V71H149.55V53.4219H147.55ZM148.55 70H141.519V72H148.55V70ZM142.519 71V46.3906H140.519V71H142.519ZM141.519 47.3906H162.613V45.3906H141.519V47.3906ZM161.613 46.3906V71H163.613V46.3906H161.613ZM182.753 53.4219V52.4219H181.753V53.4219H182.753ZM182.753 58.8184H181.753L183.641 59.2783L182.753 58.8184ZM185.548 53.4219L186.436 53.8818L187.192 52.4219H185.548V53.4219ZM182.753 63.9688H181.753V64.9688H182.753V63.9688ZM189.784 63.9688V64.9688H190.784V63.9688H189.784ZM189.784 62.2109H190.784V61.2109H189.784V62.2109ZM182.753 62.2109V61.2109H181.753V62.2109H182.753ZM175.722 71H174.722V72H175.722V71ZM175.722 46.3906V45.3906H174.722V46.3906H175.722ZM197.097 46.3906L197.985 46.8506L198.741 45.3906H197.097V46.3906ZM192.544 55.1797L191.656 54.7197L190.9 56.1797H192.544V55.1797ZM196.816 55.1797H197.816V54.1797H196.816V55.1797ZM196.816 71V72H197.816V71H196.816ZM181.753 53.4219V58.8184H183.753V53.4219H181.753ZM183.641 59.2783L186.436 53.8818L184.66 52.962L181.865 58.3585L183.641 59.2783ZM185.548 52.4219H182.753V54.4219H185.548V52.4219ZM182.753 64.9688H189.784V62.9688H182.753V64.9688ZM190.784 63.9688V62.2109H188.784V63.9688H190.784ZM189.784 61.2109H182.753V63.2109H189.784V61.2109ZM181.753 62.2109V63.9688H183.753V62.2109H181.753ZM176.722 71V46.3906H174.722V71H176.722ZM175.722 47.3906H197.097V45.3906H175.722V47.3906ZM196.209 45.9307L191.656 54.7197L193.432 55.6396L197.985 46.8506L196.209 45.9307ZM192.544 56.1797H196.816V54.1797H192.544V56.1797ZM195.816 55.1797V71H197.816V55.1797H195.816ZM196.816 70H175.722V72H196.816V70ZM214.796 62.2109H215.796V61.2109H214.796V62.2109ZM207.765 62.2109V61.2109H206.765V62.2109H207.765ZM207.765 71V72H208.765V71H207.765ZM200.733 71H199.733V72H200.733V71ZM200.733 46.3906V45.3906H199.733V46.3906H200.733ZM221.827 46.3906H222.827V45.3906H221.827V46.3906ZM221.827 71V72H222.827V71H221.827ZM214.796 71H213.796V72H214.796V71ZM207.765 55.1797H206.765V56.1797H207.765V55.1797ZM214.796 55.1797V56.1797H215.796V55.1797H214.796ZM214.796 53.4219H215.796V52.4219H214.796V53.4219ZM207.765 53.4219V52.4219H206.765V53.4219H207.765ZM214.796 61.2109H207.765V63.2109H214.796V61.2109ZM206.765 62.2109V71H208.765V62.2109H206.765ZM207.765 70H200.733V72H207.765V70ZM201.733 71V46.3906H199.733V71H201.733ZM200.733 47.3906H221.827V45.3906H200.733V47.3906ZM220.827 46.3906V71H222.827V46.3906H220.827ZM221.827 70H214.796V72H221.827V70ZM215.796 71V62.2109H213.796V71H215.796ZM207.765 56.1797H214.796V54.1797H207.765V56.1797ZM215.796 55.1797V53.4219H213.796V55.1797H215.796ZM214.796 52.4219H207.765V54.4219H214.796V52.4219ZM206.765 53.4219V55.1797H208.765V53.4219H206.765ZM246.839 46.3906L247.809 46.6332L248.12 45.3906H246.839V46.3906ZM245.081 53.4219V54.4219H245.862L246.051 53.6644L245.081 53.4219ZM238.929 53.4219V52.4219H237.929V53.4219H238.929ZM238.929 71V72H239.929V71H238.929ZM231.897 71H230.897V72H231.897V71ZM231.897 53.4219H232.897V52.4219H231.897V53.4219ZM225.745 53.4219H224.745V54.4219H225.745V53.4219ZM225.745 46.3906V45.3906H224.745V46.3906H225.745ZM245.869 46.1481L244.111 53.1793L246.051 53.6644L247.809 46.6332L245.869 46.1481ZM245.081 52.4219H238.929V54.4219H245.081V52.4219ZM237.929 53.4219V71H239.929V53.4219H237.929ZM238.929 70H231.897V72H238.929V70ZM232.897 71V53.4219H230.897V71H232.897ZM231.897 52.4219H225.745V54.4219H231.897V52.4219ZM226.745 53.4219V46.3906H224.745V53.4219H226.745ZM225.745 47.3906H246.839V45.3906H225.745V47.3906ZM270.092 46.3906L271.063 46.6332L271.373 45.3906H270.092V46.3906ZM268.335 53.4219V54.4219H269.115L269.305 53.6644L268.335 53.4219ZM256.03 53.4219V52.4219H255.03V53.4219H256.03ZM256.03 55.1797H255.03V56.1797H256.03V55.1797ZM268.335 55.1797L269.305 55.4222L269.615 54.1797H268.335V55.1797ZM266.577 62.2109V63.2109H267.358L267.547 62.4535L266.577 62.2109ZM256.03 62.2109V61.2109H255.03V62.2109H256.03ZM256.03 63.9688H255.03V64.9688H256.03V63.9688ZM270.092 63.9688L271.063 64.2113L271.373 62.9688H270.092V63.9688ZM268.335 71V72H269.115L269.305 71.2425L268.335 71ZM248.999 71H247.999V72H248.999V71ZM248.999 46.3906V45.3906H247.999V46.3906H248.999ZM269.122 46.1481L267.365 53.1793L269.305 53.6644L271.063 46.6332L269.122 46.1481ZM268.335 52.4219H256.03V54.4219H268.335V52.4219ZM255.03 53.4219V55.1797H257.03V53.4219H255.03ZM256.03 56.1797H268.335V54.1797H256.03V56.1797ZM267.365 54.9372L265.607 61.9684L267.547 62.4535L269.305 55.4222L267.365 54.9372ZM266.577 61.2109H256.03V63.2109H266.577V61.2109ZM255.03 62.2109V63.9688H257.03V62.2109H255.03ZM256.03 64.9688H270.092V62.9688H256.03V64.9688ZM269.122 63.7262L267.365 70.7575L269.305 71.2425L271.063 64.2113L269.122 63.7262ZM268.335 70H248.999V72H268.335V70ZM249.999 71V46.3906H247.999V71H249.999ZM248.999 47.3906H270.092V45.3906H248.999V47.3906ZM296.862 71V72H297.862V71H296.862ZM289.831 71H288.831V72H289.831V71ZM289.831 53.4219H290.831V52.4219H289.831V53.4219ZM288.073 53.4219V52.4219H287.073V53.4219H288.073ZM288.073 71V72H289.073V71H288.073ZM281.042 71H280.042V72H281.042V71ZM281.042 53.4219H282.042V52.4219H281.042V53.4219ZM279.284 53.4219V52.4219H278.284V53.4219H279.284ZM279.284 71V72H280.284V71H279.284ZM272.253 71H271.253V72H272.253V71ZM272.253 46.3906V45.3906H271.253V46.3906H272.253ZM296.862 46.3906H297.862V45.3906H296.862V46.3906ZM296.862 70H289.831V72H296.862V70ZM290.831 71V53.4219H288.831V71H290.831ZM289.831 52.4219H288.073V54.4219H289.831V52.4219ZM287.073 53.4219V71H289.073V53.4219H287.073ZM288.073 70H281.042V72H288.073V70ZM282.042 71V53.4219H280.042V71H282.042ZM281.042 52.4219H279.284V54.4219H281.042V52.4219ZM278.284 53.4219V71H280.284V53.4219H278.284ZM279.284 70H272.253V72H279.284V70ZM273.253 71V46.3906H271.253V71H273.253ZM272.253 47.3906H296.862V45.3906H272.253V47.3906ZM295.862 46.3906V71H297.862V46.3906H295.862ZM314.842 62.2109H315.842V61.2109H314.842V62.2109ZM307.811 62.2109V61.2109H306.811V62.2109H307.811ZM307.811 71V72H308.811V71H307.811ZM300.78 71H299.78V72H300.78V71ZM300.78 46.3906V45.3906H299.78V46.3906H300.78ZM321.873 46.3906H322.873V45.3906H321.873V46.3906ZM321.873 71V72H322.873V71H321.873ZM314.842 71H313.842V72H314.842V71ZM307.811 55.1797H306.811V56.1797H307.811V55.1797ZM314.842 55.1797V56.1797H315.842V55.1797H314.842ZM314.842 53.4219H315.842V52.4219H314.842V53.4219ZM307.811 53.4219V52.4219H306.811V53.4219H307.811ZM314.842 61.2109H307.811V63.2109H314.842V61.2109ZM306.811 62.2109V71H308.811V62.2109H306.811ZM307.811 70H300.78V72H307.811V70ZM301.78 71V46.3906H299.78V71H301.78ZM300.78 47.3906H321.873V45.3906H300.78V47.3906ZM320.873 46.3906V71H322.873V46.3906H320.873ZM321.873 70H314.842V72H321.873V70ZM315.842 71V62.2109H313.842V71H315.842ZM307.811 56.1797H314.842V54.1797H307.811V56.1797ZM315.842 55.1797V53.4219H313.842V55.1797H315.842ZM314.842 52.4219H307.811V54.4219H314.842V52.4219ZM306.811 53.4219V55.1797H308.811V53.4219H306.811ZM346.885 71V72H347.885V71H346.885ZM339.854 71H338.854V72H339.854V71ZM339.854 53.4219H340.854V52.4219H339.854V53.4219ZM332.822 53.4219V52.4219H331.822V53.4219H332.822ZM332.822 71V72H333.822V71H332.822ZM325.791 71H324.791V72H325.791V71ZM325.791 46.3906V45.3906H324.791V46.3906H325.791ZM346.885 46.3906H347.885V45.3906H346.885V46.3906ZM346.885 70H339.854V72H346.885V70ZM340.854 71V53.4219H338.854V71H340.854ZM339.854 52.4219H332.822V54.4219H339.854V52.4219ZM331.822 53.4219V71H333.822V53.4219H331.822ZM332.822 70H325.791V72H332.822V70ZM326.791 71V46.3906H324.791V71H326.791ZM325.791 47.3906H346.885V45.3906H325.791V47.3906ZM345.885 46.3906V71H347.885V46.3906H345.885Z" fill="#34FF00" mask="url(#path-11-inside-1_63_441)"/>
</svg>
