<svg width="391" height="121" viewBox="0 0 391 121" fill="none" xmlns="http://www.w3.org/2000/svg">
<path d="M385.633 3.61601L351.77 46.9199C350.355 48.7295 350.355 51.2705 351.77 53.0801L385.633 96.384C386.147 97.0405 385.679 98 384.846 98H2.99999C2.44771 98 2 97.5523 2 97V3C2 2.44772 2.44771 2 3 2H195.5H384.846C385.679 2 386.147 2.95954 385.633 3.61601Z" fill="white" stroke="#FFB800" stroke-width="4"/>
<path d="M385.633 23.616L351.77 66.9199C350.355 68.7295 350.355 71.2705 351.77 73.0801L385.633 116.384C386.147 117.04 385.679 118 384.846 118H2.99999C2.44771 118 2 117.552 2 117V23C2 22.4477 2.44771 22 3 22H195.5H384.846C385.679 22 386.147 22.9595 385.633 23.616Z" fill="black" stroke="white" stroke-width="4"/>
<path d="M385.633 13.616L351.77 56.9199C350.355 58.7295 350.355 61.2705 351.77 63.0801L385.633 106.384C386.147 107.04 385.679 108 384.846 108H2.99999C2.44771 108 2 107.552 2 107V13C2 12.4477 2.44771 12 3 12H195.5H384.846C385.679 12 386.147 12.9595 385.633 13.616Z" fill="#E7E7E7" stroke="#76FF03" stroke-width="4"/>
<line x1="10" y1="23" x2="30" y2="23" stroke="#FFB800" stroke-width="4"/>
<line x1="12" y1="22" x2="12" y2="97" stroke="#FFB800" stroke-width="4"/>
<line x1="10" y1="98" x2="30" y2="98" stroke="#FFB800" stroke-width="4"/>
<line y1="-2" x2="44.8821" y2="-2" transform="matrix(0.616011 -0.787738 0.616011 0.787738 346.426 55.3553)" stroke="#FFB800" stroke-width="4"/>
<line x1="338.606" y1="53" x2="346.426" y2="53" stroke="#FFB800" stroke-width="4"/>
<line x1="338.606" y1="66" x2="346.426" y2="66" stroke="#FFB800" stroke-width="4"/>
<line y1="-2" x2="44.8821" y2="-2" transform="matrix(0.616011 0.787738 -0.616011 0.787738 344.08 67)" stroke="#FFB800" stroke-width="4"/>
<path d="M69.1211 71L70.8789 63.9688H82.3047V46.3906H89.3359V71H69.1211ZM112.188 46.3906L110.43 53.4219H98.125V55.1797H110.43V71H89.3359L91.0938 63.9688H103.398V62.2109H91.0938V46.3906H112.188ZM126.25 53.4219H119.219V63.9688H126.25V53.4219ZM133.281 46.3906V71H112.188V46.3906H133.281ZM156.133 71H149.102V53.4219H142.07V71H135.039V46.3906H156.133V71ZM189.531 71H182.5V53.4219H180.742V71H173.711V53.4219H171.953V71H164.922V46.3906H189.531V71ZM205.352 53.4219H198.32V63.9688H205.352V53.4219ZM212.383 46.3906V71H191.289V46.3906H212.383ZM238.75 71H231.719V53.4219H229.961V71H222.93V53.4219H221.172V71H214.141V46.3906H238.75V71ZM254.57 53.4219H247.539V63.9688H254.57V53.4219ZM261.602 46.3906V71H240.508V46.3906H261.602ZM277.422 62.2109H270.391V71H263.359V46.3906H284.453V71H277.422V62.2109ZM270.391 55.1797H277.422V53.4219H270.391V55.1797Z" fill="black"/>
</svg>
