<svg width="437" height="121" viewBox="0 0 437 121" fill="none" xmlns="http://www.w3.org/2000/svg">
<path d="M431.523 3.98712L393.896 47.0387C392.414 48.7346 392.414 51.2654 393.896 52.9613L431.523 96.0129C432.371 96.9829 431.682 98.5 430.394 98.5H2.99999C2.17157 98.5 1.5 97.8284 1.5 97V3C1.5 2.17157 2.17157 1.5 3 1.5H218.5H430.394C431.682 1.5 432.371 3.01706 431.523 3.98712Z" fill="white" fill-opacity="0.8" stroke="#FFB800" stroke-width="3"/>
<path d="M431.523 23.9871L393.896 67.0387C392.414 68.7346 392.414 71.2654 393.896 72.9613L431.523 116.013C432.371 116.983 431.682 118.5 430.394 118.5H2.99999C2.17157 118.5 1.5 117.828 1.5 117V23C1.5 22.1716 2.17157 21.5 3 21.5H218.5H430.394C431.682 21.5 432.371 23.0171 431.523 23.9871Z" fill="black" fill-opacity="0.6" stroke="white" stroke-width="3"/>
<path d="M431.523 13.9871L393.896 57.0387C392.414 58.7346 392.414 61.2654 393.896 62.9613L431.523 106.013C432.371 106.983 431.682 108.5 430.394 108.5H2.99999C2.17157 108.5 1.5 107.828 1.5 107V13C1.5 12.1716 2.17157 11.5 3 11.5H218.5H430.394C431.682 11.5 432.371 13.0171 431.523 13.9871Z" fill="#E7E7E7" fill-opacity="0.7" stroke="#76FF03" stroke-width="3"/>
<line x1="10" y1="23.5" x2="30" y2="23.5" stroke="#FFB800" stroke-width="3"/>
<line x1="11.5" y1="22" x2="11.5" y2="97" stroke="#FFB800" stroke-width="3"/>
<line x1="10" y1="98.5" x2="30" y2="98.5" stroke="#FFB800" stroke-width="3"/>
<line y1="-1.5" x2="46.9558" y2="-1.5" transform="matrix(0.658078 -0.75295 0.658078 0.75295 387.182 55.3555)" stroke="#FFB800" stroke-width="3"/>
<line x1="378.442" y1="53.5" x2="387.182" y2="53.5" stroke="#FFB800" stroke-width="3"/>
<line x1="378.442" y1="66.5" x2="387.182" y2="66.5" stroke="#FFB800" stroke-width="3"/>
<line y1="-1.5" x2="46.9558" y2="-1.5" transform="matrix(0.658078 0.75295 -0.658078 0.75295 384.56 67)" stroke="#FFB800" stroke-width="3"/>
<mask id="path-11-inside-1_63_705" fill="white">
<path d="M69.1211 71L70.8789 63.9688H82.3047V46.3906H89.3359V71H69.1211ZM114.347 46.3906L112.59 53.4219H100.285V55.1797H112.59V71H91.4959L93.2537 63.9688H105.558V62.2109H93.2537V46.3906H114.347ZM130.57 53.4219H123.539V63.9688H130.57V53.4219ZM137.601 46.3906V71H116.507V46.3906H137.601ZM162.613 71H155.582V53.4219H148.55V71H141.519V46.3906H162.613V71ZM196.816 46.3906L195.058 53.4219H188.905V71H181.874V53.4219H175.722V46.3906H196.816ZM213.038 62.2109H206.007V71H198.976V46.3906H220.069V71H213.038V62.2109ZM206.007 55.1797H213.038V53.4219H206.007V55.1797ZM238.05 55.1797V46.3906H245.081V62.2109H238.05V71H231.018V62.2109H223.987V46.3906H231.018V55.1797H238.05ZM256.03 63.9688H270.092L268.335 71H248.999V46.3906H256.03V63.9688ZM286.315 53.4219H279.284V63.9688H286.315V53.4219ZM293.346 46.3906V71H272.253V46.3906H293.346ZM311.327 53.4219H304.295V55.1797H311.327V53.4219ZM318.358 46.3906V62.2109H314.473L319.518 71H311.608L304.295 58.2383V71H297.264V46.3906H318.358Z"/>
</mask>
<path d="M69.1211 71L70.8789 63.9688H82.3047V46.3906H89.3359V71H69.1211ZM114.347 46.3906L112.59 53.4219H100.285V55.1797H112.59V71H91.4959L93.2537 63.9688H105.558V62.2109H93.2537V46.3906H114.347ZM130.57 53.4219H123.539V63.9688H130.57V53.4219ZM137.601 46.3906V71H116.507V46.3906H137.601ZM162.613 71H155.582V53.4219H148.55V71H141.519V46.3906H162.613V71ZM196.816 46.3906L195.058 53.4219H188.905V71H181.874V53.4219H175.722V46.3906H196.816ZM213.038 62.2109H206.007V71H198.976V46.3906H220.069V71H213.038V62.2109ZM206.007 55.1797H213.038V53.4219H206.007V55.1797ZM238.05 55.1797V46.3906H245.081V62.2109H238.05V71H231.018V62.2109H223.987V46.3906H231.018V55.1797H238.05ZM256.03 63.9688H270.092L268.335 71H248.999V46.3906H256.03V63.9688ZM286.315 53.4219H279.284V63.9688H286.315V53.4219ZM293.346 46.3906V71H272.253V46.3906H293.346ZM311.327 53.4219H304.295V55.1797H311.327V53.4219ZM318.358 46.3906V62.2109H314.473L319.518 71H311.608L304.295 58.2383V71H297.264V46.3906H318.358Z" fill="white" fill-opacity="0.85"/>
<path d="M69.1211 71L68.151 70.7575L67.8403 72H69.1211V71ZM70.8789 63.9688V62.9688H70.0981L69.9088 63.7262L70.8789 63.9688ZM82.3047 63.9688V64.9688H83.3047V63.9688H82.3047ZM82.3047 46.3906V45.3906H81.3047V46.3906H82.3047ZM89.3359 46.3906H90.3359V45.3906H89.3359V46.3906ZM89.3359 71V72H90.3359V71H89.3359ZM70.0912 71.2425L71.849 64.2113L69.9088 63.7262L68.151 70.7575L70.0912 71.2425ZM70.8789 64.9688H82.3047V62.9688H70.8789V64.9688ZM83.3047 63.9688V46.3906H81.3047V63.9688H83.3047ZM82.3047 47.3906H89.3359V45.3906H82.3047V47.3906ZM88.3359 46.3906V71H90.3359V46.3906H88.3359ZM89.3359 70H69.1211V72H89.3359V70ZM114.347 46.3906L115.318 46.6332L115.628 45.3906H114.347V46.3906ZM112.59 53.4219V54.4219H113.37L113.56 53.6644L112.59 53.4219ZM100.285 53.4219V52.4219H99.285V53.4219H100.285ZM100.285 55.1797H99.285V56.1797H100.285V55.1797ZM112.59 55.1797H113.59V54.1797H112.59V55.1797ZM112.59 71V72H113.59V71H112.59ZM91.4959 71L90.5258 70.7575L90.2152 72H91.4959V71ZM93.2537 63.9688V62.9688H92.473L92.2836 63.7262L93.2537 63.9688ZM105.558 63.9688V64.9688H106.558V63.9688H105.558ZM105.558 62.2109H106.558V61.2109H105.558V62.2109ZM93.2537 62.2109H92.2537V63.2109H93.2537V62.2109ZM93.2537 46.3906V45.3906H92.2537V46.3906H93.2537ZM113.377 46.1481L111.62 53.1793L113.56 53.6644L115.318 46.6332L113.377 46.1481ZM112.59 52.4219H100.285V54.4219H112.59V52.4219ZM99.285 53.4219V55.1797H101.285V53.4219H99.285ZM100.285 56.1797H112.59V54.1797H100.285V56.1797ZM111.59 55.1797V71H113.59V55.1797H111.59ZM112.59 70H91.4959V72H112.59V70ZM92.4661 71.2425L94.2239 64.2113L92.2836 63.7262L90.5258 70.7575L92.4661 71.2425ZM93.2537 64.9688H105.558V62.9688H93.2537V64.9688ZM106.558 63.9688V62.2109H104.558V63.9688H106.558ZM105.558 61.2109H93.2537V63.2109H105.558V61.2109ZM94.2537 62.2109V46.3906H92.2537V62.2109H94.2537ZM93.2537 47.3906H114.347V45.3906H93.2537V47.3906ZM130.57 53.4219H131.57V52.4219H130.57V53.4219ZM123.539 53.4219V52.4219H122.539V53.4219H123.539ZM123.539 63.9688H122.539V64.9688H123.539V63.9688ZM130.57 63.9688V64.9688H131.57V63.9688H130.57ZM137.601 46.3906H138.601V45.3906H137.601V46.3906ZM137.601 71V72H138.601V71H137.601ZM116.507 71H115.507V72H116.507V71ZM116.507 46.3906V45.3906H115.507V46.3906H116.507ZM130.57 52.4219H123.539V54.4219H130.57V52.4219ZM122.539 53.4219V63.9688H124.539V53.4219H122.539ZM123.539 64.9688H130.57V62.9688H123.539V64.9688ZM131.57 63.9688V53.4219H129.57V63.9688H131.57ZM136.601 46.3906V71H138.601V46.3906H136.601ZM137.601 70H116.507V72H137.601V70ZM117.507 71V46.3906H115.507V71H117.507ZM116.507 47.3906H137.601V45.3906H116.507V47.3906ZM162.613 71V72H163.613V71H162.613ZM155.582 71H154.582V72H155.582V71ZM155.582 53.4219H156.582V52.4219H155.582V53.4219ZM148.55 53.4219V52.4219H147.55V53.4219H148.55ZM148.55 71V72H149.55V71H148.55ZM141.519 71H140.519V72H141.519V71ZM141.519 46.3906V45.3906H140.519V46.3906H141.519ZM162.613 46.3906H163.613V45.3906H162.613V46.3906ZM162.613 70H155.582V72H162.613V70ZM156.582 71V53.4219H154.582V71H156.582ZM155.582 52.4219H148.55V54.4219H155.582V52.4219ZM147.55 53.4219V71H149.55V53.4219H147.55ZM148.55 70H141.519V72H148.55V70ZM142.519 71V46.3906H140.519V71H142.519ZM141.519 47.3906H162.613V45.3906H141.519V47.3906ZM161.613 46.3906V71H163.613V46.3906H161.613ZM196.816 46.3906L197.786 46.6332L198.096 45.3906H196.816V46.3906ZM195.058 53.4219V54.4219H195.839L196.028 53.6644L195.058 53.4219ZM188.905 53.4219V52.4219H187.905V53.4219H188.905ZM188.905 71V72H189.905V71H188.905ZM181.874 71H180.874V72H181.874V71ZM181.874 53.4219H182.874V52.4219H181.874V53.4219ZM175.722 53.4219H174.722V54.4219H175.722V53.4219ZM175.722 46.3906V45.3906H174.722V46.3906H175.722ZM195.845 46.1481L194.088 53.1793L196.028 53.6644L197.786 46.6332L195.845 46.1481ZM195.058 52.4219H188.905V54.4219H195.058V52.4219ZM187.905 53.4219V71H189.905V53.4219H187.905ZM188.905 70H181.874V72H188.905V70ZM182.874 71V53.4219H180.874V71H182.874ZM181.874 52.4219H175.722V54.4219H181.874V52.4219ZM176.722 53.4219V46.3906H174.722V53.4219H176.722ZM175.722 47.3906H196.816V45.3906H175.722V47.3906ZM213.038 62.2109H214.038V61.2109H213.038V62.2109ZM206.007 62.2109V61.2109H205.007V62.2109H206.007ZM206.007 71V72H207.007V71H206.007ZM198.976 71H197.976V72H198.976V71ZM198.976 46.3906V45.3906H197.976V46.3906H198.976ZM220.069 46.3906H221.069V45.3906H220.069V46.3906ZM220.069 71V72H221.069V71H220.069ZM213.038 71H212.038V72H213.038V71ZM206.007 55.1797H205.007V56.1797H206.007V55.1797ZM213.038 55.1797V56.1797H214.038V55.1797H213.038ZM213.038 53.4219H214.038V52.4219H213.038V53.4219ZM206.007 53.4219V52.4219H205.007V53.4219H206.007ZM213.038 61.2109H206.007V63.2109H213.038V61.2109ZM205.007 62.2109V71H207.007V62.2109H205.007ZM206.007 70H198.976V72H206.007V70ZM199.976 71V46.3906H197.976V71H199.976ZM198.976 47.3906H220.069V45.3906H198.976V47.3906ZM219.069 46.3906V71H221.069V46.3906H219.069ZM220.069 70H213.038V72H220.069V70ZM214.038 71V62.2109H212.038V71H214.038ZM206.007 56.1797H213.038V54.1797H206.007V56.1797ZM214.038 55.1797V53.4219H212.038V55.1797H214.038ZM213.038 52.4219H206.007V54.4219H213.038V52.4219ZM205.007 53.4219V55.1797H207.007V53.4219H205.007ZM238.05 55.1797V56.1797H239.05V55.1797H238.05ZM238.05 46.3906V45.3906H237.05V46.3906H238.05ZM245.081 46.3906H246.081V45.3906H245.081V46.3906ZM245.081 62.2109V63.2109H246.081V62.2109H245.081ZM238.05 62.2109V61.2109H237.05V62.2109H238.05ZM238.05 71V72H239.05V71H238.05ZM231.018 71H230.018V72H231.018V71ZM231.018 62.2109H232.018V61.2109H231.018V62.2109ZM223.987 62.2109H222.987V63.2109H223.987V62.2109ZM223.987 46.3906V45.3906H222.987V46.3906H223.987ZM231.018 46.3906H232.018V45.3906H231.018V46.3906ZM231.018 55.1797H230.018V56.1797H231.018V55.1797ZM239.05 55.1797V46.3906H237.05V55.1797H239.05ZM238.05 47.3906H245.081V45.3906H238.05V47.3906ZM244.081 46.3906V62.2109H246.081V46.3906H244.081ZM245.081 61.2109H238.05V63.2109H245.081V61.2109ZM237.05 62.2109V71H239.05V62.2109H237.05ZM238.05 70H231.018V72H238.05V70ZM232.018 71V62.2109H230.018V71H232.018ZM231.018 61.2109H223.987V63.2109H231.018V61.2109ZM224.987 62.2109V46.3906H222.987V62.2109H224.987ZM223.987 47.3906H231.018V45.3906H223.987V47.3906ZM230.018 46.3906V55.1797H232.018V46.3906H230.018ZM231.018 56.1797H238.05V54.1797H231.018V56.1797ZM256.03 63.9688H255.03V64.9688H256.03V63.9688ZM270.092 63.9688L271.063 64.2113L271.373 62.9688H270.092V63.9688ZM268.335 71V72H269.115L269.305 71.2425L268.335 71ZM248.999 71H247.999V72H248.999V71ZM248.999 46.3906V45.3906H247.999V46.3906H248.999ZM256.03 46.3906H257.03V45.3906H256.03V46.3906ZM256.03 64.9688H270.092V62.9688H256.03V64.9688ZM269.122 63.7262L267.365 70.7575L269.305 71.2425L271.063 64.2113L269.122 63.7262ZM268.335 70H248.999V72H268.335V70ZM249.999 71V46.3906H247.999V71H249.999ZM248.999 47.3906H256.03V45.3906H248.999V47.3906ZM255.03 46.3906V63.9688H257.03V46.3906H255.03ZM286.315 53.4219H287.315V52.4219H286.315V53.4219ZM279.284 53.4219V52.4219H278.284V53.4219H279.284ZM279.284 63.9688H278.284V64.9688H279.284V63.9688ZM286.315 63.9688V64.9688H287.315V63.9688H286.315ZM293.346 46.3906H294.346V45.3906H293.346V46.3906ZM293.346 71V72H294.346V71H293.346ZM272.253 71H271.253V72H272.253V71ZM272.253 46.3906V45.3906H271.253V46.3906H272.253ZM286.315 52.4219H279.284V54.4219H286.315V52.4219ZM278.284 53.4219V63.9688H280.284V53.4219H278.284ZM279.284 64.9688H286.315V62.9688H279.284V64.9688ZM287.315 63.9688V53.4219H285.315V63.9688H287.315ZM292.346 46.3906V71H294.346V46.3906H292.346ZM293.346 70H272.253V72H293.346V70ZM273.253 71V46.3906H271.253V71H273.253ZM272.253 47.3906H293.346V45.3906H272.253V47.3906ZM311.327 53.4219H312.327V52.4219H311.327V53.4219ZM304.295 53.4219V52.4219H303.295V53.4219H304.295ZM304.295 55.1797H303.295V56.1797H304.295V55.1797ZM311.327 55.1797V56.1797H312.327V55.1797H311.327ZM318.358 46.3906H319.358V45.3906H318.358V46.3906ZM318.358 62.2109V63.2109H319.358V62.2109H318.358ZM314.473 62.2109V61.2109H312.746L313.606 62.7088L314.473 62.2109ZM319.518 71V72H321.245L320.385 70.5022L319.518 71ZM311.608 71L310.74 71.4972L311.028 72H311.608V71ZM304.295 58.2383L305.163 57.7411L303.295 54.4817V58.2383H304.295ZM304.295 71V72H305.295V71H304.295ZM297.264 71H296.264V72H297.264V71ZM297.264 46.3906V45.3906H296.264V46.3906H297.264ZM311.327 52.4219H304.295V54.4219H311.327V52.4219ZM303.295 53.4219V55.1797H305.295V53.4219H303.295ZM304.295 56.1797H311.327V54.1797H304.295V56.1797ZM312.327 55.1797V53.4219H310.327V55.1797H312.327ZM317.358 46.3906V62.2109H319.358V46.3906H317.358ZM318.358 61.2109H314.473V63.2109H318.358V61.2109ZM313.606 62.7088L318.651 71.4978L320.385 70.5022L315.34 61.7131L313.606 62.7088ZM319.518 70H311.608V72H319.518V70ZM312.475 70.5028L305.163 57.7411L303.428 58.7354L310.74 71.4972L312.475 70.5028ZM303.295 58.2383V71H305.295V58.2383H303.295ZM304.295 70H297.264V72H304.295V70ZM298.264 71V46.3906H296.264V71H298.264ZM297.264 47.3906H318.358V45.3906H297.264V47.3906Z" fill="#34FF00" mask="url(#path-11-inside-1_63_705)"/>
</svg>
