<svg width="399" height="121" viewBox="0 0 399 121" fill="none" xmlns="http://www.w3.org/2000/svg">
<path d="M393.549 3.62374L359.03 46.8813C357.574 48.7056 357.574 51.2944 359.03 53.1187L393.549 96.3763C394.072 97.0312 393.606 98 392.768 98H2.99999C2.44771 98 2 97.5523 2 97V3C2 2.44771 2.44771 2 3 2H199.5H392.768C393.606 2 394.072 2.96878 393.549 3.62374Z" fill="white" stroke="#FFB800" stroke-width="4"/>
<path d="M393.549 23.6237L359.03 66.8813C357.574 68.7056 357.574 71.2944 359.03 73.1187L393.549 116.376C394.072 117.031 393.606 118 392.768 118H2.99999C2.44771 118 2 117.552 2 117V23C2 22.4477 2.44771 22 3 22H199.5H392.768C393.606 22 394.072 22.9688 393.549 23.6237Z" fill="black" stroke="white" stroke-width="4"/>
<path d="M393.549 13.6237L359.03 56.8813C357.574 58.7056 357.574 61.2944 359.03 63.1187L393.549 106.376C394.072 107.031 393.606 108 392.768 108H2.99999C2.44771 108 2 107.552 2 107V13C2 12.4477 2.44771 12 3 12H199.5H392.768C393.606 12 394.072 12.9688 393.549 13.6237Z" fill="#E7E7E7" stroke="#76FF03" stroke-width="4"/>
<line x1="10" y1="23" x2="30" y2="23" stroke="#FFB800" stroke-width="4"/>
<line x1="12" y1="22" x2="12" y2="97" stroke="#FFB800" stroke-width="4"/>
<line x1="10" y1="98" x2="30" y2="98" stroke="#FFB800" stroke-width="4"/>
<line y1="-2" x2="45.2328" y2="-2" transform="matrix(0.623741 -0.781631 0.623741 0.781631 353.514 55.3555)" stroke="#FFB800" stroke-width="4"/>
<line x1="345.534" y1="53" x2="353.514" y2="53" stroke="#FFB800" stroke-width="4"/>
<line x1="345.534" y1="66" x2="353.514" y2="66" stroke="#FFB800" stroke-width="4"/>
<line y1="-2" x2="45.2328" y2="-2" transform="matrix(0.623741 0.781631 -0.623741 0.781631 351.12 67)" stroke="#FFB800" stroke-width="4"/>
<path d="M69.1211 71L70.8789 63.9688H82.3047V46.3906H89.3359V71H69.1211ZM112.188 46.3906L110.43 53.4219H98.125V55.1797H110.43V71H89.3359L91.0938 63.9688H103.398V62.2109H91.0938V46.3906H112.188ZM126.25 53.4219H119.219V63.9688H126.25V53.4219ZM133.281 46.3906V71H112.188V46.3906H133.281ZM156.133 71H149.102V53.4219H142.07V71H135.039V46.3906H156.133V71ZM186.016 46.3906L184.258 53.4219H178.105V71H171.074V53.4219H164.922V46.3906H186.016ZM200.078 62.2109H193.047V71H186.016V46.3906H207.109V71H200.078V62.2109ZM193.047 55.1797H200.078V53.4219H193.047V55.1797ZM222.93 55.1797V46.3906H229.961V62.2109H222.93V71H215.898V62.2109H208.867V46.3906H215.898V55.1797H222.93ZM238.75 63.9688H252.812L251.055 71H231.719V46.3906H238.75V63.9688ZM266.875 53.4219H259.844V63.9688H266.875V53.4219ZM273.906 46.3906V71H252.812V46.3906H273.906ZM289.727 53.4219H282.695V55.1797H289.727V53.4219ZM296.758 46.3906V62.2109H292.873L297.918 71H290.008L282.695 58.2383V71H275.664V46.3906H296.758Z" fill="black"/>
</svg>
