<svg width="360" height="121" viewBox="0 0 360 121" fill="none" xmlns="http://www.w3.org/2000/svg">
<path d="M355.361 3.87646L324.045 47.3706C322.914 48.9412 322.914 51.0588 324.045 52.6294L355.361 96.1235C356.075 97.1158 355.366 98.5 354.143 98.5H3C2.17157 98.5 1.5 97.8284 1.5 97V3C1.5 2.17157 2.17157 1.5 3 1.5H180H354.143C355.366 1.5 356.075 2.88423 355.361 3.87646Z" fill="white" fill-opacity="0.8" stroke="#FFB800" stroke-width="3"/>
<path d="M355.361 23.8765L324.045 67.3706C322.914 68.9412 322.914 71.0588 324.045 72.6294L355.361 116.124C356.075 117.116 355.366 118.5 354.143 118.5H3C2.17157 118.5 1.5 117.828 1.5 117V23C1.5 22.1716 2.17157 21.5 3 21.5H180H354.143C355.366 21.5 356.075 22.8842 355.361 23.8765Z" fill="black" fill-opacity="0.6" stroke="white" stroke-width="3"/>
<path d="M355.361 13.8765L324.045 57.3706C322.914 58.9412 322.914 61.0588 324.045 62.6294L355.361 106.124C356.075 107.116 355.366 108.5 354.143 108.5H3C2.17157 108.5 1.5 107.828 1.5 107V13C1.5 12.1716 2.17157 11.5 3 11.5H180H354.143C355.366 11.5 356.075 12.8842 355.361 13.8765Z" fill="#E7E7E7" fill-opacity="0.7" stroke="#76FF03" stroke-width="3"/>
<line x1="10" y1="23.5" x2="30" y2="23.5" stroke="#FFB800" stroke-width="3"/>
<line x1="11.5" y1="22" x2="11.5" y2="97" stroke="#FFB800" stroke-width="3"/>
<line x1="10" y1="98.5" x2="30" y2="98.5" stroke="#FFB800" stroke-width="3"/>
<line y1="-1.5" x2="43.5661" y2="-1.5" transform="matrix(0.584305 -0.811534 0.584305 0.811534 318.96 55.3553)" stroke="#FFB800" stroke-width="3"/>
<line x1="311.76" y1="53.5" x2="318.96" y2="53.5" stroke="#FFB800" stroke-width="3"/>
<line x1="311.76" y1="66.5" x2="318.96" y2="66.5" stroke="#FFB800" stroke-width="3"/>
<line y1="-1.5" x2="43.566" y2="-1.5" transform="matrix(0.584305 0.811534 -0.584305 0.811534 316.8 67)" stroke="#FFB800" stroke-width="3"/>
<mask id="path-11-inside-1_63_525" fill="white">
<path d="M69.1211 71L70.8789 63.9688H82.3047V46.3906H89.3359V71H69.1211ZM114.347 46.3906L112.59 53.4219H100.285V55.1797H112.59V71H91.4959L93.2537 63.9688H105.558V62.2109H93.2537V46.3906H114.347ZM130.57 53.4219H123.539V63.9688H130.57V53.4219ZM137.601 46.3906V71H116.507V46.3906H137.601ZM162.613 71H155.582V53.4219H148.55V71H141.519V46.3906H162.613V71ZM182.753 61.1914V71H175.722V46.3906H182.753V56.1992L188.132 46.3906H196.13L189.398 58.6953L196.13 71H188.132L182.753 61.1914ZM198.976 46.3906H206.007V71H198.976V46.3906ZM223.987 53.4219H209.046L210.804 46.3906H231.018V71H209.925V55.1797H216.956V63.9688H223.987V53.4219ZM248.999 53.4219H234.057L235.815 46.3906H256.03V71H234.936V55.1797H241.967V63.9688H248.999V53.4219Z"/>
</mask>
<path d="M69.1211 71L70.8789 63.9688H82.3047V46.3906H89.3359V71H69.1211ZM114.347 46.3906L112.59 53.4219H100.285V55.1797H112.59V71H91.4959L93.2537 63.9688H105.558V62.2109H93.2537V46.3906H114.347ZM130.57 53.4219H123.539V63.9688H130.57V53.4219ZM137.601 46.3906V71H116.507V46.3906H137.601ZM162.613 71H155.582V53.4219H148.55V71H141.519V46.3906H162.613V71ZM182.753 61.1914V71H175.722V46.3906H182.753V56.1992L188.132 46.3906H196.13L189.398 58.6953L196.13 71H188.132L182.753 61.1914ZM198.976 46.3906H206.007V71H198.976V46.3906ZM223.987 53.4219H209.046L210.804 46.3906H231.018V71H209.925V55.1797H216.956V63.9688H223.987V53.4219ZM248.999 53.4219H234.057L235.815 46.3906H256.03V71H234.936V55.1797H241.967V63.9688H248.999V53.4219Z" fill="white" fill-opacity="0.85"/>
<path d="M69.1211 71L68.151 70.7575L67.8403 72H69.1211V71ZM70.8789 63.9688V62.9688H70.0981L69.9088 63.7262L70.8789 63.9688ZM82.3047 63.9688V64.9688H83.3047V63.9688H82.3047ZM82.3047 46.3906V45.3906H81.3047V46.3906H82.3047ZM89.3359 46.3906H90.3359V45.3906H89.3359V46.3906ZM89.3359 71V72H90.3359V71H89.3359ZM70.0912 71.2425L71.849 64.2113L69.9088 63.7262L68.151 70.7575L70.0912 71.2425ZM70.8789 64.9688H82.3047V62.9688H70.8789V64.9688ZM83.3047 63.9688V46.3906H81.3047V63.9688H83.3047ZM82.3047 47.3906H89.3359V45.3906H82.3047V47.3906ZM88.3359 46.3906V71H90.3359V46.3906H88.3359ZM89.3359 70H69.1211V72H89.3359V70ZM114.347 46.3906L115.318 46.6332L115.628 45.3906H114.347V46.3906ZM112.59 53.4219V54.4219H113.37L113.56 53.6644L112.59 53.4219ZM100.285 53.4219V52.4219H99.285V53.4219H100.285ZM100.285 55.1797H99.285V56.1797H100.285V55.1797ZM112.59 55.1797H113.59V54.1797H112.59V55.1797ZM112.59 71V72H113.59V71H112.59ZM91.4959 71L90.5258 70.7575L90.2152 72H91.4959V71ZM93.2537 63.9688V62.9688H92.473L92.2836 63.7262L93.2537 63.9688ZM105.558 63.9688V64.9688H106.558V63.9688H105.558ZM105.558 62.2109H106.558V61.2109H105.558V62.2109ZM93.2537 62.2109H92.2537V63.2109H93.2537V62.2109ZM93.2537 46.3906V45.3906H92.2537V46.3906H93.2537ZM113.377 46.1481L111.62 53.1793L113.56 53.6644L115.318 46.6332L113.377 46.1481ZM112.59 52.4219H100.285V54.4219H112.59V52.4219ZM99.285 53.4219V55.1797H101.285V53.4219H99.285ZM100.285 56.1797H112.59V54.1797H100.285V56.1797ZM111.59 55.1797V71H113.59V55.1797H111.59ZM112.59 70H91.4959V72H112.59V70ZM92.4661 71.2425L94.2239 64.2113L92.2836 63.7262L90.5258 70.7575L92.4661 71.2425ZM93.2537 64.9688H105.558V62.9688H93.2537V64.9688ZM106.558 63.9688V62.2109H104.558V63.9688H106.558ZM105.558 61.2109H93.2537V63.2109H105.558V61.2109ZM94.2537 62.2109V46.3906H92.2537V62.2109H94.2537ZM93.2537 47.3906H114.347V45.3906H93.2537V47.3906ZM130.57 53.4219H131.57V52.4219H130.57V53.4219ZM123.539 53.4219V52.4219H122.539V53.4219H123.539ZM123.539 63.9688H122.539V64.9688H123.539V63.9688ZM130.57 63.9688V64.9688H131.57V63.9688H130.57ZM137.601 46.3906H138.601V45.3906H137.601V46.3906ZM137.601 71V72H138.601V71H137.601ZM116.507 71H115.507V72H116.507V71ZM116.507 46.3906V45.3906H115.507V46.3906H116.507ZM130.57 52.4219H123.539V54.4219H130.57V52.4219ZM122.539 53.4219V63.9688H124.539V53.4219H122.539ZM123.539 64.9688H130.57V62.9688H123.539V64.9688ZM131.57 63.9688V53.4219H129.57V63.9688H131.57ZM136.601 46.3906V71H138.601V46.3906H136.601ZM137.601 70H116.507V72H137.601V70ZM117.507 71V46.3906H115.507V71H117.507ZM116.507 47.3906H137.601V45.3906H116.507V47.3906ZM162.613 71V72H163.613V71H162.613ZM155.582 71H154.582V72H155.582V71ZM155.582 53.4219H156.582V52.4219H155.582V53.4219ZM148.55 53.4219V52.4219H147.55V53.4219H148.55ZM148.55 71V72H149.55V71H148.55ZM141.519 71H140.519V72H141.519V71ZM141.519 46.3906V45.3906H140.519V46.3906H141.519ZM162.613 46.3906H163.613V45.3906H162.613V46.3906ZM162.613 70H155.582V72H162.613V70ZM156.582 71V53.4219H154.582V71H156.582ZM155.582 52.4219H148.55V54.4219H155.582V52.4219ZM147.55 53.4219V71H149.55V53.4219H147.55ZM148.55 70H141.519V72H148.55V70ZM142.519 71V46.3906H140.519V71H142.519ZM141.519 47.3906H162.613V45.3906H141.519V47.3906ZM161.613 46.3906V71H163.613V46.3906H161.613ZM182.753 61.1914L183.63 60.7106L181.753 61.1914H182.753ZM182.753 71V72H183.753V71H182.753ZM175.722 71H174.722V72H175.722V71ZM175.722 46.3906V45.3906H174.722V46.3906H175.722ZM182.753 46.3906H183.753V45.3906H182.753V46.3906ZM182.753 56.1992H181.753L183.63 56.6801L182.753 56.1992ZM188.132 46.3906V45.3906H187.54L187.255 45.9098L188.132 46.3906ZM196.13 46.3906L197.007 46.8706L197.817 45.3906H196.13V46.3906ZM189.398 58.6953L188.52 58.2153L188.258 58.6953L188.52 59.1753L189.398 58.6953ZM196.13 71V72H197.817L197.007 70.52L196.13 71ZM188.132 71L187.255 71.4808L187.54 72H188.132V71ZM181.753 61.1914V71H183.753V61.1914H181.753ZM182.753 70H175.722V72H182.753V70ZM176.722 71V46.3906H174.722V71H176.722ZM175.722 47.3906H182.753V45.3906H175.722V47.3906ZM181.753 46.3906V56.1992H183.753V46.3906H181.753ZM183.63 56.6801L189.009 46.8715L187.255 45.9098L181.876 55.7184L183.63 56.6801ZM188.132 47.3906H196.13V45.3906H188.132V47.3906ZM195.253 45.9106L188.52 58.2153L190.275 59.1753L197.007 46.8706L195.253 45.9106ZM188.52 59.1753L195.253 71.48L197.007 70.52L190.275 58.2153L188.52 59.1753ZM196.13 70H188.132V72H196.13V70ZM189.009 70.5192L183.63 60.7106L181.876 61.6722L187.255 71.4808L189.009 70.5192ZM198.976 46.3906V45.3906H197.976V46.3906H198.976ZM206.007 46.3906H207.007V45.3906H206.007V46.3906ZM206.007 71V72H207.007V71H206.007ZM198.976 71H197.976V72H198.976V71ZM198.976 47.3906H206.007V45.3906H198.976V47.3906ZM205.007 46.3906V71H207.007V46.3906H205.007ZM206.007 70H198.976V72H206.007V70ZM199.976 71V46.3906H197.976V71H199.976ZM223.987 53.4219H224.987V52.4219H223.987V53.4219ZM209.046 53.4219L208.076 53.1793L207.765 54.4219H209.046V53.4219ZM210.804 46.3906V45.3906H210.023L209.833 46.1481L210.804 46.3906ZM231.018 46.3906H232.018V45.3906H231.018V46.3906ZM231.018 71V72H232.018V71H231.018ZM209.925 71H208.925V72H209.925V71ZM209.925 55.1797V54.1797H208.925V55.1797H209.925ZM216.956 55.1797H217.956V54.1797H216.956V55.1797ZM216.956 63.9688H215.956V64.9688H216.956V63.9688ZM223.987 63.9688V64.9688H224.987V63.9688H223.987ZM223.987 52.4219H209.046V54.4219H223.987V52.4219ZM210.016 53.6644L211.774 46.6332L209.833 46.1481L208.076 53.1793L210.016 53.6644ZM210.804 47.3906H231.018V45.3906H210.804V47.3906ZM230.018 46.3906V71H232.018V46.3906H230.018ZM231.018 70H209.925V72H231.018V70ZM210.925 71V55.1797H208.925V71H210.925ZM209.925 56.1797H216.956V54.1797H209.925V56.1797ZM215.956 55.1797V63.9688H217.956V55.1797H215.956ZM216.956 64.9688H223.987V62.9688H216.956V64.9688ZM224.987 63.9688V53.4219H222.987V63.9688H224.987ZM248.999 53.4219H249.999V52.4219H248.999V53.4219ZM234.057 53.4219L233.087 53.1793L232.777 54.4219H234.057V53.4219ZM235.815 46.3906V45.3906H235.034L234.845 46.1481L235.815 46.3906ZM256.03 46.3906H257.03V45.3906H256.03V46.3906ZM256.03 71V72H257.03V71H256.03ZM234.936 71H233.936V72H234.936V71ZM234.936 55.1797V54.1797H233.936V55.1797H234.936ZM241.967 55.1797H242.967V54.1797H241.967V55.1797ZM241.967 63.9688H240.967V64.9688H241.967V63.9688ZM248.999 63.9688V64.9688H249.999V63.9688H248.999ZM248.999 52.4219H234.057V54.4219H248.999V52.4219ZM235.027 53.6644L236.785 46.6332L234.845 46.1481L233.087 53.1793L235.027 53.6644ZM235.815 47.3906H256.03V45.3906H235.815V47.3906ZM255.03 46.3906V71H257.03V46.3906H255.03ZM256.03 70H234.936V72H256.03V70ZM235.936 71V55.1797H233.936V71H235.936ZM234.936 56.1797H241.967V54.1797H234.936V56.1797ZM240.967 55.1797V63.9688H242.967V55.1797H240.967ZM241.967 64.9688H248.999V62.9688H241.967V64.9688ZM249.999 63.9688V53.4219H247.999V63.9688H249.999Z" fill="#34FF00" mask="url(#path-11-inside-1_63_525)"/>
</svg>
