<svg width="599" height="121" viewBox="0 0 599 121" fill="none" xmlns="http://www.w3.org/2000/svg">
<path d="M591.365 3.7677L540.577 46.1615C538.183 48.1603 538.183 51.8397 540.577 53.8385L591.365 96.2323C592.083 96.8314 591.659 98 590.724 98H3C2.44771 98 2 97.5523 2 97V3C2 2.44771 2.44771 2 3 2H299.5H590.724C591.659 2 592.083 3.16861 591.365 3.7677Z" fill="white" stroke="#FFB800" stroke-width="4"/>
<path d="M591.365 23.7677L540.577 66.1615C538.183 68.1603 538.183 71.8397 540.577 73.8385L591.365 116.232C592.083 116.831 591.659 118 590.724 118H3C2.44771 118 2 117.552 2 117V23C2 22.4477 2.44771 22 3 22H299.5H590.724C591.659 22 592.083 23.1686 591.365 23.7677Z" fill="black" stroke="white" stroke-width="4"/>
<path d="M591.365 13.7677L540.577 56.1615C538.183 58.1603 538.183 61.8397 540.577 63.8385L591.365 106.232C592.083 106.831 591.659 108 590.724 108H3C2.44771 108 2 107.552 2 107V13C2 12.4477 2.44771 12 3 12H299.5H590.724C591.659 12 592.083 13.1686 591.365 13.7677Z" fill="#E7E7E7" stroke="#76FF03" stroke-width="4"/>
<line x1="10" y1="23" x2="30" y2="23" stroke="#FFB800" stroke-width="4"/>
<line x1="12" y1="22" x2="12" y2="97" stroke="#FFB800" stroke-width="4"/>
<line x1="10" y1="98" x2="30" y2="98" stroke="#FFB800" stroke-width="4"/>
<line y1="-2" x2="55.1725" y2="-2" transform="matrix(0.767696 -0.640814 0.767696 0.640814 530.714 55.3555)" stroke="#FFB800" stroke-width="4"/>
<line x1="518.734" y1="53" x2="530.714" y2="53" stroke="#FFB800" stroke-width="4"/>
<line x1="518.734" y1="66" x2="530.714" y2="66" stroke="#FFB800" stroke-width="4"/>
<line y1="-2" x2="55.1725" y2="-2" transform="matrix(0.767695 0.640815 -0.767695 0.640815 527.12 67)" stroke="#FFB800" stroke-width="4"/>
<path d="M69.1211 71L70.8789 63.9688H82.3047V46.3906H89.3359V71H69.1211ZM112.188 46.3906L110.43 53.4219H98.125V55.1797H110.43V71H89.3359L91.0938 63.9688H103.398V62.2109H91.0938V46.3906H112.188ZM126.25 53.4219H119.219V63.9688H126.25V53.4219ZM133.281 46.3906V71H112.188V46.3906H133.281ZM156.133 71H149.102V53.4219H142.07V71H135.039V46.3906H156.133V71ZM178.984 53.4219H171.953V63.9688H178.984V53.4219ZM186.016 46.3906V71H164.922V46.3906H186.016ZM208.867 46.3906L207.109 53.4219H194.805V55.1797H207.109L205.352 62.2109H194.805V71H187.773V46.3906H208.867ZM236.992 46.3906L235.234 53.4219H229.082V71H222.051V53.4219H215.898V46.3906H236.992ZM236.992 46.3906H244.023V55.1797H251.055V46.3906H258.086V71H251.055V62.2109H244.023V71H236.992V46.3906ZM280.938 46.3906L279.18 53.4219H266.875V55.1797H279.18L277.422 62.2109H266.875V63.9688H280.938L279.18 71H259.844V46.3906H280.938ZM302.031 46.3906L300.273 53.4219H287.969V55.1797H300.273V71H279.18L280.938 63.9688H293.242V62.2109H280.938V46.3906H302.031ZM323.125 46.3906L321.367 53.4219H309.062V55.1797H321.367V71H300.273L302.031 63.9688H314.336V62.2109H302.031V46.3906H323.125ZM337.188 62.2109H330.156V71H323.125V46.3906H344.219V71H337.188V62.2109ZM330.156 55.1797H337.188V53.4219H330.156V55.1797ZM353.008 63.9688H367.07L365.312 71H345.977V46.3906H353.008V63.9688ZM381.133 53.4219H374.102V63.9688H381.133V53.4219ZM388.164 46.3906V71H367.07V46.3906H388.164ZM411.016 71H403.984V53.4219H396.953V71H389.922V46.3906H411.016V71ZM412.773 46.3906H419.805V71H412.773V46.3906ZM442.656 46.3906L440.898 53.4219H428.594V63.9688H442.656L440.898 71H421.562V46.3906H442.656ZM456.719 62.2109H449.688V71H442.656V46.3906H463.75V71H456.719V62.2109ZM449.688 55.1797H456.719V53.4219H449.688V55.1797Z" fill="black"/>
</svg>
