<svg width="381" height="121" viewBox="0 0 381 121" fill="none" xmlns="http://www.w3.org/2000/svg">
<path d="M376.135 3.90914L343.092 47.2726C341.865 48.8837 341.865 51.1163 343.092 52.7274L376.135 96.0909C376.888 97.0782 376.184 98.5 374.942 98.5H3C2.17157 98.5 1.5 97.8284 1.5 97V3C1.5 2.17157 2.17157 1.5 3 1.5H190.5H374.942C376.184 1.5 376.888 2.92177 376.135 3.90914Z" fill="white" fill-opacity="0.8" stroke="#FFB800" stroke-width="3"/>
<path d="M376.135 23.9091L343.092 67.2726C341.865 68.8837 341.865 71.1163 343.092 72.7274L376.135 116.091C376.888 117.078 376.184 118.5 374.942 118.5H3C2.17157 118.5 1.5 117.828 1.5 117V23C1.5 22.1716 2.17157 21.5 3 21.5H190.5H374.942C376.184 21.5 376.888 22.9218 376.135 23.9091Z" fill="black" fill-opacity="0.6" stroke="white" stroke-width="3"/>
<path d="M376.135 13.9091L343.092 57.2726C341.865 58.8837 341.865 61.1163 343.092 62.7274L376.135 106.091C376.888 107.078 376.184 108.5 374.942 108.5H3C2.17157 108.5 1.5 107.828 1.5 107V13C1.5 12.1716 2.17157 11.5 3 11.5H190.5H374.942C376.184 11.5 376.888 12.9218 376.135 13.9091Z" fill="#E7E7E7" fill-opacity="0.7" stroke="#76FF03" stroke-width="3"/>
<line x1="10" y1="23.5" x2="30" y2="23.5" stroke="#FFB800" stroke-width="3"/>
<line x1="11.5" y1="22" x2="11.5" y2="97" stroke="#FFB800" stroke-width="3"/>
<line x1="10" y1="98.5" x2="30" y2="98.5" stroke="#FFB800" stroke-width="3"/>
<line y1="-1.5" x2="44.45" y2="-1.5" transform="matrix(0.606091 -0.795395 0.606091 0.795395 337.566 55.3553)" stroke="#FFB800" stroke-width="3"/>
<line x1="329.946" y1="53.5" x2="337.566" y2="53.5" stroke="#FFB800" stroke-width="3"/>
<line x1="329.946" y1="66.5" x2="337.566" y2="66.5" stroke="#FFB800" stroke-width="3"/>
<line y1="-1.5" x2="44.45" y2="-1.5" transform="matrix(0.606091 0.795395 -0.606091 0.795395 335.28 67)" stroke="#FFB800" stroke-width="3"/>
<mask id="path-11-inside-1_63_573" fill="white">
<path d="M69.1211 71L70.8789 63.9688H82.3047V46.3906H89.3359V71H69.1211ZM114.347 46.3906L112.59 53.4219H100.285V55.1797H112.59V71H91.4959L93.2537 63.9688H105.558V62.2109H93.2537V46.3906H114.347ZM130.57 53.4219H123.539V63.9688H130.57V53.4219ZM137.601 46.3906V71H116.507V46.3906H137.601ZM162.613 71H155.582V53.4219H148.55V71H141.519V46.3906H162.613V71ZM200.331 71H193.3V53.4219H191.542V71H184.511V53.4219H182.753V71H175.722V46.3906H200.331V71ZM218.312 53.4219H211.28V55.1797H218.312V53.4219ZM225.343 46.3906V62.2109H221.458L226.503 71H218.593L211.28 58.2383V71H204.249V46.3906H225.343ZM243.323 62.2109H236.292V71H229.261V46.3906H250.354V71H243.323V62.2109ZM236.292 55.1797H243.323V53.4219H236.292V55.1797ZM266.577 53.4219H254.272V46.3906H273.608V62.2109H261.303V63.9688H273.608V71H254.272V55.1797H266.577V53.4219Z"/>
</mask>
<path d="M69.1211 71L70.8789 63.9688H82.3047V46.3906H89.3359V71H69.1211ZM114.347 46.3906L112.59 53.4219H100.285V55.1797H112.59V71H91.4959L93.2537 63.9688H105.558V62.2109H93.2537V46.3906H114.347ZM130.57 53.4219H123.539V63.9688H130.57V53.4219ZM137.601 46.3906V71H116.507V46.3906H137.601ZM162.613 71H155.582V53.4219H148.55V71H141.519V46.3906H162.613V71ZM200.331 71H193.3V53.4219H191.542V71H184.511V53.4219H182.753V71H175.722V46.3906H200.331V71ZM218.312 53.4219H211.28V55.1797H218.312V53.4219ZM225.343 46.3906V62.2109H221.458L226.503 71H218.593L211.28 58.2383V71H204.249V46.3906H225.343ZM243.323 62.2109H236.292V71H229.261V46.3906H250.354V71H243.323V62.2109ZM236.292 55.1797H243.323V53.4219H236.292V55.1797ZM266.577 53.4219H254.272V46.3906H273.608V62.2109H261.303V63.9688H273.608V71H254.272V55.1797H266.577V53.4219Z" fill="white" fill-opacity="0.85"/>
<path d="M69.1211 71L68.151 70.7575L67.8403 72H69.1211V71ZM70.8789 63.9688V62.9688H70.0981L69.9088 63.7262L70.8789 63.9688ZM82.3047 63.9688V64.9688H83.3047V63.9688H82.3047ZM82.3047 46.3906V45.3906H81.3047V46.3906H82.3047ZM89.3359 46.3906H90.3359V45.3906H89.3359V46.3906ZM89.3359 71V72H90.3359V71H89.3359ZM70.0912 71.2425L71.849 64.2113L69.9088 63.7262L68.151 70.7575L70.0912 71.2425ZM70.8789 64.9688H82.3047V62.9688H70.8789V64.9688ZM83.3047 63.9688V46.3906H81.3047V63.9688H83.3047ZM82.3047 47.3906H89.3359V45.3906H82.3047V47.3906ZM88.3359 46.3906V71H90.3359V46.3906H88.3359ZM89.3359 70H69.1211V72H89.3359V70ZM114.347 46.3906L115.318 46.6332L115.628 45.3906H114.347V46.3906ZM112.59 53.4219V54.4219H113.37L113.56 53.6644L112.59 53.4219ZM100.285 53.4219V52.4219H99.285V53.4219H100.285ZM100.285 55.1797H99.285V56.1797H100.285V55.1797ZM112.59 55.1797H113.59V54.1797H112.59V55.1797ZM112.59 71V72H113.59V71H112.59ZM91.4959 71L90.5258 70.7575L90.2152 72H91.4959V71ZM93.2537 63.9688V62.9688H92.473L92.2836 63.7262L93.2537 63.9688ZM105.558 63.9688V64.9688H106.558V63.9688H105.558ZM105.558 62.2109H106.558V61.2109H105.558V62.2109ZM93.2537 62.2109H92.2537V63.2109H93.2537V62.2109ZM93.2537 46.3906V45.3906H92.2537V46.3906H93.2537ZM113.377 46.1481L111.62 53.1793L113.56 53.6644L115.318 46.6332L113.377 46.1481ZM112.59 52.4219H100.285V54.4219H112.59V52.4219ZM99.285 53.4219V55.1797H101.285V53.4219H99.285ZM100.285 56.1797H112.59V54.1797H100.285V56.1797ZM111.59 55.1797V71H113.59V55.1797H111.59ZM112.59 70H91.4959V72H112.59V70ZM92.4661 71.2425L94.2239 64.2113L92.2836 63.7262L90.5258 70.7575L92.4661 71.2425ZM93.2537 64.9688H105.558V62.9688H93.2537V64.9688ZM106.558 63.9688V62.2109H104.558V63.9688H106.558ZM105.558 61.2109H93.2537V63.2109H105.558V61.2109ZM94.2537 62.2109V46.3906H92.2537V62.2109H94.2537ZM93.2537 47.3906H114.347V45.3906H93.2537V47.3906ZM130.57 53.4219H131.57V52.4219H130.57V53.4219ZM123.539 53.4219V52.4219H122.539V53.4219H123.539ZM123.539 63.9688H122.539V64.9688H123.539V63.9688ZM130.57 63.9688V64.9688H131.57V63.9688H130.57ZM137.601 46.3906H138.601V45.3906H137.601V46.3906ZM137.601 71V72H138.601V71H137.601ZM116.507 71H115.507V72H116.507V71ZM116.507 46.3906V45.3906H115.507V46.3906H116.507ZM130.57 52.4219H123.539V54.4219H130.57V52.4219ZM122.539 53.4219V63.9688H124.539V53.4219H122.539ZM123.539 64.9688H130.57V62.9688H123.539V64.9688ZM131.57 63.9688V53.4219H129.57V63.9688H131.57ZM136.601 46.3906V71H138.601V46.3906H136.601ZM137.601 70H116.507V72H137.601V70ZM117.507 71V46.3906H115.507V71H117.507ZM116.507 47.3906H137.601V45.3906H116.507V47.3906ZM162.613 71V72H163.613V71H162.613ZM155.582 71H154.582V72H155.582V71ZM155.582 53.4219H156.582V52.4219H155.582V53.4219ZM148.55 53.4219V52.4219H147.55V53.4219H148.55ZM148.55 71V72H149.55V71H148.55ZM141.519 71H140.519V72H141.519V71ZM141.519 46.3906V45.3906H140.519V46.3906H141.519ZM162.613 46.3906H163.613V45.3906H162.613V46.3906ZM162.613 70H155.582V72H162.613V70ZM156.582 71V53.4219H154.582V71H156.582ZM155.582 52.4219H148.55V54.4219H155.582V52.4219ZM147.55 53.4219V71H149.55V53.4219H147.55ZM148.55 70H141.519V72H148.55V70ZM142.519 71V46.3906H140.519V71H142.519ZM141.519 47.3906H162.613V45.3906H141.519V47.3906ZM161.613 46.3906V71H163.613V46.3906H161.613ZM200.331 71V72H201.331V71H200.331ZM193.3 71H192.3V72H193.3V71ZM193.3 53.4219H194.3V52.4219H193.3V53.4219ZM191.542 53.4219V52.4219H190.542V53.4219H191.542ZM191.542 71V72H192.542V71H191.542ZM184.511 71H183.511V72H184.511V71ZM184.511 53.4219H185.511V52.4219H184.511V53.4219ZM182.753 53.4219V52.4219H181.753V53.4219H182.753ZM182.753 71V72H183.753V71H182.753ZM175.722 71H174.722V72H175.722V71ZM175.722 46.3906V45.3906H174.722V46.3906H175.722ZM200.331 46.3906H201.331V45.3906H200.331V46.3906ZM200.331 70H193.3V72H200.331V70ZM194.3 71V53.4219H192.3V71H194.3ZM193.3 52.4219H191.542V54.4219H193.3V52.4219ZM190.542 53.4219V71H192.542V53.4219H190.542ZM191.542 70H184.511V72H191.542V70ZM185.511 71V53.4219H183.511V71H185.511ZM184.511 52.4219H182.753V54.4219H184.511V52.4219ZM181.753 53.4219V71H183.753V53.4219H181.753ZM182.753 70H175.722V72H182.753V70ZM176.722 71V46.3906H174.722V71H176.722ZM175.722 47.3906H200.331V45.3906H175.722V47.3906ZM199.331 46.3906V71H201.331V46.3906H199.331ZM218.312 53.4219H219.312V52.4219H218.312V53.4219ZM211.28 53.4219V52.4219H210.28V53.4219H211.28ZM211.28 55.1797H210.28V56.1797H211.28V55.1797ZM218.312 55.1797V56.1797H219.312V55.1797H218.312ZM225.343 46.3906H226.343V45.3906H225.343V46.3906ZM225.343 62.2109V63.2109H226.343V62.2109H225.343ZM221.458 62.2109V61.2109H219.731L220.591 62.7088L221.458 62.2109ZM226.503 71V72H228.23L227.37 70.5022L226.503 71ZM218.593 71L217.725 71.4972L218.013 72H218.593V71ZM211.28 58.2383L212.148 57.7411L210.28 54.4817V58.2383H211.28ZM211.28 71V72H212.28V71H211.28ZM204.249 71H203.249V72H204.249V71ZM204.249 46.3906V45.3906H203.249V46.3906H204.249ZM218.312 52.4219H211.28V54.4219H218.312V52.4219ZM210.28 53.4219V55.1797H212.28V53.4219H210.28ZM211.28 56.1797H218.312V54.1797H211.28V56.1797ZM219.312 55.1797V53.4219H217.312V55.1797H219.312ZM224.343 46.3906V62.2109H226.343V46.3906H224.343ZM225.343 61.2109H221.458V63.2109H225.343V61.2109ZM220.591 62.7088L225.636 71.4978L227.37 70.5022L222.325 61.7131L220.591 62.7088ZM226.503 70H218.593V72H226.503V70ZM219.46 70.5028L212.148 57.7411L210.413 58.7354L217.725 71.4972L219.46 70.5028ZM210.28 58.2383V71H212.28V58.2383H210.28ZM211.28 70H204.249V72H211.28V70ZM205.249 71V46.3906H203.249V71H205.249ZM204.249 47.3906H225.343V45.3906H204.249V47.3906ZM243.323 62.2109H244.323V61.2109H243.323V62.2109ZM236.292 62.2109V61.2109H235.292V62.2109H236.292ZM236.292 71V72H237.292V71H236.292ZM229.261 71H228.261V72H229.261V71ZM229.261 46.3906V45.3906H228.261V46.3906H229.261ZM250.354 46.3906H251.354V45.3906H250.354V46.3906ZM250.354 71V72H251.354V71H250.354ZM243.323 71H242.323V72H243.323V71ZM236.292 55.1797H235.292V56.1797H236.292V55.1797ZM243.323 55.1797V56.1797H244.323V55.1797H243.323ZM243.323 53.4219H244.323V52.4219H243.323V53.4219ZM236.292 53.4219V52.4219H235.292V53.4219H236.292ZM243.323 61.2109H236.292V63.2109H243.323V61.2109ZM235.292 62.2109V71H237.292V62.2109H235.292ZM236.292 70H229.261V72H236.292V70ZM230.261 71V46.3906H228.261V71H230.261ZM229.261 47.3906H250.354V45.3906H229.261V47.3906ZM249.354 46.3906V71H251.354V46.3906H249.354ZM250.354 70H243.323V72H250.354V70ZM244.323 71V62.2109H242.323V71H244.323ZM236.292 56.1797H243.323V54.1797H236.292V56.1797ZM244.323 55.1797V53.4219H242.323V55.1797H244.323ZM243.323 52.4219H236.292V54.4219H243.323V52.4219ZM235.292 53.4219V55.1797H237.292V53.4219H235.292ZM266.577 53.4219H267.577V52.4219H266.577V53.4219ZM254.272 53.4219H253.272V54.4219H254.272V53.4219ZM254.272 46.3906V45.3906H253.272V46.3906H254.272ZM273.608 46.3906H274.608V45.3906H273.608V46.3906ZM273.608 62.2109V63.2109H274.608V62.2109H273.608ZM261.303 62.2109V61.2109H260.303V62.2109H261.303ZM261.303 63.9688H260.303V64.9688H261.303V63.9688ZM273.608 63.9688H274.608V62.9688H273.608V63.9688ZM273.608 71V72H274.608V71H273.608ZM254.272 71H253.272V72H254.272V71ZM254.272 55.1797V54.1797H253.272V55.1797H254.272ZM266.577 55.1797V56.1797H267.577V55.1797H266.577ZM266.577 52.4219H254.272V54.4219H266.577V52.4219ZM255.272 53.4219V46.3906H253.272V53.4219H255.272ZM254.272 47.3906H273.608V45.3906H254.272V47.3906ZM272.608 46.3906V62.2109H274.608V46.3906H272.608ZM273.608 61.2109H261.303V63.2109H273.608V61.2109ZM260.303 62.2109V63.9688H262.303V62.2109H260.303ZM261.303 64.9688H273.608V62.9688H261.303V64.9688ZM272.608 63.9688V71H274.608V63.9688H272.608ZM273.608 70H254.272V72H273.608V70ZM255.272 71V55.1797H253.272V71H255.272ZM254.272 56.1797H266.577V54.1797H254.272V56.1797ZM267.577 55.1797V53.4219H265.577V55.1797H267.577Z" fill="#34FF00" mask="url(#path-11-inside-1_63_573)"/>
</svg>
