<svg width="411" height="121" viewBox="0 0 411 121" fill="none" xmlns="http://www.w3.org/2000/svg">
<path d="M405.809 3.9525L370.307 47.1425C368.942 48.803 368.942 51.197 370.307 52.8575L405.809 96.0475C406.614 97.0263 405.918 98.5 404.651 98.5H2.99999C2.17157 98.5 1.5 97.8284 1.5 97V3C1.5 2.17157 2.17157 1.5 3 1.5H205.5H404.651C405.918 1.5 406.614 2.9737 405.809 3.9525Z" fill="white" fill-opacity="0.8" stroke="#FFB800" stroke-width="3"/>
<path d="M405.809 23.9525L370.307 67.1425C368.942 68.803 368.942 71.197 370.307 72.8575L405.809 116.047C406.614 117.026 405.918 118.5 404.651 118.5H2.99999C2.17157 118.5 1.5 117.828 1.5 117V23C1.5 22.1716 2.17157 21.5 3 21.5H205.5H404.651C405.918 21.5 406.614 22.9737 405.809 23.9525Z" fill="black" fill-opacity="0.6" stroke="white" stroke-width="3"/>
<path d="M405.809 13.9525L370.307 57.1425C368.942 58.803 368.942 61.197 370.307 62.8575L405.809 106.047C406.614 107.026 405.918 108.5 404.651 108.5H2.99999C2.17157 108.5 1.5 107.828 1.5 107V13C1.5 12.1716 2.17157 11.5 3 11.5H205.5H404.651C405.918 11.5 406.614 12.9737 405.809 13.9525Z" fill="#E7E7E7" fill-opacity="0.7" stroke="#76FF03" stroke-width="3"/>
<line x1="10" y1="23.5" x2="30" y2="23.5" stroke="#FFB800" stroke-width="3"/>
<line x1="11.5" y1="22" x2="11.5" y2="97" stroke="#FFB800" stroke-width="3"/>
<line x1="10" y1="98.5" x2="30" y2="98.5" stroke="#FFB800" stroke-width="3"/>
<line y1="-1.5" x2="45.7669" y2="-1.5" transform="matrix(0.635003 -0.77251 0.635003 0.77251 364.146 55.3555)" stroke="#FFB800" stroke-width="3"/>
<line x1="355.926" y1="53.5" x2="364.146" y2="53.5" stroke="#FFB800" stroke-width="3"/>
<line x1="355.926" y1="66.5" x2="364.146" y2="66.5" stroke="#FFB800" stroke-width="3"/>
<line y1="-1.5" x2="45.7669" y2="-1.5" transform="matrix(0.635003 0.77251 -0.635003 0.77251 361.68 67)" stroke="#FFB800" stroke-width="3"/>
<mask id="path-11-inside-1_63_693" fill="white">
<path d="M69.1211 71L70.8789 63.9688H82.3047V46.3906H89.3359V71H69.1211ZM114.347 46.3906L112.59 53.4219H100.285V55.1797H112.59V71H91.4959L93.2537 63.9688H105.558V62.2109H93.2537V46.3906H114.347ZM130.57 53.4219H123.539V63.9688H130.57V53.4219ZM137.601 46.3906V71H116.507V46.3906H137.601ZM162.613 71H155.582V53.4219H148.55V71H141.519V46.3906H162.613V71ZM196.816 46.3906L195.058 53.4219H188.905V71H181.874V53.4219H175.722V46.3906H196.816ZM220.069 46.3906L218.312 53.4219H206.007V55.1797H218.312L216.554 62.2109H206.007V63.9688H220.069L218.312 71H198.976V46.3906H220.069ZM236.292 53.4219H229.261V55.1797H236.292V53.4219ZM243.323 46.3906V62.2109H239.438L244.483 71H236.573L229.261 58.2383V71H222.229V46.3906H243.323ZM261.303 53.4219H254.272V55.1797H261.303V53.4219ZM268.335 46.3906V62.2109H264.45L269.495 71H261.585L254.272 58.2383V71H247.241V46.3906H268.335ZM286.315 55.1797V46.3906H293.346V62.2109H286.315V71H279.284V62.2109H272.253V46.3906H279.284V55.1797H286.315Z"/>
</mask>
<path d="M69.1211 71L70.8789 63.9688H82.3047V46.3906H89.3359V71H69.1211ZM114.347 46.3906L112.59 53.4219H100.285V55.1797H112.59V71H91.4959L93.2537 63.9688H105.558V62.2109H93.2537V46.3906H114.347ZM130.57 53.4219H123.539V63.9688H130.57V53.4219ZM137.601 46.3906V71H116.507V46.3906H137.601ZM162.613 71H155.582V53.4219H148.55V71H141.519V46.3906H162.613V71ZM196.816 46.3906L195.058 53.4219H188.905V71H181.874V53.4219H175.722V46.3906H196.816ZM220.069 46.3906L218.312 53.4219H206.007V55.1797H218.312L216.554 62.2109H206.007V63.9688H220.069L218.312 71H198.976V46.3906H220.069ZM236.292 53.4219H229.261V55.1797H236.292V53.4219ZM243.323 46.3906V62.2109H239.438L244.483 71H236.573L229.261 58.2383V71H222.229V46.3906H243.323ZM261.303 53.4219H254.272V55.1797H261.303V53.4219ZM268.335 46.3906V62.2109H264.45L269.495 71H261.585L254.272 58.2383V71H247.241V46.3906H268.335ZM286.315 55.1797V46.3906H293.346V62.2109H286.315V71H279.284V62.2109H272.253V46.3906H279.284V55.1797H286.315Z" fill="white" fill-opacity="0.85"/>
<path d="M69.1211 71L68.151 70.7575L67.8403 72H69.1211V71ZM70.8789 63.9688V62.9688H70.0981L69.9088 63.7262L70.8789 63.9688ZM82.3047 63.9688V64.9688H83.3047V63.9688H82.3047ZM82.3047 46.3906V45.3906H81.3047V46.3906H82.3047ZM89.3359 46.3906H90.3359V45.3906H89.3359V46.3906ZM89.3359 71V72H90.3359V71H89.3359ZM70.0912 71.2425L71.849 64.2113L69.9088 63.7262L68.151 70.7575L70.0912 71.2425ZM70.8789 64.9688H82.3047V62.9688H70.8789V64.9688ZM83.3047 63.9688V46.3906H81.3047V63.9688H83.3047ZM82.3047 47.3906H89.3359V45.3906H82.3047V47.3906ZM88.3359 46.3906V71H90.3359V46.3906H88.3359ZM89.3359 70H69.1211V72H89.3359V70ZM114.347 46.3906L115.318 46.6332L115.628 45.3906H114.347V46.3906ZM112.59 53.4219V54.4219H113.37L113.56 53.6644L112.59 53.4219ZM100.285 53.4219V52.4219H99.285V53.4219H100.285ZM100.285 55.1797H99.285V56.1797H100.285V55.1797ZM112.59 55.1797H113.59V54.1797H112.59V55.1797ZM112.59 71V72H113.59V71H112.59ZM91.4959 71L90.5258 70.7575L90.2152 72H91.4959V71ZM93.2537 63.9688V62.9688H92.473L92.2836 63.7262L93.2537 63.9688ZM105.558 63.9688V64.9688H106.558V63.9688H105.558ZM105.558 62.2109H106.558V61.2109H105.558V62.2109ZM93.2537 62.2109H92.2537V63.2109H93.2537V62.2109ZM93.2537 46.3906V45.3906H92.2537V46.3906H93.2537ZM113.377 46.1481L111.62 53.1793L113.56 53.6644L115.318 46.6332L113.377 46.1481ZM112.59 52.4219H100.285V54.4219H112.59V52.4219ZM99.285 53.4219V55.1797H101.285V53.4219H99.285ZM100.285 56.1797H112.59V54.1797H100.285V56.1797ZM111.59 55.1797V71H113.59V55.1797H111.59ZM112.59 70H91.4959V72H112.59V70ZM92.4661 71.2425L94.2239 64.2113L92.2836 63.7262L90.5258 70.7575L92.4661 71.2425ZM93.2537 64.9688H105.558V62.9688H93.2537V64.9688ZM106.558 63.9688V62.2109H104.558V63.9688H106.558ZM105.558 61.2109H93.2537V63.2109H105.558V61.2109ZM94.2537 62.2109V46.3906H92.2537V62.2109H94.2537ZM93.2537 47.3906H114.347V45.3906H93.2537V47.3906ZM130.57 53.4219H131.57V52.4219H130.57V53.4219ZM123.539 53.4219V52.4219H122.539V53.4219H123.539ZM123.539 63.9688H122.539V64.9688H123.539V63.9688ZM130.57 63.9688V64.9688H131.57V63.9688H130.57ZM137.601 46.3906H138.601V45.3906H137.601V46.3906ZM137.601 71V72H138.601V71H137.601ZM116.507 71H115.507V72H116.507V71ZM116.507 46.3906V45.3906H115.507V46.3906H116.507ZM130.57 52.4219H123.539V54.4219H130.57V52.4219ZM122.539 53.4219V63.9688H124.539V53.4219H122.539ZM123.539 64.9688H130.57V62.9688H123.539V64.9688ZM131.57 63.9688V53.4219H129.57V63.9688H131.57ZM136.601 46.3906V71H138.601V46.3906H136.601ZM137.601 70H116.507V72H137.601V70ZM117.507 71V46.3906H115.507V71H117.507ZM116.507 47.3906H137.601V45.3906H116.507V47.3906ZM162.613 71V72H163.613V71H162.613ZM155.582 71H154.582V72H155.582V71ZM155.582 53.4219H156.582V52.4219H155.582V53.4219ZM148.55 53.4219V52.4219H147.55V53.4219H148.55ZM148.55 71V72H149.55V71H148.55ZM141.519 71H140.519V72H141.519V71ZM141.519 46.3906V45.3906H140.519V46.3906H141.519ZM162.613 46.3906H163.613V45.3906H162.613V46.3906ZM162.613 70H155.582V72H162.613V70ZM156.582 71V53.4219H154.582V71H156.582ZM155.582 52.4219H148.55V54.4219H155.582V52.4219ZM147.55 53.4219V71H149.55V53.4219H147.55ZM148.55 70H141.519V72H148.55V70ZM142.519 71V46.3906H140.519V71H142.519ZM141.519 47.3906H162.613V45.3906H141.519V47.3906ZM161.613 46.3906V71H163.613V46.3906H161.613ZM196.816 46.3906L197.786 46.6332L198.096 45.3906H196.816V46.3906ZM195.058 53.4219V54.4219H195.839L196.028 53.6644L195.058 53.4219ZM188.905 53.4219V52.4219H187.905V53.4219H188.905ZM188.905 71V72H189.905V71H188.905ZM181.874 71H180.874V72H181.874V71ZM181.874 53.4219H182.874V52.4219H181.874V53.4219ZM175.722 53.4219H174.722V54.4219H175.722V53.4219ZM175.722 46.3906V45.3906H174.722V46.3906H175.722ZM195.845 46.1481L194.088 53.1793L196.028 53.6644L197.786 46.6332L195.845 46.1481ZM195.058 52.4219H188.905V54.4219H195.058V52.4219ZM187.905 53.4219V71H189.905V53.4219H187.905ZM188.905 70H181.874V72H188.905V70ZM182.874 71V53.4219H180.874V71H182.874ZM181.874 52.4219H175.722V54.4219H181.874V52.4219ZM176.722 53.4219V46.3906H174.722V53.4219H176.722ZM175.722 47.3906H196.816V45.3906H175.722V47.3906ZM220.069 46.3906L221.04 46.6332L221.35 45.3906H220.069V46.3906ZM218.312 53.4219V54.4219H219.092L219.282 53.6644L218.312 53.4219ZM206.007 53.4219V52.4219H205.007V53.4219H206.007ZM206.007 55.1797H205.007V56.1797H206.007V55.1797ZM218.312 55.1797L219.282 55.4222L219.592 54.1797H218.312V55.1797ZM216.554 62.2109V63.2109H217.335L217.524 62.4535L216.554 62.2109ZM206.007 62.2109V61.2109H205.007V62.2109H206.007ZM206.007 63.9688H205.007V64.9688H206.007V63.9688ZM220.069 63.9688L221.04 64.2113L221.35 62.9688H220.069V63.9688ZM218.312 71V72H219.092L219.282 71.2425L218.312 71ZM198.976 71H197.976V72H198.976V71ZM198.976 46.3906V45.3906H197.976V46.3906H198.976ZM219.099 46.1481L217.341 53.1793L219.282 53.6644L221.04 46.6332L219.099 46.1481ZM218.312 52.4219H206.007V54.4219H218.312V52.4219ZM205.007 53.4219V55.1797H207.007V53.4219H205.007ZM206.007 56.1797H218.312V54.1797H206.007V56.1797ZM217.341 54.9372L215.584 61.9684L217.524 62.4535L219.282 55.4222L217.341 54.9372ZM216.554 61.2109H206.007V63.2109H216.554V61.2109ZM205.007 62.2109V63.9688H207.007V62.2109H205.007ZM206.007 64.9688H220.069V62.9688H206.007V64.9688ZM219.099 63.7262L217.341 70.7575L219.282 71.2425L221.04 64.2113L219.099 63.7262ZM218.312 70H198.976V72H218.312V70ZM199.976 71V46.3906H197.976V71H199.976ZM198.976 47.3906H220.069V45.3906H198.976V47.3906ZM236.292 53.4219H237.292V52.4219H236.292V53.4219ZM229.261 53.4219V52.4219H228.261V53.4219H229.261ZM229.261 55.1797H228.261V56.1797H229.261V55.1797ZM236.292 55.1797V56.1797H237.292V55.1797H236.292ZM243.323 46.3906H244.323V45.3906H243.323V46.3906ZM243.323 62.2109V63.2109H244.323V62.2109H243.323ZM239.438 62.2109V61.2109H237.711L238.571 62.7088L239.438 62.2109ZM244.483 71V72H246.21L245.351 70.5022L244.483 71ZM236.573 71L235.705 71.4972L235.994 72H236.573V71ZM229.261 58.2383L230.128 57.7411L228.261 54.4817V58.2383H229.261ZM229.261 71V72H230.261V71H229.261ZM222.229 71H221.229V72H222.229V71ZM222.229 46.3906V45.3906H221.229V46.3906H222.229ZM236.292 52.4219H229.261V54.4219H236.292V52.4219ZM228.261 53.4219V55.1797H230.261V53.4219H228.261ZM229.261 56.1797H236.292V54.1797H229.261V56.1797ZM237.292 55.1797V53.4219H235.292V55.1797H237.292ZM242.323 46.3906V62.2109H244.323V46.3906H242.323ZM243.323 61.2109H239.438V63.2109H243.323V61.2109ZM238.571 62.7088L243.616 71.4978L245.351 70.5022L240.306 61.7131L238.571 62.7088ZM244.483 70H236.573V72H244.483V70ZM237.441 70.5028L230.128 57.7411L228.393 58.7354L235.705 71.4972L237.441 70.5028ZM228.261 58.2383V71H230.261V58.2383H228.261ZM229.261 70H222.229V72H229.261V70ZM223.229 71V46.3906H221.229V71H223.229ZM222.229 47.3906H243.323V45.3906H222.229V47.3906ZM261.303 53.4219H262.303V52.4219H261.303V53.4219ZM254.272 53.4219V52.4219H253.272V53.4219H254.272ZM254.272 55.1797H253.272V56.1797H254.272V55.1797ZM261.303 55.1797V56.1797H262.303V55.1797H261.303ZM268.335 46.3906H269.335V45.3906H268.335V46.3906ZM268.335 62.2109V63.2109H269.335V62.2109H268.335ZM264.45 62.2109V61.2109H262.723L263.583 62.7088L264.45 62.2109ZM269.495 71V72H271.222L270.362 70.5022L269.495 71ZM261.585 71L260.717 71.4972L261.005 72H261.585V71ZM254.272 58.2383L255.14 57.7411L253.272 54.4817V58.2383H254.272ZM254.272 71V72H255.272V71H254.272ZM247.241 71H246.241V72H247.241V71ZM247.241 46.3906V45.3906H246.241V46.3906H247.241ZM261.303 52.4219H254.272V54.4219H261.303V52.4219ZM253.272 53.4219V55.1797H255.272V53.4219H253.272ZM254.272 56.1797H261.303V54.1797H254.272V56.1797ZM262.303 55.1797V53.4219H260.303V55.1797H262.303ZM267.335 46.3906V62.2109H269.335V46.3906H267.335ZM268.335 61.2109H264.45V63.2109H268.335V61.2109ZM263.583 62.7088L268.628 71.4978L270.362 70.5022L265.317 61.7131L263.583 62.7088ZM269.495 70H261.585V72H269.495V70ZM262.452 70.5028L255.14 57.7411L253.405 58.7354L260.717 71.4972L262.452 70.5028ZM253.272 58.2383V71H255.272V58.2383H253.272ZM254.272 70H247.241V72H254.272V70ZM248.241 71V46.3906H246.241V71H248.241ZM247.241 47.3906H268.335V45.3906H247.241V47.3906ZM286.315 55.1797V56.1797H287.315V55.1797H286.315ZM286.315 46.3906V45.3906H285.315V46.3906H286.315ZM293.346 46.3906H294.346V45.3906H293.346V46.3906ZM293.346 62.2109V63.2109H294.346V62.2109H293.346ZM286.315 62.2109V61.2109H285.315V62.2109H286.315ZM286.315 71V72H287.315V71H286.315ZM279.284 71H278.284V72H279.284V71ZM279.284 62.2109H280.284V61.2109H279.284V62.2109ZM272.253 62.2109H271.253V63.2109H272.253V62.2109ZM272.253 46.3906V45.3906H271.253V46.3906H272.253ZM279.284 46.3906H280.284V45.3906H279.284V46.3906ZM279.284 55.1797H278.284V56.1797H279.284V55.1797ZM287.315 55.1797V46.3906H285.315V55.1797H287.315ZM286.315 47.3906H293.346V45.3906H286.315V47.3906ZM292.346 46.3906V62.2109H294.346V46.3906H292.346ZM293.346 61.2109H286.315V63.2109H293.346V61.2109ZM285.315 62.2109V71H287.315V62.2109H285.315ZM286.315 70H279.284V72H286.315V70ZM280.284 71V62.2109H278.284V71H280.284ZM279.284 61.2109H272.253V63.2109H279.284V61.2109ZM273.253 62.2109V46.3906H271.253V62.2109H273.253ZM272.253 47.3906H279.284V45.3906H272.253V47.3906ZM278.284 46.3906V55.1797H280.284V46.3906H278.284ZM279.284 56.1797H286.315V54.1797H279.284V56.1797Z" fill="#34FF00" mask="url(#path-11-inside-1_63_693)"/>
</svg>
