<svg width="482" height="121" viewBox="0 0 482 121" fill="none" xmlns="http://www.w3.org/2000/svg">
<path d="M476.021 4.04104L434.727 46.8769C433.047 48.6199 433.047 51.3801 434.727 53.1231L476.021 95.959C476.939 96.9116 476.264 98.5 474.941 98.5H2.99999C2.17157 98.5 1.5 97.8284 1.5 97V3C1.5 2.17157 2.17157 1.5 3 1.5H241H474.941C476.264 1.5 476.939 3.08846 476.021 4.04104Z" fill="white" fill-opacity="0.8" stroke="#FFB800" stroke-width="3"/>
<path d="M476.021 24.041L434.727 66.8769C433.047 68.6199 433.047 71.3801 434.727 73.1231L476.021 115.959C476.939 116.912 476.264 118.5 474.941 118.5H2.99999C2.17157 118.5 1.5 117.828 1.5 117V23C1.5 22.1716 2.17157 21.5 3 21.5H241H474.941C476.264 21.5 476.939 23.0885 476.021 24.041Z" fill="black" fill-opacity="0.6" stroke="white" stroke-width="3"/>
<path d="M476.021 14.041L434.727 56.8769C433.047 58.6199 433.047 61.3801 434.727 63.1231L476.021 105.959C476.939 106.912 476.264 108.5 474.941 108.5H2.99999C2.17157 108.5 1.5 107.828 1.5 107V13C1.5 12.1716 2.17157 11.5 3 11.5H241H474.941C476.264 11.5 476.939 13.0885 476.021 14.041Z" fill="#E7E7E7" fill-opacity="0.7" stroke="#76FF03" stroke-width="3"/>
<line x1="10" y1="23.5" x2="30" y2="23.5" stroke="#FFB800" stroke-width="3"/>
<line x1="11.5" y1="22" x2="11.5" y2="97" stroke="#FFB800" stroke-width="3"/>
<line x1="10" y1="98.5" x2="30" y2="98.5" stroke="#FFB800" stroke-width="3"/>
<line y1="-1.5" x2="49.1082" y2="-1.5" transform="matrix(0.694029 -0.719947 0.694029 0.719947 427.052 55.3553)" stroke="#FFB800" stroke-width="3"/>
<line x1="417.412" y1="53.5" x2="427.052" y2="53.5" stroke="#FFB800" stroke-width="3"/>
<line x1="417.412" y1="66.5" x2="427.052" y2="66.5" stroke="#FFB800" stroke-width="3"/>
<line y1="-1.5" x2="49.1082" y2="-1.5" transform="matrix(0.694029 0.719947 -0.694029 0.719947 424.16 67)" stroke="#FFB800" stroke-width="3"/>
<mask id="path-11-inside-1_63_537" fill="white">
<path d="M69.1211 71L70.8789 63.9688H82.3047V46.3906H89.3359V71H69.1211ZM114.347 46.3906L112.59 53.4219H100.285V55.1797H112.59V71H91.4959L93.2537 63.9688H105.558V62.2109H93.2537V46.3906H114.347ZM130.57 53.4219H123.539V63.9688H130.57V53.4219ZM137.601 46.3906V71H116.507V46.3906H137.601ZM162.613 71H155.582V53.4219H148.55V71H141.519V46.3906H162.613V71ZM182.753 63.9688H196.816L195.058 71H175.722V46.3906H182.753V63.9688ZM220.069 46.3906L218.312 53.4219H206.007V55.1797H218.312L216.554 62.2109H206.007V63.9688H220.069L218.312 71H198.976V46.3906H220.069ZM243.323 46.3906L241.565 53.4219H229.261V55.1797H241.565L239.807 62.2109H229.261V63.9688H243.323L241.565 71H222.229V46.3906H243.323ZM275.768 46.3906L274.01 53.4219H261.706V55.1797H274.01V71H252.917L254.674 63.9688H266.979V62.2109H254.674V46.3906H275.768ZM299.022 46.3906L297.264 53.4219H284.959V63.9688H299.022L297.264 71H277.928V46.3906H299.022ZM315.244 53.4219H308.213V63.9688H315.244V53.4219ZM322.276 46.3906V71H301.182V46.3906H322.276ZM347.287 46.3906L345.529 53.4219H339.377V71H332.346V53.4219H326.193V46.3906H347.287ZM370.541 46.3906L368.783 53.4219H362.631V71H355.6V53.4219H349.447V46.3906H370.541Z"/>
</mask>
<path d="M69.1211 71L70.8789 63.9688H82.3047V46.3906H89.3359V71H69.1211ZM114.347 46.3906L112.59 53.4219H100.285V55.1797H112.59V71H91.4959L93.2537 63.9688H105.558V62.2109H93.2537V46.3906H114.347ZM130.57 53.4219H123.539V63.9688H130.57V53.4219ZM137.601 46.3906V71H116.507V46.3906H137.601ZM162.613 71H155.582V53.4219H148.55V71H141.519V46.3906H162.613V71ZM182.753 63.9688H196.816L195.058 71H175.722V46.3906H182.753V63.9688ZM220.069 46.3906L218.312 53.4219H206.007V55.1797H218.312L216.554 62.2109H206.007V63.9688H220.069L218.312 71H198.976V46.3906H220.069ZM243.323 46.3906L241.565 53.4219H229.261V55.1797H241.565L239.807 62.2109H229.261V63.9688H243.323L241.565 71H222.229V46.3906H243.323ZM275.768 46.3906L274.01 53.4219H261.706V55.1797H274.01V71H252.917L254.674 63.9688H266.979V62.2109H254.674V46.3906H275.768ZM299.022 46.3906L297.264 53.4219H284.959V63.9688H299.022L297.264 71H277.928V46.3906H299.022ZM315.244 53.4219H308.213V63.9688H315.244V53.4219ZM322.276 46.3906V71H301.182V46.3906H322.276ZM347.287 46.3906L345.529 53.4219H339.377V71H332.346V53.4219H326.193V46.3906H347.287ZM370.541 46.3906L368.783 53.4219H362.631V71H355.6V53.4219H349.447V46.3906H370.541Z" fill="white" fill-opacity="0.85"/>
<path d="M69.1211 71L68.151 70.7575L67.8403 72H69.1211V71ZM70.8789 63.9688V62.9688H70.0981L69.9088 63.7262L70.8789 63.9688ZM82.3047 63.9688V64.9688H83.3047V63.9688H82.3047ZM82.3047 46.3906V45.3906H81.3047V46.3906H82.3047ZM89.3359 46.3906H90.3359V45.3906H89.3359V46.3906ZM89.3359 71V72H90.3359V71H89.3359ZM70.0912 71.2425L71.849 64.2113L69.9088 63.7262L68.151 70.7575L70.0912 71.2425ZM70.8789 64.9688H82.3047V62.9688H70.8789V64.9688ZM83.3047 63.9688V46.3906H81.3047V63.9688H83.3047ZM82.3047 47.3906H89.3359V45.3906H82.3047V47.3906ZM88.3359 46.3906V71H90.3359V46.3906H88.3359ZM89.3359 70H69.1211V72H89.3359V70ZM114.347 46.3906L115.318 46.6332L115.628 45.3906H114.347V46.3906ZM112.59 53.4219V54.4219H113.37L113.56 53.6644L112.59 53.4219ZM100.285 53.4219V52.4219H99.285V53.4219H100.285ZM100.285 55.1797H99.285V56.1797H100.285V55.1797ZM112.59 55.1797H113.59V54.1797H112.59V55.1797ZM112.59 71V72H113.59V71H112.59ZM91.4959 71L90.5258 70.7575L90.2152 72H91.4959V71ZM93.2537 63.9688V62.9688H92.473L92.2836 63.7262L93.2537 63.9688ZM105.558 63.9688V64.9688H106.558V63.9688H105.558ZM105.558 62.2109H106.558V61.2109H105.558V62.2109ZM93.2537 62.2109H92.2537V63.2109H93.2537V62.2109ZM93.2537 46.3906V45.3906H92.2537V46.3906H93.2537ZM113.377 46.1481L111.62 53.1793L113.56 53.6644L115.318 46.6332L113.377 46.1481ZM112.59 52.4219H100.285V54.4219H112.59V52.4219ZM99.285 53.4219V55.1797H101.285V53.4219H99.285ZM100.285 56.1797H112.59V54.1797H100.285V56.1797ZM111.59 55.1797V71H113.59V55.1797H111.59ZM112.59 70H91.4959V72H112.59V70ZM92.4661 71.2425L94.2239 64.2113L92.2836 63.7262L90.5258 70.7575L92.4661 71.2425ZM93.2537 64.9688H105.558V62.9688H93.2537V64.9688ZM106.558 63.9688V62.2109H104.558V63.9688H106.558ZM105.558 61.2109H93.2537V63.2109H105.558V61.2109ZM94.2537 62.2109V46.3906H92.2537V62.2109H94.2537ZM93.2537 47.3906H114.347V45.3906H93.2537V47.3906ZM130.57 53.4219H131.57V52.4219H130.57V53.4219ZM123.539 53.4219V52.4219H122.539V53.4219H123.539ZM123.539 63.9688H122.539V64.9688H123.539V63.9688ZM130.57 63.9688V64.9688H131.57V63.9688H130.57ZM137.601 46.3906H138.601V45.3906H137.601V46.3906ZM137.601 71V72H138.601V71H137.601ZM116.507 71H115.507V72H116.507V71ZM116.507 46.3906V45.3906H115.507V46.3906H116.507ZM130.57 52.4219H123.539V54.4219H130.57V52.4219ZM122.539 53.4219V63.9688H124.539V53.4219H122.539ZM123.539 64.9688H130.57V62.9688H123.539V64.9688ZM131.57 63.9688V53.4219H129.57V63.9688H131.57ZM136.601 46.3906V71H138.601V46.3906H136.601ZM137.601 70H116.507V72H137.601V70ZM117.507 71V46.3906H115.507V71H117.507ZM116.507 47.3906H137.601V45.3906H116.507V47.3906ZM162.613 71V72H163.613V71H162.613ZM155.582 71H154.582V72H155.582V71ZM155.582 53.4219H156.582V52.4219H155.582V53.4219ZM148.55 53.4219V52.4219H147.55V53.4219H148.55ZM148.55 71V72H149.55V71H148.55ZM141.519 71H140.519V72H141.519V71ZM141.519 46.3906V45.3906H140.519V46.3906H141.519ZM162.613 46.3906H163.613V45.3906H162.613V46.3906ZM162.613 70H155.582V72H162.613V70ZM156.582 71V53.4219H154.582V71H156.582ZM155.582 52.4219H148.55V54.4219H155.582V52.4219ZM147.55 53.4219V71H149.55V53.4219H147.55ZM148.55 70H141.519V72H148.55V70ZM142.519 71V46.3906H140.519V71H142.519ZM141.519 47.3906H162.613V45.3906H141.519V47.3906ZM161.613 46.3906V71H163.613V46.3906H161.613ZM182.753 63.9688H181.753V64.9688H182.753V63.9688ZM196.816 63.9688L197.786 64.2113L198.096 62.9688H196.816V63.9688ZM195.058 71V72H195.839L196.028 71.2425L195.058 71ZM175.722 71H174.722V72H175.722V71ZM175.722 46.3906V45.3906H174.722V46.3906H175.722ZM182.753 46.3906H183.753V45.3906H182.753V46.3906ZM182.753 64.9688H196.816V62.9688H182.753V64.9688ZM195.845 63.7262L194.088 70.7575L196.028 71.2425L197.786 64.2113L195.845 63.7262ZM195.058 70H175.722V72H195.058V70ZM176.722 71V46.3906H174.722V71H176.722ZM175.722 47.3906H182.753V45.3906H175.722V47.3906ZM181.753 46.3906V63.9688H183.753V46.3906H181.753ZM220.069 46.3906L221.04 46.6332L221.35 45.3906H220.069V46.3906ZM218.312 53.4219V54.4219H219.092L219.282 53.6644L218.312 53.4219ZM206.007 53.4219V52.4219H205.007V53.4219H206.007ZM206.007 55.1797H205.007V56.1797H206.007V55.1797ZM218.312 55.1797L219.282 55.4222L219.592 54.1797H218.312V55.1797ZM216.554 62.2109V63.2109H217.335L217.524 62.4535L216.554 62.2109ZM206.007 62.2109V61.2109H205.007V62.2109H206.007ZM206.007 63.9688H205.007V64.9688H206.007V63.9688ZM220.069 63.9688L221.04 64.2113L221.35 62.9688H220.069V63.9688ZM218.312 71V72H219.092L219.282 71.2425L218.312 71ZM198.976 71H197.976V72H198.976V71ZM198.976 46.3906V45.3906H197.976V46.3906H198.976ZM219.099 46.1481L217.341 53.1793L219.282 53.6644L221.04 46.6332L219.099 46.1481ZM218.312 52.4219H206.007V54.4219H218.312V52.4219ZM205.007 53.4219V55.1797H207.007V53.4219H205.007ZM206.007 56.1797H218.312V54.1797H206.007V56.1797ZM217.341 54.9372L215.584 61.9684L217.524 62.4535L219.282 55.4222L217.341 54.9372ZM216.554 61.2109H206.007V63.2109H216.554V61.2109ZM205.007 62.2109V63.9688H207.007V62.2109H205.007ZM206.007 64.9688H220.069V62.9688H206.007V64.9688ZM219.099 63.7262L217.341 70.7575L219.282 71.2425L221.04 64.2113L219.099 63.7262ZM218.312 70H198.976V72H218.312V70ZM199.976 71V46.3906H197.976V71H199.976ZM198.976 47.3906H220.069V45.3906H198.976V47.3906ZM243.323 46.3906L244.293 46.6332L244.604 45.3906H243.323V46.3906ZM241.565 53.4219V54.4219H242.346L242.535 53.6644L241.565 53.4219ZM229.261 53.4219V52.4219H228.261V53.4219H229.261ZM229.261 55.1797H228.261V56.1797H229.261V55.1797ZM241.565 55.1797L242.535 55.4222L242.846 54.1797H241.565V55.1797ZM239.807 62.2109V63.2109H240.588L240.778 62.4535L239.807 62.2109ZM229.261 62.2109V61.2109H228.261V62.2109H229.261ZM229.261 63.9688H228.261V64.9688H229.261V63.9688ZM243.323 63.9688L244.293 64.2113L244.604 62.9688H243.323V63.9688ZM241.565 71V72H242.346L242.535 71.2425L241.565 71ZM222.229 71H221.229V72H222.229V71ZM222.229 46.3906V45.3906H221.229V46.3906H222.229ZM242.353 46.1481L240.595 53.1793L242.535 53.6644L244.293 46.6332L242.353 46.1481ZM241.565 52.4219H229.261V54.4219H241.565V52.4219ZM228.261 53.4219V55.1797H230.261V53.4219H228.261ZM229.261 56.1797H241.565V54.1797H229.261V56.1797ZM240.595 54.9372L238.837 61.9684L240.778 62.4535L242.535 55.4222L240.595 54.9372ZM239.807 61.2109H229.261V63.2109H239.807V61.2109ZM228.261 62.2109V63.9688H230.261V62.2109H228.261ZM229.261 64.9688H243.323V62.9688H229.261V64.9688ZM242.353 63.7262L240.595 70.7575L242.535 71.2425L244.293 64.2113L242.353 63.7262ZM241.565 70H222.229V72H241.565V70ZM223.229 71V46.3906H221.229V71H223.229ZM222.229 47.3906H243.323V45.3906H222.229V47.3906ZM275.768 46.3906L276.738 46.6332L277.049 45.3906H275.768V46.3906ZM274.01 53.4219V54.4219H274.791L274.98 53.6644L274.01 53.4219ZM261.706 53.4219V52.4219H260.706V53.4219H261.706ZM261.706 55.1797H260.706V56.1797H261.706V55.1797ZM274.01 55.1797H275.01V54.1797H274.01V55.1797ZM274.01 71V72H275.01V71H274.01ZM252.917 71L251.946 70.7575L251.636 72H252.917V71ZM254.674 63.9688V62.9688H253.894L253.704 63.7262L254.674 63.9688ZM266.979 63.9688V64.9688H267.979V63.9688H266.979ZM266.979 62.2109H267.979V61.2109H266.979V62.2109ZM254.674 62.2109H253.674V63.2109H254.674V62.2109ZM254.674 46.3906V45.3906H253.674V46.3906H254.674ZM274.798 46.1481L273.04 53.1793L274.98 53.6644L276.738 46.6332L274.798 46.1481ZM274.01 52.4219H261.706V54.4219H274.01V52.4219ZM260.706 53.4219V55.1797H262.706V53.4219H260.706ZM261.706 56.1797H274.01V54.1797H261.706V56.1797ZM273.01 55.1797V71H275.01V55.1797H273.01ZM274.01 70H252.917V72H274.01V70ZM253.887 71.2425L255.645 64.2113L253.704 63.7262L251.946 70.7575L253.887 71.2425ZM254.674 64.9688H266.979V62.9688H254.674V64.9688ZM267.979 63.9688V62.2109H265.979V63.9688H267.979ZM266.979 61.2109H254.674V63.2109H266.979V61.2109ZM255.674 62.2109V46.3906H253.674V62.2109H255.674ZM254.674 47.3906H275.768V45.3906H254.674V47.3906ZM299.022 46.3906L299.992 46.6332L300.303 45.3906H299.022V46.3906ZM297.264 53.4219V54.4219H298.045L298.234 53.6644L297.264 53.4219ZM284.959 53.4219V52.4219H283.959V53.4219H284.959ZM284.959 63.9688H283.959V64.9688H284.959V63.9688ZM299.022 63.9688L299.992 64.2113L300.303 62.9688H299.022V63.9688ZM297.264 71V72H298.045L298.234 71.2425L297.264 71ZM277.928 71H276.928V72H277.928V71ZM277.928 46.3906V45.3906H276.928V46.3906H277.928ZM298.052 46.1481L296.294 53.1793L298.234 53.6644L299.992 46.6332L298.052 46.1481ZM297.264 52.4219H284.959V54.4219H297.264V52.4219ZM283.959 53.4219V63.9688H285.959V53.4219H283.959ZM284.959 64.9688H299.022V62.9688H284.959V64.9688ZM298.052 63.7262L296.294 70.7575L298.234 71.2425L299.992 64.2113L298.052 63.7262ZM297.264 70H277.928V72H297.264V70ZM278.928 71V46.3906H276.928V71H278.928ZM277.928 47.3906H299.022V45.3906H277.928V47.3906ZM315.244 53.4219H316.244V52.4219H315.244V53.4219ZM308.213 53.4219V52.4219H307.213V53.4219H308.213ZM308.213 63.9688H307.213V64.9688H308.213V63.9688ZM315.244 63.9688V64.9688H316.244V63.9688H315.244ZM322.276 46.3906H323.276V45.3906H322.276V46.3906ZM322.276 71V72H323.276V71H322.276ZM301.182 71H300.182V72H301.182V71ZM301.182 46.3906V45.3906H300.182V46.3906H301.182ZM315.244 52.4219H308.213V54.4219H315.244V52.4219ZM307.213 53.4219V63.9688H309.213V53.4219H307.213ZM308.213 64.9688H315.244V62.9688H308.213V64.9688ZM316.244 63.9688V53.4219H314.244V63.9688H316.244ZM321.276 46.3906V71H323.276V46.3906H321.276ZM322.276 70H301.182V72H322.276V70ZM302.182 71V46.3906H300.182V71H302.182ZM301.182 47.3906H322.276V45.3906H301.182V47.3906ZM347.287 46.3906L348.257 46.6332L348.568 45.3906H347.287V46.3906ZM345.529 53.4219V54.4219H346.31L346.5 53.6644L345.529 53.4219ZM339.377 53.4219V52.4219H338.377V53.4219H339.377ZM339.377 71V72H340.377V71H339.377ZM332.346 71H331.346V72H332.346V71ZM332.346 53.4219H333.346V52.4219H332.346V53.4219ZM326.193 53.4219H325.193V54.4219H326.193V53.4219ZM326.193 46.3906V45.3906H325.193V46.3906H326.193ZM346.317 46.1481L344.559 53.1793L346.5 53.6644L348.257 46.6332L346.317 46.1481ZM345.529 52.4219H339.377V54.4219H345.529V52.4219ZM338.377 53.4219V71H340.377V53.4219H338.377ZM339.377 70H332.346V72H339.377V70ZM333.346 71V53.4219H331.346V71H333.346ZM332.346 52.4219H326.193V54.4219H332.346V52.4219ZM327.193 53.4219V46.3906H325.193V53.4219H327.193ZM326.193 47.3906H347.287V45.3906H326.193V47.3906ZM370.541 46.3906L371.511 46.6332L371.822 45.3906H370.541V46.3906ZM368.783 53.4219V54.4219H369.564L369.753 53.6644L368.783 53.4219ZM362.631 53.4219V52.4219H361.631V53.4219H362.631ZM362.631 71V72H363.631V71H362.631ZM355.6 71H354.6V72H355.6V71ZM355.6 53.4219H356.6V52.4219H355.6V53.4219ZM349.447 53.4219H348.447V54.4219H349.447V53.4219ZM349.447 46.3906V45.3906H348.447V46.3906H349.447ZM369.571 46.1481L367.813 53.1793L369.753 53.6644L371.511 46.6332L369.571 46.1481ZM368.783 52.4219H362.631V54.4219H368.783V52.4219ZM361.631 53.4219V71H363.631V53.4219H361.631ZM362.631 70H355.6V72H362.631V70ZM356.6 71V53.4219H354.6V71H356.6ZM355.6 52.4219H349.447V54.4219H355.6V52.4219ZM350.447 53.4219V46.3906H348.447V53.4219H350.447ZM349.447 47.3906H370.541V45.3906H349.447V47.3906Z" fill="#34FF00" mask="url(#path-11-inside-1_63_537)"/>
</svg>
