<svg width="418" height="121" viewBox="0 0 418 121" fill="none" xmlns="http://www.w3.org/2000/svg">
<path d="M412.733 3.96209L376.658 47.1137C375.261 48.7845 375.261 51.2155 376.658 52.8863L412.733 96.0379C413.549 97.0145 412.855 98.5 411.582 98.5H3.00001C2.17158 98.5 1.5 97.8284 1.5 97V3C1.5 2.17157 2.17157 1.5 3 1.5H209H411.582C412.855 1.5 413.549 2.98554 412.733 3.96209Z" fill="white" fill-opacity="0.8" stroke="#FFB800" stroke-width="3"/>
<path d="M412.733 23.9621L376.658 67.1137C375.261 68.7845 375.261 71.2155 376.658 72.8863L412.733 116.038C413.549 117.014 412.855 118.5 411.582 118.5H3.00001C2.17158 118.5 1.5 117.828 1.5 117V23C1.5 22.1716 2.17157 21.5 3 21.5H209H411.582C412.855 21.5 413.549 22.9855 412.733 23.9621Z" fill="black" fill-opacity="0.6" stroke="white" stroke-width="3"/>
<path d="M412.733 13.9621L376.658 57.1137C375.261 58.7845 375.261 61.2155 376.658 62.8863L412.733 106.038C413.549 107.014 412.855 108.5 411.582 108.5H3.00001C2.17158 108.5 1.5 107.828 1.5 107V13C1.5 12.1716 2.17157 11.5 3 11.5H209H411.582C412.855 11.5 413.549 12.9855 412.733 13.9621Z" fill="#E7E7E7" fill-opacity="0.7" stroke="#76FF03" stroke-width="3"/>
<line x1="10" y1="23.5" x2="30" y2="23.5" stroke="#FFB800" stroke-width="3"/>
<line x1="11.5" y1="22" x2="11.5" y2="97" stroke="#FFB800" stroke-width="3"/>
<line x1="10" y1="98.5" x2="30" y2="98.5" stroke="#FFB800" stroke-width="3"/>
<line y1="-1.5" x2="46.0827" y2="-1.5" transform="matrix(0.641391 -0.767214 0.641391 0.767214 370.348 55.3553)" stroke="#FFB800" stroke-width="3"/>
<line x1="361.988" y1="53.5" x2="370.348" y2="53.5" stroke="#FFB800" stroke-width="3"/>
<line x1="361.988" y1="66.5" x2="370.348" y2="66.5" stroke="#FFB800" stroke-width="3"/>
<line y1="-1.5" x2="46.0828" y2="-1.5" transform="matrix(0.641391 0.767214 -0.641391 0.767214 367.84 67)" stroke="#FFB800" stroke-width="3"/>
<mask id="path-11-inside-1_63_561" fill="white">
<path d="M69.1211 71L70.8789 63.9688H82.3047V46.3906H89.3359V71H69.1211ZM114.347 46.3906L112.59 53.4219H100.285V55.1797H112.59V71H91.4959L93.2537 63.9688H105.558V62.2109H93.2537V46.3906H114.347ZM130.57 53.4219H123.539V63.9688H130.57V53.4219ZM137.601 46.3906V71H116.507V46.3906H137.601ZM162.613 71H155.582V53.4219H148.55V71H141.519V46.3906H162.613V71ZM200.331 71H193.3V53.4219H191.542V71H184.511V53.4219H182.753V71H175.722V46.3906H200.331V71ZM218.312 53.4219H211.28V63.9688H218.312V53.4219ZM225.343 46.3906V71H204.249V46.3906H225.343ZM253.87 71H246.839V53.4219H245.081V71H238.05V53.4219H236.292V71H229.261V46.3906H253.87V71ZM271.85 53.4219H264.819V63.9688H271.85V53.4219ZM278.882 46.3906V71H257.788V46.3906H278.882ZM296.862 62.2109H289.831V71H282.799V46.3906H303.893V71H296.862V62.2109ZM289.831 55.1797H296.862V53.4219H289.831V55.1797Z"/>
</mask>
<path d="M69.1211 71L70.8789 63.9688H82.3047V46.3906H89.3359V71H69.1211ZM114.347 46.3906L112.59 53.4219H100.285V55.1797H112.59V71H91.4959L93.2537 63.9688H105.558V62.2109H93.2537V46.3906H114.347ZM130.57 53.4219H123.539V63.9688H130.57V53.4219ZM137.601 46.3906V71H116.507V46.3906H137.601ZM162.613 71H155.582V53.4219H148.55V71H141.519V46.3906H162.613V71ZM200.331 71H193.3V53.4219H191.542V71H184.511V53.4219H182.753V71H175.722V46.3906H200.331V71ZM218.312 53.4219H211.28V63.9688H218.312V53.4219ZM225.343 46.3906V71H204.249V46.3906H225.343ZM253.87 71H246.839V53.4219H245.081V71H238.05V53.4219H236.292V71H229.261V46.3906H253.87V71ZM271.85 53.4219H264.819V63.9688H271.85V53.4219ZM278.882 46.3906V71H257.788V46.3906H278.882ZM296.862 62.2109H289.831V71H282.799V46.3906H303.893V71H296.862V62.2109ZM289.831 55.1797H296.862V53.4219H289.831V55.1797Z" fill="white" fill-opacity="0.85"/>
<path d="M69.1211 71L68.151 70.7575L67.8403 72H69.1211V71ZM70.8789 63.9688V62.9688H70.0981L69.9088 63.7262L70.8789 63.9688ZM82.3047 63.9688V64.9688H83.3047V63.9688H82.3047ZM82.3047 46.3906V45.3906H81.3047V46.3906H82.3047ZM89.3359 46.3906H90.3359V45.3906H89.3359V46.3906ZM89.3359 71V72H90.3359V71H89.3359ZM70.0912 71.2425L71.849 64.2113L69.9088 63.7262L68.151 70.7575L70.0912 71.2425ZM70.8789 64.9688H82.3047V62.9688H70.8789V64.9688ZM83.3047 63.9688V46.3906H81.3047V63.9688H83.3047ZM82.3047 47.3906H89.3359V45.3906H82.3047V47.3906ZM88.3359 46.3906V71H90.3359V46.3906H88.3359ZM89.3359 70H69.1211V72H89.3359V70ZM114.347 46.3906L115.318 46.6332L115.628 45.3906H114.347V46.3906ZM112.59 53.4219V54.4219H113.37L113.56 53.6644L112.59 53.4219ZM100.285 53.4219V52.4219H99.285V53.4219H100.285ZM100.285 55.1797H99.285V56.1797H100.285V55.1797ZM112.59 55.1797H113.59V54.1797H112.59V55.1797ZM112.59 71V72H113.59V71H112.59ZM91.4959 71L90.5258 70.7575L90.2152 72H91.4959V71ZM93.2537 63.9688V62.9688H92.473L92.2836 63.7262L93.2537 63.9688ZM105.558 63.9688V64.9688H106.558V63.9688H105.558ZM105.558 62.2109H106.558V61.2109H105.558V62.2109ZM93.2537 62.2109H92.2537V63.2109H93.2537V62.2109ZM93.2537 46.3906V45.3906H92.2537V46.3906H93.2537ZM113.377 46.1481L111.62 53.1793L113.56 53.6644L115.318 46.6332L113.377 46.1481ZM112.59 52.4219H100.285V54.4219H112.59V52.4219ZM99.285 53.4219V55.1797H101.285V53.4219H99.285ZM100.285 56.1797H112.59V54.1797H100.285V56.1797ZM111.59 55.1797V71H113.59V55.1797H111.59ZM112.59 70H91.4959V72H112.59V70ZM92.4661 71.2425L94.2239 64.2113L92.2836 63.7262L90.5258 70.7575L92.4661 71.2425ZM93.2537 64.9688H105.558V62.9688H93.2537V64.9688ZM106.558 63.9688V62.2109H104.558V63.9688H106.558ZM105.558 61.2109H93.2537V63.2109H105.558V61.2109ZM94.2537 62.2109V46.3906H92.2537V62.2109H94.2537ZM93.2537 47.3906H114.347V45.3906H93.2537V47.3906ZM130.57 53.4219H131.57V52.4219H130.57V53.4219ZM123.539 53.4219V52.4219H122.539V53.4219H123.539ZM123.539 63.9688H122.539V64.9688H123.539V63.9688ZM130.57 63.9688V64.9688H131.57V63.9688H130.57ZM137.601 46.3906H138.601V45.3906H137.601V46.3906ZM137.601 71V72H138.601V71H137.601ZM116.507 71H115.507V72H116.507V71ZM116.507 46.3906V45.3906H115.507V46.3906H116.507ZM130.57 52.4219H123.539V54.4219H130.57V52.4219ZM122.539 53.4219V63.9688H124.539V53.4219H122.539ZM123.539 64.9688H130.57V62.9688H123.539V64.9688ZM131.57 63.9688V53.4219H129.57V63.9688H131.57ZM136.601 46.3906V71H138.601V46.3906H136.601ZM137.601 70H116.507V72H137.601V70ZM117.507 71V46.3906H115.507V71H117.507ZM116.507 47.3906H137.601V45.3906H116.507V47.3906ZM162.613 71V72H163.613V71H162.613ZM155.582 71H154.582V72H155.582V71ZM155.582 53.4219H156.582V52.4219H155.582V53.4219ZM148.55 53.4219V52.4219H147.55V53.4219H148.55ZM148.55 71V72H149.55V71H148.55ZM141.519 71H140.519V72H141.519V71ZM141.519 46.3906V45.3906H140.519V46.3906H141.519ZM162.613 46.3906H163.613V45.3906H162.613V46.3906ZM162.613 70H155.582V72H162.613V70ZM156.582 71V53.4219H154.582V71H156.582ZM155.582 52.4219H148.55V54.4219H155.582V52.4219ZM147.55 53.4219V71H149.55V53.4219H147.55ZM148.55 70H141.519V72H148.55V70ZM142.519 71V46.3906H140.519V71H142.519ZM141.519 47.3906H162.613V45.3906H141.519V47.3906ZM161.613 46.3906V71H163.613V46.3906H161.613ZM200.331 71V72H201.331V71H200.331ZM193.3 71H192.3V72H193.3V71ZM193.3 53.4219H194.3V52.4219H193.3V53.4219ZM191.542 53.4219V52.4219H190.542V53.4219H191.542ZM191.542 71V72H192.542V71H191.542ZM184.511 71H183.511V72H184.511V71ZM184.511 53.4219H185.511V52.4219H184.511V53.4219ZM182.753 53.4219V52.4219H181.753V53.4219H182.753ZM182.753 71V72H183.753V71H182.753ZM175.722 71H174.722V72H175.722V71ZM175.722 46.3906V45.3906H174.722V46.3906H175.722ZM200.331 46.3906H201.331V45.3906H200.331V46.3906ZM200.331 70H193.3V72H200.331V70ZM194.3 71V53.4219H192.3V71H194.3ZM193.3 52.4219H191.542V54.4219H193.3V52.4219ZM190.542 53.4219V71H192.542V53.4219H190.542ZM191.542 70H184.511V72H191.542V70ZM185.511 71V53.4219H183.511V71H185.511ZM184.511 52.4219H182.753V54.4219H184.511V52.4219ZM181.753 53.4219V71H183.753V53.4219H181.753ZM182.753 70H175.722V72H182.753V70ZM176.722 71V46.3906H174.722V71H176.722ZM175.722 47.3906H200.331V45.3906H175.722V47.3906ZM199.331 46.3906V71H201.331V46.3906H199.331ZM218.312 53.4219H219.312V52.4219H218.312V53.4219ZM211.28 53.4219V52.4219H210.28V53.4219H211.28ZM211.28 63.9688H210.28V64.9688H211.28V63.9688ZM218.312 63.9688V64.9688H219.312V63.9688H218.312ZM225.343 46.3906H226.343V45.3906H225.343V46.3906ZM225.343 71V72H226.343V71H225.343ZM204.249 71H203.249V72H204.249V71ZM204.249 46.3906V45.3906H203.249V46.3906H204.249ZM218.312 52.4219H211.28V54.4219H218.312V52.4219ZM210.28 53.4219V63.9688H212.28V53.4219H210.28ZM211.28 64.9688H218.312V62.9688H211.28V64.9688ZM219.312 63.9688V53.4219H217.312V63.9688H219.312ZM224.343 46.3906V71H226.343V46.3906H224.343ZM225.343 70H204.249V72H225.343V70ZM205.249 71V46.3906H203.249V71H205.249ZM204.249 47.3906H225.343V45.3906H204.249V47.3906ZM253.87 71V72H254.87V71H253.87ZM246.839 71H245.839V72H246.839V71ZM246.839 53.4219H247.839V52.4219H246.839V53.4219ZM245.081 53.4219V52.4219H244.081V53.4219H245.081ZM245.081 71V72H246.081V71H245.081ZM238.05 71H237.05V72H238.05V71ZM238.05 53.4219H239.05V52.4219H238.05V53.4219ZM236.292 53.4219V52.4219H235.292V53.4219H236.292ZM236.292 71V72H237.292V71H236.292ZM229.261 71H228.261V72H229.261V71ZM229.261 46.3906V45.3906H228.261V46.3906H229.261ZM253.87 46.3906H254.87V45.3906H253.87V46.3906ZM253.87 70H246.839V72H253.87V70ZM247.839 71V53.4219H245.839V71H247.839ZM246.839 52.4219H245.081V54.4219H246.839V52.4219ZM244.081 53.4219V71H246.081V53.4219H244.081ZM245.081 70H238.05V72H245.081V70ZM239.05 71V53.4219H237.05V71H239.05ZM238.05 52.4219H236.292V54.4219H238.05V52.4219ZM235.292 53.4219V71H237.292V53.4219H235.292ZM236.292 70H229.261V72H236.292V70ZM230.261 71V46.3906H228.261V71H230.261ZM229.261 47.3906H253.87V45.3906H229.261V47.3906ZM252.87 46.3906V71H254.87V46.3906H252.87ZM271.85 53.4219H272.85V52.4219H271.85V53.4219ZM264.819 53.4219V52.4219H263.819V53.4219H264.819ZM264.819 63.9688H263.819V64.9688H264.819V63.9688ZM271.85 63.9688V64.9688H272.85V63.9688H271.85ZM278.882 46.3906H279.882V45.3906H278.882V46.3906ZM278.882 71V72H279.882V71H278.882ZM257.788 71H256.788V72H257.788V71ZM257.788 46.3906V45.3906H256.788V46.3906H257.788ZM271.85 52.4219H264.819V54.4219H271.85V52.4219ZM263.819 53.4219V63.9688H265.819V53.4219H263.819ZM264.819 64.9688H271.85V62.9688H264.819V64.9688ZM272.85 63.9688V53.4219H270.85V63.9688H272.85ZM277.882 46.3906V71H279.882V46.3906H277.882ZM278.882 70H257.788V72H278.882V70ZM258.788 71V46.3906H256.788V71H258.788ZM257.788 47.3906H278.882V45.3906H257.788V47.3906ZM296.862 62.2109H297.862V61.2109H296.862V62.2109ZM289.831 62.2109V61.2109H288.831V62.2109H289.831ZM289.831 71V72H290.831V71H289.831ZM282.799 71H281.799V72H282.799V71ZM282.799 46.3906V45.3906H281.799V46.3906H282.799ZM303.893 46.3906H304.893V45.3906H303.893V46.3906ZM303.893 71V72H304.893V71H303.893ZM296.862 71H295.862V72H296.862V71ZM289.831 55.1797H288.831V56.1797H289.831V55.1797ZM296.862 55.1797V56.1797H297.862V55.1797H296.862ZM296.862 53.4219H297.862V52.4219H296.862V53.4219ZM289.831 53.4219V52.4219H288.831V53.4219H289.831ZM296.862 61.2109H289.831V63.2109H296.862V61.2109ZM288.831 62.2109V71H290.831V62.2109H288.831ZM289.831 70H282.799V72H289.831V70ZM283.799 71V46.3906H281.799V71H283.799ZM282.799 47.3906H303.893V45.3906H282.799V47.3906ZM302.893 46.3906V71H304.893V46.3906H302.893ZM303.893 70H296.862V72H303.893V70ZM297.862 71V62.2109H295.862V71H297.862ZM289.831 56.1797H296.862V54.1797H289.831V56.1797ZM297.862 55.1797V53.4219H295.862V55.1797H297.862ZM296.862 52.4219H289.831V54.4219H296.862V52.4219ZM288.831 53.4219V55.1797H290.831V53.4219H288.831Z" fill="#34FF00" mask="url(#path-11-inside-1_63_561)"/>
</svg>
