<svg width="465" height="121" viewBox="0 0 465 121" fill="none" xmlns="http://www.w3.org/2000/svg">
<path d="M459.212 4.02152L419.302 46.9354C417.695 48.6627 417.695 51.3373 419.302 53.0646L459.212 95.9785C460.104 96.938 459.423 98.5 458.113 98.5H3C2.17157 98.5 1.5 97.8284 1.5 97V3C1.5 2.17157 2.17157 1.5 3 1.5H232.5H458.113C459.423 1.5 460.104 3.06203 459.212 4.02152Z" fill="white" fill-opacity="0.8" stroke="#FFB800" stroke-width="3"/>
<path d="M459.212 24.0215L419.302 66.9354C417.695 68.6627 417.695 71.3373 419.302 73.0646L459.212 115.978C460.104 116.938 459.423 118.5 458.113 118.5H3C2.17157 118.5 1.5 117.828 1.5 117V23C1.5 22.1716 2.17157 21.5 3 21.5H232.5H458.113C459.423 21.5 460.104 23.062 459.212 24.0215Z" fill="black" fill-opacity="0.6" stroke="white" stroke-width="3"/>
<path d="M459.212 14.0215L419.302 56.9354C417.695 58.6627 417.695 61.3373 419.302 63.0646L459.212 105.978C460.104 106.938 459.423 108.5 458.113 108.5H3C2.17157 108.5 1.5 107.828 1.5 107V13C1.5 12.1716 2.17157 11.5 3 11.5H232.5H458.113C459.423 11.5 460.104 13.062 459.212 14.0215Z" fill="#E7E7E7" fill-opacity="0.7" stroke="#76FF03" stroke-width="3"/>
<line x1="10" y1="23.5" x2="30" y2="23.5" stroke="#FFB800" stroke-width="3"/>
<line x1="11.5" y1="22" x2="11.5" y2="97" stroke="#FFB800" stroke-width="3"/>
<line x1="10" y1="98.5" x2="30" y2="98.5" stroke="#FFB800" stroke-width="3"/>
<line y1="-1.5" x2="48.2817" y2="-1.5" transform="matrix(0.681013 -0.732272 0.681013 0.732272 411.99 55.3555)" stroke="#FFB800" stroke-width="3"/>
<line x1="402.69" y1="53.5" x2="411.99" y2="53.5" stroke="#FFB800" stroke-width="3"/>
<line x1="402.69" y1="66.5" x2="411.99" y2="66.5" stroke="#FFB800" stroke-width="3"/>
<line y1="-1.5" x2="48.2817" y2="-1.5" transform="matrix(0.681013 0.732272 -0.681013 0.732272 409.2 67)" stroke="#FFB800" stroke-width="3"/>
<mask id="path-11-inside-1_63_633" fill="white">
<path d="M69.1211 71L70.8789 63.9688H82.3047V46.3906H89.3359V71H69.1211ZM114.347 46.3906L112.59 53.4219H100.285V55.1797H112.59V71H91.4959L93.2537 63.9688H105.558V62.2109H93.2537V46.3906H114.347ZM130.57 53.4219H123.539V63.9688H130.57V53.4219ZM137.601 46.3906V71H116.507V46.3906H137.601ZM162.613 71H155.582V53.4219H148.55V71H141.519V46.3906H162.613V71ZM196.816 46.3906L195.058 53.4219H182.753V55.1797H195.058V71H173.964L175.722 63.9688H188.027V62.2109H175.722V46.3906H196.816ZM220.069 46.3906L218.312 53.4219H212.159V71H205.128V53.4219H198.976V46.3906H220.069ZM236.292 62.2109H229.261V71H222.229V46.3906H243.323V71H236.292V62.2109ZM229.261 55.1797H236.292V53.4219H229.261V55.1797ZM268.335 46.3906L266.577 53.4219H260.425V71H253.393V53.4219H247.241V46.3906H268.335ZM270.495 46.3906H277.526V55.1797H284.557V46.3906H291.588V71H284.557V62.2109H277.526V71H270.495V46.3906ZM309.569 62.2109H302.538V71H295.506V46.3906H316.6V71H309.569V62.2109ZM302.538 55.1797H309.569V53.4219H302.538V55.1797ZM345.127 71H338.096V53.4219H336.338V71H329.307V53.4219H327.549V71H320.518V46.3906H345.127V71Z"/>
</mask>
<path d="M69.1211 71L70.8789 63.9688H82.3047V46.3906H89.3359V71H69.1211ZM114.347 46.3906L112.59 53.4219H100.285V55.1797H112.59V71H91.4959L93.2537 63.9688H105.558V62.2109H93.2537V46.3906H114.347ZM130.57 53.4219H123.539V63.9688H130.57V53.4219ZM137.601 46.3906V71H116.507V46.3906H137.601ZM162.613 71H155.582V53.4219H148.55V71H141.519V46.3906H162.613V71ZM196.816 46.3906L195.058 53.4219H182.753V55.1797H195.058V71H173.964L175.722 63.9688H188.027V62.2109H175.722V46.3906H196.816ZM220.069 46.3906L218.312 53.4219H212.159V71H205.128V53.4219H198.976V46.3906H220.069ZM236.292 62.2109H229.261V71H222.229V46.3906H243.323V71H236.292V62.2109ZM229.261 55.1797H236.292V53.4219H229.261V55.1797ZM268.335 46.3906L266.577 53.4219H260.425V71H253.393V53.4219H247.241V46.3906H268.335ZM270.495 46.3906H277.526V55.1797H284.557V46.3906H291.588V71H284.557V62.2109H277.526V71H270.495V46.3906ZM309.569 62.2109H302.538V71H295.506V46.3906H316.6V71H309.569V62.2109ZM302.538 55.1797H309.569V53.4219H302.538V55.1797ZM345.127 71H338.096V53.4219H336.338V71H329.307V53.4219H327.549V71H320.518V46.3906H345.127V71Z" fill="white" fill-opacity="0.85"/>
<path d="M69.1211 71L68.151 70.7575L67.8403 72H69.1211V71ZM70.8789 63.9688V62.9688H70.0981L69.9088 63.7262L70.8789 63.9688ZM82.3047 63.9688V64.9688H83.3047V63.9688H82.3047ZM82.3047 46.3906V45.3906H81.3047V46.3906H82.3047ZM89.3359 46.3906H90.3359V45.3906H89.3359V46.3906ZM89.3359 71V72H90.3359V71H89.3359ZM70.0912 71.2425L71.849 64.2113L69.9088 63.7262L68.151 70.7575L70.0912 71.2425ZM70.8789 64.9688H82.3047V62.9688H70.8789V64.9688ZM83.3047 63.9688V46.3906H81.3047V63.9688H83.3047ZM82.3047 47.3906H89.3359V45.3906H82.3047V47.3906ZM88.3359 46.3906V71H90.3359V46.3906H88.3359ZM89.3359 70H69.1211V72H89.3359V70ZM114.347 46.3906L115.318 46.6332L115.628 45.3906H114.347V46.3906ZM112.59 53.4219V54.4219H113.37L113.56 53.6644L112.59 53.4219ZM100.285 53.4219V52.4219H99.285V53.4219H100.285ZM100.285 55.1797H99.285V56.1797H100.285V55.1797ZM112.59 55.1797H113.59V54.1797H112.59V55.1797ZM112.59 71V72H113.59V71H112.59ZM91.4959 71L90.5258 70.7575L90.2152 72H91.4959V71ZM93.2537 63.9688V62.9688H92.473L92.2836 63.7262L93.2537 63.9688ZM105.558 63.9688V64.9688H106.558V63.9688H105.558ZM105.558 62.2109H106.558V61.2109H105.558V62.2109ZM93.2537 62.2109H92.2537V63.2109H93.2537V62.2109ZM93.2537 46.3906V45.3906H92.2537V46.3906H93.2537ZM113.377 46.1481L111.62 53.1793L113.56 53.6644L115.318 46.6332L113.377 46.1481ZM112.59 52.4219H100.285V54.4219H112.59V52.4219ZM99.285 53.4219V55.1797H101.285V53.4219H99.285ZM100.285 56.1797H112.59V54.1797H100.285V56.1797ZM111.59 55.1797V71H113.59V55.1797H111.59ZM112.59 70H91.4959V72H112.59V70ZM92.4661 71.2425L94.2239 64.2113L92.2836 63.7262L90.5258 70.7575L92.4661 71.2425ZM93.2537 64.9688H105.558V62.9688H93.2537V64.9688ZM106.558 63.9688V62.2109H104.558V63.9688H106.558ZM105.558 61.2109H93.2537V63.2109H105.558V61.2109ZM94.2537 62.2109V46.3906H92.2537V62.2109H94.2537ZM93.2537 47.3906H114.347V45.3906H93.2537V47.3906ZM130.57 53.4219H131.57V52.4219H130.57V53.4219ZM123.539 53.4219V52.4219H122.539V53.4219H123.539ZM123.539 63.9688H122.539V64.9688H123.539V63.9688ZM130.57 63.9688V64.9688H131.57V63.9688H130.57ZM137.601 46.3906H138.601V45.3906H137.601V46.3906ZM137.601 71V72H138.601V71H137.601ZM116.507 71H115.507V72H116.507V71ZM116.507 46.3906V45.3906H115.507V46.3906H116.507ZM130.57 52.4219H123.539V54.4219H130.57V52.4219ZM122.539 53.4219V63.9688H124.539V53.4219H122.539ZM123.539 64.9688H130.57V62.9688H123.539V64.9688ZM131.57 63.9688V53.4219H129.57V63.9688H131.57ZM136.601 46.3906V71H138.601V46.3906H136.601ZM137.601 70H116.507V72H137.601V70ZM117.507 71V46.3906H115.507V71H117.507ZM116.507 47.3906H137.601V45.3906H116.507V47.3906ZM162.613 71V72H163.613V71H162.613ZM155.582 71H154.582V72H155.582V71ZM155.582 53.4219H156.582V52.4219H155.582V53.4219ZM148.55 53.4219V52.4219H147.55V53.4219H148.55ZM148.55 71V72H149.55V71H148.55ZM141.519 71H140.519V72H141.519V71ZM141.519 46.3906V45.3906H140.519V46.3906H141.519ZM162.613 46.3906H163.613V45.3906H162.613V46.3906ZM162.613 70H155.582V72H162.613V70ZM156.582 71V53.4219H154.582V71H156.582ZM155.582 52.4219H148.55V54.4219H155.582V52.4219ZM147.55 53.4219V71H149.55V53.4219H147.55ZM148.55 70H141.519V72H148.55V70ZM142.519 71V46.3906H140.519V71H142.519ZM141.519 47.3906H162.613V45.3906H141.519V47.3906ZM161.613 46.3906V71H163.613V46.3906H161.613ZM196.816 46.3906L197.786 46.6332L198.096 45.3906H196.816V46.3906ZM195.058 53.4219V54.4219H195.839L196.028 53.6644L195.058 53.4219ZM182.753 53.4219V52.4219H181.753V53.4219H182.753ZM182.753 55.1797H181.753V56.1797H182.753V55.1797ZM195.058 55.1797H196.058V54.1797H195.058V55.1797ZM195.058 71V72H196.058V71H195.058ZM173.964 71L172.994 70.7575L172.683 72H173.964V71ZM175.722 63.9688V62.9688H174.941L174.752 63.7262L175.722 63.9688ZM188.027 63.9688V64.9688H189.027V63.9688H188.027ZM188.027 62.2109H189.027V61.2109H188.027V62.2109ZM175.722 62.2109H174.722V63.2109H175.722V62.2109ZM175.722 46.3906V45.3906H174.722V46.3906H175.722ZM195.845 46.1481L194.088 53.1793L196.028 53.6644L197.786 46.6332L195.845 46.1481ZM195.058 52.4219H182.753V54.4219H195.058V52.4219ZM181.753 53.4219V55.1797H183.753V53.4219H181.753ZM182.753 56.1797H195.058V54.1797H182.753V56.1797ZM194.058 55.1797V71H196.058V55.1797H194.058ZM195.058 70H173.964V72H195.058V70ZM174.934 71.2425L176.692 64.2113L174.752 63.7262L172.994 70.7575L174.934 71.2425ZM175.722 64.9688H188.027V62.9688H175.722V64.9688ZM189.027 63.9688V62.2109H187.027V63.9688H189.027ZM188.027 61.2109H175.722V63.2109H188.027V61.2109ZM176.722 62.2109V46.3906H174.722V62.2109H176.722ZM175.722 47.3906H196.816V45.3906H175.722V47.3906ZM220.069 46.3906L221.04 46.6332L221.35 45.3906H220.069V46.3906ZM218.312 53.4219V54.4219H219.092L219.282 53.6644L218.312 53.4219ZM212.159 53.4219V52.4219H211.159V53.4219H212.159ZM212.159 71V72H213.159V71H212.159ZM205.128 71H204.128V72H205.128V71ZM205.128 53.4219H206.128V52.4219H205.128V53.4219ZM198.976 53.4219H197.976V54.4219H198.976V53.4219ZM198.976 46.3906V45.3906H197.976V46.3906H198.976ZM219.099 46.1481L217.341 53.1793L219.282 53.6644L221.04 46.6332L219.099 46.1481ZM218.312 52.4219H212.159V54.4219H218.312V52.4219ZM211.159 53.4219V71H213.159V53.4219H211.159ZM212.159 70H205.128V72H212.159V70ZM206.128 71V53.4219H204.128V71H206.128ZM205.128 52.4219H198.976V54.4219H205.128V52.4219ZM199.976 53.4219V46.3906H197.976V53.4219H199.976ZM198.976 47.3906H220.069V45.3906H198.976V47.3906ZM236.292 62.2109H237.292V61.2109H236.292V62.2109ZM229.261 62.2109V61.2109H228.261V62.2109H229.261ZM229.261 71V72H230.261V71H229.261ZM222.229 71H221.229V72H222.229V71ZM222.229 46.3906V45.3906H221.229V46.3906H222.229ZM243.323 46.3906H244.323V45.3906H243.323V46.3906ZM243.323 71V72H244.323V71H243.323ZM236.292 71H235.292V72H236.292V71ZM229.261 55.1797H228.261V56.1797H229.261V55.1797ZM236.292 55.1797V56.1797H237.292V55.1797H236.292ZM236.292 53.4219H237.292V52.4219H236.292V53.4219ZM229.261 53.4219V52.4219H228.261V53.4219H229.261ZM236.292 61.2109H229.261V63.2109H236.292V61.2109ZM228.261 62.2109V71H230.261V62.2109H228.261ZM229.261 70H222.229V72H229.261V70ZM223.229 71V46.3906H221.229V71H223.229ZM222.229 47.3906H243.323V45.3906H222.229V47.3906ZM242.323 46.3906V71H244.323V46.3906H242.323ZM243.323 70H236.292V72H243.323V70ZM237.292 71V62.2109H235.292V71H237.292ZM229.261 56.1797H236.292V54.1797H229.261V56.1797ZM237.292 55.1797V53.4219H235.292V55.1797H237.292ZM236.292 52.4219H229.261V54.4219H236.292V52.4219ZM228.261 53.4219V55.1797H230.261V53.4219H228.261ZM268.335 46.3906L269.305 46.6332L269.615 45.3906H268.335V46.3906ZM266.577 53.4219V54.4219H267.358L267.547 53.6644L266.577 53.4219ZM260.425 53.4219V52.4219H259.425V53.4219H260.425ZM260.425 71V72H261.425V71H260.425ZM253.393 71H252.393V72H253.393V71ZM253.393 53.4219H254.393V52.4219H253.393V53.4219ZM247.241 53.4219H246.241V54.4219H247.241V53.4219ZM247.241 46.3906V45.3906H246.241V46.3906H247.241ZM267.365 46.1481L265.607 53.1793L267.547 53.6644L269.305 46.6332L267.365 46.1481ZM266.577 52.4219H260.425V54.4219H266.577V52.4219ZM259.425 53.4219V71H261.425V53.4219H259.425ZM260.425 70H253.393V72H260.425V70ZM254.393 71V53.4219H252.393V71H254.393ZM253.393 52.4219H247.241V54.4219H253.393V52.4219ZM248.241 53.4219V46.3906H246.241V53.4219H248.241ZM247.241 47.3906H268.335V45.3906H247.241V47.3906ZM270.495 46.3906V45.3906H269.495V46.3906H270.495ZM277.526 46.3906H278.526V45.3906H277.526V46.3906ZM277.526 55.1797H276.526V56.1797H277.526V55.1797ZM284.557 55.1797V56.1797H285.557V55.1797H284.557ZM284.557 46.3906V45.3906H283.557V46.3906H284.557ZM291.588 46.3906H292.588V45.3906H291.588V46.3906ZM291.588 71V72H292.588V71H291.588ZM284.557 71H283.557V72H284.557V71ZM284.557 62.2109H285.557V61.2109H284.557V62.2109ZM277.526 62.2109V61.2109H276.526V62.2109H277.526ZM277.526 71V72H278.526V71H277.526ZM270.495 71H269.495V72H270.495V71ZM270.495 47.3906H277.526V45.3906H270.495V47.3906ZM276.526 46.3906V55.1797H278.526V46.3906H276.526ZM277.526 56.1797H284.557V54.1797H277.526V56.1797ZM285.557 55.1797V46.3906H283.557V55.1797H285.557ZM284.557 47.3906H291.588V45.3906H284.557V47.3906ZM290.588 46.3906V71H292.588V46.3906H290.588ZM291.588 70H284.557V72H291.588V70ZM285.557 71V62.2109H283.557V71H285.557ZM284.557 61.2109H277.526V63.2109H284.557V61.2109ZM276.526 62.2109V71H278.526V62.2109H276.526ZM277.526 70H270.495V72H277.526V70ZM271.495 71V46.3906H269.495V71H271.495ZM309.569 62.2109H310.569V61.2109H309.569V62.2109ZM302.538 62.2109V61.2109H301.538V62.2109H302.538ZM302.538 71V72H303.538V71H302.538ZM295.506 71H294.506V72H295.506V71ZM295.506 46.3906V45.3906H294.506V46.3906H295.506ZM316.6 46.3906H317.6V45.3906H316.6V46.3906ZM316.6 71V72H317.6V71H316.6ZM309.569 71H308.569V72H309.569V71ZM302.538 55.1797H301.538V56.1797H302.538V55.1797ZM309.569 55.1797V56.1797H310.569V55.1797H309.569ZM309.569 53.4219H310.569V52.4219H309.569V53.4219ZM302.538 53.4219V52.4219H301.538V53.4219H302.538ZM309.569 61.2109H302.538V63.2109H309.569V61.2109ZM301.538 62.2109V71H303.538V62.2109H301.538ZM302.538 70H295.506V72H302.538V70ZM296.506 71V46.3906H294.506V71H296.506ZM295.506 47.3906H316.6V45.3906H295.506V47.3906ZM315.6 46.3906V71H317.6V46.3906H315.6ZM316.6 70H309.569V72H316.6V70ZM310.569 71V62.2109H308.569V71H310.569ZM302.538 56.1797H309.569V54.1797H302.538V56.1797ZM310.569 55.1797V53.4219H308.569V55.1797H310.569ZM309.569 52.4219H302.538V54.4219H309.569V52.4219ZM301.538 53.4219V55.1797H303.538V53.4219H301.538ZM345.127 71V72H346.127V71H345.127ZM338.096 71H337.096V72H338.096V71ZM338.096 53.4219H339.096V52.4219H338.096V53.4219ZM336.338 53.4219V52.4219H335.338V53.4219H336.338ZM336.338 71V72H337.338V71H336.338ZM329.307 71H328.307V72H329.307V71ZM329.307 53.4219H330.307V52.4219H329.307V53.4219ZM327.549 53.4219V52.4219H326.549V53.4219H327.549ZM327.549 71V72H328.549V71H327.549ZM320.518 71H319.518V72H320.518V71ZM320.518 46.3906V45.3906H319.518V46.3906H320.518ZM345.127 46.3906H346.127V45.3906H345.127V46.3906ZM345.127 70H338.096V72H345.127V70ZM339.096 71V53.4219H337.096V71H339.096ZM338.096 52.4219H336.338V54.4219H338.096V52.4219ZM335.338 53.4219V71H337.338V53.4219H335.338ZM336.338 70H329.307V72H336.338V70ZM330.307 71V53.4219H328.307V71H330.307ZM329.307 52.4219H327.549V54.4219H329.307V52.4219ZM326.549 53.4219V71H328.549V53.4219H326.549ZM327.549 70H320.518V72H327.549V70ZM321.518 71V46.3906H319.518V71H321.518ZM320.518 47.3906H345.127V45.3906H320.518V47.3906ZM344.127 46.3906V71H346.127V46.3906H344.127Z" fill="#34FF00" mask="url(#path-11-inside-1_63_633)"/>
</svg>
