<svg width="523" height="121" viewBox="0 0 523 121" fill="none" xmlns="http://www.w3.org/2000/svg">
<path d="M516.212 3.72282L471.586 46.3859C469.526 48.3551 469.526 51.6449 471.586 53.6141L516.212 96.2772C516.864 96.9003 516.422 98 515.521 98H2.99999C2.44771 98 2 97.5523 2 97V3C2 2.44772 2.44771 2 3 2H261.5H515.521C516.422 2 516.864 3.09967 516.212 3.72282Z" fill="white" stroke="#FFB800" stroke-width="4"/>
<path d="M516.212 23.7228L471.586 66.3859C469.526 68.3551 469.526 71.6449 471.586 73.6141L516.212 116.277C516.864 116.9 516.422 118 515.521 118H2.99999C2.44771 118 2 117.552 2 117V23C2 22.4477 2.44771 22 3 22H261.5H515.521C516.422 22 516.864 23.0997 516.212 23.7228Z" fill="black" stroke="white" stroke-width="4"/>
<path d="M516.212 13.7228L471.586 56.3859C469.526 58.3551 469.526 61.6449 471.586 63.6141L516.212 106.277C516.864 106.9 516.422 108 515.521 108H2.99999C2.44771 108 2 107.552 2 107V13C2 12.4477 2.44771 12 3 12H261.5H515.521C516.422 12 516.864 13.0997 516.212 13.7228Z" fill="#E7E7E7" stroke="#76FF03" stroke-width="4"/>
<line x1="10" y1="23" x2="30" y2="23" stroke="#FFB800" stroke-width="4"/>
<line x1="12" y1="22" x2="12" y2="97" stroke="#FFB800" stroke-width="4"/>
<line x1="10" y1="98" x2="30" y2="98" stroke="#FFB800" stroke-width="4"/>
<line y1="-2" x2="51.1629" y2="-2" transform="matrix(0.722822 -0.691035 0.722822 0.691035 463.378 55.3553)" stroke="#FFB800" stroke-width="4"/>
<line x1="452.918" y1="53" x2="463.378" y2="53" stroke="#FFB800" stroke-width="4"/>
<line x1="452.918" y1="66" x2="463.378" y2="66" stroke="#FFB800" stroke-width="4"/>
<line y1="-2" x2="51.1629" y2="-2" transform="matrix(0.722822 0.691034 -0.722822 0.691034 460.24 67)" stroke="#FFB800" stroke-width="4"/>
<path d="M69.1211 71L70.8789 63.9688H82.3047V46.3906H89.3359V71H69.1211ZM112.188 46.3906L110.43 53.4219H98.125V55.1797H110.43V71H89.3359L91.0938 63.9688H103.398V62.2109H91.0938V46.3906H112.188ZM126.25 53.4219H119.219V63.9688H126.25V53.4219ZM133.281 46.3906V71H112.188V46.3906H133.281ZM156.133 71H149.102V53.4219H142.07V71H135.039V46.3906H156.133V71ZM186.016 46.3906L184.258 53.4219H171.953V55.1797H184.258V71H163.164L164.922 63.9688H177.227V62.2109H164.922V46.3906H186.016ZM200.078 53.4219H193.047V63.9688H200.078V53.4219ZM207.109 46.3906V71H186.016V46.3906H207.109ZM229.961 71H222.93V53.4219H215.898V71H208.867V46.3906H229.961V71ZM252.812 53.4219H245.781V63.9688H252.812V53.4219ZM259.844 46.3906V71H238.75V46.3906H259.844ZM282.695 46.3906L280.938 53.4219H268.633V55.1797H280.938L279.18 62.2109H268.633V71H261.602V46.3906H282.695ZM303.789 62.2109H296.758V71H289.727V46.3906H310.82V71H303.789V62.2109ZM296.758 55.1797H303.789V53.4219H296.758V55.1797ZM333.672 46.3906L331.914 53.4219H319.609V55.1797H331.914L330.156 62.2109H319.609V63.9688H333.672L331.914 71H312.578V46.3906H333.672ZM354.766 46.3906L353.008 53.4219H340.703V55.1797H353.008V71H331.914L333.672 63.9688H345.977V62.2109H333.672V46.3906H354.766ZM368.828 53.4219H361.797V63.9688H368.828V53.4219ZM375.859 46.3906V71H354.766V46.3906H375.859ZM398.711 71H391.68V53.4219H384.648V71H377.617V46.3906H398.711V71Z" fill="black"/>
</svg>
