<svg width="540" height="121" viewBox="0 0 540 121" fill="none" xmlns="http://www.w3.org/2000/svg">
<path d="M533.024 3.73376L487.019 46.3312C484.881 48.3102 484.881 51.6898 487.019 53.6688L533.024 96.2662C533.691 96.8842 533.254 98 532.344 98H3.00001C2.44772 98 2 97.5523 2 97V3C2 2.44772 2.44771 2 3 2H270H532.344C533.254 2 533.691 3.1158 533.024 3.73376Z" fill="white" stroke="#FFB800" stroke-width="4"/>
<path d="M533.024 23.7338L487.019 66.3312C484.881 68.3102 484.881 71.6898 487.019 73.6688L533.024 116.266C533.691 116.884 533.254 118 532.344 118H3.00001C2.44772 118 2 117.552 2 117V23C2 22.4477 2.44771 22 3 22H270H532.344C533.254 22 533.691 23.1158 533.024 23.7338Z" fill="black" stroke="white" stroke-width="4"/>
<path d="M533.024 13.7338L487.019 56.3312C484.881 58.3102 484.881 61.6898 487.019 63.6688L533.024 106.266C533.691 106.884 533.254 108 532.344 108H3.00001C2.44772 108 2 107.552 2 107V13C2 12.4477 2.44771 12 3 12H270H532.344C533.254 12 533.691 13.1158 533.024 13.7338Z" fill="#E7E7E7" stroke="#76FF03" stroke-width="4"/>
<line x1="10" y1="23" x2="30" y2="23" stroke="#FFB800" stroke-width="4"/>
<line x1="12" y1="22" x2="12" y2="97" stroke="#FFB800" stroke-width="4"/>
<line x1="10" y1="98" x2="30" y2="98" stroke="#FFB800" stroke-width="4"/>
<line y1="-2" x2="52.0385" y2="-2" transform="matrix(0.733761 -0.679408 0.733761 0.679408 478.44 55.3553)" stroke="#FFB800" stroke-width="4"/>
<line x1="467.64" y1="53" x2="478.44" y2="53" stroke="#FFB800" stroke-width="4"/>
<line x1="467.64" y1="66" x2="478.44" y2="66" stroke="#FFB800" stroke-width="4"/>
<line y1="-2" x2="52.0385" y2="-2" transform="matrix(0.733761 0.679408 -0.733761 0.679408 475.2 67)" stroke="#FFB800" stroke-width="4"/>
<path d="M69.1211 71L70.8789 63.9688H82.3047V46.3906H89.3359V71H69.1211ZM112.188 46.3906L110.43 53.4219H98.125V55.1797H110.43V71H89.3359L91.0938 63.9688H103.398V62.2109H91.0938V46.3906H112.188ZM126.25 53.4219H119.219V63.9688H126.25V53.4219ZM133.281 46.3906V71H112.188V46.3906H133.281ZM156.133 71H149.102V53.4219H142.07V71H135.039V46.3906H156.133V71ZM186.016 46.3906L184.258 53.4219H171.953V55.1797H184.258V71H163.164L164.922 63.9688H177.227V62.2109H164.922V46.3906H186.016ZM207.109 46.3906L205.352 53.4219H193.047V63.9688H207.109L205.352 71H186.016V46.3906H207.109ZM207.109 46.3906H214.141V55.1797H221.172V46.3906H228.203V71H221.172V62.2109H214.141V71H207.109V46.3906ZM229.961 46.3906H236.992V63.9688H238.75V46.3906H245.781V63.9688H247.539V46.3906H254.57V71H229.961V46.3906ZM270.391 62.2109H263.359V71H256.328V46.3906H277.422V71H270.391V62.2109ZM263.359 55.1797H270.391V53.4219H263.359V55.1797ZM293.242 53.4219H286.211V55.1797H293.242V53.4219ZM300.273 46.3906V62.2109H296.389L301.434 71H293.523L286.211 58.2383V71H279.18V46.3906H300.273ZM323.125 46.3906L321.367 53.4219H315.215V71H308.184V53.4219H302.031V46.3906H323.125ZM335.43 53.4219H323.125V46.3906H342.461V62.2109H330.156V63.9688H342.461V71H323.125V55.1797H335.43V53.4219ZM368.828 71H361.797V53.4219H360.039V71H353.008V53.4219H351.25V71H344.219V46.3906H368.828V71ZM384.648 62.2109H377.617V71H370.586V46.3906H391.68V71H384.648V62.2109ZM377.617 55.1797H384.648V53.4219H377.617V55.1797ZM414.531 71H407.5V53.4219H400.469V71H393.438V46.3906H414.531V71Z" fill="black"/>
</svg>
