<svg width="485" height="121" viewBox="0 0 485 121" fill="none" xmlns="http://www.w3.org/2000/svg">
<path d="M478.987 4.04439L437.449 46.8668C435.756 48.6125 435.756 51.3875 437.449 53.1332L478.987 95.9556C479.91 96.907 479.236 98.5 477.911 98.5H3.00001C2.17158 98.5 1.5 97.8284 1.5 97V3C1.5 2.17157 2.17157 1.5 3 1.5H242.5H477.911C479.236 1.5 479.91 3.09304 478.987 4.04439Z" fill="white" fill-opacity="0.8" stroke="#FFB800" stroke-width="3"/>
<path d="M478.987 24.0444L437.449 66.8668C435.756 68.6125 435.756 71.3875 437.449 73.1332L478.987 115.956C479.91 116.907 479.236 118.5 477.911 118.5H3.00001C2.17158 118.5 1.5 117.828 1.5 117V23C1.5 22.1716 2.17157 21.5 3 21.5H242.5H477.911C479.236 21.5 479.91 23.093 478.987 24.0444Z" fill="black" fill-opacity="0.6" stroke="white" stroke-width="3"/>
<path d="M478.987 14.0444L437.449 56.8668C435.756 58.6125 435.756 61.3875 437.449 63.1332L478.987 105.956C479.91 106.907 479.236 108.5 477.911 108.5H3.00001C2.17158 108.5 1.5 107.828 1.5 107V13C1.5 12.1716 2.17157 11.5 3 11.5H242.5H477.911C479.236 11.5 479.91 13.093 478.987 14.0444Z" fill="#E7E7E7" fill-opacity="0.7" stroke="#76FF03" stroke-width="3"/>
<line x1="10" y1="23.5" x2="30" y2="23.5" stroke="#FFB800" stroke-width="3"/>
<line x1="11.5" y1="22" x2="11.5" y2="97" stroke="#FFB800" stroke-width="3"/>
<line x1="10" y1="98.5" x2="30" y2="98.5" stroke="#FFB800" stroke-width="3"/>
<line y1="-1.5" x2="49.2557" y2="-1.5" transform="matrix(0.696258 -0.717792 0.696258 0.717792 429.71 55.3553)" stroke="#FFB800" stroke-width="3"/>
<line x1="420.01" y1="53.5" x2="429.71" y2="53.5" stroke="#FFB800" stroke-width="3"/>
<line x1="420.01" y1="66.5" x2="429.71" y2="66.5" stroke="#FFB800" stroke-width="3"/>
<line y1="-1.5" x2="49.2557" y2="-1.5" transform="matrix(0.696258 0.717792 -0.696258 0.717792 426.8 67)" stroke="#FFB800" stroke-width="3"/>
<mask id="path-11-inside-1_63_477" fill="white">
<path d="M69.1211 71L70.8789 63.9688H82.3047V46.3906H89.3359V71H69.1211ZM114.347 46.3906L112.59 53.4219H100.285V55.1797H112.59V71H91.4959L93.2537 63.9688H105.558V62.2109H93.2537V46.3906H114.347ZM130.57 53.4219H123.539V63.9688H130.57V53.4219ZM137.601 46.3906V71H116.507V46.3906H137.601ZM162.613 71H155.582V53.4219H148.55V71H141.519V46.3906H162.613V71ZM196.816 46.3906L195.058 53.4219H182.753V63.9688H196.816L195.058 71H175.722V46.3906H196.816ZM213.038 62.2109H206.007V71H198.976V46.3906H220.069V71H213.038V62.2109ZM206.007 55.1797H213.038V53.4219H206.007V55.1797ZM231.018 63.9688H245.081L243.323 71H223.987V46.3906H231.018V63.9688ZM261.303 62.2109H254.272V71H247.241V46.3906H268.335V71H261.303V62.2109ZM254.272 55.1797H261.303V53.4219H254.272V55.1797ZM293.346 46.3906L291.588 53.4219H279.284V63.9688H293.346L291.588 71H272.253V46.3906H293.346ZM309.569 62.2109H302.538V71H295.506V46.3906H316.6V71H309.569V62.2109ZM302.538 55.1797H309.569V53.4219H302.538V55.1797ZM341.612 71H334.58V53.4219H327.549V71H320.518V46.3906H341.612V71ZM345.529 46.3906H352.561V71H345.529V46.3906ZM377.572 46.3906L375.814 53.4219H363.51V55.1797H375.814V71H354.721L356.478 63.9688H368.783V62.2109H356.478V46.3906H377.572Z"/>
</mask>
<path d="M69.1211 71L70.8789 63.9688H82.3047V46.3906H89.3359V71H69.1211ZM114.347 46.3906L112.59 53.4219H100.285V55.1797H112.59V71H91.4959L93.2537 63.9688H105.558V62.2109H93.2537V46.3906H114.347ZM130.57 53.4219H123.539V63.9688H130.57V53.4219ZM137.601 46.3906V71H116.507V46.3906H137.601ZM162.613 71H155.582V53.4219H148.55V71H141.519V46.3906H162.613V71ZM196.816 46.3906L195.058 53.4219H182.753V63.9688H196.816L195.058 71H175.722V46.3906H196.816ZM213.038 62.2109H206.007V71H198.976V46.3906H220.069V71H213.038V62.2109ZM206.007 55.1797H213.038V53.4219H206.007V55.1797ZM231.018 63.9688H245.081L243.323 71H223.987V46.3906H231.018V63.9688ZM261.303 62.2109H254.272V71H247.241V46.3906H268.335V71H261.303V62.2109ZM254.272 55.1797H261.303V53.4219H254.272V55.1797ZM293.346 46.3906L291.588 53.4219H279.284V63.9688H293.346L291.588 71H272.253V46.3906H293.346ZM309.569 62.2109H302.538V71H295.506V46.3906H316.6V71H309.569V62.2109ZM302.538 55.1797H309.569V53.4219H302.538V55.1797ZM341.612 71H334.58V53.4219H327.549V71H320.518V46.3906H341.612V71ZM345.529 46.3906H352.561V71H345.529V46.3906ZM377.572 46.3906L375.814 53.4219H363.51V55.1797H375.814V71H354.721L356.478 63.9688H368.783V62.2109H356.478V46.3906H377.572Z" fill="white" fill-opacity="0.85"/>
<path d="M69.1211 71L68.151 70.7575L67.8403 72H69.1211V71ZM70.8789 63.9688V62.9688H70.0981L69.9088 63.7262L70.8789 63.9688ZM82.3047 63.9688V64.9688H83.3047V63.9688H82.3047ZM82.3047 46.3906V45.3906H81.3047V46.3906H82.3047ZM89.3359 46.3906H90.3359V45.3906H89.3359V46.3906ZM89.3359 71V72H90.3359V71H89.3359ZM70.0912 71.2425L71.849 64.2113L69.9088 63.7262L68.151 70.7575L70.0912 71.2425ZM70.8789 64.9688H82.3047V62.9688H70.8789V64.9688ZM83.3047 63.9688V46.3906H81.3047V63.9688H83.3047ZM82.3047 47.3906H89.3359V45.3906H82.3047V47.3906ZM88.3359 46.3906V71H90.3359V46.3906H88.3359ZM89.3359 70H69.1211V72H89.3359V70ZM114.347 46.3906L115.318 46.6332L115.628 45.3906H114.347V46.3906ZM112.59 53.4219V54.4219H113.37L113.56 53.6644L112.59 53.4219ZM100.285 53.4219V52.4219H99.285V53.4219H100.285ZM100.285 55.1797H99.285V56.1797H100.285V55.1797ZM112.59 55.1797H113.59V54.1797H112.59V55.1797ZM112.59 71V72H113.59V71H112.59ZM91.4959 71L90.5258 70.7575L90.2152 72H91.4959V71ZM93.2537 63.9688V62.9688H92.473L92.2836 63.7262L93.2537 63.9688ZM105.558 63.9688V64.9688H106.558V63.9688H105.558ZM105.558 62.2109H106.558V61.2109H105.558V62.2109ZM93.2537 62.2109H92.2537V63.2109H93.2537V62.2109ZM93.2537 46.3906V45.3906H92.2537V46.3906H93.2537ZM113.377 46.1481L111.62 53.1793L113.56 53.6644L115.318 46.6332L113.377 46.1481ZM112.59 52.4219H100.285V54.4219H112.59V52.4219ZM99.285 53.4219V55.1797H101.285V53.4219H99.285ZM100.285 56.1797H112.59V54.1797H100.285V56.1797ZM111.59 55.1797V71H113.59V55.1797H111.59ZM112.59 70H91.4959V72H112.59V70ZM92.4661 71.2425L94.2239 64.2113L92.2836 63.7262L90.5258 70.7575L92.4661 71.2425ZM93.2537 64.9688H105.558V62.9688H93.2537V64.9688ZM106.558 63.9688V62.2109H104.558V63.9688H106.558ZM105.558 61.2109H93.2537V63.2109H105.558V61.2109ZM94.2537 62.2109V46.3906H92.2537V62.2109H94.2537ZM93.2537 47.3906H114.347V45.3906H93.2537V47.3906ZM130.57 53.4219H131.57V52.4219H130.57V53.4219ZM123.539 53.4219V52.4219H122.539V53.4219H123.539ZM123.539 63.9688H122.539V64.9688H123.539V63.9688ZM130.57 63.9688V64.9688H131.57V63.9688H130.57ZM137.601 46.3906H138.601V45.3906H137.601V46.3906ZM137.601 71V72H138.601V71H137.601ZM116.507 71H115.507V72H116.507V71ZM116.507 46.3906V45.3906H115.507V46.3906H116.507ZM130.57 52.4219H123.539V54.4219H130.57V52.4219ZM122.539 53.4219V63.9688H124.539V53.4219H122.539ZM123.539 64.9688H130.57V62.9688H123.539V64.9688ZM131.57 63.9688V53.4219H129.57V63.9688H131.57ZM136.601 46.3906V71H138.601V46.3906H136.601ZM137.601 70H116.507V72H137.601V70ZM117.507 71V46.3906H115.507V71H117.507ZM116.507 47.3906H137.601V45.3906H116.507V47.3906ZM162.613 71V72H163.613V71H162.613ZM155.582 71H154.582V72H155.582V71ZM155.582 53.4219H156.582V52.4219H155.582V53.4219ZM148.55 53.4219V52.4219H147.55V53.4219H148.55ZM148.55 71V72H149.55V71H148.55ZM141.519 71H140.519V72H141.519V71ZM141.519 46.3906V45.3906H140.519V46.3906H141.519ZM162.613 46.3906H163.613V45.3906H162.613V46.3906ZM162.613 70H155.582V72H162.613V70ZM156.582 71V53.4219H154.582V71H156.582ZM155.582 52.4219H148.55V54.4219H155.582V52.4219ZM147.55 53.4219V71H149.55V53.4219H147.55ZM148.55 70H141.519V72H148.55V70ZM142.519 71V46.3906H140.519V71H142.519ZM141.519 47.3906H162.613V45.3906H141.519V47.3906ZM161.613 46.3906V71H163.613V46.3906H161.613ZM196.816 46.3906L197.786 46.6332L198.096 45.3906H196.816V46.3906ZM195.058 53.4219V54.4219H195.839L196.028 53.6644L195.058 53.4219ZM182.753 53.4219V52.4219H181.753V53.4219H182.753ZM182.753 63.9688H181.753V64.9688H182.753V63.9688ZM196.816 63.9688L197.786 64.2113L198.096 62.9688H196.816V63.9688ZM195.058 71V72H195.839L196.028 71.2425L195.058 71ZM175.722 71H174.722V72H175.722V71ZM175.722 46.3906V45.3906H174.722V46.3906H175.722ZM195.845 46.1481L194.088 53.1793L196.028 53.6644L197.786 46.6332L195.845 46.1481ZM195.058 52.4219H182.753V54.4219H195.058V52.4219ZM181.753 53.4219V63.9688H183.753V53.4219H181.753ZM182.753 64.9688H196.816V62.9688H182.753V64.9688ZM195.845 63.7262L194.088 70.7575L196.028 71.2425L197.786 64.2113L195.845 63.7262ZM195.058 70H175.722V72H195.058V70ZM176.722 71V46.3906H174.722V71H176.722ZM175.722 47.3906H196.816V45.3906H175.722V47.3906ZM213.038 62.2109H214.038V61.2109H213.038V62.2109ZM206.007 62.2109V61.2109H205.007V62.2109H206.007ZM206.007 71V72H207.007V71H206.007ZM198.976 71H197.976V72H198.976V71ZM198.976 46.3906V45.3906H197.976V46.3906H198.976ZM220.069 46.3906H221.069V45.3906H220.069V46.3906ZM220.069 71V72H221.069V71H220.069ZM213.038 71H212.038V72H213.038V71ZM206.007 55.1797H205.007V56.1797H206.007V55.1797ZM213.038 55.1797V56.1797H214.038V55.1797H213.038ZM213.038 53.4219H214.038V52.4219H213.038V53.4219ZM206.007 53.4219V52.4219H205.007V53.4219H206.007ZM213.038 61.2109H206.007V63.2109H213.038V61.2109ZM205.007 62.2109V71H207.007V62.2109H205.007ZM206.007 70H198.976V72H206.007V70ZM199.976 71V46.3906H197.976V71H199.976ZM198.976 47.3906H220.069V45.3906H198.976V47.3906ZM219.069 46.3906V71H221.069V46.3906H219.069ZM220.069 70H213.038V72H220.069V70ZM214.038 71V62.2109H212.038V71H214.038ZM206.007 56.1797H213.038V54.1797H206.007V56.1797ZM214.038 55.1797V53.4219H212.038V55.1797H214.038ZM213.038 52.4219H206.007V54.4219H213.038V52.4219ZM205.007 53.4219V55.1797H207.007V53.4219H205.007ZM231.018 63.9688H230.018V64.9688H231.018V63.9688ZM245.081 63.9688L246.051 64.2113L246.362 62.9688H245.081V63.9688ZM243.323 71V72H244.104L244.293 71.2425L243.323 71ZM223.987 71H222.987V72H223.987V71ZM223.987 46.3906V45.3906H222.987V46.3906H223.987ZM231.018 46.3906H232.018V45.3906H231.018V46.3906ZM231.018 64.9688H245.081V62.9688H231.018V64.9688ZM244.111 63.7262L242.353 70.7575L244.293 71.2425L246.051 64.2113L244.111 63.7262ZM243.323 70H223.987V72H243.323V70ZM224.987 71V46.3906H222.987V71H224.987ZM223.987 47.3906H231.018V45.3906H223.987V47.3906ZM230.018 46.3906V63.9688H232.018V46.3906H230.018ZM261.303 62.2109H262.303V61.2109H261.303V62.2109ZM254.272 62.2109V61.2109H253.272V62.2109H254.272ZM254.272 71V72H255.272V71H254.272ZM247.241 71H246.241V72H247.241V71ZM247.241 46.3906V45.3906H246.241V46.3906H247.241ZM268.335 46.3906H269.335V45.3906H268.335V46.3906ZM268.335 71V72H269.335V71H268.335ZM261.303 71H260.303V72H261.303V71ZM254.272 55.1797H253.272V56.1797H254.272V55.1797ZM261.303 55.1797V56.1797H262.303V55.1797H261.303ZM261.303 53.4219H262.303V52.4219H261.303V53.4219ZM254.272 53.4219V52.4219H253.272V53.4219H254.272ZM261.303 61.2109H254.272V63.2109H261.303V61.2109ZM253.272 62.2109V71H255.272V62.2109H253.272ZM254.272 70H247.241V72H254.272V70ZM248.241 71V46.3906H246.241V71H248.241ZM247.241 47.3906H268.335V45.3906H247.241V47.3906ZM267.335 46.3906V71H269.335V46.3906H267.335ZM268.335 70H261.303V72H268.335V70ZM262.303 71V62.2109H260.303V71H262.303ZM254.272 56.1797H261.303V54.1797H254.272V56.1797ZM262.303 55.1797V53.4219H260.303V55.1797H262.303ZM261.303 52.4219H254.272V54.4219H261.303V52.4219ZM253.272 53.4219V55.1797H255.272V53.4219H253.272ZM293.346 46.3906L294.316 46.6332L294.627 45.3906H293.346V46.3906ZM291.588 53.4219V54.4219H292.369L292.559 53.6644L291.588 53.4219ZM279.284 53.4219V52.4219H278.284V53.4219H279.284ZM279.284 63.9688H278.284V64.9688H279.284V63.9688ZM293.346 63.9688L294.316 64.2113L294.627 62.9688H293.346V63.9688ZM291.588 71V72H292.369L292.559 71.2425L291.588 71ZM272.253 71H271.253V72H272.253V71ZM272.253 46.3906V45.3906H271.253V46.3906H272.253ZM292.376 46.1481L290.618 53.1793L292.559 53.6644L294.316 46.6332L292.376 46.1481ZM291.588 52.4219H279.284V54.4219H291.588V52.4219ZM278.284 53.4219V63.9688H280.284V53.4219H278.284ZM279.284 64.9688H293.346V62.9688H279.284V64.9688ZM292.376 63.7262L290.618 70.7575L292.559 71.2425L294.316 64.2113L292.376 63.7262ZM291.588 70H272.253V72H291.588V70ZM273.253 71V46.3906H271.253V71H273.253ZM272.253 47.3906H293.346V45.3906H272.253V47.3906ZM309.569 62.2109H310.569V61.2109H309.569V62.2109ZM302.538 62.2109V61.2109H301.538V62.2109H302.538ZM302.538 71V72H303.538V71H302.538ZM295.506 71H294.506V72H295.506V71ZM295.506 46.3906V45.3906H294.506V46.3906H295.506ZM316.6 46.3906H317.6V45.3906H316.6V46.3906ZM316.6 71V72H317.6V71H316.6ZM309.569 71H308.569V72H309.569V71ZM302.538 55.1797H301.538V56.1797H302.538V55.1797ZM309.569 55.1797V56.1797H310.569V55.1797H309.569ZM309.569 53.4219H310.569V52.4219H309.569V53.4219ZM302.538 53.4219V52.4219H301.538V53.4219H302.538ZM309.569 61.2109H302.538V63.2109H309.569V61.2109ZM301.538 62.2109V71H303.538V62.2109H301.538ZM302.538 70H295.506V72H302.538V70ZM296.506 71V46.3906H294.506V71H296.506ZM295.506 47.3906H316.6V45.3906H295.506V47.3906ZM315.6 46.3906V71H317.6V46.3906H315.6ZM316.6 70H309.569V72H316.6V70ZM310.569 71V62.2109H308.569V71H310.569ZM302.538 56.1797H309.569V54.1797H302.538V56.1797ZM310.569 55.1797V53.4219H308.569V55.1797H310.569ZM309.569 52.4219H302.538V54.4219H309.569V52.4219ZM301.538 53.4219V55.1797H303.538V53.4219H301.538ZM341.612 71V72H342.612V71H341.612ZM334.58 71H333.58V72H334.58V71ZM334.58 53.4219H335.58V52.4219H334.58V53.4219ZM327.549 53.4219V52.4219H326.549V53.4219H327.549ZM327.549 71V72H328.549V71H327.549ZM320.518 71H319.518V72H320.518V71ZM320.518 46.3906V45.3906H319.518V46.3906H320.518ZM341.612 46.3906H342.612V45.3906H341.612V46.3906ZM341.612 70H334.58V72H341.612V70ZM335.58 71V53.4219H333.58V71H335.58ZM334.58 52.4219H327.549V54.4219H334.58V52.4219ZM326.549 53.4219V71H328.549V53.4219H326.549ZM327.549 70H320.518V72H327.549V70ZM321.518 71V46.3906H319.518V71H321.518ZM320.518 47.3906H341.612V45.3906H320.518V47.3906ZM340.612 46.3906V71H342.612V46.3906H340.612ZM345.529 46.3906V45.3906H344.529V46.3906H345.529ZM352.561 46.3906H353.561V45.3906H352.561V46.3906ZM352.561 71V72H353.561V71H352.561ZM345.529 71H344.529V72H345.529V71ZM345.529 47.3906H352.561V45.3906H345.529V47.3906ZM351.561 46.3906V71H353.561V46.3906H351.561ZM352.561 70H345.529V72H352.561V70ZM346.529 71V46.3906H344.529V71H346.529ZM377.572 46.3906L378.542 46.6332L378.853 45.3906H377.572V46.3906ZM375.814 53.4219V54.4219H376.595L376.785 53.6644L375.814 53.4219ZM363.51 53.4219V52.4219H362.51V53.4219H363.51ZM363.51 55.1797H362.51V56.1797H363.51V55.1797ZM375.814 55.1797H376.814V54.1797H375.814V55.1797ZM375.814 71V72H376.814V71H375.814ZM354.721 71L353.75 70.7575L353.44 72H354.721V71ZM356.478 63.9688V62.9688H355.698L355.508 63.7262L356.478 63.9688ZM368.783 63.9688V64.9688H369.783V63.9688H368.783ZM368.783 62.2109H369.783V61.2109H368.783V62.2109ZM356.478 62.2109H355.478V63.2109H356.478V62.2109ZM356.478 46.3906V45.3906H355.478V46.3906H356.478ZM376.602 46.1481L374.844 53.1793L376.785 53.6644L378.542 46.6332L376.602 46.1481ZM375.814 52.4219H363.51V54.4219H375.814V52.4219ZM362.51 53.4219V55.1797H364.51V53.4219H362.51ZM363.51 56.1797H375.814V54.1797H363.51V56.1797ZM374.814 55.1797V71H376.814V55.1797H374.814ZM375.814 70H354.721V72H375.814V70ZM355.691 71.2425L357.449 64.2113L355.508 63.7262L353.75 70.7575L355.691 71.2425ZM356.478 64.9688H368.783V62.9688H356.478V64.9688ZM369.783 63.9688V62.2109H367.783V63.9688H369.783ZM368.783 61.2109H356.478V63.2109H368.783V61.2109ZM357.478 62.2109V46.3906H355.478V62.2109H357.478ZM356.478 47.3906H377.572V45.3906H356.478V47.3906Z" fill="#34FF00" mask="url(#path-11-inside-1_63_477)"/>
</svg>
