<svg width="381" height="121" viewBox="0 0 381 121" fill="none" xmlns="http://www.w3.org/2000/svg">
<path d="M375.738 3.60609L342.695 46.9695C341.331 48.7596 341.331 51.2404 342.695 53.0305L375.738 96.3939C376.239 97.0521 375.77 98 374.942 98H3C2.44772 98 2 97.5523 2 97V3C2 2.44772 2.44771 2 3 2H190.5H374.942C375.77 2 376.239 2.94785 375.738 3.60609Z" fill="white" stroke="#FFB800" stroke-width="4"/>
<path d="M375.738 23.6061L342.695 66.9695C341.331 68.7596 341.331 71.2404 342.695 73.0305L375.738 116.394C376.239 117.052 375.77 118 374.942 118H3C2.44772 118 2 117.552 2 117V23C2 22.4477 2.44771 22 3 22H190.5H374.942C375.77 22 376.239 22.9479 375.738 23.6061Z" fill="black" stroke="white" stroke-width="4"/>
<path d="M375.738 13.6061L342.695 56.9695C341.331 58.7596 341.331 61.2404 342.695 63.0305L375.738 106.394C376.239 107.052 375.77 108 374.942 108H3C2.44772 108 2 107.552 2 107V13C2 12.4477 2.44771 12 3 12H190.5H374.942C375.77 12 376.239 12.9479 375.738 13.6061Z" fill="#E7E7E7" stroke="#76FF03" stroke-width="4"/>
<line x1="10" y1="23" x2="30" y2="23" stroke="#FFB800" stroke-width="4"/>
<line x1="12" y1="22" x2="12" y2="97" stroke="#FFB800" stroke-width="4"/>
<line x1="10" y1="98" x2="30" y2="98" stroke="#FFB800" stroke-width="4"/>
<line y1="-2" x2="44.45" y2="-2" transform="matrix(0.606091 -0.795395 0.606091 0.795395 337.566 55.3555)" stroke="#FFB800" stroke-width="4"/>
<line x1="329.946" y1="53" x2="337.566" y2="53" stroke="#FFB800" stroke-width="4"/>
<line x1="329.946" y1="66" x2="337.566" y2="66" stroke="#FFB800" stroke-width="4"/>
<line y1="-2" x2="44.45" y2="-2" transform="matrix(0.606091 0.795395 -0.606091 0.795395 335.28 67)" stroke="#FFB800" stroke-width="4"/>
<path d="M69.1211 71L70.8789 63.9688H82.3047V46.3906H89.3359V71H69.1211ZM112.188 46.3906L110.43 53.4219H98.125V55.1797H110.43V71H89.3359L91.0938 63.9688H103.398V62.2109H91.0938V46.3906H112.188ZM126.25 53.4219H119.219V63.9688H126.25V53.4219ZM133.281 46.3906V71H112.188V46.3906H133.281ZM156.133 71H149.102V53.4219H142.07V71H135.039V46.3906H156.133V71ZM186.016 46.3906L184.258 53.4219H178.105V71H171.074V53.4219H164.922V46.3906H186.016ZM200.078 62.2109H193.047V71H186.016V46.3906H207.109V71H200.078V62.2109ZM193.047 55.1797H200.078V53.4219H193.047V55.1797ZM229.961 46.3906L228.203 53.4219H222.051V71H215.02V53.4219H208.867V46.3906H229.961ZM229.961 46.3906H236.992V63.9688H244.023V46.3906H251.055V71H229.961V46.3906ZM277.422 71H270.391V53.4219H268.633V71H261.602V53.4219H259.844V71H252.812V46.3906H277.422V71Z" fill="black"/>
</svg>
