<svg width="411" height="121" viewBox="0 0 411 121" fill="none" xmlns="http://www.w3.org/2000/svg">
<path d="M405.809 3.9525L370.307 47.1425C368.942 48.803 368.942 51.197 370.307 52.8575L405.809 96.0475C406.614 97.0263 405.918 98.5 404.651 98.5H2.99999C2.17157 98.5 1.5 97.8284 1.5 97V3C1.5 2.17157 2.17157 1.5 3 1.5H205.5H404.651C405.918 1.5 406.614 2.9737 405.809 3.9525Z" fill="white" fill-opacity="0.8" stroke="#FFB800" stroke-width="3"/>
<path d="M405.809 23.9525L370.307 67.1425C368.942 68.803 368.942 71.197 370.307 72.8575L405.809 116.047C406.614 117.026 405.918 118.5 404.651 118.5H2.99999C2.17157 118.5 1.5 117.828 1.5 117V23C1.5 22.1716 2.17157 21.5 3 21.5H205.5H404.651C405.918 21.5 406.614 22.9737 405.809 23.9525Z" fill="black" fill-opacity="0.6" stroke="white" stroke-width="3"/>
<path d="M405.809 13.9525L370.307 57.1425C368.942 58.803 368.942 61.197 370.307 62.8575L405.809 106.047C406.614 107.026 405.918 108.5 404.651 108.5H2.99999C2.17157 108.5 1.5 107.828 1.5 107V13C1.5 12.1716 2.17157 11.5 3 11.5H205.5H404.651C405.918 11.5 406.614 12.9737 405.809 13.9525Z" fill="#E7E7E7" fill-opacity="0.7" stroke="#76FF03" stroke-width="3"/>
<line x1="10" y1="23.5" x2="30" y2="23.5" stroke="#FFB800" stroke-width="3"/>
<line x1="11.5" y1="22" x2="11.5" y2="97" stroke="#FFB800" stroke-width="3"/>
<line x1="10" y1="98.5" x2="30" y2="98.5" stroke="#FFB800" stroke-width="3"/>
<line y1="-1.5" x2="45.7669" y2="-1.5" transform="matrix(0.635003 -0.77251 0.635003 0.77251 364.146 55.3555)" stroke="#FFB800" stroke-width="3"/>
<line x1="355.926" y1="53.5" x2="364.146" y2="53.5" stroke="#FFB800" stroke-width="3"/>
<line x1="355.926" y1="66.5" x2="364.146" y2="66.5" stroke="#FFB800" stroke-width="3"/>
<line y1="-1.5" x2="45.7669" y2="-1.5" transform="matrix(0.635003 0.77251 -0.635003 0.77251 361.68 67)" stroke="#FFB800" stroke-width="3"/>
<mask id="path-11-inside-1_63_609" fill="white">
<path d="M69.1211 71L70.8789 63.9688H82.3047V46.3906H89.3359V71H69.1211ZM114.347 46.3906L112.59 53.4219H100.285V55.1797H112.59V71H91.4959L93.2537 63.9688H105.558V62.2109H93.2537V46.3906H114.347ZM130.57 53.4219H123.539V63.9688H130.57V53.4219ZM137.601 46.3906V71H116.507V46.3906H137.601ZM162.613 71H155.582V53.4219H148.55V71H141.519V46.3906H162.613V71ZM175.722 46.3906H182.753V63.9688H184.511V46.3906H191.542V63.9688H193.3V46.3906H200.331V71H175.722V46.3906ZM225.343 46.3906L223.585 53.4219H211.28V55.1797H223.585L221.827 62.2109H211.28V63.9688H225.343L223.585 71H204.249V46.3906H225.343ZM241.565 53.4219H234.534V55.1797H241.565V53.4219ZM248.597 46.3906V62.2109H244.712L249.757 71H241.847L234.534 58.2383V71H227.503V46.3906H248.597ZM273.608 46.3906L271.85 53.4219H265.698V71H258.667V53.4219H252.514V46.3906H273.608ZM275.768 46.3906H282.799V55.1797H289.831V46.3906H296.862V71H289.831V62.2109H282.799V71H275.768V46.3906Z"/>
</mask>
<path d="M69.1211 71L70.8789 63.9688H82.3047V46.3906H89.3359V71H69.1211ZM114.347 46.3906L112.59 53.4219H100.285V55.1797H112.59V71H91.4959L93.2537 63.9688H105.558V62.2109H93.2537V46.3906H114.347ZM130.57 53.4219H123.539V63.9688H130.57V53.4219ZM137.601 46.3906V71H116.507V46.3906H137.601ZM162.613 71H155.582V53.4219H148.55V71H141.519V46.3906H162.613V71ZM175.722 46.3906H182.753V63.9688H184.511V46.3906H191.542V63.9688H193.3V46.3906H200.331V71H175.722V46.3906ZM225.343 46.3906L223.585 53.4219H211.28V55.1797H223.585L221.827 62.2109H211.28V63.9688H225.343L223.585 71H204.249V46.3906H225.343ZM241.565 53.4219H234.534V55.1797H241.565V53.4219ZM248.597 46.3906V62.2109H244.712L249.757 71H241.847L234.534 58.2383V71H227.503V46.3906H248.597ZM273.608 46.3906L271.85 53.4219H265.698V71H258.667V53.4219H252.514V46.3906H273.608ZM275.768 46.3906H282.799V55.1797H289.831V46.3906H296.862V71H289.831V62.2109H282.799V71H275.768V46.3906Z" fill="white" fill-opacity="0.85"/>
<path d="M69.1211 71L68.151 70.7575L67.8403 72H69.1211V71ZM70.8789 63.9688V62.9688H70.0981L69.9088 63.7262L70.8789 63.9688ZM82.3047 63.9688V64.9688H83.3047V63.9688H82.3047ZM82.3047 46.3906V45.3906H81.3047V46.3906H82.3047ZM89.3359 46.3906H90.3359V45.3906H89.3359V46.3906ZM89.3359 71V72H90.3359V71H89.3359ZM70.0912 71.2425L71.849 64.2113L69.9088 63.7262L68.151 70.7575L70.0912 71.2425ZM70.8789 64.9688H82.3047V62.9688H70.8789V64.9688ZM83.3047 63.9688V46.3906H81.3047V63.9688H83.3047ZM82.3047 47.3906H89.3359V45.3906H82.3047V47.3906ZM88.3359 46.3906V71H90.3359V46.3906H88.3359ZM89.3359 70H69.1211V72H89.3359V70ZM114.347 46.3906L115.318 46.6332L115.628 45.3906H114.347V46.3906ZM112.59 53.4219V54.4219H113.37L113.56 53.6644L112.59 53.4219ZM100.285 53.4219V52.4219H99.285V53.4219H100.285ZM100.285 55.1797H99.285V56.1797H100.285V55.1797ZM112.59 55.1797H113.59V54.1797H112.59V55.1797ZM112.59 71V72H113.59V71H112.59ZM91.4959 71L90.5258 70.7575L90.2152 72H91.4959V71ZM93.2537 63.9688V62.9688H92.473L92.2836 63.7262L93.2537 63.9688ZM105.558 63.9688V64.9688H106.558V63.9688H105.558ZM105.558 62.2109H106.558V61.2109H105.558V62.2109ZM93.2537 62.2109H92.2537V63.2109H93.2537V62.2109ZM93.2537 46.3906V45.3906H92.2537V46.3906H93.2537ZM113.377 46.1481L111.62 53.1793L113.56 53.6644L115.318 46.6332L113.377 46.1481ZM112.59 52.4219H100.285V54.4219H112.59V52.4219ZM99.285 53.4219V55.1797H101.285V53.4219H99.285ZM100.285 56.1797H112.59V54.1797H100.285V56.1797ZM111.59 55.1797V71H113.59V55.1797H111.59ZM112.59 70H91.4959V72H112.59V70ZM92.4661 71.2425L94.2239 64.2113L92.2836 63.7262L90.5258 70.7575L92.4661 71.2425ZM93.2537 64.9688H105.558V62.9688H93.2537V64.9688ZM106.558 63.9688V62.2109H104.558V63.9688H106.558ZM105.558 61.2109H93.2537V63.2109H105.558V61.2109ZM94.2537 62.2109V46.3906H92.2537V62.2109H94.2537ZM93.2537 47.3906H114.347V45.3906H93.2537V47.3906ZM130.57 53.4219H131.57V52.4219H130.57V53.4219ZM123.539 53.4219V52.4219H122.539V53.4219H123.539ZM123.539 63.9688H122.539V64.9688H123.539V63.9688ZM130.57 63.9688V64.9688H131.57V63.9688H130.57ZM137.601 46.3906H138.601V45.3906H137.601V46.3906ZM137.601 71V72H138.601V71H137.601ZM116.507 71H115.507V72H116.507V71ZM116.507 46.3906V45.3906H115.507V46.3906H116.507ZM130.57 52.4219H123.539V54.4219H130.57V52.4219ZM122.539 53.4219V63.9688H124.539V53.4219H122.539ZM123.539 64.9688H130.57V62.9688H123.539V64.9688ZM131.57 63.9688V53.4219H129.57V63.9688H131.57ZM136.601 46.3906V71H138.601V46.3906H136.601ZM137.601 70H116.507V72H137.601V70ZM117.507 71V46.3906H115.507V71H117.507ZM116.507 47.3906H137.601V45.3906H116.507V47.3906ZM162.613 71V72H163.613V71H162.613ZM155.582 71H154.582V72H155.582V71ZM155.582 53.4219H156.582V52.4219H155.582V53.4219ZM148.55 53.4219V52.4219H147.55V53.4219H148.55ZM148.55 71V72H149.55V71H148.55ZM141.519 71H140.519V72H141.519V71ZM141.519 46.3906V45.3906H140.519V46.3906H141.519ZM162.613 46.3906H163.613V45.3906H162.613V46.3906ZM162.613 70H155.582V72H162.613V70ZM156.582 71V53.4219H154.582V71H156.582ZM155.582 52.4219H148.55V54.4219H155.582V52.4219ZM147.55 53.4219V71H149.55V53.4219H147.55ZM148.55 70H141.519V72H148.55V70ZM142.519 71V46.3906H140.519V71H142.519ZM141.519 47.3906H162.613V45.3906H141.519V47.3906ZM161.613 46.3906V71H163.613V46.3906H161.613ZM175.722 46.3906V45.3906H174.722V46.3906H175.722ZM182.753 46.3906H183.753V45.3906H182.753V46.3906ZM182.753 63.9688H181.753V64.9688H182.753V63.9688ZM184.511 63.9688V64.9688H185.511V63.9688H184.511ZM184.511 46.3906V45.3906H183.511V46.3906H184.511ZM191.542 46.3906H192.542V45.3906H191.542V46.3906ZM191.542 63.9688H190.542V64.9688H191.542V63.9688ZM193.3 63.9688V64.9688H194.3V63.9688H193.3ZM193.3 46.3906V45.3906H192.3V46.3906H193.3ZM200.331 46.3906H201.331V45.3906H200.331V46.3906ZM200.331 71V72H201.331V71H200.331ZM175.722 71H174.722V72H175.722V71ZM175.722 47.3906H182.753V45.3906H175.722V47.3906ZM181.753 46.3906V63.9688H183.753V46.3906H181.753ZM182.753 64.9688H184.511V62.9688H182.753V64.9688ZM185.511 63.9688V46.3906H183.511V63.9688H185.511ZM184.511 47.3906H191.542V45.3906H184.511V47.3906ZM190.542 46.3906V63.9688H192.542V46.3906H190.542ZM191.542 64.9688H193.3V62.9688H191.542V64.9688ZM194.3 63.9688V46.3906H192.3V63.9688H194.3ZM193.3 47.3906H200.331V45.3906H193.3V47.3906ZM199.331 46.3906V71H201.331V46.3906H199.331ZM200.331 70H175.722V72H200.331V70ZM176.722 71V46.3906H174.722V71H176.722ZM225.343 46.3906L226.313 46.6332L226.624 45.3906H225.343V46.3906ZM223.585 53.4219V54.4219H224.366L224.555 53.6644L223.585 53.4219ZM211.28 53.4219V52.4219H210.28V53.4219H211.28ZM211.28 55.1797H210.28V56.1797H211.28V55.1797ZM223.585 55.1797L224.555 55.4222L224.866 54.1797H223.585V55.1797ZM221.827 62.2109V63.2109H222.608L222.797 62.4535L221.827 62.2109ZM211.28 62.2109V61.2109H210.28V62.2109H211.28ZM211.28 63.9688H210.28V64.9688H211.28V63.9688ZM225.343 63.9688L226.313 64.2113L226.624 62.9688H225.343V63.9688ZM223.585 71V72H224.366L224.555 71.2425L223.585 71ZM204.249 71H203.249V72H204.249V71ZM204.249 46.3906V45.3906H203.249V46.3906H204.249ZM224.373 46.1481L222.615 53.1793L224.555 53.6644L226.313 46.6332L224.373 46.1481ZM223.585 52.4219H211.28V54.4219H223.585V52.4219ZM210.28 53.4219V55.1797H212.28V53.4219H210.28ZM211.28 56.1797H223.585V54.1797H211.28V56.1797ZM222.615 54.9372L220.857 61.9684L222.797 62.4535L224.555 55.4222L222.615 54.9372ZM221.827 61.2109H211.28V63.2109H221.827V61.2109ZM210.28 62.2109V63.9688H212.28V62.2109H210.28ZM211.28 64.9688H225.343V62.9688H211.28V64.9688ZM224.373 63.7262L222.615 70.7575L224.555 71.2425L226.313 64.2113L224.373 63.7262ZM223.585 70H204.249V72H223.585V70ZM205.249 71V46.3906H203.249V71H205.249ZM204.249 47.3906H225.343V45.3906H204.249V47.3906ZM241.565 53.4219H242.565V52.4219H241.565V53.4219ZM234.534 53.4219V52.4219H233.534V53.4219H234.534ZM234.534 55.1797H233.534V56.1797H234.534V55.1797ZM241.565 55.1797V56.1797H242.565V55.1797H241.565ZM248.597 46.3906H249.597V45.3906H248.597V46.3906ZM248.597 62.2109V63.2109H249.597V62.2109H248.597ZM244.712 62.2109V61.2109H242.985L243.845 62.7088L244.712 62.2109ZM249.757 71V72H251.484L250.624 70.5022L249.757 71ZM241.847 71L240.979 71.4972L241.267 72H241.847V71ZM234.534 58.2383L235.402 57.7411L233.534 54.4817V58.2383H234.534ZM234.534 71V72H235.534V71H234.534ZM227.503 71H226.503V72H227.503V71ZM227.503 46.3906V45.3906H226.503V46.3906H227.503ZM241.565 52.4219H234.534V54.4219H241.565V52.4219ZM233.534 53.4219V55.1797H235.534V53.4219H233.534ZM234.534 56.1797H241.565V54.1797H234.534V56.1797ZM242.565 55.1797V53.4219H240.565V55.1797H242.565ZM247.597 46.3906V62.2109H249.597V46.3906H247.597ZM248.597 61.2109H244.712V63.2109H248.597V61.2109ZM243.845 62.7088L248.889 71.4978L250.624 70.5022L245.579 61.7131L243.845 62.7088ZM249.757 70H241.847V72H249.757V70ZM242.714 70.5028L235.402 57.7411L233.666 58.7354L240.979 71.4972L242.714 70.5028ZM233.534 58.2383V71H235.534V58.2383H233.534ZM234.534 70H227.503V72H234.534V70ZM228.503 71V46.3906H226.503V71H228.503ZM227.503 47.3906H248.597V45.3906H227.503V47.3906ZM273.608 46.3906L274.578 46.6332L274.889 45.3906H273.608V46.3906ZM271.85 53.4219V54.4219H272.631L272.82 53.6644L271.85 53.4219ZM265.698 53.4219V52.4219H264.698V53.4219H265.698ZM265.698 71V72H266.698V71H265.698ZM258.667 71H257.667V72H258.667V71ZM258.667 53.4219H259.667V52.4219H258.667V53.4219ZM252.514 53.4219H251.514V54.4219H252.514V53.4219ZM252.514 46.3906V45.3906H251.514V46.3906H252.514ZM272.638 46.1481L270.88 53.1793L272.82 53.6644L274.578 46.6332L272.638 46.1481ZM271.85 52.4219H265.698V54.4219H271.85V52.4219ZM264.698 53.4219V71H266.698V53.4219H264.698ZM265.698 70H258.667V72H265.698V70ZM259.667 71V53.4219H257.667V71H259.667ZM258.667 52.4219H252.514V54.4219H258.667V52.4219ZM253.514 53.4219V46.3906H251.514V53.4219H253.514ZM252.514 47.3906H273.608V45.3906H252.514V47.3906ZM275.768 46.3906V45.3906H274.768V46.3906H275.768ZM282.799 46.3906H283.799V45.3906H282.799V46.3906ZM282.799 55.1797H281.799V56.1797H282.799V55.1797ZM289.831 55.1797V56.1797H290.831V55.1797H289.831ZM289.831 46.3906V45.3906H288.831V46.3906H289.831ZM296.862 46.3906H297.862V45.3906H296.862V46.3906ZM296.862 71V72H297.862V71H296.862ZM289.831 71H288.831V72H289.831V71ZM289.831 62.2109H290.831V61.2109H289.831V62.2109ZM282.799 62.2109V61.2109H281.799V62.2109H282.799ZM282.799 71V72H283.799V71H282.799ZM275.768 71H274.768V72H275.768V71ZM275.768 47.3906H282.799V45.3906H275.768V47.3906ZM281.799 46.3906V55.1797H283.799V46.3906H281.799ZM282.799 56.1797H289.831V54.1797H282.799V56.1797ZM290.831 55.1797V46.3906H288.831V55.1797H290.831ZM289.831 47.3906H296.862V45.3906H289.831V47.3906ZM295.862 46.3906V71H297.862V46.3906H295.862ZM296.862 70H289.831V72H296.862V70ZM290.831 71V62.2109H288.831V71H290.831ZM289.831 61.2109H282.799V63.2109H289.831V61.2109ZM281.799 62.2109V71H283.799V62.2109H281.799ZM282.799 70H275.768V72H282.799V70ZM276.768 71V46.3906H274.768V71H276.768Z" fill="#34FF00" mask="url(#path-11-inside-1_63_609)"/>
</svg>
