<svg xmlns="http://www.w3.org/2000/svg" fill="none" viewBox="45.45 61.98 322.45 106.02">
<g filter="url(#filter0_d_13_28)">
<mask id="path-1-inside-1_13_28" fill="white">
<path d="M74.7 106.6H113.9L99.8 159.3C99.6 159.9 99.2 160.6 98.6 161.4C98 162.2 97.4 163 96.6 163.6C95.8 164.3 95 164.9 94.2 165.3C93.4 165.8 92.6 166 92 166H51.9C51.2 166 50.6 165.8 50 165.3C49.4 164.9 48.9 164.3 48.5 163.6C48.1 163 47.8 162.2 47.6 161.4C47.4 160.6 47.4 159.9 47.6 159.3L55.9 128.3H80.1L75.4 145.8H79.3L84.4 126.9H69.3L74.7 106.6ZM107.062 145.8H135.262L135.662 144.2H111.462C111.062 144.2 110.762 144 110.462 143.6C110.062 143.2 109.762 142.8 109.462 142.2C109.162 141.6 108.962 141.1 108.862 140.5C108.662 140 108.662 139.6 108.762 139.3L115.762 112.9C115.862 112.3 116.262 111.7 116.862 111C117.462 110.3 118.162 109.6 118.962 108.9C119.762 108.3 120.562 107.7 121.462 107.3C122.262 106.9 123.062 106.6 123.662 106.6H169.862L164.462 126.9H136.362L135.962 128.4H157.162C157.862 128.4 158.562 128.7 159.262 129.1C159.862 129.6 160.462 130.2 160.962 130.8C161.462 131.5 161.862 132.2 162.062 133C162.262 133.8 162.362 134.4 162.262 135L155.562 160C155.362 160.7 154.862 161.4 154.262 162.1C153.662 162.8 152.862 163.4 152.062 164C151.262 164.6 150.362 165.1 149.562 165.5C148.662 165.9 147.862 166 147.262 166H101.662L107.062 145.8ZM298.119 106.6L282.219 166H258.219L268.719 126.9H264.719L254.219 166H230.019L244.119 113.4C244.319 112.8 244.719 112.1 245.319 111.3C245.919 110.5 246.519 109.8 247.319 109.1C248.119 108.4 248.919 107.8 249.719 107.3C250.519 106.9 251.319 106.6 252.019 106.6H298.119ZM291.28 145.8H319.48L319.88 144.2H295.68C295.28 144.2 294.98 144 294.68 143.6C294.28 143.2 293.98 142.8 293.68 142.2C293.38 141.6 293.18 141.1 293.08 140.5C292.88 140 292.88 139.6 292.98 139.3L299.98 112.9C300.08 112.3 300.48 111.7 301.08 111C301.68 110.3 302.38 109.6 303.18 108.9C303.98 108.3 304.78 107.7 305.68 107.3C306.48 106.9 307.28 106.6 307.88 106.6H354.08L348.68 126.9H320.58L320.18 128.4H341.38C342.08 128.4 342.78 128.7 343.48 129.1C344.08 129.6 344.68 130.2 345.18 130.8C345.68 131.5 346.08 132.2 346.28 133C346.48 133.8 346.58 134.4 346.48 135L339.78 160C339.58 160.7 339.08 161.4 338.48 162.1C337.88 162.8 337.08 163.4 336.28 164C335.48 164.6 334.58 165.1 333.78 165.5C332.88 165.9 332.08 166 331.48 166H285.88L291.28 145.8Z"/>
</mask>
<path d="M74.7 106.6H113.9L99.8 159.3C99.6 159.9 99.2 160.6 98.6 161.4C98 162.2 97.4 163 96.6 163.6C95.8 164.3 95 164.9 94.2 165.3C93.4 165.8 92.6 166 92 166H51.9C51.2 166 50.6 165.8 50 165.3C49.4 164.9 48.9 164.3 48.5 163.6C48.1 163 47.8 162.2 47.6 161.4C47.4 160.6 47.4 159.9 47.6 159.3L55.9 128.3H80.1L75.4 145.8H79.3L84.4 126.9H69.3L74.7 106.6ZM107.062 145.8H135.262L135.662 144.2H111.462C111.062 144.2 110.762 144 110.462 143.6C110.062 143.2 109.762 142.8 109.462 142.2C109.162 141.6 108.962 141.1 108.862 140.5C108.662 140 108.662 139.6 108.762 139.3L115.762 112.9C115.862 112.3 116.262 111.7 116.862 111C117.462 110.3 118.162 109.6 118.962 108.9C119.762 108.3 120.562 107.7 121.462 107.3C122.262 106.9 123.062 106.6 123.662 106.6H169.862L164.462 126.9H136.362L135.962 128.4H157.162C157.862 128.4 158.562 128.7 159.262 129.1C159.862 129.6 160.462 130.2 160.962 130.8C161.462 131.5 161.862 132.2 162.062 133C162.262 133.8 162.362 134.4 162.262 135L155.562 160C155.362 160.7 154.862 161.4 154.262 162.1C153.662 162.8 152.862 163.4 152.062 164C151.262 164.6 150.362 165.1 149.562 165.5C148.662 165.9 147.862 166 147.262 166H101.662L107.062 145.8ZM298.119 106.6L282.219 166H258.219L268.719 126.9H264.719L254.219 166H230.019L244.119 113.4C244.319 112.8 244.719 112.1 245.319 111.3C245.919 110.5 246.519 109.8 247.319 109.1C248.119 108.4 248.919 107.8 249.719 107.3C250.519 106.9 251.319 106.6 252.019 106.6H298.119ZM291.28 145.8H319.48L319.88 144.2H295.68C295.28 144.2 294.98 144 294.68 143.6C294.28 143.2 293.98 142.8 293.68 142.2C293.38 141.6 293.18 141.1 293.08 140.5C292.88 140 292.88 139.6 292.98 139.3L299.98 112.9C300.08 112.3 300.48 111.7 301.08 111C301.68 110.3 302.38 109.6 303.18 108.9C303.98 108.3 304.78 107.7 305.68 107.3C306.48 106.9 307.28 106.6 307.88 106.6H354.08L348.68 126.9H320.58L320.18 128.4H341.38C342.08 128.4 342.78 128.7 343.48 129.1C344.08 129.6 344.68 130.2 345.18 130.8C345.68 131.5 346.08 132.2 346.28 133C346.48 133.8 346.58 134.4 346.48 135L339.78 160C339.58 160.7 339.08 161.4 338.48 162.1C337.88 162.8 337.08 163.4 336.28 164C335.48 164.6 334.58 165.1 333.78 165.5C332.88 165.9 332.08 166 331.48 166H285.88L291.28 145.8Z" fill="white"/>
<path d="M74.7 106.6V104.6H73.1625L72.7672 106.086L74.7 106.6ZM113.9 106.6L115.832 107.117L116.505 104.6H113.9V106.6ZM99.8 159.3L101.697 159.932L101.716 159.875L101.732 159.817L99.8 159.3ZM98.6 161.4L97 160.2L97 160.2L98.6 161.4ZM96.6 163.6L95.4 162L95.3397 162.045L95.283 162.095L96.6 163.6ZM94.2 165.3L93.3056 163.511L93.2206 163.554L93.14 163.604L94.2 165.3ZM50 165.3L51.2804 163.764L51.1983 163.695L51.1094 163.636L50 165.3ZM48.5 163.6L50.2365 162.608L50.2023 162.548L50.1641 162.491L48.5 163.6ZM47.6 161.4L49.5403 160.915L49.5403 160.915L47.6 161.4ZM47.6 159.3L49.4974 159.932L49.5164 159.875L49.532 159.817L47.6 159.3ZM55.9 128.3V126.3H54.365L53.968 127.783L55.9 128.3ZM80.1 128.3L82.0316 128.819L82.708 126.3H80.1V128.3ZM75.4 145.8L73.4685 145.281L72.792 147.8H75.4V145.8ZM79.3 145.8V147.8H80.8319L81.2309 146.321L79.3 145.8ZM84.4 126.9L86.3309 127.421L87.0112 124.9H84.4V126.9ZM69.3 126.9L67.3672 126.386L66.6984 128.9H69.3V126.9ZM74.7 108.6H113.9V104.6H74.7V108.6ZM111.968 106.083L97.868 158.783L101.732 159.817L115.832 107.117L111.968 106.083ZM97.9026 158.668C97.7983 158.981 97.5369 159.484 97 160.2L100.2 162.6C100.863 161.716 101.402 160.819 101.697 159.932L97.9026 158.668ZM97 160.2C96.3698 161.04 95.9332 161.6 95.4 162L97.8 165.2C98.8668 164.4 99.6302 163.36 100.2 162.6L97 160.2ZM95.283 162.095C94.5385 162.746 93.8859 163.221 93.3056 163.511L95.0944 167.089C96.1141 166.579 97.0615 165.854 97.917 165.105L95.283 162.095ZM93.14 163.604C92.6287 163.924 92.1922 164 92 164V168C93.0079 168 94.1713 167.676 95.26 166.996L93.14 163.604ZM92 164H51.9V168H92V164ZM51.9 164C51.6627 164 51.517 163.961 51.2804 163.764L48.7196 166.836C49.683 167.639 50.7373 168 51.9 168V164ZM51.1094 163.636C50.842 163.458 50.5339 163.128 50.2365 162.608L46.7635 164.592C47.2661 165.472 47.958 166.342 48.8906 166.964L51.1094 163.636ZM50.1641 162.491C49.9397 162.154 49.7108 161.597 49.5403 160.915L45.6597 161.885C45.8892 162.803 46.2603 163.846 46.8359 164.709L50.1641 162.491ZM49.5403 160.915C49.405 160.374 49.4491 160.077 49.4974 159.932L45.7026 158.668C45.3509 159.723 45.395 160.826 45.6597 161.885L49.5403 160.915ZM49.532 159.817L57.832 128.817L53.968 127.783L45.668 158.783L49.532 159.817ZM55.9 130.3H80.1V126.3H55.9V130.3ZM78.1685 127.781L73.4685 145.281L77.3316 146.319L82.0316 128.819L78.1685 127.781ZM75.4 147.8H79.3V143.8H75.4V147.8ZM81.2309 146.321L86.3309 127.421L82.4691 126.379L77.3691 145.279L81.2309 146.321ZM84.4 124.9H69.3V128.9H84.4V124.9ZM71.2328 127.414L76.6328 107.114L72.7672 106.086L67.3672 126.386L71.2328 127.414ZM107.062 145.8V143.8H105.526L105.13 145.283L107.062 145.8ZM135.262 145.8V147.8H136.823L137.202 146.285L135.262 145.8ZM135.662 144.2L137.602 144.685L138.223 142.2H135.662V144.2ZM110.462 143.6L112.062 142.4L111.976 142.286L111.876 142.186L110.462 143.6ZM109.462 142.2L107.673 143.094L107.673 143.094L109.462 142.2ZM108.862 140.5L110.835 140.171L110.799 139.958L110.719 139.757L108.862 140.5ZM108.762 139.3L110.659 139.932L110.679 139.873L110.695 139.813L108.762 139.3ZM115.762 112.9L117.695 113.413L117.719 113.322L117.735 113.229L115.762 112.9ZM116.862 111L118.38 112.302L118.38 112.302L116.862 111ZM118.962 108.9L117.762 107.3L117.701 107.345L117.645 107.395L118.962 108.9ZM121.462 107.3L122.274 109.128L122.316 109.109L122.356 109.089L121.462 107.3ZM169.862 106.6L171.795 107.114L172.463 104.6H169.862V106.6ZM164.462 126.9V128.9H165.999L166.395 127.414L164.462 126.9ZM136.362 126.9V124.9H134.825L134.429 126.385L136.362 126.9ZM135.962 128.4L134.029 127.885L133.358 130.4H135.962V128.4ZM159.262 129.1L160.542 127.564L160.407 127.451L160.254 127.364L159.262 129.1ZM160.962 130.8L162.589 129.638L162.546 129.577L162.498 129.52L160.962 130.8ZM162.062 133L160.121 133.485L160.121 133.485L162.062 133ZM162.262 135L164.194 135.518L164.219 135.424L164.235 135.329L162.262 135ZM155.562 160L157.485 160.549L157.489 160.534L157.494 160.518L155.562 160ZM154.262 162.1L155.78 163.402L155.78 163.402L154.262 162.1ZM152.062 164L150.862 162.4L150.862 162.4L152.062 164ZM149.562 165.5L150.374 167.328L150.416 167.309L150.456 167.289L149.562 165.5ZM101.662 166L99.7296 165.483L99.0568 168H101.662V166ZM107.062 147.8H135.262V143.8H107.062V147.8ZM137.202 146.285L137.602 144.685L133.721 143.715L133.321 145.315L137.202 146.285ZM135.662 142.2H111.462V146.2H135.662V142.2ZM111.462 142.2C111.531 142.2 111.62 142.209 111.719 142.237C111.819 142.265 111.905 142.305 111.972 142.347C112.098 142.424 112.124 142.484 112.062 142.4L108.862 144.8C109.368 145.476 110.193 146.2 111.462 146.2V142.2ZM111.876 142.186C111.626 141.936 111.453 141.711 111.251 141.306L107.673 143.094C108.07 143.889 108.497 144.464 109.048 145.014L111.876 142.186ZM111.251 141.306C110.994 140.792 110.888 140.494 110.835 140.171L106.889 140.829C107.035 141.706 107.33 142.408 107.673 143.094L111.251 141.306ZM110.719 139.757C110.687 139.678 110.693 139.661 110.695 139.7C110.698 139.742 110.695 139.825 110.659 139.932L106.864 138.668C106.586 139.501 106.665 140.395 107.005 141.243L110.719 139.757ZM110.695 139.813L117.695 113.413L113.829 112.387L106.829 138.787L110.695 139.813ZM117.735 113.229C117.731 113.249 117.736 113.188 117.839 113.016C117.944 112.842 118.113 112.613 118.38 112.302L115.343 109.698C114.727 110.418 113.987 111.382 113.789 112.571L117.735 113.229ZM118.38 112.302C118.909 111.684 119.54 111.052 120.279 110.405L117.645 107.395C116.783 108.148 116.014 108.916 115.343 109.698L118.38 112.302ZM120.162 110.5C120.995 109.875 121.616 109.42 122.274 109.128L120.649 105.472C119.507 105.98 118.528 106.725 117.762 107.3L120.162 110.5ZM122.356 109.089C122.703 108.915 123.012 108.783 123.269 108.697C123.544 108.606 123.664 108.6 123.662 108.6V104.6C122.552 104.6 121.383 105.103 120.567 105.511L122.356 109.089ZM123.662 108.6H169.862V104.6H123.662V108.6ZM167.929 106.086L162.529 126.386L166.395 127.414L171.795 107.114L167.929 106.086ZM164.462 124.9H136.362V128.9H164.462V124.9ZM134.429 126.385L134.029 127.885L137.894 128.915L138.294 127.415L134.429 126.385ZM135.962 130.4H157.162V126.4H135.962V130.4ZM157.162 130.4C157.32 130.4 157.641 130.477 158.269 130.836L160.254 127.364C159.483 126.923 158.404 126.4 157.162 126.4V130.4ZM157.981 130.636C158.488 131.059 159.003 131.573 159.425 132.08L162.498 129.52C161.921 128.827 161.235 128.141 160.542 127.564L157.981 130.636ZM159.334 131.962C159.767 132.569 160.008 133.032 160.121 133.485L164.002 132.515C163.715 131.368 163.156 130.431 162.589 129.638L159.334 131.962ZM160.121 133.485C160.313 134.252 160.316 134.507 160.289 134.671L164.235 135.329C164.407 134.293 164.21 133.348 164.002 132.515L160.121 133.485ZM160.33 134.482L153.63 159.482L157.494 160.518L164.194 135.518L160.33 134.482ZM153.639 159.451C153.566 159.706 153.319 160.127 152.743 160.798L155.78 163.402C156.405 162.673 157.158 161.694 157.485 160.549L153.639 159.451ZM152.743 160.798C152.313 161.301 151.703 161.769 150.862 162.4L153.262 165.6C154.021 165.031 155.011 164.299 155.78 163.402L152.743 160.798ZM150.862 162.4C150.199 162.897 149.419 163.335 148.667 163.711L150.456 167.289C151.305 166.865 152.325 166.303 153.262 165.6L150.862 162.4ZM148.749 163.672C148.148 163.94 147.633 164 147.262 164V168C148.091 168 149.176 167.86 150.374 167.328L148.749 163.672ZM147.262 164H101.662V168H147.262V164ZM103.594 166.517L108.994 146.317L105.13 145.283L99.7296 165.483L103.594 166.517ZM298.119 106.6L300.051 107.117L300.725 104.6H298.119V106.6ZM282.219 166V168H283.754L284.151 166.517L282.219 166ZM258.219 166L256.287 165.481L255.611 168H258.219V166ZM268.719 126.9L270.65 127.419L271.327 124.9H268.719V126.9ZM264.719 126.9V124.9H263.185L262.787 126.381L264.719 126.9ZM254.219 166V168H255.753L256.15 166.519L254.219 166ZM230.019 166L228.087 165.482L227.412 168H230.019V166ZM244.119 113.4L242.221 112.768L242.202 112.824L242.187 112.882L244.119 113.4ZM245.319 111.3L243.719 110.1L243.719 110.1L245.319 111.3ZM247.319 109.1L248.636 110.605L248.636 110.605L247.319 109.1ZM249.719 107.3L248.824 105.511L248.739 105.554L248.659 105.604L249.719 107.3ZM296.187 106.083L280.287 165.483L284.151 166.517L300.051 107.117L296.187 106.083ZM282.219 164H258.219V168H282.219V164ZM260.15 166.519L270.65 127.419L266.787 126.381L256.287 165.481L260.15 166.519ZM268.719 124.9H264.719V128.9H268.719V124.9ZM262.787 126.381L252.287 165.481L256.15 166.519L266.65 127.419L262.787 126.381ZM254.219 164H230.019V168H254.219V164ZM231.951 166.518L246.051 113.918L242.187 112.882L228.087 165.482L231.951 166.518ZM246.016 114.032C246.12 113.719 246.382 113.216 246.919 112.5L243.719 110.1C243.056 110.984 242.517 111.881 242.221 112.768L246.016 114.032ZM246.919 112.5C247.465 111.772 247.972 111.186 248.636 110.605L246.002 107.595C245.066 108.414 244.373 109.228 243.719 110.1L246.919 112.5ZM248.636 110.605C249.365 109.967 250.08 109.433 250.779 108.996L248.659 105.604C247.758 106.167 246.872 106.833 246.002 107.595L248.636 110.605ZM250.613 109.089C251.365 108.713 251.811 108.6 252.019 108.6V104.6C250.826 104.6 249.672 105.087 248.824 105.511L250.613 109.089ZM252.019 108.6H298.119V104.6H252.019V108.6ZM291.28 145.8V143.8H289.745L289.348 145.283L291.28 145.8ZM319.48 145.8V147.8H321.042L321.421 146.285L319.48 145.8ZM319.88 144.2L321.821 144.685L322.442 142.2H319.88V144.2ZM294.68 143.6L296.28 142.4L296.195 142.286L296.095 142.186L294.68 143.6ZM293.68 142.2L291.892 143.094L291.892 143.094L293.68 142.2ZM293.08 140.5L295.053 140.171L295.018 139.958L294.937 139.757L293.08 140.5ZM292.98 139.3L294.878 139.932L294.898 139.873L294.914 139.813L292.98 139.3ZM299.98 112.9L301.914 113.413L301.938 113.322L301.953 113.229L299.98 112.9ZM301.08 111L302.599 112.302L302.599 112.302L301.08 111ZM303.18 108.9L301.98 107.3L301.92 107.345L301.863 107.395L303.18 108.9ZM305.68 107.3L306.493 109.128L306.534 109.109L306.575 109.089L305.68 107.3ZM354.08 106.6L356.013 107.114L356.682 104.6H354.08V106.6ZM348.68 126.9V128.9H350.218L350.613 127.414L348.68 126.9ZM320.58 126.9V124.9H319.044L318.648 126.385L320.58 126.9ZM320.18 128.4L318.248 127.885L317.577 130.4H320.18V128.4ZM343.48 129.1L344.761 127.564L344.626 127.451L344.473 127.364L343.48 129.1ZM345.18 130.8L346.808 129.638L346.765 129.577L346.717 129.52L345.18 130.8ZM346.28 133L344.34 133.485L344.34 133.485L346.28 133ZM346.48 135L348.412 135.518L348.437 135.424L348.453 135.329L346.48 135ZM339.78 160L341.704 160.549L341.708 160.534L341.712 160.518L339.78 160ZM338.48 162.1L339.999 163.402L339.999 163.402L338.48 162.1ZM336.28 164L335.08 162.4L335.08 162.4L336.28 164ZM333.78 165.5L334.593 167.328L334.634 167.309L334.675 167.289L333.78 165.5ZM285.88 166L283.948 165.483L283.276 168H285.88V166ZM291.28 147.8H319.48V143.8H291.28V147.8ZM321.421 146.285L321.821 144.685L317.94 143.715L317.54 145.315L321.421 146.285ZM319.88 142.2H295.68V146.2H319.88V142.2ZM295.68 142.2C295.75 142.2 295.839 142.209 295.938 142.237C296.038 142.265 296.123 142.305 296.191 142.347C296.317 142.424 296.343 142.484 296.28 142.4L293.08 144.8C293.587 145.476 294.412 146.2 295.68 146.2V142.2ZM296.095 142.186C295.845 141.936 295.672 141.711 295.469 141.306L291.892 143.094C292.289 143.889 292.716 144.464 293.266 145.014L296.095 142.186ZM295.469 141.306C295.212 140.792 295.107 140.494 295.053 140.171L291.108 140.829C291.254 141.706 291.549 142.408 291.892 143.094L295.469 141.306ZM294.937 139.757C294.906 139.678 294.912 139.661 294.914 139.7C294.917 139.742 294.914 139.825 294.878 139.932L291.083 138.668C290.805 139.501 290.884 140.395 291.224 141.243L294.937 139.757ZM294.914 139.813L301.914 113.413L298.047 112.387L291.047 138.787L294.914 139.813ZM301.953 113.229C301.95 113.249 301.955 113.188 302.058 113.016C302.163 112.842 302.332 112.613 302.599 112.302L299.562 109.698C298.946 110.418 298.206 111.382 298.008 112.571L301.953 113.229ZM302.599 112.302C303.128 111.684 303.759 111.052 304.497 110.405L301.863 107.395C301.002 108.148 300.233 108.916 299.562 109.698L302.599 112.302ZM304.38 110.5C305.214 109.875 305.835 109.42 306.493 109.128L304.868 105.472C303.726 105.98 302.747 106.725 301.98 107.3L304.38 110.5ZM306.575 109.089C306.922 108.915 307.231 108.783 307.488 108.697C307.763 108.606 307.883 108.6 307.88 108.6V104.6C306.771 104.6 305.602 105.103 304.786 105.511L306.575 109.089ZM307.88 108.6H354.08V104.6H307.88V108.6ZM352.148 106.086L346.748 126.386L350.613 127.414L356.013 107.114L352.148 106.086ZM348.68 124.9H320.58V128.9H348.68V124.9ZM318.648 126.385L318.248 127.885L322.113 128.915L322.513 127.415L318.648 126.385ZM320.18 130.4H341.38V126.4H320.18V130.4ZM341.38 130.4C341.539 130.4 341.859 130.477 342.488 130.836L344.473 127.364C343.702 126.923 342.622 126.4 341.38 126.4V130.4ZM342.2 130.636C342.707 131.059 343.221 131.573 343.644 132.08L346.717 129.52C346.139 128.827 345.454 128.141 344.761 127.564L342.2 130.636ZM343.553 131.962C343.986 132.569 344.227 133.032 344.34 133.485L348.221 132.515C347.934 131.368 347.375 130.431 346.808 129.638L343.553 131.962ZM344.34 133.485C344.532 134.252 344.535 134.507 344.508 134.671L348.453 135.329C348.626 134.293 348.429 133.348 348.221 132.515L344.34 133.485ZM344.549 134.482L337.849 159.482L341.712 160.518L348.412 135.518L344.549 134.482ZM337.857 159.451C337.784 159.706 337.537 160.127 336.962 160.798L339.999 163.402C340.624 162.673 341.376 161.694 341.704 160.549L337.857 159.451ZM336.962 160.798C336.531 161.301 335.921 161.769 335.08 162.4L337.48 165.6C338.24 165.031 339.229 164.299 339.999 163.402L336.962 160.798ZM335.08 162.4C334.418 162.897 333.637 163.335 332.886 163.711L334.675 167.289C335.524 166.865 336.543 166.303 337.48 165.6L335.08 162.4ZM332.968 163.672C332.367 163.94 331.852 164 331.48 164V168C332.309 168 333.394 167.86 334.593 167.328L332.968 163.672ZM331.48 164H285.88V168H331.48V164ZM287.813 166.517L293.213 146.317L289.348 145.283L283.948 165.483L287.813 166.517Z" fill="#76FF03" mask="url(#path-1-inside-1_13_28)"/>
<mask id="path-3-inside-2_13_28" fill="white">
<path d="M189.47 148.72H194.995L190.405 165.89H169.495C168.9 165.89 168.39 165.72 167.88 165.295C167.37 164.955 166.945 164.445 166.605 163.85C166.265 163.34 166.01 162.66 165.84 161.98C165.67 161.3 165.755 160.705 165.925 160.195L170.09 144.555H163.46L167.115 130.87H173.745L177.995 115.23C178.08 114.72 178.42 114.125 178.93 113.445C179.44 112.765 179.95 112.17 180.63 111.575C181.31 111.065 181.99 110.555 182.67 110.13C183.35 109.79 184.03 109.535 184.625 109.535H205.535L200.86 126.705H195.335L189.47 148.72ZM203.573 148.72L209.438 126.705H203.913L208.588 109.535H229.498C230.008 109.535 230.518 109.79 231.028 110.13C231.538 110.555 231.963 111.065 232.303 111.575C232.643 112.17 232.813 112.765 232.983 113.445C233.153 114.125 233.153 114.72 233.068 115.23L228.818 130.87H235.448L231.793 144.555H225.163L220.998 160.195C220.828 160.705 220.488 161.3 219.978 161.98C219.468 162.66 218.958 163.34 218.278 163.85C217.598 164.445 216.918 164.955 216.238 165.295C215.558 165.72 214.878 165.89 214.368 165.89H193.458L198.048 148.72H203.573Z"/>
</mask>
<path d="M189.47 148.72H194.995L190.405 165.89H169.495C168.9 165.89 168.39 165.72 167.88 165.295C167.37 164.955 166.945 164.445 166.605 163.85C166.265 163.34 166.01 162.66 165.84 161.98C165.67 161.3 165.755 160.705 165.925 160.195L170.09 144.555H163.46L167.115 130.87H173.745L177.995 115.23C178.08 114.72 178.42 114.125 178.93 113.445C179.44 112.765 179.95 112.17 180.63 111.575C181.31 111.065 181.99 110.555 182.67 110.13C183.35 109.79 184.03 109.535 184.625 109.535H205.535L200.86 126.705H195.335L189.47 148.72ZM203.573 148.72L209.438 126.705H203.913L208.588 109.535H229.498C230.008 109.535 230.518 109.79 231.028 110.13C231.538 110.555 231.963 111.065 232.303 111.575C232.643 112.17 232.813 112.765 232.983 113.445C233.153 114.125 233.153 114.72 233.068 115.23L228.818 130.87H235.448L231.793 144.555H225.163L220.998 160.195C220.828 160.705 220.488 161.3 219.978 161.98C219.468 162.66 218.958 163.34 218.278 163.85C217.598 164.445 216.918 164.955 216.238 165.295C215.558 165.72 214.878 165.89 214.368 165.89H193.458L198.048 148.72H203.573Z" fill="white"/>
<path d="M189.47 148.72L187.537 148.205L186.867 150.72H189.47V148.72ZM194.995 148.72L196.927 149.237L197.6 146.72H194.995V148.72ZM190.405 165.89V167.89H191.941L192.337 166.407L190.405 165.89ZM167.88 165.295L169.16 163.759L169.078 163.69L168.989 163.631L167.88 165.295ZM166.605 163.85L168.341 162.858L168.307 162.798L168.269 162.741L166.605 163.85ZM165.84 161.98L163.9 162.465L163.9 162.465L165.84 161.98ZM165.925 160.195L167.822 160.827L167.842 160.769L167.858 160.71L165.925 160.195ZM170.09 144.555L172.023 145.07L172.692 142.555H170.09V144.555ZM163.46 144.555L161.528 144.039L160.856 146.555H163.46V144.555ZM167.115 130.87V128.87H165.579L165.183 130.354L167.115 130.87ZM173.745 130.87V132.87H175.274L175.675 131.394L173.745 130.87ZM177.995 115.23L179.925 115.754L179.951 115.658L179.968 115.559L177.995 115.23ZM178.93 113.445L180.53 114.645L180.53 114.645L178.93 113.445ZM180.63 111.575L179.43 109.975L179.37 110.02L179.313 110.07L180.63 111.575ZM182.67 110.13L181.776 108.341L181.691 108.384L181.61 108.434L182.67 110.13ZM205.535 109.535L207.465 110.06L208.152 107.535H205.535V109.535ZM200.86 126.705V128.705H202.388L202.79 127.23L200.86 126.705ZM195.335 126.705V124.705H193.798L193.402 126.19L195.335 126.705ZM189.47 150.72H194.995V146.72H189.47V150.72ZM193.063 148.203L188.473 165.373L192.337 166.407L196.927 149.237L193.063 148.203ZM190.405 163.89H169.495V167.89H190.405V163.89ZM169.495 163.89C169.394 163.89 169.351 163.877 169.333 163.87C169.314 163.863 169.26 163.842 169.16 163.759L166.6 166.831C167.473 167.559 168.437 167.89 169.495 167.89V163.89ZM168.989 163.631C168.812 163.513 168.579 163.273 168.341 162.858L164.869 164.842C165.311 165.617 165.928 166.397 166.771 166.959L168.989 163.631ZM168.269 162.741C168.105 162.494 167.921 162.057 167.78 161.495L163.9 162.465C164.099 163.263 164.425 164.186 164.941 164.959L168.269 162.741ZM167.78 161.495C167.749 161.369 167.743 161.263 167.75 161.166C167.757 161.066 167.78 160.956 167.822 160.827L164.028 159.563C163.768 160.342 163.617 161.332 163.9 162.465L167.78 161.495ZM167.858 160.71L172.023 145.07L168.157 144.04L163.992 159.68L167.858 160.71ZM170.09 142.555H163.46V146.555H170.09V142.555ZM165.392 145.071L169.047 131.386L165.183 130.354L161.528 144.039L165.392 145.071ZM167.115 132.87H173.745V128.87H167.115V132.87ZM175.675 131.394L179.925 115.754L176.065 114.706L171.815 130.346L175.675 131.394ZM179.968 115.559C179.962 115.592 179.968 115.53 180.066 115.346C180.161 115.168 180.31 114.938 180.53 114.645L177.33 112.245C176.797 112.955 176.192 113.881 176.022 114.901L179.968 115.559ZM180.53 114.645C180.986 114.037 181.403 113.556 181.947 113.08L179.313 110.07C178.497 110.784 177.894 111.493 177.33 112.245L180.53 114.645ZM181.83 113.175C182.524 112.654 183.135 112.198 183.73 111.826L181.61 108.434C180.845 108.912 180.096 109.476 179.43 109.975L181.83 113.175ZM183.564 111.919C184.196 111.603 184.523 111.535 184.625 111.535V107.535C183.537 107.535 182.504 107.977 181.776 108.341L183.564 111.919ZM184.625 111.535H205.535V107.535H184.625V111.535ZM203.605 109.01L198.93 126.18L202.79 127.23L207.465 110.06L203.605 109.01ZM200.86 124.705H195.335V128.705H200.86V124.705ZM193.402 126.19L187.537 148.205L191.403 149.235L197.268 127.22L193.402 126.19ZM203.573 148.72V150.72H205.11L205.506 149.235L203.573 148.72ZM209.438 126.705L211.371 127.22L212.041 124.705H209.438V126.705ZM203.913 126.705L201.984 126.18L201.296 128.705H203.913V126.705ZM208.588 109.535V107.535H207.06L206.659 109.01L208.588 109.535ZM231.028 110.13L232.309 108.594L232.227 108.525L232.138 108.466L231.028 110.13ZM232.303 111.575L234.04 110.583L234.006 110.523L233.967 110.466L232.303 111.575ZM232.983 113.445L234.924 112.96L234.924 112.96L232.983 113.445ZM233.068 115.23L234.998 115.754L235.025 115.658L235.041 115.559L233.068 115.23ZM228.818 130.87L226.888 130.346L226.202 132.87H228.818V130.87ZM235.448 130.87L237.381 131.386L238.053 128.87H235.448V130.87ZM231.793 144.555V146.555H233.329L233.726 145.071L231.793 144.555ZM225.163 144.555V142.555H223.626L223.231 144.04L225.163 144.555ZM220.998 160.195L222.896 160.827L222.915 160.769L222.931 160.71L220.998 160.195ZM219.978 161.98L218.378 160.78L218.378 160.78L219.978 161.98ZM218.278 163.85L217.078 162.25L217.018 162.295L216.961 162.345L218.278 163.85ZM216.238 165.295L215.344 163.506L215.259 163.549L215.178 163.599L216.238 165.295ZM193.458 165.89L191.526 165.373L190.853 167.89H193.458V165.89ZM198.048 148.72V146.72H196.513L196.116 148.203L198.048 148.72ZM205.506 149.235L211.371 127.22L207.506 126.19L201.641 148.205L205.506 149.235ZM209.438 124.705H203.913V128.705H209.438V124.705ZM205.843 127.23L210.518 110.06L206.659 109.01L201.984 126.18L205.843 127.23ZM208.588 111.535H229.498V107.535H208.588V111.535ZM229.498 111.535C229.419 111.535 229.408 111.515 229.494 111.551C229.584 111.589 229.719 111.661 229.919 111.794L232.138 108.466C231.571 108.088 230.637 107.535 229.498 107.535V111.535ZM229.748 111.666C230.078 111.942 230.38 112.296 230.639 112.684L233.967 110.466C233.546 109.834 232.998 109.168 232.309 108.594L229.748 111.666ZM230.567 112.567C230.761 112.908 230.879 113.273 231.043 113.93L234.924 112.96C234.748 112.257 234.525 111.432 234.04 110.583L230.567 112.567ZM231.043 113.93C231.144 114.333 231.137 114.65 231.096 114.901L235.041 115.559C235.169 114.79 235.163 113.917 234.924 112.96L231.043 113.93ZM231.138 114.706L226.888 130.346L230.748 131.394L234.998 115.754L231.138 114.706ZM228.818 132.87H235.448V128.87H228.818V132.87ZM233.516 130.354L229.861 144.039L233.726 145.071L237.381 131.386L233.516 130.354ZM231.793 142.555H225.163V146.555H231.793V142.555ZM223.231 144.04L219.066 159.68L222.931 160.71L227.096 145.07L223.231 144.04ZM219.101 159.563C219.027 159.786 218.825 160.184 218.378 160.78L221.578 163.18C222.151 162.416 222.63 161.624 222.896 160.827L219.101 159.563ZM218.378 160.78C217.838 161.5 217.492 161.94 217.078 162.25L219.478 165.45C220.425 164.74 221.099 163.82 221.578 163.18L218.378 160.78ZM216.961 162.345C216.337 162.891 215.804 163.276 215.344 163.506L217.133 167.084C218.032 166.634 218.86 165.999 219.595 165.355L216.961 162.345ZM215.178 163.599C214.787 163.844 214.471 163.89 214.368 163.89V167.89C215.286 167.89 216.33 167.596 217.298 166.991L215.178 163.599ZM214.368 163.89H193.458V167.89H214.368V163.89ZM195.391 166.407L199.981 149.237L196.116 148.203L191.526 165.373L195.391 166.407ZM198.048 150.72H203.573V146.72H198.048V150.72Z" fill="#76FF03" mask="url(#path-3-inside-2_13_28)"/>
</g>
<g filter="url(#filter1_d_13_28)">
<mask id="path-5-inside-3_13_28" fill="white">
<path d="M157.168 77.936L153.648 90.928H137.584L134.64 102H119.152L128.176 68.336C128.304 67.952 128.56 67.504 128.944 66.992C129.328 66.48 129.712 66.032 130.224 65.584C130.736 65.136 131.248 64.752 131.76 64.432C132.272 64.176 132.784 63.984 133.232 63.984H160.816L157.36 76.976H141.36L141.104 77.936H157.168ZM171.267 91.76L168.515 102H153.027L162.051 68.336C162.179 67.952 162.435 67.504 162.819 66.992C163.203 66.48 163.587 66.032 164.099 65.584C164.611 65.136 165.123 64.752 165.635 64.432C166.147 64.176 166.659 63.984 167.107 63.984H192.771C193.155 63.984 193.603 64.176 193.987 64.432C194.371 64.752 194.691 65.136 194.947 65.584C195.203 66.032 195.331 66.48 195.459 66.992C195.587 67.504 195.587 67.952 195.459 68.336L186.435 102H171.011L173.763 91.76H171.267ZM177.795 77.04H175.171L174.659 78.768H177.283L177.795 77.04ZM250.283 63.984L240.107 102H224.747L231.467 76.976H228.843L222.123 102H206.699L213.419 76.976H210.859L204.139 102H188.715L197.739 68.336C197.867 67.952 198.059 67.504 198.443 66.992C198.827 66.48 199.211 66.032 199.723 65.584C200.235 65.136 200.747 64.752 201.259 64.432C201.771 64.176 202.283 63.984 202.731 63.984H250.283ZM285.902 102L296.078 63.984H311.502L304.782 89.072H307.342L314.062 63.984H329.486L320.462 97.712C320.334 98.096 320.078 98.544 319.694 99.056C319.31 99.568 318.926 100.08 318.414 100.464C317.902 100.912 317.39 101.296 316.878 101.552C316.366 101.872 315.854 102 315.47 102H285.902ZM325.11 89.072H343.158L343.414 88.048H327.926C327.67 88.048 327.478 87.92 327.286 87.664C327.03 87.408 326.838 87.152 326.646 86.768C326.454 86.384 326.326 86.064 326.262 85.68C326.134 85.36 326.134 85.104 326.198 84.912L330.678 68.016C330.742 67.632 330.998 67.248 331.382 66.8C331.766 66.352 332.214 65.904 332.726 65.456C333.238 65.072 333.75 64.688 334.326 64.432C334.838 64.176 335.35 63.984 335.734 63.984H365.302L361.846 76.976H343.862L343.606 77.936H357.174C357.622 77.936 358.069 78.128 358.518 78.384C358.902 78.704 359.286 79.088 359.606 79.472C359.926 79.92 360.182 80.368 360.31 80.88C360.438 81.392 360.502 81.776 360.438 82.16L356.15 98.16C356.022 98.608 355.701 99.056 355.318 99.504C354.934 99.952 354.422 100.336 353.91 100.72C353.398 101.104 352.822 101.424 352.31 101.68C351.734 101.936 351.222 102 350.838 102H321.654L325.11 89.072Z"/>
</mask>
<path d="M157.168 77.936L153.648 90.928H137.584L134.64 102H119.152L128.176 68.336C128.304 67.952 128.56 67.504 128.944 66.992C129.328 66.48 129.712 66.032 130.224 65.584C130.736 65.136 131.248 64.752 131.76 64.432C132.272 64.176 132.784 63.984 133.232 63.984H160.816L157.36 76.976H141.36L141.104 77.936H157.168ZM171.267 91.76L168.515 102H153.027L162.051 68.336C162.179 67.952 162.435 67.504 162.819 66.992C163.203 66.48 163.587 66.032 164.099 65.584C164.611 65.136 165.123 64.752 165.635 64.432C166.147 64.176 166.659 63.984 167.107 63.984H192.771C193.155 63.984 193.603 64.176 193.987 64.432C194.371 64.752 194.691 65.136 194.947 65.584C195.203 66.032 195.331 66.48 195.459 66.992C195.587 67.504 195.587 67.952 195.459 68.336L186.435 102H171.011L173.763 91.76H171.267ZM177.795 77.04H175.171L174.659 78.768H177.283L177.795 77.04ZM250.283 63.984L240.107 102H224.747L231.467 76.976H228.843L222.123 102H206.699L213.419 76.976H210.859L204.139 102H188.715L197.739 68.336C197.867 67.952 198.059 67.504 198.443 66.992C198.827 66.48 199.211 66.032 199.723 65.584C200.235 65.136 200.747 64.752 201.259 64.432C201.771 64.176 202.283 63.984 202.731 63.984H250.283ZM285.902 102L296.078 63.984H311.502L304.782 89.072H307.342L314.062 63.984H329.486L320.462 97.712C320.334 98.096 320.078 98.544 319.694 99.056C319.31 99.568 318.926 100.08 318.414 100.464C317.902 100.912 317.39 101.296 316.878 101.552C316.366 101.872 315.854 102 315.47 102H285.902ZM325.11 89.072H343.158L343.414 88.048H327.926C327.67 88.048 327.478 87.92 327.286 87.664C327.03 87.408 326.838 87.152 326.646 86.768C326.454 86.384 326.326 86.064 326.262 85.68C326.134 85.36 326.134 85.104 326.198 84.912L330.678 68.016C330.742 67.632 330.998 67.248 331.382 66.8C331.766 66.352 332.214 65.904 332.726 65.456C333.238 65.072 333.75 64.688 334.326 64.432C334.838 64.176 335.35 63.984 335.734 63.984H365.302L361.846 76.976H343.862L343.606 77.936H357.174C357.622 77.936 358.069 78.128 358.518 78.384C358.902 78.704 359.286 79.088 359.606 79.472C359.926 79.92 360.182 80.368 360.31 80.88C360.438 81.392 360.502 81.776 360.438 82.16L356.15 98.16C356.022 98.608 355.701 99.056 355.318 99.504C354.934 99.952 354.422 100.336 353.91 100.72C353.398 101.104 352.822 101.424 352.31 101.68C351.734 101.936 351.222 102 350.838 102H321.654L325.11 89.072Z" fill="white"/>
<path d="M157.168 77.936L159.098 78.459L159.782 75.936H157.168V77.936ZM153.648 90.928V92.928H155.178L155.578 91.451L153.648 90.928ZM137.584 90.928V88.928H136.046L135.651 90.4141L137.584 90.928ZM134.64 102V104H136.178L136.573 102.514L134.64 102ZM119.152 102L117.22 101.482L116.545 104H119.152V102ZM128.176 68.336L126.279 67.7035L126.26 67.7603L126.244 67.8182L128.176 68.336ZM128.944 66.992L127.344 65.792L127.344 65.792L128.944 66.992ZM130.224 65.584L131.541 67.0892L131.541 67.0892L130.224 65.584ZM131.76 64.432L130.866 62.6431L130.781 62.6856L130.7 62.736L131.76 64.432ZM160.816 63.984L162.749 64.4981L163.418 61.984H160.816V63.984ZM157.36 76.976V78.976H158.898L159.293 77.4901L157.36 76.976ZM141.36 76.976V74.976H139.823L139.428 76.4607L141.36 76.976ZM141.104 77.936L139.172 77.4207L138.501 79.936H141.104V77.936ZM155.238 77.413L151.718 90.405L155.578 91.451L159.098 78.459L155.238 77.413ZM153.648 88.928H137.584V92.928H153.648V88.928ZM135.651 90.4141L132.707 101.486L136.573 102.514L139.517 91.4419L135.651 90.4141ZM134.64 100H119.152V104H134.64V100ZM121.084 102.518L130.108 68.8538L126.244 67.8182L117.22 101.482L121.084 102.518ZM130.073 68.9685C130.106 68.8714 130.223 68.6198 130.544 68.192L127.344 65.792C126.897 66.3882 126.502 67.0326 126.279 67.7035L130.073 68.9685ZM130.544 68.192C130.874 67.7523 131.165 67.4182 131.541 67.0892L128.907 64.0788C128.259 64.6458 127.782 65.2077 127.344 65.792L130.544 68.192ZM131.541 67.0892C131.983 66.7028 132.409 66.3848 132.82 66.128L130.7 62.736C130.087 63.1192 129.49 63.5691 128.907 64.0788L131.541 67.0892ZM132.654 66.2209C132.857 66.1195 133.015 66.0538 133.134 66.0154C133.258 65.9753 133.283 65.984 133.232 65.984V61.984C132.291 61.984 131.426 62.3632 130.866 62.6431L132.654 66.2209ZM133.232 65.984H160.816V61.984H133.232V65.984ZM158.883 63.4699L155.427 76.4619L159.293 77.4901L162.749 64.4981L158.883 63.4699ZM157.36 74.976H141.36V78.976H157.36V74.976ZM139.428 76.4607L139.172 77.4207L143.036 78.4513L143.292 77.4913L139.428 76.4607ZM141.104 79.936H157.168V75.936H141.104V79.936ZM171.267 91.76V89.76H169.734L169.336 91.2409L171.267 91.76ZM168.515 102V104H170.048L170.446 102.519L168.515 102ZM153.027 102L151.095 101.482L150.42 104H153.027V102ZM162.051 68.336L160.154 67.7035L160.135 67.7603L160.119 67.8182L162.051 68.336ZM162.819 66.992L161.219 65.792L161.219 65.792L162.819 66.992ZM164.099 65.584L165.416 67.0892L165.416 67.0892L164.099 65.584ZM165.635 64.432L164.741 62.6431L164.656 62.6856L164.575 62.736L165.635 64.432ZM193.987 64.432L195.267 62.8956L195.185 62.8272L195.096 62.7679L193.987 64.432ZM194.947 65.584L193.211 66.5763L193.211 66.5763L194.947 65.584ZM195.459 66.992L197.399 66.5069L197.399 66.5069L195.459 66.992ZM195.459 68.336L193.562 67.7035L193.543 67.7603L193.527 67.8182L195.459 68.336ZM186.435 102V104H187.969L188.367 102.518L186.435 102ZM171.011 102L169.08 101.481L168.403 104H171.011V102ZM173.763 91.76L175.694 92.2791L176.371 89.76H173.763V91.76ZM177.795 77.04L179.713 77.6082L180.474 75.04H177.795V77.04ZM175.171 77.04V75.04H173.678L173.253 76.4718L175.171 77.04ZM174.659 78.768L172.741 78.1998L171.98 80.768H174.659V78.768ZM177.283 78.768V80.768H178.776L179.201 79.3362L177.283 78.768ZM169.336 91.2409L166.584 101.481L170.446 102.519L173.198 92.2791L169.336 91.2409ZM168.515 100H153.027V104H168.515V100ZM154.959 102.518L163.983 68.8538L160.119 67.8182L151.095 101.482L154.959 102.518ZM163.948 68.9685C163.981 68.8714 164.098 68.6198 164.419 68.192L161.219 65.792C160.772 66.3882 160.377 67.0326 160.154 67.7035L163.948 68.9685ZM164.419 68.192C164.749 67.7523 165.04 67.4182 165.416 67.0892L162.782 64.0788C162.134 64.6458 161.657 65.2077 161.219 65.792L164.419 68.192ZM165.416 67.0892C165.858 66.7028 166.284 66.3848 166.695 66.128L164.575 62.736C163.962 63.1192 163.365 63.5691 162.782 64.0788L165.416 67.0892ZM166.529 66.2209C166.732 66.1195 166.89 66.0538 167.009 66.0154C167.133 65.9753 167.158 65.984 167.107 65.984V61.984C166.166 61.984 165.301 62.3632 164.741 62.6431L166.529 66.2209ZM167.107 65.984H192.771V61.984H167.107V65.984ZM192.771 65.984C192.702 65.984 192.66 65.9757 192.647 65.973C192.634 65.9702 192.639 65.9701 192.661 65.9787C192.683 65.987 192.714 66.0008 192.753 66.0216C192.792 66.0422 192.834 66.0673 192.878 66.0961L195.096 62.7679C194.574 62.4195 193.729 61.984 192.771 61.984V65.984ZM192.707 65.9684C192.901 66.1308 193.069 66.3286 193.211 66.5763L196.683 64.5917C196.313 63.9434 195.841 63.3732 195.267 62.8956L192.707 65.9684ZM193.211 66.5763C193.321 66.7697 193.397 66.9885 193.519 67.4771L197.399 66.5069C197.265 65.9715 197.085 65.2943 196.683 64.5917L193.211 66.5763ZM193.519 67.4771C193.582 67.7303 193.538 67.7748 193.562 67.7035L197.356 68.9684C197.636 68.1292 197.592 67.2777 197.399 66.5069L193.519 67.4771ZM193.527 67.8182L184.503 101.482L188.367 102.518L197.391 68.8538L193.527 67.8182ZM186.435 100H171.011V104H186.435V100ZM172.942 102.519L175.694 92.2791L171.832 91.2409L169.08 101.481L172.942 102.519ZM173.763 89.76H171.267V93.76H173.763V89.76ZM177.795 75.04H175.171V79.04H177.795V75.04ZM173.253 76.4718L172.741 78.1998L176.577 79.3362L177.089 77.6082L173.253 76.4718ZM174.659 80.768H177.283V76.768H174.659V80.768ZM179.201 79.3362L179.713 77.6082L175.877 76.4718L175.365 78.1998L179.201 79.3362ZM250.283 63.984L252.214 64.5011L252.888 61.984H250.283V63.984ZM240.107 102V104H241.642L242.038 102.517L240.107 102ZM224.747 102L222.815 101.481L222.139 104H224.747V102ZM231.467 76.976L233.398 77.4947L234.074 74.976H231.467V76.976ZM228.843 76.976V74.976H227.309L226.911 76.4573L228.843 76.976ZM222.123 102V104H223.656L224.054 102.519L222.123 102ZM206.699 102L204.767 101.481L204.091 104H206.699V102ZM213.419 76.976L215.35 77.4947L216.026 74.976H213.419V76.976ZM210.859 76.976V74.976H209.325L208.927 76.4573L210.859 76.976ZM204.139 102V104H205.672L206.07 102.519L204.139 102ZM188.715 102L186.783 101.482L186.108 104H188.715V102ZM197.739 68.336L195.841 67.7035L195.822 67.7603L195.807 67.8182L197.739 68.336ZM198.443 66.992L196.843 65.792L196.842 65.792L198.443 66.992ZM199.723 65.584L201.04 67.0892L201.04 67.0892L199.723 65.584ZM201.259 64.432L200.364 62.6431L200.279 62.6856L200.199 62.736L201.259 64.432ZM248.351 63.4669L238.175 101.483L242.038 102.517L252.214 64.5011L248.351 63.4669ZM240.107 100H224.747V104H240.107V100ZM226.678 102.519L233.398 77.4947L229.535 76.4573L222.815 101.481L226.678 102.519ZM231.467 74.976H228.843V78.976H231.467V74.976ZM226.911 76.4573L220.191 101.481L224.054 102.519L230.774 77.4947L226.911 76.4573ZM222.123 100H206.699V104H222.123V100ZM208.63 102.519L215.35 77.4947L211.487 76.4573L204.767 101.481L208.63 102.519ZM213.419 74.976H210.859V78.976H213.419V74.976ZM208.927 76.4573L202.207 101.481L206.07 102.519L212.79 77.4947L208.927 76.4573ZM204.139 100H188.715V104H204.139V100ZM190.646 102.518L199.67 68.8538L195.807 67.8182L186.783 101.482L190.646 102.518ZM199.636 68.9685C199.713 68.7369 199.816 68.4934 200.043 68.192L196.842 65.792C196.301 66.5146 196.02 67.1671 195.841 67.7035L199.636 68.9685ZM200.042 68.192C200.372 67.7523 200.663 67.4182 201.04 67.0892L198.405 64.0788C197.758 64.6458 197.281 65.2077 196.843 65.792L200.042 68.192ZM201.04 67.0892C201.481 66.7028 201.908 66.3848 202.318 66.128L200.199 62.736C199.585 63.1192 198.988 63.5691 198.405 64.0788L201.04 67.0892ZM202.153 66.2209C202.356 66.1195 202.513 66.0538 202.633 66.0154C202.757 65.9753 202.781 65.984 202.731 65.984V61.984C201.79 61.984 200.924 62.3632 200.364 62.6431L202.153 66.2209ZM202.731 65.984H250.283V61.984H202.731V65.984ZM285.902 102L283.97 101.483L283.296 104H285.902V102ZM296.078 63.984V61.984H294.543L294.146 63.4669L296.078 63.984ZM311.502 63.984L313.434 64.5015L314.108 61.984H311.502V63.984ZM304.782 89.072L302.85 88.5545L302.176 91.072H304.782V89.072ZM307.342 89.072V91.072H308.877L309.274 89.5895L307.342 89.072ZM314.062 63.984V61.984H312.527L312.13 63.4665L314.062 63.984ZM329.486 63.984L331.418 64.5009L332.091 61.984H329.486V63.984ZM320.462 97.712L322.359 98.3444L322.378 98.2872L322.394 98.2289L320.462 97.712ZM319.694 99.056L318.094 97.856L318.094 97.856L319.694 99.056ZM318.414 100.464L317.214 98.864L317.154 98.9092L317.097 98.9588L318.414 100.464ZM316.878 101.552L315.984 99.7631L315.899 99.8056L315.818 99.856L316.878 101.552ZM287.834 102.517L298.01 64.5011L294.146 63.4669L283.97 101.483L287.834 102.517ZM296.078 65.984H311.502V61.984H296.078V65.984ZM309.57 63.4665L302.85 88.5545L306.714 89.5895L313.434 64.5015L309.57 63.4665ZM304.782 91.072H307.342V87.072H304.782V91.072ZM309.274 89.5895L315.994 64.5015L312.13 63.4665L305.41 88.5545L309.274 89.5895ZM314.062 65.984H329.486V61.984H314.062V65.984ZM327.554 63.4671L318.53 97.1951L322.394 98.2289L331.418 64.5009L327.554 63.4671ZM318.565 97.0796C318.532 97.1766 318.415 97.4282 318.094 97.856L321.294 100.256C321.741 99.6598 322.136 99.0154 322.359 98.3444L318.565 97.0796ZM318.094 97.856C317.68 98.4083 317.459 98.6801 317.214 98.864L319.614 102.064C320.393 101.48 320.94 100.728 321.294 100.256L318.094 97.856ZM317.097 98.9588C316.64 99.3583 316.276 99.617 315.984 99.7631L317.772 103.341C318.504 102.975 319.164 102.466 319.731 101.969L317.097 98.9588ZM315.818 99.856C315.714 99.9212 315.621 99.9594 315.551 99.9803C315.478 100.002 315.447 100 315.47 100V104C316.262 104 317.137 103.748 317.938 103.248L315.818 99.856ZM315.47 100H285.902V104H315.47V100ZM325.11 89.072V87.072H323.574L323.177 88.5555L325.11 89.072ZM343.158 89.072V91.072H344.719L345.098 89.5571L343.158 89.072ZM343.414 88.048L345.354 88.5331L345.975 86.048H343.414V88.048ZM327.286 87.664L328.885 86.464L328.8 86.3503L328.7 86.2498L327.286 87.664ZM326.646 86.768L324.857 87.6624L324.857 87.6624L326.646 86.768ZM326.262 85.68L328.234 85.3512L328.199 85.1379L328.118 84.9372L326.262 85.68ZM326.198 84.912L328.095 85.5445L328.115 85.4851L328.131 85.4246L326.198 84.912ZM330.678 68.016L332.611 68.5286L332.635 68.4376L332.65 68.3448L330.678 68.016ZM331.382 66.8L332.9 68.1016L332.9 68.1016L331.382 66.8ZM332.726 65.456L331.526 63.856L331.465 63.9012L331.408 63.9508L332.726 65.456ZM334.326 64.432L335.138 66.2596L335.179 66.2412L335.22 66.2209L334.326 64.432ZM365.302 63.984L367.234 64.4981L367.903 61.984H365.302V63.984ZM361.846 76.976V78.976H363.383L363.778 77.4901L361.846 76.976ZM343.862 76.976V74.976H342.325L341.929 76.4607L343.862 76.976ZM343.606 77.936L341.673 77.4207L341.002 79.936H343.606V77.936ZM358.518 78.384L359.798 76.8476L359.663 76.7349L359.51 76.6475L358.518 78.384ZM359.606 79.472L361.233 78.3095L361.19 78.2489L361.142 78.1916L359.606 79.472ZM360.31 80.88L358.369 81.3651L358.369 81.3651L360.31 80.88ZM360.438 82.16L362.369 82.6777L362.394 82.5843L362.41 82.4888L360.438 82.16ZM356.15 98.16L358.073 98.7094L358.077 98.6936L358.081 98.6777L356.15 98.16ZM355.318 99.504L356.836 100.806L356.836 100.806L355.318 99.504ZM353.91 100.72L352.71 99.12L352.709 99.12L353.91 100.72ZM352.31 101.68L353.122 103.508L353.163 103.489L353.204 103.469L352.31 101.68ZM321.654 102L319.721 101.483L319.049 104H321.654V102ZM325.11 91.072H343.158V87.072H325.11V91.072ZM345.098 89.5571L345.354 88.5331L341.473 87.5629L341.217 88.5869L345.098 89.5571ZM343.414 86.048H327.926V90.048H343.414V86.048ZM327.926 86.048C328.162 86.048 328.413 86.1156 328.63 86.2487C328.814 86.3622 328.894 86.4756 328.885 86.464L325.686 88.864C326.084 89.3955 326.801 90.048 327.926 90.048V86.048ZM328.7 86.2498C328.594 86.1439 328.529 86.063 328.434 85.8736L324.857 87.6624C325.146 88.241 325.465 88.6721 325.871 89.0782L328.7 86.2498ZM328.434 85.8736C328.285 85.5755 328.252 85.4576 328.234 85.3512L324.289 86.0088C324.399 86.6704 324.622 87.1925 324.857 87.6624L328.434 85.8736ZM328.118 84.9372C328.13 84.9654 328.209 85.2027 328.095 85.5445L324.3 84.2795C324.058 85.0053 324.137 85.7546 324.405 86.4228L328.118 84.9372ZM328.131 85.4246L332.611 68.5286L328.744 67.5034L324.264 84.3994L328.131 85.4246ZM332.65 68.3448C332.629 68.4731 332.589 68.5198 332.624 68.461C332.662 68.3985 332.741 68.2871 332.9 68.1016L329.863 65.4984C329.463 65.9656 328.867 66.7139 328.705 67.6872L332.65 68.3448ZM332.9 68.1016C333.213 67.7362 333.592 67.3555 334.043 66.9611L331.408 63.9508C330.835 64.4525 330.318 64.9678 329.863 65.4984L332.9 68.1016ZM333.925 67.056C334.471 66.647 334.804 66.408 335.138 66.2596L333.513 62.6044C332.695 62.968 332.004 63.497 331.526 63.856L333.925 67.056ZM335.22 66.2209C335.423 66.1193 335.588 66.05 335.71 66.0094C335.769 65.9896 335.804 65.9816 335.816 65.9792C335.83 65.9763 335.799 65.984 335.734 65.984V61.984C334.84 61.984 333.959 62.3793 333.431 62.6431L335.22 66.2209ZM335.734 65.984H365.302V61.984H335.734V65.984ZM363.369 63.4699L359.913 76.4619L363.778 77.4901L367.234 64.4981L363.369 63.4699ZM361.846 74.976H343.862V78.976H361.846V74.976ZM341.929 76.4607L341.673 77.4207L345.538 78.4513L345.794 77.4913L341.929 76.4607ZM343.606 79.936H357.174V75.936H343.606V79.936ZM357.174 79.936C357.111 79.936 357.104 79.9228 357.173 79.9475C357.245 79.9733 357.357 80.0242 357.525 80.1205L359.51 76.6475C358.991 76.3509 358.163 75.936 357.174 75.936V79.936ZM357.237 79.9204C357.528 80.163 357.827 80.4613 358.069 80.7524L361.142 78.1916C360.745 77.7147 360.275 77.245 359.798 76.8476L357.237 79.9204ZM357.978 80.6345C358.231 80.9887 358.328 81.2004 358.369 81.3651L362.25 80.3949C362.035 79.5356 361.62 78.8513 361.233 78.3095L357.978 80.6345ZM358.369 81.3651C358.426 81.5939 358.45 81.7188 358.459 81.7972C358.466 81.8616 358.46 81.8612 358.465 81.8312L362.41 82.4888C362.547 81.6692 362.386 80.9395 362.25 80.3949L358.369 81.3651ZM358.506 81.6423L354.218 97.6423L358.081 98.6777L362.369 82.6777L358.506 81.6423ZM354.226 97.6106C354.233 97.5883 354.224 97.6311 354.147 97.7505C354.072 97.8677 353.96 98.0145 353.799 98.2024L356.836 100.806C357.245 100.329 357.817 99.6021 358.073 98.7094L354.226 97.6106ZM353.799 98.2024C353.584 98.4527 353.262 98.7054 352.71 99.12L355.109 102.32C355.581 101.967 356.283 101.451 356.836 100.806L353.799 98.2024ZM352.709 99.12C352.335 99.4012 351.878 99.6595 351.415 99.8911L353.204 103.469C353.765 103.189 354.46 102.807 355.11 102.32L352.709 99.12ZM351.497 99.8524C351.22 99.9757 350.993 100 350.838 100V104C351.45 104 352.247 103.896 353.122 103.508L351.497 99.8524ZM350.838 100H321.654V104H350.838V100ZM323.586 102.517L327.042 89.5885L323.177 88.5555L319.721 101.483L323.586 102.517Z" fill="#76FF03" mask="url(#path-5-inside-3_13_28)"/>
</g>
<path d="M268.302 75.0887C268.21 74.9225 268.111 74.7435 268.004 74.5528C267.339 73.3632 266.412 71.7335 265.383 69.9516C264.999 69.287 264.655 68.6893 264.346 68.1514C263.787 67.1791 263.341 66.4023 262.973 65.7796C262.389 64.792 262.053 64.2807 261.825 64.0211C261.825 64.0203 261.824 64.0194 261.823 64.0186C261.823 64.0188 261.822 64.0191 261.821 64.0193C261.793 64.0319 261.757 64.048 261.717 64.0665C261.597 64.1209 261.432 64.1959 261.264 64.2634L261.264 64.2634C256.651 66.111 253.191 69.2494 251.076 73.4706L268.302 75.0887ZM268.302 75.0887C267.824 75.0952 267.253 75.1013 266.613 75.107C264.641 75.1244 262.016 75.1375 259.392 75.1444C256.769 75.1514 254.148 75.1522 252.183 75.1451C251.467 75.1426 250.84 75.139 250.332 75.1343M268.302 75.0887L250.332 75.1343M250.332 75.1343C250.589 74.5204 250.883 73.8565 251.076 73.4707L250.332 75.1343ZM266.529 89.2612L267.421 90.8297C268.204 92.2064 269.862 95.1225 271.107 97.3099C272.351 99.4973 273.432 101.287 273.508 101.287C275.145 101.287 280.281 98.1756 282.433 95.8802M266.529 89.2612L282.433 95.8802M266.529 89.2612C266.552 89.2607 266.578 89.2601 266.606 89.2596C266.768 89.2564 266.999 89.2535 267.291 89.2509C267.409 89.2499 267.536 89.2489 267.672 89.248M266.529 89.2612L267.106 88.2526M282.433 95.8802L281.703 95.1963M282.433 95.8802L281.703 95.1963M267.672 89.248L267.106 88.2526M267.672 89.248L268.29 90.3354L267.481 90.7954L268.29 90.3354C269.073 91.712 270.731 94.628 271.976 96.8154L271.976 96.8154C272.595 97.9039 273.172 98.8904 273.601 99.6018C273.742 99.8339 273.864 100.034 273.967 100.197C274.199 100.129 274.506 100.017 274.888 99.8495C275.583 99.5441 276.406 99.1059 277.259 98.5891C278.98 97.5466 280.716 96.2498 281.703 95.1963M267.672 89.248C268.211 89.2444 268.888 89.2417 269.664 89.2398C271.609 89.2351 274.172 89.2357 276.725 89.2403C279.279 89.245 281.824 89.2538 283.733 89.2655C284.484 89.2702 285.136 89.2752 285.651 89.2807C285.424 89.7534 285.107 90.3357 284.731 90.9672C283.808 92.5161 282.611 94.2276 281.703 95.1963M267.106 88.2526C270.925 88.214 286.885 88.2498 286.943 88.3086C287.049 88.414 286.963 88.7732 286.745 89.2882L267.106 88.2526ZM266.123 64.8322L266.123 64.8322C265.778 64.2371 265.458 63.6818 265.198 63.2264C265.427 63.1891 265.67 63.1523 265.913 63.1189C269.063 62.6853 273.325 63.4582 276.576 65.0909L276.576 65.0909C277.463 65.5364 278.627 66.2859 279.572 66.9845C280.035 67.326 280.423 67.6396 280.69 67.8843C280.683 67.8969 280.676 67.9097 280.668 67.9228C280.468 68.2874 280.178 68.799 279.828 69.411C279.128 70.6336 278.193 72.2422 277.253 73.8443C276.313 75.4464 275.37 77.0388 274.654 78.2292C274.515 78.4597 274.386 78.6745 274.266 78.871C273.846 78.1716 273.303 77.2492 272.721 76.2404C270.367 72.164 268.932 69.683 266.123 64.8322ZM273.999 86.019C273.947 86.0182 273.897 86.0174 273.848 86.0165C274.1 85.5754 274.399 85.0585 274.72 84.5122L274.72 84.5121C275.623 82.9717 278.009 78.8956 280.021 75.454C281.027 73.7346 281.946 72.1728 282.618 71.0419C282.76 70.8036 282.89 70.5847 283.008 70.3878C283.12 70.5453 283.239 70.7162 283.362 70.8966C283.968 71.7854 284.607 72.8232 284.937 73.4873L284.937 73.4873C285.905 75.4399 286.578 77.9565 286.857 80.3845C287.113 82.6145 287.023 84.6488 286.609 86.0472H279.767C277.09 86.0472 275.209 86.0384 273.999 86.019ZM262.073 78.3684C261.173 79.9479 259.447 82.9804 257.525 86.358L257.525 86.358C256.155 88.766 254.902 90.9544 253.987 92.5401C253.681 93.0706 253.413 93.5328 253.192 93.9129C252.797 93.4166 252.395 92.889 252.207 92.6083C249.523 88.6111 248.357 82.6099 249.351 78.3684H256.189H262.073ZM258.777 90.6473C259.758 88.9228 260.662 87.3265 261.33 86.1437C261.494 85.8536 261.643 85.5882 261.776 85.3517C264.241 89.6686 266.57 93.7778 268.293 96.8446C269.181 98.4255 269.908 99.7275 270.409 100.638C270.458 100.726 270.504 100.811 270.549 100.892C269.79 100.961 268.787 101.005 267.779 101C264.679 100.984 262.556 100.494 259.772 99.1507C258.836 98.699 257.634 97.9655 256.663 97.288C256.199 96.9642 255.808 96.6669 255.534 96.4322C255.711 96.1059 255.959 95.6551 256.263 95.108C256.908 93.9494 257.797 92.369 258.777 90.6473Z" fill="white" stroke="#76FF03" stroke-width="2"/>
<defs>
<filter id="filter0_d_13_28" x="43.4" y="106.6" width="314.68" height="67.4" filterUnits="userSpaceOnUse" color-interpolation-filters="sRGB">
<feFlood flood-opacity="0" result="BackgroundImageFix"/>
<feColorMatrix in="SourceAlpha" type="matrix" values="0 0 0 0 0 0 0 0 0 0 0 0 0 0 0 0 0 0 127 0" result="hardAlpha"/>
<feOffset dy="4"/>
<feGaussianBlur stdDeviation="2"/>
<feComposite in2="hardAlpha" operator="out"/>
<feColorMatrix type="matrix" values="0 0 0 0 0 0 0 0 0 0 0 0 0 0 0 0 0 0 0.25 0"/>
<feBlend mode="normal" in2="BackgroundImageFix" result="effect1_dropShadow_13_28"/>
<feBlend mode="normal" in="SourceGraphic" in2="effect1_dropShadow_13_28" result="shape"/>
</filter>
<filter id="filter1_d_13_28" x="115.152" y="63.984" width="254.15" height="46.016" filterUnits="userSpaceOnUse" color-interpolation-filters="sRGB">
<feFlood flood-opacity="0" result="BackgroundImageFix"/>
<feColorMatrix in="SourceAlpha" type="matrix" values="0 0 0 0 0 0 0 0 0 0 0 0 0 0 0 0 0 0 127 0" result="hardAlpha"/>
<feOffset dy="4"/>
<feGaussianBlur stdDeviation="2"/>
<feComposite in2="hardAlpha" operator="out"/>
<feColorMatrix type="matrix" values="0 0 0 0 0 0 0 0 0 0 0 0 0 0 0 0 0 0 0.25 0"/>
<feBlend mode="normal" in2="BackgroundImageFix" result="effect1_dropShadow_13_28"/>
<feBlend mode="normal" in="SourceGraphic" in2="effect1_dropShadow_13_28" result="shape"/>
</filter>
</defs>
</svg>