<svg xmlns="http://www.w3.org/2000/svg" viewBox="0 0 210 280"><g font-family="Power" font-size="16px" alignment-baseline="middle"><path d="M3.66 6.97L5.22 6.97L5.22 2.28L10.69 2.28L10.69 5.41L8.34 5.41L8.34 11.66L10.69 11.66L10.69 14.78L5.22 14.78L5.22 10.09L3.66 10.09L3.66 6.97Z" fill="rgba(0, 0, 0, 0)"/><path d="M12.47 6.97L14.03 6.97L14.03 2.28L19.50 2.28L19.50 5.41L17.16 5.41L17.16 11.66L19.50 11.66L19.50 14.78L14.03 14.78L14.03 10.09L12.47 10.09L12.47 6.97Z" fill="rgba(0, 0, 0, 0)"/><path d="M21.28 6.97L22.84 6.97L22.84 2.28L28.31 2.28L28.31 5.41L25.97 5.41L25.97 11.66L28.31 11.66L28.31 14.78L22.84 14.78L22.84 10.09L21.28 10.09L21.28 6.97Z" fill="rgba(0, 0, 0, 0)"/><path d="M30.09 6.97L31.66 6.97L31.66 2.28L37.13 2.28L37.13 5.41L34.78 5.41L34.78 11.66L37.13 11.66L37.13 14.78L31.66 14.78L31.66 10.09L30.09 10.09L30.09 6.97Z" fill="rgba(0, 0, 0, 0)"/><path d="M38.91 6.97L40.47 6.97L40.47 2.28L45.94 2.28L45.94 5.41L43.59 5.41L43.59 11.66L45.94 11.66L45.94 14.78L40.47 14.78L40.47 10.09L38.91 10.09L38.91 6.97Z" fill="rgba(0, 0, 0, 0)"/><path d="M47.72 6.97L49.28 6.97L49.28 2.28L54.75 2.28L54.75 5.41L52.41 5.41L52.41 11.66L54.75 11.66L54.75 14.78L49.28 14.78L49.28 10.09L47.72 10.09L47.72 6.97Z" fill="rgba(0, 0, 0, 0)"/><path d="M56.53 6.97L58.09 6.97L58.09 2.28L63.56 2.28L63.56 5.41L61.22 5.41L61.22 11.66L63.56 11.66L63.56 14.78L58.09 14.78L58.09 10.09L56.53 10.09L56.53 6.97Z" fill="rgba(0, 0, 0, 0)"/><path d="M65.34 6.97L66.91 6.97L66.91 2.28L72.38 2.28L72.38 5.41L70.03 5.41L70.03 11.66L72.38 11.66L72.38 14.78L66.91 14.78L66.91 10.09L65.34 10.09L65.34 6.97Z" fill="rgba(128, 255, 0, 0.00784313725490196)"/><path d="M74.16 6.97L75.72 6.97L75.72 2.28L81.19 2.28L81.19 5.41L78.84 5.41L78.84 11.66L81.19 11.66L81.19 14.78L75.72 14.78L75.72 10.09L74.16 10.09L74.16 6.97Z" fill="rgba(128, 255, 0, 0.00784313725490196)"/><path d="M82.97 6.97L84.53 6.97L84.53 2.28L90 2.28L90 5.41L87.66 5.41L87.66 11.66L90 11.66L90 14.78L84.53 14.78L84.53 10.09L82.97 10.09L82.97 6.97Z" fill="rgba(118, 255, 3, 0.32941176470588235)"/><path d="M91.78 6.97L93.34 6.97L93.34 2.28L98.81 2.28L98.81 5.41L96.47 5.41L96.47 11.66L98.81 11.66L98.81 14.78L93.34 14.78L93.34 10.09L91.78 10.09L91.78 6.97Z" fill="rgba(118, 255, 3, 1)"/><path d="M100.59 6.97L102.16 6.97L102.16 2.28L107.63 2.28L107.63 5.41L105.28 5.41L105.28 11.66L107.63 11.66L107.63 14.78L102.16 14.78L102.16 10.09L100.59 10.09L100.59 6.97Z" fill="rgba(118, 255, 3, 1)"/><path d="M109.41 6.97L110.97 6.97L110.97 2.28L116.44 2.28L116.44 5.41L114.09 5.41L114.09 11.66L116.44 11.66L116.44 14.78L110.97 14.78L110.97 10.09L109.41 10.09L109.41 6.97Z" fill="rgba(118, 255, 3, 1)"/><path d="M118.22 6.97L119.78 6.97L119.78 2.28L125.25 2.28L125.25 5.41L122.91 5.41L122.91 11.66L125.25 11.66L125.25 14.78L119.78 14.78L119.78 10.09L118.22 10.09L118.22 6.97Z" fill="rgba(118, 255, 3, 1)"/><path d="M127.03 6.97L128.59 6.97L128.59 2.28L134.06 2.28L134.06 5.41L131.72 5.41L131.72 11.66L134.06 11.66L134.06 14.78L128.59 14.78L128.59 10.09L127.03 10.09L127.03 6.97Z" fill="rgba(118, 255, 3, 1)"/><path d="M135.84 6.97L137.41 6.97L137.41 2.28L142.88 2.28L142.88 5.41L140.53 5.41L140.53 11.66L142.88 11.66L142.88 14.78L137.41 14.78L137.41 10.09L135.84 10.09L135.84 6.97Z" fill="rgba(118, 255, 3, 1)"/><path d="M144.66 6.97L146.22 6.97L146.22 2.28L151.69 2.28L151.69 5.41L149.34 5.41L149.34 11.66L151.69 11.66L151.69 14.78L146.22 14.78L146.22 10.09L144.66 10.09L144.66 6.97Z" fill="rgba(118, 255, 3, 1)"/><path d="M153.47 6.97L155.03 6.97L155.03 2.28L160.50 2.28L160.50 5.41L158.16 5.41L158.16 11.66L160.50 11.66L160.50 14.78L155.03 14.78L155.03 10.09L153.47 10.09L153.47 6.97Z" fill="rgba(118, 255, 3, 1)"/><path d="M162.28 6.97L163.84 6.97L163.84 2.28L169.31 2.28L169.31 5.41L166.97 5.41L166.97 11.66L169.31 11.66L169.31 14.78L163.84 14.78L163.84 10.09L162.28 10.09L162.28 6.97Z" fill="rgba(118, 255, 3, 1)"/><path d="M171.09 6.97L172.66 6.97L172.66 2.28L178.13 2.28L178.13 5.41L175.78 5.41L175.78 11.66L178.13 11.66L178.13 14.78L172.66 14.78L172.66 10.09L171.09 10.09L171.09 6.97Z" fill="rgba(118, 255, 3, 1)"/><path d="M179.91 6.97L181.47 6.97L181.47 2.28L186.94 2.28L186.94 5.41L184.59 5.41L184.59 11.66L186.94 11.66L186.94 14.78L181.47 14.78L181.47 10.09L179.91 10.09L179.91 6.97Z" fill="rgba(118, 255, 3, 1)"/><path d="M188.72 6.97L190.28 6.97L190.28 2.28L195.75 2.28L195.75 5.41L193.41 5.41L193.41 11.66L195.75 11.66L195.75 14.78L190.28 14.78L190.28 10.09L188.72 10.09L188.72 6.97Z" fill="rgba(118, 255, 3, 1)"/><path d="M197.53 6.97L199.09 6.97L199.09 2.28L204.56 2.28L204.56 5.41L202.22 5.41L202.22 11.66L204.56 11.66L204.56 14.78L199.09 14.78L199.09 10.09L197.53 10.09L197.53 6.97Z" fill="rgba(118, 255, 3, 0.9921568627450981)"/><path d="M3.66 20.97L5.22 20.97L5.22 16.28L10.69 16.28L10.69 19.41L8.34 19.41L8.34 25.66L10.69 25.66L10.69 28.78L5.22 28.78L5.22 24.09L3.66 24.09L3.66 20.97Z" fill="rgba(0, 0, 0, 0)"/><path d="M12.47 20.97L14.03 20.97L14.03 16.28L19.50 16.28L19.50 19.41L17.16 19.41L17.16 25.66L19.50 25.66L19.50 28.78L14.03 28.78L14.03 24.09L12.47 24.09L12.47 20.97Z" fill="rgba(0, 0, 0, 0)"/><path d="M21.28 20.97L22.84 20.97L22.84 16.28L28.31 16.28L28.31 19.41L25.97 19.41L25.97 25.66L28.31 25.66L28.31 28.78L22.84 28.78L22.84 24.09L21.28 24.09L21.28 20.97Z" fill="rgba(0, 0, 0, 0)"/><path d="M30.09 20.97L31.66 20.97L31.66 16.28L37.13 16.28L37.13 19.41L34.78 19.41L34.78 25.66L37.13 25.66L37.13 28.78L31.66 28.78L31.66 24.09L30.09 24.09L30.09 20.97Z" fill="rgba(0, 0, 0, 0)"/><path d="M38.91 20.97L40.47 20.97L40.47 16.28L45.94 16.28L45.94 19.41L43.59 19.41L43.59 25.66L45.94 25.66L45.94 28.78L40.47 28.78L40.47 24.09L38.91 24.09L38.91 20.97Z" fill="rgba(0, 0, 0, 0)"/><path d="M47.72 20.97L49.28 20.97L49.28 16.28L54.75 16.28L54.75 19.41L52.41 19.41L52.41 25.66L54.75 25.66L54.75 28.78L49.28 28.78L49.28 24.09L47.72 24.09L47.72 20.97Z" fill="rgba(0, 0, 0, 0)"/><path d="M56.53 20.97L58.09 20.97L58.09 16.28L63.56 16.28L63.56 19.41L61.22 19.41L61.22 25.66L63.56 25.66L63.56 28.78L58.09 28.78L58.09 24.09L56.53 24.09L56.53 20.97Z" fill="rgba(0, 0, 0, 0)"/><path d="M65.34 20.97L66.91 20.97L66.91 16.28L72.38 16.28L72.38 19.41L70.03 19.41L70.03 25.66L72.38 25.66L72.38 28.78L66.91 28.78L66.91 24.09L65.34 24.09L65.34 20.97Z" fill="rgba(118, 255, 0, 0.20392156862745098)"/><path d="M74.16 20.97L75.72 20.97L75.72 16.28L81.19 16.28L81.19 19.41L78.84 19.41L78.84 25.66L81.19 25.66L81.19 28.78L75.72 28.78L75.72 24.09L74.16 24.09L74.16 20.97Z" fill="rgba(118, 255, 0, 0.20392156862745098)"/><path d="M82.97 20.97L84.53 20.97L84.53 16.28L90 16.28L90 19.41L87.66 19.41L87.66 25.66L90 25.66L90 28.78L84.53 28.78L84.53 24.09L82.97 24.09L82.97 20.97Z" fill="rgba(118, 255, 3, 1)"/><path d="M91.78 20.97L93.34 20.97L93.34 16.28L98.81 16.28L98.81 19.41L96.47 19.41L96.47 25.66L98.81 25.66L98.81 28.78L93.34 28.78L93.34 24.09L91.78 24.09L91.78 20.97Z" fill="rgba(132, 252, 32, 1)"/><path d="M100.59 20.97L102.16 20.97L102.16 16.28L107.63 16.28L107.63 19.41L105.28 19.41L105.28 25.66L107.63 25.66L107.63 28.78L102.16 28.78L102.16 24.09L100.59 24.09L100.59 20.97Z" fill="rgba(132, 252, 32, 1)"/><path d="M109.41 20.97L110.97 20.97L110.97 16.28L116.44 16.28L116.44 19.41L114.09 19.41L114.09 25.66L116.44 25.66L116.44 28.78L110.97 28.78L110.97 24.09L109.41 24.09L109.41 20.97Z" fill="rgba(132, 252, 32, 1)"/><path d="M118.22 20.97L119.78 20.97L119.78 16.28L125.25 16.28L125.25 19.41L122.91 19.41L122.91 25.66L125.25 25.66L125.25 28.78L119.78 28.78L119.78 24.09L118.22 24.09L118.22 20.97Z" fill="rgba(132, 252, 32, 1)"/><path d="M127.03 20.97L128.59 20.97L128.59 16.28L134.06 16.28L134.06 19.41L131.72 19.41L131.72 25.66L134.06 25.66L134.06 28.78L128.59 28.78L128.59 24.09L127.03 24.09L127.03 20.97Z" fill="rgba(132, 252, 32, 1)"/><path d="M135.84 20.97L137.41 20.97L137.41 16.28L142.88 16.28L142.88 19.41L140.53 19.41L140.53 25.66L142.88 25.66L142.88 28.78L137.41 28.78L137.41 24.09L135.84 24.09L135.84 20.97Z" fill="rgba(132, 252, 32, 1)"/><path d="M144.66 20.97L146.22 20.97L146.22 16.28L151.69 16.28L151.69 19.41L149.34 19.41L149.34 25.66L151.69 25.66L151.69 28.78L146.22 28.78L146.22 24.09L144.66 24.09L144.66 20.97Z" fill="rgba(132, 252, 32, 1)"/><path d="M153.47 20.97L155.03 20.97L155.03 16.28L160.50 16.28L160.50 19.41L158.16 19.41L158.16 25.66L160.50 25.66L160.50 28.78L155.03 28.78L155.03 24.09L153.47 24.09L153.47 20.97Z" fill="rgba(132, 252, 32, 1)"/><path d="M162.28 20.97L163.84 20.97L163.84 16.28L169.31 16.28L169.31 19.41L166.97 19.41L166.97 25.66L169.31 25.66L169.31 28.78L163.84 28.78L163.84 24.09L162.28 24.09L162.28 20.97Z" fill="rgba(130, 252, 27, 1)"/><path d="M171.09 20.97L172.66 20.97L172.66 16.28L178.13 16.28L178.13 19.41L175.78 19.41L175.78 25.66L178.13 25.66L178.13 28.78L172.66 28.78L172.66 24.09L171.09 24.09L171.09 20.97Z" fill="rgba(130, 252, 27, 1)"/><path d="M179.91 20.97L181.47 20.97L181.47 16.28L186.94 16.28L186.94 19.41L184.59 19.41L184.59 25.66L186.94 25.66L186.94 28.78L181.47 28.78L181.47 24.09L179.91 24.09L179.91 20.97Z" fill="rgba(118, 255, 3, 1)"/><path d="M188.72 20.97L190.28 20.97L190.28 16.28L195.75 16.28L195.75 19.41L193.41 19.41L193.41 25.66L195.75 25.66L195.75 28.78L190.28 28.78L190.28 24.09L188.72 24.09L188.72 20.97Z" fill="rgba(118, 255, 3, 1)"/><path d="M197.53 20.97L199.09 20.97L199.09 16.28L204.56 16.28L204.56 19.41L202.22 19.41L202.22 25.66L204.56 25.66L204.56 28.78L199.09 28.78L199.09 24.09L197.53 24.09L197.53 20.97Z" fill="rgba(117, 255, 3, 0.3686274509803922)"/><path d="M3.66 34.97L5.22 34.97L5.22 30.28L10.69 30.28L10.69 33.41L8.34 33.41L8.34 39.66L10.69 39.66L10.69 42.78L5.22 42.78L5.22 38.09L3.66 38.09L3.66 34.97Z" fill="rgba(0, 0, 0, 0)"/><path d="M12.47 34.97L14.03 34.97L14.03 30.28L19.50 30.28L19.50 33.41L17.16 33.41L17.16 39.66L19.50 39.66L19.50 42.78L14.03 42.78L14.03 38.09L12.47 38.09L12.47 34.97Z" fill="rgba(0, 0, 0, 0)"/><path d="M21.28 34.97L22.84 34.97L22.84 30.28L28.31 30.28L28.31 33.41L25.97 33.41L25.97 39.66L28.31 39.66L28.31 42.78L22.84 42.78L22.84 38.09L21.28 38.09L21.28 34.97Z" fill="rgba(0, 0, 0, 0)"/><path d="M30.09 34.97L31.66 34.97L31.66 30.28L37.13 30.28L37.13 33.41L34.78 33.41L34.78 39.66L37.13 39.66L37.13 42.78L31.66 42.78L31.66 38.09L30.09 38.09L30.09 34.97Z" fill="rgba(0, 0, 0, 0)"/><path d="M38.91 34.97L40.47 34.97L40.47 30.28L45.94 30.28L45.94 33.41L43.59 33.41L43.59 39.66L45.94 39.66L45.94 42.78L40.47 42.78L40.47 38.09L38.91 38.09L38.91 34.97Z" fill="rgba(0, 0, 0, 0)"/><path d="M47.72 34.97L49.28 34.97L49.28 30.28L54.75 30.28L54.75 33.41L52.41 33.41L52.41 39.66L54.75 39.66L54.75 42.78L49.28 42.78L49.28 38.09L47.72 38.09L47.72 34.97Z" fill="rgba(0, 0, 0, 0)"/><path d="M56.53 34.97L58.09 34.97L58.09 30.28L63.56 30.28L63.56 33.41L61.22 33.41L61.22 39.66L63.56 39.66L63.56 42.78L58.09 42.78L58.09 38.09L56.53 38.09L56.53 34.97Z" fill="rgba(0, 0, 0, 0)"/><path d="M65.34 34.97L66.91 34.97L66.91 30.28L72.38 30.28L72.38 33.41L70.03 33.41L70.03 39.66L72.38 39.66L72.38 42.78L66.91 42.78L66.91 38.09L65.34 38.09L65.34 34.97Z" fill="rgba(118, 255, 3, 1)"/><path d="M74.16 34.97L75.72 34.97L75.72 30.28L81.19 30.28L81.19 33.41L78.84 33.41L78.84 39.66L81.19 39.66L81.19 42.78L75.72 42.78L75.72 38.09L74.16 38.09L74.16 34.97Z" fill="rgba(118, 255, 3, 1)"/><path d="M82.97 34.97L84.53 34.97L84.53 30.28L90 30.28L90 33.41L87.66 33.41L87.66 39.66L90 39.66L90 42.78L84.53 42.78L84.53 38.09L82.97 38.09L82.97 34.97Z" fill="rgba(145, 249, 59, 1)"/><path d="M91.78 34.97L93.34 34.97L93.34 30.28L98.81 30.28L98.81 33.41L96.47 33.41L96.47 39.66L98.81 39.66L98.81 42.78L93.34 42.78L93.34 38.09L91.78 38.09L91.78 34.97Z" fill="rgba(231, 231, 231, 1)"/><path d="M100.59 34.97L102.16 34.97L102.16 30.28L107.63 30.28L107.63 33.41L105.28 33.41L105.28 39.66L107.63 39.66L107.63 42.78L102.16 42.78L102.16 38.09L100.59 38.09L100.59 34.97Z" fill="rgba(231, 231, 231, 1)"/><path d="M109.41 34.97L110.97 34.97L110.97 30.28L116.44 30.28L116.44 33.41L114.09 33.41L114.09 39.66L116.44 39.66L116.44 42.78L110.97 42.78L110.97 38.09L109.41 38.09L109.41 34.97Z" fill="rgba(231, 231, 231, 1)"/><path d="M118.22 34.97L119.78 34.97L119.78 30.28L125.25 30.28L125.25 33.41L122.91 33.41L122.91 39.66L125.25 39.66L125.25 42.78L119.78 42.78L119.78 38.09L118.22 38.09L118.22 34.97Z" fill="rgba(231, 231, 231, 1)"/><path d="M127.03 34.97L128.59 34.97L128.59 30.28L134.06 30.28L134.06 33.41L131.72 33.41L131.72 39.66L134.06 39.66L134.06 42.78L128.59 42.78L128.59 38.09L127.03 38.09L127.03 34.97Z" fill="rgba(231, 231, 231, 1)"/><path d="M135.84 34.97L137.41 34.97L137.41 30.28L142.88 30.28L142.88 33.41L140.53 33.41L140.53 39.66L142.88 39.66L142.88 42.78L137.41 42.78L137.41 38.09L135.84 38.09L135.84 34.97Z" fill="rgba(231, 231, 231, 1)"/><path d="M144.66 34.97L146.22 34.97L146.22 30.28L151.69 30.28L151.69 33.41L149.34 33.41L149.34 39.66L151.69 39.66L151.69 42.78L146.22 42.78L146.22 38.09L144.66 38.09L144.66 34.97Z" fill="rgba(231, 231, 231, 1)"/><path d="M153.47 34.97L155.03 34.97L155.03 30.28L160.50 30.28L160.50 33.41L158.16 33.41L158.16 39.66L160.50 39.66L160.50 42.78L155.03 42.78L155.03 38.09L153.47 38.09L153.47 34.97Z" fill="rgba(231, 231, 231, 1)"/><path d="M162.28 34.97L163.84 34.97L163.84 30.28L169.31 30.28L169.31 33.41L166.97 33.41L166.97 39.66L169.31 39.66L169.31 42.78L163.84 42.78L163.84 38.09L162.28 38.09L162.28 34.97Z" fill="rgba(212, 235, 193, 1)"/><path d="M171.09 34.97L172.66 34.97L172.66 30.28L178.13 30.28L178.13 33.41L175.78 33.41L175.78 39.66L178.13 39.66L178.13 42.78L172.66 42.78L172.66 38.09L171.09 38.09L171.09 34.97Z" fill="rgba(212, 235, 193, 1)"/><path d="M179.91 34.97L181.47 34.97L181.47 30.28L186.94 30.28L186.94 33.41L184.59 33.41L184.59 39.66L186.94 39.66L186.94 42.78L181.47 42.78L181.47 38.09L179.91 38.09L179.91 34.97Z" fill="rgba(118, 255, 3, 1)"/><path d="M188.72 34.97L190.28 34.97L190.28 30.28L195.75 30.28L195.75 33.41L193.41 33.41L193.41 39.66L195.75 39.66L195.75 42.78L190.28 42.78L190.28 38.09L188.72 38.09L188.72 34.97Z" fill="rgba(118, 255, 3, 1)"/><path d="M197.53 34.97L199.09 34.97L199.09 30.28L204.56 30.28L204.56 33.41L202.22 33.41L202.22 39.66L204.56 39.66L204.56 42.78L199.09 42.78L199.09 38.09L197.53 38.09L197.53 34.97Z" fill="rgba(117, 255, 3, 0.3686274509803922)"/><path d="M3.66 48.97L5.22 48.97L5.22 44.28L10.69 44.28L10.69 47.41L8.34 47.41L8.34 53.66L10.69 53.66L10.69 56.78L5.22 56.78L5.22 52.09L3.66 52.09L3.66 48.97Z" fill="rgba(0, 0, 0, 0)"/><path d="M12.47 48.97L14.03 48.97L14.03 44.28L19.50 44.28L19.50 47.41L17.16 47.41L17.16 53.66L19.50 53.66L19.50 56.78L14.03 56.78L14.03 52.09L12.47 52.09L12.47 48.97Z" fill="rgba(0, 0, 0, 0)"/><path d="M21.28 48.97L22.84 48.97L22.84 44.28L28.31 44.28L28.31 47.41L25.97 47.41L25.97 53.66L28.31 53.66L28.31 56.78L22.84 56.78L22.84 52.09L21.28 52.09L21.28 48.97Z" fill="rgba(0, 0, 0, 0)"/><path d="M30.09 48.97L31.66 48.97L31.66 44.28L37.13 44.28L37.13 47.41L34.78 47.41L34.78 53.66L37.13 53.66L37.13 56.78L31.66 56.78L31.66 52.09L30.09 52.09L30.09 48.97Z" fill="rgba(0, 0, 0, 0)"/><path d="M38.91 48.97L40.47 48.97L40.47 44.28L45.94 44.28L45.94 47.41L43.59 47.41L43.59 53.66L45.94 53.66L45.94 56.78L40.47 56.78L40.47 52.09L38.91 52.09L38.91 48.97Z" fill="rgba(0, 0, 0, 0)"/><path d="M47.72 48.97L49.28 48.97L49.28 44.28L54.75 44.28L54.75 47.41L52.41 47.41L52.41 53.66L54.75 53.66L54.75 56.78L49.28 56.78L49.28 52.09L47.72 52.09L47.72 48.97Z" fill="rgba(0, 0, 0, 0)"/><path d="M56.53 48.97L58.09 48.97L58.09 44.28L63.56 44.28L63.56 47.41L61.22 47.41L61.22 53.66L63.56 53.66L63.56 56.78L58.09 56.78L58.09 52.09L56.53 52.09L56.53 48.97Z" fill="rgba(119, 255, 4, 0.23529411764705882)"/><path d="M65.34 48.97L66.91 48.97L66.91 44.28L72.38 44.28L72.38 47.41L70.03 47.41L70.03 53.66L72.38 53.66L72.38 56.78L66.91 56.78L66.91 52.09L65.34 52.09L65.34 48.97Z" fill="rgba(118, 255, 3, 1)"/><path d="M74.16 48.97L75.72 48.97L75.72 44.28L81.19 44.28L81.19 47.41L78.84 47.41L78.84 53.66L81.19 53.66L81.19 56.78L75.72 56.78L75.72 52.09L74.16 52.09L74.16 48.97Z" fill="rgba(118, 255, 3, 1)"/><path d="M82.97 48.97L84.53 48.97L84.53 44.28L90 44.28L90 47.41L87.66 47.41L87.66 53.66L90 53.66L90 56.78L84.53 56.78L84.53 52.09L82.97 52.09L82.97 48.97Z" fill="rgba(204, 237, 178, 1)"/><path d="M91.78 48.97L93.34 48.97L93.34 44.28L98.81 44.28L98.81 47.41L96.47 47.41L96.47 53.66L98.81 53.66L98.81 56.78L93.34 56.78L93.34 52.09L91.78 52.09L91.78 48.97Z" fill="rgba(231, 231, 231, 1)"/><path d="M100.59 48.97L102.16 48.97L102.16 44.28L107.63 44.28L107.63 47.41L105.28 47.41L105.28 53.66L107.63 53.66L107.63 56.78L102.16 56.78L102.16 52.09L100.59 52.09L100.59 48.97Z" fill="rgba(231, 231, 231, 1)"/><path d="M109.41 48.97L110.97 48.97L110.97 44.28L116.44 44.28L116.44 47.41L114.09 47.41L114.09 53.66L116.44 53.66L116.44 56.78L110.97 56.78L110.97 52.09L109.41 52.09L109.41 48.97Z" fill="rgba(231, 231, 231, 1)"/><path d="M118.22 48.97L119.78 48.97L119.78 44.28L125.25 44.28L125.25 47.41L122.91 47.41L122.91 53.66L125.25 53.66L125.25 56.78L119.78 56.78L119.78 52.09L118.22 52.09L118.22 48.97Z" fill="rgba(231, 231, 231, 1)"/><path d="M127.03 48.97L128.59 48.97L128.59 44.28L134.06 44.28L134.06 47.41L131.72 47.41L131.72 53.66L134.06 53.66L134.06 56.78L128.59 56.78L128.59 52.09L127.03 52.09L127.03 48.97Z" fill="rgba(231, 231, 231, 1)"/><path d="M135.84 48.97L137.41 48.97L137.41 44.28L142.88 44.28L142.88 47.41L140.53 47.41L140.53 53.66L142.88 53.66L142.88 56.78L137.41 56.78L137.41 52.09L135.84 52.09L135.84 48.97Z" fill="rgba(231, 231, 231, 1)"/><path d="M144.66 48.97L146.22 48.97L146.22 44.28L151.69 44.28L151.69 47.41L149.34 47.41L149.34 53.66L151.69 53.66L151.69 56.78L146.22 56.78L146.22 52.09L144.66 52.09L144.66 48.97Z" fill="rgba(231, 231, 231, 1)"/><path d="M153.47 48.97L155.03 48.97L155.03 44.28L160.50 44.28L160.50 47.41L158.16 47.41L158.16 53.66L160.50 53.66L160.50 56.78L155.03 56.78L155.03 52.09L153.47 52.09L153.47 48.97Z" fill="rgba(231, 231, 231, 1)"/><path d="M162.28 48.97L163.84 48.97L163.84 44.28L169.31 44.28L169.31 47.41L166.97 47.41L166.97 53.66L169.31 53.66L169.31 56.78L163.84 56.78L163.84 52.09L162.28 52.09L162.28 48.97Z" fill="rgba(185, 241, 138, 1)"/><path d="M171.09 48.97L172.66 48.97L172.66 44.28L178.13 44.28L178.13 47.41L175.78 47.41L175.78 53.66L178.13 53.66L178.13 56.78L172.66 56.78L172.66 52.09L171.09 52.09L171.09 48.97Z" fill="rgba(185, 241, 138, 1)"/><path d="M179.91 48.97L181.47 48.97L181.47 44.28L186.94 44.28L186.94 47.41L184.59 47.41L184.59 53.66L186.94 53.66L186.94 56.78L181.47 56.78L181.47 52.09L179.91 52.09L179.91 48.97Z" fill="rgba(118, 255, 3, 1)"/><path d="M188.72 48.97L190.28 48.97L190.28 44.28L195.75 44.28L195.75 47.41L193.41 47.41L193.41 53.66L195.75 53.66L195.75 56.78L190.28 56.78L190.28 52.09L188.72 52.09L188.72 48.97Z" fill="rgba(118, 255, 3, 1)"/><path d="M197.53 48.97L199.09 48.97L199.09 44.28L204.56 44.28L204.56 47.41L202.22 47.41L202.22 53.66L204.56 53.66L204.56 56.78L199.09 56.78L199.09 52.09L197.53 52.09L197.53 48.97Z" fill="rgba(116, 255, 0, 0.08627450980392157)"/><path d="M3.66 62.97L5.22 62.97L5.22 58.28L10.69 58.28L10.69 61.41L8.34 61.41L8.34 67.66L10.69 67.66L10.69 70.78L5.22 70.78L5.22 66.09L3.66 66.09L3.66 62.97Z" fill="rgba(0, 0, 0, 0)"/><path d="M12.47 62.97L14.03 62.97L14.03 58.28L19.50 58.28L19.50 61.41L17.16 61.41L17.16 67.66L19.50 67.66L19.50 70.78L14.03 70.78L14.03 66.09L12.47 66.09L12.47 62.97Z" fill="rgba(0, 0, 0, 0)"/><path d="M21.28 62.97L22.84 62.97L22.84 58.28L28.31 58.28L28.31 61.41L25.97 61.41L25.97 67.66L28.31 67.66L28.31 70.78L22.84 70.78L22.84 66.09L21.28 66.09L21.28 62.97Z" fill="rgba(0, 0, 0, 0)"/><path d="M30.09 62.97L31.66 62.97L31.66 58.28L37.13 58.28L37.13 61.41L34.78 61.41L34.78 67.66L37.13 67.66L37.13 70.78L31.66 70.78L31.66 66.09L30.09 66.09L30.09 62.97Z" fill="rgba(0, 0, 0, 0)"/><path d="M38.91 62.97L40.47 62.97L40.47 58.28L45.94 58.28L45.94 61.41L43.59 61.41L43.59 67.66L45.94 67.66L45.94 70.78L40.47 70.78L40.47 66.09L38.91 66.09L38.91 62.97Z" fill="rgba(0, 0, 0, 0)"/><path d="M47.72 62.97L49.28 62.97L49.28 58.28L54.75 58.28L54.75 61.41L52.41 61.41L52.41 67.66L54.75 67.66L54.75 70.78L49.28 70.78L49.28 66.09L47.72 66.09L47.72 62.97Z" fill="rgba(0, 0, 0, 0)"/><path d="M56.53 62.97L58.09 62.97L58.09 58.28L63.56 58.28L63.56 61.41L61.22 61.41L61.22 67.66L63.56 67.66L63.56 70.78L58.09 70.78L58.09 66.09L56.53 66.09L56.53 62.97Z" fill="rgba(119, 255, 3, 0.30196078431372547)"/><path d="M65.34 62.97L66.91 62.97L66.91 58.28L72.38 58.28L72.38 61.41L70.03 61.41L70.03 67.66L72.38 67.66L72.38 70.78L66.91 70.78L66.91 66.09L65.34 66.09L65.34 62.97Z" fill="rgba(119, 255, 5, 1)"/><path d="M74.16 62.97L75.72 62.97L75.72 58.28L81.19 58.28L81.19 61.41L78.84 61.41L78.84 67.66L81.19 67.66L81.19 70.78L75.72 70.78L75.72 66.09L74.16 66.09L74.16 62.97Z" fill="rgba(119, 255, 5, 1)"/><path d="M82.97 62.97L84.53 62.97L84.53 58.28L90 58.28L90 61.41L87.66 61.41L87.66 67.66L90 67.66L90 70.78L84.53 70.78L84.53 66.09L82.97 66.09L82.97 62.97Z" fill="rgba(212, 235, 192, 1)"/><path d="M91.78 62.97L93.34 62.97L93.34 58.28L98.81 58.28L98.81 61.41L96.47 61.41L96.47 67.66L98.81 67.66L98.81 70.78L93.34 70.78L93.34 66.09L91.78 66.09L91.78 62.97Z" fill="rgba(231, 231, 231, 1)"/><path d="M100.59 62.97L102.16 62.97L102.16 58.28L107.63 58.28L107.63 61.41L105.28 61.41L105.28 67.66L107.63 67.66L107.63 70.78L102.16 70.78L102.16 66.09L100.59 66.09L100.59 62.97Z" fill="rgba(231, 231, 231, 1)"/><path d="M109.41 62.97L110.97 62.97L110.97 58.28L116.44 58.28L116.44 61.41L114.09 61.41L114.09 67.66L116.44 67.66L116.44 70.78L110.97 70.78L110.97 66.09L109.41 66.09L109.41 62.97Z" fill="rgba(231, 231, 231, 1)"/><path d="M118.22 62.97L119.78 62.97L119.78 58.28L125.25 58.28L125.25 61.41L122.91 61.41L122.91 67.66L125.25 67.66L125.25 70.78L119.78 70.78L119.78 66.09L118.22 66.09L118.22 62.97Z" fill="rgba(231, 231, 231, 1)"/><path d="M127.03 62.97L128.59 62.97L128.59 58.28L134.06 58.28L134.06 61.41L131.72 61.41L131.72 67.66L134.06 67.66L134.06 70.78L128.59 70.78L128.59 66.09L127.03 66.09L127.03 62.97Z" fill="rgba(231, 231, 231, 1)"/><path d="M135.84 62.97L137.41 62.97L137.41 58.28L142.88 58.28L142.88 61.41L140.53 61.41L140.53 67.66L142.88 67.66L142.88 70.78L137.41 70.78L137.41 66.09L135.84 66.09L135.84 62.97Z" fill="rgba(200, 238, 168, 1)"/><path d="M144.66 62.97L146.22 62.97L146.22 58.28L151.69 58.28L151.69 61.41L149.34 61.41L149.34 67.66L151.69 67.66L151.69 70.78L146.22 70.78L146.22 66.09L144.66 66.09L144.66 62.97Z" fill="rgba(200, 238, 168, 1)"/><path d="M153.47 62.97L155.03 62.97L155.03 58.28L160.50 58.28L160.50 61.41L158.16 61.41L158.16 67.66L160.50 67.66L160.50 70.78L155.03 70.78L155.03 66.09L153.47 66.09L153.47 62.97Z" fill="rgba(189, 240, 145, 1)"/><path d="M162.28 62.97L163.84 62.97L163.84 58.28L169.31 58.28L169.31 61.41L166.97 61.41L166.97 67.66L169.31 67.66L169.31 70.78L163.84 70.78L163.84 66.09L162.28 66.09L162.28 62.97Z" fill="rgba(118, 255, 3, 1)"/><path d="M171.09 62.97L172.66 62.97L172.66 58.28L178.13 58.28L178.13 61.41L175.78 61.41L175.78 67.66L178.13 67.66L178.13 70.78L172.66 70.78L172.66 66.09L171.09 66.09L171.09 62.97Z" fill="rgba(118, 255, 3, 1)"/><path d="M179.91 62.97L181.47 62.97L181.47 58.28L186.94 58.28L186.94 61.41L184.59 61.41L184.59 67.66L186.94 67.66L186.94 70.78L181.47 70.78L181.47 66.09L179.91 66.09L179.91 62.97Z" fill="rgba(118, 255, 3, 1)"/><path d="M188.72 62.97L190.28 62.97L190.28 58.28L195.75 58.28L195.75 61.41L193.41 61.41L193.41 67.66L195.75 67.66L195.75 70.78L190.28 70.78L190.28 66.09L188.72 66.09L188.72 62.97Z" fill="rgba(118, 255, 3, 1)"/><path d="M197.53 62.97L199.09 62.97L199.09 58.28L204.56 58.28L204.56 61.41L202.22 61.41L202.22 67.66L204.56 67.66L204.56 70.78L199.09 70.78L199.09 66.09L197.53 66.09L197.53 62.97Z" fill="rgba(0, 0, 0, 0)"/><path d="M3.66 76.97L5.22 76.97L5.22 72.28L10.69 72.28L10.69 75.41L8.34 75.41L8.34 81.66L10.69 81.66L10.69 84.78L5.22 84.78L5.22 80.09L3.66 80.09L3.66 76.97Z" fill="rgba(0, 0, 0, 0)"/><path d="M12.47 76.97L14.03 76.97L14.03 72.28L19.50 72.28L19.50 75.41L17.16 75.41L17.16 81.66L19.50 81.66L19.50 84.78L14.03 84.78L14.03 80.09L12.47 80.09L12.47 76.97Z" fill="rgba(0, 0, 0, 0)"/><path d="M21.28 76.97L22.84 76.97L22.84 72.28L28.31 72.28L28.31 75.41L25.97 75.41L25.97 81.66L28.31 81.66L28.31 84.78L22.84 84.78L22.84 80.09L21.28 80.09L21.28 76.97Z" fill="rgba(0, 0, 0, 0)"/><path d="M30.09 76.97L31.66 76.97L31.66 72.28L37.13 72.28L37.13 75.41L34.78 75.41L34.78 81.66L37.13 81.66L37.13 84.78L31.66 84.78L31.66 80.09L30.09 80.09L30.09 76.97Z" fill="rgba(0, 0, 0, 0)"/><path d="M38.91 76.97L40.47 76.97L40.47 72.28L45.94 72.28L45.94 75.41L43.59 75.41L43.59 81.66L45.94 81.66L45.94 84.78L40.47 84.78L40.47 80.09L38.91 80.09L38.91 76.97Z" fill="rgba(0, 0, 0, 0)"/><path d="M47.72 76.97L49.28 76.97L49.28 72.28L54.75 72.28L54.75 75.41L52.41 75.41L52.41 81.66L54.75 81.66L54.75 84.78L49.28 84.78L49.28 80.09L47.72 80.09L47.72 76.97Z" fill="rgba(0, 0, 0, 0)"/><path d="M56.53 76.97L58.09 76.97L58.09 72.28L63.56 72.28L63.56 75.41L61.22 75.41L61.22 81.66L63.56 81.66L63.56 84.78L58.09 84.78L58.09 80.09L56.53 80.09L56.53 76.97Z" fill="rgba(118, 255, 3, 0.9372549019607843)"/><path d="M65.34 76.97L66.91 76.97L66.91 72.28L72.38 72.28L72.38 75.41L70.03 75.41L70.03 81.66L72.38 81.66L72.38 84.78L66.91 84.78L66.91 80.09L65.34 80.09L65.34 76.97Z" fill="rgba(122, 254, 11, 1)"/><path d="M74.16 76.97L75.72 76.97L75.72 72.28L81.19 72.28L81.19 75.41L78.84 75.41L78.84 81.66L81.19 81.66L81.19 84.78L75.72 84.78L75.72 80.09L74.16 80.09L74.16 76.97Z" fill="rgba(122, 254, 11, 1)"/><path d="M82.97 76.97L84.53 76.97L84.53 72.28L90 72.28L90 75.41L87.66 75.41L87.66 81.66L90 81.66L90 84.78L84.53 84.78L84.53 80.09L82.97 80.09L82.97 76.97Z" fill="rgba(231, 231, 231, 1)"/><path d="M91.78 76.97L93.34 76.97L93.34 72.28L98.81 72.28L98.81 75.41L96.47 75.41L96.47 81.66L98.81 81.66L98.81 84.78L93.34 84.78L93.34 80.09L91.78 80.09L91.78 76.97Z" fill="rgba(231, 231, 231, 1)"/><path d="M100.59 76.97L102.16 76.97L102.16 72.28L107.63 72.28L107.63 75.41L105.28 75.41L105.28 81.66L107.63 81.66L107.63 84.78L102.16 84.78L102.16 80.09L100.59 80.09L100.59 76.97Z" fill="rgba(231, 231, 231, 1)"/><path d="M109.41 76.97L110.97 76.97L110.97 72.28L116.44 72.28L116.44 75.41L114.09 75.41L114.09 81.66L116.44 81.66L116.44 84.78L110.97 84.78L110.97 80.09L109.41 80.09L109.41 76.97Z" fill="rgba(231, 231, 231, 1)"/><path d="M118.22 76.97L119.78 76.97L119.78 72.28L125.25 72.28L125.25 75.41L122.91 75.41L122.91 81.66L125.25 81.66L125.25 84.78L119.78 84.78L119.78 80.09L118.22 80.09L118.22 76.97Z" fill="rgba(231, 231, 231, 1)"/><path d="M127.03 76.97L128.59 76.97L128.59 72.28L134.06 72.28L134.06 75.41L131.72 75.41L131.72 81.66L134.06 81.66L134.06 84.78L128.59 84.78L128.59 80.09L127.03 80.09L127.03 76.97Z" fill="rgba(231, 231, 231, 1)"/><path d="M135.84 76.97L137.41 76.97L137.41 72.28L142.88 72.28L142.88 75.41L140.53 75.41L140.53 81.66L142.88 81.66L142.88 84.78L137.41 84.78L137.41 80.09L135.84 80.09L135.84 76.97Z" fill="rgba(118, 255, 3, 1)"/><path d="M144.66 76.97L146.22 76.97L146.22 72.28L151.69 72.28L151.69 75.41L149.34 75.41L149.34 81.66L151.69 81.66L151.69 84.78L146.22 84.78L146.22 80.09L144.66 80.09L144.66 76.97Z" fill="rgba(118, 255, 3, 1)"/><path d="M153.47 76.97L155.03 76.97L155.03 72.28L160.50 72.28L160.50 75.41L158.16 75.41L158.16 81.66L160.50 81.66L160.50 84.78L155.03 84.78L155.03 80.09L153.47 80.09L153.47 76.97Z" fill="rgba(118, 255, 3, 1)"/><path d="M162.28 76.97L163.84 76.97L163.84 72.28L169.31 72.28L169.31 75.41L166.97 75.41L166.97 81.66L169.31 81.66L169.31 84.78L163.84 84.78L163.84 80.09L162.28 80.09L162.28 76.97Z" fill="rgba(118, 255, 3, 1)"/><path d="M171.09 76.97L172.66 76.97L172.66 72.28L178.13 72.28L178.13 75.41L175.78 75.41L175.78 81.66L178.13 81.66L178.13 84.78L172.66 84.78L172.66 80.09L171.09 80.09L171.09 76.97Z" fill="rgba(118, 255, 3, 1)"/><path d="M179.91 76.97L181.47 76.97L181.47 72.28L186.94 72.28L186.94 75.41L184.59 75.41L184.59 81.66L186.94 81.66L186.94 84.78L181.47 84.78L181.47 80.09L179.91 80.09L179.91 76.97Z" fill="rgba(119, 255, 3, 0.28627450980392155)"/><path d="M188.72 76.97L190.28 76.97L190.28 72.28L195.75 72.28L195.75 75.41L193.41 75.41L193.41 81.66L195.75 81.66L195.75 84.78L190.28 84.78L190.28 80.09L188.72 80.09L188.72 76.97Z" fill="rgba(119, 255, 3, 0.28627450980392155)"/><path d="M197.53 76.97L199.09 76.97L199.09 72.28L204.56 72.28L204.56 75.41L202.22 75.41L202.22 81.66L204.56 81.66L204.56 84.78L199.09 84.78L199.09 80.09L197.53 80.09L197.53 76.97Z" fill="rgba(0, 0, 0, 0)"/><path d="M3.66 90.97L5.22 90.97L5.22 86.28L10.69 86.28L10.69 89.41L8.34 89.41L8.34 95.66L10.69 95.66L10.69 98.78L5.22 98.78L5.22 94.09L3.66 94.09L3.66 90.97Z" fill="rgba(0, 0, 0, 0)"/><path d="M12.47 90.97L14.03 90.97L14.03 86.28L19.50 86.28L19.50 89.41L17.16 89.41L17.16 95.66L19.50 95.66L19.50 98.78L14.03 98.78L14.03 94.09L12.47 94.09L12.47 90.97Z" fill="rgba(0, 0, 0, 0)"/><path d="M21.28 90.97L22.84 90.97L22.84 86.28L28.31 86.28L28.31 89.41L25.97 89.41L25.97 95.66L28.31 95.66L28.31 98.78L22.84 98.78L22.84 94.09L21.28 94.09L21.28 90.97Z" fill="rgba(0, 0, 0, 0)"/><path d="M30.09 90.97L31.66 90.97L31.66 86.28L37.13 86.28L37.13 89.41L34.78 89.41L34.78 95.66L37.13 95.66L37.13 98.78L31.66 98.78L31.66 94.09L30.09 94.09L30.09 90.97Z" fill="rgba(0, 0, 0, 0)"/><path d="M38.91 90.97L40.47 90.97L40.47 86.28L45.94 86.28L45.94 89.41L43.59 89.41L43.59 95.66L45.94 95.66L45.94 98.78L40.47 98.78L40.47 94.09L38.91 94.09L38.91 90.97Z" fill="rgba(0, 0, 0, 0)"/><path d="M47.72 90.97L49.28 90.97L49.28 86.28L54.75 86.28L54.75 89.41L52.41 89.41L52.41 95.66L54.75 95.66L54.75 98.78L49.28 98.78L49.28 94.09L47.72 94.09L47.72 90.97Z" fill="rgba(0, 0, 0, 0)"/><path d="M56.53 90.97L58.09 90.97L58.09 86.28L63.56 86.28L63.56 89.41L61.22 89.41L61.22 95.66L63.56 95.66L63.56 98.78L58.09 98.78L58.09 94.09L56.53 94.09L56.53 90.97Z" fill="rgba(118, 255, 3, 1)"/><path d="M65.34 90.97L66.91 90.97L66.91 86.28L72.38 86.28L72.38 89.41L70.03 89.41L70.03 95.66L72.38 95.66L72.38 98.78L66.91 98.78L66.91 94.09L65.34 94.09L65.34 90.97Z" fill="rgba(122, 254, 11, 1)"/><path d="M74.16 90.97L75.72 90.97L75.72 86.28L81.19 86.28L81.19 89.41L78.84 89.41L78.84 95.66L81.19 95.66L81.19 98.78L75.72 98.78L75.72 94.09L74.16 94.09L74.16 90.97Z" fill="rgba(122, 254, 11, 1)"/><path d="M82.97 90.97L84.53 90.97L84.53 86.28L90 86.28L90 89.41L87.66 89.41L87.66 95.66L90 95.66L90 98.78L84.53 98.78L84.53 94.09L82.97 94.09L82.97 90.97Z" fill="rgba(231, 231, 231, 1)"/><path d="M91.78 90.97L93.34 90.97L93.34 86.28L98.81 86.28L98.81 89.41L96.47 89.41L96.47 95.66L98.81 95.66L98.81 98.78L93.34 98.78L93.34 94.09L91.78 94.09L91.78 90.97Z" fill="rgba(231, 231, 231, 1)"/><path d="M100.59 90.97L102.16 90.97L102.16 86.28L107.63 86.28L107.63 89.41L105.28 89.41L105.28 95.66L107.63 95.66L107.63 98.78L102.16 98.78L102.16 94.09L100.59 94.09L100.59 90.97Z" fill="rgba(231, 231, 231, 1)"/><path d="M109.41 90.97L110.97 90.97L110.97 86.28L116.44 86.28L116.44 89.41L114.09 89.41L114.09 95.66L116.44 95.66L116.44 98.78L110.97 98.78L110.97 94.09L109.41 94.09L109.41 90.97Z" fill="rgba(231, 231, 231, 1)"/><path d="M118.22 90.97L119.78 90.97L119.78 86.28L125.25 86.28L125.25 89.41L122.91 89.41L122.91 95.66L125.25 95.66L125.25 98.78L119.78 98.78L119.78 94.09L118.22 94.09L118.22 90.97Z" fill="rgba(231, 231, 231, 1)"/><path d="M127.03 90.97L128.59 90.97L128.59 86.28L134.06 86.28L134.06 89.41L131.72 89.41L131.72 95.66L134.06 95.66L134.06 98.78L128.59 98.78L128.59 94.09L127.03 94.09L127.03 90.97Z" fill="rgba(231, 231, 231, 1)"/><path d="M135.84 90.97L137.41 90.97L137.41 86.28L142.88 86.28L142.88 89.41L140.53 89.41L140.53 95.66L142.88 95.66L142.88 98.78L137.41 98.78L137.41 94.09L135.84 94.09L135.84 90.97Z" fill="rgba(118, 255, 3, 1)"/><path d="M144.66 90.97L146.22 90.97L146.22 86.28L151.69 86.28L151.69 89.41L149.34 89.41L149.34 95.66L151.69 95.66L151.69 98.78L146.22 98.78L146.22 94.09L144.66 94.09L144.66 90.97Z" fill="rgba(118, 255, 3, 1)"/><path d="M153.47 90.97L155.03 90.97L155.03 86.28L160.50 86.28L160.50 89.41L158.16 89.41L158.16 95.66L160.50 95.66L160.50 98.78L155.03 98.78L155.03 94.09L153.47 94.09L153.47 90.97Z" fill="rgba(118, 255, 3, 0.37254901960784315)"/><path d="M162.28 90.97L163.84 90.97L163.84 86.28L169.31 86.28L169.31 89.41L166.97 89.41L166.97 95.66L169.31 95.66L169.31 98.78L163.84 98.78L163.84 94.09L162.28 94.09L162.28 90.97Z" fill="rgba(120, 255, 0, 0.12549019607843137)"/><path d="M171.09 90.97L172.66 90.97L172.66 86.28L178.13 86.28L178.13 89.41L175.78 89.41L175.78 95.66L178.13 95.66L178.13 98.78L172.66 98.78L172.66 94.09L171.09 94.09L171.09 90.97Z" fill="rgba(120, 255, 0, 0.12549019607843137)"/><path d="M179.91 90.97L181.47 90.97L181.47 86.28L186.94 86.28L186.94 89.41L184.59 89.41L184.59 95.66L186.94 95.66L186.94 98.78L181.47 98.78L181.47 94.09L179.91 94.09L179.91 90.97Z" fill="rgba(170, 255, 0, 0.011764705882352941)"/><path d="M188.72 90.97L190.28 90.97L190.28 86.28L195.75 86.28L195.75 89.41L193.41 89.41L193.41 95.66L195.75 95.66L195.75 98.78L190.28 98.78L190.28 94.09L188.72 94.09L188.72 90.97Z" fill="rgba(170, 255, 0, 0.011764705882352941)"/><path d="M197.53 90.97L199.09 90.97L199.09 86.28L204.56 86.28L204.56 89.41L202.22 89.41L202.22 95.66L204.56 95.66L204.56 98.78L199.09 98.78L199.09 94.09L197.53 94.09L197.53 90.97Z" fill="rgba(0, 0, 0, 0)"/><path d="M3.66 104.97L5.22 104.97L5.22 100.28L10.69 100.28L10.69 103.41L8.34 103.41L8.34 109.66L10.69 109.66L10.69 112.78L5.22 112.78L5.22 108.09L3.66 108.09L3.66 104.97Z" fill="rgba(0, 0, 0, 0)"/><path d="M12.47 104.97L14.03 104.97L14.03 100.28L19.50 100.28L19.50 103.41L17.16 103.41L17.16 109.66L19.50 109.66L19.50 112.78L14.03 112.78L14.03 108.09L12.47 108.09L12.47 104.97Z" fill="rgba(119, 255, 3, 0.6235294117647059)"/><path d="M21.28 104.97L22.84 104.97L22.84 100.28L28.31 100.28L28.31 103.41L25.97 103.41L25.97 109.66L28.31 109.66L28.31 112.78L22.84 112.78L22.84 108.09L21.28 108.09L21.28 104.97Z" fill="rgba(119, 255, 3, 0.6235294117647059)"/><path d="M30.09 104.97L31.66 104.97L31.66 100.28L37.13 100.28L37.13 103.41L34.78 103.41L34.78 109.66L37.13 109.66L37.13 112.78L31.66 112.78L31.66 108.09L30.09 108.09L30.09 104.97Z" fill="rgba(119, 255, 3, 0.6235294117647059)"/><path d="M38.91 104.97L40.47 104.97L40.47 100.28L45.94 100.28L45.94 103.41L43.59 103.41L43.59 109.66L45.94 109.66L45.94 112.78L40.47 112.78L40.47 108.09L38.91 108.09L38.91 104.97Z" fill="rgba(119, 255, 3, 0.6235294117647059)"/><path d="M47.72 104.97L49.28 104.97L49.28 100.28L54.75 100.28L54.75 103.41L52.41 103.41L52.41 109.66L54.75 109.66L54.75 112.78L49.28 112.78L49.28 108.09L47.72 108.09L47.72 104.97Z" fill="rgba(119, 255, 3, 0.6235294117647059)"/><path d="M56.53 104.97L58.09 104.97L58.09 100.28L63.56 100.28L63.56 103.41L61.22 103.41L61.22 109.66L63.56 109.66L63.56 112.78L58.09 112.78L58.09 108.09L56.53 108.09L56.53 104.97Z" fill="rgba(118, 255, 3, 1)"/><path d="M65.34 104.97L66.91 104.97L66.91 100.28L72.38 100.28L72.38 103.41L70.03 103.41L70.03 109.66L72.38 109.66L72.38 112.78L66.91 112.78L66.91 108.09L65.34 108.09L65.34 104.97Z" fill="rgba(229, 231, 227, 1)"/><path d="M74.16 104.97L75.72 104.97L75.72 100.28L81.19 100.28L81.19 103.41L78.84 103.41L78.84 109.66L81.19 109.66L81.19 112.78L75.72 112.78L75.72 108.09L74.16 108.09L74.16 104.97Z" fill="rgba(229, 231, 227, 1)"/><path d="M82.97 104.97L84.53 104.97L84.53 100.28L90 100.28L90 103.41L87.66 103.41L87.66 109.66L90 109.66L90 112.78L84.53 112.78L84.53 108.09L82.97 108.09L82.97 104.97Z" fill="rgba(231, 231, 231, 1)"/><path d="M91.78 104.97L93.34 104.97L93.34 100.28L98.81 100.28L98.81 103.41L96.47 103.41L96.47 109.66L98.81 109.66L98.81 112.78L93.34 112.78L93.34 108.09L91.78 108.09L91.78 104.97Z" fill="rgba(231, 231, 231, 1)"/><path d="M100.59 104.97L102.16 104.97L102.16 100.28L107.63 100.28L107.63 103.41L105.28 103.41L105.28 109.66L107.63 109.66L107.63 112.78L102.16 112.78L102.16 108.09L100.59 108.09L100.59 104.97Z" fill="rgba(231, 231, 231, 1)"/><path d="M109.41 104.97L110.97 104.97L110.97 100.28L116.44 100.28L116.44 103.41L114.09 103.41L114.09 109.66L116.44 109.66L116.44 112.78L110.97 112.78L110.97 108.09L109.41 108.09L109.41 104.97Z" fill="rgba(231, 231, 231, 1)"/><path d="M118.22 104.97L119.78 104.97L119.78 100.28L125.25 100.28L125.25 103.41L122.91 103.41L122.91 109.66L125.25 109.66L125.25 112.78L119.78 112.78L119.78 108.09L118.22 108.09L118.22 104.97Z" fill="rgba(231, 231, 231, 1)"/><path d="M127.03 104.97L128.59 104.97L128.59 100.28L134.06 100.28L134.06 103.41L131.72 103.41L131.72 109.66L134.06 109.66L134.06 112.78L128.59 112.78L128.59 108.09L127.03 108.09L127.03 104.97Z" fill="rgba(143, 249, 53, 1)"/><path d="M135.84 104.97L137.41 104.97L137.41 100.28L142.88 100.28L142.88 103.41L140.53 103.41L140.53 109.66L142.88 109.66L142.88 112.78L137.41 112.78L137.41 108.09L135.84 108.09L135.84 104.97Z" fill="rgba(118, 255, 3, 1)"/><path d="M144.66 104.97L146.22 104.97L146.22 100.28L151.69 100.28L151.69 103.41L149.34 103.41L149.34 109.66L151.69 109.66L151.69 112.78L146.22 112.78L146.22 108.09L144.66 108.09L144.66 104.97Z" fill="rgba(118, 255, 3, 1)"/><path d="M153.47 104.97L155.03 104.97L155.03 100.28L160.50 100.28L160.50 103.41L158.16 103.41L158.16 109.66L160.50 109.66L160.50 112.78L155.03 112.78L155.03 108.09L153.47 108.09L153.47 104.97Z" fill="rgba(0, 0, 0, 0)"/><path d="M162.28 104.97L163.84 104.97L163.84 100.28L169.31 100.28L169.31 103.41L166.97 103.41L166.97 109.66L169.31 109.66L169.31 112.78L163.84 112.78L163.84 108.09L162.28 108.09L162.28 104.97Z" fill="rgba(0, 0, 0, 0)"/><path d="M171.09 104.97L172.66 104.97L172.66 100.28L178.13 100.28L178.13 103.41L175.78 103.41L175.78 109.66L178.13 109.66L178.13 112.78L172.66 112.78L172.66 108.09L171.09 108.09L171.09 104.97Z" fill="rgba(0, 0, 0, 0)"/><path d="M179.91 104.97L181.47 104.97L181.47 100.28L186.94 100.28L186.94 103.41L184.59 103.41L184.59 109.66L186.94 109.66L186.94 112.78L181.47 112.78L181.47 108.09L179.91 108.09L179.91 104.97Z" fill="rgba(0, 0, 0, 0)"/><path d="M188.72 104.97L190.28 104.97L190.28 100.28L195.75 100.28L195.75 103.41L193.41 103.41L193.41 109.66L195.75 109.66L195.75 112.78L190.28 112.78L190.28 108.09L188.72 108.09L188.72 104.97Z" fill="rgba(0, 0, 0, 0)"/><path d="M197.53 104.97L199.09 104.97L199.09 100.28L204.56 100.28L204.56 103.41L202.22 103.41L202.22 109.66L204.56 109.66L204.56 112.78L199.09 112.78L199.09 108.09L197.53 108.09L197.53 104.97Z" fill="rgba(0, 0, 0, 0)"/><path d="M3.66 118.97L5.22 118.97L5.22 114.28L10.69 114.28L10.69 117.41L8.34 117.41L8.34 123.66L10.69 123.66L10.69 126.78L5.22 126.78L5.22 122.09L3.66 122.09L3.66 118.97Z" fill="rgba(0, 0, 0, 0)"/><path d="M12.47 118.97L14.03 118.97L14.03 114.28L19.50 114.28L19.50 117.41L17.16 117.41L17.16 123.66L19.50 123.66L19.50 126.78L14.03 126.78L14.03 122.09L12.47 122.09L12.47 118.97Z" fill="rgba(118, 255, 3, 1)"/><path d="M21.28 118.97L22.84 118.97L22.84 114.28L28.31 114.28L28.31 117.41L25.97 117.41L25.97 123.66L28.31 123.66L28.31 126.78L22.84 126.78L22.84 122.09L21.28 122.09L21.28 118.97Z" fill="rgba(118, 255, 3, 1)"/><path d="M30.09 118.97L31.66 118.97L31.66 114.28L37.13 114.28L37.13 117.41L34.78 117.41L34.78 123.66L37.13 123.66L37.13 126.78L31.66 126.78L31.66 122.09L30.09 122.09L30.09 118.97Z" fill="rgba(118, 255, 3, 1)"/><path d="M38.91 118.97L40.47 118.97L40.47 114.28L45.94 114.28L45.94 117.41L43.59 117.41L43.59 123.66L45.94 123.66L45.94 126.78L40.47 126.78L40.47 122.09L38.91 122.09L38.91 118.97Z" fill="rgba(118, 255, 3, 1)"/><path d="M47.72 118.97L49.28 118.97L49.28 114.28L54.75 114.28L54.75 117.41L52.41 117.41L52.41 123.66L54.75 123.66L54.75 126.78L49.28 126.78L49.28 122.09L47.72 122.09L47.72 118.97Z" fill="rgba(118, 255, 3, 1)"/><path d="M56.53 118.97L58.09 118.97L58.09 114.28L63.56 114.28L63.56 117.41L61.22 117.41L61.22 123.66L63.56 123.66L63.56 126.78L58.09 126.78L58.09 122.09L56.53 122.09L56.53 118.97Z" fill="rgba(121, 255, 8, 1)"/><path d="M65.34 118.97L66.91 118.97L66.91 114.28L72.38 114.28L72.38 117.41L70.03 117.41L70.03 123.66L72.38 123.66L72.38 126.78L66.91 126.78L66.91 122.09L65.34 122.09L65.34 118.97Z" fill="rgba(231, 231, 231, 1)"/><path d="M74.16 118.97L75.72 118.97L75.72 114.28L81.19 114.28L81.19 117.41L78.84 117.41L78.84 123.66L81.19 123.66L81.19 126.78L75.72 126.78L75.72 122.09L74.16 122.09L74.16 118.97Z" fill="rgba(231, 231, 231, 1)"/><path d="M82.97 118.97L84.53 118.97L84.53 114.28L90 114.28L90 117.41L87.66 117.41L87.66 123.66L90 123.66L90 126.78L84.53 126.78L84.53 122.09L82.97 122.09L82.97 118.97Z" fill="rgba(231, 231, 231, 1)"/><path d="M91.78 118.97L93.34 118.97L93.34 114.28L98.81 114.28L98.81 117.41L96.47 117.41L96.47 123.66L98.81 123.66L98.81 126.78L93.34 126.78L93.34 122.09L91.78 122.09L91.78 118.97Z" fill="rgba(231, 231, 231, 1)"/><path d="M100.59 118.97L102.16 118.97L102.16 114.28L107.63 114.28L107.63 117.41L105.28 117.41L105.28 123.66L107.63 123.66L107.63 126.78L102.16 126.78L102.16 122.09L100.59 122.09L100.59 118.97Z" fill="rgba(231, 231, 231, 1)"/><path d="M109.41 118.97L110.97 118.97L110.97 114.28L116.44 114.28L116.44 117.41L114.09 117.41L114.09 123.66L116.44 123.66L116.44 126.78L110.97 126.78L110.97 122.09L109.41 122.09L109.41 118.97Z" fill="rgba(231, 231, 231, 1)"/><path d="M118.22 118.97L119.78 118.97L119.78 114.28L125.25 114.28L125.25 117.41L122.91 117.41L122.91 123.66L125.25 123.66L125.25 126.78L119.78 126.78L119.78 122.09L118.22 122.09L118.22 118.97Z" fill="rgba(231, 231, 231, 1)"/><path d="M127.03 118.97L128.59 118.97L128.59 114.28L134.06 114.28L134.06 117.41L131.72 117.41L131.72 123.66L134.06 123.66L134.06 126.78L128.59 126.78L128.59 122.09L127.03 122.09L127.03 118.97Z" fill="rgba(122, 254, 11, 1)"/><path d="M135.84 118.97L137.41 118.97L137.41 114.28L142.88 114.28L142.88 117.41L140.53 117.41L140.53 123.66L142.88 123.66L142.88 126.78L137.41 126.78L137.41 122.09L135.84 122.09L135.84 118.97Z" fill="rgba(118, 255, 3, 0.7607843137254902)"/><path d="M144.66 118.97L146.22 118.97L146.22 114.28L151.69 114.28L151.69 117.41L149.34 117.41L149.34 123.66L151.69 123.66L151.69 126.78L146.22 126.78L146.22 122.09L144.66 122.09L144.66 118.97Z" fill="rgba(118, 255, 3, 0.7607843137254902)"/><path d="M153.47 118.97L155.03 118.97L155.03 114.28L160.50 114.28L160.50 117.41L158.16 117.41L158.16 123.66L160.50 123.66L160.50 126.78L155.03 126.78L155.03 122.09L153.47 122.09L153.47 118.97Z" fill="rgba(0, 0, 0, 0)"/><path d="M162.28 118.97L163.84 118.97L163.84 114.28L169.31 114.28L169.31 117.41L166.97 117.41L166.97 123.66L169.31 123.66L169.31 126.78L163.84 126.78L163.84 122.09L162.28 122.09L162.28 118.97Z" fill="rgba(0, 0, 0, 0)"/><path d="M171.09 118.97L172.66 118.97L172.66 114.28L178.13 114.28L178.13 117.41L175.78 117.41L175.78 123.66L178.13 123.66L178.13 126.78L172.66 126.78L172.66 122.09L171.09 122.09L171.09 118.97Z" fill="rgba(0, 0, 0, 0)"/><path d="M179.91 118.97L181.47 118.97L181.47 114.28L186.94 114.28L186.94 117.41L184.59 117.41L184.59 123.66L186.94 123.66L186.94 126.78L181.47 126.78L181.47 122.09L179.91 122.09L179.91 118.97Z" fill="rgba(0, 0, 0, 0)"/><path d="M188.72 118.97L190.28 118.97L190.28 114.28L195.75 114.28L195.75 117.41L193.41 117.41L193.41 123.66L195.75 123.66L195.75 126.78L190.28 126.78L190.28 122.09L188.72 122.09L188.72 118.97Z" fill="rgba(0, 0, 0, 0)"/><path d="M197.53 118.97L199.09 118.97L199.09 114.28L204.56 114.28L204.56 117.41L202.22 117.41L202.22 123.66L204.56 123.66L204.56 126.78L199.09 126.78L199.09 122.09L197.53 122.09L197.53 118.97Z" fill="rgba(0, 0, 0, 0)"/><path d="M3.66 132.97L5.22 132.97L5.22 128.28L10.69 128.28L10.69 131.41L8.34 131.41L8.34 137.66L10.69 137.66L10.69 140.78L5.22 140.78L5.22 136.09L3.66 136.09L3.66 132.97Z" fill="rgba(117, 255, 4, 0.24705882352941178)"/><path d="M12.47 132.97L14.03 132.97L14.03 128.28L19.50 128.28L19.50 131.41L17.16 131.41L17.16 137.66L19.50 137.66L19.50 140.78L14.03 140.78L14.03 136.09L12.47 136.09L12.47 132.97Z" fill="rgba(118, 255, 3, 1)"/><path d="M21.28 132.97L22.84 132.97L22.84 128.28L28.31 128.28L28.31 131.41L25.97 131.41L25.97 137.66L28.31 137.66L28.31 140.78L22.84 140.78L22.84 136.09L21.28 136.09L21.28 132.97Z" fill="rgba(212, 235, 193, 1)"/><path d="M30.09 132.97L31.66 132.97L31.66 128.28L37.13 128.28L37.13 131.41L34.78 131.41L34.78 137.66L37.13 137.66L37.13 140.78L31.66 140.78L31.66 136.09L30.09 136.09L30.09 132.97Z" fill="rgba(212, 235, 193, 1)"/><path d="M38.91 132.97L40.47 132.97L40.47 128.28L45.94 128.28L45.94 131.41L43.59 131.41L43.59 137.66L45.94 137.66L45.94 140.78L40.47 140.78L40.47 136.09L38.91 136.09L38.91 132.97Z" fill="rgba(231, 231, 231, 1)"/><path d="M47.72 132.97L49.28 132.97L49.28 128.28L54.75 128.28L54.75 131.41L52.41 131.41L52.41 137.66L54.75 137.66L54.75 140.78L49.28 140.78L49.28 136.09L47.72 136.09L47.72 132.97Z" fill="rgba(231, 231, 231, 1)"/><path d="M56.53 132.97L58.09 132.97L58.09 128.28L63.56 128.28L63.56 131.41L61.22 131.41L61.22 137.66L63.56 137.66L63.56 140.78L58.09 140.78L58.09 136.09L56.53 136.09L56.53 132.97Z" fill="rgba(231, 231, 231, 1)"/><path d="M65.34 132.97L66.91 132.97L66.91 128.28L72.38 128.28L72.38 131.41L70.03 131.41L70.03 137.66L72.38 137.66L72.38 140.78L66.91 140.78L66.91 136.09L65.34 136.09L65.34 132.97Z" fill="rgba(231, 231, 231, 1)"/><path d="M74.16 132.97L75.72 132.97L75.72 128.28L81.19 128.28L81.19 131.41L78.84 131.41L78.84 137.66L81.19 137.66L81.19 140.78L75.72 140.78L75.72 136.09L74.16 136.09L74.16 132.97Z" fill="rgba(231, 231, 231, 1)"/><path d="M82.97 132.97L84.53 132.97L84.53 128.28L90 128.28L90 131.41L87.66 131.41L87.66 137.66L90 137.66L90 140.78L84.53 140.78L84.53 136.09L82.97 136.09L82.97 132.97Z" fill="rgba(231, 231, 231, 1)"/><path d="M91.78 132.97L93.34 132.97L93.34 128.28L98.81 128.28L98.81 131.41L96.47 131.41L96.47 137.66L98.81 137.66L98.81 140.78L93.34 140.78L93.34 136.09L91.78 136.09L91.78 132.97Z" fill="rgba(231, 231, 231, 1)"/><path d="M100.59 132.97L102.16 132.97L102.16 128.28L107.63 128.28L107.63 131.41L105.28 131.41L105.28 137.66L107.63 137.66L107.63 140.78L102.16 140.78L102.16 136.09L100.59 136.09L100.59 132.97Z" fill="rgba(231, 231, 231, 1)"/><path d="M109.41 132.97L110.97 132.97L110.97 128.28L116.44 128.28L116.44 131.41L114.09 131.41L114.09 137.66L116.44 137.66L116.44 140.78L110.97 140.78L110.97 136.09L109.41 136.09L109.41 132.97Z" fill="rgba(208, 236, 185, 1)"/><path d="M118.22 132.97L119.78 132.97L119.78 128.28L125.25 128.28L125.25 131.41L122.91 131.41L122.91 137.66L125.25 137.66L125.25 140.78L119.78 140.78L119.78 136.09L118.22 136.09L118.22 132.97Z" fill="rgba(208, 236, 185, 1)"/><path d="M127.03 132.97L128.59 132.97L128.59 128.28L134.06 128.28L134.06 131.41L131.72 131.41L131.72 137.66L134.06 137.66L134.06 140.78L128.59 140.78L128.59 136.09L127.03 136.09L127.03 132.97Z" fill="rgba(119, 255, 4, 1)"/><path d="M135.84 132.97L137.41 132.97L137.41 128.28L142.88 128.28L142.88 131.41L140.53 131.41L140.53 137.66L142.88 137.66L142.88 140.78L137.41 140.78L137.41 136.09L135.84 136.09L135.84 132.97Z" fill="rgba(119, 255, 3, 0.30196078431372547)"/><path d="M144.66 132.97L146.22 132.97L146.22 128.28L151.69 128.28L151.69 131.41L149.34 131.41L149.34 137.66L151.69 137.66L151.69 140.78L146.22 140.78L146.22 136.09L144.66 136.09L144.66 132.97Z" fill="rgba(119, 255, 3, 0.30196078431372547)"/><path d="M153.47 132.97L155.03 132.97L155.03 128.28L160.50 128.28L160.50 131.41L158.16 131.41L158.16 137.66L160.50 137.66L160.50 140.78L155.03 140.78L155.03 136.09L153.47 136.09L153.47 132.97Z" fill="rgba(0, 0, 0, 0)"/><path d="M162.28 132.97L163.84 132.97L163.84 128.28L169.31 128.28L169.31 131.41L166.97 131.41L166.97 137.66L169.31 137.66L169.31 140.78L163.84 140.78L163.84 136.09L162.28 136.09L162.28 132.97Z" fill="rgba(0, 0, 0, 0)"/><path d="M171.09 132.97L172.66 132.97L172.66 128.28L178.13 128.28L178.13 131.41L175.78 131.41L175.78 137.66L178.13 137.66L178.13 140.78L172.66 140.78L172.66 136.09L171.09 136.09L171.09 132.97Z" fill="rgba(0, 0, 0, 0)"/><path d="M179.91 132.97L181.47 132.97L181.47 128.28L186.94 128.28L186.94 131.41L184.59 131.41L184.59 137.66L186.94 137.66L186.94 140.78L181.47 140.78L181.47 136.09L179.91 136.09L179.91 132.97Z" fill="rgba(0, 0, 0, 0)"/><path d="M188.72 132.97L190.28 132.97L190.28 128.28L195.75 128.28L195.75 131.41L193.41 131.41L193.41 137.66L195.75 137.66L195.75 140.78L190.28 140.78L190.28 136.09L188.72 136.09L188.72 132.97Z" fill="rgba(0, 0, 0, 0)"/><path d="M197.53 132.97L199.09 132.97L199.09 128.28L204.56 128.28L204.56 131.41L202.22 131.41L202.22 137.66L204.56 137.66L204.56 140.78L199.09 140.78L199.09 136.09L197.53 136.09L197.53 132.97Z" fill="rgba(0, 0, 0, 0)"/><path d="M3.66 146.97L5.22 146.97L5.22 142.28L10.69 142.28L10.69 145.41L8.34 145.41L8.34 151.66L10.69 151.66L10.69 154.78L5.22 154.78L5.22 150.09L3.66 150.09L3.66 146.97Z" fill="rgba(117, 255, 3, 0.3686274509803922)"/><path d="M12.47 146.97L14.03 146.97L14.03 142.28L19.50 142.28L19.50 145.41L17.16 145.41L17.16 151.66L19.50 151.66L19.50 154.78L14.03 154.78L14.03 150.09L12.47 150.09L12.47 146.97Z" fill="rgba(118, 255, 3, 1)"/><path d="M21.28 146.97L22.84 146.97L22.84 142.28L28.31 142.28L28.31 145.41L25.97 145.41L25.97 151.66L28.31 151.66L28.31 154.78L22.84 154.78L22.84 150.09L21.28 150.09L21.28 146.97Z" fill="rgba(212, 235, 193, 1)"/><path d="M30.09 146.97L31.66 146.97L31.66 142.28L37.13 142.28L37.13 145.41L34.78 145.41L34.78 151.66L37.13 151.66L37.13 154.78L31.66 154.78L31.66 150.09L30.09 150.09L30.09 146.97Z" fill="rgba(212, 235, 193, 1)"/><path d="M38.91 146.97L40.47 146.97L40.47 142.28L45.94 142.28L45.94 145.41L43.59 145.41L43.59 151.66L45.94 151.66L45.94 154.78L40.47 154.78L40.47 150.09L38.91 150.09L38.91 146.97Z" fill="rgba(231, 231, 231, 1)"/><path d="M47.72 146.97L49.28 146.97L49.28 142.28L54.75 142.28L54.75 145.41L52.41 145.41L52.41 151.66L54.75 151.66L54.75 154.78L49.28 154.78L49.28 150.09L47.72 150.09L47.72 146.97Z" fill="rgba(231, 231, 231, 1)"/><path d="M56.53 146.97L58.09 146.97L58.09 142.28L63.56 142.28L63.56 145.41L61.22 145.41L61.22 151.66L63.56 151.66L63.56 154.78L58.09 154.78L58.09 150.09L56.53 150.09L56.53 146.97Z" fill="rgba(231, 231, 231, 1)"/><path d="M65.34 146.97L66.91 146.97L66.91 142.28L72.38 142.28L72.38 145.41L70.03 145.41L70.03 151.66L72.38 151.66L72.38 154.78L66.91 154.78L66.91 150.09L65.34 150.09L65.34 146.97Z" fill="rgba(231, 231, 231, 1)"/><path d="M74.16 146.97L75.72 146.97L75.72 142.28L81.19 142.28L81.19 145.41L78.84 145.41L78.84 151.66L81.19 151.66L81.19 154.78L75.72 154.78L75.72 150.09L74.16 150.09L74.16 146.97Z" fill="rgba(231, 231, 231, 1)"/><path d="M82.97 146.97L84.53 146.97L84.53 142.28L90 142.28L90 145.41L87.66 145.41L87.66 151.66L90 151.66L90 154.78L84.53 154.78L84.53 150.09L82.97 150.09L82.97 146.97Z" fill="rgba(231, 231, 231, 1)"/><path d="M91.78 146.97L93.34 146.97L93.34 142.28L98.81 142.28L98.81 145.41L96.47 145.41L96.47 151.66L98.81 151.66L98.81 154.78L93.34 154.78L93.34 150.09L91.78 150.09L91.78 146.97Z" fill="rgba(231, 231, 231, 1)"/><path d="M100.59 146.97L102.16 146.97L102.16 142.28L107.63 142.28L107.63 145.41L105.28 145.41L105.28 151.66L107.63 151.66L107.63 154.78L102.16 154.78L102.16 150.09L100.59 150.09L100.59 146.97Z" fill="rgba(231, 231, 231, 1)"/><path d="M109.41 146.97L110.97 146.97L110.97 142.28L116.44 142.28L116.44 145.41L114.09 145.41L114.09 151.66L116.44 151.66L116.44 154.78L110.97 154.78L110.97 150.09L109.41 150.09L109.41 146.97Z" fill="rgba(204, 237, 178, 1)"/><path d="M118.22 146.97L119.78 146.97L119.78 142.28L125.25 142.28L125.25 145.41L122.91 145.41L122.91 151.66L125.25 151.66L125.25 154.78L119.78 154.78L119.78 150.09L118.22 150.09L118.22 146.97Z" fill="rgba(204, 237, 178, 1)"/><path d="M127.03 146.97L128.59 146.97L128.59 142.28L134.06 142.28L134.06 145.41L131.72 145.41L131.72 151.66L134.06 151.66L134.06 154.78L128.59 154.78L128.59 150.09L127.03 150.09L127.03 146.97Z" fill="rgba(118, 255, 3, 1)"/><path d="M135.84 146.97L137.41 146.97L137.41 142.28L142.88 142.28L142.88 145.41L140.53 145.41L140.53 151.66L142.88 151.66L142.88 154.78L137.41 154.78L137.41 150.09L135.84 150.09L135.84 146.97Z" fill="rgba(117, 255, 3, 0.2901960784313726)"/><path d="M144.66 146.97L146.22 146.97L146.22 142.28L151.69 142.28L151.69 145.41L149.34 145.41L149.34 151.66L151.69 151.66L151.69 154.78L146.22 154.78L146.22 150.09L144.66 150.09L144.66 146.97Z" fill="rgba(117, 255, 3, 0.2901960784313726)"/><path d="M153.47 146.97L155.03 146.97L155.03 142.28L160.50 142.28L160.50 145.41L158.16 145.41L158.16 151.66L160.50 151.66L160.50 154.78L155.03 154.78L155.03 150.09L153.47 150.09L153.47 146.97Z" fill="rgba(0, 0, 0, 0)"/><path d="M162.28 146.97L163.84 146.97L163.84 142.28L169.31 142.28L169.31 145.41L166.97 145.41L166.97 151.66L169.31 151.66L169.31 154.78L163.84 154.78L163.84 150.09L162.28 150.09L162.28 146.97Z" fill="rgba(0, 0, 0, 0)"/><path d="M171.09 146.97L172.66 146.97L172.66 142.28L178.13 142.28L178.13 145.41L175.78 145.41L175.78 151.66L178.13 151.66L178.13 154.78L172.66 154.78L172.66 150.09L171.09 150.09L171.09 146.97Z" fill="rgba(0, 0, 0, 0)"/><path d="M179.91 146.97L181.47 146.97L181.47 142.28L186.94 142.28L186.94 145.41L184.59 145.41L184.59 151.66L186.94 151.66L186.94 154.78L181.47 154.78L181.47 150.09L179.91 150.09L179.91 146.97Z" fill="rgba(0, 0, 0, 0)"/><path d="M188.72 146.97L190.28 146.97L190.28 142.28L195.75 142.28L195.75 145.41L193.41 145.41L193.41 151.66L195.75 151.66L195.75 154.78L190.28 154.78L190.28 150.09L188.72 150.09L188.72 146.97Z" fill="rgba(0, 0, 0, 0)"/><path d="M197.53 146.97L199.09 146.97L199.09 142.28L204.56 142.28L204.56 145.41L202.22 145.41L202.22 151.66L204.56 151.66L204.56 154.78L199.09 154.78L199.09 150.09L197.53 150.09L197.53 146.97Z" fill="rgba(0, 0, 0, 0)"/><path d="M3.66 160.97L5.22 160.97L5.22 156.28L10.69 156.28L10.69 159.41L8.34 159.41L8.34 165.66L10.69 165.66L10.69 168.78L5.22 168.78L5.22 164.09L3.66 164.09L3.66 160.97Z" fill="rgba(118, 255, 3, 0.7372549019607844)"/><path d="M12.47 160.97L14.03 160.97L14.03 156.28L19.50 156.28L19.50 159.41L17.16 159.41L17.16 165.66L19.50 165.66L19.50 168.78L14.03 168.78L14.03 164.09L12.47 164.09L12.47 160.97Z" fill="rgba(118, 255, 3, 1)"/><path d="M21.28 160.97L22.84 160.97L22.84 156.28L28.31 156.28L28.31 159.41L25.97 159.41L25.97 165.66L28.31 165.66L28.31 168.78L22.84 168.78L22.84 164.09L21.28 164.09L21.28 160.97Z" fill="rgba(118, 255, 3, 1)"/><path d="M30.09 160.97L31.66 160.97L31.66 156.28L37.13 156.28L37.13 159.41L34.78 159.41L34.78 165.66L37.13 165.66L37.13 168.78L31.66 168.78L31.66 164.09L30.09 164.09L30.09 160.97Z" fill="rgba(118, 255, 3, 1)"/><path d="M38.91 160.97L40.47 160.97L40.47 156.28L45.94 156.28L45.94 159.41L43.59 159.41L43.59 165.66L45.94 165.66L45.94 168.78L40.47 168.78L40.47 164.09L38.91 164.09L38.91 160.97Z" fill="rgba(118, 255, 3, 1)"/><path d="M47.72 160.97L49.28 160.97L49.28 156.28L54.75 156.28L54.75 159.41L52.41 159.41L52.41 165.66L54.75 165.66L54.75 168.78L49.28 168.78L49.28 164.09L47.72 164.09L47.72 160.97Z" fill="rgba(118, 255, 3, 1)"/><path d="M56.53 160.97L58.09 160.97L58.09 156.28L63.56 156.28L63.56 159.41L61.22 159.41L61.22 165.66L63.56 165.66L63.56 168.78L58.09 168.78L58.09 164.09L56.53 164.09L56.53 160.97Z" fill="rgba(220, 233, 210, 1)"/><path d="M65.34 160.97L66.91 160.97L66.91 156.28L72.38 156.28L72.38 159.41L70.03 159.41L70.03 165.66L72.38 165.66L72.38 168.78L66.91 168.78L66.91 164.09L65.34 164.09L65.34 160.97Z" fill="rgba(231, 231, 231, 1)"/><path d="M74.16 160.97L75.72 160.97L75.72 156.28L81.19 156.28L81.19 159.41L78.84 159.41L78.84 165.66L81.19 165.66L81.19 168.78L75.72 168.78L75.72 164.09L74.16 164.09L74.16 160.97Z" fill="rgba(231, 231, 231, 1)"/><path d="M82.97 160.97L84.53 160.97L84.53 156.28L90 156.28L90 159.41L87.66 159.41L87.66 165.66L90 165.66L90 168.78L84.53 168.78L84.53 164.09L82.97 164.09L82.97 160.97Z" fill="rgba(231, 231, 231, 1)"/><path d="M91.78 160.97L93.34 160.97L93.34 156.28L98.81 156.28L98.81 159.41L96.47 159.41L96.47 165.66L98.81 165.66L98.81 168.78L93.34 168.78L93.34 164.09L91.78 164.09L91.78 160.97Z" fill="rgba(231, 231, 231, 1)"/><path d="M100.59 160.97L102.16 160.97L102.16 156.28L107.63 156.28L107.63 159.41L105.28 159.41L105.28 165.66L107.63 165.66L107.63 168.78L102.16 168.78L102.16 164.09L100.59 164.09L100.59 160.97Z" fill="rgba(231, 231, 231, 1)"/><path d="M109.41 160.97L110.97 160.97L110.97 156.28L116.44 156.28L116.44 159.41L114.09 159.41L114.09 165.66L116.44 165.66L116.44 168.78L110.97 168.78L110.97 164.09L109.41 164.09L109.41 160.97Z" fill="rgba(149, 248, 66, 1)"/><path d="M118.22 160.97L119.78 160.97L119.78 156.28L125.25 156.28L125.25 159.41L122.91 159.41L122.91 165.66L125.25 165.66L125.25 168.78L119.78 168.78L119.78 164.09L118.22 164.09L118.22 160.97Z" fill="rgba(149, 248, 66, 1)"/><path d="M127.03 160.97L128.59 160.97L128.59 156.28L134.06 156.28L134.06 159.41L131.72 159.41L131.72 165.66L134.06 165.66L134.06 168.78L128.59 168.78L128.59 164.09L127.03 164.09L127.03 160.97Z" fill="rgba(118, 255, 3, 1)"/><path d="M135.84 160.97L137.41 160.97L137.41 156.28L142.88 156.28L142.88 159.41L140.53 159.41L140.53 165.66L142.88 165.66L142.88 168.78L137.41 168.78L137.41 164.09L135.84 164.09L135.84 160.97Z" fill="rgba(0, 0, 0, 0)"/><path d="M144.66 160.97L146.22 160.97L146.22 156.28L151.69 156.28L151.69 159.41L149.34 159.41L149.34 165.66L151.69 165.66L151.69 168.78L146.22 168.78L146.22 164.09L144.66 164.09L144.66 160.97Z" fill="rgba(0, 0, 0, 0)"/><path d="M153.47 160.97L155.03 160.97L155.03 156.28L160.50 156.28L160.50 159.41L158.16 159.41L158.16 165.66L160.50 165.66L160.50 168.78L155.03 168.78L155.03 164.09L153.47 164.09L153.47 160.97Z" fill="rgba(0, 0, 0, 0)"/><path d="M162.28 160.97L163.84 160.97L163.84 156.28L169.31 156.28L169.31 159.41L166.97 159.41L166.97 165.66L169.31 165.66L169.31 168.78L163.84 168.78L163.84 164.09L162.28 164.09L162.28 160.97Z" fill="rgba(0, 0, 0, 0)"/><path d="M171.09 160.97L172.66 160.97L172.66 156.28L178.13 156.28L178.13 159.41L175.78 159.41L175.78 165.66L178.13 165.66L178.13 168.78L172.66 168.78L172.66 164.09L171.09 164.09L171.09 160.97Z" fill="rgba(0, 0, 0, 0)"/><path d="M179.91 160.97L181.47 160.97L181.47 156.28L186.94 156.28L186.94 159.41L184.59 159.41L184.59 165.66L186.94 165.66L186.94 168.78L181.47 168.78L181.47 164.09L179.91 164.09L179.91 160.97Z" fill="rgba(0, 0, 0, 0)"/><path d="M188.72 160.97L190.28 160.97L190.28 156.28L195.75 156.28L195.75 159.41L193.41 159.41L193.41 165.66L195.75 165.66L195.75 168.78L190.28 168.78L190.28 164.09L188.72 164.09L188.72 160.97Z" fill="rgba(0, 0, 0, 0)"/><path d="M197.53 160.97L199.09 160.97L199.09 156.28L204.56 156.28L204.56 159.41L202.22 159.41L202.22 165.66L204.56 165.66L204.56 168.78L199.09 168.78L199.09 164.09L197.53 164.09L197.53 160.97Z" fill="rgba(0, 0, 0, 0)"/><path d="M3.66 174.97L5.22 174.97L5.22 170.28L10.69 170.28L10.69 173.41L8.34 173.41L8.34 179.66L10.69 179.66L10.69 182.78L5.22 182.78L5.22 178.09L3.66 178.09L3.66 174.97Z" fill="rgba(119, 255, 3, 0.6235294117647059)"/><path d="M12.47 174.97L14.03 174.97L14.03 170.28L19.50 170.28L19.50 173.41L17.16 173.41L17.16 179.66L19.50 179.66L19.50 182.78L14.03 182.78L14.03 178.09L12.47 178.09L12.47 174.97Z" fill="rgba(119, 255, 3, 0.6235294117647059)"/><path d="M21.28 174.97L22.84 174.97L22.84 170.28L28.31 170.28L28.31 173.41L25.97 173.41L25.97 179.66L28.31 179.66L28.31 182.78L22.84 182.78L22.84 178.09L21.28 178.09L21.28 174.97Z" fill="rgba(118, 255, 3, 0.9372549019607843)"/><path d="M30.09 174.97L31.66 174.97L31.66 170.28L37.13 170.28L37.13 173.41L34.78 173.41L34.78 179.66L37.13 179.66L37.13 182.78L31.66 182.78L31.66 178.09L30.09 178.09L30.09 174.97Z" fill="rgba(118, 255, 3, 0.9372549019607843)"/><path d="M38.91 174.97L40.47 174.97L40.47 170.28L45.94 170.28L45.94 173.41L43.59 173.41L43.59 179.66L45.94 179.66L45.94 182.78L40.47 182.78L40.47 178.09L38.91 178.09L38.91 174.97Z" fill="rgba(118, 255, 3, 1)"/><path d="M47.72 174.97L49.28 174.97L49.28 170.28L54.75 170.28L54.75 173.41L52.41 173.41L52.41 179.66L54.75 179.66L54.75 182.78L49.28 182.78L49.28 178.09L47.72 178.09L47.72 174.97Z" fill="rgba(118, 255, 3, 1)"/><path d="M56.53 174.97L58.09 174.97L58.09 170.28L63.56 170.28L63.56 173.41L61.22 173.41L61.22 179.66L63.56 179.66L63.56 182.78L58.09 182.78L58.09 178.09L56.53 178.09L56.53 174.97Z" fill="rgba(231, 231, 231, 1)"/><path d="M65.34 174.97L66.91 174.97L66.91 170.28L72.38 170.28L72.38 173.41L70.03 173.41L70.03 179.66L72.38 179.66L72.38 182.78L66.91 182.78L66.91 178.09L65.34 178.09L65.34 174.97Z" fill="rgba(231, 231, 231, 1)"/><path d="M74.16 174.97L75.72 174.97L75.72 170.28L81.19 170.28L81.19 173.41L78.84 173.41L78.84 179.66L81.19 179.66L81.19 182.78L75.72 182.78L75.72 178.09L74.16 178.09L74.16 174.97Z" fill="rgba(231, 231, 231, 1)"/><path d="M82.97 174.97L84.53 174.97L84.53 170.28L90 170.28L90 173.41L87.66 173.41L87.66 179.66L90 179.66L90 182.78L84.53 182.78L84.53 178.09L82.97 178.09L82.97 174.97Z" fill="rgba(231, 231, 231, 1)"/><path d="M91.78 174.97L93.34 174.97L93.34 170.28L98.81 170.28L98.81 173.41L96.47 173.41L96.47 179.66L98.81 179.66L98.81 182.78L93.34 182.78L93.34 178.09L91.78 178.09L91.78 174.97Z" fill="rgba(231, 231, 231, 1)"/><path d="M100.59 174.97L102.16 174.97L102.16 170.28L107.63 170.28L107.63 173.41L105.28 173.41L105.28 179.66L107.63 179.66L107.63 182.78L102.16 182.78L102.16 178.09L100.59 178.09L100.59 174.97Z" fill="rgba(231, 231, 231, 1)"/><path d="M109.41 174.97L110.97 174.97L110.97 170.28L116.44 170.28L116.44 173.41L114.09 173.41L114.09 179.66L116.44 179.66L116.44 182.78L110.97 182.78L110.97 178.09L109.41 178.09L109.41 174.97Z" fill="rgba(118, 255, 3, 1)"/><path d="M118.22 174.97L119.78 174.97L119.78 170.28L125.25 170.28L125.25 173.41L122.91 173.41L122.91 179.66L125.25 179.66L125.25 182.78L119.78 182.78L119.78 178.09L118.22 178.09L118.22 174.97Z" fill="rgba(118, 255, 3, 1)"/><path d="M127.03 174.97L128.59 174.97L128.59 170.28L134.06 170.28L134.06 173.41L131.72 173.41L131.72 179.66L134.06 179.66L134.06 182.78L128.59 182.78L128.59 178.09L127.03 178.09L127.03 174.97Z" fill="rgba(118, 255, 3, 0.9411764705882353)"/><path d="M135.84 174.97L137.41 174.97L137.41 170.28L142.88 170.28L142.88 173.41L140.53 173.41L140.53 179.66L142.88 179.66L142.88 182.78L137.41 182.78L137.41 178.09L135.84 178.09L135.84 174.97Z" fill="rgba(0, 0, 0, 0)"/><path d="M144.66 174.97L146.22 174.97L146.22 170.28L151.69 170.28L151.69 173.41L149.34 173.41L149.34 179.66L151.69 179.66L151.69 182.78L146.22 182.78L146.22 178.09L144.66 178.09L144.66 174.97Z" fill="rgba(0, 0, 0, 0)"/><path d="M153.47 174.97L155.03 174.97L155.03 170.28L160.50 170.28L160.50 173.41L158.16 173.41L158.16 179.66L160.50 179.66L160.50 182.78L155.03 182.78L155.03 178.09L153.47 178.09L153.47 174.97Z" fill="rgba(0, 0, 0, 0)"/><path d="M162.28 174.97L163.84 174.97L163.84 170.28L169.31 170.28L169.31 173.41L166.97 173.41L166.97 179.66L169.31 179.66L169.31 182.78L163.84 182.78L163.84 178.09L162.28 178.09L162.28 174.97Z" fill="rgba(0, 0, 0, 0)"/><path d="M171.09 174.97L172.66 174.97L172.66 170.28L178.13 170.28L178.13 173.41L175.78 173.41L175.78 179.66L178.13 179.66L178.13 182.78L172.66 182.78L172.66 178.09L171.09 178.09L171.09 174.97Z" fill="rgba(0, 0, 0, 0)"/><path d="M179.91 174.97L181.47 174.97L181.47 170.28L186.94 170.28L186.94 173.41L184.59 173.41L184.59 179.66L186.94 179.66L186.94 182.78L181.47 182.78L181.47 178.09L179.91 178.09L179.91 174.97Z" fill="rgba(0, 0, 0, 0)"/><path d="M188.72 174.97L190.28 174.97L190.28 170.28L195.75 170.28L195.75 173.41L193.41 173.41L193.41 179.66L195.75 179.66L195.75 182.78L190.28 182.78L190.28 178.09L188.72 178.09L188.72 174.97Z" fill="rgba(0, 0, 0, 0)"/><path d="M197.53 174.97L199.09 174.97L199.09 170.28L204.56 170.28L204.56 173.41L202.22 173.41L202.22 179.66L204.56 179.66L204.56 182.78L199.09 182.78L199.09 178.09L197.53 178.09L197.53 174.97Z" fill="rgba(0, 0, 0, 0)"/><path d="M3.66 188.97L5.22 188.97L5.22 184.28L10.69 184.28L10.69 187.41L8.34 187.41L8.34 193.66L10.69 193.66L10.69 196.78L5.22 196.78L5.22 192.09L3.66 192.09L3.66 188.97Z" fill="rgba(0, 0, 0, 0)"/><path d="M12.47 188.97L14.03 188.97L14.03 184.28L19.50 184.28L19.50 187.41L17.16 187.41L17.16 193.66L19.50 193.66L19.50 196.78L14.03 196.78L14.03 192.09L12.47 192.09L12.47 188.97Z" fill="rgba(85, 255, 0, 0.011764705882352941)"/><path d="M21.28 188.97L22.84 188.97L22.84 184.28L28.31 184.28L28.31 187.41L25.97 187.41L25.97 193.66L28.31 193.66L28.31 196.78L22.84 196.78L22.84 192.09L21.28 192.09L21.28 188.97Z" fill="rgba(118, 255, 4, 0.8509803921568627)"/><path d="M30.09 188.97L31.66 188.97L31.66 184.28L37.13 184.28L37.13 187.41L34.78 187.41L34.78 193.66L37.13 193.66L37.13 196.78L31.66 196.78L31.66 192.09L30.09 192.09L30.09 188.97Z" fill="rgba(118, 255, 4, 0.8509803921568627)"/><path d="M38.91 188.97L40.47 188.97L40.47 184.28L45.94 184.28L45.94 187.41L43.59 187.41L43.59 193.66L45.94 193.66L45.94 196.78L40.47 196.78L40.47 192.09L38.91 192.09L38.91 188.97Z" fill="rgba(180, 242, 129, 1)"/><path d="M47.72 188.97L49.28 188.97L49.28 184.28L54.75 184.28L54.75 187.41L52.41 187.41L52.41 193.66L54.75 193.66L54.75 196.78L49.28 196.78L49.28 192.09L47.72 192.09L47.72 188.97Z" fill="rgba(180, 242, 129, 1)"/><path d="M56.53 188.97L58.09 188.97L58.09 184.28L63.56 184.28L63.56 187.41L61.22 187.41L61.22 193.66L63.56 193.66L63.56 196.78L58.09 196.78L58.09 192.09L56.53 192.09L56.53 188.97Z" fill="rgba(231, 231, 231, 1)"/><path d="M65.34 188.97L66.91 188.97L66.91 184.28L72.38 184.28L72.38 187.41L70.03 187.41L70.03 193.66L72.38 193.66L72.38 196.78L66.91 196.78L66.91 192.09L65.34 192.09L65.34 188.97Z" fill="rgba(231, 231, 231, 1)"/><path d="M74.16 188.97L75.72 188.97L75.72 184.28L81.19 184.28L81.19 187.41L78.84 187.41L78.84 193.66L81.19 193.66L81.19 196.78L75.72 196.78L75.72 192.09L74.16 192.09L74.16 188.97Z" fill="rgba(231, 231, 231, 1)"/><path d="M82.97 188.97L84.53 188.97L84.53 184.28L90 184.28L90 187.41L87.66 187.41L87.66 193.66L90 193.66L90 196.78L84.53 196.78L84.53 192.09L82.97 192.09L82.97 188.97Z" fill="rgba(231, 231, 231, 1)"/><path d="M91.78 188.97L93.34 188.97L93.34 184.28L98.81 184.28L98.81 187.41L96.47 187.41L96.47 193.66L98.81 193.66L98.81 196.78L93.34 196.78L93.34 192.09L91.78 192.09L91.78 188.97Z" fill="rgba(212, 235, 192, 1)"/><path d="M100.59 188.97L102.16 188.97L102.16 184.28L107.63 184.28L107.63 187.41L105.28 187.41L105.28 193.66L107.63 193.66L107.63 196.78L102.16 196.78L102.16 192.09L100.59 192.09L100.59 188.97Z" fill="rgba(212, 235, 192, 1)"/><path d="M109.41 188.97L110.97 188.97L110.97 184.28L116.44 184.28L116.44 187.41L114.09 187.41L114.09 193.66L116.44 193.66L116.44 196.78L110.97 196.78L110.97 192.09L109.41 192.09L109.41 188.97Z" fill="rgba(118, 255, 3, 1)"/><path d="M118.22 188.97L119.78 188.97L119.78 184.28L125.25 184.28L125.25 187.41L122.91 187.41L122.91 193.66L125.25 193.66L125.25 196.78L119.78 196.78L119.78 192.09L118.22 192.09L118.22 188.97Z" fill="rgba(118, 255, 3, 1)"/><path d="M127.03 188.97L128.59 188.97L128.59 184.28L134.06 184.28L134.06 187.41L131.72 187.41L131.72 193.66L134.06 193.66L134.06 196.78L128.59 196.78L128.59 192.09L127.03 192.09L127.03 188.97Z" fill="rgba(115, 255, 0, 0.1568627450980392)"/><path d="M135.84 188.97L137.41 188.97L137.41 184.28L142.88 184.28L142.88 187.41L140.53 187.41L140.53 193.66L142.88 193.66L142.88 196.78L137.41 196.78L137.41 192.09L135.84 192.09L135.84 188.97Z" fill="rgba(120, 255, 0, 0.12549019607843137)"/><path d="M144.66 188.97L146.22 188.97L146.22 184.28L151.69 184.28L151.69 187.41L149.34 187.41L149.34 193.66L151.69 193.66L151.69 196.78L146.22 196.78L146.22 192.09L144.66 192.09L144.66 188.97Z" fill="rgba(120, 255, 0, 0.12549019607843137)"/><path d="M153.47 188.97L155.03 188.97L155.03 184.28L160.50 184.28L160.50 187.41L158.16 187.41L158.16 193.66L160.50 193.66L160.50 196.78L155.03 196.78L155.03 192.09L153.47 192.09L153.47 188.97Z" fill="rgba(128, 255, 0, 0.00784313725490196)"/><path d="M162.28 188.97L163.84 188.97L163.84 184.28L169.31 184.28L169.31 187.41L166.97 187.41L166.97 193.66L169.31 193.66L169.31 196.78L163.84 196.78L163.84 192.09L162.28 192.09L162.28 188.97Z" fill="rgba(0, 0, 0, 0)"/><path d="M171.09 188.97L172.66 188.97L172.66 184.28L178.13 184.28L178.13 187.41L175.78 187.41L175.78 193.66L178.13 193.66L178.13 196.78L172.66 196.78L172.66 192.09L171.09 192.09L171.09 188.97Z" fill="rgba(0, 0, 0, 0)"/><path d="M179.91 188.97L181.47 188.97L181.47 184.28L186.94 184.28L186.94 187.41L184.59 187.41L184.59 193.66L186.94 193.66L186.94 196.78L181.47 196.78L181.47 192.09L179.91 192.09L179.91 188.97Z" fill="rgba(0, 0, 0, 0)"/><path d="M188.72 188.97L190.28 188.97L190.28 184.28L195.75 184.28L195.75 187.41L193.41 187.41L193.41 193.66L195.75 193.66L195.75 196.78L190.28 196.78L190.28 192.09L188.72 192.09L188.72 188.97Z" fill="rgba(0, 0, 0, 0)"/><path d="M197.53 188.97L199.09 188.97L199.09 184.28L204.56 184.28L204.56 187.41L202.22 187.41L202.22 193.66L204.56 193.66L204.56 196.78L199.09 196.78L199.09 192.09L197.53 192.09L197.53 188.97Z" fill="rgba(0, 0, 0, 0)"/><path d="M3.66 202.97L5.22 202.97L5.22 198.28L10.69 198.28L10.69 201.41L8.34 201.41L8.34 207.66L10.69 207.66L10.69 210.78L5.22 210.78L5.22 206.09L3.66 206.09L3.66 202.97Z" fill="rgba(0, 0, 0, 0)"/><path d="M12.47 202.97L14.03 202.97L14.03 198.28L19.50 198.28L19.50 201.41L17.16 201.41L17.16 207.66L19.50 207.66L19.50 210.78L14.03 210.78L14.03 206.09L12.47 206.09L12.47 202.97Z" fill="rgba(118, 255, 0, 0.10196078431372549)"/><path d="M21.28 202.97L22.84 202.97L22.84 198.28L28.31 198.28L28.31 201.41L25.97 201.41L25.97 207.66L28.31 207.66L28.31 210.78L22.84 210.78L22.84 206.09L21.28 206.09L21.28 202.97Z" fill="rgba(118, 255, 3, 1)"/><path d="M30.09 202.97L31.66 202.97L31.66 198.28L37.13 198.28L37.13 201.41L34.78 201.41L34.78 207.66L37.13 207.66L37.13 210.78L31.66 210.78L31.66 206.09L30.09 206.09L30.09 202.97Z" fill="rgba(118, 255, 3, 1)"/><path d="M38.91 202.97L40.47 202.97L40.47 198.28L45.94 198.28L45.94 201.41L43.59 201.41L43.59 207.66L45.94 207.66L45.94 210.78L40.47 210.78L40.47 206.09L38.91 206.09L38.91 202.97Z" fill="rgba(182, 241, 132, 1)"/><path d="M47.72 202.97L49.28 202.97L49.28 198.28L54.75 198.28L54.75 201.41L52.41 201.41L52.41 207.66L54.75 207.66L54.75 210.78L49.28 210.78L49.28 206.09L47.72 206.09L47.72 202.97Z" fill="rgba(182, 241, 132, 1)"/><path d="M56.53 202.97L58.09 202.97L58.09 198.28L63.56 198.28L63.56 201.41L61.22 201.41L61.22 207.66L63.56 207.66L63.56 210.78L58.09 210.78L58.09 206.09L56.53 206.09L56.53 202.97Z" fill="rgba(231, 231, 231, 1)"/><path d="M65.34 202.97L66.91 202.97L66.91 198.28L72.38 198.28L72.38 201.41L70.03 201.41L70.03 207.66L72.38 207.66L72.38 210.78L66.91 210.78L66.91 206.09L65.34 206.09L65.34 202.97Z" fill="rgba(231, 231, 231, 1)"/><path d="M74.16 202.97L75.72 202.97L75.72 198.28L81.19 198.28L81.19 201.41L78.84 201.41L78.84 207.66L81.19 207.66L81.19 210.78L75.72 210.78L75.72 206.09L74.16 206.09L74.16 202.97Z" fill="rgba(231, 231, 231, 1)"/><path d="M82.97 202.97L84.53 202.97L84.53 198.28L90 198.28L90 201.41L87.66 201.41L87.66 207.66L90 207.66L90 210.78L84.53 210.78L84.53 206.09L82.97 206.09L82.97 202.97Z" fill="rgba(231, 231, 231, 1)"/><path d="M91.78 202.97L93.34 202.97L93.34 198.28L98.81 198.28L98.81 201.41L96.47 201.41L96.47 207.66L98.81 207.66L98.81 210.78L93.34 210.78L93.34 206.09L91.78 206.09L91.78 202.97Z" fill="rgba(174, 243, 117, 1)"/><path d="M100.59 202.97L102.16 202.97L102.16 198.28L107.63 198.28L107.63 201.41L105.28 201.41L105.28 207.66L107.63 207.66L107.63 210.78L102.16 210.78L102.16 206.09L100.59 206.09L100.59 202.97Z" fill="rgba(174, 243, 117, 1)"/><path d="M109.41 202.97L110.97 202.97L110.97 198.28L116.44 198.28L116.44 201.41L114.09 201.41L114.09 207.66L116.44 207.66L116.44 210.78L110.97 210.78L110.97 206.09L109.41 206.09L109.41 202.97Z" fill="rgba(118, 255, 3, 1)"/><path d="M118.22 202.97L119.78 202.97L119.78 198.28L125.25 198.28L125.25 201.41L122.91 201.41L122.91 207.66L125.25 207.66L125.25 210.78L119.78 210.78L119.78 206.09L118.22 206.09L118.22 202.97Z" fill="rgba(118, 255, 3, 1)"/><path d="M127.03 202.97L128.59 202.97L128.59 198.28L134.06 198.28L134.06 201.41L131.72 201.41L131.72 207.66L134.06 207.66L134.06 210.78L128.59 210.78L128.59 206.09L127.03 206.09L127.03 202.97Z" fill="rgba(118, 255, 3, 1)"/><path d="M135.84 202.97L137.41 202.97L137.41 198.28L142.88 198.28L142.88 201.41L140.53 201.41L140.53 207.66L142.88 207.66L142.88 210.78L137.41 210.78L137.41 206.09L135.84 206.09L135.84 202.97Z" fill="rgba(118, 255, 3, 1)"/><path d="M144.66 202.97L146.22 202.97L146.22 198.28L151.69 198.28L151.69 201.41L149.34 201.41L149.34 207.66L151.69 207.66L151.69 210.78L146.22 210.78L146.22 206.09L144.66 206.09L144.66 202.97Z" fill="rgba(118, 255, 3, 1)"/><path d="M153.47 202.97L155.03 202.97L155.03 198.28L160.50 198.28L160.50 201.41L158.16 201.41L158.16 207.66L160.50 207.66L160.50 210.78L155.03 210.78L155.03 206.09L153.47 206.09L153.47 202.97Z" fill="rgba(128, 255, 0, 0.00784313725490196)"/><path d="M162.28 202.97L163.84 202.97L163.84 198.28L169.31 198.28L169.31 201.41L166.97 201.41L166.97 207.66L169.31 207.66L169.31 210.78L163.84 210.78L163.84 206.09L162.28 206.09L162.28 202.97Z" fill="rgba(0, 0, 0, 0)"/><path d="M171.09 202.97L172.66 202.97L172.66 198.28L178.13 198.28L178.13 201.41L175.78 201.41L175.78 207.66L178.13 207.66L178.13 210.78L172.66 210.78L172.66 206.09L171.09 206.09L171.09 202.97Z" fill="rgba(0, 0, 0, 0)"/><path d="M179.91 202.97L181.47 202.97L181.47 198.28L186.94 198.28L186.94 201.41L184.59 201.41L184.59 207.66L186.94 207.66L186.94 210.78L181.47 210.78L181.47 206.09L179.91 206.09L179.91 202.97Z" fill="rgba(0, 0, 0, 0)"/><path d="M188.72 202.97L190.28 202.97L190.28 198.28L195.75 198.28L195.75 201.41L193.41 201.41L193.41 207.66L195.75 207.66L195.75 210.78L190.28 210.78L190.28 206.09L188.72 206.09L188.72 202.97Z" fill="rgba(0, 0, 0, 0)"/><path d="M197.53 202.97L199.09 202.97L199.09 198.28L204.56 198.28L204.56 201.41L202.22 201.41L202.22 207.66L204.56 207.66L204.56 210.78L199.09 210.78L199.09 206.09L197.53 206.09L197.53 202.97Z" fill="rgba(0, 0, 0, 0)"/><path d="M3.66 216.97L5.22 216.97L5.22 212.28L10.69 212.28L10.69 215.41L8.34 215.41L8.34 221.66L10.69 221.66L10.69 224.78L5.22 224.78L5.22 220.09L3.66 220.09L3.66 216.97Z" fill="rgba(0, 0, 0, 0)"/><path d="M12.47 216.97L14.03 216.97L14.03 212.28L19.50 212.28L19.50 215.41L17.16 215.41L17.16 221.66L19.50 221.66L19.50 224.78L14.03 224.78L14.03 220.09L12.47 220.09L12.47 216.97Z" fill="rgba(118, 255, 0, 0.15294117647058825)"/><path d="M21.28 216.97L22.84 216.97L22.84 212.28L28.31 212.28L28.31 215.41L25.97 215.41L25.97 221.66L28.31 221.66L28.31 224.78L22.84 224.78L22.84 220.09L21.28 220.09L21.28 216.97Z" fill="rgba(118, 255, 3, 1)"/><path d="M30.09 216.97L31.66 216.97L31.66 212.28L37.13 212.28L37.13 215.41L34.78 215.41L34.78 221.66L37.13 221.66L37.13 224.78L31.66 224.78L31.66 220.09L30.09 220.09L30.09 216.97Z" fill="rgba(118, 255, 3, 1)"/><path d="M38.91 216.97L40.47 216.97L40.47 212.28L45.94 212.28L45.94 215.41L43.59 215.41L43.59 221.66L45.94 221.66L45.94 224.78L40.47 224.78L40.47 220.09L38.91 220.09L38.91 216.97Z" fill="rgba(213, 235, 195, 1)"/><path d="M47.72 216.97L49.28 216.97L49.28 212.28L54.75 212.28L54.75 215.41L52.41 215.41L52.41 221.66L54.75 221.66L54.75 224.78L49.28 224.78L49.28 220.09L47.72 220.09L47.72 216.97Z" fill="rgba(213, 235, 195, 1)"/><path d="M56.53 216.97L58.09 216.97L58.09 212.28L63.56 212.28L63.56 215.41L61.22 215.41L61.22 221.66L63.56 221.66L63.56 224.78L58.09 224.78L58.09 220.09L56.53 220.09L56.53 216.97Z" fill="rgba(231, 231, 231, 1)"/><path d="M65.34 216.97L66.91 216.97L66.91 212.28L72.38 212.28L72.38 215.41L70.03 215.41L70.03 221.66L72.38 221.66L72.38 224.78L66.91 224.78L66.91 220.09L65.34 220.09L65.34 216.97Z" fill="rgba(231, 231, 231, 1)"/><path d="M74.16 216.97L75.72 216.97L75.72 212.28L81.19 212.28L81.19 215.41L78.84 215.41L78.84 221.66L81.19 221.66L81.19 224.78L75.72 224.78L75.72 220.09L74.16 220.09L74.16 216.97Z" fill="rgba(231, 231, 231, 1)"/><path d="M82.97 216.97L84.53 216.97L84.53 212.28L90 212.28L90 215.41L87.66 215.41L87.66 221.66L90 221.66L90 224.78L84.53 224.78L84.53 220.09L82.97 220.09L82.97 216.97Z" fill="rgba(231, 231, 231, 1)"/><path d="M91.78 216.97L93.34 216.97L93.34 212.28L98.81 212.28L98.81 215.41L96.47 215.41L96.47 221.66L98.81 221.66L98.81 224.78L93.34 224.78L93.34 220.09L91.78 220.09L91.78 216.97Z" fill="rgba(210, 235, 188, 1)"/><path d="M100.59 216.97L102.16 216.97L102.16 212.28L107.63 212.28L107.63 215.41L105.28 215.41L105.28 221.66L107.63 221.66L107.63 224.78L102.16 224.78L102.16 220.09L100.59 220.09L100.59 216.97Z" fill="rgba(210, 235, 188, 1)"/><path d="M109.41 216.97L110.97 216.97L110.97 212.28L116.44 212.28L116.44 215.41L114.09 215.41L114.09 221.66L116.44 221.66L116.44 224.78L110.97 224.78L110.97 220.09L109.41 220.09L109.41 216.97Z" fill="rgba(189, 240, 145, 1)"/><path d="M118.22 216.97L119.78 216.97L119.78 212.28L125.25 212.28L125.25 215.41L122.91 215.41L122.91 221.66L125.25 221.66L125.25 224.78L119.78 224.78L119.78 220.09L118.22 220.09L118.22 216.97Z" fill="rgba(189, 240, 145, 1)"/><path d="M127.03 216.97L128.59 216.97L128.59 212.28L134.06 212.28L134.06 215.41L131.72 215.41L131.72 221.66L134.06 221.66L134.06 224.78L128.59 224.78L128.59 220.09L127.03 220.09L127.03 216.97Z" fill="rgba(121, 254, 8, 1)"/><path d="M135.84 216.97L137.41 216.97L137.41 212.28L142.88 212.28L142.88 215.41L140.53 215.41L140.53 221.66L142.88 221.66L142.88 224.78L137.41 224.78L137.41 220.09L135.84 220.09L135.84 216.97Z" fill="rgba(118, 255, 3, 0.9882352941176471)"/><path d="M144.66 216.97L146.22 216.97L146.22 212.28L151.69 212.28L151.69 215.41L149.34 215.41L149.34 221.66L151.69 221.66L151.69 224.78L146.22 224.78L146.22 220.09L144.66 220.09L144.66 216.97Z" fill="rgba(118, 255, 3, 0.9882352941176471)"/><path d="M153.47 216.97L155.03 216.97L155.03 212.28L160.50 212.28L160.50 215.41L158.16 215.41L158.16 221.66L160.50 221.66L160.50 224.78L155.03 224.78L155.03 220.09L153.47 220.09L153.47 216.97Z" fill="rgba(0, 0, 0, 0)"/><path d="M162.28 216.97L163.84 216.97L163.84 212.28L169.31 212.28L169.31 215.41L166.97 215.41L166.97 221.66L169.31 221.66L169.31 224.78L163.84 224.78L163.84 220.09L162.28 220.09L162.28 216.97Z" fill="rgba(0, 0, 0, 0)"/><path d="M171.09 216.97L172.66 216.97L172.66 212.28L178.13 212.28L178.13 215.41L175.78 215.41L175.78 221.66L178.13 221.66L178.13 224.78L172.66 224.78L172.66 220.09L171.09 220.09L171.09 216.97Z" fill="rgba(0, 0, 0, 0)"/><path d="M179.91 216.97L181.47 216.97L181.47 212.28L186.94 212.28L186.94 215.41L184.59 215.41L184.59 221.66L186.94 221.66L186.94 224.78L181.47 224.78L181.47 220.09L179.91 220.09L179.91 216.97Z" fill="rgba(0, 0, 0, 0)"/><path d="M188.72 216.97L190.28 216.97L190.28 212.28L195.75 212.28L195.75 215.41L193.41 215.41L193.41 221.66L195.75 221.66L195.75 224.78L190.28 224.78L190.28 220.09L188.72 220.09L188.72 216.97Z" fill="rgba(0, 0, 0, 0)"/><path d="M197.53 216.97L199.09 216.97L199.09 212.28L204.56 212.28L204.56 215.41L202.22 215.41L202.22 221.66L204.56 221.66L204.56 224.78L199.09 224.78L199.09 220.09L197.53 220.09L197.53 216.97Z" fill="rgba(0, 0, 0, 0)"/><path d="M3.66 230.97L5.22 230.97L5.22 226.28L10.69 226.28L10.69 229.41L8.34 229.41L8.34 235.66L10.69 235.66L10.69 238.78L5.22 238.78L5.22 234.09L3.66 234.09L3.66 230.97Z" fill="rgba(0, 0, 0, 0)"/><path d="M12.47 230.97L14.03 230.97L14.03 226.28L19.50 226.28L19.50 229.41L17.16 229.41L17.16 235.66L19.50 235.66L19.50 238.78L14.03 238.78L14.03 234.09L12.47 234.09L12.47 230.97Z" fill="rgba(118, 255, 3, 1)"/><path d="M21.28 230.97L22.84 230.97L22.84 226.28L28.31 226.28L28.31 229.41L25.97 229.41L25.97 235.66L28.31 235.66L28.31 238.78L22.84 238.78L22.84 234.09L21.28 234.09L21.28 230.97Z" fill="rgba(118, 255, 3, 1)"/><path d="M30.09 230.97L31.66 230.97L31.66 226.28L37.13 226.28L37.13 229.41L34.78 229.41L34.78 235.66L37.13 235.66L37.13 238.78L31.66 238.78L31.66 234.09L30.09 234.09L30.09 230.97Z" fill="rgba(118, 255, 3, 1)"/><path d="M38.91 230.97L40.47 230.97L40.47 226.28L45.94 226.28L45.94 229.41L43.59 229.41L43.59 235.66L45.94 235.66L45.94 238.78L40.47 238.78L40.47 234.09L38.91 234.09L38.91 230.97Z" fill="rgba(231, 231, 231, 1)"/><path d="M47.72 230.97L49.28 230.97L49.28 226.28L54.75 226.28L54.75 229.41L52.41 229.41L52.41 235.66L54.75 235.66L54.75 238.78L49.28 238.78L49.28 234.09L47.72 234.09L47.72 230.97Z" fill="rgba(231, 231, 231, 1)"/><path d="M56.53 230.97L58.09 230.97L58.09 226.28L63.56 226.28L63.56 229.41L61.22 229.41L61.22 235.66L63.56 235.66L63.56 238.78L58.09 238.78L58.09 234.09L56.53 234.09L56.53 230.97Z" fill="rgba(231, 231, 231, 1)"/><path d="M65.34 230.97L66.91 230.97L66.91 226.28L72.38 226.28L72.38 229.41L70.03 229.41L70.03 235.66L72.38 235.66L72.38 238.78L66.91 238.78L66.91 234.09L65.34 234.09L65.34 230.97Z" fill="rgba(231, 231, 231, 1)"/><path d="M74.16 230.97L75.72 230.97L75.72 226.28L81.19 226.28L81.19 229.41L78.84 229.41L78.84 235.66L81.19 235.66L81.19 238.78L75.72 238.78L75.72 234.09L74.16 234.09L74.16 230.97Z" fill="rgba(231, 231, 231, 1)"/><path d="M82.97 230.97L84.53 230.97L84.53 226.28L90 226.28L90 229.41L87.66 229.41L87.66 235.66L90 235.66L90 238.78L84.53 238.78L84.53 234.09L82.97 234.09L82.97 230.97Z" fill="rgba(231, 231, 231, 1)"/><path d="M91.78 230.97L93.34 230.97L93.34 226.28L98.81 226.28L98.81 229.41L96.47 229.41L96.47 235.66L98.81 235.66L98.81 238.78L93.34 238.78L93.34 234.09L91.78 234.09L91.78 230.97Z" fill="rgba(231, 231, 231, 1)"/><path d="M100.59 230.97L102.16 230.97L102.16 226.28L107.63 226.28L107.63 229.41L105.28 229.41L105.28 235.66L107.63 235.66L107.63 238.78L102.16 238.78L102.16 234.09L100.59 234.09L100.59 230.97Z" fill="rgba(231, 231, 231, 1)"/><path d="M109.41 230.97L110.97 230.97L110.97 226.28L116.44 226.28L116.44 229.41L114.09 229.41L114.09 235.66L116.44 235.66L116.44 238.78L110.97 238.78L110.97 234.09L109.41 234.09L109.41 230.97Z" fill="rgba(220, 233, 209, 1)"/><path d="M118.22 230.97L119.78 230.97L119.78 226.28L125.25 226.28L125.25 229.41L122.91 229.41L122.91 235.66L125.25 235.66L125.25 238.78L119.78 238.78L119.78 234.09L118.22 234.09L118.22 230.97Z" fill="rgba(220, 233, 209, 1)"/><path d="M127.03 230.97L128.59 230.97L128.59 226.28L134.06 226.28L134.06 229.41L131.72 229.41L131.72 235.66L134.06 235.66L134.06 238.78L128.59 238.78L128.59 234.09L127.03 234.09L127.03 230.97Z" fill="rgba(120, 254, 8, 1)"/><path d="M135.84 230.97L137.41 230.97L137.41 226.28L142.88 226.28L142.88 229.41L140.53 229.41L140.53 235.66L142.88 235.66L142.88 238.78L137.41 238.78L137.41 234.09L135.84 234.09L135.84 230.97Z" fill="rgba(119, 255, 3, 0.30196078431372547)"/><path d="M144.66 230.97L146.22 230.97L146.22 226.28L151.69 226.28L151.69 229.41L149.34 229.41L149.34 235.66L151.69 235.66L151.69 238.78L146.22 238.78L146.22 234.09L144.66 234.09L144.66 230.97Z" fill="rgba(119, 255, 3, 0.30196078431372547)"/><path d="M153.47 230.97L155.03 230.97L155.03 226.28L160.50 226.28L160.50 229.41L158.16 229.41L158.16 235.66L160.50 235.66L160.50 238.78L155.03 238.78L155.03 234.09L153.47 234.09L153.47 230.97Z" fill="rgba(0, 0, 0, 0)"/><path d="M162.28 230.97L163.84 230.97L163.84 226.28L169.31 226.28L169.31 229.41L166.97 229.41L166.97 235.66L169.31 235.66L169.31 238.78L163.84 238.78L163.84 234.09L162.28 234.09L162.28 230.97Z" fill="rgba(0, 0, 0, 0)"/><path d="M171.09 230.97L172.66 230.97L172.66 226.28L178.13 226.28L178.13 229.41L175.78 229.41L175.78 235.66L178.13 235.66L178.13 238.78L172.66 238.78L172.66 234.09L171.09 234.09L171.09 230.97Z" fill="rgba(0, 0, 0, 0)"/><path d="M179.91 230.97L181.47 230.97L181.47 226.28L186.94 226.28L186.94 229.41L184.59 229.41L184.59 235.66L186.94 235.66L186.94 238.78L181.47 238.78L181.47 234.09L179.91 234.09L179.91 230.97Z" fill="rgba(0, 0, 0, 0)"/><path d="M188.72 230.97L190.28 230.97L190.28 226.28L195.75 226.28L195.75 229.41L193.41 229.41L193.41 235.66L195.75 235.66L195.75 238.78L190.28 238.78L190.28 234.09L188.72 234.09L188.72 230.97Z" fill="rgba(0, 0, 0, 0)"/><path d="M197.53 230.97L199.09 230.97L199.09 226.28L204.56 226.28L204.56 229.41L202.22 229.41L202.22 235.66L204.56 235.66L204.56 238.78L199.09 238.78L199.09 234.09L197.53 234.09L197.53 230.97Z" fill="rgba(0, 0, 0, 0)"/><path d="M3.66 244.97L5.22 244.97L5.22 240.28L10.69 240.28L10.69 243.41L8.34 243.41L8.34 249.66L10.69 249.66L10.69 252.78L5.22 252.78L5.22 248.09L3.66 248.09L3.66 244.97Z" fill="rgba(85, 255, 0, 0.011764705882352941)"/><path d="M12.47 244.97L14.03 244.97L14.03 240.28L19.50 240.28L19.50 243.41L17.16 243.41L17.16 249.66L19.50 249.66L19.50 252.78L14.03 252.78L14.03 248.09L12.47 248.09L12.47 244.97Z" fill="rgba(118, 255, 3, 1)"/><path d="M21.28 244.97L22.84 244.97L22.84 240.28L28.31 240.28L28.31 243.41L25.97 243.41L25.97 249.66L28.31 249.66L28.31 252.78L22.84 252.78L22.84 248.09L21.28 248.09L21.28 244.97Z" fill="rgba(141, 250, 49, 1)"/><path d="M30.09 244.97L31.66 244.97L31.66 240.28L37.13 240.28L37.13 243.41L34.78 243.41L34.78 249.66L37.13 249.66L37.13 252.78L31.66 252.78L31.66 248.09L30.09 248.09L30.09 244.97Z" fill="rgba(141, 250, 49, 1)"/><path d="M38.91 244.97L40.47 244.97L40.47 240.28L45.94 240.28L45.94 243.41L43.59 243.41L43.59 249.66L45.94 249.66L45.94 252.78L40.47 252.78L40.47 248.09L38.91 248.09L38.91 244.97Z" fill="rgba(231, 231, 231, 1)"/><path d="M47.72 244.97L49.28 244.97L49.28 240.28L54.75 240.28L54.75 243.41L52.41 243.41L52.41 249.66L54.75 249.66L54.75 252.78L49.28 252.78L49.28 248.09L47.72 248.09L47.72 244.97Z" fill="rgba(231, 231, 231, 1)"/><path d="M56.53 244.97L58.09 244.97L58.09 240.28L63.56 240.28L63.56 243.41L61.22 243.41L61.22 249.66L63.56 249.66L63.56 252.78L58.09 252.78L58.09 248.09L56.53 248.09L56.53 244.97Z" fill="rgba(231, 231, 231, 1)"/><path d="M65.34 244.97L66.91 244.97L66.91 240.28L72.38 240.28L72.38 243.41L70.03 243.41L70.03 249.66L72.38 249.66L72.38 252.78L66.91 252.78L66.91 248.09L65.34 248.09L65.34 244.97Z" fill="rgba(231, 231, 231, 1)"/><path d="M74.16 244.97L75.72 244.97L75.72 240.28L81.19 240.28L81.19 243.41L78.84 243.41L78.84 249.66L81.19 249.66L81.19 252.78L75.72 252.78L75.72 248.09L74.16 248.09L74.16 244.97Z" fill="rgba(231, 231, 231, 1)"/><path d="M82.97 244.97L84.53 244.97L84.53 240.28L90 240.28L90 243.41L87.66 243.41L87.66 249.66L90 249.66L90 252.78L84.53 252.78L84.53 248.09L82.97 248.09L82.97 244.97Z" fill="rgba(231, 231, 231, 1)"/><path d="M91.78 244.97L93.34 244.97L93.34 240.28L98.81 240.28L98.81 243.41L96.47 243.41L96.47 249.66L98.81 249.66L98.81 252.78L93.34 252.78L93.34 248.09L91.78 248.09L91.78 244.97Z" fill="rgba(231, 231, 231, 1)"/><path d="M100.59 244.97L102.16 244.97L102.16 240.28L107.63 240.28L107.63 243.41L105.28 243.41L105.28 249.66L107.63 249.66L107.63 252.78L102.16 252.78L102.16 248.09L100.59 248.09L100.59 244.97Z" fill="rgba(231, 231, 231, 1)"/><path d="M109.41 244.97L110.97 244.97L110.97 240.28L116.44 240.28L116.44 243.41L114.09 243.41L114.09 249.66L116.44 249.66L116.44 252.78L110.97 252.78L110.97 248.09L109.41 248.09L109.41 244.97Z" fill="rgba(204, 237, 178, 1)"/><path d="M118.22 244.97L119.78 244.97L119.78 240.28L125.25 240.28L125.25 243.41L122.91 243.41L122.91 249.66L125.25 249.66L125.25 252.78L119.78 252.78L119.78 248.09L118.22 248.09L118.22 244.97Z" fill="rgba(204, 237, 178, 1)"/><path d="M127.03 244.97L128.59 244.97L128.59 240.28L134.06 240.28L134.06 243.41L131.72 243.41L131.72 249.66L134.06 249.66L134.06 252.78L128.59 252.78L128.59 248.09L127.03 248.09L127.03 244.97Z" fill="rgba(118, 255, 3, 1)"/><path d="M135.84 244.97L137.41 244.97L137.41 240.28L142.88 240.28L142.88 243.41L140.53 243.41L140.53 249.66L142.88 249.66L142.88 252.78L137.41 252.78L137.41 248.09L135.84 248.09L135.84 244.97Z" fill="rgba(117, 255, 3, 0.2980392156862745)"/><path d="M144.66 244.97L146.22 244.97L146.22 240.28L151.69 240.28L151.69 243.41L149.34 243.41L149.34 249.66L151.69 249.66L151.69 252.78L146.22 252.78L146.22 248.09L144.66 248.09L144.66 244.97Z" fill="rgba(117, 255, 3, 0.2980392156862745)"/><path d="M153.47 244.97L155.03 244.97L155.03 240.28L160.50 240.28L160.50 243.41L158.16 243.41L158.16 249.66L160.50 249.66L160.50 252.78L155.03 252.78L155.03 248.09L153.47 248.09L153.47 244.97Z" fill="rgba(0, 0, 0, 0)"/><path d="M162.28 244.97L163.84 244.97L163.84 240.28L169.31 240.28L169.31 243.41L166.97 243.41L166.97 249.66L169.31 249.66L169.31 252.78L163.84 252.78L163.84 248.09L162.28 248.09L162.28 244.97Z" fill="rgba(0, 0, 0, 0)"/><path d="M171.09 244.97L172.66 244.97L172.66 240.28L178.13 240.28L178.13 243.41L175.78 243.41L175.78 249.66L178.13 249.66L178.13 252.78L172.66 252.78L172.66 248.09L171.09 248.09L171.09 244.97Z" fill="rgba(0, 0, 0, 0)"/><path d="M179.91 244.97L181.47 244.97L181.47 240.28L186.94 240.28L186.94 243.41L184.59 243.41L184.59 249.66L186.94 249.66L186.94 252.78L181.47 252.78L181.47 248.09L179.91 248.09L179.91 244.97Z" fill="rgba(0, 0, 0, 0)"/><path d="M188.72 244.97L190.28 244.97L190.28 240.28L195.75 240.28L195.75 243.41L193.41 243.41L193.41 249.66L195.75 249.66L195.75 252.78L190.28 252.78L190.28 248.09L188.72 248.09L188.72 244.97Z" fill="rgba(0, 0, 0, 0)"/><path d="M197.53 244.97L199.09 244.97L199.09 240.28L204.56 240.28L204.56 243.41L202.22 243.41L202.22 249.66L204.56 249.66L204.56 252.78L199.09 252.78L199.09 248.09L197.53 248.09L197.53 244.97Z" fill="rgba(0, 0, 0, 0)"/><path d="M3.66 258.97L5.22 258.97L5.22 254.28L10.69 254.28L10.69 257.41L8.34 257.41L8.34 263.66L10.69 263.66L10.69 266.78L5.22 266.78L5.22 262.09L3.66 262.09L3.66 258.97Z" fill="rgba(118, 255, 0, 0.10980392156862745)"/><path d="M12.47 258.97L14.03 258.97L14.03 254.28L19.50 254.28L19.50 257.41L17.16 257.41L17.16 263.66L19.50 263.66L19.50 266.78L14.03 266.78L14.03 262.09L12.47 262.09L12.47 258.97Z" fill="rgba(118, 255, 3, 1)"/><path d="M21.28 258.97L22.84 258.97L22.84 254.28L28.31 254.28L28.31 257.41L25.97 257.41L25.97 263.66L28.31 263.66L28.31 266.78L22.84 266.78L22.84 262.09L21.28 262.09L21.28 258.97Z" fill="rgba(130, 252, 27, 1)"/><path d="M30.09 258.97L31.66 258.97L31.66 254.28L37.13 254.28L37.13 257.41L34.78 257.41L34.78 263.66L37.13 263.66L37.13 266.78L31.66 266.78L31.66 262.09L30.09 262.09L30.09 258.97Z" fill="rgba(130, 252, 27, 1)"/><path d="M38.91 258.97L40.47 258.97L40.47 254.28L45.94 254.28L45.94 257.41L43.59 257.41L43.59 263.66L45.94 263.66L45.94 266.78L40.47 266.78L40.47 262.09L38.91 262.09L38.91 258.97Z" fill="rgba(132, 252, 32, 1)"/><path d="M47.72 258.97L49.28 258.97L49.28 254.28L54.75 254.28L54.75 257.41L52.41 257.41L52.41 263.66L54.75 263.66L54.75 266.78L49.28 266.78L49.28 262.09L47.72 262.09L47.72 258.97Z" fill="rgba(132, 252, 32, 1)"/><path d="M56.53 258.97L58.09 258.97L58.09 254.28L63.56 254.28L63.56 257.41L61.22 257.41L61.22 263.66L63.56 263.66L63.56 266.78L58.09 266.78L58.09 262.09L56.53 262.09L56.53 258.97Z" fill="rgba(132, 252, 32, 1)"/><path d="M65.34 258.97L66.91 258.97L66.91 254.28L72.38 254.28L72.38 257.41L70.03 257.41L70.03 263.66L72.38 263.66L72.38 266.78L66.91 266.78L66.91 262.09L65.34 262.09L65.34 258.97Z" fill="rgba(132, 252, 32, 1)"/><path d="M74.16 258.97L75.72 258.97L75.72 254.28L81.19 254.28L81.19 257.41L78.84 257.41L78.84 263.66L81.19 263.66L81.19 266.78L75.72 266.78L75.72 262.09L74.16 262.09L74.16 258.97Z" fill="rgba(132, 252, 32, 1)"/><path d="M82.97 258.97L84.53 258.97L84.53 254.28L90 254.28L90 257.41L87.66 257.41L87.66 263.66L90 263.66L90 266.78L84.53 266.78L84.53 262.09L82.97 262.09L82.97 258.97Z" fill="rgba(132, 252, 32, 1)"/><path d="M91.78 258.97L93.34 258.97L93.34 254.28L98.81 254.28L98.81 257.41L96.47 257.41L96.47 263.66L98.81 263.66L98.81 266.78L93.34 266.78L93.34 262.09L91.78 262.09L91.78 258.97Z" fill="rgba(132, 252, 32, 1)"/><path d="M100.59 258.97L102.16 258.97L102.16 254.28L107.63 254.28L107.63 257.41L105.28 257.41L105.28 263.66L107.63 263.66L107.63 266.78L102.16 266.78L102.16 262.09L100.59 262.09L100.59 258.97Z" fill="rgba(132, 252, 32, 1)"/><path d="M109.41 258.97L110.97 258.97L110.97 254.28L116.44 254.28L116.44 257.41L114.09 257.41L114.09 263.66L116.44 263.66L116.44 266.78L110.97 266.78L110.97 262.09L109.41 262.09L109.41 258.97Z" fill="rgba(129, 253, 25, 1)"/><path d="M118.22 258.97L119.78 258.97L119.78 254.28L125.25 254.28L125.25 257.41L122.91 257.41L122.91 263.66L125.25 263.66L125.25 266.78L119.78 266.78L119.78 262.09L118.22 262.09L118.22 258.97Z" fill="rgba(129, 253, 25, 1)"/><path d="M127.03 258.97L128.59 258.97L128.59 254.28L134.06 254.28L134.06 257.41L131.72 257.41L131.72 263.66L134.06 263.66L134.06 266.78L128.59 266.78L128.59 262.09L127.03 262.09L127.03 258.97Z" fill="rgba(118, 255, 3, 1)"/><path d="M135.84 258.97L137.41 258.97L137.41 254.28L142.88 254.28L142.88 257.41L140.53 257.41L140.53 263.66L142.88 263.66L142.88 266.78L137.41 266.78L137.41 262.09L135.84 262.09L135.84 258.97Z" fill="rgba(113, 255, 0, 0.03529411764705882)"/><path d="M144.66 258.97L146.22 258.97L146.22 254.28L151.69 254.28L151.69 257.41L149.34 257.41L149.34 263.66L151.69 263.66L151.69 266.78L146.22 266.78L146.22 262.09L144.66 262.09L144.66 258.97Z" fill="rgba(113, 255, 0, 0.03529411764705882)"/><path d="M153.47 258.97L155.03 258.97L155.03 254.28L160.50 254.28L160.50 257.41L158.16 257.41L158.16 263.66L160.50 263.66L160.50 266.78L155.03 266.78L155.03 262.09L153.47 262.09L153.47 258.97Z" fill="rgba(0, 0, 0, 0)"/><path d="M162.28 258.97L163.84 258.97L163.84 254.28L169.31 254.28L169.31 257.41L166.97 257.41L166.97 263.66L169.31 263.66L169.31 266.78L163.84 266.78L163.84 262.09L162.28 262.09L162.28 258.97Z" fill="rgba(0, 0, 0, 0)"/><path d="M171.09 258.97L172.66 258.97L172.66 254.28L178.13 254.28L178.13 257.41L175.78 257.41L175.78 263.66L178.13 263.66L178.13 266.78L172.66 266.78L172.66 262.09L171.09 262.09L171.09 258.97Z" fill="rgba(0, 0, 0, 0)"/><path d="M179.91 258.97L181.47 258.97L181.47 254.28L186.94 254.28L186.94 257.41L184.59 257.41L184.59 263.66L186.94 263.66L186.94 266.78L181.47 266.78L181.47 262.09L179.91 262.09L179.91 258.97Z" fill="rgba(0, 0, 0, 0)"/><path d="M188.72 258.97L190.28 258.97L190.28 254.28L195.75 254.28L195.75 257.41L193.41 257.41L193.41 263.66L195.75 263.66L195.75 266.78L190.28 266.78L190.28 262.09L188.72 262.09L188.72 258.97Z" fill="rgba(0, 0, 0, 0)"/><path d="M197.53 258.97L199.09 258.97L199.09 254.28L204.56 254.28L204.56 257.41L202.22 257.41L202.22 263.66L204.56 263.66L204.56 266.78L199.09 266.78L199.09 262.09L197.53 262.09L197.53 258.97Z" fill="rgba(0, 0, 0, 0)"/><path d="M3.66 272.97L5.22 272.97L5.22 268.28L10.69 268.28L10.69 271.41L8.34 271.41L8.34 277.66L10.69 277.66L10.69 280.78L5.22 280.78L5.22 276.09L3.66 276.09L3.66 272.97Z" fill="rgba(0, 0, 0, 0)"/><path d="M12.47 272.97L14.03 272.97L14.03 268.28L19.50 268.28L19.50 271.41L17.16 271.41L17.16 277.66L19.50 277.66L19.50 280.78L14.03 280.78L14.03 276.09L12.47 276.09L12.47 272.97Z" fill="rgba(118, 255, 2, 0.45098039215686275)"/><path d="M21.28 272.97L22.84 272.97L22.84 268.28L28.31 268.28L28.31 271.41L25.97 271.41L25.97 277.66L28.31 277.66L28.31 280.78L22.84 280.78L22.84 276.09L21.28 276.09L21.28 272.97Z" fill="rgba(118, 255, 3, 1)"/><path d="M30.09 272.97L31.66 272.97L31.66 268.28L37.13 268.28L37.13 271.41L34.78 271.41L34.78 277.66L37.13 277.66L37.13 280.78L31.66 280.78L31.66 276.09L30.09 276.09L30.09 272.97Z" fill="rgba(118, 255, 3, 1)"/><path d="M38.91 272.97L40.47 272.97L40.47 268.28L45.94 268.28L45.94 271.41L43.59 271.41L43.59 277.66L45.94 277.66L45.94 280.78L40.47 280.78L40.47 276.09L38.91 276.09L38.91 272.97Z" fill="rgba(118, 255, 3, 1)"/><path d="M47.72 272.97L49.28 272.97L49.28 268.28L54.75 268.28L54.75 271.41L52.41 271.41L52.41 277.66L54.75 277.66L54.75 280.78L49.28 280.78L49.28 276.09L47.72 276.09L47.72 272.97Z" fill="rgba(118, 255, 3, 1)"/><path d="M56.53 272.97L58.09 272.97L58.09 268.28L63.56 268.28L63.56 271.41L61.22 271.41L61.22 277.66L63.56 277.66L63.56 280.78L58.09 280.78L58.09 276.09L56.53 276.09L56.53 272.97Z" fill="rgba(118, 255, 3, 1)"/><path d="M65.34 272.97L66.91 272.97L66.91 268.28L72.38 268.28L72.38 271.41L70.03 271.41L70.03 277.66L72.38 277.66L72.38 280.78L66.91 280.78L66.91 276.09L65.34 276.09L65.34 272.97Z" fill="rgba(118, 255, 3, 1)"/><path d="M74.16 272.97L75.72 272.97L75.72 268.28L81.19 268.28L81.19 271.41L78.84 271.41L78.84 277.66L81.19 277.66L81.19 280.78L75.72 280.78L75.72 276.09L74.16 276.09L74.16 272.97Z" fill="rgba(118, 255, 3, 1)"/><path d="M82.97 272.97L84.53 272.97L84.53 268.28L90 268.28L90 271.41L87.66 271.41L87.66 277.66L90 277.66L90 280.78L84.53 280.78L84.53 276.09L82.97 276.09L82.97 272.97Z" fill="rgba(118, 255, 3, 1)"/><path d="M91.78 272.97L93.34 272.97L93.34 268.28L98.81 268.28L98.81 271.41L96.47 271.41L96.47 277.66L98.81 277.66L98.81 280.78L93.34 280.78L93.34 276.09L91.78 276.09L91.78 272.97Z" fill="rgba(118, 255, 3, 1)"/><path d="M100.59 272.97L102.16 272.97L102.16 268.28L107.63 268.28L107.63 271.41L105.28 271.41L105.28 277.66L107.63 277.66L107.63 280.78L102.16 280.78L102.16 276.09L100.59 276.09L100.59 272.97Z" fill="rgba(118, 255, 3, 1)"/><path d="M109.41 272.97L110.97 272.97L110.97 268.28L116.44 268.28L116.44 271.41L114.09 271.41L114.09 277.66L116.44 277.66L116.44 280.78L110.97 280.78L110.97 276.09L109.41 276.09L109.41 272.97Z" fill="rgba(118, 255, 3, 1)"/><path d="M118.22 272.97L119.78 272.97L119.78 268.28L125.25 268.28L125.25 271.41L122.91 271.41L122.91 277.66L125.25 277.66L125.25 280.78L119.78 280.78L119.78 276.09L118.22 276.09L118.22 272.97Z" fill="rgba(118, 255, 3, 1)"/><path d="M127.03 272.97L128.59 272.97L128.59 268.28L134.06 268.28L134.06 271.41L131.72 271.41L131.72 277.66L134.06 277.66L134.06 280.78L128.59 280.78L128.59 276.09L127.03 276.09L127.03 272.97Z" fill="rgba(118, 255, 3, 1)"/><path d="M135.84 272.97L137.41 272.97L137.41 268.28L142.88 268.28L142.88 271.41L140.53 271.41L140.53 277.66L142.88 277.66L142.88 280.78L137.41 280.78L137.41 276.09L135.84 276.09L135.84 272.97Z" fill="rgba(0, 0, 0, 0)"/><path d="M144.66 272.97L146.22 272.97L146.22 268.28L151.69 268.28L151.69 271.41L149.34 271.41L149.34 277.66L151.69 277.66L151.69 280.78L146.22 280.78L146.22 276.09L144.66 276.09L144.66 272.97Z" fill="rgba(0, 0, 0, 0)"/><path d="M153.47 272.97L155.03 272.97L155.03 268.28L160.50 268.28L160.50 271.41L158.16 271.41L158.16 277.66L160.50 277.66L160.50 280.78L155.03 280.78L155.03 276.09L153.47 276.09L153.47 272.97Z" fill="rgba(0, 0, 0, 0)"/><path d="M162.28 272.97L163.84 272.97L163.84 268.28L169.31 268.28L169.31 271.41L166.97 271.41L166.97 277.66L169.31 277.66L169.31 280.78L163.84 280.78L163.84 276.09L162.28 276.09L162.28 272.97Z" fill="rgba(0, 0, 0, 0)"/><path d="M171.09 272.97L172.66 272.97L172.66 268.28L178.13 268.28L178.13 271.41L175.78 271.41L175.78 277.66L178.13 277.66L178.13 280.78L172.66 280.78L172.66 276.09L171.09 276.09L171.09 272.97Z" fill="rgba(0, 0, 0, 0)"/><path d="M179.91 272.97L181.47 272.97L181.47 268.28L186.94 268.28L186.94 271.41L184.59 271.41L184.59 277.66L186.94 277.66L186.94 280.78L181.47 280.78L181.47 276.09L179.91 276.09L179.91 272.97Z" fill="rgba(0, 0, 0, 0)"/><path d="M188.72 272.97L190.28 272.97L190.28 268.28L195.75 268.28L195.75 271.41L193.41 271.41L193.41 277.66L195.75 277.66L195.75 280.78L190.28 280.78L190.28 276.09L188.72 276.09L188.72 272.97Z" fill="rgba(0, 0, 0, 0)"/><path d="M197.53 272.97L199.09 272.97L199.09 268.28L204.56 268.28L204.56 271.41L202.22 271.41L202.22 277.66L204.56 277.66L204.56 280.78L199.09 280.78L199.09 276.09L197.53 276.09L197.53 272.97Z" fill="rgba(0, 0, 0, 0)"/></g></svg>