<svg width="368" height="138" viewBox="0 0 368 138" fill="none" xmlns="http://www.w3.org/2000/svg">
<g clip-path="url(#clip0_13_28)">
<g filter="url(#filter0_d_13_28)">
<mask id="path-1-inside-1_13_28" fill="white">
<path d="M30.7 55.6H69.9L55.8 108.3C55.6 108.9 55.2 109.6 54.6 110.4C54 111.2 53.4 112 52.6 112.6C51.8 113.3 51 113.9 50.2 114.3C49.4 114.8 48.6 115 48 115H7.9C7.2 115 6.6 114.8 6 114.3C5.4 113.9 4.9 113.3 4.5 112.6C4.1 112 3.8 111.2 3.6 110.4C3.4 109.6 3.4 108.9 3.6 108.3L11.9 77.3H36.1L31.4 94.8H35.3L40.4 75.9H25.3L30.7 55.6ZM63.0617 94.8H91.2617L91.6617 93.2H67.4617C67.0617 93.2 66.7617 93 66.4617 92.6C66.0617 92.2 65.7617 91.8 65.4617 91.2C65.1617 90.6 64.9617 90.1 64.8617 89.5C64.6617 89 64.6617 88.6 64.7617 88.3L71.7617 61.9C71.8617 61.3 72.2617 60.7 72.8617 60C73.4617 59.3 74.1617 58.6 74.9617 57.9C75.7617 57.3 76.5617 56.7 77.4617 56.3C78.2617 55.9 79.0617 55.6 79.6617 55.6H125.862L120.462 75.9H92.3617L91.9617 77.4H113.162C113.862 77.4 114.562 77.7 115.262 78.1C115.862 78.6 116.462 79.2 116.962 79.8C117.462 80.5 117.862 81.2 118.062 82C118.262 82.8 118.362 83.4 118.262 84L111.562 109C111.362 109.7 110.862 110.4 110.262 111.1C109.662 111.8 108.862 112.4 108.062 113C107.262 113.6 106.362 114.1 105.562 114.5C104.662 114.9 103.862 115 103.262 115H57.6617L63.0617 94.8ZM254.119 55.6L238.219 115H214.219L224.719 75.9H220.719L210.219 115H186.019L200.119 62.4C200.319 61.8 200.719 61.1 201.319 60.3C201.919 59.5 202.519 58.8 203.319 58.1C204.119 57.4 204.919 56.8 205.719 56.3C206.519 55.9 207.319 55.6 208.019 55.6H254.119ZM247.28 94.8H275.48L275.88 93.2H251.68C251.28 93.2 250.98 93 250.68 92.6C250.28 92.2 249.98 91.8 249.68 91.2C249.38 90.6 249.18 90.1 249.08 89.5C248.88 89 248.88 88.6 248.98 88.3L255.98 61.9C256.08 61.3 256.48 60.7 257.08 60C257.68 59.3 258.38 58.6 259.18 57.9C259.98 57.3 260.78 56.7 261.68 56.3C262.48 55.9 263.28 55.6 263.88 55.6H310.08L304.68 75.9H276.58L276.18 77.4H297.38C298.08 77.4 298.78 77.7 299.48 78.1C300.08 78.6 300.68 79.2 301.18 79.8C301.68 80.5 302.08 81.2 302.28 82C302.48 82.8 302.58 83.4 302.48 84L295.78 109C295.58 109.7 295.08 110.4 294.48 111.1C293.88 111.8 293.08 112.4 292.28 113C291.48 113.6 290.58 114.1 289.78 114.5C288.88 114.9 288.08 115 287.48 115H241.88L247.28 94.8Z"/>
</mask>
<path d="M30.7 55.6H69.9L55.8 108.3C55.6 108.9 55.2 109.6 54.6 110.4C54 111.2 53.4 112 52.6 112.6C51.8 113.3 51 113.9 50.2 114.3C49.4 114.8 48.6 115 48 115H7.9C7.2 115 6.6 114.8 6 114.3C5.4 113.9 4.9 113.3 4.5 112.6C4.1 112 3.8 111.2 3.6 110.4C3.4 109.6 3.4 108.9 3.6 108.3L11.9 77.3H36.1L31.4 94.8H35.3L40.4 75.9H25.3L30.7 55.6ZM63.0617 94.8H91.2617L91.6617 93.2H67.4617C67.0617 93.2 66.7617 93 66.4617 92.6C66.0617 92.2 65.7617 91.8 65.4617 91.2C65.1617 90.6 64.9617 90.1 64.8617 89.5C64.6617 89 64.6617 88.6 64.7617 88.3L71.7617 61.9C71.8617 61.3 72.2617 60.7 72.8617 60C73.4617 59.3 74.1617 58.6 74.9617 57.9C75.7617 57.3 76.5617 56.7 77.4617 56.3C78.2617 55.9 79.0617 55.6 79.6617 55.6H125.862L120.462 75.9H92.3617L91.9617 77.4H113.162C113.862 77.4 114.562 77.7 115.262 78.1C115.862 78.6 116.462 79.2 116.962 79.8C117.462 80.5 117.862 81.2 118.062 82C118.262 82.8 118.362 83.4 118.262 84L111.562 109C111.362 109.7 110.862 110.4 110.262 111.1C109.662 111.8 108.862 112.4 108.062 113C107.262 113.6 106.362 114.1 105.562 114.5C104.662 114.9 103.862 115 103.262 115H57.6617L63.0617 94.8ZM254.119 55.6L238.219 115H214.219L224.719 75.9H220.719L210.219 115H186.019L200.119 62.4C200.319 61.8 200.719 61.1 201.319 60.3C201.919 59.5 202.519 58.8 203.319 58.1C204.119 57.4 204.919 56.8 205.719 56.3C206.519 55.9 207.319 55.6 208.019 55.6H254.119ZM247.28 94.8H275.48L275.88 93.2H251.68C251.28 93.2 250.98 93 250.68 92.6C250.28 92.2 249.98 91.8 249.68 91.2C249.38 90.6 249.18 90.1 249.08 89.5C248.88 89 248.88 88.6 248.98 88.3L255.98 61.9C256.08 61.3 256.48 60.7 257.08 60C257.68 59.3 258.38 58.6 259.18 57.9C259.98 57.3 260.78 56.7 261.68 56.3C262.48 55.9 263.28 55.6 263.88 55.6H310.08L304.68 75.9H276.58L276.18 77.4H297.38C298.08 77.4 298.78 77.7 299.48 78.1C300.08 78.6 300.68 79.2 301.18 79.8C301.68 80.5 302.08 81.2 302.28 82C302.48 82.8 302.58 83.4 302.48 84L295.78 109C295.58 109.7 295.08 110.4 294.48 111.1C293.88 111.8 293.08 112.4 292.28 113C291.48 113.6 290.58 114.1 289.78 114.5C288.88 114.9 288.08 115 287.48 115H241.88L247.28 94.8Z" fill="#E7E7E7"/>
<path d="M30.7 55.6V53.6H29.1625L28.7672 55.0859L30.7 55.6ZM69.9 55.6L71.832 56.1169L72.5055 53.6H69.9V55.6ZM55.8 108.3L57.6974 108.932L57.7165 108.875L57.732 108.817L55.8 108.3ZM54.6 110.4L53 109.2L53 109.2L54.6 110.4ZM52.6 112.6L51.4 111L51.3397 111.045L51.283 111.095L52.6 112.6ZM50.2 114.3L49.3056 112.511L49.2206 112.554L49.14 112.604L50.2 114.3ZM6 114.3L7.28037 112.764L7.19829 112.695L7.1094 112.636L6 114.3ZM4.5 112.6L6.23649 111.608L6.20231 111.548L6.1641 111.491L4.5 112.6ZM3.6 110.4L5.54029 109.915L5.54029 109.915L3.6 110.4ZM3.6 108.3L5.49737 108.932L5.51639 108.875L5.53195 108.817L3.6 108.3ZM11.9 77.3V75.3H10.365L9.96805 76.7827L11.9 77.3ZM36.1 77.3L38.0316 77.8188L38.708 75.3H36.1V77.3ZM31.4 94.8L29.4685 94.2812L28.792 96.8H31.4V94.8ZM35.3 94.8V96.8H36.8319L37.2309 95.321L35.3 94.8ZM40.4 75.9L42.3309 76.421L43.0112 73.9H40.4V75.9ZM25.3 75.9L23.3672 75.3859L22.6984 77.9H25.3V75.9ZM30.7 57.6H69.9V53.6H30.7V57.6ZM67.968 55.0831L53.868 107.783L57.732 108.817L71.832 56.1169L67.968 55.0831ZM53.9026 107.668C53.7983 107.981 53.5369 108.484 53 109.2L56.2 111.6C56.8631 110.716 57.4017 109.819 57.6974 108.932L53.9026 107.668ZM53 109.2C52.3698 110.04 51.9332 110.6 51.4 111L53.8 114.2C54.8668 113.4 55.6302 112.36 56.2 111.6L53 109.2ZM51.283 111.095C50.5385 111.746 49.8859 112.221 49.3056 112.511L51.0944 116.089C52.1141 115.579 53.0615 114.854 53.917 114.105L51.283 111.095ZM49.14 112.604C48.6287 112.924 48.1922 113 48 113V117C49.0079 117 50.1713 116.676 51.26 115.996L49.14 112.604ZM48 113H7.9V117H48V113ZM7.9 113C7.66272 113 7.517 112.961 7.28037 112.764L4.71963 115.836C5.683 116.639 6.73728 117 7.9 117V113ZM7.1094 112.636C6.84204 112.458 6.53389 112.128 6.23649 111.608L2.76351 113.592C3.26611 114.472 3.95796 115.342 4.8906 115.964L7.1094 112.636ZM6.1641 111.491C5.93966 111.154 5.71075 110.597 5.54029 109.915L1.65972 110.885C1.88925 111.803 2.26034 112.846 2.8359 113.709L6.1641 111.491ZM5.54029 109.915C5.40498 109.374 5.44913 109.077 5.49737 108.932L1.70263 107.668C1.35087 108.723 1.39502 109.826 1.65972 110.885L5.54029 109.915ZM5.53195 108.817L13.832 77.8173L9.96805 76.7827L1.66805 107.783L5.53195 108.817ZM11.9 79.3H36.1V75.3H11.9V79.3ZM34.1685 76.7812L29.4685 94.2812L33.3316 95.3188L38.0316 77.8188L34.1685 76.7812ZM31.4 96.8H35.3V92.8H31.4V96.8ZM37.2309 95.321L42.3309 76.421L38.4691 75.379L33.3691 94.279L37.2309 95.321ZM40.4 73.9H25.3V77.9H40.4V73.9ZM27.2328 76.4141L32.6328 56.1141L28.7672 55.0859L23.3672 75.3859L27.2328 76.4141ZM63.0617 94.8V92.8H61.5261L61.1296 94.2835L63.0617 94.8ZM91.2617 94.8V96.8H92.8233L93.202 95.2851L91.2617 94.8ZM91.6617 93.2L93.602 93.6851L94.2233 91.2H91.6617V93.2ZM66.4617 92.6L68.0617 91.4L67.9764 91.2863L67.8759 91.1858L66.4617 92.6ZM65.4617 91.2L63.6729 92.0944L63.6729 92.0944L65.4617 91.2ZM64.8617 89.5L66.8345 89.1712L66.799 88.9579L66.7187 88.7572L64.8617 89.5ZM64.7617 88.3L66.6591 88.9325L66.6789 88.8731L66.6949 88.8126L64.7617 88.3ZM71.7617 61.9L73.6949 62.4126L73.719 62.3216L73.7345 62.2288L71.7617 61.9ZM72.8617 60L74.3802 61.3016L74.3802 61.3016L72.8617 60ZM74.9617 57.9L73.7617 56.3L73.7014 56.3452L73.6447 56.3948L74.9617 57.9ZM77.4617 56.3L78.274 58.1276L78.3155 58.1092L78.3561 58.0889L77.4617 56.3ZM125.862 55.6L127.795 56.1141L128.463 53.6H125.862V55.6ZM120.462 75.9V77.9H121.999L122.395 76.4141L120.462 75.9ZM92.3617 75.9V73.9H90.8252L90.4293 75.3847L92.3617 75.9ZM91.9617 77.4L90.0293 76.8847L89.3585 79.4H91.9617V77.4ZM115.262 78.1L116.542 76.5636L116.407 76.4509L116.254 76.3635L115.262 78.1ZM116.962 79.8L118.589 78.6375L118.546 78.5769L118.498 78.5196L116.962 79.8ZM118.062 82L116.121 82.4851L116.121 82.4851L118.062 82ZM118.262 84L120.194 84.5177L120.219 84.4243L120.235 84.3288L118.262 84ZM111.562 109L113.485 109.549L113.489 109.534L113.494 109.518L111.562 109ZM110.262 111.1L111.78 112.402L111.78 112.402L110.262 111.1ZM108.062 113L106.862 111.4L106.862 111.4L108.062 113ZM105.562 114.5L106.374 116.328L106.416 116.309L106.456 116.289L105.562 114.5ZM57.6617 115L55.7296 114.483L55.0568 117H57.6617V115ZM63.0617 96.8H91.2617V92.8H63.0617V96.8ZM93.202 95.2851L93.602 93.6851L89.7214 92.7149L89.3214 94.3149L93.202 95.2851ZM91.6617 91.2H67.4617V95.2H91.6617V91.2ZM67.4617 91.2C67.5312 91.2 67.6203 91.2091 67.7194 91.2369C67.8189 91.2649 67.9045 91.3049 67.9724 91.3467C68.0984 91.4242 68.1244 91.4836 68.0617 91.4L64.8617 93.8C65.3684 94.4755 66.1932 95.2 67.4617 95.2V91.2ZM67.8759 91.1858C67.6261 90.9359 67.4533 90.711 67.2506 90.3056L63.6729 92.0944C64.0702 92.889 64.4973 93.4641 65.0475 94.0142L67.8759 91.1858ZM67.2506 90.3056C66.9936 89.7915 66.8882 89.4936 66.8345 89.1712L62.8889 89.8288C63.0352 90.7064 63.3299 91.4085 63.6729 92.0944L67.2506 90.3056ZM66.7187 88.7572C66.6868 88.6776 66.6929 88.661 66.6953 88.7002C66.6979 88.7421 66.6948 88.8252 66.6591 88.9325L62.8644 87.6675C62.5864 88.5013 62.6655 89.3946 63.0048 90.2428L66.7187 88.7572ZM66.6949 88.8126L73.6949 62.4126L69.8285 61.3874L62.8285 87.7874L66.6949 88.8126ZM73.7345 62.2288C73.7311 62.2491 73.7364 62.1878 73.8392 62.0165C73.9442 61.8415 74.1132 61.6131 74.3802 61.3016L71.3432 58.6984C70.7268 59.4176 69.9872 60.3819 69.7889 61.5712L73.7345 62.2288ZM74.3802 61.3016C74.9095 60.6842 75.54 60.0515 76.2787 59.4051L73.6447 56.3948C72.7834 57.1485 72.014 57.9158 71.3432 58.6984L74.3802 61.3016ZM76.1617 59.5C76.995 58.875 77.616 58.42 78.274 58.1276L76.6494 54.4724C75.5074 54.98 74.5284 55.725 73.7617 56.3L76.1617 59.5ZM78.3561 58.0889C78.7032 57.9153 79.0122 57.783 79.2692 57.6974C79.5444 57.6056 79.6642 57.6 79.6617 57.6V53.6C78.5521 53.6 77.383 54.1033 76.5673 54.5111L78.3561 58.0889ZM79.6617 57.6H125.862V53.6H79.6617V57.6ZM123.929 55.0859L118.529 75.3859L122.395 76.4141L127.795 56.1141L123.929 55.0859ZM120.462 73.9H92.3617V77.9H120.462V73.9ZM90.4293 75.3847L90.0293 76.8847L93.8942 77.9153L94.2942 76.4153L90.4293 75.3847ZM91.9617 79.4H113.162V75.4H91.9617V79.4ZM113.162 79.4C113.32 79.4 113.641 79.4771 114.269 79.8365L116.254 76.3635C115.483 75.9229 114.404 75.4 113.162 75.4V79.4ZM113.981 79.6364C114.488 80.059 115.003 80.5733 115.425 81.0804L118.498 78.5196C117.921 77.8267 117.235 77.141 116.542 76.5636L113.981 79.6364ZM115.334 80.9625C115.767 81.5687 116.008 82.0324 116.121 82.4851L120.002 81.5149C119.715 80.3676 119.156 79.4313 118.589 78.6375L115.334 80.9625ZM116.121 82.4851C116.313 83.2525 116.316 83.5068 116.289 83.6712L120.235 84.3288C120.407 83.2932 120.21 82.3475 120.002 81.5149L116.121 82.4851ZM116.33 83.4823L109.63 108.482L113.494 109.518L120.194 84.5177L116.33 83.4823ZM109.639 108.451C109.566 108.706 109.319 109.127 108.743 109.798L111.78 112.402C112.405 111.673 113.158 110.694 113.485 109.549L109.639 108.451ZM108.743 109.798C108.313 110.301 107.703 110.769 106.862 111.4L109.262 114.6C110.021 114.031 111.011 113.299 111.78 112.402L108.743 109.798ZM106.862 111.4C106.199 111.897 105.419 112.335 104.667 112.711L106.456 116.289C107.305 115.865 108.325 115.303 109.262 114.6L106.862 111.4ZM104.749 112.672C104.148 112.94 103.633 113 103.262 113V117C104.091 117 105.176 116.86 106.374 116.328L104.749 112.672ZM103.262 113H57.6617V117H103.262V113ZM59.5939 115.517L64.9939 95.3165L61.1296 94.2835L55.7296 114.483L59.5939 115.517ZM254.119 55.6L256.051 56.1171L256.725 53.6H254.119V55.6ZM238.219 115V117H239.754L240.151 115.517L238.219 115ZM214.219 115L212.287 114.481L211.611 117H214.219V115ZM224.719 75.9L226.65 76.4187L227.327 73.9H224.719V75.9ZM220.719 75.9V73.9H219.185L218.787 75.3813L220.719 75.9ZM210.219 115V117H211.753L212.15 115.519L210.219 115ZM186.019 115L184.087 114.482L183.412 117H186.019V115ZM200.119 62.4L198.221 61.7675L198.202 61.8243L198.187 61.8822L200.119 62.4ZM201.319 60.3L199.719 59.1L199.719 59.1L201.319 60.3ZM203.319 58.1L204.636 59.6052L204.636 59.6052L203.319 58.1ZM205.719 56.3L204.824 54.5111L204.739 54.5536L204.659 54.604L205.719 56.3ZM252.187 55.0828L236.287 114.483L240.151 115.517L256.051 56.1171L252.187 55.0828ZM238.219 113H214.219V117H238.219V113ZM216.15 115.519L226.65 76.4187L222.787 75.3813L212.287 114.481L216.15 115.519ZM224.719 73.9H220.719V77.9H224.719V73.9ZM218.787 75.3813L208.287 114.481L212.15 115.519L222.65 76.4187L218.787 75.3813ZM210.219 113H186.019V117H210.219V113ZM187.951 115.518L202.051 62.9178L198.187 61.8822L184.087 114.482L187.951 115.518ZM202.016 63.0325C202.12 62.7194 202.382 62.2158 202.919 61.5L199.719 59.1C199.056 59.9842 198.517 60.8806 198.221 61.7675L202.016 63.0325ZM202.919 61.5C203.465 60.7723 203.972 60.1862 204.636 59.6052L202.002 56.5948C201.066 57.4138 200.373 58.2277 199.719 59.1L202.919 61.5ZM204.636 59.6052C205.365 58.9668 206.08 58.4328 206.779 57.996L204.659 54.604C203.758 55.1672 202.872 55.8331 202.002 56.5948L204.636 59.6052ZM206.613 58.0889C207.365 57.7128 207.811 57.6 208.019 57.6V53.6C206.826 53.6 205.672 54.0872 204.824 54.5111L206.613 58.0889ZM208.019 57.6H254.119V53.6H208.019V57.6ZM247.28 94.8V92.8H245.745L245.348 94.2835L247.28 94.8ZM275.48 94.8V96.8H277.042L277.421 95.2851L275.48 94.8ZM275.88 93.2L277.821 93.6851L278.442 91.2H275.88V93.2ZM250.68 92.6L252.28 91.4L252.195 91.2863L252.095 91.1858L250.68 92.6ZM249.68 91.2L247.892 92.0944L247.892 92.0944L249.68 91.2ZM249.08 89.5L251.053 89.1712L251.018 88.9579L250.937 88.7572L249.08 89.5ZM248.98 88.3L250.878 88.9325L250.898 88.8731L250.914 88.8126L248.98 88.3ZM255.98 61.9L257.914 62.4126L257.938 62.3216L257.953 62.2288L255.98 61.9ZM257.08 60L258.599 61.3016L258.599 61.3016L257.08 60ZM259.18 57.9L257.98 56.3L257.92 56.3452L257.863 56.3948L259.18 57.9ZM261.68 56.3L262.493 58.1276L262.534 58.1092L262.575 58.0889L261.68 56.3ZM310.08 55.6L312.013 56.1141L312.682 53.6H310.08V55.6ZM304.68 75.9V77.9H306.218L306.613 76.4141L304.68 75.9ZM276.58 75.9V73.9H275.044L274.648 75.3847L276.58 75.9ZM276.18 77.4L274.248 76.8847L273.577 79.4H276.18V77.4ZM299.48 78.1L300.761 76.5636L300.626 76.4509L300.473 76.3635L299.48 78.1ZM301.18 79.8L302.808 78.6375L302.765 78.5769L302.717 78.5196L301.18 79.8ZM302.28 82L300.34 82.4851L300.34 82.4851L302.28 82ZM302.48 84L304.412 84.5177L304.437 84.4243L304.453 84.3288L302.48 84ZM295.78 109L297.704 109.549L297.708 109.534L297.712 109.518L295.78 109ZM294.48 111.1L295.999 112.402L295.999 112.402L294.48 111.1ZM292.28 113L291.08 111.4L291.08 111.4L292.28 113ZM289.78 114.5L290.593 116.328L290.634 116.309L290.675 116.289L289.78 114.5ZM241.88 115L239.948 114.483L239.276 117H241.88V115ZM247.28 96.8H275.48V92.8H247.28V96.8ZM277.421 95.2851L277.821 93.6851L273.94 92.7149L273.54 94.3149L277.421 95.2851ZM275.88 91.2H251.68V95.2H275.88V91.2ZM251.68 91.2C251.75 91.2 251.839 91.2091 251.938 91.2369C252.038 91.2649 252.123 91.3049 252.191 91.3467C252.317 91.4242 252.343 91.4836 252.28 91.4L249.08 93.8C249.587 94.4755 250.412 95.2 251.68 95.2V91.2ZM252.095 91.1858C251.845 90.9359 251.672 90.711 251.469 90.3056L247.892 92.0944C248.289 92.889 248.716 93.4641 249.266 94.0142L252.095 91.1858ZM251.469 90.3056C251.212 89.7915 251.107 89.4936 251.053 89.1712L247.108 89.8288C247.254 90.7064 247.549 91.4085 247.892 92.0944L251.469 90.3056ZM250.937 88.7572C250.906 88.6776 250.912 88.661 250.914 88.7002C250.917 88.7421 250.914 88.8252 250.878 88.9325L247.083 87.6675C246.805 88.5013 246.884 89.3946 247.224 90.2428L250.937 88.7572ZM250.914 88.8126L257.914 62.4126L254.047 61.3874L247.047 87.7874L250.914 88.8126ZM257.953 62.2288C257.95 62.2491 257.955 62.1878 258.058 62.0165C258.163 61.8415 258.332 61.6131 258.599 61.3016L255.562 58.6984C254.946 59.4176 254.206 60.3819 254.008 61.5712L257.953 62.2288ZM258.599 61.3016C259.128 60.6842 259.759 60.0515 260.497 59.4051L257.863 56.3948C257.002 57.1485 256.233 57.9158 255.562 58.6984L258.599 61.3016ZM260.38 59.5C261.214 58.875 261.835 58.42 262.493 58.1276L260.868 54.4724C259.726 54.98 258.747 55.725 257.98 56.3L260.38 59.5ZM262.575 58.0889C262.922 57.9153 263.231 57.783 263.488 57.6974C263.763 57.6056 263.883 57.6 263.88 57.6V53.6C262.771 53.6 261.602 54.1033 260.786 54.5111L262.575 58.0889ZM263.88 57.6H310.08V53.6H263.88V57.6ZM308.148 55.0859L302.748 75.3859L306.613 76.4141L312.013 56.1141L308.148 55.0859ZM304.68 73.9H276.58V77.9H304.68V73.9ZM274.648 75.3847L274.248 76.8847L278.113 77.9153L278.513 76.4153L274.648 75.3847ZM276.18 79.4H297.38V75.4H276.18V79.4ZM297.38 79.4C297.539 79.4 297.859 79.4771 298.488 79.8365L300.473 76.3635C299.702 75.9229 298.622 75.4 297.38 75.4V79.4ZM298.2 79.6364C298.707 80.059 299.221 80.5733 299.644 81.0804L302.717 78.5196C302.139 77.8267 301.454 77.141 300.761 76.5636L298.2 79.6364ZM299.553 80.9625C299.986 81.5687 300.227 82.0324 300.34 82.4851L304.221 81.5149C303.934 80.3676 303.375 79.4313 302.808 78.6375L299.553 80.9625ZM300.34 82.4851C300.532 83.2525 300.535 83.5068 300.508 83.6712L304.453 84.3288C304.626 83.2932 304.429 82.3475 304.221 81.5149L300.34 82.4851ZM300.549 83.4823L293.849 108.482L297.712 109.518L304.412 84.5177L300.549 83.4823ZM293.857 108.451C293.784 108.706 293.537 109.127 292.962 109.798L295.999 112.402C296.624 111.673 297.376 110.694 297.704 109.549L293.857 108.451ZM292.962 109.798C292.531 110.301 291.921 110.769 291.08 111.4L293.48 114.6C294.24 114.031 295.229 113.299 295.999 112.402L292.962 109.798ZM291.08 111.4C290.418 111.897 289.637 112.335 288.886 112.711L290.675 116.289C291.524 115.865 292.543 115.303 293.48 114.6L291.08 111.4ZM288.968 112.672C288.367 112.94 287.852 113 287.48 113V117C288.309 117 289.394 116.86 290.593 116.328L288.968 112.672ZM287.48 113H241.88V117H287.48V113ZM243.813 115.517L249.213 95.3165L245.348 94.2835L239.948 114.483L243.813 115.517Z" fill="#76FF03" mask="url(#path-1-inside-1_13_28)"/>
<mask id="path-3-inside-2_13_28" fill="white">
<path d="M145.47 97.72H150.995L146.405 114.89H125.495C124.9 114.89 124.39 114.72 123.88 114.295C123.37 113.955 122.945 113.445 122.605 112.85C122.265 112.34 122.01 111.66 121.84 110.98C121.67 110.3 121.755 109.705 121.925 109.195L126.09 93.555H119.46L123.115 79.87H129.745L133.995 64.23C134.08 63.72 134.42 63.125 134.93 62.445C135.44 61.765 135.95 61.17 136.63 60.575C137.31 60.065 137.99 59.555 138.67 59.13C139.35 58.79 140.03 58.535 140.625 58.535H161.535L156.86 75.705H151.335L145.47 97.72ZM159.573 97.72L165.438 75.705H159.913L164.588 58.535H185.498C186.008 58.535 186.518 58.79 187.028 59.13C187.538 59.555 187.963 60.065 188.303 60.575C188.643 61.17 188.813 61.765 188.983 62.445C189.153 63.125 189.153 63.72 189.068 64.23L184.818 79.87H191.448L187.793 93.555H181.163L176.998 109.195C176.828 109.705 176.488 110.3 175.978 110.98C175.468 111.66 174.958 112.34 174.278 112.85C173.598 113.445 172.918 113.955 172.238 114.295C171.558 114.72 170.878 114.89 170.368 114.89H149.458L154.048 97.72H159.573Z"/>
</mask>
<path d="M145.47 97.72H150.995L146.405 114.89H125.495C124.9 114.89 124.39 114.72 123.88 114.295C123.37 113.955 122.945 113.445 122.605 112.85C122.265 112.34 122.01 111.66 121.84 110.98C121.67 110.3 121.755 109.705 121.925 109.195L126.09 93.555H119.46L123.115 79.87H129.745L133.995 64.23C134.08 63.72 134.42 63.125 134.93 62.445C135.44 61.765 135.95 61.17 136.63 60.575C137.31 60.065 137.99 59.555 138.67 59.13C139.35 58.79 140.03 58.535 140.625 58.535H161.535L156.86 75.705H151.335L145.47 97.72ZM159.573 97.72L165.438 75.705H159.913L164.588 58.535H185.498C186.008 58.535 186.518 58.79 187.028 59.13C187.538 59.555 187.963 60.065 188.303 60.575C188.643 61.17 188.813 61.765 188.983 62.445C189.153 63.125 189.153 63.72 189.068 64.23L184.818 79.87H191.448L187.793 93.555H181.163L176.998 109.195C176.828 109.705 176.488 110.3 175.978 110.98C175.468 111.66 174.958 112.34 174.278 112.85C173.598 113.445 172.918 113.955 172.238 114.295C171.558 114.72 170.878 114.89 170.368 114.89H149.458L154.048 97.72H159.573Z" fill="#E7E7E7"/>
<path d="M145.47 97.72L143.537 97.2051L142.867 99.72H145.47V97.72ZM150.995 97.72L152.927 98.2365L153.6 95.72H150.995V97.72ZM146.405 114.89V116.89H147.941L148.337 115.407L146.405 114.89ZM123.88 114.295L125.16 112.759L125.078 112.69L124.989 112.631L123.88 114.295ZM122.605 112.85L124.341 111.858L124.307 111.798L124.269 111.741L122.605 112.85ZM121.84 110.98L119.9 111.465L119.9 111.465L121.84 110.98ZM121.925 109.195L123.822 109.827L123.842 109.769L123.858 109.71L121.925 109.195ZM126.09 93.555L128.023 94.0697L128.692 91.555H126.09V93.555ZM119.46 93.555L117.528 93.0389L116.856 95.555H119.46V93.555ZM123.115 79.87V77.87H121.579L121.183 79.3539L123.115 79.87ZM129.745 79.87V81.87H131.274L131.675 80.3945L129.745 79.87ZM133.995 64.23L135.925 64.7545L135.951 64.6577L135.968 64.5588L133.995 64.23ZM134.93 62.445L136.53 63.645L136.53 63.645L134.93 62.445ZM136.63 60.575L135.43 58.975L135.37 59.0202L135.313 59.0698L136.63 60.575ZM138.67 59.13L137.776 57.3411L137.691 57.3836L137.61 57.434L138.67 59.13ZM161.535 58.535L163.465 59.0604L164.152 56.535H161.535V58.535ZM156.86 75.705V77.705H158.388L158.79 76.2304L156.86 75.705ZM151.335 75.705V73.705H149.798L149.402 75.1901L151.335 75.705ZM145.47 99.72H150.995V95.72H145.47V99.72ZM149.063 97.2035L144.473 114.373L148.337 115.407L152.927 98.2365L149.063 97.2035ZM146.405 112.89H125.495V116.89H146.405V112.89ZM125.495 112.89C125.394 112.89 125.351 112.877 125.333 112.87C125.314 112.863 125.26 112.842 125.16 112.759L122.6 115.831C123.473 116.559 124.437 116.89 125.495 116.89V112.89ZM124.989 112.631C124.812 112.513 124.579 112.273 124.341 111.858L120.869 113.842C121.311 114.617 121.928 115.397 122.771 115.959L124.989 112.631ZM124.269 111.741C124.105 111.494 123.921 111.057 123.78 110.495L119.9 111.465C120.099 112.263 120.425 113.186 120.941 113.959L124.269 111.741ZM123.78 110.495C123.749 110.369 123.743 110.263 123.75 110.166C123.757 110.066 123.78 109.956 123.822 109.827L120.028 108.563C119.768 109.342 119.617 110.332 119.9 111.465L123.78 110.495ZM123.858 109.71L128.023 94.0697L124.157 93.0403L119.992 108.68L123.858 109.71ZM126.09 91.555H119.46V95.555H126.09V91.555ZM121.392 94.0711L125.047 80.3861L121.183 79.3539L117.528 93.0389L121.392 94.0711ZM123.115 81.87H129.745V77.87H123.115V81.87ZM131.675 80.3945L135.925 64.7545L132.065 63.7055L127.815 79.3455L131.675 80.3945ZM135.968 64.5588C135.962 64.5924 135.968 64.5296 136.066 64.3457C136.161 64.1684 136.31 63.9382 136.53 63.645L133.33 61.245C132.797 61.955 132.192 62.881 132.022 63.9012L135.968 64.5588ZM136.53 63.645C136.986 63.0373 137.403 62.5562 137.947 62.0802L135.313 59.0698C134.497 59.7838 133.894 60.4927 133.33 61.245L136.53 63.645ZM137.83 62.175C138.524 61.6542 139.135 61.1978 139.73 60.826L137.61 57.434C136.845 57.9122 136.096 58.4758 135.43 58.975L137.83 62.175ZM139.564 60.9188C140.196 60.6028 140.523 60.535 140.625 60.535V56.535C139.537 56.535 138.504 56.9772 137.776 57.3411L139.564 60.9188ZM140.625 60.535H161.535V56.535H140.625V60.535ZM159.605 58.0096L154.93 75.1796L158.79 76.2304L163.465 59.0604L159.605 58.0096ZM156.86 73.705H151.335V77.705H156.86V73.705ZM149.402 75.1901L143.537 97.2051L147.403 98.2349L153.268 76.2199L149.402 75.1901ZM159.573 97.72V99.72H161.11L161.506 98.2349L159.573 97.72ZM165.438 75.705L167.371 76.2199L168.041 73.705H165.438V75.705ZM159.913 75.705L157.984 75.1796L157.296 77.705H159.913V75.705ZM164.588 58.535V56.535H163.06L162.659 58.0096L164.588 58.535ZM187.028 59.13L188.309 57.5936L188.227 57.5252L188.138 57.4659L187.028 59.13ZM188.303 60.575L190.04 59.5827L190.006 59.5229L189.967 59.4656L188.303 60.575ZM188.983 62.445L190.924 61.9599L190.924 61.9599L188.983 62.445ZM189.068 64.23L190.998 64.7545L191.025 64.6577L191.041 64.5588L189.068 64.23ZM184.818 79.87L182.888 79.3455L182.202 81.87H184.818V79.87ZM191.448 79.87L193.381 80.3861L194.053 77.87H191.448V79.87ZM187.793 93.555V95.555H189.329L189.726 94.0711L187.793 93.555ZM181.163 93.555V91.555H179.626L179.231 93.0403L181.163 93.555ZM176.998 109.195L178.896 109.827L178.915 109.769L178.931 109.71L176.998 109.195ZM175.978 110.98L174.378 109.78L174.378 109.78L175.978 110.98ZM174.278 112.85L173.078 111.25L173.018 111.295L172.961 111.345L174.278 112.85ZM172.238 114.295L171.344 112.506L171.259 112.549L171.178 112.599L172.238 114.295ZM149.458 114.89L147.526 114.373L146.853 116.89H149.458V114.89ZM154.048 97.72V95.72H152.513L152.116 97.2035L154.048 97.72ZM161.506 98.2349L167.371 76.2199L163.506 75.1901L157.641 97.2051L161.506 98.2349ZM165.438 73.705H159.913V77.705H165.438V73.705ZM161.843 76.2304L166.518 59.0604L162.659 58.0096L157.984 75.1796L161.843 76.2304ZM164.588 60.535H185.498V56.535H164.588V60.535ZM185.498 60.535C185.419 60.535 185.408 60.5153 185.494 60.5512C185.584 60.5885 185.719 60.661 185.919 60.7941L188.138 57.4659C187.571 57.0883 186.637 56.535 185.498 56.535V60.535ZM185.748 60.6664C186.078 60.9418 186.38 61.2959 186.639 61.6844L189.967 59.4656C189.546 58.8341 188.998 58.1682 188.309 57.5936L185.748 60.6664ZM186.567 61.5673C186.761 61.9077 186.879 62.2735 187.043 62.9301L190.924 61.9599C190.748 61.2565 190.525 60.4323 190.04 59.5827L186.567 61.5673ZM187.043 62.9301C187.144 63.3328 187.137 63.6504 187.096 63.9012L191.041 64.5588C191.169 63.7896 191.163 62.9171 190.924 61.9599L187.043 62.9301ZM187.138 63.7055L182.888 79.3455L186.748 80.3945L190.998 64.7545L187.138 63.7055ZM184.818 81.87H191.448V77.87H184.818V81.87ZM189.516 79.3539L185.861 93.0389L189.726 94.0711L193.381 80.3861L189.516 79.3539ZM187.793 91.555H181.163V95.555H187.793V91.555ZM179.231 93.0403L175.066 108.68L178.931 109.71L183.096 94.0697L179.231 93.0403ZM175.101 108.563C175.027 108.786 174.825 109.184 174.378 109.78L177.578 112.18C178.151 111.416 178.63 110.624 178.896 109.827L175.101 108.563ZM174.378 109.78C173.838 110.5 173.492 110.94 173.078 111.25L175.478 114.45C176.425 113.74 177.099 112.82 177.578 112.18L174.378 109.78ZM172.961 111.345C172.337 111.891 171.804 112.276 171.344 112.506L173.133 116.084C174.032 115.634 174.86 114.999 175.595 114.355L172.961 111.345ZM171.178 112.599C170.787 112.844 170.471 112.89 170.368 112.89V116.89C171.286 116.89 172.33 116.596 173.298 115.991L171.178 112.599ZM170.368 112.89H149.458V116.89H170.368V112.89ZM151.391 115.407L155.981 98.2365L152.116 97.2035L147.526 114.373L151.391 115.407ZM154.048 99.72H159.573V95.72H154.048V99.72Z" fill="#76FF03" mask="url(#path-3-inside-2_13_28)"/>
<mask id="path-5-inside-3_13_28" fill="white">
<path d="M113.168 26.936L109.648 39.928H93.584L90.64 51H75.152L84.176 17.336C84.304 16.952 84.56 16.504 84.944 15.992C85.328 15.48 85.712 15.032 86.224 14.584C86.736 14.136 87.248 13.752 87.76 13.432C88.272 13.176 88.784 12.984 89.232 12.984H116.816L113.36 25.976H97.36L97.104 26.936H113.168ZM127.267 40.76L124.515 51H109.027L118.051 17.336C118.179 16.952 118.435 16.504 118.819 15.992C119.203 15.48 119.587 15.032 120.099 14.584C120.611 14.136 121.123 13.752 121.635 13.432C122.147 13.176 122.659 12.984 123.107 12.984H148.771C149.155 12.984 149.603 13.176 149.987 13.432C150.371 13.752 150.691 14.136 150.947 14.584C151.203 15.032 151.331 15.48 151.459 15.992C151.587 16.504 151.587 16.952 151.459 17.336L142.435 51H127.011L129.763 40.76H127.267ZM133.795 26.04H131.171L130.659 27.768H133.283L133.795 26.04ZM206.283 12.984L196.107 51H180.747L187.467 25.976H184.843L178.123 51H162.699L169.419 25.976H166.859L160.139 51H144.715L153.739 17.336C153.867 16.952 154.059 16.504 154.443 15.992C154.827 15.48 155.211 15.032 155.723 14.584C156.235 14.136 156.747 13.752 157.259 13.432C157.771 13.176 158.283 12.984 158.731 12.984H206.283ZM241.902 51L252.078 12.984H267.502L260.782 38.072H263.342L270.062 12.984H285.486L276.462 46.712C276.334 47.096 276.078 47.544 275.694 48.056C275.31 48.568 274.926 49.08 274.414 49.464C273.902 49.912 273.39 50.296 272.878 50.552C272.366 50.872 271.854 51 271.47 51H241.902ZM281.11 38.072H299.158L299.414 37.048H283.926C283.67 37.048 283.478 36.92 283.286 36.664C283.03 36.408 282.838 36.152 282.646 35.768C282.454 35.384 282.326 35.064 282.262 34.68C282.134 34.36 282.134 34.104 282.198 33.912L286.678 17.016C286.742 16.632 286.998 16.248 287.382 15.8C287.766 15.352 288.214 14.904 288.726 14.456C289.238 14.072 289.75 13.688 290.326 13.432C290.838 13.176 291.35 12.984 291.734 12.984H321.302L317.846 25.976H299.862L299.606 26.936H313.174C313.622 26.936 314.069 27.128 314.518 27.384C314.902 27.704 315.286 28.088 315.606 28.472C315.926 28.92 316.182 29.368 316.31 29.88C316.438 30.392 316.502 30.776 316.438 31.16L312.15 47.16C312.022 47.608 311.701 48.056 311.318 48.504C310.934 48.952 310.422 49.336 309.91 49.72C309.398 50.104 308.822 50.424 308.31 50.68C307.734 50.936 307.222 51 306.838 51H277.654L281.11 38.072Z"/>
</mask>
<path d="M113.168 26.936L109.648 39.928H93.584L90.64 51H75.152L84.176 17.336C84.304 16.952 84.56 16.504 84.944 15.992C85.328 15.48 85.712 15.032 86.224 14.584C86.736 14.136 87.248 13.752 87.76 13.432C88.272 13.176 88.784 12.984 89.232 12.984H116.816L113.36 25.976H97.36L97.104 26.936H113.168ZM127.267 40.76L124.515 51H109.027L118.051 17.336C118.179 16.952 118.435 16.504 118.819 15.992C119.203 15.48 119.587 15.032 120.099 14.584C120.611 14.136 121.123 13.752 121.635 13.432C122.147 13.176 122.659 12.984 123.107 12.984H148.771C149.155 12.984 149.603 13.176 149.987 13.432C150.371 13.752 150.691 14.136 150.947 14.584C151.203 15.032 151.331 15.48 151.459 15.992C151.587 16.504 151.587 16.952 151.459 17.336L142.435 51H127.011L129.763 40.76H127.267ZM133.795 26.04H131.171L130.659 27.768H133.283L133.795 26.04ZM206.283 12.984L196.107 51H180.747L187.467 25.976H184.843L178.123 51H162.699L169.419 25.976H166.859L160.139 51H144.715L153.739 17.336C153.867 16.952 154.059 16.504 154.443 15.992C154.827 15.48 155.211 15.032 155.723 14.584C156.235 14.136 156.747 13.752 157.259 13.432C157.771 13.176 158.283 12.984 158.731 12.984H206.283ZM241.902 51L252.078 12.984H267.502L260.782 38.072H263.342L270.062 12.984H285.486L276.462 46.712C276.334 47.096 276.078 47.544 275.694 48.056C275.31 48.568 274.926 49.08 274.414 49.464C273.902 49.912 273.39 50.296 272.878 50.552C272.366 50.872 271.854 51 271.47 51H241.902ZM281.11 38.072H299.158L299.414 37.048H283.926C283.67 37.048 283.478 36.92 283.286 36.664C283.03 36.408 282.838 36.152 282.646 35.768C282.454 35.384 282.326 35.064 282.262 34.68C282.134 34.36 282.134 34.104 282.198 33.912L286.678 17.016C286.742 16.632 286.998 16.248 287.382 15.8C287.766 15.352 288.214 14.904 288.726 14.456C289.238 14.072 289.75 13.688 290.326 13.432C290.838 13.176 291.35 12.984 291.734 12.984H321.302L317.846 25.976H299.862L299.606 26.936H313.174C313.622 26.936 314.069 27.128 314.518 27.384C314.902 27.704 315.286 28.088 315.606 28.472C315.926 28.92 316.182 29.368 316.31 29.88C316.438 30.392 316.502 30.776 316.438 31.16L312.15 47.16C312.022 47.608 311.701 48.056 311.318 48.504C310.934 48.952 310.422 49.336 309.91 49.72C309.398 50.104 308.822 50.424 308.31 50.68C307.734 50.936 307.222 51 306.838 51H277.654L281.11 38.072Z" fill="#E7E7E7"/>
<path d="M113.168 26.936L115.098 27.459L115.782 24.936H113.168V26.936ZM109.648 39.928V41.928H111.178L111.578 40.451L109.648 39.928ZM93.584 39.928V37.928H92.0463L91.6512 39.4141L93.584 39.928ZM90.64 51V53H92.1777L92.5728 51.5139L90.64 51ZM75.152 51L73.2202 50.4822L72.5453 53H75.152V51ZM84.176 17.336L82.2786 16.7035L82.2597 16.7603L82.2442 16.8182L84.176 17.336ZM84.944 15.992L83.344 14.792L83.344 14.792L84.944 15.992ZM86.224 14.584L87.541 16.0892L87.541 16.0892L86.224 14.584ZM87.76 13.432L86.8656 11.6431L86.7806 11.6856L86.7 11.736L87.76 13.432ZM116.816 12.984L118.749 13.4981L119.418 10.984H116.816V12.984ZM113.36 25.976V27.976H114.898L115.293 26.4901L113.36 25.976ZM97.36 25.976V23.976H95.8234L95.4275 25.4607L97.36 25.976ZM97.104 26.936L95.1715 26.4207L94.5008 28.936H97.104V26.936ZM111.238 26.413L107.718 39.405L111.578 40.451L115.098 27.459L111.238 26.413ZM109.648 37.928H93.584V41.928H109.648V37.928ZM91.6512 39.4141L88.7072 50.4861L92.5728 51.5139L95.5168 40.4419L91.6512 39.4141ZM90.64 49H75.152V53H90.64V49ZM77.0838 51.5178L86.1078 17.8538L82.2442 16.8182L73.2202 50.4822L77.0838 51.5178ZM86.0734 17.9685C86.1057 17.8714 86.2231 17.6198 86.544 17.192L83.344 14.792C82.8969 15.3882 82.5023 16.0326 82.2786 16.7035L86.0734 17.9685ZM86.544 17.192C86.8738 16.7523 87.1649 16.4182 87.541 16.0892L84.907 13.0788C84.2591 13.6458 83.7822 14.2077 83.344 14.792L86.544 17.192ZM87.541 16.0892C87.9825 15.7028 88.4092 15.3848 88.82 15.128L86.7 11.736C86.0868 12.1192 85.4895 12.5691 84.907 13.0788L87.541 16.0892ZM88.6544 15.2209C88.8571 15.1195 89.015 15.0538 89.134 15.0154C89.2583 14.9753 89.2826 14.984 89.232 14.984V10.984C88.2913 10.984 87.4255 11.3632 86.8656 11.6431L88.6544 15.2209ZM89.232 14.984H116.816V10.984H89.232V14.984ZM114.883 12.4699L111.427 25.4619L115.293 26.4901L118.749 13.4981L114.883 12.4699ZM113.36 23.976H97.36V27.976H113.36V23.976ZM95.4275 25.4607L95.1715 26.4207L99.0365 27.4513L99.2925 26.4913L95.4275 25.4607ZM97.104 28.936H113.168V24.936H97.104V28.936ZM127.267 40.76V38.76H125.734L125.336 40.2409L127.267 40.76ZM124.515 51V53H126.048L126.446 51.5191L124.515 51ZM109.027 51L107.095 50.4822L106.42 53H109.027V51ZM118.051 17.336L116.154 16.7035L116.135 16.7603L116.119 16.8182L118.051 17.336ZM118.819 15.992L117.219 14.792L117.219 14.792L118.819 15.992ZM120.099 14.584L121.416 16.0892L121.416 16.0892L120.099 14.584ZM121.635 13.432L120.741 11.6431L120.656 11.6856L120.575 11.736L121.635 13.432ZM149.987 13.432L151.267 11.8956L151.185 11.8272L151.096 11.7679L149.987 13.432ZM150.947 14.584L149.211 15.5763L149.211 15.5763L150.947 14.584ZM151.459 15.992L153.399 15.5069L153.399 15.5069L151.459 15.992ZM151.459 17.336L149.562 16.7035L149.543 16.7603L149.527 16.8182L151.459 17.336ZM142.435 51V53H143.969L144.367 51.5178L142.435 51ZM127.011 51L125.08 50.4809L124.403 53H127.011V51ZM129.763 40.76L131.694 41.2791L132.371 38.76H129.763V40.76ZM133.795 26.04L135.713 26.6082L136.474 24.04H133.795V26.04ZM131.171 26.04V24.04H129.678L129.253 25.4718L131.171 26.04ZM130.659 27.768L128.741 27.1998L127.98 29.768H130.659V27.768ZM133.283 27.768V29.768H134.776L135.201 28.3362L133.283 27.768ZM125.336 40.2409L122.584 50.4809L126.446 51.5191L129.198 41.2791L125.336 40.2409ZM124.515 49H109.027V53H124.515V49ZM110.959 51.5178L119.983 17.8538L116.119 16.8182L107.095 50.4822L110.959 51.5178ZM119.948 17.9685C119.981 17.8714 120.098 17.6198 120.419 17.192L117.219 14.792C116.772 15.3882 116.377 16.0326 116.154 16.7035L119.948 17.9685ZM120.419 17.192C120.749 16.7523 121.04 16.4182 121.416 16.0892L118.782 13.0788C118.134 13.6458 117.657 14.2077 117.219 14.792L120.419 17.192ZM121.416 16.0892C121.858 15.7028 122.284 15.3848 122.695 15.128L120.575 11.736C119.962 12.1192 119.365 12.5691 118.782 13.0788L121.416 16.0892ZM122.529 15.2209C122.732 15.1195 122.89 15.0538 123.009 15.0154C123.133 14.9753 123.158 14.984 123.107 14.984V10.984C122.166 10.984 121.301 11.3632 120.741 11.6431L122.529 15.2209ZM123.107 14.984H148.771V10.984H123.107V14.984ZM148.771 14.984C148.702 14.984 148.66 14.9757 148.647 14.973C148.634 14.9702 148.639 14.9701 148.661 14.9787C148.683 14.987 148.714 15.0008 148.753 15.0216C148.792 15.0422 148.834 15.0673 148.878 15.0961L151.096 11.7679C150.574 11.4195 149.729 10.984 148.771 10.984V14.984ZM148.707 14.9684C148.901 15.1308 149.069 15.3286 149.211 15.5763L152.683 13.5917C152.313 12.9434 151.841 12.3732 151.267 11.8956L148.707 14.9684ZM149.211 15.5763C149.321 15.7697 149.397 15.9885 149.519 16.4771L153.399 15.5069C153.265 14.9715 153.085 14.2943 152.683 13.5917L149.211 15.5763ZM149.519 16.4771C149.582 16.7303 149.538 16.7748 149.562 16.7035L153.356 17.9684C153.636 17.1292 153.592 16.2777 153.399 15.5069L149.519 16.4771ZM149.527 16.8182L140.503 50.4822L144.367 51.5178L153.391 17.8538L149.527 16.8182ZM142.435 49H127.011V53H142.435V49ZM128.942 51.5191L131.694 41.2791L127.832 40.2409L125.08 50.4809L128.942 51.5191ZM129.763 38.76H127.267V42.76H129.763V38.76ZM133.795 24.04H131.171V28.04H133.795V24.04ZM129.253 25.4718L128.741 27.1998L132.577 28.3362L133.089 26.6082L129.253 25.4718ZM130.659 29.768H133.283V25.768H130.659V29.768ZM135.201 28.3362L135.713 26.6082L131.877 25.4718L131.365 27.1998L135.201 28.3362ZM206.283 12.984L208.214 13.5011L208.888 10.984H206.283V12.984ZM196.107 51V53H197.642L198.038 51.5171L196.107 51ZM180.747 51L178.815 50.4813L178.139 53H180.747V51ZM187.467 25.976L189.398 26.4947L190.074 23.976H187.467V25.976ZM184.843 25.976V23.976H183.309L182.911 25.4573L184.843 25.976ZM178.123 51V53H179.656L180.054 51.5187L178.123 51ZM162.699 51L160.767 50.4813L160.091 53H162.699V51ZM169.419 25.976L171.35 26.4947L172.026 23.976H169.419V25.976ZM166.859 25.976V23.976H165.325L164.927 25.4573L166.859 25.976ZM160.139 51V53H161.672L162.07 51.5187L160.139 51ZM144.715 51L142.783 50.4822L142.108 53H144.715V51ZM153.739 17.336L151.841 16.7035L151.822 16.7603L151.807 16.8182L153.739 17.336ZM154.443 15.992L152.843 14.792L152.842 14.792L154.443 15.992ZM155.723 14.584L157.04 16.0892L157.04 16.0892L155.723 14.584ZM157.259 13.432L156.364 11.6431L156.279 11.6856L156.199 11.736L157.259 13.432ZM204.351 12.4669L194.175 50.4829L198.038 51.5171L208.214 13.5011L204.351 12.4669ZM196.107 49H180.747V53H196.107V49ZM182.678 51.5187L189.398 26.4947L185.535 25.4573L178.815 50.4813L182.678 51.5187ZM187.467 23.976H184.843V27.976H187.467V23.976ZM182.911 25.4573L176.191 50.4813L180.054 51.5187L186.774 26.4947L182.911 25.4573ZM178.123 49H162.699V53H178.123V49ZM164.63 51.5187L171.35 26.4947L167.487 25.4573L160.767 50.4813L164.63 51.5187ZM169.419 23.976H166.859V27.976H169.419V23.976ZM164.927 25.4573L158.207 50.4813L162.07 51.5187L168.79 26.4947L164.927 25.4573ZM160.139 49H144.715V53H160.139V49ZM146.646 51.5178L155.67 17.8538L151.807 16.8182L142.783 50.4822L146.646 51.5178ZM155.636 17.9685C155.713 17.7369 155.816 17.4934 156.043 17.192L152.842 14.792C152.301 15.5146 152.02 16.1671 151.841 16.7035L155.636 17.9685ZM156.042 17.192C156.372 16.7523 156.663 16.4182 157.04 16.0892L154.405 13.0788C153.758 13.6458 153.281 14.2077 152.843 14.792L156.042 17.192ZM157.04 16.0892C157.481 15.7028 157.908 15.3848 158.318 15.128L156.199 11.736C155.585 12.1192 154.988 12.5691 154.405 13.0788L157.04 16.0892ZM158.153 15.2209C158.356 15.1195 158.513 15.0538 158.633 15.0154C158.757 14.9753 158.781 14.984 158.731 14.984V10.984C157.79 10.984 156.924 11.3632 156.364 11.6431L158.153 15.2209ZM158.731 14.984H206.283V10.984H158.731V14.984ZM241.902 51L239.97 50.4829L239.296 53H241.902V51ZM252.078 12.984V10.984H250.543L250.146 12.4669L252.078 12.984ZM267.502 12.984L269.434 13.5015L270.108 10.984H267.502V12.984ZM260.782 38.072L258.85 37.5545L258.176 40.072H260.782V38.072ZM263.342 38.072V40.072H264.877L265.274 38.5895L263.342 38.072ZM270.062 12.984V10.984H268.527L268.13 12.4665L270.062 12.984ZM285.486 12.984L287.418 13.5009L288.091 10.984H285.486V12.984ZM276.462 46.712L278.359 47.3444L278.378 47.2872L278.394 47.2289L276.462 46.712ZM275.694 48.056L274.094 46.856L274.094 46.856L275.694 48.056ZM274.414 49.464L273.214 47.864L273.154 47.9092L273.097 47.9588L274.414 49.464ZM272.878 50.552L271.984 48.7631L271.899 48.8056L271.818 48.856L272.878 50.552ZM243.834 51.5171L254.01 13.5011L250.146 12.4669L239.97 50.4829L243.834 51.5171ZM252.078 14.984H267.502V10.984H252.078V14.984ZM265.57 12.4665L258.85 37.5545L262.714 38.5895L269.434 13.5015L265.57 12.4665ZM260.782 40.072H263.342V36.072H260.782V40.072ZM265.274 38.5895L271.994 13.5015L268.13 12.4665L261.41 37.5545L265.274 38.5895ZM270.062 14.984H285.486V10.984H270.062V14.984ZM283.554 12.4671L274.53 46.1951L278.394 47.2289L287.418 13.5009L283.554 12.4671ZM274.565 46.0796C274.532 46.1766 274.415 46.4282 274.094 46.856L277.294 49.256C277.741 48.6598 278.136 48.0154 278.359 47.3444L274.565 46.0796ZM274.094 46.856C273.68 47.4083 273.459 47.6801 273.214 47.864L275.614 51.064C276.393 50.4799 276.94 49.7277 277.294 49.256L274.094 46.856ZM273.097 47.9588C272.64 48.3583 272.276 48.617 271.984 48.7631L273.772 52.3409C274.504 51.975 275.164 51.4657 275.731 50.9692L273.097 47.9588ZM271.818 48.856C271.714 48.9212 271.621 48.9594 271.551 48.9803C271.478 49.0025 271.447 49 271.47 49V53C272.262 53 273.137 52.7484 273.938 52.248L271.818 48.856ZM271.47 49H241.902V53H271.47V49ZM281.11 38.072V36.072H279.574L279.177 37.5555L281.11 38.072ZM299.158 38.072V40.072H300.719L301.098 38.5571L299.158 38.072ZM299.414 37.048L301.354 37.5331L301.975 35.048H299.414V37.048ZM283.286 36.664L284.885 35.464L284.8 35.3503L284.7 35.2498L283.286 36.664ZM282.646 35.768L280.857 36.6624L280.857 36.6624L282.646 35.768ZM282.262 34.68L284.234 34.3512L284.199 34.1379L284.118 33.9372L282.262 34.68ZM282.198 33.912L284.095 34.5445L284.115 34.4851L284.131 34.4246L282.198 33.912ZM286.678 17.016L288.611 17.5286L288.635 17.4376L288.65 17.3448L286.678 17.016ZM287.382 15.8L288.9 17.1016L288.9 17.1016L287.382 15.8ZM288.726 14.456L287.526 12.856L287.465 12.9012L287.408 12.9508L288.726 14.456ZM290.326 13.432L291.138 15.2596L291.179 15.2412L291.22 15.2209L290.326 13.432ZM321.302 12.984L323.234 13.4981L323.903 10.984H321.302V12.984ZM317.846 25.976V27.976H319.383L319.778 26.4901L317.846 25.976ZM299.862 25.976V23.976H298.325L297.929 25.4607L299.862 25.976ZM299.606 26.936L297.673 26.4207L297.002 28.936H299.606V26.936ZM314.518 27.384L315.798 25.8476L315.663 25.7349L315.51 25.6475L314.518 27.384ZM315.606 28.472L317.233 27.3095L317.19 27.2489L317.142 27.1916L315.606 28.472ZM316.31 29.88L314.369 30.3651L314.369 30.3651L316.31 29.88ZM316.438 31.16L318.369 31.6777L318.394 31.5843L318.41 31.4888L316.438 31.16ZM312.15 47.16L314.073 47.7094L314.077 47.6936L314.081 47.6777L312.15 47.16ZM311.318 48.504L312.836 49.8056L312.836 49.8056L311.318 48.504ZM309.91 49.72L308.71 48.12L308.709 48.12L309.91 49.72ZM308.31 50.68L309.122 52.5076L309.163 52.4892L309.204 52.4689L308.31 50.68ZM277.654 51L275.721 50.4835L275.049 53H277.654V51ZM281.11 40.072H299.158V36.072H281.11V40.072ZM301.098 38.5571L301.354 37.5331L297.473 36.5629L297.217 37.5869L301.098 38.5571ZM299.414 35.048H283.926V39.048H299.414V35.048ZM283.926 35.048C284.162 35.048 284.413 35.1156 284.63 35.2487C284.814 35.3622 284.894 35.4756 284.885 35.464L281.686 37.864C282.084 38.3955 282.801 39.048 283.926 39.048V35.048ZM284.7 35.2498C284.594 35.1439 284.529 35.063 284.434 34.8736L280.857 36.6624C281.146 37.241 281.465 37.6721 281.871 38.0782L284.7 35.2498ZM284.434 34.8736C284.285 34.5755 284.252 34.4576 284.234 34.3512L280.289 35.0088C280.399 35.6704 280.622 36.1925 280.857 36.6624L284.434 34.8736ZM284.118 33.9372C284.13 33.9654 284.209 34.2027 284.095 34.5445L280.3 33.2795C280.058 34.0053 280.137 34.7546 280.405 35.4228L284.118 33.9372ZM284.131 34.4246L288.611 17.5286L284.744 16.5034L280.264 33.3994L284.131 34.4246ZM288.65 17.3448C288.629 17.4731 288.589 17.5198 288.624 17.461C288.662 17.3985 288.741 17.2871 288.9 17.1016L285.863 14.4984C285.463 14.9656 284.867 15.7139 284.705 16.6872L288.65 17.3448ZM288.9 17.1016C289.213 16.7362 289.592 16.3555 290.043 15.9611L287.408 12.9508C286.835 13.4525 286.318 13.9678 285.863 14.4984L288.9 17.1016ZM289.925 16.056C290.471 15.647 290.804 15.408 291.138 15.2596L289.513 11.6044C288.695 11.968 288.004 12.497 287.526 12.856L289.925 16.056ZM291.22 15.2209C291.423 15.1193 291.588 15.05 291.71 15.0094C291.769 14.9896 291.804 14.9816 291.816 14.9792C291.83 14.9763 291.799 14.984 291.734 14.984V10.984C290.84 10.984 289.959 11.3793 289.431 11.6431L291.22 15.2209ZM291.734 14.984H321.302V10.984H291.734V14.984ZM319.369 12.4699L315.913 25.4619L319.778 26.4901L323.234 13.4981L319.369 12.4699ZM317.846 23.976H299.862V27.976H317.846V23.976ZM297.929 25.4607L297.673 26.4207L301.538 27.4513L301.794 26.4913L297.929 25.4607ZM299.606 28.936H313.174V24.936H299.606V28.936ZM313.174 28.936C313.111 28.936 313.104 28.9228 313.173 28.9475C313.245 28.9733 313.357 29.0242 313.525 29.1205L315.51 25.6475C314.991 25.3509 314.163 24.936 313.174 24.936V28.936ZM313.237 28.9204C313.528 29.163 313.827 29.4613 314.069 29.7524L317.142 27.1916C316.745 26.7147 316.275 26.245 315.798 25.8476L313.237 28.9204ZM313.978 29.6345C314.231 29.9887 314.328 30.2004 314.369 30.3651L318.25 29.3949C318.035 28.5356 317.62 27.8513 317.233 27.3095L313.978 29.6345ZM314.369 30.3651C314.426 30.5939 314.45 30.7188 314.459 30.7972C314.466 30.8616 314.46 30.8612 314.465 30.8312L318.41 31.4888C318.547 30.6692 318.386 29.9395 318.25 29.3949L314.369 30.3651ZM314.506 30.6423L310.218 46.6423L314.081 47.6777L318.369 31.6777L314.506 30.6423ZM310.226 46.6106C310.233 46.5883 310.224 46.6311 310.147 46.7505C310.072 46.8677 309.96 47.0145 309.799 47.2024L312.836 49.8056C313.245 49.3289 313.817 48.6021 314.073 47.7094L310.226 46.6106ZM309.799 47.2024C309.584 47.4527 309.262 47.7054 308.71 48.12L311.109 51.32C311.581 50.9666 312.283 50.4513 312.836 49.8056L309.799 47.2024ZM308.709 48.12C308.335 48.4012 307.878 48.6595 307.415 48.8911L309.204 52.4689C309.765 52.1885 310.46 51.8068 311.11 51.32L308.709 48.12ZM307.497 48.8524C307.22 48.9757 306.993 49 306.838 49V53C307.45 53 308.247 52.8963 309.122 52.5076L307.497 48.8524ZM306.838 49H277.654V53H306.838V49ZM279.586 51.5165L283.042 38.5885L279.177 37.5555L275.721 50.4835L279.586 51.5165Z" fill="#76FF03" mask="url(#path-5-inside-3_13_28)"/>
<path d="M221.69 14.0828L221.69 14.0828C221.253 13.3285 220.856 12.6376 220.569 12.1322C220.512 12.0331 220.46 11.9413 220.413 11.8577C220.417 11.8569 220.421 11.8562 220.425 11.8554C220.812 11.7805 221.33 11.6944 221.844 11.6236C225.107 11.1746 229.47 11.9716 232.8 13.6441L233.024 13.1973L232.8 13.6441C233.721 14.1065 234.91 14.8733 235.87 15.5824C236.349 15.9365 236.76 16.268 237.045 16.5321C237.159 16.6368 237.245 16.7246 237.307 16.7942C237.257 16.8894 237.189 17.0134 237.106 17.1641C236.903 17.5323 236.613 18.0467 236.262 18.6593C235.561 19.8841 234.625 21.4943 233.684 23.0973C232.744 24.7003 231.8 26.2944 231.082 27.487C230.754 28.0326 230.474 28.4926 230.265 28.8303C230.17 28.6778 230.062 28.4998 229.941 28.2998C229.506 27.5799 228.92 26.5854 228.288 25.4905L227.855 25.7405L228.288 25.4905C225.934 21.4143 224.499 18.9334 221.69 14.0828ZM217.078 12.7993L217.078 12.7993C217.234 12.7365 217.38 12.6702 217.499 12.6163C217.543 12.5962 217.583 12.5778 217.619 12.562C217.768 12.4964 217.843 12.4713 217.894 12.4636C217.923 12.459 217.933 12.461 217.956 12.472C217.994 12.4911 218.072 12.5445 218.201 12.6917C218.465 12.9922 218.824 13.5449 219.403 14.5251C219.773 15.1504 220.222 15.9316 220.782 16.9064C221.091 17.4438 221.434 18.0401 221.816 18.7015C222.845 20.4849 223.774 22.1167 224.44 23.3088C224.727 23.8208 224.964 24.2502 225.139 24.5751C225.096 24.5759 225.05 24.5768 225.003 24.5777C224.426 24.5884 223.604 24.5982 222.617 24.6069C220.644 24.6244 218.018 24.6375 215.394 24.6444C212.769 24.6514 210.147 24.6522 208.182 24.6451C207.199 24.6416 206.381 24.6361 205.81 24.6285C205.733 24.6275 205.66 24.6264 205.593 24.6253C205.664 24.443 205.749 24.2328 205.842 24.0106C206.106 23.3749 206.421 22.6626 206.629 22.2467C208.801 17.9109 212.357 14.6901 217.078 12.7993ZM230.288 33.2592L230.288 33.2592C231.192 31.719 233.577 27.6432 235.59 24.2016C236.595 22.4816 237.516 20.9187 238.188 19.7866C238.509 19.2466 238.773 18.8055 238.962 18.4923C239.186 18.7742 239.472 19.1695 239.776 19.6152C240.386 20.5111 241.04 21.5708 241.385 22.2652L241.833 22.0431L241.385 22.2652C242.384 24.2802 243.069 26.8552 243.353 29.3274C243.634 31.7712 243.514 34.0441 242.972 35.5472H235.767C233.09 35.5472 231.205 35.5384 229.991 35.519C229.587 35.5125 229.26 35.5049 229.003 35.4962C229.044 35.4238 229.087 35.3462 229.133 35.2639C229.429 34.7379 229.838 34.0272 230.288 33.2592ZM204.95 26.9145L204.95 26.9144L204.962 26.8684H212.189H218.934C218.274 28.0258 216.257 31.5669 213.96 35.6052L214.394 35.8525L213.96 35.6053C212.589 38.0139 211.336 40.2032 210.42 41.79C209.962 42.5836 209.589 43.2256 209.329 43.6687C209.304 43.7102 209.281 43.75 209.259 43.7879C209.146 43.6524 209.018 43.4963 208.885 43.3305C208.463 42.8043 208.006 42.2064 207.792 41.8871C204.967 37.6804 203.774 31.3239 204.95 26.9145ZM227.541 46.0627L227.118 46.3032L227.541 46.0626C226.297 43.8753 224.638 40.9592 223.856 39.5825L222.817 37.7561C222.95 37.7542 223.107 37.7525 223.287 37.751C223.872 37.7458 224.69 37.7422 225.663 37.7398C227.609 37.7351 230.172 37.7357 232.726 37.7403C235.281 37.745 237.826 37.7538 239.736 37.7655C240.691 37.7714 241.487 37.778 242.045 37.7852C242.179 37.787 242.298 37.7887 242.403 37.7905C242.364 37.9019 242.311 38.034 242.245 38.186C242.007 38.727 241.625 39.4439 241.16 40.2231C240.23 41.7855 239.012 43.5317 238.068 44.5383C237.036 45.6388 235.258 46.9631 233.519 48.0167C232.653 48.5413 231.81 48.9908 231.09 49.3073C230.509 49.5623 230.051 49.7117 229.737 49.7648C229.724 49.745 229.71 49.7235 229.695 49.7004C229.568 49.5055 229.39 49.219 229.173 48.8603C228.741 48.1441 228.162 47.1537 227.541 46.0627ZM214.342 39.4C215.323 37.6759 216.227 36.0802 216.895 34.898C217.228 34.3069 217.503 33.8189 217.698 33.4697C217.724 33.4238 217.748 33.3796 217.772 33.3375C217.833 33.4426 217.903 33.5645 217.983 33.7055C220.532 38.1681 222.952 42.4375 224.729 45.5997C225.617 47.181 226.345 48.4844 226.847 49.3964C227.05 49.7663 227.216 50.0706 227.341 50.3023C227.14 50.3334 226.89 50.3631 226.599 50.3896C225.822 50.4604 224.801 50.5046 223.777 50.4996C220.602 50.4841 218.406 49.9768 215.555 48.601C214.588 48.1343 213.362 47.3855 212.377 46.6981C211.885 46.3545 211.464 46.0338 211.17 45.7783C211.06 45.6827 210.974 45.6016 210.912 45.5361C210.952 45.4591 211.003 45.3641 211.063 45.2519C211.243 44.9192 211.504 44.4455 211.826 43.865C212.472 42.7046 213.362 41.1228 214.342 39.4ZM227.63 50.3469L227.63 50.347L227.63 50.3469Z" fill="#E7E7E7" stroke="#76FF03"/>
</g>
</g>
<defs>
<filter id="filter0_d_13_28" x="-0.600006" y="11" width="325.901" height="112" filterUnits="userSpaceOnUse" color-interpolation-filters="sRGB">
<feFlood flood-opacity="0" result="BackgroundImageFix"/>
<feColorMatrix in="SourceAlpha" type="matrix" values="0 0 0 0 0 0 0 0 0 0 0 0 0 0 0 0 0 0 127 0" result="hardAlpha"/>
<feOffset dy="4"/>
<feGaussianBlur stdDeviation="2"/>
<feComposite in2="hardAlpha" operator="out"/>
<feColorMatrix type="matrix" values="0 0 0 0 0 0 0 0 0 0 0 0 0 0 0 0 0 0 0.75 0"/>
<feBlend mode="normal" in2="BackgroundImageFix" result="effect1_dropShadow_13_28"/>
<feBlend mode="normal" in="SourceGraphic" in2="effect1_dropShadow_13_28" result="shape"/>
</filter>
<clipPath id="clip0_13_28">
<rect width="368" height="138" fill="white"/>
</clipPath>
</defs>
</svg>
