<svg xmlns="http://www.w3.org/2000/svg" viewBox="0 0 210 280"><g font-family="Power" font-size="16px" alignment-baseline="middle"><path d="M9.13 2.28L9.13 6.97L10.69 6.97L10.69 10.09L9.13 10.09L9.13 14.78L3.66 14.78L3.66 11.66L6 11.66L6 5.41L3.66 5.41L3.66 2.28L9.13 2.28Z" fill="rgba(0, 0, 0, 0)"/><path d="M17.94 2.28L17.94 6.97L19.50 6.97L19.50 10.09L17.94 10.09L17.94 14.78L12.47 14.78L12.47 11.66L14.81 11.66L14.81 5.41L12.47 5.41L12.47 2.28L17.94 2.28Z" fill="rgba(0, 0, 0, 0)"/><path d="M26.75 2.28L26.75 6.97L28.31 6.97L28.31 10.09L26.75 10.09L26.75 14.78L21.28 14.78L21.28 11.66L23.63 11.66L23.63 5.41L21.28 5.41L21.28 2.28L26.75 2.28Z" fill="rgba(0, 0, 0, 0)"/><path d="M35.56 2.28L35.56 6.97L37.13 6.97L37.13 10.09L35.56 10.09L35.56 14.78L30.09 14.78L30.09 11.66L32.44 11.66L32.44 5.41L30.09 5.41L30.09 2.28L35.56 2.28Z" fill="rgba(0, 0, 0, 0)"/><path d="M44.38 2.28L44.38 6.97L45.94 6.97L45.94 10.09L44.38 10.09L44.38 14.78L38.91 14.78L38.91 11.66L41.25 11.66L41.25 5.41L38.91 5.41L38.91 2.28L44.38 2.28Z" fill="rgba(0, 0, 0, 0)"/><path d="M53.19 2.28L53.19 6.97L54.75 6.97L54.75 10.09L53.19 10.09L53.19 14.78L47.72 14.78L47.72 11.66L50.06 11.66L50.06 5.41L47.72 5.41L47.72 2.28L53.19 2.28Z" fill="rgba(0, 0, 0, 0)"/><path d="M62 2.28L62 6.97L63.56 6.97L63.56 10.09L62 10.09L62 14.78L56.53 14.78L56.53 11.66L58.88 11.66L58.88 5.41L56.53 5.41L56.53 2.28L62 2.28Z" fill="rgba(0, 0, 0, 0)"/><path d="M70.81 2.28L70.81 6.97L72.38 6.97L72.38 10.09L70.81 10.09L70.81 14.78L65.34 14.78L65.34 11.66L67.69 11.66L67.69 5.41L65.34 5.41L65.34 2.28L70.81 2.28Z" fill="rgba(120, 255, 4, 0.2823529411764706)"/><path d="M79.63 2.28L79.63 6.97L81.19 6.97L81.19 10.09L79.63 10.09L79.63 14.78L74.16 14.78L74.16 11.66L76.50 11.66L76.50 5.41L74.16 5.41L74.16 2.28L79.63 2.28Z" fill="rgba(120, 255, 4, 0.2823529411764706)"/><path d="M88.44 2.28L88.44 6.97L90 6.97L90 10.09L88.44 10.09L88.44 14.78L82.97 14.78L82.97 11.66L85.31 11.66L85.31 5.41L82.97 5.41L82.97 2.28L88.44 2.28Z" fill="rgba(119, 255, 3, 0.6823529411764706)"/><path d="M97.25 2.28L97.25 6.97L98.81 6.97L98.81 10.09L97.25 10.09L97.25 14.78L91.78 14.78L91.78 11.66L94.13 11.66L94.13 5.41L91.78 5.41L91.78 2.28L97.25 2.28Z" fill="rgba(119, 255, 3, 0.6823529411764706)"/><path d="M106.06 2.28L106.06 6.97L107.63 6.97L107.63 10.09L106.06 10.09L106.06 14.78L100.59 14.78L100.59 11.66L102.94 11.66L102.94 5.41L100.59 5.41L100.59 2.28L106.06 2.28Z" fill="rgba(119, 255, 3, 0.6823529411764706)"/><path d="M114.88 2.28L114.88 6.97L116.44 6.97L116.44 10.09L114.88 10.09L114.88 14.78L109.41 14.78L109.41 11.66L111.75 11.66L111.75 5.41L109.41 5.41L109.41 2.28L114.88 2.28Z" fill="rgba(119, 255, 3, 0.6823529411764706)"/><path d="M123.69 2.28L123.69 6.97L125.25 6.97L125.25 10.09L123.69 10.09L123.69 14.78L118.22 14.78L118.22 11.66L120.56 11.66L120.56 5.41L118.22 5.41L118.22 2.28L123.69 2.28Z" fill="rgba(119, 255, 3, 0.6823529411764706)"/><path d="M132.50 2.28L132.50 6.97L134.06 6.97L134.06 10.09L132.50 10.09L132.50 14.78L127.03 14.78L127.03 11.66L129.38 11.66L129.38 5.41L127.03 5.41L127.03 2.28L132.50 2.28Z" fill="rgba(119, 255, 3, 0.6823529411764706)"/><path d="M141.31 2.28L141.31 6.97L142.88 6.97L142.88 10.09L141.31 10.09L141.31 14.78L135.84 14.78L135.84 11.66L138.19 11.66L138.19 5.41L135.84 5.41L135.84 2.28L141.31 2.28Z" fill="rgba(119, 255, 3, 0.6823529411764706)"/><path d="M150.13 2.28L150.13 6.97L151.69 6.97L151.69 10.09L150.13 10.09L150.13 14.78L144.66 14.78L144.66 11.66L147 11.66L147 5.41L144.66 5.41L144.66 2.28L150.13 2.28Z" fill="rgba(119, 255, 3, 0.6823529411764706)"/><path d="M158.94 2.28L158.94 6.97L160.50 6.97L160.50 10.09L158.94 10.09L158.94 14.78L153.47 14.78L153.47 11.66L155.81 11.66L155.81 5.41L153.47 5.41L153.47 2.28L158.94 2.28Z" fill="rgba(119, 255, 3, 0.6823529411764706)"/><path d="M167.75 2.28L167.75 6.97L169.31 6.97L169.31 10.09L167.75 10.09L167.75 14.78L162.28 14.78L162.28 11.66L164.63 11.66L164.63 5.41L162.28 5.41L162.28 2.28L167.75 2.28Z" fill="rgba(119, 255, 3, 0.6823529411764706)"/><path d="M176.56 2.28L176.56 6.97L178.13 6.97L178.13 10.09L176.56 10.09L176.56 14.78L171.09 14.78L171.09 11.66L173.44 11.66L173.44 5.41L171.09 5.41L171.09 2.28L176.56 2.28Z" fill="rgba(119, 255, 3, 0.6823529411764706)"/><path d="M185.38 2.28L185.38 6.97L186.94 6.97L186.94 10.09L185.38 10.09L185.38 14.78L179.91 14.78L179.91 11.66L182.25 11.66L182.25 5.41L179.91 5.41L179.91 2.28L185.38 2.28Z" fill="rgba(118, 255, 6, 0.1607843137254902)"/><path d="M194.19 2.28L194.19 6.97L195.75 6.97L195.75 10.09L194.19 10.09L194.19 14.78L188.72 14.78L188.72 11.66L191.06 11.66L191.06 5.41L188.72 5.41L188.72 2.28L194.19 2.28Z" fill="rgba(118, 255, 6, 0.1607843137254902)"/><path d="M203 2.28L203 6.97L204.56 6.97L204.56 10.09L203 10.09L203 14.78L197.53 14.78L197.53 11.66L199.88 11.66L199.88 5.41L197.53 5.41L197.53 2.28L203 2.28Z" fill="rgba(0, 0, 0, 0)"/><path d="M9.13 16.28L9.13 20.97L10.69 20.97L10.69 24.09L9.13 24.09L9.13 28.78L3.66 28.78L3.66 25.66L6 25.66L6 19.41L3.66 19.41L3.66 16.28L9.13 16.28Z" fill="rgba(0, 0, 0, 0)"/><path d="M17.94 16.28L17.94 20.97L19.50 20.97L19.50 24.09L17.94 24.09L17.94 28.78L12.47 28.78L12.47 25.66L14.81 25.66L14.81 19.41L12.47 19.41L12.47 16.28L17.94 16.28Z" fill="rgba(0, 0, 0, 0)"/><path d="M26.75 16.28L26.75 20.97L28.31 20.97L28.31 24.09L26.75 24.09L26.75 28.78L21.28 28.78L21.28 25.66L23.63 25.66L23.63 19.41L21.28 19.41L21.28 16.28L26.75 16.28Z" fill="rgba(0, 0, 0, 0)"/><path d="M35.56 16.28L35.56 20.97L37.13 20.97L37.13 24.09L35.56 24.09L35.56 28.78L30.09 28.78L30.09 25.66L32.44 25.66L32.44 19.41L30.09 19.41L30.09 16.28L35.56 16.28Z" fill="rgba(0, 0, 0, 0)"/><path d="M44.38 16.28L44.38 20.97L45.94 20.97L45.94 24.09L44.38 24.09L44.38 28.78L38.91 28.78L38.91 25.66L41.25 25.66L41.25 19.41L38.91 19.41L38.91 16.28L44.38 16.28Z" fill="rgba(0, 0, 0, 0)"/><path d="M53.19 16.28L53.19 20.97L54.75 20.97L54.75 24.09L53.19 24.09L53.19 28.78L47.72 28.78L47.72 25.66L50.06 25.66L50.06 19.41L47.72 19.41L47.72 16.28L53.19 16.28Z" fill="rgba(0, 0, 0, 0)"/><path d="M62 16.28L62 20.97L63.56 20.97L63.56 24.09L62 24.09L62 28.78L56.53 28.78L56.53 25.66L58.88 25.66L58.88 19.41L56.53 19.41L56.53 16.28L62 16.28Z" fill="rgba(0, 0, 0, 0)"/><path d="M70.81 16.28L70.81 20.97L72.38 20.97L72.38 24.09L70.81 24.09L70.81 28.78L65.34 28.78L65.34 25.66L67.69 25.66L67.69 19.41L65.34 19.41L65.34 16.28L70.81 16.28Z" fill="rgba(118, 255, 3, 1)"/><path d="M79.63 16.28L79.63 20.97L81.19 20.97L81.19 24.09L79.63 24.09L79.63 28.78L74.16 28.78L74.16 25.66L76.50 25.66L76.50 19.41L74.16 19.41L74.16 16.28L79.63 16.28Z" fill="rgba(118, 255, 3, 1)"/><path d="M88.44 16.28L88.44 20.97L90 20.97L90 24.09L88.44 24.09L88.44 28.78L82.97 28.78L82.97 25.66L85.31 25.66L85.31 19.41L82.97 19.41L82.97 16.28L88.44 16.28Z" fill="rgba(123, 254, 12, 1)"/><path d="M97.25 16.28L97.25 20.97L98.81 20.97L98.81 24.09L97.25 24.09L97.25 28.78L91.78 28.78L91.78 25.66L94.13 25.66L94.13 19.41L91.78 19.41L91.78 16.28L97.25 16.28Z" fill="rgba(140, 250, 48, 1)"/><path d="M106.06 16.28L106.06 20.97L107.63 20.97L107.63 24.09L106.06 24.09L106.06 28.78L100.59 28.78L100.59 25.66L102.94 25.66L102.94 19.41L100.59 19.41L100.59 16.28L106.06 16.28Z" fill="rgba(140, 250, 48, 1)"/><path d="M114.88 16.28L114.88 20.97L116.44 20.97L116.44 24.09L114.88 24.09L114.88 28.78L109.41 28.78L109.41 25.66L111.75 25.66L111.75 19.41L109.41 19.41L109.41 16.28L114.88 16.28Z" fill="rgba(140, 250, 48, 1)"/><path d="M123.69 16.28L123.69 20.97L125.25 20.97L125.25 24.09L123.69 24.09L123.69 28.78L118.22 28.78L118.22 25.66L120.56 25.66L120.56 19.41L118.22 19.41L118.22 16.28L123.69 16.28Z" fill="rgba(140, 250, 48, 1)"/><path d="M132.50 16.28L132.50 20.97L134.06 20.97L134.06 24.09L132.50 24.09L132.50 28.78L127.03 28.78L127.03 25.66L129.38 25.66L129.38 19.41L127.03 19.41L127.03 16.28L132.50 16.28Z" fill="rgba(140, 250, 48, 1)"/><path d="M141.31 16.28L141.31 20.97L142.88 20.97L142.88 24.09L141.31 24.09L141.31 28.78L135.84 28.78L135.84 25.66L138.19 25.66L138.19 19.41L135.84 19.41L135.84 16.28L141.31 16.28Z" fill="rgba(140, 250, 48, 1)"/><path d="M150.13 16.28L150.13 20.97L151.69 20.97L151.69 24.09L150.13 24.09L150.13 28.78L144.66 28.78L144.66 25.66L147 25.66L147 19.41L144.66 19.41L144.66 16.28L150.13 16.28Z" fill="rgba(140, 250, 48, 1)"/><path d="M158.94 16.28L158.94 20.97L160.50 20.97L160.50 24.09L158.94 24.09L158.94 28.78L153.47 28.78L153.47 25.66L155.81 25.66L155.81 19.41L153.47 19.41L153.47 16.28L158.94 16.28Z" fill="rgba(140, 250, 48, 1)"/><path d="M167.75 16.28L167.75 20.97L169.31 20.97L169.31 24.09L167.75 24.09L167.75 28.78L162.28 28.78L162.28 25.66L164.63 25.66L164.63 19.41L162.28 19.41L162.28 16.28L167.75 16.28Z" fill="rgba(122, 254, 11, 1)"/><path d="M176.56 16.28L176.56 20.97L178.13 20.97L178.13 24.09L176.56 24.09L176.56 28.78L171.09 28.78L171.09 25.66L173.44 25.66L173.44 19.41L171.09 19.41L171.09 16.28L176.56 16.28Z" fill="rgba(122, 254, 11, 1)"/><path d="M185.38 16.28L185.38 20.97L186.94 20.97L186.94 24.09L185.38 24.09L185.38 28.78L179.91 28.78L179.91 25.66L182.25 25.66L182.25 19.41L179.91 19.41L179.91 16.28L185.38 16.28Z" fill="rgba(118, 255, 3, 1)"/><path d="M194.19 16.28L194.19 20.97L195.75 20.97L195.75 24.09L194.19 24.09L194.19 28.78L188.72 28.78L188.72 25.66L191.06 25.66L191.06 19.41L188.72 19.41L188.72 16.28L194.19 16.28Z" fill="rgba(118, 255, 3, 1)"/><path d="M203 16.28L203 20.97L204.56 20.97L204.56 24.09L203 24.09L203 28.78L197.53 28.78L197.53 25.66L199.88 25.66L199.88 19.41L197.53 19.41L197.53 16.28L203 16.28Z" fill="rgba(0, 0, 0, 0)"/><path d="M9.13 30.28L9.13 34.97L10.69 34.97L10.69 38.09L9.13 38.09L9.13 42.78L3.66 42.78L3.66 39.66L6 39.66L6 33.41L3.66 33.41L3.66 30.28L9.13 30.28Z" fill="rgba(0, 0, 0, 0)"/><path d="M17.94 30.28L17.94 34.97L19.50 34.97L19.50 38.09L17.94 38.09L17.94 42.78L12.47 42.78L12.47 39.66L14.81 39.66L14.81 33.41L12.47 33.41L12.47 30.28L17.94 30.28Z" fill="rgba(0, 0, 0, 0)"/><path d="M26.75 30.28L26.75 34.97L28.31 34.97L28.31 38.09L26.75 38.09L26.75 42.78L21.28 42.78L21.28 39.66L23.63 39.66L23.63 33.41L21.28 33.41L21.28 30.28L26.75 30.28Z" fill="rgba(0, 0, 0, 0)"/><path d="M35.56 30.28L35.56 34.97L37.13 34.97L37.13 38.09L35.56 38.09L35.56 42.78L30.09 42.78L30.09 39.66L32.44 39.66L32.44 33.41L30.09 33.41L30.09 30.28L35.56 30.28Z" fill="rgba(0, 0, 0, 0)"/><path d="M44.38 30.28L44.38 34.97L45.94 34.97L45.94 38.09L44.38 38.09L44.38 42.78L38.91 42.78L38.91 39.66L41.25 39.66L41.25 33.41L38.91 33.41L38.91 30.28L44.38 30.28Z" fill="rgba(0, 0, 0, 0)"/><path d="M53.19 30.28L53.19 34.97L54.75 34.97L54.75 38.09L53.19 38.09L53.19 42.78L47.72 42.78L47.72 39.66L50.06 39.66L50.06 33.41L47.72 33.41L47.72 30.28L53.19 30.28Z" fill="rgba(0, 0, 0, 0)"/><path d="M62 30.28L62 34.97L63.56 34.97L63.56 38.09L62 38.09L62 42.78L56.53 42.78L56.53 39.66L58.88 39.66L58.88 33.41L56.53 33.41L56.53 30.28L62 30.28Z" fill="rgba(0, 0, 0, 0)"/><path d="M70.81 30.28L70.81 34.97L72.38 34.97L72.38 38.09L70.81 38.09L70.81 42.78L65.34 42.78L65.34 39.66L67.69 39.66L67.69 33.41L65.34 33.41L65.34 30.28L70.81 30.28Z" fill="rgba(118, 255, 3, 1)"/><path d="M79.63 30.28L79.63 34.97L81.19 34.97L81.19 38.09L79.63 38.09L79.63 42.78L74.16 42.78L74.16 39.66L76.50 39.66L76.50 33.41L74.16 33.41L74.16 30.28L79.63 30.28Z" fill="rgba(118, 255, 3, 1)"/><path d="M88.44 30.28L88.44 34.97L90 34.97L90 38.09L88.44 38.09L88.44 42.78L82.97 42.78L82.97 39.66L85.31 39.66L85.31 33.41L82.97 33.41L82.97 30.28L88.44 30.28Z" fill="rgba(163, 245, 94, 1)"/><path d="M97.25 30.28L97.25 34.97L98.81 34.97L98.81 38.09L97.25 38.09L97.25 42.78L91.78 42.78L91.78 39.66L94.13 39.66L94.13 33.41L91.78 33.41L91.78 30.28L97.25 30.28Z" fill="rgba(231, 231, 231, 1)"/><path d="M106.06 30.28L106.06 34.97L107.63 34.97L107.63 38.09L106.06 38.09L106.06 42.78L100.59 42.78L100.59 39.66L102.94 39.66L102.94 33.41L100.59 33.41L100.59 30.28L106.06 30.28Z" fill="rgba(231, 231, 231, 1)"/><path d="M114.88 30.28L114.88 34.97L116.44 34.97L116.44 38.09L114.88 38.09L114.88 42.78L109.41 42.78L109.41 39.66L111.75 39.66L111.75 33.41L109.41 33.41L109.41 30.28L114.88 30.28Z" fill="rgba(231, 231, 231, 1)"/><path d="M123.69 30.28L123.69 34.97L125.25 34.97L125.25 38.09L123.69 38.09L123.69 42.78L118.22 42.78L118.22 39.66L120.56 39.66L120.56 33.41L118.22 33.41L118.22 30.28L123.69 30.28Z" fill="rgba(231, 231, 231, 1)"/><path d="M132.50 30.28L132.50 34.97L134.06 34.97L134.06 38.09L132.50 38.09L132.50 42.78L127.03 42.78L127.03 39.66L129.38 39.66L129.38 33.41L127.03 33.41L127.03 30.28L132.50 30.28Z" fill="rgba(231, 231, 231, 1)"/><path d="M141.31 30.28L141.31 34.97L142.88 34.97L142.88 38.09L141.31 38.09L141.31 42.78L135.84 42.78L135.84 39.66L138.19 39.66L138.19 33.41L135.84 33.41L135.84 30.28L141.31 30.28Z" fill="rgba(231, 231, 231, 1)"/><path d="M150.13 30.28L150.13 34.97L151.69 34.97L151.69 38.09L150.13 38.09L150.13 42.78L144.66 42.78L144.66 39.66L147 39.66L147 33.41L144.66 33.41L144.66 30.28L150.13 30.28Z" fill="rgba(231, 231, 231, 1)"/><path d="M158.94 30.28L158.94 34.97L160.50 34.97L160.50 38.09L158.94 38.09L158.94 42.78L153.47 42.78L153.47 39.66L155.81 39.66L155.81 33.41L153.47 33.41L153.47 30.28L158.94 30.28Z" fill="rgba(231, 231, 231, 1)"/><path d="M167.75 30.28L167.75 34.97L169.31 34.97L169.31 38.09L167.75 38.09L167.75 42.78L162.28 42.78L162.28 39.66L164.63 39.66L164.63 33.41L162.28 33.41L162.28 30.28L167.75 30.28Z" fill="rgba(118, 255, 3, 1)"/><path d="M176.56 30.28L176.56 34.97L178.13 34.97L178.13 38.09L176.56 38.09L176.56 42.78L171.09 42.78L171.09 39.66L173.44 39.66L173.44 33.41L171.09 33.41L171.09 30.28L176.56 30.28Z" fill="rgba(118, 255, 3, 1)"/><path d="M185.38 30.28L185.38 34.97L186.94 34.97L186.94 38.09L185.38 38.09L185.38 42.78L179.91 42.78L179.91 39.66L182.25 39.66L182.25 33.41L179.91 33.41L179.91 30.28L185.38 30.28Z" fill="rgba(118, 255, 3, 1)"/><path d="M194.19 30.28L194.19 34.97L195.75 34.97L195.75 38.09L194.19 38.09L194.19 42.78L188.72 42.78L188.72 39.66L191.06 39.66L191.06 33.41L188.72 33.41L188.72 30.28L194.19 30.28Z" fill="rgba(118, 255, 3, 1)"/><path d="M203 30.28L203 34.97L204.56 34.97L204.56 38.09L203 38.09L203 42.78L197.53 42.78L197.53 39.66L199.88 39.66L199.88 33.41L197.53 33.41L197.53 30.28L203 30.28Z" fill="rgba(0, 0, 0, 0)"/><path d="M9.13 44.28L9.13 48.97L10.69 48.97L10.69 52.09L9.13 52.09L9.13 56.78L3.66 56.78L3.66 53.66L6 53.66L6 47.41L3.66 47.41L3.66 44.28L9.13 44.28Z" fill="rgba(0, 0, 0, 0)"/><path d="M17.94 44.28L17.94 48.97L19.50 48.97L19.50 52.09L17.94 52.09L17.94 56.78L12.47 56.78L12.47 53.66L14.81 53.66L14.81 47.41L12.47 47.41L12.47 44.28L17.94 44.28Z" fill="rgba(0, 0, 0, 0)"/><path d="M26.75 44.28L26.75 48.97L28.31 48.97L28.31 52.09L26.75 52.09L26.75 56.78L21.28 56.78L21.28 53.66L23.63 53.66L23.63 47.41L21.28 47.41L21.28 44.28L26.75 44.28Z" fill="rgba(0, 0, 0, 0)"/><path d="M35.56 44.28L35.56 48.97L37.13 48.97L37.13 52.09L35.56 52.09L35.56 56.78L30.09 56.78L30.09 53.66L32.44 53.66L32.44 47.41L30.09 47.41L30.09 44.28L35.56 44.28Z" fill="rgba(0, 0, 0, 0)"/><path d="M44.38 44.28L44.38 48.97L45.94 48.97L45.94 52.09L44.38 52.09L44.38 56.78L38.91 56.78L38.91 53.66L41.25 53.66L41.25 47.41L38.91 47.41L38.91 44.28L44.38 44.28Z" fill="rgba(0, 0, 0, 0)"/><path d="M53.19 44.28L53.19 48.97L54.75 48.97L54.75 52.09L53.19 52.09L53.19 56.78L47.72 56.78L47.72 53.66L50.06 53.66L50.06 47.41L47.72 47.41L47.72 44.28L53.19 44.28Z" fill="rgba(0, 0, 0, 0)"/><path d="M62 44.28L62 48.97L63.56 48.97L63.56 52.09L62 52.09L62 56.78L56.53 56.78L56.53 53.66L58.88 53.66L58.88 47.41L56.53 47.41L56.53 44.28L62 44.28Z" fill="rgba(118, 255, 4, 0.5333333333333333)"/><path d="M70.81 44.28L70.81 48.97L72.38 48.97L72.38 52.09L70.81 52.09L70.81 56.78L65.34 56.78L65.34 53.66L67.69 53.66L67.69 47.41L65.34 47.41L65.34 44.28L70.81 44.28Z" fill="rgba(118, 255, 3, 1)"/><path d="M79.63 44.28L79.63 48.97L81.19 48.97L81.19 52.09L79.63 52.09L79.63 56.78L74.16 56.78L74.16 53.66L76.50 53.66L76.50 47.41L74.16 47.41L74.16 44.28L79.63 44.28Z" fill="rgba(118, 255, 3, 1)"/><path d="M88.44 44.28L88.44 48.97L90 48.97L90 52.09L88.44 52.09L88.44 56.78L82.97 56.78L82.97 53.66L85.31 53.66L85.31 47.41L82.97 47.41L82.97 44.28L88.44 44.28Z" fill="rgba(231, 231, 231, 1)"/><path d="M97.25 44.28L97.25 48.97L98.81 48.97L98.81 52.09L97.25 52.09L97.25 56.78L91.78 56.78L91.78 53.66L94.13 53.66L94.13 47.41L91.78 47.41L91.78 44.28L97.25 44.28Z" fill="rgba(231, 231, 231, 1)"/><path d="M106.06 44.28L106.06 48.97L107.63 48.97L107.63 52.09L106.06 52.09L106.06 56.78L100.59 56.78L100.59 53.66L102.94 53.66L102.94 47.41L100.59 47.41L100.59 44.28L106.06 44.28Z" fill="rgba(231, 231, 231, 1)"/><path d="M114.88 44.28L114.88 48.97L116.44 48.97L116.44 52.09L114.88 52.09L114.88 56.78L109.41 56.78L109.41 53.66L111.75 53.66L111.75 47.41L109.41 47.41L109.41 44.28L114.88 44.28Z" fill="rgba(231, 231, 231, 1)"/><path d="M123.69 44.28L123.69 48.97L125.25 48.97L125.25 52.09L123.69 52.09L123.69 56.78L118.22 56.78L118.22 53.66L120.56 53.66L120.56 47.41L118.22 47.41L118.22 44.28L123.69 44.28Z" fill="rgba(231, 231, 231, 1)"/><path d="M132.50 44.28L132.50 48.97L134.06 48.97L134.06 52.09L132.50 52.09L132.50 56.78L127.03 56.78L127.03 53.66L129.38 53.66L129.38 47.41L127.03 47.41L127.03 44.28L132.50 44.28Z" fill="rgba(231, 231, 231, 1)"/><path d="M141.31 44.28L141.31 48.97L142.88 48.97L142.88 52.09L141.31 52.09L141.31 56.78L135.84 56.78L135.84 53.66L138.19 53.66L138.19 47.41L135.84 47.41L135.84 44.28L141.31 44.28Z" fill="rgba(231, 231, 231, 1)"/><path d="M150.13 44.28L150.13 48.97L151.69 48.97L151.69 52.09L150.13 52.09L150.13 56.78L144.66 56.78L144.66 53.66L147 53.66L147 47.41L144.66 47.41L144.66 44.28L150.13 44.28Z" fill="rgba(231, 231, 231, 1)"/><path d="M158.94 44.28L158.94 48.97L160.50 48.97L160.50 52.09L158.94 52.09L158.94 56.78L153.47 56.78L153.47 53.66L155.81 53.66L155.81 47.41L153.47 47.41L153.47 44.28L158.94 44.28Z" fill="rgba(231, 231, 231, 1)"/><path d="M167.75 44.28L167.75 48.97L169.31 48.97L169.31 52.09L167.75 52.09L167.75 56.78L162.28 56.78L162.28 53.66L164.63 53.66L164.63 47.41L162.28 47.41L162.28 44.28L167.75 44.28Z" fill="rgba(118, 255, 3, 1)"/><path d="M176.56 44.28L176.56 48.97L178.13 48.97L178.13 52.09L176.56 52.09L176.56 56.78L171.09 56.78L171.09 53.66L173.44 53.66L173.44 47.41L171.09 47.41L171.09 44.28L176.56 44.28Z" fill="rgba(118, 255, 3, 1)"/><path d="M185.38 44.28L185.38 48.97L186.94 48.97L186.94 52.09L185.38 52.09L185.38 56.78L179.91 56.78L179.91 53.66L182.25 53.66L182.25 47.41L179.91 47.41L179.91 44.28L185.38 44.28Z" fill="rgba(117, 255, 2, 0.4196078431372549)"/><path d="M194.19 44.28L194.19 48.97L195.75 48.97L195.75 52.09L194.19 52.09L194.19 56.78L188.72 56.78L188.72 53.66L191.06 53.66L191.06 47.41L188.72 47.41L188.72 44.28L194.19 44.28Z" fill="rgba(117, 255, 2, 0.4196078431372549)"/><path d="M203 44.28L203 48.97L204.56 48.97L204.56 52.09L203 52.09L203 56.78L197.53 56.78L197.53 53.66L199.88 53.66L199.88 47.41L197.53 47.41L197.53 44.28L203 44.28Z" fill="rgba(0, 0, 0, 0)"/><path d="M9.13 58.28L9.13 62.97L10.69 62.97L10.69 66.09L9.13 66.09L9.13 70.78L3.66 70.78L3.66 67.66L6 67.66L6 61.41L3.66 61.41L3.66 58.28L9.13 58.28Z" fill="rgba(0, 0, 0, 0)"/><path d="M17.94 58.28L17.94 62.97L19.50 62.97L19.50 66.09L17.94 66.09L17.94 70.78L12.47 70.78L12.47 67.66L14.81 67.66L14.81 61.41L12.47 61.41L12.47 58.28L17.94 58.28Z" fill="rgba(0, 0, 0, 0)"/><path d="M26.75 58.28L26.75 62.97L28.31 62.97L28.31 66.09L26.75 66.09L26.75 70.78L21.28 70.78L21.28 67.66L23.63 67.66L23.63 61.41L21.28 61.41L21.28 58.28L26.75 58.28Z" fill="rgba(0, 0, 0, 0)"/><path d="M35.56 58.28L35.56 62.97L37.13 62.97L37.13 66.09L35.56 66.09L35.56 70.78L30.09 70.78L30.09 67.66L32.44 67.66L32.44 61.41L30.09 61.41L30.09 58.28L35.56 58.28Z" fill="rgba(0, 0, 0, 0)"/><path d="M44.38 58.28L44.38 62.97L45.94 62.97L45.94 66.09L44.38 66.09L44.38 70.78L38.91 70.78L38.91 67.66L41.25 67.66L41.25 61.41L38.91 61.41L38.91 58.28L44.38 58.28Z" fill="rgba(0, 0, 0, 0)"/><path d="M53.19 58.28L53.19 62.97L54.75 62.97L54.75 66.09L53.19 66.09L53.19 70.78L47.72 70.78L47.72 67.66L50.06 67.66L50.06 61.41L47.72 61.41L47.72 58.28L53.19 58.28Z" fill="rgba(0, 0, 0, 0)"/><path d="M62 58.28L62 62.97L63.56 62.97L63.56 66.09L62 66.09L62 70.78L56.53 70.78L56.53 67.66L58.88 67.66L58.88 61.41L56.53 61.41L56.53 58.28L62 58.28Z" fill="rgba(118, 255, 3, 0.6)"/><path d="M70.81 58.28L70.81 62.97L72.38 62.97L72.38 66.09L70.81 66.09L70.81 70.78L65.34 70.78L65.34 67.66L67.69 67.66L67.69 61.41L65.34 61.41L65.34 58.28L70.81 58.28Z" fill="rgba(118, 255, 3, 1)"/><path d="M79.63 58.28L79.63 62.97L81.19 62.97L81.19 66.09L79.63 66.09L79.63 70.78L74.16 70.78L74.16 67.66L76.50 67.66L76.50 61.41L74.16 61.41L74.16 58.28L79.63 58.28Z" fill="rgba(118, 255, 3, 1)"/><path d="M88.44 58.28L88.44 62.97L90 62.97L90 66.09L88.44 66.09L88.44 70.78L82.97 70.78L82.97 67.66L85.31 67.66L85.31 61.41L82.97 61.41L82.97 58.28L88.44 58.28Z" fill="rgba(163, 245, 94, 1)"/><path d="M97.25 58.28L97.25 62.97L98.81 62.97L98.81 66.09L97.25 66.09L97.25 70.78L91.78 70.78L91.78 67.66L94.13 67.66L94.13 61.41L91.78 61.41L91.78 58.28L97.25 58.28Z" fill="rgba(163, 245, 94, 1)"/><path d="M106.06 58.28L106.06 62.97L107.63 62.97L107.63 66.09L106.06 66.09L106.06 70.78L100.59 70.78L100.59 67.66L102.94 67.66L102.94 61.41L100.59 61.41L100.59 58.28L106.06 58.28Z" fill="rgba(163, 245, 94, 1)"/><path d="M114.88 58.28L114.88 62.97L116.44 62.97L116.44 66.09L114.88 66.09L114.88 70.78L109.41 70.78L109.41 67.66L111.75 67.66L111.75 61.41L109.41 61.41L109.41 58.28L114.88 58.28Z" fill="rgba(231, 231, 231, 1)"/><path d="M123.69 58.28L123.69 62.97L125.25 62.97L125.25 66.09L123.69 66.09L123.69 70.78L118.22 70.78L118.22 67.66L120.56 67.66L120.56 61.41L118.22 61.41L118.22 58.28L123.69 58.28Z" fill="rgba(231, 231, 231, 1)"/><path d="M132.50 58.28L132.50 62.97L134.06 62.97L134.06 66.09L132.50 66.09L132.50 70.78L127.03 70.78L127.03 67.66L129.38 67.66L129.38 61.41L127.03 61.41L127.03 58.28L132.50 58.28Z" fill="rgba(231, 231, 231, 1)"/><path d="M141.31 58.28L141.31 62.97L142.88 62.97L142.88 66.09L141.31 66.09L141.31 70.78L135.84 70.78L135.84 67.66L138.19 67.66L138.19 61.41L135.84 61.41L135.84 58.28L141.31 58.28Z" fill="rgba(231, 231, 231, 1)"/><path d="M150.13 58.28L150.13 62.97L151.69 62.97L151.69 66.09L150.13 66.09L150.13 70.78L144.66 70.78L144.66 67.66L147 67.66L147 61.41L144.66 61.41L144.66 58.28L150.13 58.28Z" fill="rgba(231, 231, 231, 1)"/><path d="M158.94 58.28L158.94 62.97L160.50 62.97L160.50 66.09L158.94 66.09L158.94 70.78L153.47 70.78L153.47 67.66L155.81 67.66L155.81 61.41L153.47 61.41L153.47 58.28L158.94 58.28Z" fill="rgba(208, 236, 186, 1)"/><path d="M167.75 58.28L167.75 62.97L169.31 62.97L169.31 66.09L167.75 66.09L167.75 70.78L162.28 70.78L162.28 67.66L164.63 67.66L164.63 61.41L162.28 61.41L162.28 58.28L167.75 58.28Z" fill="rgba(118, 255, 3, 1)"/><path d="M176.56 58.28L176.56 62.97L178.13 62.97L178.13 66.09L176.56 66.09L176.56 70.78L171.09 70.78L171.09 67.66L173.44 67.66L173.44 61.41L171.09 61.41L171.09 58.28L176.56 58.28Z" fill="rgba(118, 255, 3, 1)"/><path d="M185.38 58.28L185.38 62.97L186.94 62.97L186.94 66.09L185.38 66.09L185.38 70.78L179.91 70.78L179.91 67.66L182.25 67.66L182.25 61.41L179.91 61.41L179.91 58.28L185.38 58.28Z" fill="rgba(120, 255, 5, 0.2)"/><path d="M194.19 58.28L194.19 62.97L195.75 62.97L195.75 66.09L194.19 66.09L194.19 70.78L188.72 70.78L188.72 67.66L191.06 67.66L191.06 61.41L188.72 61.41L188.72 58.28L194.19 58.28Z" fill="rgba(120, 255, 5, 0.2)"/><path d="M203 58.28L203 62.97L204.56 62.97L204.56 66.09L203 66.09L203 70.78L197.53 70.78L197.53 67.66L199.88 67.66L199.88 61.41L197.53 61.41L197.53 58.28L203 58.28Z" fill="rgba(0, 0, 0, 0)"/><path d="M9.13 72.28L9.13 76.97L10.69 76.97L10.69 80.09L9.13 80.09L9.13 84.78L3.66 84.78L3.66 81.66L6 81.66L6 75.41L3.66 75.41L3.66 72.28L9.13 72.28Z" fill="rgba(0, 0, 0, 0)"/><path d="M17.94 72.28L17.94 76.97L19.50 76.97L19.50 80.09L17.94 80.09L17.94 84.78L12.47 84.78L12.47 81.66L14.81 81.66L14.81 75.41L12.47 75.41L12.47 72.28L17.94 72.28Z" fill="rgba(0, 0, 0, 0)"/><path d="M26.75 72.28L26.75 76.97L28.31 76.97L28.31 80.09L26.75 80.09L26.75 84.78L21.28 84.78L21.28 81.66L23.63 81.66L23.63 75.41L21.28 75.41L21.28 72.28L26.75 72.28Z" fill="rgba(0, 0, 0, 0)"/><path d="M35.56 72.28L35.56 76.97L37.13 76.97L37.13 80.09L35.56 80.09L35.56 84.78L30.09 84.78L30.09 81.66L32.44 81.66L32.44 75.41L30.09 75.41L30.09 72.28L35.56 72.28Z" fill="rgba(0, 0, 0, 0)"/><path d="M44.38 72.28L44.38 76.97L45.94 76.97L45.94 80.09L44.38 80.09L44.38 84.78L38.91 84.78L38.91 81.66L41.25 81.66L41.25 75.41L38.91 75.41L38.91 72.28L44.38 72.28Z" fill="rgba(0, 0, 0, 0)"/><path d="M53.19 72.28L53.19 76.97L54.75 76.97L54.75 80.09L53.19 80.09L53.19 84.78L47.72 84.78L47.72 81.66L50.06 81.66L50.06 75.41L47.72 75.41L47.72 72.28L53.19 72.28Z" fill="rgba(0, 0, 0, 0)"/><path d="M62 72.28L62 76.97L63.56 76.97L63.56 80.09L62 80.09L62 84.78L56.53 84.78L56.53 81.66L58.88 81.66L58.88 75.41L56.53 75.41L56.53 72.28L62 72.28Z" fill="rgba(118, 255, 3, 0.9803921568627451)"/><path d="M70.81 72.28L70.81 76.97L72.38 76.97L72.38 80.09L70.81 80.09L70.81 84.78L65.34 84.78L65.34 81.66L67.69 81.66L67.69 75.41L65.34 75.41L65.34 72.28L70.81 72.28Z" fill="rgba(118, 255, 3, 1)"/><path d="M79.63 72.28L79.63 76.97L81.19 76.97L81.19 80.09L79.63 80.09L79.63 84.78L74.16 84.78L74.16 81.66L76.50 81.66L76.50 75.41L74.16 75.41L74.16 72.28L79.63 72.28Z" fill="rgba(118, 255, 3, 1)"/><path d="M88.44 72.28L88.44 76.97L90 76.97L90 80.09L88.44 80.09L88.44 84.78L82.97 84.78L82.97 81.66L85.31 81.66L85.31 75.41L82.97 75.41L82.97 72.28L88.44 72.28Z" fill="rgba(118, 255, 3, 1)"/><path d="M97.25 72.28L97.25 76.97L98.81 76.97L98.81 80.09L97.25 80.09L97.25 84.78L91.78 84.78L91.78 81.66L94.13 81.66L94.13 75.41L91.78 75.41L91.78 72.28L97.25 72.28Z" fill="rgba(171, 244, 111, 1)"/><path d="M106.06 72.28L106.06 76.97L107.63 76.97L107.63 80.09L106.06 80.09L106.06 84.78L100.59 84.78L100.59 81.66L102.94 81.66L102.94 75.41L100.59 75.41L100.59 72.28L106.06 72.28Z" fill="rgba(171, 244, 111, 1)"/><path d="M114.88 72.28L114.88 76.97L116.44 76.97L116.44 80.09L114.88 80.09L114.88 84.78L109.41 84.78L109.41 81.66L111.75 81.66L111.75 75.41L109.41 75.41L109.41 72.28L114.88 72.28Z" fill="rgba(231, 231, 231, 1)"/><path d="M123.69 72.28L123.69 76.97L125.25 76.97L125.25 80.09L123.69 80.09L123.69 84.78L118.22 84.78L118.22 81.66L120.56 81.66L120.56 75.41L118.22 75.41L118.22 72.28L123.69 72.28Z" fill="rgba(231, 231, 231, 1)"/><path d="M132.50 72.28L132.50 76.97L134.06 76.97L134.06 80.09L132.50 80.09L132.50 84.78L127.03 84.78L127.03 81.66L129.38 81.66L129.38 75.41L127.03 75.41L127.03 72.28L132.50 72.28Z" fill="rgba(231, 231, 231, 1)"/><path d="M141.31 72.28L141.31 76.97L142.88 76.97L142.88 80.09L141.31 80.09L141.31 84.78L135.84 84.78L135.84 81.66L138.19 81.66L138.19 75.41L135.84 75.41L135.84 72.28L141.31 72.28Z" fill="rgba(231, 231, 231, 1)"/><path d="M150.13 72.28L150.13 76.97L151.69 76.97L151.69 80.09L150.13 80.09L150.13 84.78L144.66 84.78L144.66 81.66L147 81.66L147 75.41L144.66 75.41L144.66 72.28L150.13 72.28Z" fill="rgba(231, 231, 231, 1)"/><path d="M158.94 72.28L158.94 76.97L160.50 76.97L160.50 80.09L158.94 80.09L158.94 84.78L153.47 84.78L153.47 81.66L155.81 81.66L155.81 75.41L153.47 75.41L153.47 72.28L158.94 72.28Z" fill="rgba(197, 238, 163, 1)"/><path d="M167.75 72.28L167.75 76.97L169.31 76.97L169.31 80.09L167.75 80.09L167.75 84.78L162.28 84.78L162.28 81.66L164.63 81.66L164.63 75.41L162.28 75.41L162.28 72.28L167.75 72.28Z" fill="rgba(118, 255, 3, 1)"/><path d="M176.56 72.28L176.56 76.97L178.13 76.97L178.13 80.09L176.56 80.09L176.56 84.78L171.09 84.78L171.09 81.66L173.44 81.66L173.44 75.41L171.09 75.41L171.09 72.28L176.56 72.28Z" fill="rgba(118, 255, 3, 1)"/><path d="M185.38 72.28L185.38 76.97L186.94 76.97L186.94 80.09L185.38 80.09L185.38 84.78L179.91 84.78L179.91 81.66L182.25 81.66L182.25 75.41L179.91 75.41L179.91 72.28L185.38 72.28Z" fill="rgba(119, 255, 0, 0.11764705882352941)"/><path d="M194.19 72.28L194.19 76.97L195.75 76.97L195.75 80.09L194.19 80.09L194.19 84.78L188.72 84.78L188.72 81.66L191.06 81.66L191.06 75.41L188.72 75.41L188.72 72.28L194.19 72.28Z" fill="rgba(119, 255, 0, 0.11764705882352941)"/><path d="M203 72.28L203 76.97L204.56 76.97L204.56 80.09L203 80.09L203 84.78L197.53 84.78L197.53 81.66L199.88 81.66L199.88 75.41L197.53 75.41L197.53 72.28L203 72.28Z" fill="rgba(0, 0, 0, 0)"/><path d="M9.13 86.28L9.13 90.97L10.69 90.97L10.69 94.09L9.13 94.09L9.13 98.78L3.66 98.78L3.66 95.66L6 95.66L6 89.41L3.66 89.41L3.66 86.28L9.13 86.28Z" fill="rgba(0, 0, 0, 0)"/><path d="M17.94 86.28L17.94 90.97L19.50 90.97L19.50 94.09L17.94 94.09L17.94 98.78L12.47 98.78L12.47 95.66L14.81 95.66L14.81 89.41L12.47 89.41L12.47 86.28L17.94 86.28Z" fill="rgba(0, 0, 0, 0)"/><path d="M26.75 86.28L26.75 90.97L28.31 90.97L28.31 94.09L26.75 94.09L26.75 98.78L21.28 98.78L21.28 95.66L23.63 95.66L23.63 89.41L21.28 89.41L21.28 86.28L26.75 86.28Z" fill="rgba(0, 0, 0, 0)"/><path d="M35.56 86.28L35.56 90.97L37.13 90.97L37.13 94.09L35.56 94.09L35.56 98.78L30.09 98.78L30.09 95.66L32.44 95.66L32.44 89.41L30.09 89.41L30.09 86.28L35.56 86.28Z" fill="rgba(0, 0, 0, 0)"/><path d="M44.38 86.28L44.38 90.97L45.94 90.97L45.94 94.09L44.38 94.09L44.38 98.78L38.91 98.78L38.91 95.66L41.25 95.66L41.25 89.41L38.91 89.41L38.91 86.28L44.38 86.28Z" fill="rgba(0, 0, 0, 0)"/><path d="M53.19 86.28L53.19 90.97L54.75 90.97L54.75 94.09L53.19 94.09L53.19 98.78L47.72 98.78L47.72 95.66L50.06 95.66L50.06 89.41L47.72 89.41L47.72 86.28L53.19 86.28Z" fill="rgba(0, 0, 0, 0)"/><path d="M62 86.28L62 90.97L63.56 90.97L63.56 94.09L62 94.09L62 98.78L56.53 98.78L56.53 95.66L58.88 95.66L58.88 89.41L56.53 89.41L56.53 86.28L62 86.28Z" fill="rgba(0, 0, 0, 0)"/><path d="M70.81 86.28L70.81 90.97L72.38 90.97L72.38 94.09L70.81 94.09L70.81 98.78L65.34 98.78L65.34 95.66L67.69 95.66L67.69 89.41L65.34 89.41L65.34 86.28L70.81 86.28Z" fill="rgba(117, 255, 2, 0.4)"/><path d="M79.63 86.28L79.63 90.97L81.19 90.97L81.19 94.09L79.63 94.09L79.63 98.78L74.16 98.78L74.16 95.66L76.50 95.66L76.50 89.41L74.16 89.41L74.16 86.28L79.63 86.28Z" fill="rgba(117, 255, 2, 0.4)"/><path d="M88.44 86.28L88.44 90.97L90 90.97L90 94.09L88.44 94.09L88.44 98.78L82.97 98.78L82.97 95.66L85.31 95.66L85.31 89.41L82.97 89.41L82.97 86.28L88.44 86.28Z" fill="rgba(118, 255, 3, 1)"/><path d="M97.25 86.28L97.25 90.97L98.81 90.97L98.81 94.09L97.25 94.09L97.25 98.78L91.78 98.78L91.78 95.66L94.13 95.66L94.13 89.41L91.78 89.41L91.78 86.28L97.25 86.28Z" fill="rgba(231, 231, 231, 1)"/><path d="M106.06 86.28L106.06 90.97L107.63 90.97L107.63 94.09L106.06 94.09L106.06 98.78L100.59 98.78L100.59 95.66L102.94 95.66L102.94 89.41L100.59 89.41L100.59 86.28L106.06 86.28Z" fill="rgba(231, 231, 231, 1)"/><path d="M114.88 86.28L114.88 90.97L116.44 90.97L116.44 94.09L114.88 94.09L114.88 98.78L109.41 98.78L109.41 95.66L111.75 95.66L111.75 89.41L109.41 89.41L109.41 86.28L114.88 86.28Z" fill="rgba(231, 231, 231, 1)"/><path d="M123.69 86.28L123.69 90.97L125.25 90.97L125.25 94.09L123.69 94.09L123.69 98.78L118.22 98.78L118.22 95.66L120.56 95.66L120.56 89.41L118.22 89.41L118.22 86.28L123.69 86.28Z" fill="rgba(231, 231, 231, 1)"/><path d="M132.50 86.28L132.50 90.97L134.06 90.97L134.06 94.09L132.50 94.09L132.50 98.78L127.03 98.78L127.03 95.66L129.38 95.66L129.38 89.41L127.03 89.41L127.03 86.28L132.50 86.28Z" fill="rgba(231, 231, 231, 1)"/><path d="M141.31 86.28L141.31 90.97L142.88 90.97L142.88 94.09L141.31 94.09L141.31 98.78L135.84 98.78L135.84 95.66L138.19 95.66L138.19 89.41L135.84 89.41L135.84 86.28L141.31 86.28Z" fill="rgba(231, 231, 231, 1)"/><path d="M150.13 86.28L150.13 90.97L151.69 90.97L151.69 94.09L150.13 94.09L150.13 98.78L144.66 98.78L144.66 95.66L147 95.66L147 89.41L144.66 89.41L144.66 86.28L150.13 86.28Z" fill="rgba(231, 231, 231, 1)"/><path d="M158.94 86.28L158.94 90.97L160.50 90.97L160.50 94.09L158.94 94.09L158.94 98.78L153.47 98.78L153.47 95.66L155.81 95.66L155.81 89.41L153.47 89.41L153.47 86.28L158.94 86.28Z" fill="rgba(118, 255, 3, 1)"/><path d="M167.75 86.28L167.75 90.97L169.31 90.97L169.31 94.09L167.75 94.09L167.75 98.78L162.28 98.78L162.28 95.66L164.63 95.66L164.63 89.41L162.28 89.41L162.28 86.28L167.75 86.28Z" fill="rgba(118, 255, 3, 1)"/><path d="M176.56 86.28L176.56 90.97L178.13 90.97L178.13 94.09L176.56 94.09L176.56 98.78L171.09 98.78L171.09 95.66L173.44 95.66L173.44 89.41L171.09 89.41L171.09 86.28L176.56 86.28Z" fill="rgba(118, 255, 3, 1)"/><path d="M185.38 86.28L185.38 90.97L186.94 90.97L186.94 94.09L185.38 94.09L185.38 98.78L179.91 98.78L179.91 95.66L182.25 95.66L182.25 89.41L179.91 89.41L179.91 86.28L185.38 86.28Z" fill="rgba(0, 0, 0, 0)"/><path d="M194.19 86.28L194.19 90.97L195.75 90.97L195.75 94.09L194.19 94.09L194.19 98.78L188.72 98.78L188.72 95.66L191.06 95.66L191.06 89.41L188.72 89.41L188.72 86.28L194.19 86.28Z" fill="rgba(0, 0, 0, 0)"/><path d="M203 86.28L203 90.97L204.56 90.97L204.56 94.09L203 94.09L203 98.78L197.53 98.78L197.53 95.66L199.88 95.66L199.88 89.41L197.53 89.41L197.53 86.28L203 86.28Z" fill="rgba(0, 0, 0, 0)"/><path d="M9.13 100.28L9.13 104.97L10.69 104.97L10.69 108.09L9.13 108.09L9.13 112.78L3.66 112.78L3.66 109.66L6 109.66L6 103.41L3.66 103.41L3.66 100.28L9.13 100.28Z" fill="rgba(0, 0, 0, 0)"/><path d="M17.94 100.28L17.94 104.97L19.50 104.97L19.50 108.09L17.94 108.09L17.94 112.78L12.47 112.78L12.47 109.66L14.81 109.66L14.81 103.41L12.47 103.41L12.47 100.28L17.94 100.28Z" fill="rgba(0, 0, 0, 0)"/><path d="M26.75 100.28L26.75 104.97L28.31 104.97L28.31 108.09L26.75 108.09L26.75 112.78L21.28 112.78L21.28 109.66L23.63 109.66L23.63 103.41L21.28 103.41L21.28 100.28L26.75 100.28Z" fill="rgba(0, 0, 0, 0)"/><path d="M35.56 100.28L35.56 104.97L37.13 104.97L37.13 108.09L35.56 108.09L35.56 112.78L30.09 112.78L30.09 109.66L32.44 109.66L32.44 103.41L30.09 103.41L30.09 100.28L35.56 100.28Z" fill="rgba(0, 0, 0, 0)"/><path d="M44.38 100.28L44.38 104.97L45.94 104.97L45.94 108.09L44.38 108.09L44.38 112.78L38.91 112.78L38.91 109.66L41.25 109.66L41.25 103.41L38.91 103.41L38.91 100.28L44.38 100.28Z" fill="rgba(0, 0, 0, 0)"/><path d="M53.19 100.28L53.19 104.97L54.75 104.97L54.75 108.09L53.19 108.09L53.19 112.78L47.72 112.78L47.72 109.66L50.06 109.66L50.06 103.41L47.72 103.41L47.72 100.28L53.19 100.28Z" fill="rgba(0, 0, 0, 0)"/><path d="M62 100.28L62 104.97L63.56 104.97L63.56 108.09L62 108.09L62 112.78L56.53 112.78L56.53 109.66L58.88 109.66L58.88 103.41L56.53 103.41L56.53 100.28L62 100.28Z" fill="rgba(0, 0, 0, 0)"/><path d="M70.81 100.28L70.81 104.97L72.38 104.97L72.38 108.09L70.81 108.09L70.81 112.78L65.34 112.78L65.34 109.66L67.69 109.66L67.69 103.41L65.34 103.41L65.34 100.28L70.81 100.28Z" fill="rgba(117, 255, 2, 0.4)"/><path d="M79.63 100.28L79.63 104.97L81.19 104.97L81.19 108.09L79.63 108.09L79.63 112.78L74.16 112.78L74.16 109.66L76.50 109.66L76.50 103.41L74.16 103.41L74.16 100.28L79.63 100.28Z" fill="rgba(117, 255, 2, 0.4)"/><path d="M88.44 100.28L88.44 104.97L90 104.97L90 108.09L88.44 108.09L88.44 112.78L82.97 112.78L82.97 109.66L85.31 109.66L85.31 103.41L82.97 103.41L82.97 100.28L88.44 100.28Z" fill="rgba(128, 253, 23, 1)"/><path d="M97.25 100.28L97.25 104.97L98.81 104.97L98.81 108.09L97.25 108.09L97.25 112.78L91.78 112.78L91.78 109.66L94.13 109.66L94.13 103.41L91.78 103.41L91.78 100.28L97.25 100.28Z" fill="rgba(231, 231, 231, 1)"/><path d="M106.06 100.28L106.06 104.97L107.63 104.97L107.63 108.09L106.06 108.09L106.06 112.78L100.59 112.78L100.59 109.66L102.94 109.66L102.94 103.41L100.59 103.41L100.59 100.28L106.06 100.28Z" fill="rgba(231, 231, 231, 1)"/><path d="M114.88 100.28L114.88 104.97L116.44 104.97L116.44 108.09L114.88 108.09L114.88 112.78L109.41 112.78L109.41 109.66L111.75 109.66L111.75 103.41L109.41 103.41L109.41 100.28L114.88 100.28Z" fill="rgba(231, 231, 231, 1)"/><path d="M123.69 100.28L123.69 104.97L125.25 104.97L125.25 108.09L123.69 108.09L123.69 112.78L118.22 112.78L118.22 109.66L120.56 109.66L120.56 103.41L118.22 103.41L118.22 100.28L123.69 100.28Z" fill="rgba(231, 231, 231, 1)"/><path d="M132.50 100.28L132.50 104.97L134.06 104.97L134.06 108.09L132.50 108.09L132.50 112.78L127.03 112.78L127.03 109.66L129.38 109.66L129.38 103.41L127.03 103.41L127.03 100.28L132.50 100.28Z" fill="rgba(231, 231, 231, 1)"/><path d="M141.31 100.28L141.31 104.97L142.88 104.97L142.88 108.09L141.31 108.09L141.31 112.78L135.84 112.78L135.84 109.66L138.19 109.66L138.19 103.41L135.84 103.41L135.84 100.28L141.31 100.28Z" fill="rgba(231, 231, 231, 1)"/><path d="M150.13 100.28L150.13 104.97L151.69 104.97L151.69 108.09L150.13 108.09L150.13 112.78L144.66 112.78L144.66 109.66L147 109.66L147 103.41L144.66 103.41L144.66 100.28L150.13 100.28Z" fill="rgba(231, 231, 231, 1)"/><path d="M158.94 100.28L158.94 104.97L160.50 104.97L160.50 108.09L158.94 108.09L158.94 112.78L153.47 112.78L153.47 109.66L155.81 109.66L155.81 103.41L153.47 103.41L153.47 100.28L158.94 100.28Z" fill="rgba(118, 255, 3, 1)"/><path d="M167.75 100.28L167.75 104.97L169.31 104.97L169.31 108.09L167.75 108.09L167.75 112.78L162.28 112.78L162.28 109.66L164.63 109.66L164.63 103.41L162.28 103.41L162.28 100.28L167.75 100.28Z" fill="rgba(119, 255, 4, 0.5215686274509804)"/><path d="M176.56 100.28L176.56 104.97L178.13 104.97L178.13 108.09L176.56 108.09L176.56 112.78L171.09 112.78L171.09 109.66L173.44 109.66L173.44 103.41L171.09 103.41L171.09 100.28L176.56 100.28Z" fill="rgba(119, 255, 4, 0.5215686274509804)"/><path d="M185.38 100.28L185.38 104.97L186.94 104.97L186.94 108.09L185.38 108.09L185.38 112.78L179.91 112.78L179.91 109.66L182.25 109.66L182.25 103.41L179.91 103.41L179.91 100.28L185.38 100.28Z" fill="rgba(0, 0, 0, 0)"/><path d="M194.19 100.28L194.19 104.97L195.75 104.97L195.75 108.09L194.19 108.09L194.19 112.78L188.72 112.78L188.72 109.66L191.06 109.66L191.06 103.41L188.72 103.41L188.72 100.28L194.19 100.28Z" fill="rgba(0, 0, 0, 0)"/><path d="M203 100.28L203 104.97L204.56 104.97L204.56 108.09L203 108.09L203 112.78L197.53 112.78L197.53 109.66L199.88 109.66L199.88 103.41L197.53 103.41L197.53 100.28L203 100.28Z" fill="rgba(0, 0, 0, 0)"/><path d="M9.13 114.28L9.13 118.97L10.69 118.97L10.69 122.09L9.13 122.09L9.13 126.78L3.66 126.78L3.66 123.66L6 123.66L6 117.41L3.66 117.41L3.66 114.28L9.13 114.28Z" fill="rgba(0, 0, 0, 0)"/><path d="M17.94 114.28L17.94 118.97L19.50 118.97L19.50 122.09L17.94 122.09L17.94 126.78L12.47 126.78L12.47 123.66L14.81 123.66L14.81 117.41L12.47 117.41L12.47 114.28L17.94 114.28Z" fill="rgba(0, 0, 0, 0)"/><path d="M26.75 114.28L26.75 118.97L28.31 118.97L28.31 122.09L26.75 122.09L26.75 126.78L21.28 126.78L21.28 123.66L23.63 123.66L23.63 117.41L21.28 117.41L21.28 114.28L26.75 114.28Z" fill="rgba(0, 0, 0, 0)"/><path d="M35.56 114.28L35.56 118.97L37.13 118.97L37.13 122.09L35.56 122.09L35.56 126.78L30.09 126.78L30.09 123.66L32.44 123.66L32.44 117.41L30.09 117.41L30.09 114.28L35.56 114.28Z" fill="rgba(0, 0, 0, 0)"/><path d="M44.38 114.28L44.38 118.97L45.94 118.97L45.94 122.09L44.38 122.09L44.38 126.78L38.91 126.78L38.91 123.66L41.25 123.66L41.25 117.41L38.91 117.41L38.91 114.28L44.38 114.28Z" fill="rgba(0, 0, 0, 0)"/><path d="M53.19 114.28L53.19 118.97L54.75 118.97L54.75 122.09L53.19 122.09L53.19 126.78L47.72 126.78L47.72 123.66L50.06 123.66L50.06 117.41L47.72 117.41L47.72 114.28L53.19 114.28Z" fill="rgba(0, 0, 0, 0)"/><path d="M62 114.28L62 118.97L63.56 118.97L63.56 122.09L62 122.09L62 126.78L56.53 126.78L56.53 123.66L58.88 123.66L58.88 117.41L56.53 117.41L56.53 114.28L62 114.28Z" fill="rgba(0, 0, 0, 0)"/><path d="M70.81 114.28L70.81 118.97L72.38 118.97L72.38 122.09L70.81 122.09L70.81 126.78L65.34 126.78L65.34 123.66L67.69 123.66L67.69 117.41L65.34 117.41L65.34 114.28L70.81 114.28Z" fill="rgba(118, 255, 3, 0.9490196078431372)"/><path d="M79.63 114.28L79.63 118.97L81.19 118.97L81.19 122.09L79.63 122.09L79.63 126.78L74.16 126.78L74.16 123.66L76.50 123.66L76.50 117.41L74.16 117.41L74.16 114.28L79.63 114.28Z" fill="rgba(118, 255, 3, 0.9490196078431372)"/><path d="M88.44 114.28L88.44 118.97L90 118.97L90 122.09L88.44 122.09L88.44 126.78L82.97 126.78L82.97 123.66L85.31 123.66L85.31 117.41L82.97 117.41L82.97 114.28L88.44 114.28Z" fill="rgba(140, 250, 48, 1)"/><path d="M97.25 114.28L97.25 118.97L98.81 118.97L98.81 122.09L97.25 122.09L97.25 126.78L91.78 126.78L91.78 123.66L94.13 123.66L94.13 117.41L91.78 117.41L91.78 114.28L97.25 114.28Z" fill="rgba(231, 231, 231, 1)"/><path d="M106.06 114.28L106.06 118.97L107.63 118.97L107.63 122.09L106.06 122.09L106.06 126.78L100.59 126.78L100.59 123.66L102.94 123.66L102.94 117.41L100.59 117.41L100.59 114.28L106.06 114.28Z" fill="rgba(231, 231, 231, 1)"/><path d="M114.88 114.28L114.88 118.97L116.44 118.97L116.44 122.09L114.88 122.09L114.88 126.78L109.41 126.78L109.41 123.66L111.75 123.66L111.75 117.41L109.41 117.41L109.41 114.28L114.88 114.28Z" fill="rgba(231, 231, 231, 1)"/><path d="M123.69 114.28L123.69 118.97L125.25 118.97L125.25 122.09L123.69 122.09L123.69 126.78L118.22 126.78L118.22 123.66L120.56 123.66L120.56 117.41L118.22 117.41L118.22 114.28L123.69 114.28Z" fill="rgba(231, 231, 231, 1)"/><path d="M132.50 114.28L132.50 118.97L134.06 118.97L134.06 122.09L132.50 122.09L132.50 126.78L127.03 126.78L127.03 123.66L129.38 123.66L129.38 117.41L127.03 117.41L127.03 114.28L132.50 114.28Z" fill="rgba(231, 231, 231, 1)"/><path d="M141.31 114.28L141.31 118.97L142.88 118.97L142.88 122.09L141.31 122.09L141.31 126.78L135.84 126.78L135.84 123.66L138.19 123.66L138.19 117.41L135.84 117.41L135.84 114.28L141.31 114.28Z" fill="rgba(188, 240, 145, 1)"/><path d="M150.13 114.28L150.13 118.97L151.69 118.97L151.69 122.09L150.13 122.09L150.13 126.78L144.66 126.78L144.66 123.66L147 123.66L147 117.41L144.66 117.41L144.66 114.28L150.13 114.28Z" fill="rgba(188, 240, 145, 1)"/><path d="M158.94 114.28L158.94 118.97L160.50 118.97L160.50 122.09L158.94 122.09L158.94 126.78L153.47 126.78L153.47 123.66L155.81 123.66L155.81 117.41L153.47 117.41L153.47 114.28L158.94 114.28Z" fill="rgba(118, 255, 3, 1)"/><path d="M167.75 114.28L167.75 118.97L169.31 118.97L169.31 122.09L167.75 122.09L167.75 126.78L162.28 126.78L162.28 123.66L164.63 123.66L164.63 117.41L162.28 117.41L162.28 114.28L167.75 114.28Z" fill="rgba(118, 255, 3, 1)"/><path d="M176.56 114.28L176.56 118.97L178.13 118.97L178.13 122.09L176.56 122.09L176.56 126.78L171.09 126.78L171.09 123.66L173.44 123.66L173.44 117.41L171.09 117.41L171.09 114.28L176.56 114.28Z" fill="rgba(118, 255, 3, 1)"/><path d="M185.38 114.28L185.38 118.97L186.94 118.97L186.94 122.09L185.38 122.09L185.38 126.78L179.91 126.78L179.91 123.66L182.25 123.66L182.25 117.41L179.91 117.41L179.91 114.28L185.38 114.28Z" fill="rgba(118, 255, 3, 1)"/><path d="M194.19 114.28L194.19 118.97L195.75 118.97L195.75 122.09L194.19 122.09L194.19 126.78L188.72 126.78L188.72 123.66L191.06 123.66L191.06 117.41L188.72 117.41L188.72 114.28L194.19 114.28Z" fill="rgba(118, 255, 3, 1)"/><path d="M203 114.28L203 118.97L204.56 118.97L204.56 122.09L203 122.09L203 126.78L197.53 126.78L197.53 123.66L199.88 123.66L199.88 117.41L197.53 117.41L197.53 114.28L203 114.28Z" fill="rgba(117, 255, 2, 0.4)"/><path d="M9.13 128.28L9.13 132.97L10.69 132.97L10.69 136.09L9.13 136.09L9.13 140.78L3.66 140.78L3.66 137.66L6 137.66L6 131.41L3.66 131.41L3.66 128.28L9.13 128.28Z" fill="rgba(0, 0, 0, 0)"/><path d="M17.94 128.28L17.94 132.97L19.50 132.97L19.50 136.09L17.94 136.09L17.94 140.78L12.47 140.78L12.47 137.66L14.81 137.66L14.81 131.41L12.47 131.41L12.47 128.28L17.94 128.28Z" fill="rgba(0, 0, 0, 0)"/><path d="M26.75 128.28L26.75 132.97L28.31 132.97L28.31 136.09L26.75 136.09L26.75 140.78L21.28 140.78L21.28 137.66L23.63 137.66L23.63 131.41L21.28 131.41L21.28 128.28L26.75 128.28Z" fill="rgba(0, 0, 0, 0)"/><path d="M35.56 128.28L35.56 132.97L37.13 132.97L37.13 136.09L35.56 136.09L35.56 140.78L30.09 140.78L30.09 137.66L32.44 137.66L32.44 131.41L30.09 131.41L30.09 128.28L35.56 128.28Z" fill="rgba(0, 0, 0, 0)"/><path d="M44.38 128.28L44.38 132.97L45.94 132.97L45.94 136.09L44.38 136.09L44.38 140.78L38.91 140.78L38.91 137.66L41.25 137.66L41.25 131.41L38.91 131.41L38.91 128.28L44.38 128.28Z" fill="rgba(0, 0, 0, 0)"/><path d="M53.19 128.28L53.19 132.97L54.75 132.97L54.75 136.09L53.19 136.09L53.19 140.78L47.72 140.78L47.72 137.66L50.06 137.66L50.06 131.41L47.72 131.41L47.72 128.28L53.19 128.28Z" fill="rgba(0, 0, 0, 0)"/><path d="M62 128.28L62 132.97L63.56 132.97L63.56 136.09L62 136.09L62 140.78L56.53 140.78L56.53 137.66L58.88 137.66L58.88 131.41L56.53 131.41L56.53 128.28L62 128.28Z" fill="rgba(0, 255, 0, 0.00392156862745098)"/><path d="M70.81 128.28L70.81 132.97L72.38 132.97L72.38 136.09L70.81 136.09L70.81 140.78L65.34 140.78L65.34 137.66L67.69 137.66L67.69 131.41L65.34 131.41L65.34 128.28L70.81 128.28Z" fill="rgba(118, 255, 3, 1)"/><path d="M79.63 128.28L79.63 132.97L81.19 132.97L81.19 136.09L79.63 136.09L79.63 140.78L74.16 140.78L74.16 137.66L76.50 137.66L76.50 131.41L74.16 131.41L74.16 128.28L79.63 128.28Z" fill="rgba(118, 255, 3, 1)"/><path d="M88.44 128.28L88.44 132.97L90 132.97L90 136.09L88.44 136.09L88.44 140.78L82.97 140.78L82.97 137.66L85.31 137.66L85.31 131.41L82.97 131.41L82.97 128.28L88.44 128.28Z" fill="rgba(186, 241, 139, 1)"/><path d="M97.25 128.28L97.25 132.97L98.81 132.97L98.81 136.09L97.25 136.09L97.25 140.78L91.78 140.78L91.78 137.66L94.13 137.66L94.13 131.41L91.78 131.41L91.78 128.28L97.25 128.28Z" fill="rgba(231, 231, 231, 1)"/><path d="M106.06 128.28L106.06 132.97L107.63 132.97L107.63 136.09L106.06 136.09L106.06 140.78L100.59 140.78L100.59 137.66L102.94 137.66L102.94 131.41L100.59 131.41L100.59 128.28L106.06 128.28Z" fill="rgba(231, 231, 231, 1)"/><path d="M114.88 128.28L114.88 132.97L116.44 132.97L116.44 136.09L114.88 136.09L114.88 140.78L109.41 140.78L109.41 137.66L111.75 137.66L111.75 131.41L109.41 131.41L109.41 128.28L114.88 128.28Z" fill="rgba(231, 231, 231, 1)"/><path d="M123.69 128.28L123.69 132.97L125.25 132.97L125.25 136.09L123.69 136.09L123.69 140.78L118.22 140.78L118.22 137.66L120.56 137.66L120.56 131.41L118.22 131.41L118.22 128.28L123.69 128.28Z" fill="rgba(231, 231, 231, 1)"/><path d="M132.50 128.28L132.50 132.97L134.06 132.97L134.06 136.09L132.50 136.09L132.50 140.78L127.03 140.78L127.03 137.66L129.38 137.66L129.38 131.41L127.03 131.41L127.03 128.28L132.50 128.28Z" fill="rgba(231, 231, 231, 1)"/><path d="M141.31 128.28L141.31 132.97L142.88 132.97L142.88 136.09L141.31 136.09L141.31 140.78L135.84 140.78L135.84 137.66L138.19 137.66L138.19 131.41L135.84 131.41L135.84 128.28L141.31 128.28Z" fill="rgba(231, 231, 231, 1)"/><path d="M150.13 128.28L150.13 132.97L151.69 132.97L151.69 136.09L150.13 136.09L150.13 140.78L144.66 140.78L144.66 137.66L147 137.66L147 131.41L144.66 131.41L144.66 128.28L150.13 128.28Z" fill="rgba(231, 231, 231, 1)"/><path d="M158.94 128.28L158.94 132.97L160.50 132.97L160.50 136.09L158.94 136.09L158.94 140.78L153.47 140.78L153.47 137.66L155.81 137.66L155.81 131.41L153.47 131.41L153.47 128.28L158.94 128.28Z" fill="rgba(231, 231, 231, 1)"/><path d="M167.75 128.28L167.75 132.97L169.31 132.97L169.31 136.09L167.75 136.09L167.75 140.78L162.28 140.78L162.28 137.66L164.63 137.66L164.63 131.41L162.28 131.41L162.28 128.28L167.75 128.28Z" fill="rgba(231, 231, 231, 1)"/><path d="M176.56 128.28L176.56 132.97L178.13 132.97L178.13 136.09L176.56 136.09L176.56 140.78L171.09 140.78L171.09 137.66L173.44 137.66L173.44 131.41L171.09 131.41L171.09 128.28L176.56 128.28Z" fill="rgba(231, 231, 231, 1)"/><path d="M185.38 128.28L185.38 132.97L186.94 132.97L186.94 136.09L185.38 136.09L185.38 140.78L179.91 140.78L179.91 137.66L182.25 137.66L182.25 131.41L179.91 131.41L179.91 128.28L185.38 128.28Z" fill="rgba(118, 255, 3, 1)"/><path d="M194.19 128.28L194.19 132.97L195.75 132.97L195.75 136.09L194.19 136.09L194.19 140.78L188.72 140.78L188.72 137.66L191.06 137.66L191.06 131.41L188.72 131.41L188.72 128.28L194.19 128.28Z" fill="rgba(118, 255, 3, 1)"/><path d="M203 128.28L203 132.97L204.56 132.97L204.56 136.09L203 136.09L203 140.78L197.53 140.78L197.53 137.66L199.88 137.66L199.88 131.41L197.53 131.41L197.53 128.28L203 128.28Z" fill="rgba(119, 255, 3, 0.30980392156862746)"/><path d="M9.13 142.28L9.13 146.97L10.69 146.97L10.69 150.09L9.13 150.09L9.13 154.78L3.66 154.78L3.66 151.66L6 151.66L6 145.41L3.66 145.41L3.66 142.28L9.13 142.28Z" fill="rgba(0, 0, 0, 0)"/><path d="M17.94 142.28L17.94 146.97L19.50 146.97L19.50 150.09L17.94 150.09L17.94 154.78L12.47 154.78L12.47 151.66L14.81 151.66L14.81 145.41L12.47 145.41L12.47 142.28L17.94 142.28Z" fill="rgba(0, 0, 0, 0)"/><path d="M26.75 142.28L26.75 146.97L28.31 146.97L28.31 150.09L26.75 150.09L26.75 154.78L21.28 154.78L21.28 151.66L23.63 151.66L23.63 145.41L21.28 145.41L21.28 142.28L26.75 142.28Z" fill="rgba(0, 0, 0, 0)"/><path d="M35.56 142.28L35.56 146.97L37.13 146.97L37.13 150.09L35.56 150.09L35.56 154.78L30.09 154.78L30.09 151.66L32.44 151.66L32.44 145.41L30.09 145.41L30.09 142.28L35.56 142.28Z" fill="rgba(0, 0, 0, 0)"/><path d="M44.38 142.28L44.38 146.97L45.94 146.97L45.94 150.09L44.38 150.09L44.38 154.78L38.91 154.78L38.91 151.66L41.25 151.66L41.25 145.41L38.91 145.41L38.91 142.28L44.38 142.28Z" fill="rgba(0, 0, 0, 0)"/><path d="M53.19 142.28L53.19 146.97L54.75 146.97L54.75 150.09L53.19 150.09L53.19 154.78L47.72 154.78L47.72 151.66L50.06 151.66L50.06 145.41L47.72 145.41L47.72 142.28L53.19 142.28Z" fill="rgba(0, 0, 0, 0)"/><path d="M62 142.28L62 146.97L63.56 146.97L63.56 150.09L62 150.09L62 154.78L56.53 154.78L56.53 151.66L58.88 151.66L58.88 145.41L56.53 145.41L56.53 142.28L62 142.28Z" fill="rgba(118, 255, 3, 0.5843137254901961)"/><path d="M70.81 142.28L70.81 146.97L72.38 146.97L72.38 150.09L70.81 150.09L70.81 154.78L65.34 154.78L65.34 151.66L67.69 151.66L67.69 145.41L65.34 145.41L65.34 142.28L70.81 142.28Z" fill="rgba(118, 255, 3, 1)"/><path d="M79.63 142.28L79.63 146.97L81.19 146.97L81.19 150.09L79.63 150.09L79.63 154.78L74.16 154.78L74.16 151.66L76.50 151.66L76.50 145.41L74.16 145.41L74.16 142.28L79.63 142.28Z" fill="rgba(118, 255, 3, 1)"/><path d="M88.44 142.28L88.44 146.97L90 146.97L90 150.09L88.44 150.09L88.44 154.78L82.97 154.78L82.97 151.66L85.31 151.66L85.31 145.41L82.97 145.41L82.97 142.28L88.44 142.28Z" fill="rgba(231, 231, 231, 1)"/><path d="M97.25 142.28L97.25 146.97L98.81 146.97L98.81 150.09L97.25 150.09L97.25 154.78L91.78 154.78L91.78 151.66L94.13 151.66L94.13 145.41L91.78 145.41L91.78 142.28L97.25 142.28Z" fill="rgba(231, 231, 231, 1)"/><path d="M106.06 142.28L106.06 146.97L107.63 146.97L107.63 150.09L106.06 150.09L106.06 154.78L100.59 154.78L100.59 151.66L102.94 151.66L102.94 145.41L100.59 145.41L100.59 142.28L106.06 142.28Z" fill="rgba(231, 231, 231, 1)"/><path d="M114.88 142.28L114.88 146.97L116.44 146.97L116.44 150.09L114.88 150.09L114.88 154.78L109.41 154.78L109.41 151.66L111.75 151.66L111.75 145.41L109.41 145.41L109.41 142.28L114.88 142.28Z" fill="rgba(231, 231, 231, 1)"/><path d="M123.69 142.28L123.69 146.97L125.25 146.97L125.25 150.09L123.69 150.09L123.69 154.78L118.22 154.78L118.22 151.66L120.56 151.66L120.56 145.41L118.22 145.41L118.22 142.28L123.69 142.28Z" fill="rgba(231, 231, 231, 1)"/><path d="M132.50 142.28L132.50 146.97L134.06 146.97L134.06 150.09L132.50 150.09L132.50 154.78L127.03 154.78L127.03 151.66L129.38 151.66L129.38 145.41L127.03 145.41L127.03 142.28L132.50 142.28Z" fill="rgba(231, 231, 231, 1)"/><path d="M141.31 142.28L141.31 146.97L142.88 146.97L142.88 150.09L141.31 150.09L141.31 154.78L135.84 154.78L135.84 151.66L138.19 151.66L138.19 145.41L135.84 145.41L135.84 142.28L141.31 142.28Z" fill="rgba(186, 241, 140, 1)"/><path d="M150.13 142.28L150.13 146.97L151.69 146.97L151.69 150.09L150.13 150.09L150.13 154.78L144.66 154.78L144.66 151.66L147 151.66L147 145.41L144.66 145.41L144.66 142.28L150.13 142.28Z" fill="rgba(186, 241, 140, 1)"/><path d="M158.94 142.28L158.94 146.97L160.50 146.97L160.50 150.09L158.94 150.09L158.94 154.78L153.47 154.78L153.47 151.66L155.81 151.66L155.81 145.41L153.47 145.41L153.47 142.28L158.94 142.28Z" fill="rgba(186, 241, 140, 1)"/><path d="M167.75 142.28L167.75 146.97L169.31 146.97L169.31 150.09L167.75 150.09L167.75 154.78L162.28 154.78L162.28 151.66L164.63 151.66L164.63 145.41L162.28 145.41L162.28 142.28L167.75 142.28Z" fill="rgba(153, 247, 75, 1)"/><path d="M176.56 142.28L176.56 146.97L178.13 146.97L178.13 150.09L176.56 150.09L176.56 154.78L171.09 154.78L171.09 151.66L173.44 151.66L173.44 145.41L171.09 145.41L171.09 142.28L176.56 142.28Z" fill="rgba(153, 247, 75, 1)"/><path d="M185.38 142.28L185.38 146.97L186.94 146.97L186.94 150.09L185.38 150.09L185.38 154.78L179.91 154.78L179.91 151.66L182.25 151.66L182.25 145.41L179.91 145.41L179.91 142.28L185.38 142.28Z" fill="rgba(118, 255, 3, 1)"/><path d="M194.19 142.28L194.19 146.97L195.75 146.97L195.75 150.09L194.19 150.09L194.19 154.78L188.72 154.78L188.72 151.66L191.06 151.66L191.06 145.41L188.72 145.41L188.72 142.28L194.19 142.28Z" fill="rgba(118, 255, 3, 1)"/><path d="M203 142.28L203 146.97L204.56 146.97L204.56 150.09L203 150.09L203 154.78L197.53 154.78L197.53 151.66L199.88 151.66L199.88 145.41L197.53 145.41L197.53 142.28L203 142.28Z" fill="rgba(0, 0, 0, 0)"/><path d="M9.13 156.28L9.13 160.97L10.69 160.97L10.69 164.09L9.13 164.09L9.13 168.78L3.66 168.78L3.66 165.66L6 165.66L6 159.41L3.66 159.41L3.66 156.28L9.13 156.28Z" fill="rgba(0, 0, 0, 0)"/><path d="M17.94 156.28L17.94 160.97L19.50 160.97L19.50 164.09L17.94 164.09L17.94 168.78L12.47 168.78L12.47 165.66L14.81 165.66L14.81 159.41L12.47 159.41L12.47 156.28L17.94 156.28Z" fill="rgba(0, 0, 0, 0)"/><path d="M26.75 156.28L26.75 160.97L28.31 160.97L28.31 164.09L26.75 164.09L26.75 168.78L21.28 168.78L21.28 165.66L23.63 165.66L23.63 159.41L21.28 159.41L21.28 156.28L26.75 156.28Z" fill="rgba(0, 0, 0, 0)"/><path d="M35.56 156.28L35.56 160.97L37.13 160.97L37.13 164.09L35.56 164.09L35.56 168.78L30.09 168.78L30.09 165.66L32.44 165.66L32.44 159.41L30.09 159.41L30.09 156.28L35.56 156.28Z" fill="rgba(0, 0, 0, 0)"/><path d="M44.38 156.28L44.38 160.97L45.94 160.97L45.94 164.09L44.38 164.09L44.38 168.78L38.91 168.78L38.91 165.66L41.25 165.66L41.25 159.41L38.91 159.41L38.91 156.28L44.38 156.28Z" fill="rgba(0, 0, 0, 0)"/><path d="M53.19 156.28L53.19 160.97L54.75 160.97L54.75 164.09L53.19 164.09L53.19 168.78L47.72 168.78L47.72 165.66L50.06 165.66L50.06 159.41L47.72 159.41L47.72 156.28L53.19 156.28Z" fill="rgba(0, 0, 0, 0)"/><path d="M62 156.28L62 160.97L63.56 160.97L63.56 164.09L62 164.09L62 168.78L56.53 168.78L56.53 165.66L58.88 165.66L58.88 159.41L56.53 159.41L56.53 156.28L62 156.28Z" fill="rgba(118, 255, 3, 0.611764705882353)"/><path d="M70.81 156.28L70.81 160.97L72.38 160.97L72.38 164.09L70.81 164.09L70.81 168.78L65.34 168.78L65.34 165.66L67.69 165.66L67.69 159.41L65.34 159.41L65.34 156.28L70.81 156.28Z" fill="rgba(127, 253, 21, 1)"/><path d="M79.63 156.28L79.63 160.97L81.19 160.97L81.19 164.09L79.63 164.09L79.63 168.78L74.16 168.78L74.16 165.66L76.50 165.66L76.50 159.41L74.16 159.41L74.16 156.28L79.63 156.28Z" fill="rgba(127, 253, 21, 1)"/><path d="M88.44 156.28L88.44 160.97L90 160.97L90 164.09L88.44 164.09L88.44 168.78L82.97 168.78L82.97 165.66L85.31 165.66L85.31 159.41L82.97 159.41L82.97 156.28L88.44 156.28Z" fill="rgba(231, 231, 231, 1)"/><path d="M97.25 156.28L97.25 160.97L98.81 160.97L98.81 164.09L97.25 164.09L97.25 168.78L91.78 168.78L91.78 165.66L94.13 165.66L94.13 159.41L91.78 159.41L91.78 156.28L97.25 156.28Z" fill="rgba(231, 231, 231, 1)"/><path d="M106.06 156.28L106.06 160.97L107.63 160.97L107.63 164.09L106.06 164.09L106.06 168.78L100.59 168.78L100.59 165.66L102.94 165.66L102.94 159.41L100.59 159.41L100.59 156.28L106.06 156.28Z" fill="rgba(231, 231, 231, 1)"/><path d="M114.88 156.28L114.88 160.97L116.44 160.97L116.44 164.09L114.88 164.09L114.88 168.78L109.41 168.78L109.41 165.66L111.75 165.66L111.75 159.41L109.41 159.41L109.41 156.28L114.88 156.28Z" fill="rgba(231, 231, 231, 1)"/><path d="M123.69 156.28L123.69 160.97L125.25 160.97L125.25 164.09L123.69 164.09L123.69 168.78L118.22 168.78L118.22 165.66L120.56 165.66L120.56 159.41L118.22 159.41L118.22 156.28L123.69 156.28Z" fill="rgba(231, 231, 231, 1)"/><path d="M132.50 156.28L132.50 160.97L134.06 160.97L134.06 164.09L132.50 164.09L132.50 168.78L127.03 168.78L127.03 165.66L129.38 165.66L129.38 159.41L127.03 159.41L127.03 156.28L132.50 156.28Z" fill="rgba(230, 231, 228, 1)"/><path d="M141.31 156.28L141.31 160.97L142.88 160.97L142.88 164.09L141.31 164.09L141.31 168.78L135.84 168.78L135.84 165.66L138.19 165.66L138.19 159.41L135.84 159.41L135.84 156.28L141.31 156.28Z" fill="rgba(118, 255, 3, 1)"/><path d="M150.13 156.28L150.13 160.97L151.69 160.97L151.69 164.09L150.13 164.09L150.13 168.78L144.66 168.78L144.66 165.66L147 165.66L147 159.41L144.66 159.41L144.66 156.28L150.13 156.28Z" fill="rgba(118, 255, 3, 1)"/><path d="M158.94 156.28L158.94 160.97L160.50 160.97L160.50 164.09L158.94 164.09L158.94 168.78L153.47 168.78L153.47 165.66L155.81 165.66L155.81 159.41L153.47 159.41L153.47 156.28L158.94 156.28Z" fill="rgba(118, 255, 3, 1)"/><path d="M167.75 156.28L167.75 160.97L169.31 160.97L169.31 164.09L167.75 164.09L167.75 168.78L162.28 168.78L162.28 165.66L164.63 165.66L164.63 159.41L162.28 159.41L162.28 156.28L167.75 156.28Z" fill="rgba(118, 255, 3, 1)"/><path d="M176.56 156.28L176.56 160.97L178.13 160.97L178.13 164.09L176.56 164.09L176.56 168.78L171.09 168.78L171.09 165.66L173.44 165.66L173.44 159.41L171.09 159.41L171.09 156.28L176.56 156.28Z" fill="rgba(118, 255, 3, 1)"/><path d="M185.38 156.28L185.38 160.97L186.94 160.97L186.94 164.09L185.38 164.09L185.38 168.78L179.91 168.78L179.91 165.66L182.25 165.66L182.25 159.41L179.91 159.41L179.91 156.28L185.38 156.28Z" fill="rgba(118, 255, 3, 0.8705882352941177)"/><path d="M194.19 156.28L194.19 160.97L195.75 160.97L195.75 164.09L194.19 164.09L194.19 168.78L188.72 168.78L188.72 165.66L191.06 165.66L191.06 159.41L188.72 159.41L188.72 156.28L194.19 156.28Z" fill="rgba(118, 255, 3, 0.8705882352941177)"/><path d="M203 156.28L203 160.97L204.56 160.97L204.56 164.09L203 164.09L203 168.78L197.53 168.78L197.53 165.66L199.88 165.66L199.88 159.41L197.53 159.41L197.53 156.28L203 156.28Z" fill="rgba(0, 0, 0, 0)"/><path d="M9.13 170.28L9.13 174.97L10.69 174.97L10.69 178.09L9.13 178.09L9.13 182.78L3.66 182.78L3.66 179.66L6 179.66L6 173.41L3.66 173.41L3.66 170.28L9.13 170.28Z" fill="rgba(0, 0, 0, 0)"/><path d="M17.94 170.28L17.94 174.97L19.50 174.97L19.50 178.09L17.94 178.09L17.94 182.78L12.47 182.78L12.47 179.66L14.81 179.66L14.81 173.41L12.47 173.41L12.47 170.28L17.94 170.28Z" fill="rgba(0, 0, 0, 0)"/><path d="M26.75 170.28L26.75 174.97L28.31 174.97L28.31 178.09L26.75 178.09L26.75 182.78L21.28 182.78L21.28 179.66L23.63 179.66L23.63 173.41L21.28 173.41L21.28 170.28L26.75 170.28Z" fill="rgba(0, 0, 0, 0)"/><path d="M35.56 170.28L35.56 174.97L37.13 174.97L37.13 178.09L35.56 178.09L35.56 182.78L30.09 182.78L30.09 179.66L32.44 179.66L32.44 173.41L30.09 173.41L30.09 170.28L35.56 170.28Z" fill="rgba(0, 0, 0, 0)"/><path d="M44.38 170.28L44.38 174.97L45.94 174.97L45.94 178.09L44.38 178.09L44.38 182.78L38.91 182.78L38.91 179.66L41.25 179.66L41.25 173.41L38.91 173.41L38.91 170.28L44.38 170.28Z" fill="rgba(0, 0, 0, 0)"/><path d="M53.19 170.28L53.19 174.97L54.75 174.97L54.75 178.09L53.19 178.09L53.19 182.78L47.72 182.78L47.72 179.66L50.06 179.66L50.06 173.41L47.72 173.41L47.72 170.28L53.19 170.28Z" fill="rgba(0, 0, 0, 0)"/><path d="M62 170.28L62 174.97L63.56 174.97L63.56 178.09L62 178.09L62 182.78L56.53 182.78L56.53 179.66L58.88 179.66L58.88 173.41L56.53 173.41L56.53 170.28L62 170.28Z" fill="rgba(118, 255, 3, 1)"/><path d="M70.81 170.28L70.81 174.97L72.38 174.97L72.38 178.09L70.81 178.09L70.81 182.78L65.34 182.78L65.34 179.66L67.69 179.66L67.69 173.41L65.34 173.41L65.34 170.28L70.81 170.28Z" fill="rgba(163, 245, 94, 1)"/><path d="M79.63 170.28L79.63 174.97L81.19 174.97L81.19 178.09L79.63 178.09L79.63 182.78L74.16 182.78L74.16 179.66L76.50 179.66L76.50 173.41L74.16 173.41L74.16 170.28L79.63 170.28Z" fill="rgba(163, 245, 94, 1)"/><path d="M88.44 170.28L88.44 174.97L90 174.97L90 178.09L88.44 178.09L88.44 182.78L82.97 182.78L82.97 179.66L85.31 179.66L85.31 173.41L82.97 173.41L82.97 170.28L88.44 170.28Z" fill="rgba(231, 231, 231, 1)"/><path d="M97.25 170.28L97.25 174.97L98.81 174.97L98.81 178.09L97.25 178.09L97.25 182.78L91.78 182.78L91.78 179.66L94.13 179.66L94.13 173.41L91.78 173.41L91.78 170.28L97.25 170.28Z" fill="rgba(231, 231, 231, 1)"/><path d="M106.06 170.28L106.06 174.97L107.63 174.97L107.63 178.09L106.06 178.09L106.06 182.78L100.59 182.78L100.59 179.66L102.94 179.66L102.94 173.41L100.59 173.41L100.59 170.28L106.06 170.28Z" fill="rgba(231, 231, 231, 1)"/><path d="M114.88 170.28L114.88 174.97L116.44 174.97L116.44 178.09L114.88 178.09L114.88 182.78L109.41 182.78L109.41 179.66L111.75 179.66L111.75 173.41L109.41 173.41L109.41 170.28L114.88 170.28Z" fill="rgba(231, 231, 231, 1)"/><path d="M123.69 170.28L123.69 174.97L125.25 174.97L125.25 178.09L123.69 178.09L123.69 182.78L118.22 182.78L118.22 179.66L120.56 179.66L120.56 173.41L118.22 173.41L118.22 170.28L123.69 170.28Z" fill="rgba(231, 231, 231, 1)"/><path d="M132.50 170.28L132.50 174.97L134.06 174.97L134.06 178.09L132.50 178.09L132.50 182.78L127.03 182.78L127.03 179.66L129.38 179.66L129.38 173.41L127.03 173.41L127.03 170.28L132.50 170.28Z" fill="rgba(163, 245, 94, 1)"/><path d="M141.31 170.28L141.31 174.97L142.88 174.97L142.88 178.09L141.31 178.09L141.31 182.78L135.84 182.78L135.84 179.66L138.19 179.66L138.19 173.41L135.84 173.41L135.84 170.28L141.31 170.28Z" fill="rgba(118, 255, 3, 1)"/><path d="M150.13 170.28L150.13 174.97L151.69 174.97L151.69 178.09L150.13 178.09L150.13 182.78L144.66 182.78L144.66 179.66L147 179.66L147 173.41L144.66 173.41L144.66 170.28L150.13 170.28Z" fill="rgba(118, 255, 3, 1)"/><path d="M158.94 170.28L158.94 174.97L160.50 174.97L160.50 178.09L158.94 178.09L158.94 182.78L153.47 182.78L153.47 179.66L155.81 179.66L155.81 173.41L153.47 173.41L153.47 170.28L158.94 170.28Z" fill="rgba(0, 0, 0, 0)"/><path d="M167.75 170.28L167.75 174.97L169.31 174.97L169.31 178.09L167.75 178.09L167.75 182.78L162.28 182.78L162.28 179.66L164.63 179.66L164.63 173.41L162.28 173.41L162.28 170.28L167.75 170.28Z" fill="rgba(0, 0, 0, 0)"/><path d="M176.56 170.28L176.56 174.97L178.13 174.97L178.13 178.09L176.56 178.09L176.56 182.78L171.09 182.78L171.09 179.66L173.44 179.66L173.44 173.41L171.09 173.41L171.09 170.28L176.56 170.28Z" fill="rgba(0, 0, 0, 0)"/><path d="M185.38 170.28L185.38 174.97L186.94 174.97L186.94 178.09L185.38 178.09L185.38 182.78L179.91 182.78L179.91 179.66L182.25 179.66L182.25 173.41L179.91 173.41L179.91 170.28L185.38 170.28Z" fill="rgba(0, 0, 0, 0)"/><path d="M194.19 170.28L194.19 174.97L195.75 174.97L195.75 178.09L194.19 178.09L194.19 182.78L188.72 182.78L188.72 179.66L191.06 179.66L191.06 173.41L188.72 173.41L188.72 170.28L194.19 170.28Z" fill="rgba(0, 0, 0, 0)"/><path d="M203 170.28L203 174.97L204.56 174.97L204.56 178.09L203 178.09L203 182.78L197.53 182.78L197.53 179.66L199.88 179.66L199.88 173.41L197.53 173.41L197.53 170.28L203 170.28Z" fill="rgba(0, 0, 0, 0)"/><path d="M9.13 184.28L9.13 188.97L10.69 188.97L10.69 192.09L9.13 192.09L9.13 196.78L3.66 196.78L3.66 193.66L6 193.66L6 187.41L3.66 187.41L3.66 184.28L9.13 184.28Z" fill="rgba(0, 0, 0, 0)"/><path d="M17.94 184.28L17.94 188.97L19.50 188.97L19.50 192.09L17.94 192.09L17.94 196.78L12.47 196.78L12.47 193.66L14.81 193.66L14.81 187.41L12.47 187.41L12.47 184.28L17.94 184.28Z" fill="rgba(128, 255, 0, 0.01568627450980392)"/><path d="M26.75 184.28L26.75 188.97L28.31 188.97L28.31 192.09L26.75 192.09L26.75 196.78L21.28 196.78L21.28 193.66L23.63 193.66L23.63 187.41L21.28 187.41L21.28 184.28L26.75 184.28Z" fill="rgba(116, 255, 0, 0.08627450980392157)"/><path d="M35.56 184.28L35.56 188.97L37.13 188.97L37.13 192.09L35.56 192.09L35.56 196.78L30.09 196.78L30.09 193.66L32.44 193.66L32.44 187.41L30.09 187.41L30.09 184.28L35.56 184.28Z" fill="rgba(116, 255, 0, 0.08627450980392157)"/><path d="M44.38 184.28L44.38 188.97L45.94 188.97L45.94 192.09L44.38 192.09L44.38 196.78L38.91 196.78L38.91 193.66L41.25 193.66L41.25 187.41L38.91 187.41L38.91 184.28L44.38 184.28Z" fill="rgba(116, 255, 0, 0.08627450980392157)"/><path d="M53.19 184.28L53.19 188.97L54.75 188.97L54.75 192.09L53.19 192.09L53.19 196.78L47.72 196.78L47.72 193.66L50.06 193.66L50.06 187.41L47.72 187.41L47.72 184.28L53.19 184.28Z" fill="rgba(116, 255, 0, 0.08627450980392157)"/><path d="M62 184.28L62 188.97L63.56 188.97L63.56 192.09L62 192.09L62 196.78L56.53 196.78L56.53 193.66L58.88 193.66L58.88 187.41L56.53 187.41L56.53 184.28L62 184.28Z" fill="rgba(118, 255, 3, 1)"/><path d="M70.81 184.28L70.81 188.97L72.38 188.97L72.38 192.09L70.81 192.09L70.81 196.78L65.34 196.78L65.34 193.66L67.69 193.66L67.69 187.41L65.34 187.41L65.34 184.28L70.81 184.28Z" fill="rgba(169, 244, 107, 1)"/><path d="M79.63 184.28L79.63 188.97L81.19 188.97L81.19 192.09L79.63 192.09L79.63 196.78L74.16 196.78L74.16 193.66L76.50 193.66L76.50 187.41L74.16 187.41L74.16 184.28L79.63 184.28Z" fill="rgba(169, 244, 107, 1)"/><path d="M88.44 184.28L88.44 188.97L90 188.97L90 192.09L88.44 192.09L88.44 196.78L82.97 196.78L82.97 193.66L85.31 193.66L85.31 187.41L82.97 187.41L82.97 184.28L88.44 184.28Z" fill="rgba(231, 231, 231, 1)"/><path d="M97.25 184.28L97.25 188.97L98.81 188.97L98.81 192.09L97.25 192.09L97.25 196.78L91.78 196.78L91.78 193.66L94.13 193.66L94.13 187.41L91.78 187.41L91.78 184.28L97.25 184.28Z" fill="rgba(231, 231, 231, 1)"/><path d="M106.06 184.28L106.06 188.97L107.63 188.97L107.63 192.09L106.06 192.09L106.06 196.78L100.59 196.78L100.59 193.66L102.94 193.66L102.94 187.41L100.59 187.41L100.59 184.28L106.06 184.28Z" fill="rgba(231, 231, 231, 1)"/><path d="M114.88 184.28L114.88 188.97L116.44 188.97L116.44 192.09L114.88 192.09L114.88 196.78L109.41 196.78L109.41 193.66L111.75 193.66L111.75 187.41L109.41 187.41L109.41 184.28L114.88 184.28Z" fill="rgba(231, 231, 231, 1)"/><path d="M123.69 184.28L123.69 188.97L125.25 188.97L125.25 192.09L123.69 192.09L123.69 196.78L118.22 196.78L118.22 193.66L120.56 193.66L120.56 187.41L118.22 187.41L118.22 184.28L123.69 184.28Z" fill="rgba(231, 231, 231, 1)"/><path d="M132.50 184.28L132.50 188.97L134.06 188.97L134.06 192.09L132.50 192.09L132.50 196.78L127.03 196.78L127.03 193.66L129.38 193.66L129.38 187.41L127.03 187.41L127.03 184.28L132.50 184.28Z" fill="rgba(163, 245, 94, 1)"/><path d="M141.31 184.28L141.31 188.97L142.88 188.97L142.88 192.09L141.31 192.09L141.31 196.78L135.84 196.78L135.84 193.66L138.19 193.66L138.19 187.41L135.84 187.41L135.84 184.28L141.31 184.28Z" fill="rgba(119, 255, 3, 0.8588235294117647)"/><path d="M150.13 184.28L150.13 188.97L151.69 188.97L151.69 192.09L150.13 192.09L150.13 196.78L144.66 196.78L144.66 193.66L147 193.66L147 187.41L144.66 187.41L144.66 184.28L150.13 184.28Z" fill="rgba(119, 255, 3, 0.8588235294117647)"/><path d="M158.94 184.28L158.94 188.97L160.50 188.97L160.50 192.09L158.94 192.09L158.94 196.78L153.47 196.78L153.47 193.66L155.81 193.66L155.81 187.41L153.47 187.41L153.47 184.28L158.94 184.28Z" fill="rgba(0, 0, 0, 0)"/><path d="M167.75 184.28L167.75 188.97L169.31 188.97L169.31 192.09L167.75 192.09L167.75 196.78L162.28 196.78L162.28 193.66L164.63 193.66L164.63 187.41L162.28 187.41L162.28 184.28L167.75 184.28Z" fill="rgba(0, 0, 0, 0)"/><path d="M176.56 184.28L176.56 188.97L178.13 188.97L178.13 192.09L176.56 192.09L176.56 196.78L171.09 196.78L171.09 193.66L173.44 193.66L173.44 187.41L171.09 187.41L171.09 184.28L176.56 184.28Z" fill="rgba(0, 0, 0, 0)"/><path d="M185.38 184.28L185.38 188.97L186.94 188.97L186.94 192.09L185.38 192.09L185.38 196.78L179.91 196.78L179.91 193.66L182.25 193.66L182.25 187.41L179.91 187.41L179.91 184.28L185.38 184.28Z" fill="rgba(0, 0, 0, 0)"/><path d="M194.19 184.28L194.19 188.97L195.75 188.97L195.75 192.09L194.19 192.09L194.19 196.78L188.72 196.78L188.72 193.66L191.06 193.66L191.06 187.41L188.72 187.41L188.72 184.28L194.19 184.28Z" fill="rgba(0, 0, 0, 0)"/><path d="M203 184.28L203 188.97L204.56 188.97L204.56 192.09L203 192.09L203 196.78L197.53 196.78L197.53 193.66L199.88 193.66L199.88 187.41L197.53 187.41L197.53 184.28L203 184.28Z" fill="rgba(0, 0, 0, 0)"/><path d="M9.13 198.28L9.13 202.97L10.69 202.97L10.69 206.09L9.13 206.09L9.13 210.78L3.66 210.78L3.66 207.66L6 207.66L6 201.41L3.66 201.41L3.66 198.28L9.13 198.28Z" fill="rgba(0, 0, 0, 0)"/><path d="M17.94 198.28L17.94 202.97L19.50 202.97L19.50 206.09L17.94 206.09L17.94 210.78L12.47 210.78L12.47 207.66L14.81 207.66L14.81 201.41L12.47 201.41L12.47 198.28L17.94 198.28Z" fill="rgba(120, 255, 5, 0.2)"/><path d="M26.75 198.28L26.75 202.97L28.31 202.97L28.31 206.09L26.75 206.09L26.75 210.78L21.28 210.78L21.28 207.66L23.63 207.66L23.63 201.41L21.28 201.41L21.28 198.28L26.75 198.28Z" fill="rgba(118, 255, 3, 1)"/><path d="M35.56 198.28L35.56 202.97L37.13 202.97L37.13 206.09L35.56 206.09L35.56 210.78L30.09 210.78L30.09 207.66L32.44 207.66L32.44 201.41L30.09 201.41L30.09 198.28L35.56 198.28Z" fill="rgba(118, 255, 3, 1)"/><path d="M44.38 198.28L44.38 202.97L45.94 202.97L45.94 206.09L44.38 206.09L44.38 210.78L38.91 210.78L38.91 207.66L41.25 207.66L41.25 201.41L38.91 201.41L38.91 198.28L44.38 198.28Z" fill="rgba(118, 255, 3, 1)"/><path d="M53.19 198.28L53.19 202.97L54.75 202.97L54.75 206.09L53.19 206.09L53.19 210.78L47.72 210.78L47.72 207.66L50.06 207.66L50.06 201.41L47.72 201.41L47.72 198.28L53.19 198.28Z" fill="rgba(118, 255, 3, 1)"/><path d="M62 198.28L62 202.97L63.56 202.97L63.56 206.09L62 206.09L62 210.78L56.53 210.78L56.53 207.66L58.88 207.66L58.88 201.41L56.53 201.41L56.53 198.28L62 198.28Z" fill="rgba(118, 255, 3, 1)"/><path d="M70.81 198.28L70.81 202.97L72.38 202.97L72.38 206.09L70.81 206.09L70.81 210.78L65.34 210.78L65.34 207.66L67.69 207.66L67.69 201.41L65.34 201.41L65.34 198.28L70.81 198.28Z" fill="rgba(231, 231, 231, 1)"/><path d="M79.63 198.28L79.63 202.97L81.19 202.97L81.19 206.09L79.63 206.09L79.63 210.78L74.16 210.78L74.16 207.66L76.50 207.66L76.50 201.41L74.16 201.41L74.16 198.28L79.63 198.28Z" fill="rgba(231, 231, 231, 1)"/><path d="M88.44 198.28L88.44 202.97L90 202.97L90 206.09L88.44 206.09L88.44 210.78L82.97 210.78L82.97 207.66L85.31 207.66L85.31 201.41L82.97 201.41L82.97 198.28L88.44 198.28Z" fill="rgba(231, 231, 231, 1)"/><path d="M97.25 198.28L97.25 202.97L98.81 202.97L98.81 206.09L97.25 206.09L97.25 210.78L91.78 210.78L91.78 207.66L94.13 207.66L94.13 201.41L91.78 201.41L91.78 198.28L97.25 198.28Z" fill="rgba(231, 231, 231, 1)"/><path d="M106.06 198.28L106.06 202.97L107.63 202.97L107.63 206.09L106.06 206.09L106.06 210.78L100.59 210.78L100.59 207.66L102.94 207.66L102.94 201.41L100.59 201.41L100.59 198.28L106.06 198.28Z" fill="rgba(231, 231, 231, 1)"/><path d="M114.88 198.28L114.88 202.97L116.44 202.97L116.44 206.09L114.88 206.09L114.88 210.78L109.41 210.78L109.41 207.66L111.75 207.66L111.75 201.41L109.41 201.41L109.41 198.28L114.88 198.28Z" fill="rgba(231, 231, 231, 1)"/><path d="M123.69 198.28L123.69 202.97L125.25 202.97L125.25 206.09L123.69 206.09L123.69 210.78L118.22 210.78L118.22 207.66L120.56 207.66L120.56 201.41L118.22 201.41L118.22 198.28L123.69 198.28Z" fill="rgba(231, 231, 231, 1)"/><path d="M132.50 198.28L132.50 202.97L134.06 202.97L134.06 206.09L132.50 206.09L132.50 210.78L127.03 210.78L127.03 207.66L129.38 207.66L129.38 201.41L127.03 201.41L127.03 198.28L132.50 198.28Z" fill="rgba(125, 254, 17, 1)"/><path d="M141.31 198.28L141.31 202.97L142.88 202.97L142.88 206.09L141.31 206.09L141.31 210.78L135.84 210.78L135.84 207.66L138.19 207.66L138.19 201.41L135.84 201.41L135.84 198.28L141.31 198.28Z" fill="rgba(118, 255, 3, 0.6)"/><path d="M150.13 198.28L150.13 202.97L151.69 202.97L151.69 206.09L150.13 206.09L150.13 210.78L144.66 210.78L144.66 207.66L147 207.66L147 201.41L144.66 201.41L144.66 198.28L150.13 198.28Z" fill="rgba(118, 255, 3, 0.6)"/><path d="M158.94 198.28L158.94 202.97L160.50 202.97L160.50 206.09L158.94 206.09L158.94 210.78L153.47 210.78L153.47 207.66L155.81 207.66L155.81 201.41L153.47 201.41L153.47 198.28L158.94 198.28Z" fill="rgba(0, 0, 0, 0)"/><path d="M167.75 198.28L167.75 202.97L169.31 202.97L169.31 206.09L167.75 206.09L167.75 210.78L162.28 210.78L162.28 207.66L164.63 207.66L164.63 201.41L162.28 201.41L162.28 198.28L167.75 198.28Z" fill="rgba(0, 0, 0, 0)"/><path d="M176.56 198.28L176.56 202.97L178.13 202.97L178.13 206.09L176.56 206.09L176.56 210.78L171.09 210.78L171.09 207.66L173.44 207.66L173.44 201.41L171.09 201.41L171.09 198.28L176.56 198.28Z" fill="rgba(0, 0, 0, 0)"/><path d="M185.38 198.28L185.38 202.97L186.94 202.97L186.94 206.09L185.38 206.09L185.38 210.78L179.91 210.78L179.91 207.66L182.25 207.66L182.25 201.41L179.91 201.41L179.91 198.28L185.38 198.28Z" fill="rgba(0, 0, 0, 0)"/><path d="M194.19 198.28L194.19 202.97L195.75 202.97L195.75 206.09L194.19 206.09L194.19 210.78L188.72 210.78L188.72 207.66L191.06 207.66L191.06 201.41L188.72 201.41L188.72 198.28L194.19 198.28Z" fill="rgba(0, 0, 0, 0)"/><path d="M203 198.28L203 202.97L204.56 202.97L204.56 206.09L203 206.09L203 210.78L197.53 210.78L197.53 207.66L199.88 207.66L199.88 201.41L197.53 201.41L197.53 198.28L203 198.28Z" fill="rgba(0, 0, 0, 0)"/><path d="M9.13 212.28L9.13 216.97L10.69 216.97L10.69 220.09L9.13 220.09L9.13 224.78L3.66 224.78L3.66 221.66L6 221.66L6 215.41L3.66 215.41L3.66 212.28L9.13 212.28Z" fill="rgba(0, 0, 0, 0)"/><path d="M17.94 212.28L17.94 216.97L19.50 216.97L19.50 220.09L17.94 220.09L17.94 224.78L12.47 224.78L12.47 221.66L14.81 221.66L14.81 215.41L12.47 215.41L12.47 212.28L17.94 212.28Z" fill="rgba(118, 255, 3, 0.6039215686274509)"/><path d="M26.75 212.28L26.75 216.97L28.31 216.97L28.31 220.09L26.75 220.09L26.75 224.78L21.28 224.78L21.28 221.66L23.63 221.66L23.63 215.41L21.28 215.41L21.28 212.28L26.75 212.28Z" fill="rgba(118, 255, 3, 1)"/><path d="M35.56 212.28L35.56 216.97L37.13 216.97L37.13 220.09L35.56 220.09L35.56 224.78L30.09 224.78L30.09 221.66L32.44 221.66L32.44 215.41L30.09 215.41L30.09 212.28L35.56 212.28Z" fill="rgba(118, 255, 3, 1)"/><path d="M44.38 212.28L44.38 216.97L45.94 216.97L45.94 220.09L44.38 220.09L44.38 224.78L38.91 224.78L38.91 221.66L41.25 221.66L41.25 215.41L38.91 215.41L38.91 212.28L44.38 212.28Z" fill="rgba(231, 231, 231, 1)"/><path d="M53.19 212.28L53.19 216.97L54.75 216.97L54.75 220.09L53.19 220.09L53.19 224.78L47.72 224.78L47.72 221.66L50.06 221.66L50.06 215.41L47.72 215.41L47.72 212.28L53.19 212.28Z" fill="rgba(231, 231, 231, 1)"/><path d="M62 212.28L62 216.97L63.56 216.97L63.56 220.09L62 220.09L62 224.78L56.53 224.78L56.53 221.66L58.88 221.66L58.88 215.41L56.53 215.41L56.53 212.28L62 212.28Z" fill="rgba(231, 231, 231, 1)"/><path d="M70.81 212.28L70.81 216.97L72.38 216.97L72.38 220.09L70.81 220.09L70.81 224.78L65.34 224.78L65.34 221.66L67.69 221.66L67.69 215.41L65.34 215.41L65.34 212.28L70.81 212.28Z" fill="rgba(231, 231, 231, 1)"/><path d="M79.63 212.28L79.63 216.97L81.19 216.97L81.19 220.09L79.63 220.09L79.63 224.78L74.16 224.78L74.16 221.66L76.50 221.66L76.50 215.41L74.16 215.41L74.16 212.28L79.63 212.28Z" fill="rgba(231, 231, 231, 1)"/><path d="M88.44 212.28L88.44 216.97L90 216.97L90 220.09L88.44 220.09L88.44 224.78L82.97 224.78L82.97 221.66L85.31 221.66L85.31 215.41L82.97 215.41L82.97 212.28L88.44 212.28Z" fill="rgba(231, 231, 231, 1)"/><path d="M97.25 212.28L97.25 216.97L98.81 216.97L98.81 220.09L97.25 220.09L97.25 224.78L91.78 224.78L91.78 221.66L94.13 221.66L94.13 215.41L91.78 215.41L91.78 212.28L97.25 212.28Z" fill="rgba(231, 231, 231, 1)"/><path d="M106.06 212.28L106.06 216.97L107.63 216.97L107.63 220.09L106.06 220.09L106.06 224.78L100.59 224.78L100.59 221.66L102.94 221.66L102.94 215.41L100.59 215.41L100.59 212.28L106.06 212.28Z" fill="rgba(231, 231, 231, 1)"/><path d="M114.88 212.28L114.88 216.97L116.44 216.97L116.44 220.09L114.88 220.09L114.88 224.78L109.41 224.78L109.41 221.66L111.75 221.66L111.75 215.41L109.41 215.41L109.41 212.28L114.88 212.28Z" fill="rgba(231, 231, 231, 1)"/><path d="M123.69 212.28L123.69 216.97L125.25 216.97L125.25 220.09L123.69 220.09L123.69 224.78L118.22 224.78L118.22 221.66L120.56 221.66L120.56 215.41L118.22 215.41L118.22 212.28L123.69 212.28Z" fill="rgba(231, 231, 231, 1)"/><path d="M132.50 212.28L132.50 216.97L134.06 216.97L134.06 220.09L132.50 220.09L132.50 224.78L127.03 224.78L127.03 221.66L129.38 221.66L129.38 215.41L127.03 215.41L127.03 212.28L132.50 212.28Z" fill="rgba(118, 255, 3, 1)"/><path d="M141.31 212.28L141.31 216.97L142.88 216.97L142.88 220.09L141.31 220.09L141.31 224.78L135.84 224.78L135.84 221.66L138.19 221.66L138.19 215.41L135.84 215.41L135.84 212.28L141.31 212.28Z" fill="rgba(117, 255, 2, 0.4117647058823529)"/><path d="M150.13 212.28L150.13 216.97L151.69 216.97L151.69 220.09L150.13 220.09L150.13 224.78L144.66 224.78L144.66 221.66L147 221.66L147 215.41L144.66 215.41L144.66 212.28L150.13 212.28Z" fill="rgba(117, 255, 2, 0.4117647058823529)"/><path d="M158.94 212.28L158.94 216.97L160.50 216.97L160.50 220.09L158.94 220.09L158.94 224.78L153.47 224.78L153.47 221.66L155.81 221.66L155.81 215.41L153.47 215.41L153.47 212.28L158.94 212.28Z" fill="rgba(0, 0, 0, 0)"/><path d="M167.75 212.28L167.75 216.97L169.31 216.97L169.31 220.09L167.75 220.09L167.75 224.78L162.28 224.78L162.28 221.66L164.63 221.66L164.63 215.41L162.28 215.41L162.28 212.28L167.75 212.28Z" fill="rgba(0, 0, 0, 0)"/><path d="M176.56 212.28L176.56 216.97L178.13 216.97L178.13 220.09L176.56 220.09L176.56 224.78L171.09 224.78L171.09 221.66L173.44 221.66L173.44 215.41L171.09 215.41L171.09 212.28L176.56 212.28Z" fill="rgba(0, 0, 0, 0)"/><path d="M185.38 212.28L185.38 216.97L186.94 216.97L186.94 220.09L185.38 220.09L185.38 224.78L179.91 224.78L179.91 221.66L182.25 221.66L182.25 215.41L179.91 215.41L179.91 212.28L185.38 212.28Z" fill="rgba(0, 0, 0, 0)"/><path d="M194.19 212.28L194.19 216.97L195.75 216.97L195.75 220.09L194.19 220.09L194.19 224.78L188.72 224.78L188.72 221.66L191.06 221.66L191.06 215.41L188.72 215.41L188.72 212.28L194.19 212.28Z" fill="rgba(0, 0, 0, 0)"/><path d="M203 212.28L203 216.97L204.56 216.97L204.56 220.09L203 220.09L203 224.78L197.53 224.78L197.53 221.66L199.88 221.66L199.88 215.41L197.53 215.41L197.53 212.28L203 212.28Z" fill="rgba(0, 0, 0, 0)"/><path d="M9.13 226.28L9.13 230.97L10.69 230.97L10.69 234.09L9.13 234.09L9.13 238.78L3.66 238.78L3.66 235.66L6 235.66L6 229.41L3.66 229.41L3.66 226.28L9.13 226.28Z" fill="rgba(0, 0, 0, 0)"/><path d="M17.94 226.28L17.94 230.97L19.50 230.97L19.50 234.09L17.94 234.09L17.94 238.78L12.47 238.78L12.47 235.66L14.81 235.66L14.81 229.41L12.47 229.41L12.47 226.28L17.94 226.28Z" fill="rgba(118, 255, 3, 1)"/><path d="M26.75 226.28L26.75 230.97L28.31 230.97L28.31 234.09L26.75 234.09L26.75 238.78L21.28 238.78L21.28 235.66L23.63 235.66L23.63 229.41L21.28 229.41L21.28 226.28L26.75 226.28Z" fill="rgba(131, 252, 29, 1)"/><path d="M35.56 226.28L35.56 230.97L37.13 230.97L37.13 234.09L35.56 234.09L35.56 238.78L30.09 238.78L30.09 235.66L32.44 235.66L32.44 229.41L30.09 229.41L30.09 226.28L35.56 226.28Z" fill="rgba(131, 252, 29, 1)"/><path d="M44.38 226.28L44.38 230.97L45.94 230.97L45.94 234.09L44.38 234.09L44.38 238.78L38.91 238.78L38.91 235.66L41.25 235.66L41.25 229.41L38.91 229.41L38.91 226.28L44.38 226.28Z" fill="rgba(231, 231, 231, 1)"/><path d="M53.19 226.28L53.19 230.97L54.75 230.97L54.75 234.09L53.19 234.09L53.19 238.78L47.72 238.78L47.72 235.66L50.06 235.66L50.06 229.41L47.72 229.41L47.72 226.28L53.19 226.28Z" fill="rgba(231, 231, 231, 1)"/><path d="M62 226.28L62 230.97L63.56 230.97L63.56 234.09L62 234.09L62 238.78L56.53 238.78L56.53 235.66L58.88 235.66L58.88 229.41L56.53 229.41L56.53 226.28L62 226.28Z" fill="rgba(231, 231, 231, 1)"/><path d="M70.81 226.28L70.81 230.97L72.38 230.97L72.38 234.09L70.81 234.09L70.81 238.78L65.34 238.78L65.34 235.66L67.69 235.66L67.69 229.41L65.34 229.41L65.34 226.28L70.81 226.28Z" fill="rgba(231, 231, 231, 1)"/><path d="M79.63 226.28L79.63 230.97L81.19 230.97L81.19 234.09L79.63 234.09L79.63 238.78L74.16 238.78L74.16 235.66L76.50 235.66L76.50 229.41L74.16 229.41L74.16 226.28L79.63 226.28Z" fill="rgba(231, 231, 231, 1)"/><path d="M88.44 226.28L88.44 230.97L90 230.97L90 234.09L88.44 234.09L88.44 238.78L82.97 238.78L82.97 235.66L85.31 235.66L85.31 229.41L82.97 229.41L82.97 226.28L88.44 226.28Z" fill="rgba(231, 231, 231, 1)"/><path d="M97.25 226.28L97.25 230.97L98.81 230.97L98.81 234.09L97.25 234.09L97.25 238.78L91.78 238.78L91.78 235.66L94.13 235.66L94.13 229.41L91.78 229.41L91.78 226.28L97.25 226.28Z" fill="rgba(231, 231, 231, 1)"/><path d="M106.06 226.28L106.06 230.97L107.63 230.97L107.63 234.09L106.06 234.09L106.06 238.78L100.59 238.78L100.59 235.66L102.94 235.66L102.94 229.41L100.59 229.41L100.59 226.28L106.06 226.28Z" fill="rgba(231, 231, 231, 1)"/><path d="M114.88 226.28L114.88 230.97L116.44 230.97L116.44 234.09L114.88 234.09L114.88 238.78L109.41 238.78L109.41 235.66L111.75 235.66L111.75 229.41L109.41 229.41L109.41 226.28L114.88 226.28Z" fill="rgba(142, 250, 52, 1)"/><path d="M123.69 226.28L123.69 230.97L125.25 230.97L125.25 234.09L123.69 234.09L123.69 238.78L118.22 238.78L118.22 235.66L120.56 235.66L120.56 229.41L118.22 229.41L118.22 226.28L123.69 226.28Z" fill="rgba(142, 250, 52, 1)"/><path d="M132.50 226.28L132.50 230.97L134.06 230.97L134.06 234.09L132.50 234.09L132.50 238.78L127.03 238.78L127.03 235.66L129.38 235.66L129.38 229.41L127.03 229.41L127.03 226.28L132.50 226.28Z" fill="rgba(118, 255, 3, 1)"/><path d="M141.31 226.28L141.31 230.97L142.88 230.97L142.88 234.09L141.31 234.09L141.31 238.78L135.84 238.78L135.84 235.66L138.19 235.66L138.19 229.41L135.84 229.41L135.84 226.28L141.31 226.28Z" fill="rgba(0, 0, 0, 0)"/><path d="M150.13 226.28L150.13 230.97L151.69 230.97L151.69 234.09L150.13 234.09L150.13 238.78L144.66 238.78L144.66 235.66L147 235.66L147 229.41L144.66 229.41L144.66 226.28L150.13 226.28Z" fill="rgba(0, 0, 0, 0)"/><path d="M158.94 226.28L158.94 230.97L160.50 230.97L160.50 234.09L158.94 234.09L158.94 238.78L153.47 238.78L153.47 235.66L155.81 235.66L155.81 229.41L153.47 229.41L153.47 226.28L158.94 226.28Z" fill="rgba(0, 0, 0, 0)"/><path d="M167.75 226.28L167.75 230.97L169.31 230.97L169.31 234.09L167.75 234.09L167.75 238.78L162.28 238.78L162.28 235.66L164.63 235.66L164.63 229.41L162.28 229.41L162.28 226.28L167.75 226.28Z" fill="rgba(0, 0, 0, 0)"/><path d="M176.56 226.28L176.56 230.97L178.13 230.97L178.13 234.09L176.56 234.09L176.56 238.78L171.09 238.78L171.09 235.66L173.44 235.66L173.44 229.41L171.09 229.41L171.09 226.28L176.56 226.28Z" fill="rgba(0, 0, 0, 0)"/><path d="M185.38 226.28L185.38 230.97L186.94 230.97L186.94 234.09L185.38 234.09L185.38 238.78L179.91 238.78L179.91 235.66L182.25 235.66L182.25 229.41L179.91 229.41L179.91 226.28L185.38 226.28Z" fill="rgba(0, 0, 0, 0)"/><path d="M194.19 226.28L194.19 230.97L195.75 230.97L195.75 234.09L194.19 234.09L194.19 238.78L188.72 238.78L188.72 235.66L191.06 235.66L191.06 229.41L188.72 229.41L188.72 226.28L194.19 226.28Z" fill="rgba(0, 0, 0, 0)"/><path d="M203 226.28L203 230.97L204.56 230.97L204.56 234.09L203 234.09L203 238.78L197.53 238.78L197.53 235.66L199.88 235.66L199.88 229.41L197.53 229.41L197.53 226.28L203 226.28Z" fill="rgba(0, 0, 0, 0)"/><path d="M9.13 240.28L9.13 244.97L10.69 244.97L10.69 248.09L9.13 248.09L9.13 252.78L3.66 252.78L3.66 249.66L6 249.66L6 243.41L3.66 243.41L3.66 240.28L9.13 240.28Z" fill="rgba(120, 255, 4, 0.26666666666666666)"/><path d="M17.94 240.28L17.94 244.97L19.50 244.97L19.50 248.09L17.94 248.09L17.94 252.78L12.47 252.78L12.47 249.66L14.81 249.66L14.81 243.41L12.47 243.41L12.47 240.28L17.94 240.28Z" fill="rgba(118, 255, 3, 1)"/><path d="M26.75 240.28L26.75 244.97L28.31 244.97L28.31 248.09L26.75 248.09L26.75 252.78L21.28 252.78L21.28 249.66L23.63 249.66L23.63 243.41L21.28 243.41L21.28 240.28L26.75 240.28Z" fill="rgba(231, 231, 231, 1)"/><path d="M35.56 240.28L35.56 244.97L37.13 244.97L37.13 248.09L35.56 248.09L35.56 252.78L30.09 252.78L30.09 249.66L32.44 249.66L32.44 243.41L30.09 243.41L30.09 240.28L35.56 240.28Z" fill="rgba(231, 231, 231, 1)"/><path d="M44.38 240.28L44.38 244.97L45.94 244.97L45.94 248.09L44.38 248.09L44.38 252.78L38.91 252.78L38.91 249.66L41.25 249.66L41.25 243.41L38.91 243.41L38.91 240.28L44.38 240.28Z" fill="rgba(231, 231, 231, 1)"/><path d="M53.19 240.28L53.19 244.97L54.75 244.97L54.75 248.09L53.19 248.09L53.19 252.78L47.72 252.78L47.72 249.66L50.06 249.66L50.06 243.41L47.72 243.41L47.72 240.28L53.19 240.28Z" fill="rgba(231, 231, 231, 1)"/><path d="M62 240.28L62 244.97L63.56 244.97L63.56 248.09L62 248.09L62 252.78L56.53 252.78L56.53 249.66L58.88 249.66L58.88 243.41L56.53 243.41L56.53 240.28L62 240.28Z" fill="rgba(231, 231, 231, 1)"/><path d="M70.81 240.28L70.81 244.97L72.38 244.97L72.38 248.09L70.81 248.09L70.81 252.78L65.34 252.78L65.34 249.66L67.69 249.66L67.69 243.41L65.34 243.41L65.34 240.28L70.81 240.28Z" fill="rgba(231, 231, 231, 1)"/><path d="M79.63 240.28L79.63 244.97L81.19 244.97L81.19 248.09L79.63 248.09L79.63 252.78L74.16 252.78L74.16 249.66L76.50 249.66L76.50 243.41L74.16 243.41L74.16 240.28L79.63 240.28Z" fill="rgba(231, 231, 231, 1)"/><path d="M88.44 240.28L88.44 244.97L90 244.97L90 248.09L88.44 248.09L88.44 252.78L82.97 252.78L82.97 249.66L85.31 249.66L85.31 243.41L82.97 243.41L82.97 240.28L88.44 240.28Z" fill="rgba(231, 231, 231, 1)"/><path d="M97.25 240.28L97.25 244.97L98.81 244.97L98.81 248.09L97.25 248.09L97.25 252.78L91.78 252.78L91.78 249.66L94.13 249.66L94.13 243.41L91.78 243.41L91.78 240.28L97.25 240.28Z" fill="rgba(231, 231, 231, 1)"/><path d="M106.06 240.28L106.06 244.97L107.63 244.97L107.63 248.09L106.06 248.09L106.06 252.78L100.59 252.78L100.59 249.66L102.94 249.66L102.94 243.41L100.59 243.41L100.59 240.28L106.06 240.28Z" fill="rgba(231, 231, 231, 1)"/><path d="M114.88 240.28L114.88 244.97L116.44 244.97L116.44 248.09L114.88 248.09L114.88 252.78L109.41 252.78L109.41 249.66L111.75 249.66L111.75 243.41L109.41 243.41L109.41 240.28L114.88 240.28Z" fill="rgba(134, 252, 35, 1)"/><path d="M123.69 240.28L123.69 244.97L125.25 244.97L125.25 248.09L123.69 248.09L123.69 252.78L118.22 252.78L118.22 249.66L120.56 249.66L120.56 243.41L118.22 243.41L118.22 240.28L123.69 240.28Z" fill="rgba(134, 252, 35, 1)"/><path d="M132.50 240.28L132.50 244.97L134.06 244.97L134.06 248.09L132.50 248.09L132.50 252.78L127.03 252.78L127.03 249.66L129.38 249.66L129.38 243.41L127.03 243.41L127.03 240.28L132.50 240.28Z" fill="rgba(118, 255, 3, 1)"/><path d="M141.31 240.28L141.31 244.97L142.88 244.97L142.88 248.09L141.31 248.09L141.31 252.78L135.84 252.78L135.84 249.66L138.19 249.66L138.19 243.41L135.84 243.41L135.84 240.28L141.31 240.28Z" fill="rgba(0, 0, 0, 0)"/><path d="M150.13 240.28L150.13 244.97L151.69 244.97L151.69 248.09L150.13 248.09L150.13 252.78L144.66 252.78L144.66 249.66L147 249.66L147 243.41L144.66 243.41L144.66 240.28L150.13 240.28Z" fill="rgba(0, 0, 0, 0)"/><path d="M158.94 240.28L158.94 244.97L160.50 244.97L160.50 248.09L158.94 248.09L158.94 252.78L153.47 252.78L153.47 249.66L155.81 249.66L155.81 243.41L153.47 243.41L153.47 240.28L158.94 240.28Z" fill="rgba(0, 0, 0, 0)"/><path d="M167.75 240.28L167.75 244.97L169.31 244.97L169.31 248.09L167.75 248.09L167.75 252.78L162.28 252.78L162.28 249.66L164.63 249.66L164.63 243.41L162.28 243.41L162.28 240.28L167.75 240.28Z" fill="rgba(0, 0, 0, 0)"/><path d="M176.56 240.28L176.56 244.97L178.13 244.97L178.13 248.09L176.56 248.09L176.56 252.78L171.09 252.78L171.09 249.66L173.44 249.66L173.44 243.41L171.09 243.41L171.09 240.28L176.56 240.28Z" fill="rgba(0, 0, 0, 0)"/><path d="M185.38 240.28L185.38 244.97L186.94 244.97L186.94 248.09L185.38 248.09L185.38 252.78L179.91 252.78L179.91 249.66L182.25 249.66L182.25 243.41L179.91 243.41L179.91 240.28L185.38 240.28Z" fill="rgba(0, 0, 0, 0)"/><path d="M194.19 240.28L194.19 244.97L195.75 244.97L195.75 248.09L194.19 248.09L194.19 252.78L188.72 252.78L188.72 249.66L191.06 249.66L191.06 243.41L188.72 243.41L188.72 240.28L194.19 240.28Z" fill="rgba(0, 0, 0, 0)"/><path d="M203 240.28L203 244.97L204.56 244.97L204.56 248.09L203 248.09L203 252.78L197.53 252.78L197.53 249.66L199.88 249.66L199.88 243.41L197.53 243.41L197.53 240.28L203 240.28Z" fill="rgba(0, 0, 0, 0)"/><path d="M9.13 254.28L9.13 258.97L10.69 258.97L10.69 262.09L9.13 262.09L9.13 266.78L3.66 266.78L3.66 263.66L6 263.66L6 257.41L3.66 257.41L3.66 254.28L9.13 254.28Z" fill="rgba(117, 255, 2, 0.4)"/><path d="M17.94 254.28L17.94 258.97L19.50 258.97L19.50 262.09L17.94 262.09L17.94 266.78L12.47 266.78L12.47 263.66L14.81 263.66L14.81 257.41L12.47 257.41L12.47 254.28L17.94 254.28Z" fill="rgba(118, 255, 3, 1)"/><path d="M26.75 254.28L26.75 258.97L28.31 258.97L28.31 262.09L26.75 262.09L26.75 266.78L21.28 266.78L21.28 263.66L23.63 263.66L23.63 257.41L21.28 257.41L21.28 254.28L26.75 254.28Z" fill="rgba(127, 253, 21, 1)"/><path d="M35.56 254.28L35.56 258.97L37.13 258.97L37.13 262.09L35.56 262.09L35.56 266.78L30.09 266.78L30.09 263.66L32.44 263.66L32.44 257.41L30.09 257.41L30.09 254.28L35.56 254.28Z" fill="rgba(127, 253, 21, 1)"/><path d="M44.38 254.28L44.38 258.97L45.94 258.97L45.94 262.09L44.38 262.09L44.38 266.78L38.91 266.78L38.91 263.66L41.25 263.66L41.25 257.41L38.91 257.41L38.91 254.28L44.38 254.28Z" fill="rgba(127, 253, 21, 1)"/><path d="M53.19 254.28L53.19 258.97L54.75 258.97L54.75 262.09L53.19 262.09L53.19 266.78L47.72 266.78L47.72 263.66L50.06 263.66L50.06 257.41L47.72 257.41L47.72 254.28L53.19 254.28Z" fill="rgba(127, 253, 21, 1)"/><path d="M62 254.28L62 258.97L63.56 258.97L63.56 262.09L62 262.09L62 266.78L56.53 266.78L56.53 263.66L58.88 263.66L58.88 257.41L56.53 257.41L56.53 254.28L62 254.28Z" fill="rgba(127, 253, 21, 1)"/><path d="M70.81 254.28L70.81 258.97L72.38 258.97L72.38 262.09L70.81 262.09L70.81 266.78L65.34 266.78L65.34 263.66L67.69 263.66L67.69 257.41L65.34 257.41L65.34 254.28L70.81 254.28Z" fill="rgba(127, 253, 21, 1)"/><path d="M79.63 254.28L79.63 258.97L81.19 258.97L81.19 262.09L79.63 262.09L79.63 266.78L74.16 266.78L74.16 263.66L76.50 263.66L76.50 257.41L74.16 257.41L74.16 254.28L79.63 254.28Z" fill="rgba(127, 253, 21, 1)"/><path d="M88.44 254.28L88.44 258.97L90 258.97L90 262.09L88.44 262.09L88.44 266.78L82.97 266.78L82.97 263.66L85.31 263.66L85.31 257.41L82.97 257.41L82.97 254.28L88.44 254.28Z" fill="rgba(127, 253, 21, 1)"/><path d="M97.25 254.28L97.25 258.97L98.81 258.97L98.81 262.09L97.25 262.09L97.25 266.78L91.78 266.78L91.78 263.66L94.13 263.66L94.13 257.41L91.78 257.41L91.78 254.28L97.25 254.28Z" fill="rgba(120, 255, 7, 1)"/><path d="M106.06 254.28L106.06 258.97L107.63 258.97L107.63 262.09L106.06 262.09L106.06 266.78L100.59 266.78L100.59 263.66L102.94 263.66L102.94 257.41L100.59 257.41L100.59 254.28L106.06 254.28Z" fill="rgba(120, 255, 7, 1)"/><path d="M114.88 254.28L114.88 258.97L116.44 258.97L116.44 262.09L114.88 262.09L114.88 266.78L109.41 266.78L109.41 263.66L111.75 263.66L111.75 257.41L109.41 257.41L109.41 254.28L114.88 254.28Z" fill="rgba(118, 255, 3, 1)"/><path d="M123.69 254.28L123.69 258.97L125.25 258.97L125.25 262.09L123.69 262.09L123.69 266.78L118.22 266.78L118.22 263.66L120.56 263.66L120.56 257.41L118.22 257.41L118.22 254.28L123.69 254.28Z" fill="rgba(118, 255, 3, 1)"/><path d="M132.50 254.28L132.50 258.97L134.06 258.97L134.06 262.09L132.50 262.09L132.50 266.78L127.03 266.78L127.03 263.66L129.38 263.66L129.38 257.41L127.03 257.41L127.03 254.28L132.50 254.28Z" fill="rgba(116, 255, 0, 0.08627450980392157)"/><path d="M141.31 254.28L141.31 258.97L142.88 258.97L142.88 262.09L141.31 262.09L141.31 266.78L135.84 266.78L135.84 263.66L138.19 263.66L138.19 257.41L135.84 257.41L135.84 254.28L141.31 254.28Z" fill="rgba(0, 0, 0, 0)"/><path d="M150.13 254.28L150.13 258.97L151.69 258.97L151.69 262.09L150.13 262.09L150.13 266.78L144.66 266.78L144.66 263.66L147 263.66L147 257.41L144.66 257.41L144.66 254.28L150.13 254.28Z" fill="rgba(0, 0, 0, 0)"/><path d="M158.94 254.28L158.94 258.97L160.50 258.97L160.50 262.09L158.94 262.09L158.94 266.78L153.47 266.78L153.47 263.66L155.81 263.66L155.81 257.41L153.47 257.41L153.47 254.28L158.94 254.28Z" fill="rgba(0, 0, 0, 0)"/><path d="M167.75 254.28L167.75 258.97L169.31 258.97L169.31 262.09L167.75 262.09L167.75 266.78L162.28 266.78L162.28 263.66L164.63 263.66L164.63 257.41L162.28 257.41L162.28 254.28L167.75 254.28Z" fill="rgba(0, 0, 0, 0)"/><path d="M176.56 254.28L176.56 258.97L178.13 258.97L178.13 262.09L176.56 262.09L176.56 266.78L171.09 266.78L171.09 263.66L173.44 263.66L173.44 257.41L171.09 257.41L171.09 254.28L176.56 254.28Z" fill="rgba(0, 0, 0, 0)"/><path d="M185.38 254.28L185.38 258.97L186.94 258.97L186.94 262.09L185.38 262.09L185.38 266.78L179.91 266.78L179.91 263.66L182.25 263.66L182.25 257.41L179.91 257.41L179.91 254.28L185.38 254.28Z" fill="rgba(0, 0, 0, 0)"/><path d="M194.19 254.28L194.19 258.97L195.75 258.97L195.75 262.09L194.19 262.09L194.19 266.78L188.72 266.78L188.72 263.66L191.06 263.66L191.06 257.41L188.72 257.41L188.72 254.28L194.19 254.28Z" fill="rgba(0, 0, 0, 0)"/><path d="M203 254.28L203 258.97L204.56 258.97L204.56 262.09L203 262.09L203 266.78L197.53 266.78L197.53 263.66L199.88 263.66L199.88 257.41L197.53 257.41L197.53 254.28L203 254.28Z" fill="rgba(0, 0, 0, 0)"/><path d="M9.13 268.28L9.13 272.97L10.69 272.97L10.69 276.09L9.13 276.09L9.13 280.78L3.66 280.78L3.66 277.66L6 277.66L6 271.41L3.66 271.41L3.66 268.28L9.13 268.28Z" fill="rgba(118, 255, 6, 0.1607843137254902)"/><path d="M17.94 268.28L17.94 272.97L19.50 272.97L19.50 276.09L17.94 276.09L17.94 280.78L12.47 280.78L12.47 277.66L14.81 277.66L14.81 271.41L12.47 271.41L12.47 268.28L17.94 268.28Z" fill="rgba(117, 255, 2, 0.4)"/><path d="M26.75 268.28L26.75 272.97L28.31 272.97L28.31 276.09L26.75 276.09L26.75 280.78L21.28 280.78L21.28 277.66L23.63 277.66L23.63 271.41L21.28 271.41L21.28 268.28L26.75 268.28Z" fill="rgba(117, 255, 2, 0.4)"/><path d="M35.56 268.28L35.56 272.97L37.13 272.97L37.13 276.09L35.56 276.09L35.56 280.78L30.09 280.78L30.09 277.66L32.44 277.66L32.44 271.41L30.09 271.41L30.09 268.28L35.56 268.28Z" fill="rgba(117, 255, 2, 0.4)"/><path d="M44.38 268.28L44.38 272.97L45.94 272.97L45.94 276.09L44.38 276.09L44.38 280.78L38.91 280.78L38.91 277.66L41.25 277.66L41.25 271.41L38.91 271.41L38.91 268.28L44.38 268.28Z" fill="rgba(117, 255, 2, 0.4)"/><path d="M53.19 268.28L53.19 272.97L54.75 272.97L54.75 276.09L53.19 276.09L53.19 280.78L47.72 280.78L47.72 277.66L50.06 277.66L50.06 271.41L47.72 271.41L47.72 268.28L53.19 268.28Z" fill="rgba(117, 255, 2, 0.4)"/><path d="M62 268.28L62 272.97L63.56 272.97L63.56 276.09L62 276.09L62 280.78L56.53 280.78L56.53 277.66L58.88 277.66L58.88 271.41L56.53 271.41L56.53 268.28L62 268.28Z" fill="rgba(117, 255, 2, 0.4)"/><path d="M70.81 268.28L70.81 272.97L72.38 272.97L72.38 276.09L70.81 276.09L70.81 280.78L65.34 280.78L65.34 277.66L67.69 277.66L67.69 271.41L65.34 271.41L65.34 268.28L70.81 268.28Z" fill="rgba(117, 255, 2, 0.4)"/><path d="M79.63 268.28L79.63 272.97L81.19 272.97L81.19 276.09L79.63 276.09L79.63 280.78L74.16 280.78L74.16 277.66L76.50 277.66L76.50 271.41L74.16 271.41L74.16 268.28L79.63 268.28Z" fill="rgba(117, 255, 2, 0.4)"/><path d="M88.44 268.28L88.44 272.97L90 272.97L90 276.09L88.44 276.09L88.44 280.78L82.97 280.78L82.97 277.66L85.31 277.66L85.31 271.41L82.97 271.41L82.97 268.28L88.44 268.28Z" fill="rgba(117, 255, 2, 0.4)"/><path d="M97.25 268.28L97.25 272.97L98.81 272.97L98.81 276.09L97.25 276.09L97.25 280.78L91.78 280.78L91.78 277.66L94.13 277.66L94.13 271.41L91.78 271.41L91.78 268.28L97.25 268.28Z" fill="rgba(117, 255, 2, 0.4)"/><path d="M106.06 268.28L106.06 272.97L107.63 272.97L107.63 276.09L106.06 276.09L106.06 280.78L100.59 280.78L100.59 277.66L102.94 277.66L102.94 271.41L100.59 271.41L100.59 268.28L106.06 268.28Z" fill="rgba(117, 255, 2, 0.4)"/><path d="M114.88 268.28L114.88 272.97L116.44 272.97L116.44 276.09L114.88 276.09L114.88 280.78L109.41 280.78L109.41 277.66L111.75 277.66L111.75 271.41L109.41 271.41L109.41 268.28L114.88 268.28Z" fill="rgba(115, 255, 0, 0.0784313725490196)"/><path d="M123.69 268.28L123.69 272.97L125.25 272.97L125.25 276.09L123.69 276.09L123.69 280.78L118.22 280.78L118.22 277.66L120.56 277.66L120.56 271.41L118.22 271.41L118.22 268.28L123.69 268.28Z" fill="rgba(115, 255, 0, 0.0784313725490196)"/><path d="M132.50 268.28L132.50 272.97L134.06 272.97L134.06 276.09L132.50 276.09L132.50 280.78L127.03 280.78L127.03 277.66L129.38 277.66L129.38 271.41L127.03 271.41L127.03 268.28L132.50 268.28Z" fill="rgba(0, 0, 0, 0)"/><path d="M141.31 268.28L141.31 272.97L142.88 272.97L142.88 276.09L141.31 276.09L141.31 280.78L135.84 280.78L135.84 277.66L138.19 277.66L138.19 271.41L135.84 271.41L135.84 268.28L141.31 268.28Z" fill="rgba(0, 0, 0, 0)"/><path d="M150.13 268.28L150.13 272.97L151.69 272.97L151.69 276.09L150.13 276.09L150.13 280.78L144.66 280.78L144.66 277.66L147 277.66L147 271.41L144.66 271.41L144.66 268.28L150.13 268.28Z" fill="rgba(0, 0, 0, 0)"/><path d="M158.94 268.28L158.94 272.97L160.50 272.97L160.50 276.09L158.94 276.09L158.94 280.78L153.47 280.78L153.47 277.66L155.81 277.66L155.81 271.41L153.47 271.41L153.47 268.28L158.94 268.28Z" fill="rgba(0, 0, 0, 0)"/><path d="M167.75 268.28L167.75 272.97L169.31 272.97L169.31 276.09L167.75 276.09L167.75 280.78L162.28 280.78L162.28 277.66L164.63 277.66L164.63 271.41L162.28 271.41L162.28 268.28L167.75 268.28Z" fill="rgba(0, 0, 0, 0)"/><path d="M176.56 268.28L176.56 272.97L178.13 272.97L178.13 276.09L176.56 276.09L176.56 280.78L171.09 280.78L171.09 277.66L173.44 277.66L173.44 271.41L171.09 271.41L171.09 268.28L176.56 268.28Z" fill="rgba(0, 0, 0, 0)"/><path d="M185.38 268.28L185.38 272.97L186.94 272.97L186.94 276.09L185.38 276.09L185.38 280.78L179.91 280.78L179.91 277.66L182.25 277.66L182.25 271.41L179.91 271.41L179.91 268.28L185.38 268.28Z" fill="rgba(0, 0, 0, 0)"/><path d="M194.19 268.28L194.19 272.97L195.75 272.97L195.75 276.09L194.19 276.09L194.19 280.78L188.72 280.78L188.72 277.66L191.06 277.66L191.06 271.41L188.72 271.41L188.72 268.28L194.19 268.28Z" fill="rgba(0, 0, 0, 0)"/><path d="M203 268.28L203 272.97L204.56 272.97L204.56 276.09L203 276.09L203 280.78L197.53 280.78L197.53 277.66L199.88 277.66L199.88 271.41L197.53 271.41L197.53 268.28L203 268.28Z" fill="rgba(0, 0, 0, 0)"/></g></svg>